<svg width="24" height="24" viewBox="0 0 24 24" fill="none" xmlns="http://www.w3.org/2000/svg">
<path fill-rule="evenodd" clip-rule="evenodd" d="M16.619 15.8291C18.2689 15.0336 19.9048 13.8291 21.5126 12.2213C21.619 12.1148 21.6779 11.972 21.6779 11.8235C21.6779 11.6751 21.619 11.5322 21.5126 11.4286C18.3809 8.29132 15.1373 6.70308 11.8711 6.70308C10.6359 6.70308 9.40336 6.92997 8.17647 7.38375L2.97479 2.18487C2.7563 1.96639 2.40336 1.96639 2.18487 2.18487C1.96638 2.40336 1.96638 2.7591 2.18487 2.97759L7.06722 7.85994C5.41456 8.65546 3.77871 9.85994 2.17087 11.4678C2.06722 11.5742 2.0056 11.7171 2.0056 11.8655C2.0056 12.014 2.06442 12.1569 2.17087 12.2605C5.30532 15.395 8.54902 16.9832 11.8151 16.9832C13.0504 16.9832 14.2829 16.7563 15.5098 16.3025L20.7087 21.5014C20.8179 21.6106 20.9608 21.6667 21.1036 21.6667C21.2465 21.6667 21.3894 21.6106 21.4986 21.5014C21.7171 21.2829 21.7171 20.9272 21.4986 20.7087L16.619 15.8291ZM13.1513 12.3613L11.3137 10.5238C11.4734 10.4622 11.6359 10.4566 11.8179 10.4566C12.6639 10.4566 13.2101 11.0028 13.2101 11.8515C13.2101 12.0224 13.2045 12.1933 13.1513 12.3613ZM14.2297 13.4398L14.8515 14.0616C15.1849 13.4902 15.3557 12.7815 15.3585 11.944C15.3585 9.60784 14.0252 8.26891 11.7003 8.26891C10.8599 8.26891 10.1485 8.44258 9.57703 8.78431L10.1989 9.40616C10.6078 9.21008 11.112 9.11204 11.7003 9.11204C12.5966 9.11204 13.2913 9.33894 13.7647 9.78992C14.2633 10.2633 14.5154 10.9888 14.5154 11.944C14.5154 12.5322 14.4202 13.0308 14.2297 13.4398Z" fill="#313235"/>
</svg>
