<svg width="24" height="24" viewBox="0 0 24 24" fill="none" xmlns="http://www.w3.org/2000/svg">
<path fill-rule="evenodd" clip-rule="evenodd" d="M19.9695 4.04796C21.202 5.27765 21.8547 7.07597 21.8462 9.26364C21.8378 13.8743 15.9163 20.8435 15.0787 21.6698C14.9639 21.7846 14.807 21.8463 14.6474 21.8463C14.4849 21.8491 14.328 21.7846 14.216 21.6698C13.793 21.2608 12.8462 20.16 11.7454 18.6334C10.4737 20.2496 8.39247 20.4345 7.70899 20.4401C7.61095 20.4485 7.49611 20.4485 7.38967 20.4485H7.2188C6.15717 20.4317 2.15997 20.0536 2.15997 15.202C2.15997 10.3645 6.11516 10.0031 7.17398 9.99473H7.54093C7.50451 9.73703 7.4877 9.47653 7.49051 9.21602C7.49051 7.03955 8.15157 5.23843 9.39807 4.01714C10.6474 2.79585 12.4877 2.1684 14.6922 2.16C16.9051 2.1684 18.7314 2.81826 19.9695 4.04796ZM20.6222 9.25524C20.6138 12.7678 16.3084 18.4737 14.6446 20.3533C13.8434 19.4233 13.0927 18.4541 12.3925 17.4429C12.6194 16.8407 12.7594 16.1096 12.7594 15.2328C12.7594 11.5466 10.3785 10.4541 8.80423 10.132C8.74821 9.81266 8.70619 9.49894 8.71459 9.22443C8.71459 7.34207 9.2384 5.87989 10.2664 4.87709C11.2944 3.87148 12.8014 3.36448 14.6866 3.36448C16.5941 3.37569 18.0787 3.88829 19.0955 4.9023C20.1152 5.9135 20.6306 7.37569 20.6222 9.25524ZM11.5381 15.2356C11.5381 18.6586 9.11516 19.2132 7.68098 19.2356C7.61375 19.2419 7.53706 19.2435 7.46037 19.2451C7.43482 19.2456 7.40926 19.2461 7.38406 19.2468H7.23C5.79583 19.2216 3.38126 18.6754 3.38126 15.2048C3.38126 11.751 5.76221 11.2188 7.19079 11.202H7.64737C9.10115 11.2412 11.5381 11.8127 11.5381 15.2356ZM13.2048 8.82387C13.2048 7.85468 13.6838 7.38129 14.6698 7.38129C15.653 7.38129 16.1348 7.85468 16.1348 8.82387C16.1348 9.79305 15.6558 10.2664 14.6698 10.2664C13.6838 10.2664 13.2048 9.79305 13.2048 8.82387ZM14.6698 11.4765C13.0115 11.4765 11.9807 10.4597 11.9807 8.82667C11.9807 7.19361 13.0115 6.17681 14.6698 6.17681C16.328 6.17681 17.3589 7.19361 17.3589 8.82667C17.3561 10.4597 16.328 11.4765 14.6698 11.4765ZM10.7118 15.2048C10.709 14.8687 10.4373 14.5998 10.1011 14.6026V14.6054H8.06754V12.6278C8.06473 12.2917 7.79303 12.0227 7.45689 12.0255C7.12076 12.0227 6.84905 12.2917 6.84625 12.6278V14.6054H4.81824C4.4849 14.6026 4.21039 14.8715 4.20759 15.2076C4.21039 15.5438 4.4821 15.8127 4.81824 15.8099H6.84905V17.8183C6.85185 18.1544 7.12356 18.4233 7.45969 18.4205C7.79583 18.4233 8.06754 18.1544 8.07034 17.8183V15.8071H10.1011C10.4373 15.8099 10.709 15.541 10.7118 15.2048Z" fill="#313235"/>
</svg>
