<svg width="24" height="24" viewBox="0 0 24 24" fill="none" xmlns="http://www.w3.org/2000/svg">
<path fill-rule="evenodd" clip-rule="evenodd" d="M16.5224 11.9931C16.5224 9.72983 14.909 8.43852 13.2199 7.38249C14.909 6.32647 16.5224 5.03516 16.5224 2.77185C16.5224 2.43011 16.2339 2.15 15.8782 2.15C15.5224 2.15 15.2339 2.42731 15.2339 2.77185C15.2339 4.61219 13.7745 5.59538 12.0126 6.6486C10.2507 5.59258 8.79132 4.61219 8.79132 2.77185C8.79132 2.43011 8.5028 2.15 8.14706 2.15C7.79132 2.15 7.5028 2.42731 7.5028 2.77185C7.5028 5.03516 9.11625 6.32647 10.8053 7.38249C9.11625 8.43852 7.5028 9.73263 7.5028 11.9931C7.5028 13.1584 7.93137 14.0632 8.57283 14.8139C8.61204 14.8755 8.66246 14.9287 8.72129 14.9735C9.30952 15.6066 10.0462 16.1304 10.8025 16.601C9.11345 17.657 7.5 18.9483 7.5 21.2116C7.5 21.5534 7.78852 21.8335 8.14426 21.8335C8.5 21.8335 8.78852 21.5562 8.78852 21.2116C8.78852 19.3713 10.2507 18.3909 12.0098 17.3349C13.7689 18.3909 15.2311 19.3741 15.2311 21.2116C15.2311 21.5534 15.5196 21.8335 15.8753 21.8335C16.2311 21.8335 16.5196 21.5562 16.5196 21.2116C16.5196 18.9483 14.9062 17.657 13.2171 16.601C14.909 15.5478 16.5224 14.2564 16.5224 11.9931ZM9.43557 13.8727C9.15266 13.5057 8.95378 13.0968 8.85854 12.629H15.1639C15.0686 13.0968 14.8669 13.5029 14.5868 13.8727H9.43557ZM12.0098 8.11359C11.5784 8.37409 11.1667 8.6346 10.7857 8.8979H13.2367C12.8557 8.63179 12.444 8.37409 12.0098 8.11359Z" fill="#313235"/>
</svg>
