<svg width="24" height="24" viewBox="0 0 24 24" fill="none" xmlns="http://www.w3.org/2000/svg">
<path fill-rule="evenodd" clip-rule="evenodd" d="M11.4301 4.23123C11.4301 4.56736 11.7018 4.83907 12.0351 4.83907C12.3713 4.83627 12.6402 4.56456 12.6402 4.23123V2.75784C12.6402 2.42171 12.3685 2.15 12.0351 2.15C11.7018 2.15 11.4301 2.42171 11.4301 2.75784V4.23123ZM18.5449 17.4273C19.2844 17.4273 19.9287 17.9735 19.9287 18.5981V20.6682C19.9287 21.2928 19.2816 21.839 18.5449 21.839H5.52534C4.77464 21.839 4.14159 21.304 4.14159 20.6682V18.5981C4.14159 17.9651 4.77464 17.4301 5.52534 17.4301H5.6766V11.7018C5.6766 7.58416 7.9343 5.31526 12.0323 5.31526C16.1332 5.31526 18.3909 7.58416 18.3909 11.7018V17.4273H18.5449ZM18.7186 20.5673V18.6934C18.6654 18.6598 18.6065 18.6402 18.5449 18.6402H5.52534C5.46371 18.6402 5.40489 18.657 5.35167 18.6878V20.5757C5.40489 20.6065 5.46371 20.6206 5.52534 20.6206H18.5449C18.6065 20.6206 18.6682 20.6009 18.7186 20.5673ZM12.8783 12.4889H14.3545V11.7942H12.8783C12.5897 11.7942 12.3545 11.5589 12.3545 11.2676V9.78584H11.6626V11.2676C11.6654 11.5561 11.4301 11.7942 11.1388 11.7942H9.66258V12.4889H11.1388C11.4273 12.4889 11.6626 12.727 11.6626 13.0155V14.4973H12.3545V13.0155C12.3545 12.727 12.5897 12.4889 12.8783 12.4889ZM14.5729 10.741H13.3993V9.56455C13.3993 9.11357 13.0491 8.73262 12.6346 8.73262H11.3797C10.9651 8.73262 10.6122 9.11357 10.6122 9.56455V10.7438H9.4413C8.99312 10.7438 8.61217 11.0968 8.61217 11.5113V12.7746C8.61217 13.1892 8.99032 13.5421 9.43849 13.5421H10.6122V14.7186C10.6122 15.1696 10.9651 15.5505 11.3797 15.5505H12.6346C13.0491 15.5505 13.4021 15.1696 13.4021 14.7186V13.5393H14.5729C15.0211 13.5393 15.4021 13.1864 15.4021 12.769V11.5057C15.4021 11.094 15.0239 10.741 14.5729 10.741ZM4.82506 9.56175C4.82506 9.89508 4.55615 10.1668 4.22002 10.1696H2.75503C2.4189 10.1668 2.14999 9.89508 2.14999 9.56175C2.14999 9.22562 2.4217 8.95391 2.75503 8.95391H4.22282C4.55615 8.95391 4.82786 9.22562 4.82506 9.56175ZM21.8362 9.58976C21.8362 9.25363 21.5645 8.98192 21.2312 8.98192H19.7634C19.4301 8.98192 19.1584 9.25363 19.1584 9.58976C19.1584 9.9259 19.4301 10.1976 19.7634 10.1976H21.2312C21.5673 10.1976 21.8362 9.9231 21.8362 9.58976ZM5.66539 5.95672L4.62898 4.9147C4.39089 4.67661 4.39089 4.29285 4.62898 4.05476C4.86427 3.81947 5.24523 3.81666 5.48052 4.05196L5.48332 4.05476L6.51973 5.09677C6.75503 5.33767 6.75503 5.72142 6.51413 5.95952C6.40209 6.07156 6.25083 6.13319 6.09116 6.13599C5.9315 6.13319 5.77744 6.06876 5.66539 5.95672ZM16.5869 5.39929C16.5841 5.73543 16.853 6.00994 17.1892 6.01274C17.3488 6.01274 17.5029 5.94831 17.6178 5.83347L18.6542 4.79145C18.8895 4.55616 18.8895 4.17241 18.6542 3.93431L18.6514 3.93151C18.4161 3.69622 18.0351 3.69902 17.7998 3.93431L16.7634 4.97633C16.6514 5.08837 16.5869 5.23963 16.5869 5.39929Z" fill="#313235"/>
</svg>
