<svg width="24" height="24" viewBox="0 0 24 24" fill="none" xmlns="http://www.w3.org/2000/svg">
<path fill-rule="evenodd" clip-rule="evenodd" d="M11.4301 4.23123C11.4301 4.56737 11.7018 4.83908 12.0351 4.83908C12.3713 4.83628 12.6402 4.56457 12.6402 4.23123V2.75784C12.6402 2.42171 12.3685 2.15 12.0351 2.15C11.7018 2.15 11.4301 2.42171 11.4301 2.75784V4.23123ZM18.545 17.4273C19.2844 17.4273 19.9287 17.9735 19.9287 18.5954V20.6654C19.9287 21.2901 19.2816 21.8363 18.545 21.8363H5.52534C4.77464 21.8363 4.14159 21.3013 4.14159 20.6654V18.5954C4.14159 17.9623 4.77464 17.4273 5.52534 17.4273H5.6766V11.7018C5.6766 7.58418 7.93431 5.31527 12.0323 5.31527C16.1332 5.31527 18.3909 7.58418 18.3909 11.7018V17.4273H18.545ZM6.88669 17.4049V11.7018C6.88669 8.22283 8.57016 6.53095 12.0323 6.53095C15.5001 6.53095 17.1836 8.22283 17.1836 11.7018V17.4049H6.88669ZM18.7186 18.6934V20.5674C18.6682 20.601 18.6066 20.6206 18.545 20.6206H5.52534C5.46372 20.6206 5.4049 20.6066 5.35167 20.5758V18.6878C5.4049 18.657 5.46372 18.6402 5.52534 18.6402H18.545C18.6066 18.6402 18.6654 18.6598 18.7186 18.6934ZM4.82506 9.56177C4.82506 9.8951 4.55616 10.1668 4.22002 10.1696H2.75504C2.4189 10.1668 2.14999 9.8951 2.14999 9.56177C2.14999 9.22563 2.4217 8.95392 2.75504 8.95392H4.22282C4.55616 8.95392 4.82787 9.22563 4.82506 9.56177ZM21.8363 9.58978C21.8363 9.25364 21.5646 8.98193 21.2312 8.98193H19.7634C19.4301 8.98193 19.1584 9.25364 19.1584 9.58978C19.1584 9.92591 19.4301 10.1976 19.7634 10.1976H21.2312C21.5674 10.1976 21.8363 9.92311 21.8363 9.58978ZM5.6654 5.95672L4.62899 4.91471C4.39089 4.67661 4.39089 4.29286 4.62899 4.05476C4.86428 3.81947 5.24523 3.81667 5.48053 4.05196L5.48333 4.05476L6.51974 5.09678C6.75504 5.33768 6.75504 5.72143 6.51414 5.95953C6.40209 6.07157 6.25083 6.13319 6.09117 6.136C5.93151 6.13319 5.77745 6.06877 5.6654 5.95672ZM16.587 5.3993C16.5842 5.73544 16.8531 6.00995 17.1892 6.01275C17.3489 6.01275 17.5029 5.94832 17.6178 5.83348L18.6542 4.79146C18.8895 4.55616 18.8895 4.17241 18.6542 3.93432L18.6514 3.93151C18.4161 3.69622 18.0351 3.69902 17.7999 3.93432L16.7634 4.97633C16.6514 5.08838 16.587 5.23964 16.587 5.3993ZM14.3545 12.4889V11.7943H12.8755C12.587 11.7943 12.3517 11.5562 12.3517 11.2676V9.78586H11.6598V11.2676C11.6598 11.559 11.4245 11.7943 11.136 11.7943H9.6598V12.4889H11.136C11.4245 12.4889 11.6598 12.7242 11.6598 13.0155V14.4973H12.3517V13.0155C12.3517 12.7242 12.587 12.4889 12.8755 12.4889H14.3545ZM15.4049 11.5085C15.4049 11.094 15.0239 10.741 14.5758 10.741C14.5758 10.741 13.3993 10.741 13.4021 10.7354V9.55896C13.4021 9.10798 13.0492 8.72703 12.6346 8.72703H11.3797C10.9651 8.72703 10.6122 9.11079 10.6122 9.56177V10.741H9.44131C8.99313 10.741 8.61218 11.0912 8.61218 11.5085V12.7719C8.61218 13.1892 8.99313 13.5422 9.44131 13.5422H10.615V14.7186C10.615 15.1696 10.9679 15.5506 11.3825 15.5506H12.6374C13.0548 15.5506 13.4049 15.1696 13.4049 14.7186V13.5394H14.5758C15.0239 13.5394 15.4049 13.1864 15.4049 12.7719V11.5085Z" fill="#313235"/>
</svg>
