<svg width="24" height="24" viewBox="0 0 24 24" fill="none" xmlns="http://www.w3.org/2000/svg">
<path fill-rule="evenodd" clip-rule="evenodd" d="M19.0378 18.8179L20.7325 20.6807C20.7339 20.6835 20.736 20.6856 20.7381 20.6877C20.7402 20.6898 20.7423 20.6919 20.7437 20.6947C20.9566 20.944 20.9285 21.3165 20.6792 21.5294C20.5644 21.6303 20.4159 21.6807 20.2703 21.6807C20.0966 21.6835 19.9285 21.6078 19.8109 21.479L17.3907 18.8179H14.9678C14.9313 19.3641 14.7745 20.1737 14.1975 20.8067C13.6456 21.409 12.8613 21.7143 11.8613 21.7143C10.8585 21.7143 10.0714 21.4118 9.52239 20.8067C8.94535 20.1709 8.79129 19.3613 8.75768 18.8179H3.45796C3.20026 18.8207 2.96776 18.6583 2.87813 18.4174C2.79129 18.1765 2.86692 17.9076 3.0686 17.7479C5.11062 16.1176 4.92575 12.6919 4.92295 12.6583V8.82353C4.92295 7.64706 5.11902 6.61344 5.49437 5.72269L3.04619 3.02801C3.04258 3.0262 3.04013 3.02322 3.03734 3.01983C3.03581 3.01797 3.03417 3.01599 3.03219 3.014C2.8193 2.76471 2.84731 2.39216 3.09661 2.17927C3.35152 1.95798 3.73527 1.98039 3.96496 2.22969L6.12182 4.60224C6.34031 4.29132 6.59521 4.0028 6.87533 3.7451C8.8081 1.98319 11.4776 2.04482 11.8641 2.06723C12.2479 2.04202 14.9173 1.98319 16.8501 3.7451C18.147 4.92437 18.8053 6.63305 18.8053 8.82353V12.619C18.8053 12.6201 18.8052 12.6219 18.8051 12.6244C18.7976 12.7915 18.6474 16.1414 20.6596 17.7479C20.8613 17.9076 20.937 18.1765 20.8501 18.4174C20.7633 18.6583 20.5308 18.8179 20.2703 18.8179H19.0378ZM7.70726 4.63305C9.31276 3.16681 11.6741 3.26555 11.8156 3.27146L11.8221 3.27171C11.8501 3.27451 11.8781 3.27451 11.9061 3.27171L11.9126 3.27146C12.0541 3.26555 14.4155 3.16681 16.021 4.63305C17.0518 5.57703 17.5756 6.98599 17.5756 8.82353L17.5784 12.5826C17.5672 12.7227 17.4103 15.5238 18.8837 17.6134H17.9482L6.96776 5.53501C7.17505 5.19888 7.41874 4.89636 7.70726 4.63305ZM6.15264 12.6218C6.16104 12.7283 6.3179 15.5238 4.84732 17.6134H16.2955L6.42995 6.7535C6.24788 7.36975 6.15264 8.05882 6.15264 8.82353V12.6218ZM11.8585 20.5098C12.4972 20.5098 12.9594 20.3445 13.2703 20.0084C13.598 19.6555 13.6989 19.1737 13.7297 18.8179H9.99017C10.0182 19.1681 10.119 19.6555 10.444 20.0084C10.7549 20.3473 11.2171 20.5098 11.8585 20.5098Z" fill="#313235"/>
</svg>
