<svg width="24" height="24" viewBox="0 0 24 24" fill="none" xmlns="http://www.w3.org/2000/svg">
<path fill-rule="evenodd" clip-rule="evenodd" d="M11.7758 4.09366C11.7758 4.32701 11.9636 4.51483 12.1941 4.51483C12.4246 4.51483 12.6124 4.32701 12.6124 4.0965V2.56833C12.6124 2.33782 12.4246 2.15 12.1941 2.15C11.9636 2.15 11.7758 2.33782 11.7758 2.56833V4.09366ZM18.9461 17.998C19.6006 17.998 20.1725 18.4647 20.1725 18.9997V21.1483C20.1725 21.6805 19.5977 22.15 18.9461 22.15H5.44207C4.77626 22.15 4.21572 21.6918 4.21572 21.1483V18.9997C4.21572 18.4562 4.7791 17.998 5.44207 17.998H5.80912V11.8455C5.80912 7.64801 8.01712 5.43116 12.1913 5.43116C16.3682 5.43116 18.5791 7.64801 18.5791 11.8455V17.9952H18.9461V17.998ZM6.64565 17.9724V11.8484C6.64565 8.14602 8.50936 6.27351 12.1941 6.27351C15.8731 6.27351 17.7425 8.14886 17.7425 11.8484V17.9724H6.64565ZM19.3388 21.1255C19.316 21.1824 19.1425 21.3105 18.9433 21.3105H5.44207C5.22582 21.3105 5.06648 21.1853 5.05226 21.1483V19.0083C5.07502 18.9571 5.23151 18.8375 5.44207 18.8375H18.9461C19.1453 18.8375 19.316 18.9656 19.3359 18.9997L19.3388 21.1255ZM4.50879 9.62866C4.50879 9.85916 4.321 10.047 4.09053 10.0498H2.56826C2.33779 10.0498 2.14999 9.86201 2.14999 9.6315V9.62866C2.14999 9.39531 2.33779 9.20749 2.56826 9.20749H4.08768C4.321 9.20749 4.50879 9.39531 4.50879 9.62866ZM22.15 9.65427C22.15 9.42376 21.9622 9.23594 21.7317 9.23594L20.2095 9.23025C19.979 9.23025 19.7912 9.42092 19.7912 9.65142V9.65427C19.7912 9.88478 19.979 10.0726 20.2095 10.0726H21.7317C21.9622 10.0726 22.15 9.88478 22.15 9.65427ZM5.73514 5.7385L4.6596 4.65712C4.49741 4.49206 4.49741 4.22741 4.6596 4.06235C4.82178 3.90014 5.0864 3.8973 5.24859 4.05951L5.25143 4.06235L6.32697 5.14374C6.48916 5.30879 6.48631 5.5763 6.32128 5.74135C6.24446 5.81819 6.14203 5.86087 6.0339 5.86087C5.91724 5.86087 5.81197 5.81534 5.73514 5.7385ZM17.1166 5.31733C17.1166 5.55068 17.3072 5.73566 17.5377 5.73566C17.6487 5.73606 17.7553 5.69199 17.8336 5.61329L18.9091 4.5319C19.0713 4.36685 19.0713 4.10219 18.9091 3.93714L18.9063 3.93429C18.7441 3.77208 18.4795 3.77493 18.3173 3.93714L17.2418 5.01853C17.1621 5.09821 17.1166 5.20635 17.1166 5.31733ZM14.7236 12.7875V11.817H13.0676C12.8371 11.817 12.6494 11.6292 12.6494 11.3987V9.73395H11.6791V11.3987C11.6791 11.6292 11.4941 11.817 11.2637 11.8199H9.60767V12.7931H11.2637C11.4941 12.7931 11.6819 12.981 11.6819 13.2115V14.8762H12.6522V13.2115C12.6522 12.981 12.8371 12.7903 13.0705 12.7903L14.7236 12.7875ZM15.5602 11.6491C15.5602 11.2906 15.2187 10.9775 14.826 10.9775H13.4859V9.6315C13.4859 9.23879 13.1729 8.89445 12.8172 8.89445H11.5141C11.1584 8.89445 10.8454 9.23879 10.8454 9.6315V10.9804H9.50524C9.10689 10.9804 8.77113 11.2877 8.77113 11.652V12.961C8.77113 13.3253 9.10689 13.6326 9.50524 13.6326H10.8454V14.9787C10.8454 15.3771 11.1527 15.7157 11.5141 15.7157H12.8172C13.1786 15.7157 13.4859 15.3799 13.4859 14.9787V13.6298H14.826C15.2159 13.6298 15.5602 13.3168 15.5602 12.9582V11.6491Z" fill="#313235"/>
</svg>
