<svg width="24" height="24" viewBox="0 0 24 24" fill="none" xmlns="http://www.w3.org/2000/svg">
<path fill-rule="evenodd" clip-rule="evenodd" d="M21.7143 15.6863L21.7059 12.8403C21.7059 12.1321 21.2499 11.5414 21.0033 11.2219L21.0028 11.2213C20.0476 9.9748 19.1008 8.7199 18.1625 7.45939C17.8123 6.9804 17.2325 6.65547 16.6275 6.57424V5.11205C16.6275 4.32214 15.9496 3.68068 15.1092 3.68068H3.54342C2.70308 3.68068 2.02521 4.31373 2.02521 5.10365V16.2913C2.02521 17.0308 2.63025 17.6331 3.39776 17.7059C3.59384 19.1849 4.64706 20.0868 6.26331 20.0868C7.87115 20.0868 8.92437 19.1933 9.12885 17.7227H13.0616C13.2661 19.1933 14.3193 20.0868 15.9272 20.0868C17.535 20.0868 18.5882 19.1933 18.8011 17.7227H19.6583C20.1793 17.7227 20.7031 17.4958 21.0952 17.1065C21.4846 16.7171 21.7143 16.1961 21.7143 15.6863ZM15.4034 14.3333C14.1485 14.5042 13.3053 15.2941 13.0868 16.5042V16.5014H9.11205C8.85154 15.1205 7.81233 14.2913 6.26331 14.2913C4.73109 14.2913 3.70028 15.1121 3.43137 16.4622C3.33333 16.4286 3.2521 16.3642 3.2521 16.2913V5.10365C3.2521 5.00281 3.37535 4.89917 3.54622 4.89917H15.1092C15.2801 4.89917 15.4034 5.01401 15.4034 5.11205V14.3333ZM20.2297 16.2437C20.3922 16.0812 20.4902 15.8712 20.4902 15.6835L20.4818 12.8375C20.4818 12.5462 20.2045 12.1793 20.0336 11.9692C19.0728 10.7087 18.1176 9.44258 17.1681 8.17368C17.0308 7.99721 16.8431 7.87116 16.6303 7.80953V14.3586C17.7899 14.577 18.5658 15.3501 18.7759 16.5014H19.6583C19.8543 16.5042 20.0644 16.4062 20.2297 16.2437ZM15.9272 18.8684C17.0448 18.8684 17.6162 18.3081 17.6162 17.1961C17.6162 16.084 17.0448 15.5154 15.9272 15.5154C14.8095 15.5154 14.2465 16.084 14.2465 17.1961C14.2465 18.3081 14.8095 18.8684 15.9272 18.8684ZM6.26331 18.8684C7.38095 18.8684 7.95238 18.3081 7.95238 17.1961C7.95238 16.084 7.38095 15.5154 6.26331 15.5154C5.14566 15.5154 4.58263 16.084 4.58263 17.1961C4.58263 18.3081 5.14566 18.8684 6.26331 18.8684ZM12.3782 10.4174V9.42298L10.437 9.42578C10.1008 9.42578 9.82633 9.15407 9.82353 8.81513V6.88796H8.82633V8.82074C8.82633 9.15687 8.55182 9.43138 8.21569 9.43138L6.27451 9.43418V10.423H8.21849C8.55742 10.423 8.82913 10.6947 8.82913 11.0308L8.83193 12.9636H9.82633L9.82353 11.0308C9.82353 10.6947 10.098 10.4202 10.4342 10.4202H12.3782V10.4174ZM13.6022 9.12326C13.6022 8.62746 13.1457 8.20729 12.6022 8.20729H11.056V6.66387C11.056 6.12326 10.6331 5.66667 10.1345 5.66667H8.53221C8.03361 5.66667 7.61064 6.12326 7.61064 6.66387V8.21009H6.05882C5.51821 8.21009 5.05882 8.63026 5.05882 9.12606V10.7227C5.05882 11.2213 5.51821 11.6387 6.05882 11.6387H7.61345V13.1821C7.61345 13.7227 8.03361 14.1793 8.53221 14.1793H10.1345C10.6303 14.1793 11.0532 13.7227 11.0532 13.1821V11.6359H12.6022C13.1429 11.6359 13.6022 11.2157 13.6022 10.7199V9.12326Z" fill="#313235"/>
</svg>
