<svg width="24" height="24" viewBox="0 0 24 24" fill="none" xmlns="http://www.w3.org/2000/svg">
<path fill-rule="evenodd" clip-rule="evenodd" d="M19.3869 3.36073C19.3869 2.73048 18.8043 2.15625 18.1684 2.15625H5.83791C5.20205 2.15625 4.62222 2.73048 4.62502 3.35793V20.6408C4.62502 21.2795 5.19365 21.8425 5.84071 21.8425H18.1712C18.8183 21.8425 19.3869 21.2795 19.3869 20.6408V3.36073ZM18.5746 20.6408V3.36073C18.5746 3.18426 18.3561 2.97698 18.1684 2.97698H5.83791C5.65303 2.97698 5.43174 3.18426 5.43174 3.35793V20.638C5.43174 20.8257 5.63622 21.0218 5.83791 21.0218H9.88833V16.3355C9.88833 16.1086 10.0704 15.9266 10.2945 15.9266H13.7147C13.9387 15.9266 14.1208 16.1114 14.1208 16.3355V21.0218H18.1712C18.3701 21.0218 18.5746 20.8285 18.5746 20.6408ZM10.7007 20.9938H13.3085V16.7445H10.7007V20.9938ZM8.53538 7.37194H10.3113V5.57642H8.53258V7.37194H8.53538ZM11.1236 5.16465C11.1236 4.94056 10.9415 4.75569 10.7175 4.75569H8.12642C7.90233 4.75569 7.72026 4.93776 7.72026 5.16465V7.7809C7.72026 8.00499 7.90233 8.18986 8.12642 8.18986H10.7175C10.9415 8.18986 11.1236 8.00779 11.1236 7.7809V5.16465ZM13.653 7.37194H15.4317V5.57642H13.653V7.37194ZM16.2413 5.16465C16.2413 4.94056 16.0592 4.75569 15.8351 4.75569H13.2469C13.02 4.75569 12.8407 4.93776 12.8407 5.16465V7.7809C12.8407 8.00499 13.0228 8.18986 13.2469 8.18986H15.8351C16.062 8.18986 16.2413 8.00779 16.2413 7.7809V5.16465ZM8.53538 12.5092H10.3141V10.7137H8.53538V12.5092ZM11.1236 10.3019C11.1236 10.075 10.9415 9.89294 10.7175 9.89294H8.12642C7.90233 9.89294 7.72026 10.075 7.72026 10.3019V12.9182C7.72026 13.1422 7.90233 13.3271 8.12642 13.3271H10.7175C10.9415 13.3271 11.1236 13.145 11.1236 12.9182V10.3019ZM13.653 12.5092H15.4317V10.7137H13.653V12.5092ZM16.2413 10.3019C16.2413 10.075 16.0592 9.89294 15.8351 9.89294L13.2469 9.89014C13.02 9.89014 12.8407 10.0722 12.8407 10.2991V12.9182C12.8407 13.145 13.0228 13.3271 13.2469 13.3271H15.8351C16.062 13.3271 16.2413 13.145 16.2413 12.9182V10.3019Z" fill="#313235"/>
</svg>
