<svg width="24" height="24" viewBox="0 0 24 24" fill="none" xmlns="http://www.w3.org/2000/svg">
<path fill-rule="evenodd" clip-rule="evenodd" d="M17.9089 21.6862H5.90616C5.16946 21.6862 4.52521 21.042 4.52521 20.3081V3.38096C4.52521 2.65827 5.18347 2.00281 5.90616 2.00281H17.9089C18.6316 2.00281 19.2899 2.66107 19.2899 3.38096V20.3081C19.2871 21.042 18.6428 21.6862 17.9089 21.6862ZM9.65125 20.4818V16.0896C9.65125 15.7563 9.91735 15.4874 10.2423 15.4874H13.57C13.8977 15.4874 14.161 15.7563 14.161 16.0896V20.479H17.9061C18.0042 20.479 18.1022 20.3669 18.1022 20.3053V3.37815C18.0966 3.31933 17.979 3.20449 17.9061 3.20449H5.90336C5.82773 3.20449 5.71008 3.31653 5.70728 3.37815V20.3053C5.70728 20.3669 5.80812 20.479 5.90336 20.479L9.65125 20.4818ZM12.979 20.4509H10.8361V16.6919H12.979V20.4509ZM8.72688 7.10924H10.063V5.7507H8.72688V7.10924ZM8.13584 8.31372H10.6568C10.9818 8.31372 11.2479 8.04481 11.2479 7.71148V5.14846C11.2479 4.81513 10.9846 4.54622 10.6568 4.54622H8.13584C7.81091 4.54622 7.54481 4.81513 7.54481 5.14846V7.71148C7.54481 8.04481 7.80811 8.31372 8.13584 8.31372ZM13.7073 7.10924H15.0434V5.7507H13.7073V7.10924ZM13.1162 8.31372H15.6372C15.9622 8.31372 16.2283 8.04481 16.2283 7.71148V5.14846C16.2283 4.81513 15.965 4.54622 15.6372 4.54622H13.1162C12.7913 4.54622 12.5252 4.81513 12.5252 5.14846V7.71148C12.5252 8.04481 12.7885 8.31372 13.1162 8.31372ZM8.72688 12.14H10.063V10.7815H8.72688V12.14ZM8.13584 13.3445H10.6568C10.9818 13.3445 11.2479 13.0756 11.2479 12.7423V10.1793C11.2479 9.84593 10.9846 9.57702 10.6568 9.57702H8.13584C7.81091 9.57702 7.54481 9.84593 7.54481 10.1793V12.7423C7.54481 13.0756 7.80811 13.3445 8.13584 13.3445ZM13.7073 12.14H15.0434V10.7815H13.7073V12.14ZM13.1162 13.3445H15.6372C15.9622 13.3445 16.2283 13.0756 16.2283 12.7423V10.1793C16.2283 9.84593 15.965 9.57702 15.6372 9.57702H13.1162C12.7913 9.57702 12.5252 9.84593 12.5252 10.1793V12.7423C12.5252 13.0756 12.7885 13.3445 13.1162 13.3445Z" fill="#313235"/>
</svg>
