<svg width="24" height="24" viewBox="0 0 24 24" fill="none" xmlns="http://www.w3.org/2000/svg">
<path fill-rule="evenodd" clip-rule="evenodd" d="M21.7087 7.73109C21.7087 7.73109 21.9972 4.13445 18.07 4.13445V4.13725H16.9244V2.61064C16.9244 2.27171 16.6498 2 16.3081 2C15.9664 2 15.6919 2.27451 15.6919 2.61064V4.13445L8.05881 4.14006V2.61064C8.05881 2.27171 7.7843 2 7.44257 2C7.10083 2 6.82632 2.27451 6.82632 2.61064V4.13725L5.63584 4.14006C5.63584 4.14006 5.56582 4.13445 5.43977 4.13445C4.68626 4.13445 2.0308 4.37255 2.0308 7.71148V18.084C2.0308 18.084 1.7843 21.6695 5.64985 21.6695H18.0728C18.0728 21.6695 18.1933 21.6863 18.3865 21.6863C19.2689 21.6863 21.7115 21.3866 21.7115 18.0672L21.7087 7.73109ZM4.11204 5.70028C3.90195 5.83193 3.26049 6.23529 3.26049 7.71429V9.34174H20.479V7.73389C20.479 7.70308 20.479 7.66947 20.4818 7.63866C20.4818 7.63866 20.535 6.61345 19.9216 5.96639C19.535 5.56022 18.9132 5.35574 18.0672 5.35574H16.9188V5.53501C16.9188 5.87115 16.6442 6.14286 16.3025 6.14286C15.9636 6.14286 15.6891 5.87115 15.6863 5.53501V5.35574L8.05601 5.36134V5.53782C8.05601 5.87395 7.7815 6.14566 7.43977 6.14566C7.10083 6.14566 6.82632 5.87395 6.82352 5.53782V5.36134C6.08402 5.36134 5.63304 5.36415 5.63304 5.36415C5.59663 5.36415 5.56021 5.36134 5.5238 5.35854L5.51893 5.35828C5.50756 5.35758 5.47777 5.35574 5.43696 5.35574C5.20727 5.35294 4.61063 5.38655 4.11204 5.70028ZM20.4818 18.0672C20.4818 18.6611 20.4818 20.4678 18.3865 20.4678C18.3203 20.4678 18.2679 20.4647 18.2405 20.4631C18.2308 20.4626 18.2242 20.4622 18.2213 20.4622C18.1709 20.4538 18.1204 20.451 18.07 20.451H5.64705C4.82912 20.451 4.21568 20.2493 3.83472 19.8515C3.21288 19.2045 3.25769 18.1681 3.25769 18.1681C3.26049 18.1401 3.26049 18.112 3.26049 18.084V10.5602H20.4818V18.0672ZM14.7647 13.7227C15.3613 13.7227 15.8655 14.1877 15.8655 14.7423V16.1457C15.8655 16.6975 15.3613 17.1653 14.7647 17.1653H13.6078L13.6106 18.3109C13.6106 18.902 13.14 19.3978 12.5798 19.3978H11.1597C10.6022 19.3978 10.1316 18.902 10.1316 18.3109V17.1653H8.97478C8.36974 17.1653 7.87674 16.7087 7.87674 16.1457V14.7451C7.87674 14.1933 8.37814 13.7255 8.97478 13.7255H10.1344V12.577C10.1344 11.986 10.605 11.4874 11.1653 11.4874H12.5798C13.1372 11.4874 13.6078 11.986 13.6078 12.577V13.7227H14.7647ZM14.6358 15.9468V14.9412H12.9916C12.6527 14.9412 12.3781 14.6695 12.3753 14.3305V12.7059H11.3641V14.3333C11.3641 14.6695 11.0896 14.944 10.7479 14.944H9.10643V15.944H10.7479C11.0868 15.944 11.3641 16.2185 11.3641 16.5546V18.1793H12.3809L12.3753 16.5574C12.3781 16.2185 12.6527 15.9468 12.9916 15.9468H14.6358Z" fill="#313235"/>
</svg>
