<svg width="24" height="24" viewBox="0 0 24 24" fill="none" xmlns="http://www.w3.org/2000/svg">
<path fill-rule="evenodd" clip-rule="evenodd" d="M6.35451 2.14999H3.13042C2.5898 2.14999 2.15002 2.58977 2.15002 3.13039V6.35448C2.15002 6.89509 2.5898 7.33487 3.13042 7.33487H6.35451C6.89512 7.33487 7.3349 6.89509 7.3349 6.35448V3.13039C7.3349 2.58977 6.89512 2.14999 6.35451 2.14999ZM10.3825 2.14999H13.6066C14.1472 2.14999 14.587 2.58977 14.587 3.13039V6.35448C14.587 6.89509 14.1472 7.33487 13.6066 7.33487H10.3825C9.8419 7.33487 9.40213 6.89509 9.40213 6.35448V3.13039C9.40213 2.58977 9.8391 2.14999 10.3825 2.14999ZM17.6318 2.14999H20.8559C21.3965 2.14999 21.8363 2.58977 21.8363 3.13039V6.35448C21.8363 6.89509 21.3965 7.33487 20.8559 7.33487H17.6318C17.0912 7.33487 16.6514 6.89509 16.6514 6.35448V3.13039C16.6514 2.58977 17.0912 2.14999 17.6318 2.14999ZM17.6318 9.40209H20.8559C21.3965 9.40209 21.8363 9.84187 21.8363 10.3825V13.6066C21.8363 14.1472 21.3965 14.587 20.8559 14.587H17.6318C17.0912 14.587 16.6514 14.1472 16.6514 13.6066V10.3825C16.6514 9.83907 17.0912 9.40209 17.6318 9.40209ZM13.6066 9.40209H10.3825C9.8391 9.40209 9.40213 9.83907 9.40213 10.3825V13.6066C9.40213 14.1472 9.8419 14.587 10.3825 14.587H13.6066C14.1472 14.587 14.587 14.1472 14.587 13.6066V10.3825C14.587 9.84187 14.1472 9.40209 13.6066 9.40209ZM3.13042 9.40209H6.35451C6.89512 9.40209 7.3349 9.84187 7.3349 10.3825V13.6066C7.3349 14.1472 6.89512 14.587 6.35451 14.587H3.13042C2.5898 14.587 2.15002 14.1472 2.15002 13.6066V10.3825C2.15002 9.83907 2.5898 9.40209 3.13042 9.40209ZM13.6066 16.6514H10.3825C9.8391 16.6514 9.40213 17.0912 9.40213 17.6318V20.8559C9.40213 21.3965 9.8419 21.8363 10.3825 21.8363H13.6066C14.1472 21.8363 14.587 21.3965 14.587 20.8559V17.6318C14.587 17.0912 14.1472 16.6514 13.6066 16.6514ZM17.6094 16.6514H20.8335C21.3741 16.6514 21.8139 17.0912 21.8139 17.6318V20.8559C21.8139 21.3965 21.3741 21.8363 20.8335 21.8363H17.6094C17.0688 21.8363 16.629 21.3965 16.629 20.8559V17.6318C16.629 17.0912 17.066 16.6514 17.6094 16.6514ZM6.35451 16.6514H3.13042C2.5898 16.6514 2.15002 17.0912 2.15002 17.6318V20.8559C2.15002 21.3965 2.5898 21.8363 3.13042 21.8363H6.35451C6.89512 21.8363 7.3349 21.3965 7.3349 20.8559V17.6318C7.3349 17.0912 6.89512 16.6514 6.35451 16.6514Z" fill="#313235"/>
</svg>
