<svg width="24" height="24" viewBox="0 0 24 24" fill="none" xmlns="http://www.w3.org/2000/svg">
<path d="M21.7002 11.8459C21.7002 11.9972 21.6722 12.1457 21.6162 12.2857C21.4397 12.7199 21.014 12.986 20.5098 12.9804L16.8599 12.9832C16.8403 12.9944 16.8207 13.0056 16.8039 13.0224L16.7843 19.9048C16.7927 20.521 16.6386 20.9748 16.3165 21.2885C15.9943 21.6022 15.5406 21.7479 14.9243 21.7311H8.8823C8.46214 21.7395 7.85709 21.7003 7.43693 21.2941C7.01676 20.888 6.95793 20.2857 6.94953 19.8683V19.8599L6.95233 13.1485C6.94393 13.0924 6.92712 13.042 6.89911 12.9916L3.33609 12.9972H3.33049C2.47334 12.9916 2.18203 12.5826 2.08399 12.3389C1.91592 11.9216 2.06998 11.4398 2.50416 11.0168L11.2156 2.35855C11.2997 2.27171 11.5462 2.02241 11.9047 2.02522C12.056 2.02522 12.2829 2.07564 12.4985 2.29973L21.2016 10.7815C21.5266 11.0812 21.7002 11.4706 21.7002 11.8459Z" fill="#313235"/>
</svg>
