<svg width="24" height="24" viewBox="0 0 24 24" fill="none" xmlns="http://www.w3.org/2000/svg">
<path fill-rule="evenodd" clip-rule="evenodd" d="M15.0279 21.7338H15.028C15.591 21.7338 16.014 21.5882 16.3109 21.2857C16.633 20.9691 16.7871 20.5182 16.7787 19.9019L16.7983 13.0196C16.8151 13.0056 16.8375 12.9916 16.8543 12.9832L20.5042 12.9804C21.0112 12.9888 21.4341 12.7199 21.6106 12.2857C21.8123 11.7983 21.6498 11.2073 21.2045 10.7815L12.5014 2.29972C12.2857 2.07563 12.0588 2.02521 11.9076 2.02521H11.902C11.5434 2.02521 11.2997 2.27171 11.2157 2.35854L2.50422 11.0168C2.07004 11.4398 1.91598 11.9215 2.08405 12.3389C2.18209 12.5826 2.4734 12.9916 3.33054 12.9972H3.33615L6.89916 12.9916C6.92718 13.0448 6.94958 13.1092 6.95238 13.1484L6.94958 19.8599V19.8683C6.95799 20.2857 7.01401 20.8851 7.43698 21.2941C7.85714 21.7002 8.46219 21.7395 8.88235 21.731H14.9272C14.9607 21.7338 14.9943 21.7338 15.0279 21.7338ZM14.9496 20.6414H14.9328H8.87115C8.52661 20.6498 8.29412 20.605 8.19888 20.5126C8.10364 20.4201 8.05042 20.1932 8.04482 19.8571L8.04762 13.1484C8.04762 12.7115 7.70588 11.9019 7.05323 11.9019L3.34175 11.9075C3.27452 11.9075 3.2213 11.9019 3.17928 11.8963C3.20169 11.8683 3.2297 11.8347 3.26892 11.7983L3.27452 11.7927L11.8936 3.22689L20.4482 11.563L20.4538 11.5686C20.619 11.7255 20.6162 11.8571 20.6022 11.8767C20.5966 11.8795 20.5714 11.8907 20.5182 11.8907H20.5098L16.8319 11.8963C16.3249 11.8963 15.7115 12.3669 15.7115 12.9524L15.6919 19.9075V19.9159C15.6947 20.1232 15.6723 20.3921 15.5518 20.5126C15.4286 20.6302 15.1568 20.647 14.9496 20.6414Z" fill="#313235"/>
</svg>
