<svg width="24" height="24" viewBox="0 0 24 24" fill="none" xmlns="http://www.w3.org/2000/svg">
<path d="M10.2809 20.5881H10.2585C9.86352 20.5825 9.47977 20.392 9.11562 20.0278L4.06801 15.0026L4.0512 14.9858C3.73187 14.6385 3.61142 14.2771 3.68985 13.9074C3.76268 13.5713 3.99238 13.3024 4.21086 13.0839L4.22487 13.0699L9.34251 8.25754L6.76268 5.67771L6.75428 5.66931C6.43775 5.33877 6.34532 4.77575 6.53579 4.33037C6.71226 3.9158 7.10162 3.66931 7.57501 3.66931H19.6646C19.9447 3.6497 20.1969 3.73933 20.3817 3.92421C20.5666 4.10908 20.6562 4.36398 20.6338 4.64129L20.6282 16.7869C20.6394 17.2015 20.3957 17.5797 20.0148 17.7421C19.5582 17.9466 18.9644 17.8542 18.6086 17.5264L18.5918 17.5124L16.2165 15.1343L11.4265 20.039L11.4209 20.0447C11.0624 20.406 10.6786 20.5881 10.2809 20.5881Z" fill="#313235"/>
</svg>
