<svg width="24" height="24" viewBox="0 0 24 24" fill="none" xmlns="http://www.w3.org/2000/svg">
<path fill-rule="evenodd" clip-rule="evenodd" d="M19.831 20.4742H19.831C20.0159 20.4742 20.1784 20.4126 20.3016 20.2865C20.4361 20.1521 20.5005 19.9616 20.4837 19.7487V7.14929C20.4865 6.76554 20.296 6.46302 19.9655 6.32016C19.607 6.1661 19.1392 6.23893 18.8759 6.49103L18.8703 6.49663L16.0971 9.26974C16.0607 9.30896 16.0131 9.31176 15.9879 9.31176C15.9375 9.31176 15.8899 9.28935 15.8534 9.25293L10.6854 4.01484L10.6826 4.01204L10.6824 4.01189C10.4079 3.74012 9.83371 3.17183 9.08874 3.85518L9.08034 3.86358L4.03272 8.9196C3.69939 9.25013 3.53692 9.57786 3.53132 9.9168C3.52852 10.2585 3.69098 10.5975 4.01591 10.9224L9.08314 16.0176C9.12236 16.0541 9.14196 16.1017 9.14477 16.1521C9.14477 16.1773 9.13916 16.2249 9.10275 16.2613L6.53972 18.8244L6.53132 18.8328C6.26521 19.1213 6.18958 19.6199 6.35485 19.9924C6.4893 20.2922 6.75541 20.4658 7.08314 20.4658H7.09435L19.761 20.4714C19.7862 20.4742 19.8086 20.4742 19.831 20.4742ZM19.775 19.914L7.09435 19.9084H7.09154C7.01591 19.9084 6.92628 19.8916 6.87026 19.7655C6.79463 19.5975 6.83104 19.3426 6.94308 19.2165L9.50331 16.6563C9.64056 16.5162 9.71339 16.3314 9.70779 16.1325C9.70219 15.9392 9.62096 15.7571 9.4837 15.6199L4.41087 10.5274C4.19238 10.309 4.08874 10.1129 4.09154 9.9252C4.09435 9.74033 4.20639 9.53585 4.42768 9.31456L9.4725 4.26414C9.74701 4.01484 9.88146 4.00644 10.2876 4.4098L15.4557 9.64789C15.5929 9.78795 15.775 9.86638 15.9683 9.87198C16.1672 9.87758 16.3548 9.80476 16.4921 9.6675L19.2624 6.89719C19.3548 6.81316 19.5733 6.76554 19.7414 6.83837C19.8647 6.89159 19.9207 6.98963 19.9207 7.15209V19.7683C19.9207 19.7767 19.9235 19.7879 19.9235 19.7964C19.9291 19.8412 19.9207 19.8804 19.9039 19.8972C19.8871 19.914 19.8506 19.9224 19.803 19.9168C19.7946 19.914 19.7834 19.914 19.775 19.914Z" fill="#313235"/>
</svg>
