<svg width="24" height="24" viewBox="0 0 24 24" fill="none" xmlns="http://www.w3.org/2000/svg">
<path d="M14.0476 3.68066H14.07C14.465 3.68627 14.8487 3.87394 15.2129 4.24089L20.2605 9.2661L20.2773 9.2829C20.5966 9.63024 20.7171 9.99159 20.6386 10.3613C20.5658 10.6975 20.3361 10.9664 20.1176 11.1849L20.1036 11.1989L14.9888 16.0112L17.5686 18.591L17.577 18.5994C17.8935 18.93 17.986 19.493 17.7955 19.9384C17.619 20.3529 17.2297 20.5994 16.7563 20.5994H4.66385C4.38374 20.619 4.13164 20.5294 3.94676 20.3445C3.76189 20.1597 3.67225 19.9047 3.69466 19.6274L3.70026 7.48178C3.68906 7.06722 3.93276 6.68907 4.31371 6.5266C4.77029 6.32212 5.36133 6.41456 5.71987 6.74229L5.73668 6.75629L8.11483 9.13444L12.9047 4.22968L12.9103 4.22408C13.2661 3.86274 13.6498 3.68066 14.0476 3.68066Z" fill="#313235"/>
</svg>
