<svg width="24" height="24" viewBox="0 0 24 24" fill="none" xmlns="http://www.w3.org/2000/svg">
<path fill-rule="evenodd" clip-rule="evenodd" d="M11.8095 21.7338H11.8151C12.1709 21.7338 12.4136 21.4911 12.5049 21.3998L12.507 21.3977L21.2185 12.7395C21.6526 12.3165 21.8067 11.8347 21.6386 11.4173C21.5406 11.1736 21.2493 10.7647 20.3921 10.7591H20.3865L16.8235 10.7647C16.7955 10.7115 16.7731 10.647 16.7703 10.6078L16.7731 3.89635V3.88795C16.7647 3.47058 16.7087 2.87114 16.2857 2.46218C15.8655 2.05602 15.2605 2.0168 14.8403 2.0252H8.79831C8.18207 2.0084 7.72829 2.15125 7.40616 2.46778C7.08403 2.78431 6.92997 3.23809 6.93837 3.85433L6.91876 10.7367C6.90196 10.7535 6.87955 10.7675 6.86274 10.7759L3.21289 10.7787H3.19608C2.69748 10.7787 2.28292 11.042 2.10645 11.4734C1.90477 11.9636 2.06443 12.5546 2.51261 12.9804L11.2157 21.4593C11.4314 21.6834 11.6582 21.7338 11.8095 21.7338ZM3.11485 11.8851C3.12045 11.8823 3.14286 11.8711 3.19328 11.8711C3.19608 11.8711 3.19888 11.8711 3.19888 11.8683H3.20729L6.88515 11.8655C7.39215 11.8655 8.0056 11.3949 8.0056 10.8095L8.0252 3.85433V3.84593C8.0224 3.63865 8.04481 3.36974 8.16526 3.24929C8.28851 3.13165 8.56022 3.11484 8.7675 3.12044H14.8515C15.1961 3.11204 15.4285 3.15686 15.5238 3.24929C15.619 3.34173 15.6722 3.56862 15.6778 3.90475L15.675 10.6134C15.675 11.0504 16.0168 11.8599 16.6694 11.8599L20.3809 11.8543C20.4453 11.8543 20.4986 11.8599 20.5406 11.8655C20.5182 11.8935 20.4902 11.9271 20.4509 11.9636L20.4453 11.9692L11.8263 20.535L3.26891 12.1989L3.26331 12.1933C3.09804 12.0364 3.10084 11.9047 3.11485 11.8851Z" fill="#313235"/>
</svg>
