<svg width="24" height="24" viewBox="0 0 24 24" fill="none" xmlns="http://www.w3.org/2000/svg">
<path fill-rule="evenodd" clip-rule="evenodd" d="M9.11841 20.025C9.49096 20.3976 9.88872 20.5824 10.2837 20.5824C10.673 20.5824 11.0624 20.4032 11.4209 20.0418L11.4265 20.0362L16.2164 15.1315L18.5918 17.5124C18.5974 17.5152 18.603 17.5208 18.6086 17.5264C18.9671 17.8541 19.5582 17.9466 20.0147 17.7421C20.4041 17.5684 20.631 17.2127 20.6282 16.7869L20.6338 4.64129C20.6562 4.36118 20.5666 4.10908 20.3817 3.92421C20.1968 3.73933 19.9447 3.6497 19.6646 3.66931H7.5778C7.10161 3.66651 6.71226 3.913 6.53299 4.32757C6.34251 4.77295 6.43495 5.33597 6.75147 5.6665L6.75988 5.6749L9.3397 8.25473L4.22487 13.067L4.21086 13.0811C3.99237 13.2995 3.76268 13.5684 3.68985 13.9046C3.61142 14.2743 3.73187 14.6357 4.0512 14.983L4.068 14.9998L9.11841 20.025ZM9.87752 19.2631L4.83831 14.2463C4.77669 14.1791 4.75428 14.1371 4.74587 14.1203C4.75708 14.0923 4.7991 14.0166 4.96716 13.8458L10.152 8.96621L10.1632 8.95501C10.3453 8.77294 10.4489 8.53484 10.4573 8.27994C10.4658 8.01664 10.3649 7.76173 10.1828 7.57966L7.53018 4.92701C7.50497 4.88779 7.50217 4.78695 7.52178 4.75054C7.53018 4.74774 7.54699 4.74493 7.5722 4.74493H19.561L19.5554 16.7673C19.4909 16.7813 19.3845 16.7673 19.3425 16.7365L16.8943 14.2883C16.519 13.913 15.9027 13.9214 15.519 14.3051L15.5134 14.3107L10.659 19.2827C10.5554 19.3864 10.4069 19.5096 10.2809 19.5096H10.2781C10.1772 19.5068 10.0344 19.42 9.87752 19.2631Z" fill="#313235"/>
</svg>
