<svg width="24" height="24" viewBox="0 0 24 24" fill="none" xmlns="http://www.w3.org/2000/svg">
<path fill-rule="evenodd" clip-rule="evenodd" d="M6.2381 7.10504C7.20169 5.82773 8.94678 4.51401 12.0644 4.51401C13.0616 4.51401 13.8151 5.28151 13.8151 6.22269V17.6709C13.8151 18.6092 13.0672 19.3712 12.1457 19.3712C8.93838 19.3712 7.18208 18.0658 6.2241 16.7885L3.06443 16.7913C2.4846 16.7913 2.01121 16.3123 2.01121 15.7213L2.00281 8.18067C2.00281 7.89776 2.11205 7.62605 2.31093 7.42437C2.50701 7.22269 2.77592 7.10785 3.05603 7.10785L6.2381 7.10504ZM18.9384 5.44118C18.507 5.04902 17.8459 5.08544 17.4566 5.51961C17.0644 5.95658 17.098 6.63446 17.5238 7.03221C17.6078 7.11065 19.5406 8.95378 19.577 12.1443C19.5798 12.1751 19.6863 15.3543 17.5686 17.2815C17.1345 17.6765 17.098 18.3543 17.4846 18.7969C17.6919 19.0322 17.9804 19.1555 18.2717 19.1555C18.521 19.1555 18.7731 19.0658 18.9748 18.881C21.8291 16.2843 21.6919 12.2227 21.6835 12.0854C21.6387 7.95939 19.0476 5.54202 18.9384 5.44118ZM18.1093 12.119C18.0812 9.33754 16.3193 7.69608 16.2437 7.62885C15.8095 7.2339 15.1429 7.27031 14.7563 7.71009C14.3642 8.15266 14.4034 8.83053 14.8347 9.22549C14.8487 9.2367 15.9832 10.3235 16.0028 12.1779C16.0056 12.1947 16.0476 14.0378 14.8628 15.1162C14.4286 15.5112 14.3922 16.1891 14.7787 16.6317C14.986 16.8697 15.2745 16.9902 15.5658 16.9902C15.8151 16.9902 16.0672 16.9006 16.2689 16.7157C18.2069 14.9514 18.1121 12.2014 18.1093 12.1191V12.119Z" fill="#313235"/>
</svg>
