<svg width="24" height="24" viewBox="0 0 24 24" fill="none" xmlns="http://www.w3.org/2000/svg">
<path fill-rule="evenodd" clip-rule="evenodd" d="M21.8463 5.33008C21.8463 5.31807 21.8462 5.30897 21.8462 5.30286C21.8462 5.12639 21.7482 4.96393 21.611 4.85188C21.4821 4.73984 21.286 4.69222 21.1068 4.71463C19.4373 4.97233 18.5577 4.4009 17.4597 3.67821L17.4381 3.66423C16.3538 2.96176 15.1292 2.16835 13.0255 2.16H13.0171C10.9199 2.16 9.68673 2.96307 8.60715 3.6661L8.58854 3.67821L8.58801 3.67856C7.47902 4.40108 6.60229 4.97229 4.94989 4.71463C4.76782 4.67261 4.57454 4.71743 4.42888 4.83507C4.28322 4.94992 4.20199 5.11799 4.20199 5.30286C4.20199 5.30906 4.20197 5.31956 4.20195 5.33417C4.20124 5.78812 4.19435 10.2137 4.4793 13.188C2.99191 13.765 2.15997 15.076 2.15997 17.1992C2.15997 20.174 3.77902 21.5578 6.56053 21.555C8.08154 21.555 9.26361 21.146 10.0115 20.2861C11.4933 21.1936 12.7062 21.765 12.7622 21.7875C12.8434 21.8267 12.9331 21.8463 13.0227 21.8435C13.1124 21.8463 13.202 21.8267 13.2832 21.7875L13.2866 21.7858C13.6354 21.6212 20.7504 18.2623 21.3813 14.6586C21.8523 11.98 21.8467 5.85771 21.8463 5.33008ZM20.1796 14.4597C20.5521 12.3225 20.611 7.69222 20.6278 5.96953C18.8855 6.04236 17.8126 5.35888 16.7874 4.68381C15.751 4.00874 14.7734 3.37289 13.0255 3.36449H13.0171C11.281 3.36449 10.301 4.00626 9.27238 4.6799L9.26642 4.68381C8.2244 5.36729 7.14317 6.05916 5.42608 5.97793C5.43448 7.35328 5.4765 10.569 5.68658 12.8995C5.9779 12.8603 6.27202 12.8407 6.56614 12.8435C8.31684 12.8435 9.60815 13.3897 10.3252 14.5326C10.4233 14.5241 10.5297 14.5241 10.6333 14.5241H10.6334H15.4009C17.0199 14.5241 18.3645 15.0227 19.2832 15.9723C19.3084 15.9975 19.3336 16.0227 19.3645 16.062C19.7874 15.5185 20.0871 14.9807 20.1796 14.4597ZM15.8883 6.66701C15.2188 6.02835 14.2524 5.70622 13.0171 5.70622C11.7846 5.70622 10.8182 6.02835 10.1544 6.66701C9.46249 7.32807 9.11235 8.30846 9.11235 9.57737C9.11235 10.8463 9.46249 11.8239 10.1544 12.4821C10.821 13.118 11.7846 13.4373 13.0199 13.4373C14.2552 13.4373 15.2216 13.1152 15.8883 12.4849C16.5829 11.8239 16.9359 10.8463 16.9359 9.57737C16.9359 8.30846 16.5829 7.33087 15.8883 6.66701ZM15.0423 11.611C15.4905 11.188 15.7146 10.5045 15.7146 9.57457C15.7146 8.6446 15.4877 7.95832 15.0423 7.53255C14.6082 7.12079 13.9275 6.9107 13.0199 6.9107C12.1124 6.9107 11.4345 7.12079 11.0031 7.53255C10.5577 7.95832 10.3336 8.6446 10.3336 9.57457C10.3336 10.5017 10.5577 11.188 11.0031 11.611C11.4345 12.0199 12.1096 12.23 13.0199 12.23C13.9303 12.23 14.6082 12.0199 15.0423 11.611ZM8.51011 15.3281C8.71459 15.527 8.7174 15.8547 8.51852 16.0592L8.51011 16.0676L7.34765 17.216L8.51011 18.3645C8.71459 18.5634 8.7174 18.8911 8.51852 19.0956L8.51011 19.104C8.40927 19.202 8.27482 19.258 8.13476 19.2552C7.99471 19.2552 7.86025 19.202 7.75941 19.104L6.59695 17.9555L5.44008 19.0984C5.34205 19.1964 5.20479 19.2524 5.06473 19.2524C4.92468 19.2524 4.79023 19.1964 4.68938 19.0984C4.4849 18.8967 4.4821 18.569 4.68378 18.3673C4.68485 18.3662 4.68551 18.3651 4.68608 18.3642C4.68699 18.3628 4.68765 18.3617 4.68938 18.3617L5.84625 17.2188L4.68938 16.076C4.4849 15.8743 4.4821 15.5466 4.68378 15.3449C4.68485 15.3438 4.68551 15.3427 4.68608 15.3418C4.68699 15.3403 4.68765 15.3393 4.68938 15.3393C4.89667 15.1348 5.23 15.1348 5.43728 15.3393L6.59415 16.4821L7.75661 15.3337C7.9695 15.1264 8.30283 15.1264 8.51011 15.3281ZM18.5269 16.9443C16.8743 18.5017 14.3925 19.9107 13.0255 20.5774C12.2076 20.1656 11.4065 19.723 10.6278 19.2524C10.8631 18.681 10.9751 17.9975 10.9751 17.202C10.9751 16.6558 10.9191 16.1656 10.8126 15.7314H15.4009C16.6782 15.7314 17.7202 16.1012 18.4037 16.8071C18.4249 16.8283 18.4485 16.8552 18.4757 16.8863C18.4914 16.9043 18.5084 16.9238 18.5269 16.9443ZM6.56333 20.3505C8.80143 20.3505 9.75381 19.4093 9.75381 17.1992C9.75381 14.9947 8.80143 14.048 6.56333 14.048C4.33364 14.048 3.38126 14.9975 3.38126 17.1992C3.38126 19.4121 4.33364 20.3505 6.56333 20.3505Z" fill="#313235"/>
</svg>
