<svg width="24" height="24" viewBox="0 0 24 24" fill="none" xmlns="http://www.w3.org/2000/svg">
<path fill-rule="evenodd" clip-rule="evenodd" d="M20.1395 12.0996C22.4813 14.5982 22.4 17.3685 19.8846 19.8839C18.5905 21.1781 17.2376 21.8335 15.865 21.8335H15.7894C14.4392 21.8111 13.1143 21.1557 11.851 19.8924L11.6969 19.7439L11.6498 19.6979L11.6497 19.6978C11.5425 19.5933 11.4368 19.4904 11.344 19.3853L10.6605 18.7019C10.6558 18.6983 10.6506 18.6953 10.6455 18.6923L10.6455 18.6923C10.6385 18.6882 10.6318 18.6843 10.6269 18.6795L5.15073 13.2005C5.14547 13.1952 5.1424 13.1889 5.13947 13.1828C5.13772 13.1791 5.13602 13.1756 5.13392 13.1725L4.56809 12.6066C4.47286 12.5282 4.35802 12.4078 4.24318 12.2873L4.24316 12.2873L4.09471 12.1332C2.8286 10.8671 2.17594 9.54221 2.15073 8.19207C2.12552 6.78871 2.77818 5.41056 4.09471 4.09403C6.64653 1.53941 9.46165 1.503 12.0247 3.98199L13.1815 5.13885C13.1858 5.14313 13.1917 5.14577 13.1968 5.14803L13.2011 5.15005L18.6773 10.629L18.6773 10.6291C18.6801 10.6347 18.6829 10.6403 18.6857 10.6431L19.9546 11.912C20.0191 11.9736 20.0807 12.0352 20.1395 12.0996ZM5.5877 11.8952L5.40003 11.7075C5.30479 11.6262 5.21795 11.5338 5.12832 11.4358L4.96025 11.2621C2.837 9.13885 2.837 7.07723 4.96025 4.95398C6.02188 3.89235 7.06669 3.36014 8.11431 3.36014C9.12552 3.36014 10.1367 3.85874 11.1619 4.85033L11.8958 5.58423L5.5877 11.8952ZM11.0639 17.3741L17.3692 11.0632L12.7586 6.45258L6.45325 12.7635L11.0639 17.3741ZM19.0163 19.0184C21.0751 16.9596 21.1423 14.9652 19.2236 12.9148C19.1889 12.8739 19.1616 12.848 19.1374 12.825L19.1374 12.825C19.1284 12.8164 19.1199 12.8083 19.1115 12.7999L19.0247 12.7159L18.2376 11.9288L11.9294 18.2369L12.2404 18.5478C12.3524 18.6739 12.4448 18.7635 12.5401 18.8531L12.7138 19.0212C13.7474 20.0548 14.7866 20.587 15.809 20.6038C16.837 20.615 17.9462 20.0912 19.0163 19.0184ZM12.3804 11.4694C12.1367 11.2257 11.7446 11.2257 11.5009 11.4694C11.26 11.7131 11.26 12.108 11.5009 12.3489C11.7446 12.5926 12.1367 12.5926 12.3804 12.3489C12.6241 12.1052 12.6241 11.7131 12.3804 11.4694ZM10.949 14.3153C11.1927 14.0716 11.5877 14.0716 11.8286 14.3153C12.0723 14.559 12.0723 14.9512 11.8286 15.1949C11.5849 15.4386 11.1927 15.4386 10.949 15.1949C10.7081 14.954 10.7081 14.559 10.949 14.3153ZM15.2964 11.7299C15.5401 11.4862 15.5401 11.094 15.2964 10.8503C15.0527 10.6066 14.6605 10.6066 14.4168 10.8503C14.1731 11.0912 14.1731 11.4862 14.4168 11.7299C14.6605 11.9736 15.0527 11.9736 15.2964 11.7299ZM8.71655 12.0604C8.96025 11.8167 9.35241 11.8167 9.59611 12.0604C9.8398 12.3041 9.8398 12.6963 9.59611 12.94C9.35241 13.1837 8.96025 13.1837 8.71655 12.94C8.47286 12.6963 8.47286 12.3041 8.71655 12.0604ZM13.0639 8.59263C12.8202 8.34893 12.428 8.34893 12.1843 8.59263C11.9406 8.83633 11.9406 9.23129 12.1843 9.47218C12.4252 9.71588 12.8202 9.71588 13.0639 9.47218C13.3076 9.22849 13.3076 8.83633 13.0639 8.59263Z" fill="#313235"/>
</svg>
