<svg width="24" height="24" viewBox="0 0 24 24" fill="none" xmlns="http://www.w3.org/2000/svg">
<path fill-rule="evenodd" clip-rule="evenodd" d="M20.117 11.9701C22.4896 14.5023 22.4084 17.3146 19.8593 19.8608C18.5456 21.1774 17.1619 21.8356 15.7781 21.8356C14.4 21.8356 13.019 21.1802 11.7081 19.8664L11.5596 19.7236C11.4336 19.6031 11.3103 19.4827 11.2039 19.3594L10.5484 18.704C10.5428 18.6984 10.5365 18.6949 10.5302 18.6914C10.5239 18.6879 10.5176 18.6844 10.512 18.6788L5.14788 13.3174C5.14368 13.3132 5.14088 13.3083 5.13808 13.3034C5.13528 13.2985 5.13248 13.2936 5.12828 13.2894L4.57646 12.7376C4.48962 12.6648 4.36917 12.5415 4.24873 12.4155L4.11147 12.2726C2.83696 10.9981 2.1759 9.65357 2.15069 8.27822C2.12548 6.84965 2.78374 5.44909 4.11427 4.12136C6.6997 1.53313 9.55964 1.49112 12.1591 4.00932L13.2935 5.14377C13.2963 5.14657 13.2998 5.14797 13.3033 5.14937C13.3068 5.15077 13.3103 5.15217 13.3131 5.15498L18.6773 10.5163C18.6784 10.5175 18.6796 10.5196 18.681 10.5221C18.6829 10.5256 18.6852 10.5298 18.6885 10.5331L19.9294 11.7712C19.9486 11.7913 19.9682 11.8109 19.9876 11.8304L19.9876 11.8304L19.9876 11.8305L19.9877 11.8305C20.0331 11.8761 20.0778 11.9211 20.117 11.9701ZM5.24592 11.1438C4.27114 10.169 3.76693 9.19418 3.75013 8.24741C3.73332 7.26982 4.23472 6.26142 5.24592 5.25301C6.24032 4.25862 7.21791 3.76282 8.1955 3.76282C9.14227 3.76282 10.0834 4.22501 11.0386 5.14937L11.6157 5.7264L5.71931 11.6199L5.66609 11.5667C5.58947 11.4997 5.51899 11.4265 5.44765 11.3524L5.41119 11.3146L5.24592 11.1438ZM18.9238 13.0373C20.7137 14.9477 20.6493 16.8104 18.7277 18.732C16.7473 20.7152 14.8201 20.7152 12.8397 18.7404L12.6633 18.5695L12.6176 18.5256C12.5452 18.4564 12.4695 18.384 12.3748 18.2754L12.2095 18.1129L18.103 12.2222L18.7305 12.8468L18.8229 12.9365C18.8481 12.9589 18.8761 12.9841 18.9238 13.0373ZM11.512 12.3482C11.2739 12.1101 11.2739 11.7236 11.512 11.4855C11.7473 11.2474 12.1339 11.2474 12.3748 11.4855C12.6129 11.7236 12.6129 12.1101 12.3748 12.3482C12.1339 12.5863 11.7501 12.5863 11.512 12.3482ZM10.9714 14.2698C10.7333 14.5079 10.7333 14.8945 10.9714 15.1325C11.2095 15.3706 11.5961 15.3706 11.8341 15.1325C12.0722 14.8945 12.0722 14.5079 11.8341 14.2698C11.5933 14.0317 11.2095 14.0317 10.9714 14.2698ZM14.3636 10.8777C14.6016 10.6396 14.9882 10.6396 15.2263 10.8777C15.4644 11.1157 15.4644 11.4995 15.2263 11.7404C14.9882 11.9785 14.6016 11.9785 14.3636 11.7404C14.1255 11.5023 14.1255 11.1157 14.3636 10.8777ZM8.78373 12.0625C8.54564 12.3006 8.54564 12.6872 8.78373 12.9253C9.02183 13.1634 9.40838 13.1634 9.64648 12.9253C9.88457 12.6872 9.88457 12.3006 9.64648 12.0625C9.40838 11.8244 9.02183 11.8244 8.78373 12.0625ZM12.1759 9.53032C11.9378 9.29222 11.9378 8.90567 12.1759 8.66757C12.414 8.43228 12.8005 8.43228 13.0386 8.66757C13.2767 8.90567 13.2767 9.29222 13.0386 9.53032C12.8005 9.76841 12.414 9.76841 12.1759 9.53032Z" fill="#313235"/>
</svg>
