<svg width="24" height="24" viewBox="0 0 24 24" fill="none" xmlns="http://www.w3.org/2000/svg">
<path fill-rule="evenodd" clip-rule="evenodd" d="M15.2003 4.13725C16.2451 4.15966 17.035 4.43697 17.6036 4.9972C18.1919 5.57983 18.4776 6.39216 18.4832 7.47899V18.3389C18.4832 19.4342 18.1947 20.2493 17.6008 20.8319C17.0126 21.4062 16.1891 21.6863 15.0854 21.6863H9.57563C8.47199 21.6863 7.64846 21.4062 7.06022 20.8319C6.46639 20.2521 6.17787 19.437 6.17787 18.3389V7.47899C6.17787 6.40616 6.46359 5.59944 7.05182 5.01401C7.64846 4.42017 8.47479 4.13165 9.57283 4.13165H9.63445V3.68627C9.63445 3.16807 9.78571 2.7563 10.0882 2.45658C10.3908 2.15406 10.8137 2 11.3431 2H13.4916C14.0238 2 14.4468 2.15126 14.7465 2.45098C15.049 2.7507 15.2003 3.16527 15.2003 3.68627V4.13725ZM10.895 3.68627C10.895 3.56303 10.909 3.40336 10.9818 3.33333C11.0546 3.2605 11.2199 3.2437 11.3431 3.2437H13.4916C13.5952 3.2437 13.7829 3.2549 13.8529 3.32773C13.9286 3.40056 13.9398 3.58263 13.9398 3.68627V4.13165H10.895V3.68627ZM17.2171 18.3389C17.2171 19.0868 17.0518 19.6162 16.7073 19.9496C16.3655 20.2829 15.8333 20.4426 15.0798 20.4426H9.57283C8.81933 20.4426 8.28431 20.2829 7.94538 19.9496C7.60084 19.6162 7.43557 19.0868 7.43557 18.3389V7.47899C7.43557 6.7507 7.60084 6.22969 7.94818 5.88796C8.29552 5.54062 8.82773 5.37255 9.57283 5.37255H15.0826C15.8389 5.37255 16.3711 5.53782 16.7129 5.87395C17.0546 6.21289 17.2199 6.73669 17.2199 7.47899L17.2171 18.3389Z" fill="#313235"/>
</svg>
