<svg width="24" height="24" viewBox="0 0 24 24" fill="none" xmlns="http://www.w3.org/2000/svg">
<path fill-rule="evenodd" clip-rule="evenodd" d="M16.8214 2.40138C18.6748 2.85743 20.3733 3.92156 21.8672 5.56744C22.1478 5.8744 22.2794 6.2866 22.2297 6.70173C22.1625 7.13731 21.914 7.51151 21.5368 7.73954L13.8132 12.3936L19.4875 22.0497C19.489 22.0527 19.4906 22.0549 19.4921 22.0572C19.4935 22.0593 19.4949 22.0615 19.4963 22.0643C19.6074 22.2689 19.5314 22.5232 19.3267 22.6343C19.1163 22.7571 18.8473 22.684 18.7245 22.4765L13.0677 12.8438L5.56331 17.3663C5.32359 17.5096 5.04586 17.5827 4.77691 17.5827C4.63366 17.5827 4.48749 17.5593 4.31793 17.5096C3.88234 17.3634 3.55784 17.0652 3.39998 16.6852C2.55511 14.6476 2.33878 12.6889 2.75683 10.8734C3.33567 8.3213 5.1131 6.11119 8.04529 4.30452L7.59216 3.52982C7.5907 3.5269 7.58923 3.5247 7.58777 3.52251C7.58631 3.52032 7.58485 3.51813 7.58339 3.5152C7.4723 3.31056 7.54831 3.05623 7.75295 2.94514C7.96343 2.82528 8.23239 2.89544 8.35517 3.103L8.79661 3.85724C11.6323 2.28444 14.3277 1.79623 16.8214 2.40138ZM21.072 7.00868L19.3443 8.04942C16.2279 4.58225 13.0297 3.82508 10.9307 3.79293C12.9274 2.99483 14.8305 2.80189 16.608 3.23455C18.286 3.64676 19.8325 4.62318 21.2094 6.14043C21.3205 6.26029 21.3731 6.42985 21.3556 6.59063C21.3293 6.76604 21.224 6.92098 21.072 7.00868ZM9.34328 4.78396C10.7173 4.53255 14.7107 4.28406 18.5842 8.51132L13.3747 11.6481L9.34328 4.78396ZM8.62997 5.29849C7.75879 6.56725 5.94627 10.0724 7.97513 14.9019L12.6263 12.0983L8.62997 5.29849ZM5.10141 16.6355C4.94647 16.732 4.75937 16.7524 4.58689 16.694C4.42318 16.6443 4.2887 16.5244 4.21854 16.3665C3.44091 14.4897 3.23919 12.7064 3.61924 11.0605C4.06067 9.10477 5.30897 7.35949 7.31443 5.85393C6.36432 7.73661 5.38498 11.1161 7.21504 15.3609L5.10141 16.6355Z" fill="#313235"/>
</svg>
