<svg width="24" height="24" viewBox="0 0 24 24" fill="none" xmlns="http://www.w3.org/2000/svg">
<path fill-rule="evenodd" clip-rule="evenodd" d="M16.1766 2.39281C17.9553 2.82979 19.5827 3.8522 21.0113 5.42642C21.3138 5.75695 21.4539 6.20233 21.4035 6.64771C21.3334 7.1239 21.0617 7.52446 20.6584 7.77096L13.5884 12.0371L18.8096 20.9278L18.818 20.9446C18.9749 21.2359 18.8685 21.5973 18.5771 21.7541C18.2802 21.9222 17.9049 21.8214 17.7312 21.53L12.5351 12.6701L5.68641 16.8046C5.42871 16.9558 5.12899 17.0371 4.84047 17.0371C4.68641 17.0371 4.52395 17.0118 4.35028 16.9614C3.88249 16.8018 3.52955 16.4796 3.36148 16.0679C2.55196 14.1127 2.34748 12.2359 2.75084 10.4936C3.28866 8.09589 4.93571 6.01466 7.63039 4.30878L7.29985 3.74575C7.29845 3.74295 7.29705 3.74085 7.29565 3.73875C7.29425 3.73665 7.29285 3.73455 7.29145 3.73175C7.13459 3.44323 7.24103 3.07909 7.52955 2.92222C7.82366 2.75416 8.19901 2.855 8.37548 3.14631L8.68921 3.68413C11.3279 2.26116 13.8405 1.82139 16.1766 2.39281ZM20.0029 6.74295L18.5295 7.6337C16.0449 4.92222 13.5127 3.99785 11.5828 3.76536C13.087 3.30878 14.5239 3.23875 15.8769 3.56928C17.4063 3.94463 18.8208 4.84099 20.087 6.23314C20.1514 6.30317 20.1822 6.40401 20.1738 6.49085C20.157 6.59729 20.0954 6.68973 20.0029 6.74295ZM9.44551 4.97824C10.8769 4.78217 14.1906 4.81858 17.4595 8.27796L12.9693 10.9866C12.9721 10.9866 9.44551 4.97824 9.44551 4.97824ZM8.44271 5.69813C7.62478 7.02026 6.33907 10.0034 7.93571 14.0258C7.93571 14.0258 11.9189 11.6225 11.9161 11.6225L8.44271 5.69813ZM5.03935 15.7765L5.0218 15.7874C4.9532 15.8301 4.9017 15.8621 4.72843 15.813C4.63039 15.785 4.55196 15.7149 4.50994 15.6197C3.79846 13.897 3.61078 12.2639 3.95812 10.7597C4.30546 9.21353 5.21022 7.80737 6.63599 6.56087C5.89649 8.40681 5.43151 11.2191 6.86848 14.6701L5.03935 15.7765Z" fill="#313235"/>
</svg>
