<svg width="24" height="24" viewBox="0 0 24 24" fill="none" xmlns="http://www.w3.org/2000/svg">
<path fill-rule="evenodd" clip-rule="evenodd" d="M21.4138 5.67312C21.4251 5.57508 21.3886 5.46303 21.313 5.3818C19.8592 3.81318 18.229 2.80478 16.4671 2.38181C14.9125 2.00926 13.257 2.08769 11.5259 2.6031C13.7444 2.8664 16.6604 3.90842 19.5203 6.95883L21.2178 5.95603C21.327 5.8888 21.397 5.79357 21.4138 5.67312ZM18.2906 7.68432L13.1225 10.7375L9.06373 3.97004C10.7108 3.74875 14.5259 3.79077 18.2906 7.68432ZM7.90687 4.78517C6.9685 6.26976 5.48671 9.63389 7.32424 14.1633L11.9069 11.4574L7.90687 4.78517ZM6.09735 14.886C4.44189 10.998 4.97691 7.82718 5.82845 5.75155C4.18699 7.15771 3.14498 8.74034 2.74442 10.4826C2.34666 12.1745 2.55954 14.0176 3.38027 15.9588C3.42229 16.0569 3.51192 16.1353 3.63237 16.1745C3.83053 16.2285 3.88919 16.1927 3.96693 16.1453L3.98811 16.1325L6.09735 14.886ZM7.79763 4.64231L7.42508 4.02046C7.2318 3.69553 7.34945 3.27817 7.69119 3.09049C8.03292 2.90562 8.4699 3.01766 8.66597 3.34539L9.01611 3.93082L7.79763 4.64231ZM19.1533 20.8159L13.1282 10.7627L11.9097 11.477L17.9153 21.4938C18.0469 21.7123 18.285 21.8356 18.5343 21.8356C18.6548 21.8356 18.7752 21.8047 18.8872 21.7459C19.229 21.5582 19.3494 21.1437 19.1533 20.8159Z" fill="#313235"/>
</svg>
