<svg width="24" height="24" viewBox="0 0 24 24" fill="none" xmlns="http://www.w3.org/2000/svg">
<path fill-rule="evenodd" clip-rule="evenodd" d="M16.6807 11.6527C17.0616 11.549 17.4706 11.479 17.9328 11.479C20.3081 11.479 21.6695 12.8992 21.6723 15.3754C21.6723 17.8516 20.3109 19.2689 17.9356 19.2689C15.563 19.2689 14.2017 17.8488 14.2017 15.3754C14.2017 13.8375 14.7283 12.7087 15.6975 12.0728L14.8179 10.2941L12.8515 14.2437C13.1569 14.5266 13.3277 14.9552 13.3277 15.5042C13.3277 16.2353 13.028 16.7507 12.5042 16.9944L12.8179 17.6499H13.3025C13.6022 17.6555 13.8375 17.902 13.8319 18.2017V18.2045C13.8375 18.5014 13.6022 18.7479 13.3025 18.7535H12.493C12.2941 18.7535 12.1093 18.6359 12.0196 18.4482L11.3838 17.1233C10.7311 17.0112 10.3109 16.5798 10.1933 15.9076H9.45099C9.26051 18.042 7.94679 19.2633 5.75351 19.2633C3.37816 19.2633 2.01682 17.846 2.01682 15.3726C2.01682 12.8992 3.37816 11.479 5.75351 11.479C6.15967 11.4818 6.56583 11.535 6.95799 11.6415L8.21009 9.07844L7.35575 7.25772H6.54623C6.25491 7.25772 6.01682 7.01122 6.01682 6.7059C6.01121 6.40618 6.24651 6.15968 6.54623 6.15407H9.28012C9.57984 6.15968 9.81513 6.40618 9.80953 6.7059C9.81513 7.00561 9.57984 7.25211 9.28012 7.25772H8.53782L9.13726 8.53783H14.2829V5.9776C14.2801 5.7255 14.451 5.50141 14.6975 5.43979C14.8515 5.40618 16.2325 5.10646 17.0476 5.78993C17.3025 6.00281 17.6079 6.40337 17.6079 7.09245C17.6135 7.39217 17.3782 7.63867 17.0784 7.64427C16.7871 7.64427 16.549 7.39777 16.549 7.09245C16.549 6.82074 16.4622 6.7143 16.3866 6.64987C16.1569 6.4566 15.7087 6.42578 15.3445 6.4566V8.95519L16.6807 11.6527ZM11.7395 13.8488C11.7213 13.8488 11.7045 13.8509 11.6877 13.853C11.6709 13.8551 11.6541 13.8572 11.6359 13.8572L9.65547 9.64147H13.944L11.8487 13.8572C11.8256 13.8572 11.8036 13.8549 11.7806 13.8525L11.7806 13.8525C11.7673 13.8512 11.7538 13.8498 11.7395 13.8488ZM17.9328 17.9916C16.2185 17.9916 15.4202 17.1597 15.4202 15.3726C15.4202 14.3333 15.6975 13.6275 16.2577 13.2101L17.4426 15.6107C17.5294 15.7927 17.7143 15.9076 17.9132 15.9104C17.9944 15.9104 18.0784 15.8908 18.1569 15.8488C18.4202 15.7031 18.521 15.3726 18.3866 15.1037L17.2521 12.8095C17.4622 12.7731 17.6835 12.7535 17.9328 12.7535C19.6499 12.7535 20.4482 13.5854 20.4482 15.3754C20.4482 17.1597 19.6499 17.9916 17.9328 17.9916ZM12.2661 15.5042C12.2661 15.0896 12.1401 14.9552 11.7395 14.9552C11.3417 14.9552 11.2129 15.0868 11.2129 15.5042C11.2129 15.9244 11.3361 16.0532 11.7395 16.0532C12.1429 16.0532 12.2661 15.9244 12.2661 15.5042ZM5.75071 17.9916C4.03642 17.9916 3.2353 17.1597 3.2353 15.3726C3.2353 13.5854 4.03362 12.7507 5.75071 12.7507C5.9804 12.7507 6.19048 12.7675 6.38936 12.7983L5.26051 15.1093C5.17648 15.2801 5.18488 15.4818 5.28292 15.6471C5.37816 15.8095 5.54903 15.9104 5.7339 15.9104H8.2353C8.08124 17.3249 7.28292 17.9916 5.75071 17.9916ZM8.2325 14.8039C8.14567 14.0504 7.86836 13.5182 7.39217 13.1821L6.59665 14.8039H8.2325ZM8.79553 10.3193L10.6387 14.2381C10.4706 14.395 10.3417 14.5882 10.2661 14.8067H9.45099C9.33054 13.5434 8.82074 12.5967 7.95239 12.0476L8.79553 10.3193Z" fill="#313235"/>
</svg>
