<svg width="24" height="24" viewBox="0 0 24 24" fill="none" xmlns="http://www.w3.org/2000/svg">
<path fill-rule="evenodd" clip-rule="evenodd" d="M6.97757 11.6666L8.23526 9.10359L7.37812 7.27727H6.5658C6.27169 7.27727 6.03639 7.03077 6.03639 6.72545C6.03639 6.42013 6.27449 6.17364 6.5658 6.17364H9.30249C9.5966 6.17364 9.83189 6.42013 9.83189 6.72545C9.83189 7.03077 9.5938 7.27727 9.30249 7.27727H8.55739L9.15963 8.56018H14.3165V5.99436C14.3165 5.73386 14.4901 5.50977 14.7338 5.45375C14.8879 5.41734 16.2716 5.12322 17.0868 5.80669C17.3417 6.01957 17.647 6.42013 17.647 7.11201C17.647 7.41733 17.4089 7.66383 17.1176 7.66383C16.8235 7.66383 16.5854 7.41733 16.5854 7.11201C16.5854 6.8403 16.4985 6.73386 16.4201 6.66943C16.1904 6.47616 15.7394 6.44814 15.3781 6.47616V8.98035L16.7142 11.6806C16.7142 11.6806 16.3641 11.8151 16.238 11.8683C16.1176 11.9187 15.7282 12.098 15.7282 12.098L14.8459 10.3165L12.8767 14.2716C13.182 14.5574 13.3557 14.9859 13.3557 15.5349C13.3557 16.266 13.0532 16.7842 12.5294 17.0279L12.8459 17.6862H13.3277C13.6218 17.6862 13.8571 17.9355 13.8571 18.2408C13.8571 18.5461 13.619 18.7926 13.3277 18.7926H12.5182C12.3165 18.7926 12.1316 18.675 12.0448 18.4873L11.4061 17.1568C10.7535 17.0447 10.3333 16.6106 10.2128 15.9411H9.47055C9.47055 15.9411 9.48456 15.731 9.48456 15.3893C9.48195 15.0531 9.47207 14.8624 9.47071 14.8375H9.47335L9.47309 14.8347H10.2885C10.3697 14.605 10.4986 14.4173 10.661 14.266L8.81509 10.3417L7.96916 12.07C7.96916 12.07 7.5798 11.8907 7.44815 11.8375C7.36196 11.803 7.14317 11.7254 7.03659 11.6876L6.97757 11.6666ZM6.97757 11.6666L5.27729 15.14C5.19326 15.3109 5.20166 15.5153 5.2969 15.6806C5.39214 15.8431 5.56581 15.9439 5.75068 15.9439H9.47335C9.28288 18.0811 7.96636 19.3052 5.76749 19.3052C3.38935 19.3052 2.02521 17.8851 2.02521 15.4061C2.02521 12.9271 3.38935 11.5069 5.76749 11.5069C6.21286 11.5069 6.60782 11.5714 6.97757 11.6666ZM9.47309 14.8347C9.35215 13.57 8.83966 12.6214 7.97196 12.0728L6.61902 14.8375H9.47071L9.47055 14.8347H9.47309ZM11.8371 13.8871L11.837 13.8871C11.814 13.8847 11.7913 13.8823 11.7675 13.8823C11.744 13.8823 11.7228 13.8846 11.701 13.887H11.701H11.7009L11.7009 13.887L11.7009 13.887C11.6889 13.8884 11.6767 13.8897 11.6638 13.8907L9.67783 9.66662H13.9747L11.8739 13.8907C11.8614 13.8897 11.8492 13.8884 11.8371 13.8871ZM11.7675 14.9887C11.3641 14.9887 11.2409 15.1176 11.2409 15.5377C11.2409 15.9551 11.3697 16.0868 11.7675 16.0868C12.1736 16.0868 12.2941 15.9579 12.2941 15.5377C12.2941 15.1148 12.1736 14.9887 11.7675 14.9887ZM21.7142 15.4061C21.7142 12.9299 20.3501 11.5069 17.9719 11.5069C17.5097 11.5069 17.098 11.577 16.7198 11.6778L18.4285 15.1372C18.5629 15.4089 18.4593 15.7422 18.1988 15.8823C18.1204 15.9243 18.0363 15.9439 17.9551 15.9439C17.7618 15.9439 17.577 15.8347 17.4817 15.6442L15.7282 12.098C14.7562 12.7338 14.2296 13.8655 14.2296 15.4061C14.2296 17.8851 15.5938 19.3052 17.9719 19.3052C20.3501 19.3052 21.7142 17.8851 21.7142 15.4061Z" fill="#313235"/>
</svg>
