<svg width="24" height="24" viewBox="0 0 24 24" fill="none" xmlns="http://www.w3.org/2000/svg">
<path fill-rule="evenodd" clip-rule="evenodd" d="M21.6862 12.7227C21.6862 12.3894 21.4173 12.1176 21.084 12.1176L17.4538 12.1148C17.3641 11.1008 17.0168 10.2689 16.3837 9.65826C15.2425 8.5553 13.6384 8.58321 13.5163 8.58534L13.5098 8.58543C13.4005 8.58543 12.4538 8.58543 11.2353 8.58263V4.28851C11.2353 3.95518 10.9664 3.68347 10.633 3.68347H6.59101C6.25768 3.68347 5.98877 3.95518 5.98877 4.28851V8.57983C5.54059 8.57983 5.21006 8.57983 5.0784 8.58263C4.58821 8.58823 4.3193 8.79552 4.17925 8.96638C3.99437 9.19047 3.94675 9.46498 3.96636 9.66947L3.94675 12.0952L2.60221 12.0924C2.43975 12.0924 2.28289 12.1597 2.16804 12.2801C2.056 12.4006 1.99437 12.563 2.00277 12.7283L2.27168 18.6162C2.29689 19.2045 2.68345 20.0812 3.63863 20.0812H16.0504L16.0635 20.0817C16.0814 20.0825 16.1151 20.084 16.1624 20.084C16.6078 20.084 18.2605 19.9888 19.6554 18.6611C21.0028 17.3809 21.6862 15.3838 21.6862 12.7227ZM10.028 5.56022H7.19045V4.89636H10.028V5.56022ZM5.17084 9.79552L5.15404 12.0252L16.2465 12.0112C16.1568 11.3894 15.9215 10.8936 15.549 10.5322C14.8155 9.82713 13.7296 9.80073 13.5559 9.79651H13.5559H13.5559H13.5559H13.5559H13.5558C13.5412 9.79615 13.5331 9.79595 13.5322 9.79552C13.4761 9.78879 11.3113 9.78924 9.17943 9.78969L7.62742 9.78991C7.16759 9.79103 6.73799 9.7917 6.3661 9.79228H6.36576C5.80448 9.79316 5.37469 9.79383 5.17084 9.79552ZM18.8431 17.7703C19.8319 16.8207 20.3781 15.3277 20.4678 13.3305L3.23247 13.3109L3.47336 18.5658C3.47336 18.5658 3.49857 18.8739 3.63863 18.8739H16.084C16.087 18.8736 16.0957 18.8735 16.1097 18.8734C16.3189 18.8713 17.7115 18.8573 18.8431 17.7703ZM7.19045 8.57423H10.028V6.77031H7.19045V8.57423ZM6.47336 15.6723C6.24927 15.6723 6.07 15.8543 6.07 16.0784C6.07 16.3025 6.25207 16.4846 6.47336 16.4846C6.69465 16.4846 6.87672 16.3025 6.87672 16.0784C6.87672 15.8543 6.69465 15.6723 6.47336 15.6723ZM5.26608 16.0812C5.26608 16.7507 5.8067 17.2969 6.47336 17.2969C7.13723 17.2969 7.68065 16.7507 7.68065 16.0812C7.68065 15.4118 7.14003 14.8655 6.47336 14.8655C5.8067 14.8655 5.26608 15.4118 5.26608 16.0812ZM10.507 15.6723C10.2829 15.6723 10.1008 15.8543 10.1008 16.0784C10.1008 16.3025 10.2829 16.4846 10.507 16.4846C10.7311 16.4846 10.9103 16.3025 10.9103 16.0784C10.9103 15.8543 10.7311 15.6723 10.507 15.6723ZM9.29969 16.0812C9.29969 16.7507 9.84031 17.2969 10.507 17.2969C11.1736 17.2969 11.7171 16.7507 11.7143 16.0812C11.7143 15.4118 11.1736 14.8655 10.507 14.8655C9.84311 14.8655 9.29969 15.4118 9.29969 16.0812ZM14.5434 15.6723C14.3193 15.6723 14.14 15.8543 14.14 16.0784C14.14 16.3025 14.3221 16.4846 14.5434 16.4846C14.7675 16.4846 14.9468 16.3025 14.9468 16.0784C14.9468 15.8543 14.7675 15.6723 14.5434 15.6723ZM13.3361 16.0812C13.3361 16.7507 13.8767 17.2969 14.5434 17.2969C15.2101 17.2969 15.7507 16.7507 15.7507 16.0812C15.7507 15.4118 15.2101 14.8655 14.5434 14.8655C13.8767 14.8655 13.3361 15.4118 13.3361 16.0812Z" fill="#313235"/>
</svg>
