<svg width="24" height="24" viewBox="0 0 24 24" fill="none" xmlns="http://www.w3.org/2000/svg">
<path fill-rule="evenodd" clip-rule="evenodd" d="M16.0995 21.3782C16.3656 21.5826 16.6793 21.6863 16.9958 21.6863C17.2199 21.6863 17.4412 21.6359 17.6513 21.5294C18.1611 21.2773 18.4776 20.7703 18.4776 20.2017V3.48179C18.4776 2.66387 17.8137 2 17.0014 2H7.65128C6.83615 2 6.17509 2.66387 6.17509 3.47899V20.2017C6.17228 20.7647 6.49161 21.2801 6.99861 21.5294C7.50842 21.7815 8.10506 21.7227 8.61486 21.3249L12.1807 17.7787C12.2675 17.6919 12.3992 17.6891 12.4832 17.7731L16.0995 21.3782ZM13.3796 16.874C13.0939 16.5854 12.7185 16.4426 12.3376 16.4426C11.9454 16.4426 11.57 16.5966 11.2871 16.8711L7.78013 20.3697C7.69329 20.4398 7.60646 20.4118 7.56164 20.3894C7.51682 20.3697 7.44399 20.3137 7.44399 20.2017V3.47339C7.44399 3.35854 7.53643 3.26891 7.65128 3.26891H17.0014C17.1163 3.27171 17.2059 3.36415 17.2059 3.47899V20.2017C17.2087 20.2829 17.1611 20.3557 17.0883 20.3894C17.0462 20.4118 16.9622 20.4426 16.9314 20.423L13.3796 16.874Z" fill="#313235"/>
</svg>
