<svg width="24" height="24" viewBox="0 0 24 24" fill="none" xmlns="http://www.w3.org/2000/svg">
<path fill-rule="evenodd" clip-rule="evenodd" d="M16.7941 3.83194C19.8221 4.07284 20.8865 6.60505 20.8865 8.78992C20.8865 9.35015 20.8025 10.6863 20.0994 11.8487C20.8025 13.0084 20.8865 14.3389 20.8865 14.8992C20.8865 17.1008 19.8053 19.6555 16.7913 19.8684C16.2983 21.0336 15.2591 21.6891 13.8669 21.6891C12.9566 21.6891 12.3123 21.2465 11.8753 20.7227C11.4608 21.2129 10.8137 21.6891 9.85854 21.6891C8.46358 21.6891 7.42156 21.028 6.93137 19.86C3.90335 19.6163 2.83893 17.084 2.83893 14.8992C2.83893 14.3389 2.92296 13.0028 3.62604 11.8431C2.92296 10.6863 2.83893 9.35295 2.83893 8.79272C2.83893 6.59104 3.92296 4.03642 6.93417 3.82354C7.42716 2.65827 8.46638 2.00281 9.85854 2.00281C10.7689 2.00281 11.4132 2.44538 11.8501 2.96919C12.2647 2.479 12.9118 2.00281 13.8669 2.00281C15.2619 2.00281 16.3039 2.66107 16.7941 3.83194ZM16.3655 18.549C16.1975 18.549 15.9622 18.4818 15.7241 18.3277C15.4748 18.1681 15.3151 17.9944 15.2535 17.8151C15.133 17.4678 14.7465 17.2829 14.3935 17.4006C14.0378 17.5182 13.8473 17.8936 13.9706 18.2409C14.133 18.7087 14.472 19.1093 14.9818 19.437C15.1134 19.521 15.2479 19.591 15.3795 19.6499C15.0714 20.1205 14.5728 20.3585 13.8669 20.3585C12.9818 20.3585 12.626 19.451 12.542 19.1905C12.5448 18.9636 12.5476 18.4034 12.542 18.2661V5.41737C12.542 5.2437 12.5476 4.62186 12.5504 4.35855C12.6653 4.09524 13.0686 3.32494 13.8669 3.32494C14.5784 3.32494 15.0686 3.55463 15.3739 4.02522C14.7129 4.33894 14.2675 4.93558 14.0602 5.51261L13.9986 5.69468L15.2927 6.08964L15.3375 5.95239C15.4496 5.64426 15.7269 5.14006 16.3627 5.13166H16.3711C19.2171 5.13166 19.5252 7.68908 19.5252 8.78992C19.5252 9.09805 19.4832 10.0112 19.0938 10.8459C18.6428 10.563 18.1667 10.4006 17.7325 10.3193C17.7661 9.86555 17.5784 9.43698 17.2731 9.12326L17.2031 9.05043C16.9454 8.78432 16.5476 8.80673 16.2759 9.05883C16.0042 9.31093 16.0238 9.76191 16.2815 10.0252C16.3739 10.1205 16.3935 10.1877 16.3739 10.2521H16.3683C16.2647 10.2633 16.1386 10.2773 16.021 10.2913C15.9174 10.3053 15.7773 10.3305 15.6092 10.367C15.2451 10.4482 15.0182 10.8039 15.1022 11.1625C15.1863 11.521 15.556 11.7451 15.9146 11.6583C16.0322 11.6331 16.1302 11.6135 16.2031 11.605L16.2851 11.5955C16.3595 11.5866 16.4363 11.5776 16.5056 11.5714C16.8473 11.535 18.007 11.4874 18.7521 12.2633C19.4664 13.2017 19.5224 14.5098 19.5224 14.8908C19.5308 15.9888 19.2255 18.5042 16.3767 18.5518C16.3739 18.5518 16.3683 18.549 16.3655 18.549ZM9.85854 20.3614C9.16106 20.3614 8.67926 20.1373 8.37114 19.6835C8.528 19.6191 8.68767 19.5406 8.84453 19.4398C9.35433 19.1121 9.69607 18.7115 9.85574 18.2437C9.97618 17.8964 9.78571 17.521 9.43277 17.4034C9.07702 17.2857 8.69327 17.4706 8.57282 17.8179C8.5112 17.9972 8.35153 18.1709 8.10223 18.3305C7.86414 18.4846 7.63725 18.5518 7.46078 18.549C7.4417 18.5473 7.4237 18.5509 7.40545 18.5546C7.39421 18.5569 7.38288 18.5592 7.37114 18.5602C7.36651 18.5602 7.36189 18.5594 7.35773 18.5586C7.35583 18.5583 7.35403 18.5579 7.35237 18.5577C7.35106 18.5575 7.34984 18.5574 7.34873 18.5574C4.50279 18.5574 4.19467 15.9972 4.19467 14.8992C4.19467 14.577 4.23949 13.5882 4.68487 12.7227C4.88375 12.7927 5.09943 12.8431 5.33473 12.8684C5.39915 13.4846 5.83613 13.9272 6.36274 14.1233C6.37394 14.1289 6.46918 14.1625 6.48038 14.1653C6.55041 14.1905 6.62044 14.1989 6.68767 14.1989C6.95658 14.1989 7.19467 14.0224 7.29831 13.7507C7.42716 13.4118 7.20868 13.0196 6.86414 12.8908C6.73529 12.8431 6.69047 12.7871 6.68207 12.7171C7.5056 12.3782 7.88935 11.6022 7.96498 10.888L7.98179 10.7087C8.00139 10.3445 7.71848 10.0308 7.34313 10.0084C6.95658 9.9888 6.64845 10.2661 6.62604 10.6331L6.61484 10.7535C6.52449 11.6214 5.82667 11.5795 5.57026 11.564L5.55321 11.563C5.2787 11.5406 5.07142 11.465 4.93137 11.3586C4.2591 10.4258 4.20027 9.16527 4.20027 8.79272C4.20027 7.69188 4.5084 5.13446 7.43277 5.13446H7.43837C8.07422 5.13446 8.37954 5.64426 8.48879 5.94959L8.54201 6.11205C8.63445 6.38656 8.89215 6.55463 9.17226 6.55463C9.24509 6.55463 9.32072 6.54342 9.39355 6.51821C9.74929 6.40617 9.93697 6.01401 9.82212 5.66667L9.7717 5.51821C9.55602 4.91597 9.09383 4.30813 8.38235 4.00561C8.69327 3.56023 9.17786 3.33054 9.86414 3.33054C10.7493 3.33054 11.105 4.2409 11.1891 4.49861C11.1863 4.7255 11.1835 5.28572 11.1891 5.42298V18.2745C11.1891 18.4482 11.1835 19.0672 11.1807 19.3333C11.063 19.591 10.6597 20.3614 9.85854 20.3614Z" fill="#313235"/>
</svg>
