<svg width="24" height="24" viewBox="0 0 24 24" fill="none" xmlns="http://www.w3.org/2000/svg">
<path fill-rule="evenodd" clip-rule="evenodd" d="M20.3897 7.1768C21.1936 7.1768 21.8462 7.83506 21.8462 8.64458V11.6894C19.9359 13.0731 15.8911 14.0647 12.0787 14.0647C8.1936 14.0647 4.05916 12.9751 2.16 11.4653V8.64458C2.16 7.83506 2.81266 7.1768 3.61938 7.1768H7.07596V6.82666C7.07596 4.25244 9.24682 2.16 11.9135 2.16H12.0984C14.765 2.16 16.9359 4.25524 16.9359 6.82666V7.1768H20.3897ZM15.7006 6.82666V7.1768H8.30565V6.82666C8.30565 4.93591 9.92189 3.3981 11.9107 3.3981H12.0956C14.0815 3.3981 15.7006 4.93591 15.7006 6.82666ZM13.8182 15.2356V16.6558C13.8182 17.0031 13.6642 17.2916 13.3841 17.4737C13.188 17.6053 12.9247 17.6726 12.6054 17.6726H11.4065C11.0788 17.6726 10.8239 17.6053 10.6194 17.4737C10.3421 17.2916 10.1852 17.0031 10.1852 16.6558V15.2188C7.07316 14.9723 4.07597 14.1292 2.16 12.9583V20.3757C2.16 21.1852 2.81266 21.8434 3.61658 21.8434H20.3897C21.1936 21.8434 21.8462 21.1852 21.8462 20.3757V13.1488C19.9219 14.2356 16.9275 15.0171 13.8182 15.2356ZM11.4149 15.3028V16.4345H12.5886V15.3028H11.4149Z" fill="#313235"/>
</svg>
