<svg width="24" height="24" viewBox="0 0 24 24" fill="none" xmlns="http://www.w3.org/2000/svg">
<path fill-rule="evenodd" clip-rule="evenodd" d="M19.5705 11.9244C19.9067 11.9244 20.1784 12.2017 20.1784 12.5406V14.1849C20.1784 14.5238 19.9067 14.8011 19.5705 14.8011C19.2344 14.8011 18.9627 14.5238 18.9627 14.1849V13.1568H17.7386C17.7386 13.1877 17.7393 13.2164 17.74 13.2451L17.74 13.2452C17.7407 13.2739 17.7414 13.3025 17.7414 13.3333C17.7414 14.9187 17.6153 16.2857 17.2428 17.3949L19.2176 18.0028C19.4865 18.0868 19.663 18.3417 19.6489 18.6246L19.5173 21.1008C19.5005 21.4285 19.2316 21.6834 18.9095 21.6834H18.8758C18.5397 21.6638 18.282 21.3753 18.2988 21.0364L18.4053 19.042L16.719 18.5238C15.887 19.8403 14.4389 20.5742 11.9739 20.5742C9.5005 20.5742 8.05233 19.8347 7.2232 18.5126L5.49771 19.042L5.60415 21.0364C5.62376 21.3753 5.36326 21.6666 5.02712 21.6834H4.99351C4.67418 21.6834 4.40528 21.4285 4.38567 21.1008L4.25402 18.6246C4.24001 18.3417 4.41648 18.084 4.68539 18.0028L6.70219 17.3837C6.33524 16.2773 6.20919 14.9131 6.20919 13.3333C6.20919 13.3035 6.20991 13.2731 6.21062 13.2429C6.21131 13.2136 6.212 13.1845 6.212 13.1568H4.99071V14.1849C4.99071 14.5238 4.719 14.8011 4.38287 14.8011C4.04673 14.8011 3.77502 14.5238 3.77502 14.1849V12.5406C3.77502 12.2017 4.04673 11.9244 4.38287 11.9244H6.25401C6.33244 10.6386 6.55093 9.36974 7.11676 8.35573L4.68819 7.61064C4.41928 7.5266 4.24281 7.2717 4.25682 6.98879L4.38847 4.5126C4.40808 4.17367 4.69659 3.90756 5.02992 3.92997C5.36606 3.94958 5.62376 4.23809 5.60695 4.57703L5.50051 6.57142L7.78622 7.2745C7.62656 6.89075 7.54253 6.44537 7.54253 5.91876C7.54253 4.08123 8.52011 3.31653 9.86465 3.01121C9.66297 2.77031 9.66857 2.41177 9.89266 2.18208C10.1308 1.94118 10.5145 1.94118 10.7526 2.18208L11.3969 2.83474C11.5901 2.82633 11.7862 2.82353 11.9823 2.82353C12.1728 2.82353 12.3604 2.82633 12.5453 2.83474L13.1896 2.18208C13.4277 1.94118 13.8142 1.94118 14.0523 2.18208C14.2764 2.40897 14.282 2.76471 14.0831 3.0056C15.4389 3.30532 16.4249 4.07003 16.4249 5.91596C16.4249 6.43137 16.3436 6.87114 16.1896 7.24929L18.4053 6.56862L18.2988 4.57423C18.282 4.23529 18.5397 3.94398 18.8758 3.92717C19.198 3.90196 19.5005 4.17087 19.5173 4.5098L19.6489 6.98599C19.6658 7.2689 19.4865 7.5266 19.2176 7.60784L16.8282 8.34173C17.3184 9.20447 17.5985 10.3557 17.6938 11.9244H19.5705ZM8.76101 5.91596C8.76101 4.65546 9.2428 4.05602 11.9851 4.05602C14.7274 4.05602 15.2092 4.65546 15.2064 5.91876C15.2064 6.2633 15.156 6.5042 15.0915 6.69467C14.2792 6.29411 13.254 6.09243 11.9767 6.09243C10.705 6.09243 9.67978 6.28851 8.86745 6.68907C8.80303 6.49579 8.76101 6.2493 8.76101 5.91596ZM16.5229 13.3333C16.5229 17.9384 15.4613 19.3417 11.9767 19.3417C8.4921 19.3417 7.43048 17.9384 7.43048 13.3333C7.43048 10.4622 7.86745 8.89915 8.89826 8.10083C9.57333 7.57702 10.5817 7.32212 11.9767 7.32212C13.3604 7.32212 14.3604 7.57142 15.0355 8.08683C16.0775 8.87954 16.5229 10.451 16.5229 13.3333ZM12.5201 9.24649C12.5201 8.90755 12.2484 8.63024 11.9123 8.63024C11.5761 8.63024 11.3016 8.90755 11.3044 9.24649V17.1792C11.3044 17.5182 11.5761 17.7955 11.9123 17.7955C12.2484 17.7955 12.5201 17.5182 12.5201 17.1792V9.24649Z" fill="#313235"/>
</svg>
