<svg width="24" height="24" viewBox="0 0 24 24" fill="none" xmlns="http://www.w3.org/2000/svg">
<path fill-rule="evenodd" clip-rule="evenodd" d="M16.7339 17.0392H10.4762C9.63865 17.0392 8.89635 16.7563 8.32773 16.2241C7.73669 15.6667 7.35294 14.8628 7.19047 13.8348C7.06162 13.014 5.73949 5.34176 5.55462 4.30815C5.43417 3.63588 4.73389 3.13168 3.92156 3.13168H2.57142C2.2633 3.13168 2.0112 2.87958 2.0112 2.57145C2.0112 2.26333 2.2633 2.01123 2.57142 2.01123H3.92437C5.29131 2.01123 6.44257 2.89358 6.66106 4.11207C6.70978 4.38455 6.88259 5.37949 7.09928 6.63308H10.1344C10.1395 6.63308 10.1446 6.63315 10.1496 6.63328L13.6218 2.98322C13.7283 2.87117 13.8739 2.80955 14.028 2.80955C14.1821 2.80955 14.3277 2.87398 14.4342 2.98322L15.3725 3.97201V3.91599C15.3725 3.60787 15.6246 3.35577 15.9328 3.35577H17.5714C17.8795 3.35577 18.1316 3.60787 18.1316 3.91599V6.66643C18.1888 6.64664 18.2501 6.63588 18.3137 6.63588H21.1036C21.4118 6.63588 21.6639 6.88798 21.6639 7.1961C21.6639 7.24372 21.6583 7.28854 21.6471 7.33336C21.5481 7.72557 21.3925 8.34889 21.2115 9.07418L21.2113 9.07518C21.1105 9.47884 21.0019 9.91405 20.8908 10.3586C20.7737 10.8269 20.6558 11.3002 20.5453 11.7441L20.5449 11.7455L20.5449 11.7457C20.2985 12.735 20.0887 13.5776 20.0056 13.8908C19.7395 14.916 19.3529 15.6695 18.8235 16.1989C18.2661 16.7563 17.563 17.0392 16.7339 17.0392ZM18.9629 7.75633H20.3866C20.2558 8.27253 20.0931 8.9259 19.92 9.62102L19.8039 10.0869C19.6857 10.5596 19.5667 11.037 19.4554 11.4837L19.4548 11.486C19.2101 12.4676 19.0024 13.3009 18.9216 13.6107C18.3866 15.6835 17.4174 15.9216 16.7339 15.9216H10.479C9.92437 15.9216 9.45938 15.7479 9.10084 15.409C8.69187 15.0224 8.42577 14.437 8.30252 13.6611C8.21875 13.1371 7.72082 10.2351 7.29275 7.75353H9.08394L8.42577 8.4454C8.32773 8.54905 8.2717 8.6891 8.2717 8.83196C8.2717 9.14008 8.52381 9.39218 8.83193 9.39218H9.91036V12.6555C9.91036 13.339 10.3333 13.7619 11.0168 13.7619H17.0252C17.7059 13.7619 18.1316 13.3362 18.1316 12.6555V9.39218H19.2101C19.3557 9.39218 19.493 9.33616 19.5966 9.23812C19.8207 9.02524 19.8291 8.66949 19.6162 8.4454L18.9629 7.75633ZM10.4762 21.6751C9.97479 21.6751 9.57423 21.5322 9.28291 21.2521C8.97759 20.958 8.82352 20.5462 8.82352 20.0224C8.82352 19.4986 8.97759 19.0869 9.28291 18.7927C9.57423 18.5126 9.97759 18.3698 10.4762 18.3698C10.9748 18.3698 11.3781 18.5126 11.6695 18.7927C11.9748 19.0869 12.1288 19.4986 12.1288 20.0224C12.1288 20.5462 11.9748 20.958 11.6695 21.2521C11.3809 21.5322 10.9776 21.6751 10.4762 21.6751ZM9.94397 20.0224C9.94397 19.6135 10.0672 19.4902 10.4762 19.4902C10.8851 19.4902 11.0084 19.6135 11.0084 20.0224C11.0084 20.4314 10.8851 20.5546 10.4762 20.5546C10.0672 20.5546 9.94397 20.4314 9.94397 20.0224ZM15.9384 21.6751C15.437 21.6751 15.0364 21.5322 14.7451 21.2521C14.4398 20.958 14.2857 20.5462 14.2857 20.0224C14.2857 19.4986 14.4398 19.0869 14.7451 18.7927C15.0364 18.5126 15.4398 18.3698 15.9384 18.3698C16.437 18.3698 16.8403 18.5126 17.1316 18.7927C17.4342 19.0869 17.591 19.4986 17.591 20.0224C17.591 20.5462 17.437 20.958 17.1316 21.2521C16.8431 21.5322 16.4398 21.6751 15.9384 21.6751ZM15.4062 20.0224C15.4062 19.6135 15.5294 19.4902 15.9384 19.4902C16.3473 19.4902 16.4706 19.6135 16.4706 20.0224C16.4706 20.4314 16.3473 20.5546 15.9384 20.5546C15.5294 20.5546 15.4062 20.4314 15.4062 20.0224ZM11.0308 12.6415H17.0112V8.83196C17.0112 8.52384 17.2633 8.27173 17.5714 8.27173H17.9076L17.1653 7.49022C17.0672 7.38658 17.0112 7.24933 17.0112 7.10367V4.47622H16.493V5.37818C16.493 5.6863 16.2409 5.9384 15.9328 5.9384C15.7787 5.9384 15.633 5.87398 15.5266 5.76473L14.028 4.1849L10.1373 8.27454H10.4706C10.7787 8.27454 11.0308 8.52664 11.0308 8.83476V12.6415Z" fill="#313235"/>
</svg>
