<svg width="24" height="24" viewBox="0 0 24 24" fill="none" xmlns="http://www.w3.org/2000/svg">
<path fill-rule="evenodd" clip-rule="evenodd" d="M14.1787 14.6773C12.4756 14.6773 10.6408 14.2823 10.6408 13.4168V10.8117C10.6408 10.6576 10.7669 10.5316 10.921 10.5316C11.075 10.5316 11.2011 10.6576 11.2011 10.8117C11.2011 10.8509 11.3355 11.0498 11.9546 11.2347C12.5428 11.414 13.3327 11.512 14.1787 11.512C15.0246 11.512 15.8117 11.414 16.4027 11.2375C17.0246 11.0498 17.1562 10.8509 17.1562 10.8145C17.1562 10.6605 17.2823 10.5344 17.4364 10.5344C17.5904 10.5344 17.7165 10.6605 17.7165 10.8145V13.4196C17.7165 14.2851 15.8845 14.6773 14.1787 14.6773ZM11.2011 11.5372V13.4196C11.2011 13.4588 11.3355 13.6576 11.9546 13.8425C12.5428 14.019 13.3327 14.117 14.1787 14.117C15.0246 14.117 15.8117 14.019 16.4027 13.8425C17.0246 13.6548 17.1562 13.456 17.1562 13.4196V11.5372C16.484 11.9013 15.3019 12.0722 14.1787 12.0722C13.0554 12.0722 11.8761 11.9013 11.2011 11.5372Z" fill="#313235"/>
</svg>
