<svg width="24" height="24" viewBox="0 0 24 24" fill="none" xmlns="http://www.w3.org/2000/svg">
<path fill-rule="evenodd" clip-rule="evenodd" d="M7.48177 5.62463C7.48177 5.41455 7.40053 5.2885 7.24647 5.06161C7.08121 4.82632 6.87673 4.5322 6.87392 4.10923C6.87118 3.68588 7.07617 3.40281 7.22942 3.19121L7.23807 3.17926C7.38653 2.97758 7.48457 2.84313 7.48177 2.56022C7.47896 2.2661 7.72266 2.02801 8.02798 2.02521H8.03358C8.3361 2.02521 8.5826 2.2605 8.5854 2.54901C8.591 3.17366 8.3193 3.54621 8.13722 3.79271C8.01398 3.95797 7.97476 4.0196 7.97756 4.10083C7.97756 4.20167 8.04199 4.29691 8.16243 4.47057L8.1638 4.47254C8.34296 4.73007 8.5882 5.0826 8.5854 5.62463C8.5854 5.91875 8.3389 6.15404 8.03358 6.15404C7.72826 6.15684 7.48177 5.91875 7.48177 5.62463ZM21.7142 13.3949C21.7142 9.10361 18.3024 8.37812 16.9635 8.25767H16.9607V7.24927C16.9607 6.91034 16.675 6.63583 16.3249 6.63583H2.66106C2.31092 6.63583 2.02521 6.91034 2.02521 7.24927V17.8066C2.02521 19.0952 2.36694 20.0503 3.07282 20.7226C3.7731 21.3893 4.75629 21.7142 6.08401 21.7142H12.9019C14.2296 21.7142 15.2128 21.3893 15.9131 20.7226C16.4789 20.182 16.8011 19.4481 16.9103 18.5181C18.196 18.4229 21.7142 17.7618 21.7142 13.3949ZM20.4453 13.3949C20.4453 16.5209 18.252 17.1736 16.9635 17.2884V9.48456C18.2632 9.61061 20.4453 10.2829 20.4453 13.3949ZM10.028 5.34452C10.0868 5.43416 10.1988 5.60502 10.2156 5.67225C10.2381 5.94676 10.479 6.15684 10.7619 6.16244C10.7689 6.16244 10.7752 6.16174 10.7815 6.16104C10.7878 6.16034 10.7941 6.15964 10.8011 6.15964C11.1064 6.14003 11.3333 5.88794 11.3137 5.59382C11.2945 5.29275 11.1149 5.01843 10.9682 4.79437L10.9579 4.7787C10.9327 4.74228 10.9103 4.70867 10.8907 4.67786C10.9187 4.63584 10.9495 4.59102 10.9747 4.55461L10.979 4.54856C11.1379 4.31996 11.3331 4.03908 11.3165 3.70867C11.3025 3.41456 11.0308 3.18487 10.7423 3.17646C10.4397 3.19047 10.2072 3.41176 10.2212 3.70587C10.2094 3.7484 10.1418 3.84675 10.089 3.92356C10.0792 3.9378 10.0699 3.9513 10.0616 3.96357L10.0597 3.96635C9.91165 4.17857 9.74231 4.42139 9.75346 4.70587C9.75894 4.93297 9.88469 5.12533 10.0184 5.32994C10.0216 5.3348 10.0248 5.33965 10.028 5.34452Z" fill="#313235"/>
</svg>
