<svg width="24" height="24" viewBox="0 0 24 24" fill="none" xmlns="http://www.w3.org/2000/svg">
<path fill-rule="evenodd" clip-rule="evenodd" d="M19.0616 3.68066H4.60225C3.17088 3.68347 2.01122 4.84312 2.00842 6.27449V17.5041C2.01122 18.9355 3.17088 20.0952 4.60225 20.098H18.9803C20.4565 20.0952 21.6526 18.8991 21.6554 17.4229V6.27449C21.6526 4.84312 20.4929 3.68347 19.0616 3.68066ZM16.2156 5.14844C16.7002 5.14844 17.028 5.47617 17.028 5.96357C17.028 6.26048 16.9103 6.44536 16.8095 6.549C16.7086 6.65264 16.521 6.77869 16.2156 6.77869C15.9103 6.77869 15.7254 6.65264 15.6218 6.549C15.5182 6.44536 15.4033 6.26329 15.4033 5.96357C15.4033 5.47617 15.731 5.14844 16.2156 5.14844ZM8.2745 5.96357C8.2745 5.47617 7.94677 5.14844 7.46218 5.14844C6.97759 5.14844 6.64986 5.47617 6.64986 5.96357C6.64986 6.26048 6.76751 6.44536 6.86834 6.549C6.96918 6.65264 7.15686 6.77869 7.46218 6.77869C7.7675 6.77869 7.95517 6.65264 8.05601 6.549C8.15685 6.44536 8.2745 6.26048 8.2745 5.96357ZM13.7087 16.8151H9.92155C9.89634 16.745 9.88794 16.633 9.88794 16.5377C9.88794 16.1736 9.98318 15.9299 10.2353 15.6274L11.3893 14.2212C12.0504 13.4229 12.3277 13.0308 12.3277 12.5378C12.3277 12.2857 12.2493 12.0952 12.0924 11.9635C11.9103 11.8067 11.6162 11.7367 11.1905 11.7367C10.8011 11.7423 10.4117 11.7787 10.028 11.8487V10.9299C10.4818 10.8235 10.944 10.7675 11.4089 10.7647C12.2605 10.7647 12.8235 10.9551 13.1876 11.3193C13.465 11.5966 13.6134 11.9803 13.6134 12.4733C13.6134 13.2128 13.2829 13.7759 12.3445 14.8011L11.3109 15.9299H13.7087V16.8151ZM3.32214 8.60501H20.3417C20.619 8.60501 20.8431 8.42294 20.8431 8.19885C20.8431 7.97476 20.6162 7.79269 20.3389 7.79269H3.32214C3.04483 7.79269 2.81794 7.97476 2.81794 8.19885C2.81794 8.42294 3.04483 8.60501 3.32214 8.60501Z" fill="#313235"/>
</svg>
