<svg width="24" height="24" viewBox="0 0 24 24" fill="none" xmlns="http://www.w3.org/2000/svg">
<path fill-rule="evenodd" clip-rule="evenodd" d="M14.8979 21.201C15.9686 21.627 16.9524 21.84 17.8073 21.84C18.5977 21.84 19.276 21.6578 19.8058 21.2934L19.8198 21.2822L19.8422 21.2654C20.1954 21.0075 20.4701 20.7805 20.6579 20.5843C22.2359 18.9334 22.2331 17.2964 20.6551 15.7156C20.3636 15.4185 20.0356 15.1606 19.6796 14.9476C18.0035 13.9077 16.5824 14.7598 15.6827 15.6567C15.5173 15.8193 15.3631 15.9931 15.223 16.1753C14.867 16.4752 14.1243 16.08 13.5581 15.6932C12.6303 15.0569 11.5456 14.0058 10.8084 13.2686L10.7215 13.1817C9.98715 12.4474 8.93325 11.3598 8.29699 10.432C7.91019 9.86864 7.51498 9.12306 7.81489 8.76708C7.99708 8.62413 8.17086 8.47277 8.33343 8.3074C9.23317 7.41046 10.0853 5.98656 9.04257 4.3104C8.82955 3.95162 8.57168 3.62648 8.27457 3.33497C6.69372 1.75691 5.05682 1.75411 3.4059 3.33217C3.2125 3.51716 2.98266 3.79185 2.72759 4.14783L2.71078 4.17025C2.70797 4.17305 2.70237 4.17866 2.69956 4.18426C1.93717 5.28862 1.968 7.03206 2.79206 9.09222C3.67498 11.3094 5.40158 13.7395 7.78406 16.122V16.1248L7.86534 16.2061L7.86815 16.2089C10.2506 18.5886 12.6808 20.3152 14.8979 21.201ZM15.1053 20.6796C12.9582 19.8247 10.5954 18.1401 8.26616 15.8137L8.22972 15.7716L8.22412 15.766L8.18207 15.724C5.85285 13.3975 4.1711 11.0319 3.3134 8.88481C2.9294 7.9262 2.72759 7.04888 2.71358 6.27806C2.69956 5.5549 2.85092 4.96068 3.15924 4.50941C3.16485 4.49819 3.17326 4.48698 3.18447 4.47297C3.41991 4.14783 3.62453 3.89836 3.79551 3.73579C4.53267 3.03225 5.22219 2.6931 5.89769 2.70431C6.55077 2.71552 7.19825 3.05187 7.87375 3.72738C8.13723 3.98525 8.36706 4.27396 8.55486 4.59069L8.56047 4.5991C8.89401 5.13727 9.01734 5.67823 8.92765 6.21079C8.83235 6.77419 8.496 7.34599 7.93261 7.90938C7.78125 8.06354 7.61869 8.20649 7.4449 8.33823C7.43445 8.3445 7.42712 8.35234 7.41941 8.36056C7.41679 8.36337 7.41412 8.36621 7.41127 8.36906C6.44426 9.42017 8.23813 11.4915 10.3235 13.5769L10.4104 13.6638C12.4958 15.7492 14.5671 17.5431 15.6182 16.5761C15.6294 16.5649 15.6406 16.5537 15.649 16.5425C15.7808 16.3715 15.9237 16.2089 16.0779 16.0547C16.6441 15.4885 17.2131 15.155 17.7765 15.0597C18.309 14.97 18.8528 15.0933 19.3881 15.4269L19.3965 15.4325C19.7133 15.6231 20.002 15.8501 20.2598 16.1136C20.9354 16.7891 21.2717 17.4366 21.2829 18.0897C21.2941 18.7708 20.9578 19.4603 20.2542 20.1975C20.0917 20.3657 19.845 20.5731 19.5171 20.8085L19.4806 20.8338C19.0294 21.1449 18.4351 21.2934 17.712 21.2794C16.9412 21.2626 16.0639 21.0636 15.1053 20.6796Z" fill="#313235"/>
</svg>
