<svg width="24" height="24" viewBox="0 0 24 24" fill="none" xmlns="http://www.w3.org/2000/svg">
<path fill-rule="evenodd" clip-rule="evenodd" d="M17.6093 21.8059C16.7438 21.8059 15.7522 21.5931 14.685 21.1673C12.5029 20.2961 10.1135 18.6015 7.77741 16.2653L7.77181 16.2597L7.69618 16.1869L7.69058 16.1813C5.35445 13.8452 3.65977 11.4586 2.78863 9.27375C1.9567 7.18412 1.93709 5.39981 2.73261 4.24575L2.74941 4.22054L2.76062 4.20374C2.77837 4.18118 2.80164 4.15057 2.82954 4.11385L2.82955 4.11383L2.82955 4.11383C2.96451 3.93626 3.20789 3.616 3.4609 3.37461C4.32924 2.54548 5.21439 2.13371 6.09394 2.15052C6.93988 2.16733 7.77741 2.58189 8.58133 3.38581C8.88385 3.68273 9.14996 4.01886 9.36565 4.38581C9.79702 5.08048 9.95388 5.79757 9.83063 6.51746C9.70738 7.23734 9.30682 7.94042 8.63455 8.61269C8.47769 8.76955 8.31243 8.91801 8.13876 9.05527C8.07433 9.17291 8.11355 9.54266 8.63455 10.3046C9.23679 11.1841 10.2452 12.2233 10.9511 12.9292L11.0351 13.0132C11.741 13.7191 12.7802 14.7247 13.6598 15.3298C14.4189 15.8508 14.7914 15.89 14.9091 15.8256C15.0463 15.6519 15.192 15.4866 15.3516 15.3298C16.0239 14.6575 16.727 14.2569 17.4469 14.1337C18.1667 14.0104 18.8838 14.1673 19.5785 14.5987C19.9455 14.8172 20.2788 15.0805 20.5785 15.3858C21.3824 16.1897 21.797 17.0272 21.8138 17.8732C21.8306 18.7499 21.4188 19.6379 20.5869 20.5062C20.3083 20.7982 19.9247 21.0774 19.7741 21.187L19.755 21.2009L19.7382 21.2121C19.7298 21.2177 19.7214 21.2233 19.713 21.2317C19.1499 21.6127 18.4357 21.8059 17.6093 21.8059Z" fill="#313235"/>
</svg>
