<svg width="24" height="24" viewBox="0 0 24 24" fill="none" xmlns="http://www.w3.org/2000/svg">
<path fill-rule="evenodd" clip-rule="evenodd" d="M16.4804 3.55742C15.4103 2.52381 13.8557 2 11.8641 2C10.0742 2 8.63167 2.42297 7.58125 3.2605C6.48042 4.13725 5.82496 5.44816 5.62888 7.15404C5.59527 7.46216 5.81936 7.73667 6.12748 7.77028C6.4328 7.80109 6.7045 7.58541 6.74092 7.28289C6.90058 5.87953 7.41879 4.82352 8.27593 4.13725C9.12186 3.46498 10.3291 3.12044 11.8585 3.12044C13.5504 3.12044 14.8417 3.53781 15.6989 4.36414C16.5868 5.21567 17.035 6.53779 17.0378 8.29129L17.0294 8.8347V8.84311C17.0294 9.02798 16.9986 9.27448 16.8585 9.41733C16.7465 9.52938 16.5588 9.5854 16.3067 9.5854H13.7773C13.6204 9.35291 13.3487 9.21845 12.9958 9.21845C12.4188 9.21845 12.0574 9.577 12.0574 10.1512C12.0574 10.4341 12.1415 10.6638 12.3039 10.8291C12.4664 10.9944 12.7073 11.084 12.993 11.084C13.2787 11.084 13.5196 10.9972 13.6821 10.8291C13.7185 10.7927 13.7521 10.7507 13.7801 10.7058H16.2983C16.8585 10.7058 17.3095 10.5406 17.6372 10.2156C17.965 9.89072 18.1414 9.41733 18.1414 8.85151L18.1498 8.30809V8.29969C18.1582 6.22407 17.5924 4.63024 16.4804 3.55742ZM20.3263 21.6946H3.3936C3.08547 21.6946 2.83337 21.4425 2.83337 21.1344V19.4957C2.83337 17.9299 3.32357 16.591 4.25354 15.6246C5.26474 14.5742 6.76613 14.0196 8.59245 14.0196H15.1274C16.9538 14.0196 18.4552 14.5742 19.4664 15.6246C20.3963 16.591 20.8865 17.9299 20.8865 19.4957V21.1344C20.8865 21.4453 20.6372 21.6946 20.3263 21.6946ZM11.9062 11.2212C12.1807 11.4986 12.556 11.6442 12.9958 11.6442C13.4104 11.6442 13.7717 11.5126 14.0378 11.2633H15.6008C14.8893 12.3921 13.6232 12.9887 11.8697 12.9887C9.03223 12.9887 7.46921 11.4257 7.46921 8.58821C7.46921 5.75068 9.03223 4.18767 11.8697 4.18767C14.7073 4.18767 16.2703 5.75068 16.2703 8.58821C16.2703 8.73666 16.2647 8.88232 16.2563 9.02518H14.0266C13.7633 8.78708 13.4076 8.65823 12.9958 8.65823C12.5588 8.65823 12.1891 8.80109 11.9146 9.0728C11.6401 9.3445 11.4972 9.71705 11.4972 10.1512C11.4972 10.5798 11.6401 10.9495 11.9062 11.2212Z" fill="#313235"/>
</svg>
