<svg width="24" height="24" viewBox="0 0 24 24" fill="none" xmlns="http://www.w3.org/2000/svg">
<path fill-rule="evenodd" clip-rule="evenodd" d="M21.6176 7.33612L16.1554 2.15406C16.0518 2.05602 15.9145 2 15.7717 2H8.39074C7.82211 2 7.2843 2.53781 7.2843 3.10644V4.61344C6.86693 4.35294 6.43836 4.21848 6.00699 4.21008C5.2955 4.19607 4.58402 4.52661 3.89215 5.18767C3.6578 5.41124 3.43641 5.7151 3.35251 5.83026L3.34313 5.84313L3.33472 5.85433C3.33192 5.85854 3.32912 5.86204 3.32632 5.86554C3.32352 5.86904 3.32072 5.87254 3.31792 5.87674C2.68206 6.79831 2.69327 8.21287 3.34873 9.85993C4.0238 11.5546 5.33752 13.4033 7.14424 15.2101L7.14984 15.2157L7.20306 15.2717L7.20867 15.2773C7.23107 15.2997 7.25418 15.3221 7.27729 15.3445C7.3004 15.3669 7.32351 15.3893 7.34592 15.4117C7.3067 15.4902 7.2843 15.577 7.2843 15.6638V20.5854C7.2843 21.1736 7.8025 21.6918 8.39074 21.6918H20.6876C21.2759 21.6918 21.7941 21.1736 21.7941 20.5854V7.74228C21.7941 7.58822 21.7296 7.44257 21.6176 7.33612ZM20.4047 7.72828H18.2226C17.57 7.72828 17.0238 7.5238 16.64 7.14005C16.2563 6.75629 16.0518 6.20727 16.0518 5.55742V3.59944L20.4047 7.72828ZM4.23668 6.5238C3.83052 7.12324 3.88654 8.18766 4.39074 9.44816C5.17226 11.4089 6.74928 13.2325 7.93415 14.4201L7.96497 14.4482L7.97617 14.4594L8.00418 14.4874C9.18905 15.6722 11.0126 17.2493 12.9734 18.0308C14.2339 18.535 15.2983 18.591 15.9005 18.1848L15.9257 18.168C16.2086 17.9636 16.3543 17.8291 16.4271 17.7535C17.3151 16.8235 17.3179 16.0868 16.4355 15.2045C16.2675 15.0308 16.0742 14.8795 15.8669 14.7535L15.8501 14.7451C15.4243 14.479 14.7493 14.2353 13.8221 15.1624C13.7157 15.2661 13.6176 15.3781 13.528 15.4958C13.5112 15.5182 13.4916 15.5406 13.4692 15.5602C13.2619 15.7507 12.8921 15.9467 12.3151 15.8011C12.0042 15.7227 11.6596 15.5518 11.2619 15.2773C10.6877 14.8823 10.0238 14.2997 9.10502 13.3809L9.0406 13.3165C8.12183 12.3977 7.5364 11.7339 7.14424 11.1596C6.86973 10.7619 6.69886 10.4173 6.62043 10.1064C6.47197 9.5294 6.67085 9.15965 6.86133 8.95237C6.88094 8.93276 6.90334 8.91315 6.92575 8.89354C7.0434 8.80671 7.15544 8.70867 7.25909 8.60223C8.18906 7.67506 7.94256 6.99999 7.67645 6.57422L7.66805 6.55741C7.542 6.35013 7.39074 6.15966 7.21707 5.98879C6.33752 5.10644 5.59803 5.10924 4.66806 5.99719C4.58962 6.07002 4.45517 6.21848 4.25349 6.49859L4.23668 6.5238Z" fill="#313235"/>
</svg>
