<svg width="24" height="24" viewBox="0 0 24 24" fill="none" xmlns="http://www.w3.org/2000/svg">
<path fill-rule="evenodd" clip-rule="evenodd" d="M8.39073 21.6918H20.6876C21.2758 21.6918 21.794 21.1736 21.794 20.5854V7.74227C21.794 7.58821 21.7324 7.44255 21.6204 7.33611L16.1582 2.15406C16.0546 2.05602 15.9145 2 15.7717 2H8.39073C7.82211 2 7.2843 2.53781 7.2843 3.10644V4.60993C6.8669 4.35079 6.43973 4.21611 6.00699 4.20727C5.29831 4.19327 4.58683 4.521 3.89215 5.18486C3.64846 5.41735 3.41876 5.73388 3.34313 5.84032L3.33473 5.85152C3.33193 5.85572 3.32913 5.85922 3.32633 5.86272L3.32633 5.86273C3.32353 5.86623 3.32073 5.86973 3.31793 5.87393C2.67927 6.7955 2.69048 8.21006 3.34594 9.85711C4.021 11.5518 5.33192 13.4005 7.13864 15.2072L7.14424 15.2128L7.20026 15.2689L7.20586 15.2745C7.25235 15.3209 7.29887 15.3671 7.34541 15.4129C7.30636 15.4892 7.2843 15.5755 7.2843 15.6666V20.5854C7.2843 21.1736 7.8025 21.6918 8.39073 21.6918ZM8.40474 16.3959C9.82018 17.6293 11.2349 18.5437 12.556 19.07C13.3935 19.4033 14.1694 19.5714 14.8529 19.5714C15.514 19.5714 16.0882 19.4145 16.5448 19.1008L16.5672 19.084L16.5784 19.0756L16.5912 19.0662L16.5913 19.0662C16.7064 18.9823 17.0103 18.7609 17.2338 18.5265C17.8949 17.8347 18.2254 17.1204 18.2114 16.4117C18.2002 15.7254 17.8669 15.0532 17.2254 14.4117C16.9901 14.1708 16.724 13.9607 16.4327 13.7871C15.3067 13.0924 14.0994 13.2969 13.0294 14.3697C12.9145 14.4845 12.8053 14.605 12.7044 14.731C12.64 14.7338 12.3627 14.703 11.7184 14.2268C11.0882 13.7619 10.3767 13.0672 9.89773 12.5882L9.8333 12.5238C9.35151 12.0448 8.65964 11.3333 8.19465 10.703C7.71847 10.0588 7.68765 9.78148 7.69046 9.71705C7.81651 9.61621 7.93695 9.50697 8.0518 9.39213C9.12182 8.3193 9.3291 7.11202 8.63163 5.98598C8.56177 5.86992 8.48602 5.75704 8.40474 5.64824V3.14285C8.41034 3.13445 8.41874 3.12605 8.42715 3.12044H14.9313V5.55741C14.9313 6.51259 15.2506 7.33331 15.8473 7.93275C16.4439 8.53219 17.2674 8.84871 18.2226 8.84871H20.6736V20.5657L20.668 20.5714H8.41594C8.41509 20.5705 8.41399 20.5697 8.41278 20.5687C8.41001 20.5666 8.40669 20.5641 8.40474 20.5601V16.3959ZM20.4049 7.72827L16.0518 3.59874V5.55741C16.0518 6.21007 16.2562 6.75628 16.64 7.14003C17.0237 7.52379 17.5728 7.72827 18.2226 7.72827H20.4049ZM12.9733 18.0307C11.0126 17.2492 9.18905 15.6722 8.00418 14.4873L7.97337 14.4565L7.96216 14.4453L7.93135 14.4173C6.74648 13.2296 5.16946 11.4061 4.38795 9.44535C3.88655 8.18205 3.83053 7.11763 4.23389 6.52099L4.25069 6.49578C4.45518 6.21287 4.58963 6.06721 4.66526 5.99438C5.59523 5.10643 6.33192 5.10363 7.21427 5.98598C7.38794 6.15404 7.5392 6.34732 7.66525 6.5546L7.67365 6.57141C7.93975 6.99718 8.18345 7.67224 7.25628 8.59941C7.15264 8.70585 7.0406 8.80389 6.92295 8.89353C6.90054 8.91034 6.87813 8.92994 6.85853 8.95235C6.66805 9.15963 6.47197 9.52938 6.61763 10.1064C6.69606 10.4173 6.86693 10.7619 7.14144 11.1596C7.53639 11.7339 8.11903 12.3977 9.03779 13.3165L9.10221 13.3809C10.021 14.2997 10.6848 14.8851 11.2591 15.2773C11.6568 15.5518 12.0014 15.7226 12.3123 15.8011C12.8893 15.9495 13.2591 15.7506 13.4663 15.5602C13.4859 15.5406 13.5055 15.5182 13.5251 15.4958L13.5252 15.4957C13.6148 15.3781 13.7128 15.2661 13.8193 15.1624C14.7464 14.2324 15.4215 14.4789 15.8473 14.745L15.8641 14.7534C16.0714 14.8795 16.2618 15.0308 16.4327 15.2044C17.3151 16.084 17.3123 16.8235 16.4243 17.7534C16.3515 17.8319 16.203 17.9663 15.9229 18.168L15.8977 18.1848C15.2983 18.591 14.2338 18.5349 12.9733 18.0307Z" fill="#313235"/>
</svg>
