<svg width="24" height="24" viewBox="0 0 24 24" fill="none" xmlns="http://www.w3.org/2000/svg">
<path fill-rule="evenodd" clip-rule="evenodd" d="M21.2467 15.6345C20.9526 15.0742 20.5997 14.6289 20.2327 14.2759C21.3055 13.0826 21.8518 11.3852 21.8546 9.2311C21.8546 4.67929 19.3616 2.16669 14.835 2.16669C10.3168 2.16669 7.82377 4.67929 7.82377 9.2311C7.82377 9.32914 7.82377 9.43558 7.83217 9.53362C6.4008 9.9874 5.33918 10.8109 4.62769 11.5364C2.93582 13.2479 2.17672 15.4048 2.18512 16.6485C2.10137 18.2396 2.32921 19.3022 2.33909 19.3483L2.33918 19.3487C2.40361 19.6316 2.65011 19.8361 2.93582 19.8361H4.6501C4.87979 21.0882 5.81817 21.8445 7.21592 21.8445C8.61368 21.8445 9.55206 21.0882 9.78175 19.8361H13.1963C13.4176 21.0966 14.356 21.8529 15.7537 21.8529C17.1515 21.8529 18.0899 21.0966 18.3195 19.8361H20.6977C20.863 19.8361 21.0086 19.7689 21.1235 19.6625L21.1247 19.6612C21.1997 19.5864 22.5941 18.1956 21.2467 15.6345ZM9.04785 9.2283V9.25911C9.39799 9.20309 9.77614 9.17788 10.1655 9.17788C14.6529 9.17788 16.8826 11.9762 17.4876 12.8894C17.8714 12.9566 18.524 13.1219 19.2355 13.5252C20.1599 12.5532 20.6249 11.1107 20.6249 9.2283C20.6249 5.35996 18.6725 3.39918 14.8322 3.39918C11.0002 3.39918 9.04785 5.35716 9.04785 9.2283ZM16.0675 10.2227C16.1879 10.3459 16.3448 10.4048 16.5016 10.4048C16.6585 10.4048 16.8153 10.3431 16.9358 10.2227C17.1739 9.979 17.1739 9.58964 16.9358 9.34875L15.3868 7.78853V5.68769C15.3868 5.34875 15.1123 5.07144 14.7733 5.07144C14.4344 5.07144 14.1599 5.34595 14.1599 5.68769V8.04623C14.1599 8.21149 14.2243 8.36836 14.3392 8.4832L16.0675 10.2227ZM20.1599 16.2115C20.8406 17.4944 20.5857 18.2759 20.398 18.598H18.3195C18.1067 17.3291 17.1599 16.5728 15.7537 16.5728C14.3504 16.5728 13.4092 17.3291 13.1963 18.598H9.79015C9.56886 17.3291 8.62208 16.5644 7.21592 16.5644C5.80976 16.5644 4.86299 17.3291 4.6417 18.598H3.46523C3.40921 18.1779 3.36719 17.5112 3.40921 16.6709C3.4008 15.6345 4.1291 13.7829 5.49324 12.3992C6.3924 11.4944 7.92741 10.416 10.1655 10.416C14.6669 10.416 16.5072 13.6345 16.5801 13.7661C16.6865 13.9566 16.8742 14.0798 17.0871 14.0882C17.1039 14.0882 19.1151 14.2283 20.1599 16.2115ZM17.1543 19.2143V19.2059C17.1543 18.2591 16.6977 17.8081 15.7565 17.8081C14.8154 17.8081 14.3672 18.2619 14.3672 19.2059V19.2143C14.3672 20.1527 14.8154 20.6148 15.7565 20.6148C16.6977 20.6148 17.1543 20.1527 17.1543 19.2143ZM8.61368 19.1975V19.2143C8.60528 20.1527 8.1487 20.6064 7.21592 20.6064C6.27475 20.6064 5.81817 20.1442 5.81817 19.1975C5.81817 18.2535 6.27755 17.7997 7.21592 17.7997C8.1571 17.7997 8.61368 18.2507 8.61368 19.1975Z" fill="#313235"/>
</svg>
