<svg width="24" height="24" viewBox="0 0 24 24" fill="none" xmlns="http://www.w3.org/2000/svg">
<path fill-rule="evenodd" clip-rule="evenodd" d="M17.3165 9.47197C18.07 9.58402 19.9776 10.0462 21.084 11.9061C22.4818 14.2479 21.0196 15.5196 20.9551 15.5756C20.8459 15.6709 20.703 15.7213 20.5546 15.7213H18.1736C17.9439 16.9342 17.0084 17.6653 15.6078 17.6653C14.2072 17.6653 13.2661 16.9342 13.0392 15.7213H9.61901C9.38652 16.9286 8.45094 17.6568 7.05318 17.6568C5.65823 17.6568 4.71985 16.9286 4.49016 15.7213H2.77307C2.49296 15.7241 2.24926 15.5364 2.17643 15.2675C2.17603 15.2655 2.17509 15.2613 2.17368 15.255C2.146 15.1321 1.93694 14.2038 2.01957 12.8417C2.00837 11.7801 2.68904 9.99858 4.22966 8.49718C5.31369 7.43836 7.19604 6.17786 10.0112 6.17786C14.4762 6.17786 16.703 8.65405 17.3165 9.47197ZM18.1736 14.528H20.2689C20.4453 14.2563 20.6778 13.6036 20.0196 12.5C18.986 10.7661 17.014 10.6288 16.9299 10.626C16.7283 10.6148 16.5434 10.5084 16.4369 10.3375C16.3641 10.2199 14.521 7.36833 10.0084 7.36833C7.61621 7.36833 6.01677 8.43556 5.098 9.33472C3.87111 10.5308 3.23806 12.0182 3.24366 12.8697C3.20164 13.5868 3.24366 14.161 3.29128 14.528H4.48176C4.70585 13.3067 5.64702 12.5672 7.05318 12.5672C8.45935 12.5672 9.40052 13.3067 9.62461 14.528H13.0364C13.2605 13.3095 14.2016 12.5756 15.605 12.5756C17.0084 12.5756 17.9467 13.3095 18.1736 14.528ZM14.21 15.119C14.21 16.0294 14.6638 16.472 15.605 16.472C16.5434 16.472 17 16.0294 17 15.119C17 14.2087 16.5434 13.7661 15.605 13.7661C14.6666 13.7661 14.21 14.2087 14.21 15.119ZM7.05318 16.4664C6.11201 16.4664 5.65823 16.0238 5.65823 15.1134C5.65823 14.2003 6.11481 13.7577 7.05318 13.7577C7.99156 13.7577 8.45094 14.2003 8.45094 15.1134C8.44814 16.0238 7.99156 16.4664 7.05318 16.4664Z" fill="#313235"/>
</svg>
