<svg width="24" height="24" viewBox="0 0 24 24" fill="none" xmlns="http://www.w3.org/2000/svg">
<path fill-rule="evenodd" clip-rule="evenodd" d="M17.1286 10.0199C16.7364 12.2916 12.6524 14.2944 12.1902 14.5185C12.109 14.5577 12.0194 14.5773 11.9325 14.5773C11.8457 14.5773 11.7561 14.5577 11.6748 14.5185C11.2098 14.2972 7.1314 12.2944 6.74204 10.0199C6.45633 8.37154 6.45892 4.61875 6.45912 4.32186L6.45913 4.30843C6.45913 4.12076 6.54597 3.94709 6.69163 3.82944C6.84008 3.71459 7.02776 3.67538 7.20703 3.7174C8.07397 3.84841 8.52756 3.54667 9.1586 3.12688L9.16782 3.12076C9.80647 2.69219 10.602 2.15997 11.9269 2.15997H11.9325C13.2547 2.16277 14.0496 2.69274 14.6876 3.11806L14.6916 3.12076L14.7052 3.12978C15.334 3.54813 15.7933 3.85363 16.686 3.71179C16.8653 3.68658 17.0446 3.7342 17.179 3.84905C17.3135 3.96389 17.4003 4.12916 17.4003 4.30843C17.4059 4.4709 17.4143 8.33644 17.1286 10.0199ZM15.9409 9.80983C15.7364 10.9891 13.4787 12.5073 11.9353 13.2888C10.3919 12.5073 8.1342 10.9919 7.93532 9.80703C7.72804 8.62216 7.68322 6.14037 7.67202 4.95829C8.6356 4.93868 9.26866 4.51572 9.84008 4.13196L9.85507 4.12201C10.4566 3.72282 10.9797 3.37566 11.9353 3.37566H11.9381C12.8989 3.37846 13.4255 3.7286 14.0306 4.13476C14.5936 4.51291 15.2182 4.92748 16.1986 4.95269C16.1902 6.12916 16.1454 8.62216 15.9409 9.80983ZM21.616 15.5269C21.6272 15.3869 21.8737 12.132 21.8429 10.9975C21.8233 10.1852 21.3667 9.69219 20.518 9.64457C19.8681 9.64737 19.2827 10.0927 19.1482 10.751L18.8429 12.244C18.2687 12.0535 17.6412 12.258 17.3191 12.7846L17.2182 12.9611L17.2171 12.9631C17.0012 13.3473 16.6007 14.0598 15.8597 14.4457C15.7504 14.4933 15.3527 14.7174 14.7308 15.5297C14.2575 16.1488 13.8597 16.8378 13.5516 17.5745L13.1286 18.5885C12.8121 18.8519 12.6048 19.2468 12.6048 19.695V20.4065C12.6048 21.2048 13.2434 21.849 14.0334 21.849H17.4899C18.2799 21.849 18.9213 21.202 18.9213 20.4065V19.695C18.9213 19.4121 18.8345 19.146 18.6944 18.9247L20.1734 17.6586C20.3027 17.5454 20.4398 17.4427 20.5796 17.3378L20.5964 17.3252C20.8401 17.1404 21.0614 16.8827 21.2518 16.5633C21.4563 16.2188 21.5768 15.8771 21.616 15.5269ZM20.4171 15.4093L20.4217 15.3454C20.4555 14.881 20.6642 12.0147 20.6384 11.0283C20.6356 10.9387 20.6272 10.8939 20.6188 10.8715C20.6165 10.8715 20.6125 10.8708 20.6067 10.8699L20.6067 10.8699C20.5914 10.8675 20.5634 10.8631 20.5208 10.8631C20.4199 10.8659 20.3443 10.9163 20.3275 10.9975L19.8093 13.5241C19.806 13.5403 19.799 13.5537 19.7921 13.5671C19.787 13.5767 19.782 13.5863 19.7785 13.5969C19.7757 13.8322 19.7252 14.0647 19.602 14.272L19.5992 14.2748V14.2776L18.0614 16.8799C17.9493 17.0731 17.7476 17.1796 17.5432 17.1796C17.4367 17.1796 17.3331 17.1516 17.235 17.0927C16.9493 16.9191 16.8541 16.5465 17.025 16.258L18.5628 13.653C18.5628 13.653 18.5656 13.653 18.5656 13.6502V13.6474C18.5992 13.5913 18.5628 13.4485 18.5068 13.4121C18.5068 13.4121 18.3891 13.3448 18.3443 13.4205L18.2659 13.5549L18.265 13.5564C18.007 14.0163 17.472 14.9701 16.3835 15.5325C16.3835 15.5325 16.1314 15.6838 15.6804 16.2692C15.2715 16.8042 14.9269 17.4009 14.6608 18.0423L14.574 18.2496H17.4871C17.5084 18.2496 17.5297 18.2525 17.5515 18.2554L17.5515 18.2554C17.5671 18.2575 17.5829 18.2596 17.5992 18.2608L19.3919 16.7286C19.546 16.597 19.7084 16.4737 19.8709 16.3505L19.8709 16.3504C19.9913 16.2608 20.1062 16.1208 20.2154 15.9359C20.3331 15.7454 20.4003 15.5661 20.4171 15.4093ZM17.7168 20.4037V19.695C17.7168 19.5717 17.616 19.4709 17.4927 19.4709H14.0362C13.9129 19.4709 13.8121 19.5717 13.8121 19.695V20.4065C13.8121 20.5297 13.9129 20.6306 14.0362 20.6306H17.4927C17.616 20.6306 17.7168 20.5297 17.7168 20.4037ZM10.1958 20.4037V19.695C10.1958 19.5717 10.095 19.4709 9.97454 19.4709H6.51796C6.39471 19.4709 6.29387 19.5717 6.29387 19.695V20.4065C6.29387 20.5297 6.39471 20.6306 6.51796 20.6306H9.97454C10.095 20.6306 10.1958 20.5297 10.1958 20.4037ZM6.40311 18.2636L4.61039 16.7314C4.45633 16.5969 4.29387 16.4737 4.137 16.3561C4.01655 16.2664 3.89891 16.1264 3.78966 15.9415C3.67482 15.7454 3.60759 15.5661 3.59078 15.4317C3.58798 15.3981 3.33868 12.1011 3.36669 11.0283C3.36831 10.9765 3.37274 10.9388 3.37564 10.914C3.37777 10.8958 3.37908 10.8846 3.3779 10.8799C3.39471 10.8743 3.43392 10.8659 3.51796 10.8603C3.59359 10.8659 3.66081 10.9163 3.67762 10.9975L4.19583 13.5241C4.19907 13.5403 4.20607 13.5537 4.21303 13.5671C4.21808 13.5767 4.2231 13.5863 4.22664 13.5969C4.22944 13.8294 4.28266 14.0647 4.40311 14.272H4.40591V14.2748L5.94373 16.8799C6.05577 17.0731 6.25745 17.1796 6.46193 17.1796C6.56277 17.1796 6.67202 17.1488 6.76725 17.0927C7.05577 16.9191 7.14821 16.5465 6.97734 16.258L5.43952 13.653L5.43672 13.6502V13.6474C5.40311 13.5913 5.43952 13.4485 5.49555 13.4149C5.49555 13.4121 5.61319 13.3448 5.65801 13.4205L5.73644 13.5577C5.99134 14.0171 6.52636 14.9723 7.61319 15.5353C7.61599 15.5353 7.8681 15.6866 8.31908 16.272C8.72804 16.807 9.06978 17.4037 9.33868 18.0451L9.42552 18.2524H6.51235C6.4905 18.2524 6.46865 18.2554 6.4468 18.2585C6.43224 18.2605 6.41767 18.2625 6.40311 18.2636ZM10.4507 17.5745L10.8765 18.5885C11.193 18.8519 11.4003 19.2468 11.4003 19.695V20.4065C11.4003 21.1992 10.7589 21.849 9.97174 21.849H6.51515C5.72524 21.849 5.08658 21.202 5.08658 20.4065V19.695C5.08658 19.4093 5.17062 19.146 5.31067 18.9247L3.83168 17.6586C3.70976 17.5544 3.57863 17.4549 3.45082 17.3579L3.41151 17.328C3.16501 17.1404 2.94373 16.8827 2.75325 16.5633C2.54877 16.2188 2.42832 15.8771 2.3919 15.5465C2.3779 15.3869 2.1342 12.132 2.16221 10.9947C2.18182 10.1824 2.6412 9.69219 3.41431 9.64737C4.1398 9.65577 4.71964 10.0899 4.85689 10.751L5.16501 12.244C5.73924 12.0535 6.36389 12.258 6.68602 12.7818L6.78686 12.9583L6.78793 12.9602C7.00388 13.3444 7.40437 14.057 8.16782 14.4541C8.25185 14.4933 8.64961 14.7174 9.27146 15.5269C9.74485 16.146 10.1454 16.835 10.4507 17.5745ZM14.7364 6.28042C14.5011 6.04233 14.1202 6.04233 13.8849 6.28042L11.0222 9.16277L9.97734 8.10395C9.74204 7.86586 9.36109 7.86586 9.1258 8.10395C8.8905 8.34205 8.8905 8.7258 9.1258 8.96389L10.5992 10.4513C10.7168 10.5689 10.8709 10.6278 11.025 10.6278C11.1818 10.6278 11.3359 10.5689 11.4535 10.4513L14.7364 7.14037C14.9717 6.90507 14.9717 6.51852 14.7364 6.28042Z" fill="#313235"/>
</svg>
