<svg width="24" height="24" viewBox="0 0 24 24" fill="none" xmlns="http://www.w3.org/2000/svg">
<path fill-rule="evenodd" clip-rule="evenodd" d="M12.1902 14.5157C12.6552 14.2944 16.7364 12.2916 17.1286 10.0199C17.4171 8.33363 17.4059 4.47089 17.4031 4.30563C17.4031 4.12916 17.319 3.96109 17.1846 3.84625C17.0501 3.7342 16.8681 3.68378 16.6916 3.71179C15.796 3.85363 15.3368 3.54812 14.7079 3.12975L14.6944 3.12076L14.6804 3.11144C14.0442 2.68723 13.2534 2.15997 11.9381 2.15997H11.9325C10.6048 2.15997 9.80924 2.69219 9.17058 3.12076L9.14934 3.13489C8.5246 3.55055 8.07402 3.85035 7.2126 3.71739C7.03333 3.67538 6.84286 3.71459 6.6972 3.82944C6.55154 3.94709 6.4647 4.12075 6.4647 4.30843C6.4619 4.47089 6.4507 8.33924 6.74482 10.0199C7.13417 12.2916 11.2098 14.2944 11.6748 14.5157C11.756 14.5549 11.8428 14.5745 11.9325 14.5745C12.0193 14.5745 12.109 14.5549 12.1902 14.5157ZM14.7392 7.14036C14.9745 6.90226 14.9745 6.51571 14.7392 6.28042C14.5039 6.04232 14.1202 6.04232 13.8849 6.28042L11.0305 9.16276L9.98291 8.10394C9.74761 7.86585 9.36386 7.86585 9.13137 8.10394C8.89607 8.34204 8.89607 8.72859 9.13137 8.96389L10.6048 10.4513C10.7224 10.5689 10.8765 10.6305 11.0333 10.6305C11.1874 10.6305 11.3414 10.5689 11.4591 10.4513L14.7392 7.14036ZM21.6159 15.5241C21.6271 15.384 21.8736 12.1291 21.8428 10.9947C21.8232 10.1852 21.3666 9.69218 20.5179 9.63895C19.8708 9.64176 19.2826 10.0843 19.1482 10.7454L18.8428 12.2384C18.2686 12.0479 17.644 12.2524 17.319 12.779L17.2182 12.9555L17.2171 12.9574C17.0011 13.3417 16.6007 14.0542 15.8596 14.4401C15.7504 14.4905 15.3526 14.7118 14.7308 15.5241C14.2574 16.1431 13.8597 16.8322 13.5515 17.5689L13.1286 18.5829C12.8092 18.849 12.602 19.2412 12.602 19.6894V20.4008C12.602 21.1964 13.2462 21.8406 14.0333 21.8406H17.4899C18.2798 21.8406 18.9213 21.1964 18.9213 20.4008V19.6894C18.9213 19.4064 18.8372 19.1403 18.6944 18.9191L20.1734 17.6529C20.3106 17.5381 20.4507 17.4317 20.5963 17.3224C20.84 17.1375 21.0613 16.8798 21.2518 16.5605C21.4563 16.216 21.5767 15.8742 21.6159 15.5241ZM20.4216 15.3454L20.4171 15.4093C20.4003 15.5633 20.333 15.7454 20.2154 15.9359C20.1061 16.1207 19.9913 16.2608 19.8708 16.3504C19.7084 16.4709 19.5459 16.5969 19.3919 16.7286L17.5991 18.2608C17.5829 18.2596 17.5671 18.2575 17.5516 18.2554L17.5515 18.2554H17.5515C17.5296 18.2525 17.5084 18.2496 17.4871 18.2496H14.5739L14.6608 18.0423C14.9297 17.4008 15.2714 16.8042 15.6804 16.2692C16.1314 15.6838 16.3835 15.5325 16.3835 15.5325C17.4719 14.9701 18.007 14.0163 18.265 13.5564L18.2658 13.5549L18.3442 13.4205C18.3891 13.3448 18.5067 13.4121 18.5067 13.4121C18.5627 13.4485 18.5991 13.5913 18.5655 13.6474V13.6502L18.5627 13.653L17.0249 16.258C16.854 16.5465 16.9493 16.9191 17.235 17.0927C17.333 17.1515 17.4367 17.1796 17.5431 17.1796C17.7504 17.1796 17.9493 17.0731 18.0613 16.8798L19.5991 14.2776V14.2748L19.6019 14.272C19.7252 14.0647 19.7756 13.8322 19.7784 13.5969C19.7822 13.5842 19.7878 13.5737 19.7933 13.5635C19.7998 13.5513 19.8062 13.5393 19.8092 13.5241L20.3274 10.9975C20.3442 10.9163 20.4087 10.8658 20.5207 10.863C20.5561 10.863 20.5813 10.8671 20.5977 10.8697C20.6085 10.8715 20.6154 10.8726 20.6187 10.8714C20.6271 10.8939 20.6356 10.9387 20.6384 11.0283C20.6641 12.0147 20.4555 14.881 20.4216 15.3454ZM6.51512 18.2524H9.42829L9.34145 18.0451C9.07535 17.4036 8.73081 16.807 8.32185 16.272C7.89532 15.7183 7.64669 15.553 7.61861 15.5343L7.61596 15.5325C6.53193 14.9695 5.99412 14.0143 5.73922 13.5549L5.66078 13.4177C5.61597 13.342 5.49832 13.4093 5.49552 13.4121C5.4395 13.4457 5.40308 13.5885 5.43669 13.6446V13.6474L5.4395 13.6502L6.97731 16.2552C7.14818 16.5437 7.05574 16.9163 6.76723 17.0871C6.67199 17.1459 6.56274 17.174 6.4619 17.174C6.25742 17.174 6.05574 17.0675 5.9437 16.877L4.40588 14.272V14.2692L4.40308 14.2664C4.28263 14.0591 4.22661 13.8266 4.22661 13.5913C4.22308 13.5807 4.21805 13.5711 4.213 13.5614C4.20605 13.5481 4.19905 13.5347 4.1958 13.5185L3.67759 10.9919C3.66079 10.9107 3.59356 10.8602 3.51793 10.8546C3.4339 10.8602 3.39468 10.8658 3.37787 10.8714C3.37904 10.8761 3.37779 10.8865 3.37573 10.9037C3.37283 10.928 3.36831 10.9658 3.36667 11.0199C3.33866 12.0927 3.58796 15.3896 3.59076 15.4233C3.60757 15.5577 3.67479 15.737 3.78964 15.9303C3.89888 16.1151 4.01653 16.2552 4.13698 16.3448C4.29664 16.4653 4.45911 16.5885 4.61317 16.7202L6.40588 18.2524C6.42985 18.2579 6.45261 18.2562 6.47656 18.2543C6.48898 18.2534 6.50173 18.2524 6.51512 18.2524ZM10.8765 18.5857L10.4507 17.5717C10.1454 16.835 9.74761 16.1459 9.27703 15.5297C8.65518 14.7174 8.25742 14.4933 8.17339 14.4541C7.40714 14.057 7.00664 13.3444 6.7907 12.9602L6.78963 12.9583L6.68879 12.7818C6.36667 12.258 5.73922 12.0507 5.16499 12.244L4.85966 10.751C4.72241 10.0899 4.14818 9.65296 3.41709 9.64736C2.64118 9.68937 2.1818 10.1824 2.16219 10.9947C2.13596 12.0596 2.35041 14.981 2.38701 15.4797L2.39188 15.5465C2.4283 15.8742 2.54874 16.216 2.75323 16.5633C2.9437 16.8826 3.16499 17.1375 3.41149 17.3252C3.44541 17.3517 3.47949 17.378 3.51362 17.4043L3.51365 17.4043L3.51366 17.4043C3.62044 17.4867 3.72766 17.5694 3.83166 17.6586L5.31064 18.9247C5.17059 19.1459 5.08656 19.4092 5.08656 19.6922V20.4036C5.08656 21.1992 5.72801 21.8462 6.51512 21.8462H9.9717C10.7588 21.8462 11.4003 21.1992 11.4003 20.4036V19.6922C11.4003 19.2468 11.193 18.849 10.8765 18.5857Z" fill="#313235"/>
</svg>
