<svg width="24" height="24" viewBox="0 0 24 24" fill="none" xmlns="http://www.w3.org/2000/svg">
<path fill-rule="evenodd" clip-rule="evenodd" d="M21.6863 14.3123C21.6863 11.8837 21.0196 10.007 19.7059 8.74088C18.8319 7.89774 17.6863 7.34872 16.2913 7.08541C15.9608 6.12743 15.4622 5.31791 14.7899 4.66805C13.5266 3.45236 11.7059 2.83331 9.37255 2.83331C7.04202 2.83331 5.22409 3.45236 3.96639 4.67085C2.66106 5.93695 2 7.8109 2 10.2423C2 12.668 2.66387 14.5392 3.96919 15.7997C4.84034 16.6428 5.9916 17.1891 7.38936 17.4496C7.71709 18.4131 8.21569 19.2255 8.88796 19.8725C10.1429 21.0854 11.9608 21.6989 14.2913 21.6989C16.6247 21.6989 18.4454 21.0854 19.7059 19.8725C21.0196 18.612 21.6863 16.7409 21.6863 14.3123ZM4.78431 5.0546C5.79552 4.19746 7.20168 3.73247 8.96919 3.67085V5.46917C7.80672 5.53079 6.86275 5.85012 6.14846 6.42155L4.78431 5.0546ZM4.19888 5.64004C3.35294 6.65684 2.89916 8.06581 2.83754 9.83331H4.63305C4.69188 8.67085 5.0084 7.72687 5.57143 7.00978L4.19888 5.64004ZM7.40336 8.13864C7.63585 7.93695 7.95238 7.81651 8.29132 7.7997C8.61625 7.78009 8.97479 7.86693 9.28852 8.0434C9.3091 8.05369 9.32864 8.06503 9.34776 8.07614L9.34777 8.07615C9.35988 8.08317 9.37182 8.09011 9.38375 8.09662C9.40056 8.08822 9.41667 8.07911 9.43277 8.07001C9.44888 8.06091 9.46498 8.0518 9.48179 8.0434C9.69188 7.92575 9.91877 7.86693 10.1457 7.83331L10.2003 7.82484C10.2947 7.80998 10.3898 7.79501 10.479 7.7997C10.8151 7.81651 11.1317 7.93976 11.3669 8.14144C11.375 8.14791 11.3803 8.15532 11.3855 8.16258C11.3893 8.16789 11.393 8.17312 11.3978 8.17785C11.7731 8.52519 11.9104 9.06861 11.7675 9.68205C11.7431 9.78786 11.7024 9.89515 11.6616 10.0028L11.6616 10.0028L11.6616 10.0029L11.6616 10.0029L11.6616 10.0029L11.6616 10.0029L11.6616 10.0029L11.6616 10.0029L11.6616 10.0029L11.6616 10.0029L11.6616 10.0029L11.6616 10.0029L11.6616 10.0029L11.6615 10.0029L11.6615 10.003L11.6615 10.003C11.6462 10.0435 11.6308 10.0841 11.6162 10.1246C11.5378 10.3347 11.4454 10.5448 11.3305 10.7605C11.3085 10.8021 11.2874 10.8435 11.2664 10.8848C11.2152 10.9852 11.1644 11.085 11.1008 11.1863C11.028 11.2983 10.9608 11.3963 10.8908 11.4916C10.7171 11.7325 10.5434 11.9398 10.2997 12.1891L10.29 12.1988L10.29 12.1988C10.2375 12.2515 10.1101 12.3793 10 12.458C9.92437 12.5112 9.84034 12.5532 9.7535 12.5896C9.69748 12.612 9.63866 12.6344 9.57983 12.6456C9.54342 12.6568 9.4902 12.6624 9.43417 12.668L9.38375 12.6708H9.38095C9.26891 12.6652 9.21569 12.6568 9.16527 12.6456C9.03361 12.6148 8.88796 12.5504 8.7619 12.4608C8.64426 12.3767 8.507 12.2395 8.46779 12.1975C8.31653 12.0406 8.19048 11.9005 8.07563 11.7577C7.93277 11.584 7.80672 11.4047 7.66667 11.1919C7.62584 11.1289 7.59431 11.067 7.56267 11.0049C7.54221 10.9647 7.5217 10.9244 7.4986 10.8837C7.27451 10.4804 7.09244 10.0798 7.0028 9.68765C6.85154 9.049 7 8.48597 7.40336 8.13864ZM8.37535 8.62323H8.33053C8.17927 8.63163 8.03641 8.68205 7.94118 8.76609C7.71989 8.95656 7.7619 9.3011 7.80672 9.48878C7.84034 9.63163 7.89916 9.78009 7.95798 9.92855C8.06162 10.1919 8.18767 10.4608 8.36134 10.7325C8.37563 10.7549 8.38842 10.7729 8.4019 10.7918L8.41737 10.8137C8.61625 11.1162 8.78431 11.3263 9.06723 11.6148C9.09244 11.6428 9.17647 11.7269 9.2465 11.7773C9.28291 11.8025 9.31933 11.8221 9.35574 11.8277L9.38655 11.8305H9.38936C9.44538 11.8193 9.48459 11.8025 9.51821 11.7745C9.58824 11.7241 9.67227 11.64 9.69468 11.6148C9.95238 11.3459 10.1176 11.1442 10.2941 10.8865C10.3305 10.8361 10.3641 10.7857 10.4033 10.7269L10.4034 10.7269C10.5294 10.528 10.6303 10.3347 10.7227 10.1414C10.8263 9.91455 10.9076 9.69606 10.9608 9.48037C11.014 9.25068 11.0364 8.93695 10.8263 8.75768C10.7311 8.67365 10.5882 8.62323 10.4342 8.61483C10.4286 8.61483 10.423 8.61553 10.4174 8.61622L10.4174 8.61623L10.4174 8.61623C10.4118 8.61693 10.4062 8.61763 10.4006 8.61763C10.2241 8.61202 10.0504 8.65964 9.88235 8.75488C9.85368 8.77169 9.82466 8.78815 9.79517 8.80487L9.7951 8.80491L9.79503 8.80495L9.79501 8.80496C9.74099 8.8356 9.68539 8.86713 9.62745 8.90334L9.54062 8.95376L9.52941 8.96216C9.52941 8.96216 9.46499 9.00698 9.40336 9.00418C9.34174 9.00418 9.28011 8.96777 9.28011 8.96777L9.27171 8.96497L9.15686 8.90894C9.05322 8.84732 8.96919 8.7997 8.88796 8.75488C8.88582 8.75381 8.88368 8.75315 8.88185 8.75259C8.87889 8.75167 8.87675 8.75101 8.87675 8.74928C8.70868 8.67085 8.53782 8.62323 8.37535 8.62323ZM20.8459 14.7325C20.7815 16.4972 20.3193 17.9005 19.4678 18.9117L18.098 17.5392C18.6639 16.8277 18.9832 15.8893 19.0476 14.7325H20.8459ZM14.7143 20.8585C16.4706 20.7941 17.8683 20.3375 18.8796 19.4916L17.5154 18.1246C16.8039 18.6849 15.8683 18.9986 14.7143 19.0602V20.8585ZM14.0553 18.2457C14.0001 18.2409 13.945 18.2362 13.888 18.2339C12.9748 18.1807 12.2325 17.9482 11.6751 17.5336L11.6382 17.5067L11.6382 17.5066L11.6382 17.5066C11.5965 17.4763 11.5543 17.4455 11.5154 17.4131C11.535 17.4075 11.5546 17.4047 11.5742 17.4019L11.5742 17.4019C12.423 17.2227 13.1737 16.9342 13.8235 16.5336C14.1737 16.3179 14.4986 16.0742 14.7871 15.7941C15.3725 15.2339 15.8235 14.5448 16.1485 13.7437C16.4846 12.9257 16.6835 11.9874 16.7423 10.9286C16.916 11.0378 17.0812 11.1554 17.2269 11.2955C17.8347 11.8837 18.1625 12.7689 18.2269 13.9033C18.2299 13.9522 18.2345 13.9996 18.239 14.047C18.247 14.13 18.2549 14.213 18.2549 14.3039C18.2549 14.4088 18.2455 14.5043 18.2359 14.6007L18.2359 14.6008C18.2317 14.6433 18.2275 14.686 18.2241 14.7297C18.1541 15.8501 17.8319 16.7241 17.2269 17.3067C16.6471 17.8641 15.7927 18.1666 14.7143 18.2311C14.6637 18.2341 14.6141 18.2386 14.5645 18.2431C14.4768 18.2511 14.3889 18.2591 14.2941 18.2591C14.2106 18.2591 14.1329 18.2524 14.0553 18.2457L14.0553 18.2457ZM13.888 20.8585V19.0602C12.7367 18.9986 11.7983 18.6849 11.0868 18.1274L9.71709 19.4972C10.7311 20.3431 12.1289 20.7969 13.888 20.8585ZM9.12885 18.9145C8.80392 18.5252 8.53501 18.077 8.32493 17.5756C8.66387 17.6064 9.0112 17.626 9.36975 17.6232C9.7535 17.6232 10.1204 17.6008 10.4734 17.5672L9.12885 18.9145ZM7.14846 16.556C7.43137 16.6232 7.72549 16.6764 8.03361 16.7157C8.33613 16.7549 8.64986 16.7773 8.97199 16.7885V14.9902C8.54062 14.9678 8.13445 14.9061 7.7619 14.8137C7.71985 14.8029 7.67696 14.7938 7.63436 14.7847L7.63433 14.7847L7.63429 14.7847C7.56627 14.7703 7.49897 14.7559 7.43697 14.7353C7.29888 14.6908 7.17252 14.6326 7.04482 14.5739L6.96919 14.5392C6.95518 14.5308 6.94118 14.5252 6.92717 14.5196C6.65266 14.3907 6.39776 14.2367 6.17087 14.0574L4.80112 15.4272C5.43417 15.9538 6.21569 16.3347 7.14846 16.556ZM4.21008 14.8445C3.36134 13.8333 2.90196 12.43 2.83754 10.6624H4.63305C4.69468 11.8221 5.01401 12.7605 5.58263 13.472L4.21008 14.8445ZM9.10603 6.28503L9.10602 6.28504L9.10601 6.28504C9.06096 6.28883 9.01572 6.29265 8.96919 6.2955C7.88796 6.35712 7.03081 6.65964 6.45098 7.22547C5.84594 7.8137 5.52101 8.69886 5.45658 9.83331C5.45376 9.87848 5.44999 9.92237 5.44623 9.96617L5.44622 9.96619L5.44622 9.96621L5.44622 9.96623L5.44622 9.96624L5.44622 9.96626L5.44622 9.96628L5.44622 9.9663C5.43878 10.0529 5.43137 10.139 5.43137 10.2339C5.43137 10.3301 5.43931 10.4184 5.44725 10.5068C5.45179 10.5572 5.45633 10.6077 5.45938 10.6596C5.51821 11.5812 5.7535 12.3235 6.16807 12.8837C6.18808 12.9106 6.20781 12.9379 6.22757 12.9653C6.29634 13.0605 6.3655 13.1562 6.44818 13.2367C6.5051 13.2884 6.56945 13.3338 6.63404 13.3793L6.63405 13.3793L6.63406 13.3793L6.63406 13.3793L6.63407 13.3793L6.63407 13.3793L6.63408 13.3794L6.63408 13.3794L6.63413 13.3794C6.67441 13.4078 6.71478 13.4363 6.7535 13.4664C6.7702 13.4793 6.78648 13.4924 6.80274 13.5055C6.84651 13.5407 6.89012 13.5758 6.94118 13.6064C7.13445 13.7241 7.34734 13.8249 7.57983 13.9061C7.63866 13.9286 7.69468 13.9482 7.7535 13.965C8.11485 14.0742 8.52661 14.1358 8.96919 14.161C9.01568 14.1639 9.06088 14.1677 9.10589 14.1715L9.10595 14.1715L9.10603 14.1715L9.10606 14.1715C9.19387 14.1789 9.28094 14.1863 9.37535 14.1863C9.40336 14.1863 9.42927 14.1835 9.45518 14.1807C9.48109 14.1779 9.507 14.175 9.53501 14.175C9.59477 14.1732 9.65203 14.1688 9.7093 14.1645C9.73793 14.1623 9.76657 14.1601 9.79552 14.1582C9.83646 14.1553 9.87729 14.1526 9.91789 14.15C10.0717 14.1399 10.2223 14.13 10.3641 14.1078C10.3792 14.1061 10.3933 14.1025 10.4081 14.0986L10.4081 14.0986L10.4082 14.0986L10.4082 14.0986L10.4082 14.0986L10.4083 14.0986L10.4083 14.0986C10.4182 14.096 10.4286 14.0933 10.4398 14.091C11.2185 13.9566 11.8487 13.6764 12.3109 13.2339C12.916 12.654 13.2381 11.7773 13.3081 10.6568C13.31 10.6302 13.3124 10.6038 13.3149 10.5773C13.3199 10.5232 13.3249 10.4687 13.3249 10.4103C13.3261 10.3855 13.3281 10.362 13.3301 10.3386C13.3331 10.304 13.3361 10.2695 13.3361 10.2311C13.3361 10.1402 13.3282 10.0572 13.3203 9.97422C13.3157 9.92681 13.3112 9.8794 13.3081 9.83051L13.3039 9.76715C13.2997 9.70359 13.2955 9.64004 13.2913 9.58121C13.2241 8.89494 13.0588 8.3067 12.7787 7.83051C12.6443 7.60362 12.4902 7.39914 12.3081 7.22267C12.2827 7.19727 12.2528 7.17637 12.2235 7.15589C12.2011 7.14023 12.1791 7.12481 12.1597 7.10782C11.5854 6.62323 10.7899 6.35152 9.79552 6.2927C9.74008 6.29048 9.68597 6.28651 9.6316 6.28251H9.6316H9.63159H9.63159H9.63159H9.63158H9.63158H9.63157L9.63156 6.28251C9.54859 6.27642 9.46504 6.27029 9.37535 6.27029C9.28093 6.27029 9.19385 6.27763 9.10603 6.28503ZM9.79552 5.47197V3.67085C11.5602 3.73527 12.9636 4.20306 13.9804 5.063L12.6134 6.42715C11.902 5.85572 10.9552 5.53359 9.79552 5.47197ZM13.9608 15.4187L13.9496 15.4103L12.5938 14.0518C12.5655 14.0741 12.5373 14.0968 12.509 14.1196L12.509 14.1196L12.5089 14.1196L12.5089 14.1197L12.5088 14.1197C12.4058 14.2026 12.3019 14.2862 12.1877 14.3543C11.6779 14.654 11.0784 14.8501 10.3922 14.9426C10.2442 14.9621 10.0862 14.9699 9.92846 14.9776H9.92844C9.88309 14.9798 9.83776 14.9821 9.79272 14.9846V16.7829C9.81863 16.782 9.84484 16.7813 9.87095 16.7807L9.87106 16.7807C9.92397 16.7795 9.97647 16.7782 10.0252 16.7745C10.3277 16.7577 10.6162 16.7297 10.8936 16.6877C11.8095 16.5532 12.6106 16.2899 13.2829 15.8977C13.5294 15.7577 13.7479 15.5952 13.9608 15.4187ZM14.549 14.8417L13.4958 13.7857L13.1793 13.472C13.5014 13.0686 13.7451 12.5924 13.9076 12.0434C14.0308 11.626 14.1036 11.1666 14.1289 10.6652H15.9244C15.8936 11.5392 15.7675 12.3235 15.5406 13.0154C15.4426 13.3207 15.3221 13.6092 15.1849 13.8781C15.0028 14.2311 14.7927 14.5532 14.549 14.8417ZM15.3501 6.95656C15.1401 6.46637 14.8796 6.02659 14.563 5.64564L13.2577 6.95376L13.1933 7.01539C13.3697 7.23948 13.521 7.48597 13.6471 7.75208C13.7395 7.94256 13.8235 8.13864 13.888 8.35152C14 8.71006 14.07 9.10782 14.1092 9.52799C14.1176 9.62883 14.126 9.72967 14.1317 9.83611H15.9272C15.9272 9.7969 15.9244 9.76048 15.9216 9.72407C15.8908 9.03219 15.8011 8.39634 15.6443 7.81931C15.563 7.51399 15.465 7.22547 15.3501 6.95656ZM16.5322 7.97617C17.4706 8.20586 18.2577 8.59242 18.8964 9.13303L17.5322 10.4972C17.2969 10.3123 17.042 10.1498 16.7591 10.0182C16.7451 9.28429 16.6695 8.60362 16.5322 7.97617ZM20.8459 13.9061C20.7843 12.1414 20.3305 10.7325 19.4818 9.71567L18.112 11.0882C18.6751 11.8025 18.9916 12.7465 19.0504 13.9061H20.8459Z" fill="#313235"/>
</svg>
