<svg width="24" height="24" viewBox="0 0 24 24" fill="none" xmlns="http://www.w3.org/2000/svg">
<path fill-rule="evenodd" clip-rule="evenodd" d="M6.86696 9.21543C6.27697 9.33825 5.78951 9.58352 5.41038 9.94958C4.81934 10.5182 4.51962 11.3529 4.51962 12.4314V12.4678C4.51962 12.4741 4.51984 12.4834 4.52016 12.4968L4.52016 12.4968L4.52016 12.4968C4.52097 12.5315 4.52242 12.5934 4.52242 12.7003L4.51962 18.3501C4.51962 19.4258 4.81934 20.2633 5.41038 20.8319C5.97901 21.3809 6.79413 21.6583 7.82775 21.6583H15.402C16.4356 21.6583 17.2479 21.3809 17.8193 20.8319C18.4104 20.2661 18.7157 19.4314 18.7297 18.3557V12.423C18.7185 11.3473 18.4104 10.5154 17.8193 9.94678C17.2479 9.40056 16.4356 9.12325 15.402 9.12325H7.90338V6.49019C7.90338 4.60224 9.53363 3.06442 11.5336 3.06442H11.7185C13.7213 3.06442 15.3488 4.60224 15.3488 6.49019V6.52381C15.3572 6.80952 15.5981 7.03361 15.8838 7.02521C16.1695 7.0168 16.3936 6.77591 16.3852 6.49019C16.3852 4.02801 14.2927 2.02521 11.7185 2.02521H11.5336C8.9594 2.02521 6.86696 4.02801 6.86696 6.49019V9.21543ZM11.6261 18.0196C11.2199 18.0196 10.9566 18.2297 10.9566 18.6835C10.9566 18.902 11.0182 19.0644 11.1247 19.1737C11.2423 19.2913 11.4132 19.3501 11.6261 19.3501C11.839 19.3501 12.0098 19.2941 12.1275 19.1737C12.2367 19.0644 12.2955 18.902 12.2955 18.6835C12.2955 18.2297 12.0322 18.0196 11.6261 18.0196ZM5.55884 12.4622V12.409C5.56444 10.8739 6.28433 10.1597 7.82775 10.1569H15.4048C16.9482 10.1569 17.6765 10.8795 17.6961 12.4314V18.3445C17.6765 19.8964 16.9482 20.619 15.4048 20.619H7.82775C6.27873 20.619 5.55884 19.8992 5.55884 18.3501L5.56164 12.6947V12.6919C5.55884 12.5686 5.55884 12.5014 5.55884 12.4622ZM6.91178 14.9076C6.91178 15.1933 7.14427 15.4258 7.42999 15.4258C7.57004 15.4258 7.7045 15.3669 7.80254 15.2661C8.63167 14.4034 9.92018 13.9664 11.6289 13.9664C13.3319 13.9664 14.6177 14.4006 15.4496 15.2577C15.6485 15.4622 15.979 15.4678 16.1835 15.2689C16.388 15.07 16.3936 14.7395 16.1947 14.535C15.1611 13.4706 13.6261 12.93 11.6317 12.93C9.63167 12.93 8.09105 13.4734 7.05744 14.5462C6.965 14.6443 6.91178 14.7731 6.91178 14.9076ZM8.34315 17.1653C8.34315 17.451 8.57565 17.6835 8.86136 17.6835C9.00142 17.6835 9.13587 17.6246 9.23391 17.5238C9.74651 16.9916 10.556 16.7227 11.6289 16.7227C12.7017 16.7227 13.5056 16.9916 14.0182 17.521C14.2171 17.7255 14.5476 17.7311 14.7521 17.5322C14.9566 17.3333 14.9622 17.0028 14.7633 16.7983C14.0462 16.0616 12.993 15.6863 11.6289 15.6863C10.2619 15.6863 9.2059 16.0644 8.48881 16.8067C8.39637 16.902 8.34315 17.0308 8.34315 17.1653Z" fill="#313235"/>
</svg>
