<svg width="24" height="24" viewBox="0 0 24 24" fill="none" xmlns="http://www.w3.org/2000/svg">
<path fill-rule="evenodd" clip-rule="evenodd" d="M20.3271 20.2054H11.7081C11.1899 20.2054 10.8929 19.9057 10.8929 19.3847V4.58639C10.8929 4.07659 11.1899 3.78527 11.7053 3.78247C12.1773 3.77991 16.3359 3.78204 17.071 3.78242L17.1815 3.78247C17.2571 3.78247 17.3271 3.81328 17.3803 3.8637L21.7501 8.23345C21.7714 8.25473 21.7886 8.27869 21.8016 8.30462C21.8224 8.34365 21.8341 8.38809 21.8341 8.43513C21.8341 8.44854 21.8332 8.46175 21.8313 8.47467V19.4099C21.8313 19.5892 21.8173 19.7965 21.6997 19.9589C21.582 20.1214 21.3943 20.2054 21.1366 20.2054H20.3271ZM21.2711 8.71524V19.4099C21.2711 19.5668 21.2515 19.6172 21.2459 19.6312C21.2123 19.6424 21.1731 19.648 21.1366 19.6452H19.1562C18.484 19.6452 12.3663 19.6452 11.7109 19.648C11.5008 19.648 11.456 19.6004 11.456 19.3875V4.58919C11.456 4.40432 11.4896 4.3455 11.7081 4.3455H16.9041V6.25026C16.9041 7.77127 17.8481 8.71524 19.3691 8.71524H21.2711ZM20.8764 8.15502L17.4644 4.74072V6.25026C17.4644 7.46034 18.159 8.15502 19.3691 8.15502H20.8764ZM7.36633 7.92533C7.21227 7.92533 7.08622 7.79928 7.08622 7.64522C7.08622 7.56398 7.12264 7.48555 7.18426 7.43233C7.40057 7.24638 7.70299 6.98331 7.90173 6.80768H6.79771C6.07222 6.80768 5.5288 6.97855 5.17866 7.31468C4.81731 7.66202 4.63244 8.22225 4.63244 8.97575V9.80768C4.63524 9.96174 4.50919 10.0878 4.35513 10.0878C4.20107 10.0878 4.07502 9.96174 4.07502 9.80768V8.97575C4.07502 8.06538 4.31591 7.37071 4.7921 6.91132C5.24869 6.47155 5.92376 6.24746 6.79771 6.24746H7.90787C7.62006 5.98487 7.19098 5.61888 7.18426 5.6144C7.06661 5.51356 7.05261 5.33709 7.15345 5.21945C7.25429 5.1018 7.43076 5.08779 7.54841 5.18863C7.55274 5.19254 7.5724 5.20941 7.60343 5.23604L7.60362 5.2362L7.60374 5.2363C7.77338 5.3819 8.28095 5.81754 8.48678 6.02337C8.80891 6.3455 8.81171 6.71524 8.49238 7.03177C8.36914 7.15502 7.63244 7.78807 7.54841 7.8581C7.49799 7.90012 7.43356 7.92533 7.36633 7.92533ZM19.4027 11.4239H13.3271C13.1731 11.4239 13.047 11.2979 13.047 11.1438C13.047 10.9898 13.1731 10.8637 13.3271 10.8637H19.4027C19.5568 10.8637 19.6829 10.9898 19.6829 11.1438C19.6829 11.2979 19.5568 11.4239 19.4027 11.4239ZM19.4027 14.1606H13.3271C13.1731 14.1606 13.047 14.0346 13.047 13.8805C13.047 13.7264 13.1731 13.6004 13.3271 13.6004H19.4027C19.5568 13.6004 19.6829 13.7264 19.6829 13.8805C19.6829 14.0346 19.5568 14.1606 19.4027 14.1606ZM13.3271 16.9141H19.4027C19.5568 16.9141 19.6829 16.7881 19.6829 16.634C19.6829 16.4799 19.5568 16.3539 19.4027 16.3539H13.3271C13.1731 16.3539 13.047 16.4799 13.047 16.634C13.047 16.7881 13.1731 16.9141 13.3271 16.9141ZM5.48958 20.1858H2.72768C2.37474 20.1858 2.15625 19.9645 2.15625 19.6088V11.4519C2.15625 11.1018 2.37474 10.8833 2.72768 10.8833H6.01568C6.01585 10.8833 6.01602 10.8833 6.01619 10.8833C6.05387 10.8833 6.08986 10.8908 6.12275 10.9045C6.15687 10.9185 6.18812 10.939 6.21507 10.9645L8.64364 13.3931C8.69687 13.4463 8.72488 13.5164 8.72488 13.592V19.6228C8.72488 19.9617 8.50639 20.183 8.16465 20.183L5.48958 20.1858ZM8.16465 13.8721V19.6256H2.71647V11.4463H5.73608V12.1354C5.73608 12.6956 5.88454 13.1326 6.18146 13.4267C6.47838 13.7208 6.91255 13.8721 7.47278 13.8721H8.16465ZM7.76689 13.3119L6.29631 11.8413V12.1354C6.29631 12.9477 6.66045 13.3119 7.47278 13.3119H7.76689ZM3.89855 15.578H6.99378C7.14785 15.578 7.2739 15.4519 7.2739 15.2979C7.2739 15.1438 7.14785 15.0178 6.99378 15.0178H3.89855C3.74449 15.0178 3.61843 15.1438 3.61843 15.2979C3.61843 15.4519 3.74449 15.578 3.89855 15.578ZM3.89855 17.0346H6.99378C7.14785 17.0346 7.2739 16.9085 7.2739 16.7545C7.2739 16.6004 7.14785 16.4743 6.99378 16.4743H3.89855C3.74449 16.4743 3.61843 16.6004 3.61843 16.7545C3.61843 16.9085 3.74449 17.0346 3.89855 17.0346ZM6.99378 18.4912H3.89855C3.74449 18.4912 3.61843 18.3651 3.61843 18.211C3.61843 18.057 3.74449 17.9309 3.89855 17.9309H6.99378C7.14785 17.9309 7.2739 18.057 7.2739 18.211C7.2739 18.3651 7.14785 18.4912 6.99378 18.4912Z" fill="#313235"/>
</svg>
