<svg width="24" height="24" viewBox="0 0 24 24" fill="none" xmlns="http://www.w3.org/2000/svg">
<path fill-rule="evenodd" clip-rule="evenodd" d="M5.22689 21.4328C4.68067 21.4328 4.19887 20.9678 4.19887 20.4384V18.1023C2.93557 17.8446 2.0112 16.7185 2.0112 15.3292V5.6821C2.0112 4.12187 3.28851 2.85297 4.85714 2.85297H18.8403C20.409 2.85297 21.6835 4.12187 21.6835 5.6821V15.332C21.6835 16.8922 20.409 18.1611 18.8403 18.1611H8.29691L6.09523 20.979C5.7535 21.4328 5.35574 21.4328 5.22689 21.4328ZM4.85434 3.97341C3.90476 3.97341 3.13165 4.74092 3.13165 5.6821V15.332C3.13165 16.3067 3.83193 17.0406 4.7591 17.0406C5.06722 17.0406 5.31932 17.2927 5.31932 17.6009V20.1527L7.58263 17.2591C7.68907 17.1247 7.85154 17.0434 8.02521 17.0434H18.8375C19.7871 17.0434 20.5602 16.2759 20.5602 15.3348V5.6821C20.5602 4.73812 19.7871 3.97341 18.8375 3.97341H4.85434ZM17.8095 8.90899H5.87675C5.56862 8.90899 5.31652 8.65689 5.31652 8.34876C5.31652 8.04064 5.56862 7.78854 5.87675 7.78854H17.8095C18.1176 7.78854 18.3697 8.04064 18.3697 8.34876C18.3697 8.65689 18.1176 8.90899 17.8095 8.90899ZM13.986 13.2787H5.87675C5.56862 13.2787 5.31652 13.0266 5.31652 12.7185C5.31652 12.4104 5.56862 12.1583 5.87675 12.1583H13.986C14.2941 12.1583 14.5462 12.4104 14.5462 12.7185C14.5462 13.0266 14.2941 13.2787 13.986 13.2787Z" fill="#313235"/>
</svg>
