<svg width="24" height="24" viewBox="0 0 24 24" fill="none" xmlns="http://www.w3.org/2000/svg">
<path fill-rule="evenodd" clip-rule="evenodd" d="M18.8123 2.84454H4.83193C3.27452 2.84454 2.00562 4.10504 2.00562 5.65686V15.3067C2.00562 16.6904 2.92998 17.8137 4.19328 18.0658V20.4159C4.19328 20.9257 4.67507 21.3907 5.20168 21.3907C5.71988 21.3907 5.97198 21.0545 6.05602 20.9425L8.26329 18.119H18.8123C20.3697 18.119 21.6358 16.8585 21.6358 15.3067V5.65405C21.6358 4.10504 20.3697 2.84454 18.8123 2.84454ZM17.7815 8.88093H5.84874C5.54061 8.88093 5.28851 8.62883 5.28851 8.32071C5.28851 8.01259 5.54061 7.76049 5.84874 7.76049H17.7815C18.0896 7.76049 18.3417 8.01259 18.3417 8.32071C18.3417 8.62883 18.0896 8.88093 17.7815 8.88093ZM5.84874 13.2507H13.9579C14.2661 13.2507 14.5182 12.9986 14.5182 12.6904C14.5182 12.3823 14.2661 12.1302 13.9579 12.1302H5.84874C5.54061 12.1302 5.28851 12.3823 5.28851 12.6904C5.28851 12.9986 5.54061 13.2507 5.84874 13.2507Z" fill="#313235"/>
</svg>
