<svg width="24" height="24" viewBox="0 0 24 24" fill="none" xmlns="http://www.w3.org/2000/svg">
<path fill-rule="evenodd" clip-rule="evenodd" d="M15.8261 12.2776L21.63 19.9359C21.8989 20.3504 21.9157 20.8154 21.6972 21.2104C21.4787 21.6081 21.0474 21.849 20.5852 21.849H3.33311C2.91294 21.849 2.51519 21.6249 2.3135 21.2608C2.10062 20.9022 2.11182 20.4569 2.33031 20.1011L8.16784 12.2692L8.97736 11.1936V3.40367H8.22106C7.87372 3.40367 7.58801 3.12076 7.58801 2.78182C7.58801 2.44289 7.87652 2.15997 8.22106 2.15997H15.7925C16.1482 2.15997 16.4255 2.44289 16.4255 2.78182C16.4255 3.12076 16.1482 3.40367 15.7925 3.40367H15.0082V11.1936L15.8261 12.2776ZM10.1174 11.765L9.77848 12.2216C11.1426 12.4373 12.8345 12.4373 14.2183 12.23L13.8737 11.765C13.7897 11.6586 13.7477 11.5325 13.7477 11.3925V3.40367H10.2435V11.3925C10.2435 11.5241 10.2014 11.6586 10.1174 11.765ZM14.193 19.6053H14.3191C15.0418 19.5885 15.8849 19.1571 15.8849 17.9835C15.8849 16.8182 15.0446 16.3784 14.3191 16.3616H14.1846C13.4591 16.3616 12.616 16.793 12.616 17.9751C12.616 18.5717 12.8261 18.9667 13.1314 19.2244C13.4339 19.4821 13.8317 19.5969 14.193 19.6053ZM9.96335 17.0479H9.88772C9.36672 17.0395 8.8345 16.7006 8.8345 15.9555C8.8345 15.2188 9.36391 14.8798 9.88772 14.8798H9.96335C10.4928 14.8882 11.025 15.2272 11.025 15.9639C11.025 16.7006 10.4928 17.0395 9.96335 17.0479Z" fill="#313235"/>
</svg>
