<svg width="24" height="24" viewBox="0 0 24 24" fill="none" xmlns="http://www.w3.org/2000/svg">
<path fill-rule="evenodd" clip-rule="evenodd" d="M21.6961 21.2076C21.9146 20.8182 21.8978 20.3476 21.6289 19.9247L15.0099 11.1852V3.40367H15.7914C16.1359 3.40367 16.4132 3.12636 16.4132 2.78182C16.4132 2.43728 16.1331 2.15997 15.7914 2.15997H8.21718C7.87264 2.15997 7.58693 2.43168 7.58412 2.77902C7.58973 3.12356 7.86984 3.40087 8.21438 3.40087H8.98188V10.3728C8.97348 10.4149 8.97348 10.4597 8.98188 10.5045V11.1824L2.32923 20.0899C2.11074 20.4457 2.10234 20.8966 2.31242 21.258C2.52251 21.6137 2.90906 21.8462 3.33203 21.8462H20.5925C21.0575 21.8462 21.4777 21.5969 21.6961 21.2076ZM10.1219 11.7566L9.7774 12.2104C11.1247 12.4429 12.8838 12.4345 14.1892 12.1852L13.8698 11.7566C13.7886 11.653 13.7438 11.5241 13.7438 11.3925V3.40087H10.248V10.3981C10.248 10.4015 10.2465 10.4079 10.2449 10.4153L10.2449 10.4154C10.2425 10.4259 10.2396 10.4386 10.2396 10.4485C10.2396 10.4569 10.2417 10.4653 10.2438 10.4737C10.2459 10.4821 10.248 10.4905 10.248 10.4989V11.3925C10.248 11.5213 10.2032 11.6502 10.1219 11.7566ZM3.5197 20.6053H20.5925L15.0155 13.2608C14.1387 13.5017 13.0463 13.6333 11.8894 13.6333C10.8194 13.6333 9.79981 13.5157 8.95947 13.3112L3.5197 20.6053ZM15.4637 17.9779C15.4637 16.8658 14.5393 16.7734 14.3012 16.765C14.2858 16.765 14.2704 16.7643 14.255 16.7636L14.2549 16.7636C14.2395 16.7629 14.2241 16.7622 14.2088 16.7622H14.1864C13.9427 16.765 13.0407 16.8462 13.0407 17.9667C13.0407 19.0871 13.9539 19.1768 14.1976 19.1796H14.3096C14.5393 19.1796 15.4637 19.0927 15.4637 17.9779ZM14.3236 15.9387L14.2116 15.9359L14.1808 15.9387C13.192 15.9471 12.1976 16.5801 12.1976 17.9723C12.1976 19.3616 13.1948 19.9975 14.1836 20.0115H14.3236C15.3096 19.9947 16.3068 19.356 16.3068 17.9779C16.3068 16.6025 15.3096 15.9639 14.3236 15.9387ZM9.95667 16.6277C10.0855 16.6249 10.6009 16.5773 10.6009 15.9555C10.6009 15.3364 10.0855 15.286 9.95387 15.2832H9.88944C9.75499 15.2832 9.25079 15.3308 9.25079 15.9527C9.25079 16.5773 9.76059 16.6249 9.89504 16.6277H9.95667ZM11.4441 15.9583C11.4441 14.9499 10.6822 14.4737 9.97628 14.4569H9.88104C9.17236 14.4625 8.41045 14.9331 8.41045 15.9555C8.41045 16.9723 9.17236 17.4457 9.88384 17.4569H9.97067C10.6794 17.4429 11.4441 16.9695 11.4441 15.9583Z" fill="#313235"/>
</svg>
