<svg width="24" height="24" viewBox="0 0 24 24" fill="none" xmlns="http://www.w3.org/2000/svg">
<path fill-rule="evenodd" clip-rule="evenodd" d="M21.8435 14.3084C21.8435 12.7286 20.7146 12.1572 19.7454 12.1488V11.9331L19.7034 10.1992C19.7034 10.1124 19.7034 10.0283 19.6922 9.93588C19.555 7.80143 18.9499 4.16277 15.7398 3.7174C15.6768 3.70806 15.6294 3.70456 15.5732 3.70041C15.5619 3.69958 15.5503 3.69872 15.5382 3.69779L15.3477 3.68098C15.0059 3.65857 14.5914 3.65857 14.3337 3.67818H12.9471C13.0087 3.53532 13.048 3.37286 13.048 3.17958C13.048 2.84625 12.9555 2.58854 12.7734 2.41207C12.597 2.24401 12.3421 2.15997 12.0171 2.15997C11.6922 2.15997 11.4345 2.24401 11.2608 2.41207C11.076 2.58574 10.9835 2.84625 10.9835 3.17958C10.9835 3.37566 11.0255 3.53532 11.0872 3.67818H9.67541C9.50454 3.66417 9.32807 3.65577 9.146 3.65577C5.25524 3.65577 4.42331 6.38126 4.25524 9.49891H2.75384C2.42611 9.49891 2.16 9.75941 2.16 10.0843C2.16 10.4065 2.42611 10.6698 2.75384 10.6698H4.22723L4.22163 12.1516C3.26365 12.174 2.16 12.7482 2.16 14.3084C2.16 15.8883 3.29726 16.4653 4.26645 16.4793H4.43171C4.48773 16.4793 4.57177 16.4737 4.67261 16.4625C5.22443 18.5017 6.44292 20.1992 9.1432 20.1992C9.32807 20.1992 9.50174 20.1908 9.63339 20.1796H14.2945C14.3253 20.1811 14.3562 20.1828 14.3873 20.1844C14.5256 20.1917 14.6668 20.1992 14.8155 20.1992C14.9975 20.1992 15.1712 20.1908 15.3029 20.1796H15.5185C15.5914 20.1796 15.6614 20.1656 15.7258 20.1404C17.8435 19.8519 18.8267 18.1768 19.2917 16.4569C19.2949 16.4569 19.2982 16.4579 19.3009 16.4586C19.3029 16.4592 19.3045 16.4597 19.3057 16.4597C19.4177 16.4737 19.5073 16.4793 19.569 16.4793H19.7342C20.709 16.4653 21.8435 15.8883 21.8435 14.3084ZM8.07037 9.49611C8.23003 7.75941 8.83227 6.37286 9.87429 5.37566C10.048 5.20759 10.2412 5.05633 10.4401 4.91067L10.5382 4.84625L13.737 4.84345L13.8379 4.91067C14.034 5.05633 14.2272 5.20759 14.4009 5.37566C15.4429 6.37286 16.0424 7.75941 16.2048 9.49611H15.0115C14.8631 8.09555 14.3841 6.99191 13.5746 6.2188C13.1796 5.84065 12.6866 5.55773 12.1376 5.33364C11.5886 5.55493 11.0928 5.84065 10.6978 6.2188C9.8883 6.99471 9.4121 8.09555 9.26084 9.49611H8.07037ZM18.555 11.9247V11.0759C18.5466 11.0423 18.5438 11.0087 18.5438 10.9723C18.5423 10.9184 18.5395 10.8681 18.5366 10.8181C18.5339 10.7694 18.5311 10.721 18.5298 10.6698H5.4093L5.4009 12.7762C5.4065 12.8098 5.4121 12.8434 5.4121 12.8771C5.52695 17.1852 6.6446 19.0227 9.1432 19.0227C9.30006 19.0227 9.44852 19.0143 9.59138 19.0059L14.3309 19.0031C14.695 19.0255 14.9723 19.0255 15.2636 19.0059H15.3645C15.3925 19.0003 15.4205 18.9947 15.4485 18.9919C16.7118 18.8659 18.4037 18.0927 18.5438 12.8799C18.5438 12.8434 18.5466 12.8098 18.555 12.7762V11.9247ZM9.61098 14.8659C9.93872 14.8659 10.2048 14.6054 10.2048 14.2804V12.4485C10.2048 12.1264 9.93872 11.8631 9.61098 11.8631C9.28325 11.8631 9.01715 12.1236 9.01715 12.4485V14.2804C9.01715 14.6026 9.28325 14.8659 9.61098 14.8659ZM13.8687 16.4401C13.6362 16.2104 13.2608 16.2104 13.0284 16.4401C12.6894 16.7762 12.3533 16.9499 12.034 16.9555C11.7062 16.9555 11.3561 16.7874 11.0031 16.4373C10.7706 16.2076 10.3953 16.2076 10.1628 16.4373C9.93031 16.667 9.93031 17.0367 10.1628 17.2664C10.7398 17.8378 11.3645 18.1264 12.0143 18.1264H12.0508C12.6922 18.118 13.3029 17.8266 13.8687 17.2692C14.1012 17.0423 14.1012 16.6698 13.8687 16.4401ZM14.3393 11.8631C14.667 11.8631 14.9331 12.1264 14.9331 12.4485V14.2804C14.9331 14.6054 14.667 14.8659 14.3393 14.8659C14.0115 14.8659 13.7454 14.6026 13.7454 14.2804V12.4485C13.7454 12.1264 14.0115 11.8631 14.3393 11.8631ZM20.6558 14.3112C20.6558 14.9639 20.3393 15.3 19.7174 15.3084H19.5886C19.5774 15.3084 19.5578 15.3084 19.5354 15.3056C19.6138 14.8126 19.6586 14.3392 19.6866 13.9247C19.6866 13.8848 19.69 13.8455 19.6934 13.8056L19.6934 13.8056V13.8055V13.8055V13.8055V13.8055C19.697 13.7642 19.7006 13.7223 19.7006 13.6782L19.7398 13.3252C20.3477 13.3364 20.6558 13.6642 20.6558 14.3112ZM4.4093 15.3084C4.41491 15.3084 4.42331 15.3084 4.42891 15.3056C4.35608 14.849 4.30566 14.3869 4.27485 13.9331C4.27136 13.8982 4.26643 13.8638 4.26145 13.8291C4.25443 13.7802 4.24731 13.7306 4.24404 13.6782L4.21603 13.3336C3.6418 13.3589 3.34488 13.6838 3.34488 14.314C3.34488 14.9667 3.6586 15.3028 4.28325 15.3112L4.4093 15.3084Z" fill="#313235"/>
</svg>
