<svg width="24" height="24" viewBox="0 0 24 24" fill="none" xmlns="http://www.w3.org/2000/svg">
<path fill-rule="evenodd" clip-rule="evenodd" d="M21.8463 14.4401C21.8463 12.9891 20.8015 12.4625 19.9051 12.4541C19.852 12.4575 19.8188 12.4578 19.7786 12.4581C19.7531 12.4584 19.7247 12.4586 19.6866 12.4597V11.0479C19.611 8.19078 19.1152 4.36165 15.7594 3.92468C15.7034 3.91628 15.639 3.90787 15.583 3.90227L15.4009 3.89107C15.062 3.86866 14.6642 3.86866 14.3813 3.89107H12.8379C12.9835 3.7174 13.0704 3.49051 13.0704 3.19079C13.0704 2.85465 12.9751 2.59135 12.7875 2.41488C12.6054 2.24681 12.3449 2.15997 12.0143 2.15997C11.6838 2.15997 11.4233 2.24401 11.244 2.41488C11.0564 2.59135 10.9639 2.85185 10.9639 3.19079C10.9639 3.49051 11.0508 3.7174 11.1964 3.89107L9.61379 3.87706C9.53004 3.87706 9.44629 3.87504 9.36089 3.87298L9.36088 3.87298C9.27205 3.87084 9.18143 3.86866 9.08717 3.86866C5.3981 3.86866 4.45692 6.21039 4.29166 9.77622H2.56337C2.34208 9.77622 2.16 9.95269 2.16 10.1712C2.16 10.3897 2.33928 10.5661 2.56337 10.5661H4.26645L4.26084 11.0563L4.26925 12.4625L4.22585 12.4605C4.18447 12.4585 4.15122 12.4569 4.10678 12.4569H4.10398C3.20762 12.4653 2.1628 12.9891 2.1628 14.4429C2.1628 15.8967 3.21322 16.4261 4.11238 16.4401H4.27485C4.32807 16.4373 4.55496 16.4233 4.67541 16.4093C5.19642 18.4681 6.38409 20.1992 9.08717 20.1992C9.26925 20.1992 9.44292 20.1908 9.58577 20.1796H14.3533C14.5213 20.1908 14.6922 20.1992 14.8743 20.1992C15.0564 20.1992 15.23 20.1908 15.3729 20.1796H15.5942C15.6502 20.1796 15.7034 20.1684 15.751 20.146C17.8799 19.8743 18.8491 18.2692 19.3029 16.3813C19.3277 16.3864 19.3502 16.392 19.372 16.3974C19.4092 16.4065 19.4443 16.4152 19.4849 16.4205C19.5886 16.4317 19.6754 16.4373 19.7314 16.4373H19.8939C20.7959 16.4233 21.8463 15.8911 21.8463 14.4401ZM5.09838 9.77342C5.28325 6.01151 6.35608 4.66137 9.08437 4.66137C9.15625 4.66137 9.18509 4.66342 9.24276 4.66752L9.24277 4.66752L9.24278 4.66752L9.27485 4.66978L9.33928 4.67258C9.92191 4.67258 10.4597 4.723 10.9611 4.81263C10.597 5.02272 10.2664 5.26922 9.96953 5.55213C8.9051 6.56053 8.30286 7.9779 8.16841 9.77342H5.09838ZM18.8827 12.9975V11.0507C18.8771 10.8827 18.8687 10.723 18.8603 10.5633H5.07317L5.06757 11.0591L5.07877 13.0031C5.19922 17.4933 6.4009 19.4065 9.08717 19.4065C9.25244 19.4065 9.4065 19.3981 9.56056 19.3869H14.3841C14.737 19.4065 15.0424 19.4093 15.3505 19.3869H15.4681C15.4933 19.3785 15.5185 19.3729 15.5466 19.3701C17.7118 19.1544 18.7706 17.1292 18.8827 12.9975ZM21.0396 14.4429C21.0396 15.4765 20.3141 15.6418 19.8827 15.6474L19.7454 15.6502C19.7366 15.6495 19.7267 15.649 19.7153 15.6484L19.7152 15.6484L19.7151 15.6484L19.715 15.6484L19.7149 15.6484C19.6796 15.6465 19.6296 15.6439 19.5494 15.6334C19.5157 15.6334 19.4933 15.6306 19.4597 15.6194C19.5998 14.7874 19.6558 14.0367 19.681 13.2496C19.7622 13.2468 19.8155 13.2468 19.8967 13.2468C20.3225 13.2496 21.0396 13.4121 21.0396 14.4429ZM13.7678 16.7342C13.6082 16.5801 13.3533 16.5801 13.1964 16.7342C12.8099 17.1124 12.4205 17.3056 12.0424 17.3112C11.6642 17.3 11.244 17.1236 10.8435 16.7314C10.6838 16.5773 10.4289 16.5773 10.272 16.7314C10.1152 16.8883 10.1152 17.1376 10.272 17.2916C10.8211 17.8322 11.4093 18.104 12.0199 18.104H12.0536C12.653 18.0955 13.23 17.821 13.7678 17.2944C13.9247 17.1376 13.9247 16.8883 13.7678 16.7342ZM12.1432 5.13476C11.5213 5.37286 10.9807 5.69779 10.5354 6.12076C9.63059 6.9779 9.11238 8.20759 8.98633 9.77342H15.3029C15.174 8.20479 14.6558 6.9779 13.7538 6.12076C13.3085 5.69779 12.7678 5.37006 12.1432 5.13476ZM13.3225 4.80983C13.8239 4.7202 14.3617 4.66978 14.9443 4.66978V4.66417H14.9947C15.0463 4.66523 15.0908 4.66509 15.1344 4.66496C15.2068 4.66474 15.2767 4.66453 15.3729 4.66978L15.4457 4.67818L15.4457 4.67818C15.4821 4.68098 15.5186 4.68378 15.5438 4.68658C17.4709 4.88266 18.5213 6.51011 18.8099 9.77062H16.1152C15.9807 7.9751 15.3757 6.55773 14.3141 5.54933C14.0143 5.26642 13.6838 5.02272 13.3225 4.80983ZM4.26084 15.6474C4.29446 15.6474 4.43171 15.639 4.50734 15.6306C4.36729 14.8294 4.30846 14.0087 4.28325 13.2412C4.21322 13.244 4.17401 13.244 4.11238 13.244C3.68661 13.2468 2.96953 13.4093 2.96953 14.4401C2.96953 15.4737 3.69502 15.639 4.12639 15.6446L4.26084 15.6474ZM9.56617 12.1628C9.78745 12.1628 9.96953 12.3392 9.96953 12.5577V14.4093C9.96953 14.6278 9.78745 14.8042 9.56617 14.8042C9.34208 14.8042 9.1628 14.6278 9.1628 14.4093V12.5577C9.1628 12.342 9.34208 12.1628 9.56617 12.1628ZM14.7931 12.5577C14.7931 12.3392 14.611 12.1628 14.3897 12.1628C14.1656 12.1628 13.9863 12.342 13.9863 12.5577V14.4093C13.9863 14.6278 14.1656 14.8042 14.3897 14.8042C14.611 14.8042 14.7931 14.6278 14.7931 14.4093V12.5577Z" fill="#313235"/>
</svg>
