<svg width="24" height="24" viewBox="0 0 24 24" fill="none" xmlns="http://www.w3.org/2000/svg">
<path fill-rule="evenodd" clip-rule="evenodd" d="M21.8463 14.3112C21.8463 12.7314 20.7174 12.16 19.7482 12.1516L19.7454 11.9359L19.7482 10.1852C19.7449 10.1457 19.7406 10.1112 19.7365 10.0782C19.7304 10.0294 19.7247 9.98381 19.723 9.93028C19.5858 7.79583 18.9499 4.16558 15.7398 3.7202C15.667 3.70899 15.6026 3.70059 15.527 3.69219L15.3477 3.68098C15.0059 3.65857 14.5942 3.65857 14.3337 3.67818H12.9471C13.0087 3.53532 13.048 3.37286 13.048 3.17958C13.048 2.84625 12.9527 2.58854 12.7706 2.41207C12.5942 2.24401 12.3393 2.15997 12.0143 2.15997C11.6894 2.15997 11.4345 2.24401 11.258 2.41207C11.076 2.58574 10.9835 2.84625 10.9835 3.17958C10.9835 3.37566 11.0255 3.53532 11.0872 3.67818H9.67541C9.50454 3.66417 9.33087 3.65577 9.146 3.65577C5.25524 3.65577 4.42331 6.38126 4.25524 9.49891H2.75384C2.42611 9.49891 2.16 9.75941 2.16 10.0843C2.16 10.4065 2.42611 10.6698 2.75384 10.6698H4.22723L4.22163 12.1516C3.26365 12.174 2.16 12.7482 2.16 14.3084C2.16 15.8883 3.29446 16.4653 4.26645 16.4793H4.43171C4.49054 16.4793 4.57457 16.4737 4.67541 16.4625C5.22723 18.5017 6.44572 20.1992 9.146 20.1992C9.33087 20.1992 9.50454 20.1908 9.63619 20.1796H14.2973L14.3901 20.1844L14.3902 20.1844C14.5285 20.1917 14.6696 20.1992 14.8183 20.1992C15.0003 20.1992 15.174 20.1908 15.3057 20.1796H15.5213C15.5942 20.1796 15.6642 20.1656 15.7286 20.1404C17.8463 19.8519 18.8295 18.1768 19.2945 16.4569L19.2985 16.4591C19.3018 16.461 19.3044 16.4625 19.3085 16.4625C19.4177 16.4765 19.5073 16.4821 19.5718 16.4821H19.737C20.7118 16.4681 21.8463 15.8911 21.8463 14.3112ZM5.44572 9.50171C5.6418 6.02552 6.62499 4.82944 9.146 4.82944L9.3953 4.83784C9.76505 4.83784 10.1068 4.87706 10.4429 4.91628C10.244 5.06193 10.0536 5.21319 9.87709 5.38126C8.83507 6.37846 8.23563 7.76502 8.07317 9.50171H5.44572ZM18.5578 11.9275V11.0787C18.5522 11.0451 18.5466 11.0115 18.5466 10.9751C18.5451 10.9212 18.5423 10.8709 18.5394 10.8209C18.5367 10.7722 18.5339 10.7237 18.5326 10.6726H5.4121L5.4037 12.779C5.4121 12.8126 5.41491 12.8462 5.41491 12.8799C5.52975 17.188 6.6474 19.0283 9.146 19.0283C9.30286 19.0283 9.45132 19.0199 9.59418 19.0115L14.3337 19.0087C14.6978 19.0311 14.9751 19.0311 15.2664 19.0115H15.3673C15.3953 19.0059 15.4233 19.0003 15.4513 18.9975C16.7146 18.8715 18.4093 18.0983 18.5466 12.8827C18.5466 12.8462 18.5494 12.8126 18.5578 12.779V11.9275ZM20.6586 14.314C20.6586 14.9667 20.3421 15.3028 19.7202 15.3112L19.5886 15.3084C19.5824 15.3084 19.5757 15.3079 19.5682 15.3073L19.5681 15.3073C19.5586 15.3065 19.5479 15.3056 19.5354 15.3056C19.6166 14.8126 19.6614 14.3392 19.6866 13.9247C19.688 13.8799 19.6915 13.8399 19.695 13.8C19.6985 13.7601 19.702 13.7202 19.7034 13.6754L19.7426 13.328C20.3505 13.3392 20.6586 13.667 20.6586 14.314ZM13.8687 16.4429C13.639 16.2132 13.2636 16.2132 13.0312 16.4429C12.6922 16.779 12.3561 16.9527 12.0312 16.9583C11.7034 16.9583 11.3533 16.7902 11.0003 16.4401C10.7706 16.2104 10.3953 16.2104 10.1628 16.4401C9.93031 16.6698 9.93031 17.0395 10.1628 17.2692C10.7398 17.8406 11.3645 18.1292 12.0143 18.1292H12.0508C12.6922 18.1208 13.3029 17.8294 13.8687 17.272C14.1012 17.0451 14.1012 16.6726 13.8687 16.4429ZM12.1404 5.33644C11.5914 5.56053 11.0984 5.84345 10.7006 6.2216C9.8911 6.99751 9.41491 8.09835 9.26365 9.49891H15.0143C14.8631 8.09835 14.3869 6.99471 13.5774 6.2216C13.1824 5.84345 12.6894 5.56053 12.1404 5.33644ZM13.9484 4.90324C14.2428 4.86829 14.523 4.83504 14.8519 4.83504H14.8827C15.0143 4.83504 15.146 4.83784 15.3029 4.84905L15.4485 4.86305C16.5802 4.9779 18.0536 5.61936 18.4485 9.50171H16.2048C16.0452 7.76502 15.4429 6.37846 14.4009 5.38126C14.2272 5.21319 14.0368 5.06193 13.8379 4.91628L13.9484 4.90324ZM4.4121 15.3112C4.41491 15.3112 4.41841 15.3105 4.42191 15.3098L4.42193 15.3098C4.42542 15.3091 4.42892 15.3084 4.43171 15.3084C4.36168 14.849 4.31126 14.3897 4.28045 13.9359C4.28045 13.8879 4.27619 13.8492 4.27195 13.8107C4.26778 13.7729 4.26365 13.7353 4.26365 13.6894L4.22163 13.3336C3.6474 13.3589 3.34768 13.6838 3.34768 14.314C3.34768 14.9667 3.6614 15.3028 4.28605 15.3112H4.4121ZM10.2076 14.2832C10.2076 14.6082 9.94152 14.8687 9.61379 14.8687C9.28605 14.8687 9.01995 14.6054 9.01995 14.2832V12.4513C9.01995 12.1264 9.28605 11.8659 9.61379 11.8659C9.94152 11.8659 10.2076 12.1292 10.2076 12.4513V14.2832ZM14.9359 12.4513C14.9359 12.1292 14.6698 11.8659 14.3421 11.8659C14.0143 11.8659 13.7482 12.1292 13.7482 12.4513V14.2832C13.7482 14.6054 14.0143 14.8687 14.3421 14.8687C14.6698 14.8687 14.9359 14.6082 14.9359 14.2832V12.4513Z" fill="#313235"/>
</svg>
