<svg width="24" height="24" viewBox="0 0 24 24" fill="none" xmlns="http://www.w3.org/2000/svg">
<path fill-rule="evenodd" clip-rule="evenodd" d="M16.8179 21.6751H7.54062C7.05882 21.6751 6.38095 21.5686 5.89356 21.0532C5.53221 20.6695 5.34174 20.1261 5.34174 19.4762V6.10364C5.34174 5.94678 5.40616 5.79832 5.52101 5.69188L9.34174 2.14846C9.44538 2.05322 9.58263 2 9.72269 2H16.8179C17.2997 2 17.9776 2.10644 18.465 2.62185C18.8263 3.0056 19.0168 3.54902 19.0168 4.19888V19.4762C19.0168 20.1261 18.8263 20.6695 18.465 21.0532C18.1961 21.3361 17.6919 21.6751 16.8179 21.6751ZM6.46218 6.34734V19.4762C6.46218 20.2213 6.79552 20.5546 7.54062 20.5546H16.8179C17.563 20.5546 17.8964 20.2213 17.8964 19.4762V4.19888C17.8964 3.45378 17.563 3.12045 16.8179 3.12045H9.94398L6.46218 6.34734ZM10.8067 19.2269H8.08123C7.77311 19.2269 7.52101 18.9748 7.52101 18.6667V15.9356V12.7871V10.056C7.52101 9.7479 7.77311 9.4958 8.08123 9.4958H10.8067H13.5378H16.2745C16.5826 9.4958 16.8347 9.7479 16.8347 10.056V12.7871V15.9356V18.6667C16.8347 18.9748 16.5854 19.2269 16.2745 19.2269H13.5378H10.8067ZM10.8067 15.3753H8.64146V13.3473H10.8067H13.5378H15.7143V15.3753H13.5378H10.8067ZM10.2465 16.4958H8.64146V18.1064H10.2465V16.4958ZM11.3669 18.1064V16.4958H12.9776V18.1064H11.3669ZM14.098 18.1064V16.4958H15.7143V18.1064H14.098ZM10.2465 12.2269H8.64146V10.6162H10.2465V12.2269ZM12.9776 12.2269H11.3669V10.6162H12.9776V12.2269ZM15.7143 12.2269H14.098V10.6162H15.7143V12.2269Z" fill="#313235"/>
</svg>
