<svg width="24" height="24" viewBox="0 0 24 24" fill="none" xmlns="http://www.w3.org/2000/svg">
<path fill-rule="evenodd" clip-rule="evenodd" d="M17.7724 3.59134C18.6268 3.59134 19.3747 4.20199 19.3747 4.89666V20.5409C19.3747 21.2496 18.6408 21.8462 17.7724 21.8462H6.21222C5.34388 21.8462 4.60999 21.2468 4.60999 20.5409V4.89386C4.60999 4.19919 5.36068 3.58854 6.21222 3.58854H9.1674C9.63799 2.67538 10.61 2.15997 11.9937 2.15997C13.68 2.15997 14.4615 2.86866 14.8229 3.59134H17.7724ZM13.8593 4.33924C13.7808 4.08994 13.5427 3.33644 11.9937 3.33644C10.3215 3.33644 10.0694 4.17398 10.0357 4.90507L10.0301 5.25241L10.0302 5.25448C10.0414 5.52052 10.0576 5.90507 11.9937 5.90507C13.9319 5.90507 13.9461 5.5225 13.9545 5.29547L13.9545 5.29442V4.97229C13.9517 4.75661 13.9181 4.54372 13.8593 4.33924ZM10.7444 4.7426C10.7444 5.04512 10.9909 5.29162 11.2963 5.29162H12.6884C12.9937 5.29162 13.243 5.04512 13.243 4.7426C13.243 4.44008 12.9937 4.19358 12.6884 4.19358H11.2963C10.9909 4.19358 10.7444 4.44008 10.7444 4.7426Z" fill="#313235"/>
</svg>
