<svg width="24" height="24" viewBox="0 0 24 24" fill="none" xmlns="http://www.w3.org/2000/svg">
<path d="M16.063 5.54218C15.6148 5.53658 15.2507 5.89512 15.2451 6.3405L15.2339 17.4301C15.2339 19.3433 14.3207 20.2341 12.3655 20.2341C10.4075 20.2341 9.49437 19.3433 9.49437 17.4301V5.43854C9.49437 4.25367 10.0098 3.74946 11.2227 3.74946C12.4356 3.74946 12.951 4.25367 12.951 5.44134L12.9762 16.7971C12.9762 17.1696 12.8977 17.2453 12.5168 17.2453C12.1358 17.2453 12.0602 17.1696 12.0602 16.7971V6.39372C12.0546 5.94834 11.6905 5.5898 11.2423 5.5926C10.7969 5.587 10.4299 5.94554 10.4243 6.39092V16.7943C10.4243 18.0576 11.2255 18.8419 12.5196 18.8419C13.8109 18.8419 14.6148 18.0576 14.6148 16.7943L14.5896 5.43854C14.5868 3.37972 13.3291 2.15002 11.2227 2.15002C9.11622 2.15002 7.85852 3.37972 7.85852 5.43854V17.4301C7.85852 20.2285 9.49998 21.8363 12.3655 21.8363C15.2283 21.8363 16.8697 20.2313 16.8697 17.4329L16.8809 6.3433C16.8753 5.89512 16.5112 5.53938 16.063 5.54218Z" fill="#313235"/>
</svg>
