<svg width="24" height="24" viewBox="0 0 24 24" fill="none" xmlns="http://www.w3.org/2000/svg">
<path fill-rule="evenodd" clip-rule="evenodd" d="M6.20322 19.0556H16.6234C19.4973 19.0556 21.8419 16.7222 21.8419 13.8455C21.8419 10.9687 19.5029 8.6298 16.6262 8.6298H16.5674C15.5281 6.48414 13.3545 5.1228 10.9735 5.12C9.31526 5.12 7.80826 5.75585 6.73543 6.91271C5.72983 7.99394 5.1556 9.47574 5.10237 11.1032C4.31806 11.3413 3.59257 11.8343 3.05756 12.4981C2.46372 13.232 2.14999 14.0976 2.14999 15.0023C2.14999 17.2348 3.96792 19.0556 6.20322 19.0556ZM9.04355 6.6214C9.63459 6.36649 10.2844 6.23764 10.9707 6.23764C12.9791 6.24044 14.7971 7.41691 15.6178 9.24605L15.6206 9.25445C15.8055 9.72224 16.1808 9.76145 16.3321 9.75585C16.3531 9.75445 16.3734 9.75375 16.3937 9.75305C16.414 9.75235 16.4343 9.75165 16.4553 9.75025C16.5141 9.74745 16.573 9.74465 16.6234 9.74465C18.8811 9.74465 20.7186 11.5822 20.7186 13.8399C20.7186 16.0976 18.8811 17.9351 16.6234 17.9351H6.20322C4.58417 17.9323 3.27324 16.6214 3.27044 15.0023C3.27044 14.1872 3.62899 13.571 3.9259 13.2012C4.33487 12.697 4.88669 12.3273 5.47773 12.1592C6.08837 11.9883 6.21722 11.6242 6.21722 11.3469C6.21722 9.90711 6.69061 8.60459 7.55336 7.67462C7.97072 7.22364 8.47773 6.86509 9.04355 6.6214Z" fill="#313235"/>
</svg>
