<svg width="24" height="24" viewBox="0 0 24 24" fill="none" xmlns="http://www.w3.org/2000/svg">
<path fill-rule="evenodd" clip-rule="evenodd" d="M20.0519 15.2761V17.1248C21.3292 17.3797 21.8194 18.4329 21.8362 19.3545V19.5366C21.8194 20.5954 21.1808 21.8363 19.4189 21.8363C17.657 21.8363 17.0267 20.6038 17.0183 19.5506C17.0126 19.5065 17.0147 19.4573 17.0166 19.4126C17.0175 19.3919 17.0183 19.3722 17.0183 19.3545C17.0351 18.4413 17.5337 17.3797 18.8054 17.1248V15.8923H5.1808V17.1164C6.46091 17.3797 6.95951 18.4329 6.97632 19.3545V19.5366C6.95951 20.5954 6.31245 21.8363 4.55895 21.8363C2.79705 21.8363 2.1668 20.6038 2.14999 19.5506V19.3545C2.1752 18.4413 2.6654 17.3881 3.93431 17.1248L3.9259 15.2845C3.9287 15.1164 3.99593 14.9567 4.11078 14.8391C4.22842 14.7214 4.38528 14.657 4.55055 14.657H11.3517C11.349 14.6437 11.3455 14.6307 11.342 14.6176C11.3343 14.5891 11.3265 14.5598 11.3265 14.5254V13.6038L7.75503 13.6206C6.08556 13.6206 4.14159 12.6934 4.14159 10.0604C4.14159 8.06038 5.22282 7.20044 6.10237 6.82789C6.27884 3.38252 9.03514 2.15002 11.4105 2.15002C12.0772 2.15002 15.332 2.30689 16.3937 5.12761C18.2816 5.33209 20.15 6.51696 20.15 9.32929C20.15 12.4721 17.8054 13.5814 15.8054 13.5814L12.5729 13.5982V14.5282C12.5729 14.5685 12.5629 14.6048 12.553 14.6406C12.5512 14.647 12.5494 14.6534 12.5477 14.6598H19.4273C19.769 14.6598 20.0491 14.9343 20.0519 15.2761ZM5.72982 19.3769V19.5169C5.71301 20.2312 5.32086 20.601 4.55895 20.601C3.79425 20.601 3.40489 20.2396 3.39649 19.5338V19.3853C3.4133 18.8923 3.62058 18.2929 4.56736 18.2929C5.50573 18.2929 5.72142 18.8839 5.72982 19.3769ZM20.5897 19.5169C20.5813 20.2312 20.1836 20.601 19.4189 20.601C18.6542 20.601 18.2648 20.2396 18.2648 19.5338V19.3853C18.2732 18.9007 18.4805 18.3153 19.3881 18.3013H19.4693C20.3769 18.3181 20.5841 18.8923 20.5925 19.3769C20.5897 19.3769 20.5897 19.5169 20.5897 19.5169Z" fill="#313235"/>
</svg>
