<svg width="24" height="24" viewBox="0 0 24 24" fill="none" xmlns="http://www.w3.org/2000/svg">
<path fill-rule="evenodd" clip-rule="evenodd" d="M5.60258 17.9988L18.4065 18.0072C19.5241 18.0072 20.3925 17.6963 20.9863 17.0801C21.5578 16.489 21.8463 15.6431 21.8463 14.5675V8.29016C21.8463 6.09128 20.625 4.8784 18.4065 4.8784L5.59978 4.87C3.38129 4.87 2.16 6.08008 2.16 8.28176V14.5591C2.16 15.6347 2.44852 16.4806 3.02275 17.0717C3.61379 17.6879 4.48213 17.9988 5.60258 17.9988ZM2.72023 20.2117L21.2861 20.2201C21.5942 20.2201 21.8463 19.968 21.8463 19.6599C21.8463 19.3518 21.5942 19.0997 21.2861 19.0997L2.72023 19.0913C2.4121 19.0913 2.16 19.3434 2.16 19.6515C2.16 19.9596 2.4121 20.2117 2.72023 20.2117Z" fill="#313235"/>
</svg>
