<svg width="24" height="24" viewBox="0 0 24 24" fill="none" xmlns="http://www.w3.org/2000/svg">
<path fill-rule="evenodd" clip-rule="evenodd" d="M13.9624 5.70001H14.9989C15.3071 5.70001 15.5592 5.95064 15.5564 6.25696V6.99491C15.7525 7.03668 15.943 7.09794 16.1279 7.17313L16.6125 6.69137C16.8311 6.47416 17.1868 6.47416 17.4053 6.69137L18.1421 7.42097C18.3606 7.63818 18.3606 7.99184 18.1421 8.20905L17.6575 8.6908C17.7331 8.87459 17.7919 9.06396 17.8368 9.25889H18.5791C18.8873 9.25889 19.1394 9.50951 19.1394 9.81583V10.8462C19.1394 11.1525 18.8873 11.4031 18.5791 11.4031H17.8368C17.7947 11.5981 17.7331 11.7874 17.6575 11.9712L18.1421 12.453C18.2425 12.5527 18.2968 12.6813 18.3049 12.8122H19.9715C21.0024 12.8122 21.84 13.6448 21.84 14.6696V16.6774C21.84 17.7022 21.0024 18.5348 19.9715 18.5348H4.02855C2.99763 18.5348 2.16 17.7022 2.16 16.6774V14.6696C2.16 13.6448 2.99763 12.8122 4.02855 12.8122H10.659C10.6666 12.6803 10.7209 12.5507 10.822 12.4502L11.3067 11.9684C11.231 11.7846 11.1722 11.5953 11.1274 11.4003H10.385C10.0768 11.4003 9.8247 11.1497 9.8247 10.8434V9.81305C9.8247 9.50673 10.0768 9.2561 10.385 9.2561H11.1274C11.1694 9.06117 11.231 8.87181 11.3067 8.68802L10.822 8.20626C10.6035 7.98905 10.6035 7.63539 10.822 7.41819L11.5532 6.69137C11.7717 6.47416 12.1275 6.47416 12.346 6.69137L12.8306 7.17313C13.0155 7.09794 13.206 7.03946 13.4021 6.99491V6.25696C13.4021 5.95064 13.6542 5.70001 13.9624 5.70001ZM17.4082 13.9679L18.0128 13.3691H19.9715C20.6942 13.3691 21.2797 13.9511 21.2797 14.6696V16.6774C21.2797 17.3958 20.6942 17.9778 19.9715 17.9778H4.02855C3.30579 17.9778 2.72029 17.3958 2.72029 16.6774V14.6696C2.72029 13.9511 3.30579 13.3691 4.02855 13.3691H10.9537L11.5532 13.9651C11.7717 14.1823 12.1275 14.1823 12.346 13.9651L12.8306 13.4861C13.0155 13.5613 13.206 13.6225 13.4021 13.6643V14.4023C13.4021 14.7086 13.6542 14.9592 13.9624 14.9592H14.9989C15.3071 14.9592 15.5592 14.7086 15.5592 14.4023V13.6643C15.7553 13.6198 15.9458 13.5613 16.1307 13.4861L16.6153 13.9679C16.8339 14.1851 17.1896 14.1851 17.4082 13.9679ZM14.9989 6.25696V7.46553C15.4808 7.51844 15.8982 7.64375 16.2428 7.84982L17.0132 7.08402L17.7471 7.81083L16.9767 8.57663C17.1812 8.9108 17.3129 9.32294 17.3633 9.81305H18.5791V10.8434H17.3633C17.3101 11.3335 17.1784 11.7456 16.9767 12.0798L17.7471 12.8456L17.0132 13.5724L16.2428 12.8066C15.8982 13.0127 15.4836 13.1408 14.9989 13.1909V14.3995H13.9624V13.1909C13.4806 13.138 13.0631 13.0127 12.7186 12.8066L11.9482 13.5724L11.217 12.8456L11.9874 12.0798C11.7829 11.7456 11.6512 11.3335 11.6008 10.8434H10.385V9.81305H11.598C11.6512 9.32294 11.7829 8.9108 11.9846 8.57663L11.217 7.81083L11.9482 7.08402L12.7186 7.84982C13.0631 7.64375 13.4778 7.51565 13.9624 7.46553V6.25696H14.9989ZM19.3691 16.5744C19.3691 16.9002 19.103 17.1647 18.7752 17.1647H16.1195C15.7917 17.1647 15.5256 16.9002 15.5256 16.5744C15.5256 16.2485 15.7917 15.984 16.1195 15.984H18.7752C19.103 15.984 19.3691 16.2485 19.3691 16.5744ZM4.82696 17.0283C5.07915 17.0283 5.28359 16.825 5.28359 16.5744C5.28359 16.3237 5.07915 16.1204 4.82696 16.1204C4.57477 16.1204 4.37033 16.3237 4.37033 16.5744C4.37033 16.825 4.57477 17.0283 4.82696 17.0283ZM6.97845 16.5744C6.97845 16.825 6.77401 17.0283 6.52182 17.0283C6.26963 17.0283 6.06519 16.825 6.06519 16.5744C6.06519 16.3237 6.26963 16.1204 6.52182 16.1204C6.77401 16.1204 6.97845 16.3237 6.97845 16.5744ZM8.16065 17.0283C8.41284 17.0283 8.61728 16.825 8.61728 16.5744C8.61728 16.3237 8.41284 16.1204 8.16065 16.1204C7.90846 16.1204 7.70402 16.3237 7.70402 16.5744C7.70402 16.825 7.90846 17.0283 8.16065 17.0283ZM14.4807 8.326C13.8615 8.326 13.3713 8.49587 13.0183 8.83282C12.6513 9.1837 12.4664 9.68773 12.4664 10.3282C12.4664 10.9687 12.6513 11.47 13.0183 11.8236C13.3713 12.1606 13.8615 12.3304 14.4807 12.3304C15.0998 12.3304 15.59 12.1606 15.9402 11.8236C16.3072 11.4727 16.4921 10.9687 16.4921 10.3282C16.4921 9.68773 16.3072 9.18648 15.9402 8.83282C15.5872 8.49866 15.097 8.326 14.4807 8.326ZM14.4807 8.88295C15.4023 8.88295 15.9346 9.33964 15.9346 10.3282C15.9346 11.3168 15.4023 11.7735 14.4807 11.7735C13.559 11.7735 13.0267 11.3168 13.0267 10.3282C13.0267 9.33964 13.559 8.88295 14.4807 8.88295Z" fill="#313235"/>
</svg>
