<svg width="24" height="24" viewBox="0 0 24 24" fill="none" xmlns="http://www.w3.org/2000/svg">
<path fill-rule="evenodd" clip-rule="evenodd" d="M19.0578 6.06723H16.5116V5.47899C16.5116 5.31653 16.45 5.15966 16.3435 5.04482L15.8701 4.53501C16.1278 4.06443 16.0886 3.45658 15.7105 3.05322L15.0634 2.35854C14.8477 2.12885 14.5564 2 14.2539 2C13.9514 2 13.66 2.12885 13.4443 2.35854L13.0662 2.76471C12.6208 3.2437 12.6208 4.02241 13.0662 4.5014L13.7133 5.19608C13.9289 5.42857 14.2203 5.55742 14.5228 5.55742C14.7133 5.55742 14.8953 5.5014 15.0606 5.40616L15.3631 5.73389V6.06723H8.62922V5.73389L8.93454 5.40616C9.09981 5.5014 9.28468 5.56022 9.47516 5.56022C9.77768 5.56022 10.069 5.43137 10.2847 5.19888L10.9317 4.5042C11.3799 4.02521 11.3799 3.2465 10.9317 2.76751L10.5536 2.36134C10.3379 2.13165 10.0466 2.0028 9.74407 2.0028C9.44155 2.0028 9.15023 2.13165 8.93454 2.36134L8.28749 3.05602C7.91214 3.45938 7.87012 4.06443 8.12782 4.53501L7.65163 5.04762C7.54519 5.16247 7.48356 5.31933 7.48356 5.48179V6.07003H4.93735C4.30429 6.07003 3.79169 6.62185 3.79169 7.29972V8.38655C3.79169 9.06723 4.30429 9.61625 4.93735 9.61625H5.3183V10.577C5.3183 11.2577 5.8309 11.8067 6.46396 11.8067H7.61802V18.381H6.48636C5.85331 18.381 5.34071 18.9328 5.34071 19.6106V20.4622C5.34071 21.1401 5.85331 21.6919 6.48636 21.6919H17.5088C18.1418 21.6919 18.6544 21.1401 18.6544 20.4622V19.6106C18.6544 18.9328 18.1418 18.381 17.5088 18.381H16.3771V11.8067H17.5312C18.1642 11.8067 18.6768 11.2577 18.6768 10.577V9.61625H19.0578C19.6908 9.61625 20.2035 9.06723 20.2035 8.38655V7.29972C20.2006 6.61905 19.688 6.06723 19.0578 6.06723ZM19.0578 8.38375H17.5788C17.5718 8.38375 17.5641 8.38235 17.5564 8.38095C17.5487 8.37955 17.541 8.37815 17.534 8.37815H6.46676C6.46008 8.37815 6.45339 8.37943 6.44641 8.38076L6.4464 8.38076C6.43875 8.38222 6.43073 8.38375 6.42194 8.38375H4.94015V7.29692H19.0578V8.38375ZM15.2791 10.5714H17.5312V9.61064H6.46396V10.5714H8.71886C8.72764 10.5714 8.73566 10.5699 8.74332 10.5684C8.75031 10.5671 8.75699 10.5658 8.76368 10.5658H15.2343C15.2409 10.5658 15.2476 10.5671 15.2546 10.5684C15.2623 10.5699 15.2703 10.5714 15.2791 10.5714ZM8.76368 18.3754H15.2343V11.8011H8.76368V18.3754ZM6.48636 20.4566H17.506V19.605H15.3043C15.3004 19.6055 15.2965 19.6061 15.2924 19.6067C15.2896 19.6071 15.2867 19.6076 15.2837 19.608L15.2837 19.6081C15.2669 19.6107 15.2492 19.6134 15.2315 19.6134H8.76087C8.74446 19.6134 8.72924 19.6111 8.71365 19.6086C8.7053 19.6073 8.69684 19.606 8.68805 19.605H6.48636V20.4566ZM9.74967 3.22969L10.1278 3.63585L9.48076 4.33053L9.10261 3.92437L9.74967 3.22969ZM14.2539 3.22969L13.8757 3.63585L14.5228 4.33053L14.9009 3.92437L14.2539 3.22969Z" fill="#313235"/>
</svg>
