<svg width="24" height="24" viewBox="0 0 24 24" fill="none" xmlns="http://www.w3.org/2000/svg">
<path fill-rule="evenodd" clip-rule="evenodd" d="M10.4832 2H17.668C19.8249 2 20.9173 3.10644 20.9145 5.2913V18.4005C20.9145 20.6162 19.8529 21.6918 17.6652 21.6918H10.4804C8.29271 21.6918 7.23109 20.6162 7.23109 18.4005V15.1652C6.78292 15.1456 6.42717 14.7759 6.42717 14.3249V13.7955C6.35154 13.7759 6.27872 13.7507 6.20589 13.7254L5.85015 14.0812C5.52242 14.4089 4.99021 14.4089 4.66248 14.0812L3.92859 13.3501C3.60086 13.0224 3.60086 12.4902 3.92859 12.1624L4.28433 11.8067C4.25912 11.7339 4.23671 11.661 4.2143 11.5854H3.69049C3.22551 11.5854 2.85016 11.21 2.85016 10.7451V9.70865C2.85016 9.24367 3.22551 8.86832 3.69049 8.86832H4.2171C4.23671 8.79269 4.26192 8.71986 4.28713 8.64703L3.93139 8.29129C3.60366 7.96356 3.60366 7.43135 3.93139 7.10362L4.66528 6.37253C4.99301 6.0448 5.52522 6.0448 5.85295 6.37253L6.20869 6.72827C6.28152 6.70306 6.35435 6.68065 6.42998 6.65824V6.13444C6.42717 5.68346 6.78292 5.31371 7.23389 5.2941V5.2913C7.23389 4.18486 7.4944 3.38095 8.02941 2.83193C8.57282 2.27171 9.37674 2 10.4832 2ZM10.6681 10.7479H11.8837V9.71425H10.6681C10.6176 9.22126 10.486 8.80669 10.2815 8.47056L11.0546 7.69745L10.3235 6.96637L9.55321 7.73667C9.20868 7.52939 8.79131 7.40334 8.30952 7.35012V6.13444H7.27311V7.35012C6.78852 7.40054 6.37395 7.52939 6.02942 7.73667L5.25911 6.96637L4.52522 7.69745L5.29273 8.46776C5.09105 8.80389 4.95939 9.21846 4.90617 9.71145H3.69049V10.7479H4.90617C4.95939 11.2409 5.08824 11.6554 5.29273 11.9916L4.52242 12.7619L5.25631 13.4929L6.02662 12.7226C6.37115 12.9299 6.78852 13.056 7.27031 13.1092V14.3249H8.30672V13.112C8.79131 13.0616 9.20587 12.9327 9.55041 12.7254L10.3207 13.4957L11.0518 12.7619L10.2815 11.9916C10.4832 11.6554 10.6148 11.2409 10.6681 10.7479ZM14.7997 18.9719C14.6316 19.1428 14.3879 19.224 14.0854 19.224C13.7829 19.224 13.5392 19.1428 13.3711 18.9719C13.2171 18.8151 13.1302 18.5798 13.1302 18.266C13.1302 17.6106 13.5056 17.3081 14.0854 17.3081C14.6652 17.3081 15.0406 17.6134 15.0406 18.266C15.0406 18.5826 14.9537 18.8151 14.7997 18.9719ZM6.33474 10.2297C6.33474 9.23526 6.86695 8.77588 7.78851 8.77588C8.71008 8.77588 9.24229 9.23526 9.24229 10.2297C9.24229 11.2241 8.71008 11.6834 7.78851 11.6834C6.86695 11.6834 6.33474 11.2241 6.33474 10.2297Z" fill="#313235"/>
</svg>
