<svg width="24" height="24" viewBox="0 0 24 24" fill="none" xmlns="http://www.w3.org/2000/svg">
<path fill-rule="evenodd" clip-rule="evenodd" d="M18.1647 12.3216C17.2403 12.3244 16.3495 12.6801 15.6801 13.316L13.8005 11.6577C14.3299 11.0274 14.6212 10.2319 14.6296 9.4112C14.6268 9.25994 14.6156 9.11148 14.5876 8.96302L17.4112 8.13389C18.0078 9.23753 19.3859 9.64649 20.4868 9.04986C21.4168 8.54565 21.8761 7.46722 21.5932 6.44762C21.2571 5.24033 20.005 4.53165 18.7977 4.86778C17.7865 5.1479 17.0974 6.08907 17.1366 7.13949C17.1338 7.21792 17.1338 7.29355 17.1366 7.37198L14.3523 8.20112C13.6633 6.36638 11.6184 5.43921 9.7837 6.12829C9.23188 6.33557 8.73888 6.67731 8.35233 7.12269L6.5204 5.48123C6.75849 5.13109 6.88734 4.71932 6.88454 4.29636C6.89014 3.11988 5.94056 2.1619 4.76409 2.1563C3.58762 2.1507 2.63524 3.10308 2.62964 4.27955C2.62404 5.45602 3.57362 6.414 4.75009 6.4196C5.17306 6.42241 5.58482 6.29916 5.93776 6.06386L7.88454 7.72213C7.20107 8.96022 7.33832 10.4896 8.23188 11.5849L6.57642 13.2403C6.09281 12.7703 5.44408 12.5088 4.7697 12.512C3.32712 12.512 2.15625 13.6801 2.15625 15.1199C2.15625 15.8146 2.43356 16.4812 2.92656 16.9714C3.94617 17.991 5.59603 17.9882 6.61563 16.9714C7.10863 16.4784 7.38314 15.8118 7.38034 15.1143C7.38034 14.6941 7.2739 14.2823 7.07222 13.9126L8.85373 12.1647C9.46998 12.6885 10.2487 12.9798 11.0582 12.9938C11.8397 12.9882 12.5988 12.7249 13.2207 12.2487L15.1422 13.907C14.7305 14.5148 14.512 15.2291 14.512 15.963C14.5148 16.498 14.6324 17.0274 14.8593 17.512L12.7893 18.4728C12.103 17.5232 10.7781 17.3104 9.82852 17.9938C9.07782 18.5345 8.76689 19.5008 9.05541 20.3776C9.41675 21.4924 10.6156 22.1003 11.7277 21.7389C12.6044 21.4532 13.1955 20.6353 13.1927 19.7137C13.1899 19.5457 13.1703 19.3804 13.1338 19.2179L15.3047 18.2235C15.991 19.1115 17.0498 19.6297 18.1703 19.6325C20.1983 19.6325 21.8397 17.9882 21.8397 15.9602C21.8397 13.9322 20.1955 12.2908 18.1703 12.288C18.1731 12.2908 18.1647 12.3216 18.1647 12.3216ZM19.4252 5.64089C20.2319 5.64089 20.8817 6.29635 20.8817 7.10028C20.8817 7.907 20.2263 8.55686 19.4224 8.55686C18.6156 8.55686 17.9658 7.9014 17.9658 7.09748C17.9658 6.29355 18.6184 5.64089 19.4252 5.64089ZM3.45877 4.29075C3.45877 5.00784 4.0414 5.59327 4.75849 5.59327C4.76129 5.59327 4.76409 5.59327 4.76689 5.59047C5.48118 5.59327 6.06101 5.01344 6.06101 4.29916V4.29355C6.06101 3.57647 5.47838 2.99103 4.76129 2.99103C4.04421 2.99103 3.45877 3.57367 3.45877 4.29075ZM11.0638 21.0415C10.3467 21.0471 9.75849 20.4672 9.75289 19.7501C9.74729 19.0331 10.3271 18.4448 11.0442 18.4392C11.7613 18.4336 12.3495 19.0134 12.3551 19.7305V19.7473C12.3551 20.4644 11.7781 21.0415 11.0638 21.0415ZM2.97698 15.1591C2.97698 16.1423 3.7753 16.9406 4.75849 16.9406C5.74449 16.9406 6.54 16.1423 6.54 15.1591C6.54 14.1759 5.74168 13.3776 4.75849 13.3776C3.7753 13.3776 2.97698 14.1759 2.97698 15.1591ZM8.30471 9.42241C8.30471 7.907 9.5316 6.68011 11.047 6.68011C12.5624 6.68011 13.7893 7.907 13.7893 9.42241C13.7893 10.9378 12.5624 12.1647 11.047 12.1647C9.5344 12.1647 8.30471 10.935 8.30471 9.42241ZM15.3243 15.9938C15.3243 17.5625 16.596 18.837 18.1647 18.837C19.7333 18.837 21.005 17.5653 21.0078 15.9966C21.0078 14.428 19.7361 13.1535 18.1675 13.1535C16.5988 13.1535 15.3243 14.4252 15.3243 15.9938Z" fill="#313235"/>
</svg>
