<svg width="24" height="24" viewBox="0 0 24 24" fill="none" xmlns="http://www.w3.org/2000/svg">
<path fill-rule="evenodd" clip-rule="evenodd" d="M15.4762 12.7843C16.1372 12.2353 16.9748 11.8908 17.8992 11.8908C20.0056 11.8936 21.7115 13.5995 21.7115 15.7059C21.7087 17.8123 20 19.5182 17.8963 19.5182C16.7479 19.5182 15.7283 18.9972 15.0308 18.1933L13.2269 19.0224C13.2437 19.1345 13.2605 19.2465 13.2605 19.3642C13.2605 20.6387 12.2269 21.6695 10.9552 21.6695C9.68066 21.6695 8.64985 20.6359 8.64705 19.3642C8.64985 18.0897 9.68066 17.0588 10.9552 17.0588C11.6274 17.0616 12.2633 17.3558 12.6975 17.8684L14.3585 17.1037C14.1849 16.6695 14.084 16.2017 14.084 15.7059C14.084 14.9888 14.2941 14.3222 14.6414 13.7507L13.0448 12.3474C11.7647 13.2325 10.0644 13.2213 8.79831 12.3166L7.32772 13.7535C7.48178 14.0981 7.57422 14.4818 7.57422 14.8852C7.57422 16.4174 6.33052 17.6611 4.79831 17.6611C3.2661 17.6583 2.0252 16.4174 2.0224 14.8852C2.0252 13.3558 3.2689 12.1149 4.79831 12.1149C5.43697 12.1149 6.05321 12.339 6.54341 12.7451L7.90195 11.4174C7.47618 10.8123 7.22128 10.0785 7.22128 9.28574C7.22408 8.74512 7.34453 8.21011 7.57982 7.71991L5.91316 6.29134C5.58262 6.47621 5.20727 6.59106 4.80111 6.59106C3.5322 6.59106 2.49579 5.55745 2.49579 4.28574C2.5182 3.04484 3.5182 2.04484 4.75909 2.02243C6.0336 1.99722 7.08683 3.01123 7.11204 4.28294C7.11204 4.6863 6.99719 5.05885 6.81512 5.38938L8.30531 6.66669C8.99999 5.96361 9.94957 5.56865 10.9412 5.56865C12.4062 5.57145 13.7339 6.4342 14.3305 7.77313L16.6723 7.08126C16.6723 7.06968 16.6708 7.05885 16.6693 7.04838C16.668 7.03858 16.6667 7.02911 16.6667 7.01963C16.7003 5.70871 17.7535 4.65549 19.0644 4.62187C20.423 4.58826 21.5518 5.66109 21.5882 7.01963C21.5882 8.37537 20.4874 9.47902 19.1288 9.47902C18.2717 9.47621 17.479 9.02804 17.0364 8.29694L14.6358 9.00563C14.6382 9.04499 14.6437 9.08384 14.6491 9.12283C14.6565 9.17541 14.6639 9.22825 14.6639 9.28294C14.6639 10.0616 14.4146 10.818 13.9552 11.4482L15.4762 12.7843ZM3.7675 4.28574C3.7703 4.85717 4.23248 5.32215 4.80391 5.32215C5.37534 5.32215 5.84313 4.85717 5.84313 4.28574C5.84313 3.71431 5.37814 3.24932 4.80671 3.24932C4.23248 3.24932 3.7675 3.71151 3.7675 4.28574ZM8.49299 9.28294C8.49579 7.93 9.59103 6.83756 10.944 6.83476C12.2969 6.83476 13.3921 7.93 13.3949 9.28294C13.3921 10.6359 12.2969 11.7311 10.944 11.7311C9.59103 11.7311 8.49299 10.6359 8.49299 9.28294ZM17.8992 18.2465C16.4958 18.2465 15.3557 17.1065 15.3557 15.7031C15.3557 14.2997 16.4986 13.1597 17.8992 13.1597C19.3025 13.1597 20.4454 14.2997 20.4454 15.7031C20.4454 17.1037 19.3025 18.2465 17.8992 18.2465ZM3.29691 14.8824C3.29691 15.7143 3.96918 16.3894 4.80111 16.3894C5.63304 16.3894 6.30811 15.7171 6.30811 14.8824C6.2829 14.0897 5.64425 13.451 4.85153 13.4258C4.0196 13.3978 3.32492 14.0504 3.29691 14.8824ZM10.9552 20.3978C10.3837 20.3978 9.91876 19.9328 9.91876 19.3614C9.91876 18.7871 10.3837 18.325 10.958 18.325C11.5294 18.325 11.9944 18.7899 11.9944 19.3614C11.9944 19.9328 11.5294 20.3978 10.9552 20.3978ZM19.1288 5.82916C19.7871 5.82916 20.3193 6.36417 20.3193 7.01963C20.3193 7.6779 19.7843 8.21011 19.1288 8.21011C18.4706 8.21011 17.9384 7.6779 17.9384 7.01963C17.9384 6.36137 18.4706 5.82916 19.1288 5.82916Z" fill="#313235"/>
</svg>
