<svg width="24" height="24" viewBox="0 0 24 24" fill="none" xmlns="http://www.w3.org/2000/svg">
<path fill-rule="evenodd" clip-rule="evenodd" d="M4.07569 7.84453C4.14572 8.09943 4.38101 8.2675 4.63311 8.2675C4.68633 8.2675 4.73955 8.2619 4.78717 8.24509L18.7592 4.2675C19.0673 4.18067 19.2466 3.85574 19.1597 3.54481C19.0757 3.23389 18.7592 3.05462 18.4454 3.14145L13.5883 4.5252C13.5876 4.5133 13.5872 4.5014 13.5869 4.48949C13.5858 4.45378 13.5848 4.41806 13.5743 4.38235C13.3054 3.44957 12.4454 2.5112 10.916 2.95098C9.38381 3.38515 9.13171 4.64005 9.38381 5.58403L9.42023 5.71288L4.47625 7.12184C4.16813 7.20868 3.98885 7.53361 4.07569 7.84453ZM11.2326 4.07703C10.5855 4.2619 10.3418 4.66526 10.5043 5.28151L10.5351 5.39635L12.5239 4.83053C12.5171 4.81694 12.5093 4.80369 12.5014 4.79031L12.5014 4.7903C12.4865 4.76506 12.4714 4.73936 12.4622 4.71008C12.2886 4.10784 11.8768 3.89215 11.2326 4.07703ZM21.7143 15.6849C21.7143 14.0798 20.5911 13.5 19.6275 13.4916H19.6191C19.6158 13.4916 19.6135 13.4926 19.6116 13.4933C19.6109 13.4936 19.6103 13.4939 19.6097 13.4941C19.6091 13.4943 19.6085 13.4944 19.6079 13.4944V12.5112C19.7199 12.4384 19.8208 12.3599 19.8992 12.2871C20.1765 12.0154 20.5099 11.528 20.5099 10.7241C20.5099 9.92296 20.1793 9.43277 19.902 9.16386C19.762 9.02661 19.5631 8.87815 19.2942 8.7661C19.1681 8.16106 18.8796 7.7633 18.6275 7.5196C18.3082 7.20868 17.734 6.83893 16.7928 6.83893C15.8544 6.83893 15.2774 7.20868 14.9608 7.5196C14.9048 7.57282 14.8516 7.63165 14.8012 7.69327C14.3166 7.74089 13.9468 7.89215 13.6695 8.06582C13.4538 8.0042 13.2017 7.96778 12.916 7.96778C12.6051 7.96778 12.3362 8.0098 12.1037 8.07983C11.8068 7.82492 11.3362 7.48039 10.5883 7.48039C9.8572 7.48039 9.38381 7.82773 9.08409 8.07983C9.06224 8.07784 9.03617 8.07445 9.00887 8.07089L9.00885 8.07089C8.95915 8.06442 8.90538 8.05742 8.8656 8.05742C8.1093 8.05742 7.72555 8.20027 7.39222 8.65686C7.38801 8.66246 7.37821 8.65826 7.36841 8.65406C7.3586 8.64985 7.3488 8.64565 7.3446 8.65126C7.03647 8.62885 6.71434 8.7745 6.52947 9.03781C5.99446 8.96498 5.61911 9.14985 5.37541 9.44957C4.72555 9.41596 4.3502 9.68487 4.12891 9.90336C3.87401 10.1527 3.56869 10.6036 3.56869 11.3347V11.7017C3.56869 12.0126 3.69194 12.3123 3.91042 12.5308C3.96364 12.584 4.02527 12.6316 4.08689 12.6737V13.4944C3.12891 13.514 2.02527 14.0938 2.02527 15.6849C2.02527 17.2871 3.15412 17.8725 4.12051 17.8865H4.29418C4.3502 17.8837 4.43983 17.8781 4.59109 17.8585C5.20454 19.7605 6.48465 20.8865 9.00566 20.8865C9.18773 20.8865 9.3614 20.8781 9.49586 20.8669L14.1625 20.8641C14.3306 20.8753 14.5015 20.8865 14.6863 20.8865C14.8712 20.8865 15.0421 20.8781 15.1765 20.8669H15.395C15.465 20.8669 15.5323 20.8529 15.5939 20.8277C17.5631 20.5756 18.5715 19.4272 19.0897 17.8613C19.2185 17.8725 19.4006 17.8837 19.4538 17.8865H19.6191C20.5855 17.8725 21.7143 17.2871 21.7143 15.6849ZM19.1037 11.4412C19.2718 11.2787 19.3558 11.0378 19.3558 10.7241C19.3558 10.4104 19.2718 10.1695 19.1037 10.0042C18.9384 9.84733 18.7059 9.7689 18.409 9.7689C18.3362 9.7689 18.269 9.7745 18.2045 9.78291C18.1933 9.78571 18.1905 9.78291 18.1849 9.7745C18.178 9.76755 18.1787 9.76443 18.1807 9.75562L18.1821 9.74929C18.1961 9.64565 18.2073 9.53921 18.2073 9.42436C18.2073 8.95938 18.0813 8.60084 17.832 8.35714C17.5911 8.12464 17.2466 8.007 16.8012 8.007C16.3586 8.007 16.0141 8.12464 15.7732 8.35994C15.6415 8.49159 15.5463 8.65686 15.4847 8.85294C15.4819 8.85854 15.4791 8.86414 15.4734 8.86694C15.4678 8.86974 15.4622 8.86974 15.4538 8.86974C15.3558 8.85574 15.2494 8.84453 15.1401 8.84453C14.6975 8.84453 14.3502 8.96218 14.1121 9.19747C14.0365 9.2703 13.9776 9.35154 13.9244 9.44397C13.9132 9.46358 13.9104 9.46638 13.888 9.46918C13.8656 9.47198 13.8628 9.46918 13.846 9.45238C13.6331 9.24229 13.3194 9.13585 12.9216 9.13585C12.5239 9.13585 12.2129 9.24229 12.0001 9.45238C11.9272 9.52521 11.8712 9.61484 11.8264 9.71008C11.8264 9.71008 11.7704 9.74369 11.734 9.73249C11.6863 9.71568 11.6695 9.65686 11.6695 9.65686C11.6359 9.39075 11.5575 9.16106 11.4006 9.007C11.2073 8.81932 10.93 8.72408 10.5743 8.72408C10.2185 8.72408 9.94404 8.81932 9.74796 9.007C9.64432 9.11064 9.56869 9.24509 9.51546 9.40196L9.51443 9.4041C9.5119 9.40947 9.50884 9.41596 9.50146 9.41596C9.4908 9.41596 9.48353 9.41146 9.4782 9.40816C9.47512 9.40626 9.4727 9.40476 9.47065 9.40476C9.31378 9.28431 9.13171 9.22829 8.87401 9.22829C8.57989 9.22829 8.3446 9.30672 8.18493 9.46358C8.1037 9.54481 8.04208 9.64845 8.00006 9.7689C7.99726 9.78011 7.99446 9.79131 7.98045 9.79971C7.96781 9.8073 7.95745 9.80576 7.94113 9.80332L7.93563 9.80252C7.87961 9.79411 7.82079 9.79131 7.75916 9.79131C7.46224 9.79131 7.22975 9.86974 7.07289 10.0266C7.03087 10.0686 7.00286 10.119 6.97485 10.1695L6.97097 10.1765C6.95957 10.1974 6.95279 10.2098 6.93003 10.2199C6.90202 10.2283 6.87961 10.2227 6.8516 10.2115C6.76757 10.1835 6.66673 10.1639 6.55748 10.1639C6.31098 10.1639 6.12051 10.2283 5.98605 10.3599C5.94404 10.402 5.90762 10.4524 5.87961 10.5084C5.8628 10.5392 5.8516 10.556 5.82079 10.57C5.79294 10.5839 5.77279 10.5806 5.74441 10.5758C5.73852 10.5748 5.73228 10.5738 5.72555 10.5728C5.65832 10.5588 5.58549 10.5532 5.50706 10.5532C5.26336 10.5532 5.07009 10.6204 4.93843 10.7493C4.80118 10.8837 4.73115 11.0826 4.73115 11.3403V11.6849H9.98325C9.99446 11.6821 10.0085 11.6793 10.0197 11.6793H11.5491C11.5603 11.6793 11.5743 11.6821 11.5855 11.6849H18.4174C18.7115 11.6737 18.9412 11.5952 19.1037 11.4412ZM19.6023 16.7157C20.2354 16.7073 20.5575 16.3599 20.5575 15.6821C20.5575 15.007 20.241 14.6625 19.6219 14.6597C19.6159 14.6597 19.6099 14.658 19.6043 14.6566C19.5995 14.6553 19.595 14.6541 19.5911 14.6541C19.5631 15.3655 19.5015 16.0602 19.3866 16.7101L19.4114 16.7119C19.4407 16.7141 19.47 16.7163 19.4875 16.7185H19.6023V16.7157ZM18.4538 12.8445C18.451 13.2339 18.451 13.6793 18.451 13.7353C18.4146 17.8922 17.5967 19.4496 15.3222 19.6849C15.2952 19.6873 15.2726 19.6919 15.2486 19.6968L15.2382 19.6989H15.1345C14.8432 19.7185 14.5687 19.7213 14.1989 19.6989H9.45664C9.31098 19.7101 9.16252 19.7185 9.00566 19.7185C6.21294 19.7185 5.26336 18.1723 5.24376 13.5924V12.8669L7.76196 12.8501H9.94404C9.97524 12.8501 9.9992 12.8477 10.0249 12.8451L10.0309 12.8445H11.5407L11.5471 12.8452C11.5726 12.8478 11.5963 12.8501 11.6247 12.8501H13.7816L15.1429 12.8473H18.409C18.4118 12.8473 18.4139 12.8466 18.416 12.8459L18.4177 12.8454C18.4187 12.8451 18.4197 12.8448 18.4209 12.8447L18.423 12.8445H18.4538ZM4.27177 16.7157C4.27544 16.7157 4.28284 16.7151 4.29118 16.7145L4.29121 16.7145H4.29123C4.30199 16.7138 4.31431 16.7129 4.32219 16.7129C4.21014 16.0854 4.14852 15.3992 4.11771 14.6625C3.50426 14.6737 3.19053 15.0154 3.19053 15.6849C3.19053 16.3599 3.50986 16.7073 4.14292 16.7185H4.27177V16.7157Z" fill="#313235"/>
</svg>
