<svg width="24" height="24" viewBox="0 0 24 24" fill="none" xmlns="http://www.w3.org/2000/svg">
<path fill-rule="evenodd" clip-rule="evenodd" d="M18.1728 3.52462C20.1588 4.24171 21.3577 5.65347 21.7386 7.7235C22.1196 9.79353 21.5005 11.5414 19.9039 12.9168C18.4473 14.1689 16.17 15.0876 13.1364 15.6479C11.9095 15.8748 10.7751 15.998 9.74145 16.026C9.6378 16.3341 9.48094 16.5834 9.27646 16.7851C9.65461 17.491 9.77786 18.2109 9.59299 18.858C9.34089 19.7515 8.56778 20.4714 7.29327 20.9952C7.21764 21.0288 7.1392 21.0428 7.06077 21.0428C6.81988 21.0428 6.59299 20.9 6.49495 20.6619C6.3661 20.3481 6.51455 19.9896 6.82828 19.8608C7.45293 19.6031 8.23444 19.1633 8.41652 18.5246C8.53696 18.0989 8.3689 17.6535 8.18402 17.3229C7.95713 17.3678 7.71624 17.3958 7.45013 17.3958C7.27926 17.3958 7.09999 17.3874 6.91231 17.3678C5.18122 17.1997 4.24004 16.4042 4.3829 14.9084C4.38448 14.8815 4.38962 14.8564 4.39481 14.8311C4.39883 14.8116 4.40287 14.7919 4.40531 14.7711C3.27366 13.9728 2.55377 12.8159 2.27926 11.3201C1.89831 9.24731 2.51455 7.49941 4.11399 6.12406C5.56778 4.86916 7.84509 3.95039 10.8787 3.39017C13.9123 2.82714 16.3661 2.87476 18.1728 3.52462ZM19.1028 11.9868C17.8143 13.096 15.7302 13.9224 12.9095 14.4434C11.8003 14.6479 10.7779 14.7627 9.84509 14.7991C9.68822 13.7179 8.79747 13.1213 7.33248 12.9784C7.14481 12.9588 6.96553 12.9504 6.79467 12.9504C5.96834 12.9504 5.33248 13.1689 4.91792 13.6115C4.16161 13.0064 3.67982 12.1885 3.47814 11.0989C3.17842 9.4658 3.64341 8.14367 4.90671 7.05683C6.19523 5.94759 8.27646 5.12126 11.0944 4.60025C13.9123 4.07924 16.1504 4.10725 17.7526 4.68428C19.3185 5.25011 20.2288 6.31734 20.5286 7.94759C20.8339 9.57784 20.3661 10.9 19.1028 11.9868ZM7.02716 16.1437C5.50615 15.9952 5.55937 15.435 5.59859 15.026L5.59885 15.0234C5.63799 14.6263 5.68226 14.1773 6.79467 14.1773C6.92912 14.1773 7.06638 14.1857 7.21203 14.1997C8.73584 14.3481 8.68262 14.9084 8.6406 15.3201L8.64038 15.3225C8.60122 15.7196 8.55721 16.1661 7.44453 16.1661C7.31567 16.1661 7.17282 16.1577 7.02716 16.1437Z" fill="#313235"/>
</svg>
