<svg width="24" height="24" viewBox="0 0 24 24" fill="none" xmlns="http://www.w3.org/2000/svg">
<path fill-rule="evenodd" clip-rule="evenodd" d="M18.1878 3.52249C20.1346 4.22277 21.3111 5.60932 21.6836 7.64294C22.1906 10.3992 21.1094 13.9987 13.087 15.4805C11.8433 15.713 10.6892 15.8362 9.6444 15.8642C9.53235 16.3236 9.31106 16.6737 8.98613 16.9174C9.38389 17.6345 9.49313 18.3516 9.28305 18.9931C9.01694 19.7998 8.28025 20.4581 7.08977 20.9483C7.03935 20.9707 6.98613 20.9791 6.93291 20.9791C6.77325 20.9791 6.61919 20.881 6.55476 20.7242C6.47073 20.5141 6.56877 20.2732 6.77885 20.1864C7.73683 19.7914 8.31666 19.3012 8.50434 18.7354C8.68081 18.1892 8.46512 17.6373 8.24103 17.2536C7.99173 17.3152 7.71162 17.3516 7.4035 17.3516C7.24103 17.3516 7.07017 17.3432 6.89089 17.3264C5.23543 17.1667 4.33627 16.4048 4.47353 14.9735C4.48025 14.8995 4.49414 14.8327 4.50804 14.766C4.51151 14.7493 4.51498 14.7326 4.51835 14.7158L4.51834 14.7158C4.48192 14.7046 4.44551 14.6934 4.4119 14.6709C3.26905 13.8894 2.54916 12.7326 2.27465 11.234C1.77045 8.47487 2.84888 4.87543 10.8657 3.39364C13.9189 2.83061 16.3811 2.86983 18.1878 3.52249ZM12.9385 14.6709C11.7732 14.8866 10.6976 15.0043 9.71722 15.0351C9.63879 13.8922 8.76764 13.2704 7.29706 13.1275C7.11778 13.1107 6.94692 13.1023 6.78445 13.1023C5.87409 13.1023 5.20742 13.3796 4.82367 13.9455C3.9021 13.29 3.31386 12.332 3.08417 11.0855C2.44552 7.61212 5.11498 5.2956 11.0169 4.20316C13.9273 3.66534 16.2466 3.69616 17.9133 4.2956C19.5884 4.90064 20.5576 6.0435 20.8797 7.79139C21.5155 11.2648 18.8433 13.5813 12.9385 14.6709ZM7.4063 16.5309C7.26624 16.5309 7.12339 16.5225 6.96933 16.5085C5.17034 16.335 5.25204 15.4713 5.29131 15.0562L5.29145 15.0547C5.34748 14.4693 5.56596 13.9258 6.78165 13.9258C6.91891 13.9258 7.06456 13.9343 7.21582 13.9483C7.86288 14.0099 8.34468 14.1779 8.61358 14.43C8.76204 14.5673 8.94972 14.8194 8.8937 15.4048C8.84047 15.9903 8.62199 16.5309 7.4063 16.5309Z" fill="#313235"/>
</svg>
