<svg width="24" height="24" viewBox="0 0 24 24" fill="none" xmlns="http://www.w3.org/2000/svg">
<path fill-rule="evenodd" clip-rule="evenodd" d="M21.5979 13.1264V9.31738C21.6007 9.28992 21.6007 9.25971 21.5952 9.2295V6.71942C21.5952 6.39262 21.4606 6.08229 21.2272 5.85435C20.9938 5.62641 20.6779 5.49734 20.3511 5.50008H3.53855C2.86022 5.49734 2.30823 6.0411 2.29999 6.71942V17.9544C2.30823 18.6299 2.85473 19.1737 3.53031 19.1737H20.3511C20.6834 19.1737 20.9992 19.0446 21.2354 18.8139C21.4689 18.5805 21.6007 18.2647 21.5979 17.9379V13.2143C21.6007 13.1841 21.6007 13.1566 21.5979 13.1264ZM3.10464 12.7365V9.72383H20.796V12.7365H3.10464ZM3.53855 6.30748C3.42321 6.30474 3.31336 6.34868 3.23097 6.42832C3.14858 6.50796 3.10189 6.61506 3.10189 6.73041V8.93016H20.7795V6.73041C20.7795 6.49698 20.5873 6.30748 20.3539 6.30748H3.53855ZM20.6669 18.2509C20.5818 18.3306 20.4692 18.3745 20.3539 18.369H3.5413C3.42595 18.3718 3.3161 18.3278 3.23371 18.2482C3.15133 18.1686 3.10464 18.0587 3.10464 17.9461V13.5329H20.796V17.9461C20.796 18.0615 20.7493 18.1713 20.6669 18.2509Z" fill="#313235"/>
</svg>
