<svg width="24" height="24" viewBox="0 0 24 24" fill="none" xmlns="http://www.w3.org/2000/svg">
<path fill-rule="evenodd" clip-rule="evenodd" d="M21.8335 18.1462C21.8335 15.6252 20.4301 14.4487 18.0071 14.4487C17.6374 14.4487 17.3013 14.4879 16.9763 14.5383L14.8643 12.5187L19.573 7.98651C20.5057 7.08735 21.0688 6.17699 21.2536 5.27783C21.4805 4.1994 21.136 3.177 20.2536 2.33386C20.0099 2.09016 19.615 2.09016 19.3629 2.33386L11.8195 9.60836L4.20044 2.32546C3.95674 2.09016 3.55338 2.09016 3.30969 2.33386C2.42733 3.177 2.0828 4.1994 2.30969 5.27783C2.49456 6.17699 3.06319 7.08735 3.99036 7.98651L8.74945 12.5691L6.8671 14.3787C6.8587 14.3871 6.8545 14.3969 6.8503 14.4067C6.84609 14.4165 6.84189 14.4263 6.83349 14.4347C6.56458 14.4039 6.27887 14.3787 5.98475 14.3787C3.56179 14.3787 2.15002 15.5635 2.15002 18.0761C2.15002 20.5887 3.56179 21.7652 5.98475 21.7652C8.39651 21.7652 9.81107 20.5887 9.81107 18.0761C9.81107 17.3871 9.70183 16.8128 9.50015 16.317C9.50015 16.3128 9.50225 16.3107 9.50435 16.3086C9.50645 16.3065 9.50855 16.3044 9.50855 16.3002C9.98754 15.3843 10.4665 14.7932 11.0212 14.4431C11.1808 14.345 11.3657 14.2638 11.5422 14.2078C12.7606 14.3675 13.7018 15.2526 14.3489 16.8576C14.248 17.2386 14.1724 17.6616 14.1724 18.1462C14.1724 20.6588 15.5842 21.8352 18.0071 21.8352C20.4301 21.8352 21.8335 20.6616 21.8335 18.1462ZM11.685 11.8352C11.685 12.1686 11.5029 12.3254 11.1892 12.3254C10.8615 12.3254 10.6794 12.1686 10.6822 11.8352C10.6822 11.5131 10.8643 11.3563 11.1892 11.3563C11.5029 11.3563 11.685 11.5131 11.685 11.8352ZM18.0071 20.6195C19.8307 20.6195 20.573 19.8969 20.573 18.1462C20.573 16.3871 19.8335 15.6644 18.0071 15.6644C16.1836 15.6644 15.4329 16.3843 15.4329 18.1462C15.4329 19.8969 16.1836 20.6195 18.0071 20.6195ZM7.72144 18.1265C7.72144 17.0229 7.1024 16.5047 6.04077 16.5047C4.97915 16.5047 4.3601 17.0201 4.3601 18.1265C4.3601 19.2302 4.97915 19.7484 6.04077 19.7484C7.1024 19.7484 7.72144 19.2302 7.72144 18.1265ZM19.755 18.1658C19.755 17.0621 19.1332 16.5439 18.0716 16.5439C17.0071 16.5439 16.3909 17.0593 16.3909 18.1658C16.3909 19.2722 17.0099 19.7876 18.0716 19.7876C19.136 19.7876 19.755 19.2694 19.755 18.1658ZM18.9147 18.1658C18.9147 18.7792 18.7102 18.9753 18.0716 18.9753C17.4357 18.9753 17.2312 18.7792 17.2312 18.1658C17.2312 17.5523 17.4357 17.3534 18.0716 17.3534C18.7102 17.3534 18.9147 17.5523 18.9147 18.1658ZM6.04077 18.9361C6.67663 18.9361 6.88111 18.74 6.88111 18.1265C6.88111 17.5131 6.67663 17.3142 6.04077 17.3142C5.40492 17.3142 5.20044 17.5103 5.20044 18.1265C5.20044 18.74 5.40492 18.9361 6.04077 18.9361ZM5.98195 20.5467C7.80548 20.5467 8.54777 19.8324 8.54777 18.0733C8.54777 16.3142 7.80828 15.5915 5.98195 15.5915C4.15562 15.5915 3.40772 16.3114 3.40772 18.0733C3.40772 19.8324 4.15842 20.5467 5.98195 20.5467Z" fill="#313235"/>
</svg>
