<svg width="24" height="24" viewBox="0 0 24 24" fill="none" xmlns="http://www.w3.org/2000/svg">
<path fill-rule="evenodd" clip-rule="evenodd" d="M19.2194 14.853C22.1169 14.853 23.811 16.2783 23.811 19.3371C23.811 22.3858 22.1169 23.811 19.2194 23.811C16.3119 23.811 14.6178 22.3858 14.6178 19.3371C14.6178 18.4228 14.7892 17.6766 15.0715 17.0446L15.0532 17.0266C15.0294 17.0033 15.0069 16.9814 14.9909 16.9572C14.0631 15.0783 13.0715 14.164 11.7102 13.9959C11.7051 13.9959 11.6976 13.9984 11.69 14.0009L11.69 14.0009C11.6825 14.0035 11.6749 14.006 11.6699 14.006C11.2228 14.0732 10.8396 14.2211 10.4665 14.4598C9.8312 14.8732 9.26649 15.5421 8.72195 16.5438C9.14548 17.2329 9.37742 18.127 9.37742 19.2463C9.37742 22.2951 7.6833 23.7203 4.78582 23.7203C1.88162 23.7236 0.1875 22.2951 0.1875 19.2463C0.1875 16.1976 1.88162 14.7623 4.78918 14.7623C5.25305 14.7623 5.67658 14.8093 6.07994 14.89L8.46313 12.5707L2.58078 6.83624C0.197584 4.52027 -0.104937 2.14716 1.75053 0.328676C1.95221 0.143803 2.26481 0.143803 2.46649 0.328676L11.7404 9.36733L21.0245 0.328676C21.2228 0.140441 21.532 0.140441 21.7304 0.328676C23.5959 2.15053 23.2967 4.52027 20.9136 6.8396L15.0715 12.5337C15.0568 12.5485 15.0474 12.5524 15.0355 12.5575L15.028 12.5607L15.0211 12.564L17.4614 14.9438C17.4917 14.9741 17.522 15.0245 17.5421 15.0615C18.09 14.9203 18.6547 14.853 19.2194 14.853ZM11.1757 12.9841C13.4783 12.9841 14.7488 14.4396 15.5959 15.9455L16.3724 15.2699L2.13372 1.39086C0.81271 3.08162 2.00263 4.87994 3.29674 6.14044L10.3724 13.0346C10.6514 13.0043 10.9236 12.9841 11.1757 12.9841ZM19.2194 22.8262C21.6598 22.8262 22.8026 21.7169 22.8026 19.3371C22.8026 16.9472 21.6631 15.8379 19.2194 15.8379C16.769 15.8379 15.6262 16.9472 15.6262 19.3371C15.6262 21.7169 16.7657 22.8262 19.2194 22.8262ZM9.71355 13.7909C9.08834 14.2413 8.54044 14.8799 8.01607 15.7472C7.76733 15.5421 7.48498 15.364 7.16229 15.2262L9.16901 13.2699L9.71355 13.7909ZM4.78918 22.7388C7.22952 22.7388 8.37237 21.6262 8.37237 19.2463C8.37237 18.2715 8.18078 17.5152 7.7875 16.9572C7.7875 16.9472 7.77742 16.9472 7.77742 16.9472C7.75711 16.9065 7.73225 16.872 7.7059 16.8353C7.693 16.8174 7.67975 16.799 7.66649 16.7791C7.08162 16.0799 6.13372 15.7472 4.78918 15.7472C2.33876 15.7472 1.1959 16.8598 1.1959 19.2463C1.1959 21.6295 2.33876 22.7388 4.78918 22.7388ZM12.4598 10.0631L21.3606 1.39086C21.8648 2.0396 22.0362 2.72868 21.8883 3.48162C21.7035 4.31859 21.1287 5.24296 20.2009 6.13708L14.3556 11.8413C14.3505 11.8463 14.3455 11.8539 14.3404 11.8614L14.3404 11.8615C14.3354 11.869 14.3304 11.8766 14.3253 11.8816L12.4598 10.0631ZM20.5808 19.3337C20.5808 20.3152 20.2245 20.6614 19.2161 20.6614C18.2077 20.6614 17.8514 20.3152 17.8514 19.3337C17.8514 18.3488 18.2077 18.0026 19.2161 18.0026C20.211 18.0026 20.5808 18.3623 20.5808 19.3337ZM19.2161 17.0178C20.7152 17.0178 21.5925 17.7572 21.5925 19.3304C21.5925 20.9068 20.7152 21.643 19.2161 21.643C17.7169 21.643 16.843 20.9068 16.843 19.3304C16.8396 17.7572 17.7169 17.0178 19.2161 17.0178ZM6.15053 19.243C6.15053 20.2245 5.79422 20.5741 4.78582 20.5741C3.77742 20.5741 3.41775 20.2278 3.42111 19.243C3.42111 18.2581 3.77742 17.9119 4.78582 17.9119C5.78078 17.9119 6.15053 18.2749 6.15053 19.243ZM4.78582 16.9304C6.28498 16.9304 7.16229 17.6665 7.16229 19.243C7.16229 20.8194 6.28498 21.5556 4.78582 21.5556C3.28666 21.5556 2.40935 20.8228 2.40935 19.2463C2.40935 17.6699 3.2833 16.9304 4.78582 16.9304ZM11.5388 11.7001C11.5388 11.3673 11.3539 11.2093 11.0379 11.2093C10.722 11.2093 10.5371 11.3673 10.5371 11.7001C10.5371 12.0362 10.722 12.1909 11.0379 12.1909C11.3505 12.1909 11.5388 12.0362 11.5388 11.7001Z" fill="#313235"/>
</svg>
