<svg width="24" height="24" viewBox="0 0 24 24" fill="none" xmlns="http://www.w3.org/2000/svg">
<path fill-rule="evenodd" clip-rule="evenodd" d="M21.0924 4.98315C21.3192 4.98595 21.5237 5.1148 21.6246 5.31648C21.7226 5.51816 21.703 5.75905 21.5685 5.94113L20.0531 7.99714C19.9383 8.1512 19.759 8.24084 19.5686 8.24084H19.5602L16.647 8.19322L15.9047 8.93551C16.8039 10.0756 17.4397 11.6918 17.4397 14.0139C17.4397 21.1287 11.5462 21.6834 10.0728 21.7086C9.93554 21.7114 9.77588 21.7142 9.61621 21.7142C9.53218 21.7142 9.44815 21.7142 9.36692 21.7114C7.8151 21.689 2 21.1287 2 13.9663C2 6.81787 7.76188 6.28566 9.31089 6.27166H9.47056C9.66663 6.27166 9.86831 6.27446 10.042 6.28006C10.9187 6.29967 13.2577 6.51815 15.0728 8.06717L15.7338 7.40611L15.6162 4.39211C15.6078 4.20444 15.689 4.02517 15.8319 3.90752L17.9187 2.16523C18.098 2.01397 18.3501 1.98316 18.5574 2.0812C18.7702 2.18204 18.9047 2.39492 18.9047 2.62741V4.27447C19.1344 4.13161 19.4369 4.15122 19.6386 4.3501C19.8066 4.51816 19.8487 4.75906 19.7786 4.96914L21.0924 4.98315ZM16.8263 4.64421L17.7002 3.91312V5.43973L16.8879 6.25205L16.8263 4.64421ZM19.2688 7.03636L17.8291 7.01395L18.6806 6.16241L19.9047 6.17642L19.2688 7.03636ZM12.9635 14.0139C12.9635 15.9159 12.4593 17.1932 10.0028 17.238L9.61061 17.2436L9.42574 17.2408C6.97477 17.2044 6.47337 15.9075 6.47337 13.9691C6.47337 12.0531 6.96076 10.7702 9.3389 10.7478C9.40053 10.7478 9.78428 10.7506 9.92994 10.7534C10.8095 10.773 11.4397 10.9467 11.8963 11.2436L9.80109 13.3361L9.76187 12.8879C9.73386 12.5573 9.45655 12.3164 9.10921 12.3417C8.77868 12.3697 8.53499 12.661 8.563 12.9915L8.71426 14.7254C8.71986 14.7842 8.73387 14.8402 8.75627 14.8935L8.76468 14.9103C8.78989 14.9691 8.8235 15.0195 8.86552 15.0671C8.87952 15.0839 8.89353 15.0979 8.91034 15.1092C8.94955 15.1456 8.99157 15.1736 9.03919 15.1988C9.04559 15.202 9.05159 15.2056 9.05749 15.2092C9.06707 15.2149 9.0764 15.2205 9.0868 15.224C9.09101 15.2254 9.09451 15.2275 9.09801 15.2296C9.10151 15.2317 9.10501 15.2338 9.10921 15.2352C9.15253 15.252 9.19792 15.2565 9.24359 15.261L9.26608 15.2632C9.27308 15.2632 9.27938 15.2653 9.28568 15.2674C9.29199 15.2695 9.29829 15.2716 9.30529 15.2716L11.2465 15.3052H11.2577C11.5854 15.3052 11.8543 15.0419 11.8599 14.7142C11.8655 14.3837 11.6022 14.1092 11.2689 14.1036L10.7423 14.0952L12.6722 12.1652C12.8907 12.675 12.9635 13.2996 12.9635 14.0139ZM10.0504 20.5097C11.9103 20.4733 16.2352 19.773 16.2352 14.0139C16.2352 12.1036 15.7506 10.7562 15.0476 9.79265L13.5602 11.28C14.1624 12.28 14.168 13.4453 14.168 14.0111C14.168 15.0895 14.168 18.364 10.0168 18.4369L9.60221 18.4425L9.41173 18.4397C5.2745 18.3808 5.2745 15.0587 5.2745 13.9663C5.2745 12.8823 5.2745 9.57977 9.34171 9.54335C9.34171 9.54335 9.80109 9.54615 9.96075 9.55175C11.2465 9.57977 12.1372 9.9103 12.7563 10.3837L14.2268 8.9131C12.8319 7.74504 11.0476 7.50695 10.014 7.48174C9.84591 7.47613 9.65543 7.47333 9.47056 7.47333H9.3249C7.48457 7.48734 3.20448 8.154 3.20448 13.9663C3.20448 19.7926 7.52659 20.4845 9.38372 20.5097L9.61621 20.5125C9.76747 20.5125 9.91873 20.5125 10.0504 20.5097Z" fill="#313235"/>
</svg>
