<svg width="24" height="24" viewBox="0 0 24 24" fill="none" xmlns="http://www.w3.org/2000/svg">
<path fill-rule="evenodd" clip-rule="evenodd" d="M21.7143 9.61345L21.7087 14.0728C21.7087 14.3866 21.6078 14.6751 21.4426 14.9132C21.6106 15.1541 21.7143 15.4454 21.7143 15.7619L21.7087 20.2213C21.7087 21.028 21.0588 21.6863 20.2577 21.6863H3.47618C2.67786 21.6863 2.028 21.028 2.028 20.2213L2.0336 15.7619C2.0336 15.4482 2.13164 15.1597 2.29691 14.9216C2.12884 14.6807 2.0252 14.3894 2.0252 14.0728L2.0308 9.61345C2.0308 9.29972 2.12884 9.0112 2.29411 8.77311C2.12604 8.53221 2.0224 8.2409 2.0224 7.92437L2.028 3.46499C2.028 2.65826 2.67786 2 3.47618 2H20.2577C21.056 2 21.7059 2.65826 21.7059 3.46499L21.7003 7.92437C21.7003 8.2381 21.6022 8.52661 21.4342 8.76471C21.6106 9.0056 21.7143 9.29692 21.7143 9.61345ZM3.2633 3.46499L3.25769 7.92437C3.25769 8.04482 3.35573 8.14846 3.47898 8.14846H20.2605C20.3837 8.14846 20.4818 8.04762 20.4818 7.92437L20.4874 3.46499C20.4874 3.34174 20.3893 3.2437 20.2661 3.2437H3.48178C3.36134 3.2437 3.2633 3.34174 3.2633 3.46499ZM18.0756 7.29972C17.0532 7.29972 16.4454 6.68347 16.4454 5.64986C16.4454 4.61625 17.056 4 18.0756 4C19.0952 4 19.7059 4.61625 19.7059 5.64986C19.7059 6.68067 19.098 7.29972 18.0756 7.29972ZM17.4258 5.64986C17.4258 5.16527 17.5966 4.9916 18.0756 4.9916C18.5546 4.9916 18.7255 5.16247 18.7255 5.64986C18.7255 6.13445 18.5546 6.30812 18.0756 6.30812C17.5966 6.30812 17.4258 6.13445 17.4258 5.64986ZM18.056 10.1961C19.0784 10.1961 19.6863 10.8123 19.6863 11.8459C19.6863 12.8796 19.0756 13.4958 18.056 13.4958C17.0364 13.4958 16.4258 12.8796 16.4258 11.8459C16.4258 10.8151 17.0364 10.1961 18.056 10.1961ZM18.7059 11.8459C18.7059 12.3305 18.535 12.5042 18.056 12.5042C17.577 12.5042 17.409 12.3333 17.4062 11.8459C17.4062 11.3613 17.577 11.1877 18.056 11.1877C18.535 11.1877 18.7059 11.3613 18.7059 11.8459ZM18.056 16.3978C19.0784 16.3978 19.6863 17.014 19.6863 18.0476C19.6863 19.0812 19.0756 19.6975 18.056 19.6975C17.0364 19.6975 16.4258 19.0812 16.4258 18.0476C16.4258 17.014 17.0364 16.3978 18.056 16.3978ZM18.056 18.7059C18.535 18.7059 18.7059 18.5322 18.7059 18.0476C18.7059 17.563 18.535 17.3894 18.056 17.3894C17.577 17.3894 17.4062 17.563 17.4062 18.0476C17.409 18.5322 17.577 18.7059 18.056 18.7059ZM20.4846 15.7619L20.479 20.2213C20.479 20.3417 20.3809 20.4426 20.2605 20.4454H3.47898C3.35573 20.4454 3.25769 20.3473 3.25769 20.2241L3.2633 15.7647C3.2633 15.6415 3.36134 15.5406 3.48178 15.5406H20.2633C20.3865 15.5406 20.4846 15.6387 20.4846 15.7619ZM20.2577 14.2941H3.47618C3.35573 14.2941 3.25769 14.1961 3.25769 14.07L3.2633 9.61064C3.2633 9.48739 3.36134 9.38936 3.48178 9.38936H20.2633C20.3865 9.38936 20.4846 9.48739 20.4846 9.61064L20.479 14.07C20.479 14.1933 20.3809 14.2941 20.2577 14.2941ZM4.15405 5.64706C4.15405 5.9916 4.42856 6.26891 4.7675 6.26891H10.451C10.7899 6.26891 11.0644 5.9916 11.0644 5.64706C11.0644 5.30252 10.7899 5.02521 10.451 5.02521H4.7675C4.42856 5.02521 4.15405 5.30252 4.15405 5.64706ZM10.451 11.2269C10.7899 11.2269 11.0644 11.5042 11.0644 11.8487C11.0644 12.1905 10.7899 12.4706 10.451 12.4706H4.7675C4.42856 12.4706 4.15405 12.1933 4.15405 11.8487C4.15405 11.5042 4.42856 11.2269 4.7675 11.2269H10.451ZM11.0644 18.0868C11.0644 17.7423 10.7899 17.465 10.451 17.465H4.7675C4.42856 17.465 4.15405 17.7423 4.15405 18.0868C4.15405 18.4314 4.42856 18.7087 4.7675 18.7087H10.451C10.7899 18.7087 11.0644 18.4314 11.0644 18.0868Z" fill="#313235"/>
</svg>
