<svg width="24" height="24" viewBox="0 0 24 24" fill="none" xmlns="http://www.w3.org/2000/svg">
<path fill-rule="evenodd" clip-rule="evenodd" d="M8.95517 3.88515C9.13444 4.40895 9.81791 4.86553 10.9356 5.19887C12.1176 5.55181 13.6666 5.75068 15.3193 5.74788C16.9719 5.74788 18.5238 5.55181 19.703 5.19887C20.7983 4.87394 21.4677 4.43696 21.6666 3.92996C21.6666 3.92156 21.675 3.91316 21.675 3.91316C21.5293 3.36414 20.8655 2.89916 19.6946 2.54902C18.5238 2.19608 16.9635 2 15.3109 2C13.6582 2 12.1008 2.19608 10.9187 2.54902C9.8067 2.88235 9.12604 3.34453 8.94676 3.86834C8.95517 3.87674 8.95517 3.87674 8.95517 3.88515ZM11.1316 10.5378C10.8851 10.549 10.6975 10.7591 10.7115 11.0056L10.7563 11.6246L10.3781 11.7395C10.38 11.7152 10.3825 11.6913 10.385 11.6674L10.385 11.6673C10.39 11.6193 10.3949 11.5714 10.3949 11.521C10.3949 10.112 9.02239 10.112 8.43696 10.112C7.85153 10.112 6.47899 10.112 6.47899 11.521C6.47899 11.5994 6.48739 11.6722 6.49579 11.7451L6.09524 11.6218L6.12885 11.0084C6.14285 10.7619 5.95238 10.5518 5.70588 10.5378C5.45378 10.507 5.2493 10.7142 5.2353 10.9607L5.18488 11.9243C5.17367 12.1288 5.30532 12.3137 5.5014 12.3725L6.22969 12.5938C6.09243 12.9131 6.01961 13.2745 5.98599 13.6442H5.43978C5.19328 13.6442 4.9944 13.8431 4.9944 14.0896V14.7282C4.9944 14.9747 5.19328 15.1736 5.43978 15.1736C5.68627 15.1736 5.88515 14.9747 5.88515 14.7282V14.535H5.95518C5.96078 14.9915 6.0028 15.4341 6.10644 15.8319L5.4958 16.0139C5.29692 16.0728 5.16807 16.2604 5.17927 16.4649L5.22969 17.4257C5.2437 17.6638 5.43698 17.8487 5.67507 17.8487H5.70308C5.94678 17.8347 6.13725 17.6274 6.12325 17.3809L6.08963 16.7674L6.49299 16.6442C6.85714 17.112 7.44537 17.4173 8.42856 17.4173C9.40895 17.4173 9.99718 17.1148 10.3613 16.6498L10.7507 16.7674L10.7171 17.3809C10.7059 17.6274 10.8935 17.8375 11.14 17.8487H11.1624C11.3977 17.8487 11.5938 17.6638 11.6078 17.4257L11.6582 16.4649C11.6694 16.2604 11.5378 16.0728 11.3417 16.0139L10.7479 15.8347C10.8543 15.4369 10.8963 14.9943 10.9019 14.535H10.972V14.7282C10.972 14.9747 11.1708 15.1736 11.4173 15.1736C11.6638 15.1736 11.8627 14.9747 11.8627 14.7282V14.0896C11.8627 13.8431 11.6638 13.6442 11.4173 13.6442H10.8739C10.8375 13.2745 10.7647 12.9103 10.6274 12.5882L11.3389 12.3725C11.535 12.3137 11.6666 12.1288 11.6554 11.9243L11.605 10.9607C11.591 10.7142 11.3809 10.5042 11.1344 10.5378H11.1316ZM8.42576 11C7.35854 11 7.35854 11.2156 7.35854 11.5154L7.35865 11.5174L7.35893 11.5193L7.35994 11.5238C7.36064 11.5266 7.36134 11.5294 7.36134 11.5322C7.66106 11.4313 8.00839 11.3753 8.42296 11.3753C8.83752 11.3753 9.18766 11.4313 9.49018 11.5322L9.49298 11.5126L9.49296 11.5109C9.49018 11.2148 9.48815 11 8.42576 11ZM8.42296 16.5237C9.66945 16.5237 10.0112 16.0672 10.0112 14.3949C10.0112 13.3473 9.85993 12.7871 9.50699 12.521C9.2773 12.3501 8.92155 12.2661 8.42296 12.2661C7.92156 12.2661 7.56302 12.3529 7.33333 12.5266C6.98319 12.7955 6.83473 13.3529 6.83473 14.3949C6.83753 16.0672 7.17646 16.5237 8.42296 16.5237ZM8.39775 12.9299C8.64424 12.9299 8.84312 13.1288 8.84312 13.3753V15.7646C8.84312 16.0111 8.64424 16.21 8.39495 16.21C8.14845 16.21 7.94957 16.0111 7.94677 15.7674V13.3753C7.94957 13.1288 8.15125 12.9299 8.39775 12.9299ZM13.5966 10.7002V10.4005C12.4157 10.4005 11.6662 9.90901 10.9977 9.47059L10.972 9.45375C10.8347 9.36411 10.6975 9.27448 10.5574 9.18764C10.5406 9.17924 10.5238 9.16804 10.5098 9.15403C10.3641 9.07 10.2129 8.99157 10.0616 8.91874C10.0504 8.90753 10.0364 8.89913 10.0196 8.89353C9.85712 8.8207 9.69466 8.74787 9.50979 8.70025C9.31091 8.64143 9.10643 8.60221 8.89915 8.5798H8.89074L8.87005 8.57754H8.87005C8.72356 8.56152 8.58336 8.54619 8.42016 8.54619C7.24089 8.54619 6.57423 8.98316 5.86835 9.45375C5.18488 9.90753 4.42297 10.4089 3.26051 10.4089H3.24371C3.25211 11.7451 3.30813 14.7899 3.56023 16.2212C3.83754 17.8095 6.94677 19.6694 8.42016 20.3977C8.76189 20.2296 9.17646 19.9999 9.63864 19.7338H9.64704C9.98037 19.5321 10.3389 19.3137 10.6863 19.07C10.6905 19.0658 10.6967 19.0616 10.7041 19.0567L10.7041 19.0567C10.7115 19.0518 10.7199 19.0461 10.7283 19.0391C11.2465 18.6946 11.7367 18.3081 12.1904 17.8823L12.2157 17.8571C12.5014 17.591 12.7451 17.3081 12.9299 17.0223C12.9351 17.0223 12.9371 17.0191 12.9399 17.0147L12.9399 17.0147C12.9416 17.012 12.9435 17.0087 12.9467 17.0055C13.0364 16.8683 13.1092 16.731 13.1736 16.591C13.2241 16.4705 13.2717 16.3417 13.2885 16.2184C13.3137 16.0812 13.3361 15.9187 13.3529 15.7478V15.7394C13.3697 15.6106 13.3865 15.4733 13.4033 15.3277C13.4033 15.3118 13.4052 15.2947 13.4072 15.2766C13.4094 15.2564 13.4117 15.235 13.4117 15.2128C13.4509 14.7759 13.4818 14.2913 13.5098 13.7871C13.5182 13.7142 13.5182 13.6414 13.5182 13.5686C13.535 13.3753 13.5434 13.1792 13.5434 12.9831C13.5453 12.9321 13.548 12.8821 13.5506 12.8327C13.5555 12.7413 13.5602 12.6521 13.5602 12.563C13.5686 12.4481 13.5686 12.3361 13.5686 12.224C13.577 12.1008 13.577 11.9803 13.577 11.8599C13.5826 11.7619 13.5826 11.6582 13.5826 11.5602V11.5546C13.5874 11.371 13.5895 11.2014 13.5914 11.0413V11.0413C13.5929 10.9229 13.5942 10.8098 13.5966 10.7002ZM15.0608 10.7772C15.1463 10.7793 15.2328 10.7815 15.3193 10.7815C16.9691 10.7815 18.5294 10.5966 19.6918 10.2521C20.8599 9.89633 21.4929 9.36131 21.7058 8.96636V5.18766C21.2772 5.5322 20.689 5.80951 19.9439 6.02799C18.6862 6.40895 17.042 6.61062 15.3137 6.61062C13.5854 6.61062 11.944 6.40895 10.6835 6.02799C9.91035 5.80671 9.31931 5.51539 8.88794 5.16805V7.36132C8.74228 7.34452 8.58822 7.33611 8.42576 7.33611H8.41736C6.8781 7.33611 5.98521 7.92397 5.19964 8.44116L5.19328 8.44535L5.18007 8.45406C4.43849 8.94292 3.85633 9.32669 2.77312 9.15683C2.7311 9.14563 2.68629 9.14003 2.64147 9.14003C2.30534 9.13722 2.03083 9.40893 2.02803 9.74507C2.02803 9.75053 2.02801 9.75935 2.028 9.77138C2.02737 10.1912 2.02097 14.5196 2.36136 16.4257C2.81514 19.0419 7.61904 21.3725 8.15685 21.6302C8.24088 21.6638 8.32772 21.6834 8.41736 21.6862C8.50699 21.6834 8.59663 21.6666 8.67786 21.6302C9.48458 21.238 10.2689 20.7982 11.0252 20.3108C12.2045 20.6414 13.7086 20.8263 15.3081 20.8263C16.9495 20.8263 18.5098 20.633 19.689 20.2856C21.0364 19.8795 21.7114 19.3305 21.7114 18.6582V15.2745C21.2576 15.6246 20.6554 15.9215 19.9495 16.1344C18.7002 16.5041 17.0588 16.717 15.3193 16.717C15.0166 16.717 14.7274 16.7008 14.4331 16.6843L14.4173 16.6834C14.4225 16.6667 14.4279 16.6497 14.4334 16.6324C14.4546 16.5657 14.4768 16.4959 14.4902 16.4313V16.4229C14.521 16.252 14.5462 16.042 14.5714 15.8319C14.6549 15.8347 14.7378 15.8384 14.8205 15.8422C14.9849 15.8497 15.1488 15.8571 15.3165 15.8571C16.9663 15.8571 18.5266 15.6526 19.6974 15.3053C20.8655 14.9495 21.4985 14.4229 21.7114 14.0196V10.2072C21.2576 10.563 20.6554 10.8543 19.9495 11.056C18.7002 11.4369 17.0588 11.6386 15.3193 11.6386C15.2286 11.6386 15.14 11.6365 15.0525 11.6343C14.9671 11.6323 14.8827 11.6302 14.7983 11.6302C14.8022 11.481 14.8043 11.3375 14.8063 11.2013C14.8085 11.0484 14.8106 10.9049 14.8151 10.7731C14.8953 10.7731 14.9776 10.7751 15.0608 10.7772Z" fill="#313235"/>
</svg>
