<svg width="24" height="24" viewBox="0 0 24 24" fill="none" xmlns="http://www.w3.org/2000/svg">
<path fill-rule="evenodd" clip-rule="evenodd" d="M21.7143 4.93C21.7143 3.85157 20.874 3.05325 19.2185 2.55465C18.0868 2.21572 16.605 2.02804 15.0392 2.01404C13.4818 2.01404 12 2.20171 10.8684 2.54065C9.4986 2.95241 8.68348 3.57986 8.44538 4.40619C8.39776 4.57146 8.37255 4.74233 8.37255 4.9188V7.47622H8.36135C6.83303 7.47622 5.95084 8.05802 5.16975 8.57316L5.16807 8.57426L5.1611 8.57891C4.42492 9.0697 3.84537 9.45608 2.77591 9.28575C2.59664 9.24093 2.40336 9.28014 2.25771 9.39499C2.11205 9.50984 2.02521 9.68351 2.02521 9.86838C2.02521 9.87308 2.0252 9.8804 2.02519 9.89023C2.02474 10.2788 2.01971 14.5944 2.35574 16.4958C2.80953 19.0869 7.56863 21.395 8.10925 21.6499C8.19048 21.6891 8.28011 21.7087 8.36695 21.7087C8.45378 21.7087 8.54342 21.6919 8.62465 21.6527C8.86835 21.5378 9.97199 21.0028 11.1513 20.2157C12.2493 20.5098 13.6106 20.6751 15.0448 20.6751C16.5994 20.6751 18.0812 20.4874 19.2185 20.1485C20.874 19.6527 21.7143 18.8516 21.7143 17.7731V4.93ZM9.66387 4.6639C9.83474 4.29975 10.3698 3.96362 11.2241 3.70591C12.2437 3.40059 13.6022 3.23253 15.0448 3.22972C16.4902 3.22972 17.8487 3.39779 18.8683 3.70311C19.5042 3.89639 20.2409 4.21292 20.4454 4.6751C20.2773 5.03925 19.7283 5.37818 18.8768 5.63309C17.8543 5.93841 16.4986 6.10647 15.056 6.10647C13.6162 6.10647 12.2577 5.93841 11.2353 5.63309C10.3698 5.37538 9.82633 5.03084 9.66387 4.6639ZM9.58824 6.24093V7.63309C10.4202 7.83757 11.0224 8.22692 11.5658 8.58547C12.3053 9.07566 12.8908 9.46222 13.9916 9.28855C14.1681 9.26334 14.3557 9.30816 14.4874 9.423C14.6219 9.53785 14.7087 9.70031 14.7115 9.87678C14.7115 9.9188 14.7115 10.1793 14.7087 10.5659C14.7482 10.5668 14.7874 10.5681 14.8265 10.5693L14.8267 10.5693L14.8268 10.5693L14.8269 10.5693C14.9041 10.5718 14.9808 10.5743 15.0588 10.5743C16.5014 10.5743 17.8571 10.4062 18.8796 10.0981C19.8207 9.81516 20.3249 9.39779 20.507 9.09527V6.24933C20.1569 6.45381 19.7311 6.63309 19.2269 6.78435C18.0952 7.12328 16.6134 7.31096 15.0588 7.31096C13.5014 7.31096 12.0224 7.12608 10.888 6.78715C10.3726 6.63309 9.93838 6.45101 9.58824 6.24093ZM13.1933 16.297C12.916 17.874 9.82913 19.7143 8.36695 20.4426C6.90757 19.7143 3.82353 17.874 3.54622 16.2941C3.29692 14.874 3.2465 11.86 3.2381 10.5322C4.37815 10.5266 5.15967 10.0364 5.84034 9.58547L5.84937 9.57954C6.54632 9.12233 7.2067 8.68911 8.36695 8.68911H8.36975C9.53782 8.69191 10.1961 9.12608 10.8964 9.58827L10.9027 9.59246C11.5733 10.034 12.3175 10.5238 13.4958 10.5238H13.4986C13.4902 11.8488 13.4398 14.8712 13.1933 16.297ZM10.5854 12.1989C10.8207 11.9636 11.2045 11.9636 11.4398 12.1989C11.6751 12.4342 11.6751 12.8152 11.4398 13.0505L7.79272 16.6835C7.68067 16.7956 7.52661 16.86 7.36695 16.86C7.20728 16.86 7.05322 16.7956 6.94118 16.6835L5.30252 15.0505C5.06723 14.8152 5.06723 14.4342 5.30252 14.1989C5.54062 13.9636 5.92157 13.9636 6.15686 14.1989L7.36695 15.4062L10.5854 12.1989ZM18.8712 18.9972C19.6162 18.7731 20.5042 18.3782 20.5042 17.7731V15.1821C20.1373 15.4034 19.7087 15.5939 19.2241 15.7395C18.0952 16.0785 16.6134 16.2661 15.056 16.2661C14.8838 16.2661 14.717 16.259 14.5498 16.2518L14.5498 16.2518L14.423 16.2465C14.4169 16.2844 14.4113 16.3222 14.4058 16.3596L14.4058 16.3597L14.4058 16.3597C14.3987 16.4081 14.3917 16.4556 14.3838 16.5014V16.5042C14.2101 17.5014 13.3978 18.451 12.4342 19.2633C13.2297 19.3978 14.1148 19.4734 15.0448 19.4734C16.4846 19.4734 17.8431 19.3054 18.8712 18.9972ZM14.6919 11.7703C14.6723 12.7675 14.6331 13.9916 14.5518 15.0477C14.5933 15.049 14.6348 15.0506 14.6763 15.0521L14.6767 15.0522L14.6768 15.0522C14.8033 15.0569 14.9303 15.0617 15.0588 15.0617C16.5042 15.0617 17.8599 14.8936 18.8796 14.5883C19.8179 14.3054 20.3249 13.888 20.507 13.5855V10.6947C20.1401 10.916 19.7115 11.1065 19.2269 11.2521C18.0952 11.5911 16.6134 11.7787 15.0588 11.7787C14.9951 11.7787 14.9328 11.7766 14.8712 11.7745C14.811 11.7724 14.7514 11.7703 14.6919 11.7703Z" fill="#313235"/>
</svg>
