<svg width="24" height="24" viewBox="0 0 24 24" fill="none" xmlns="http://www.w3.org/2000/svg">
<path fill-rule="evenodd" clip-rule="evenodd" d="M8.78437 3.91316C8.96644 4.44257 9.65271 4.90475 10.7844 5.24368C11.9776 5.59942 13.5463 5.7983 15.2157 5.8011C16.8852 5.8011 18.4538 5.59942 19.6471 5.24368C20.7535 4.91315 21.4314 4.47058 21.6331 3.95797C21.6331 3.94957 21.6415 3.94117 21.6415 3.94117C21.493 3.38375 20.8235 2.91316 19.6387 2.55742C18.4566 2.19888 16.8768 2 15.2073 2C13.5379 2 11.9608 2.19888 10.7704 2.55742C9.64431 2.89635 8.95804 3.36694 8.77597 3.89635C8.78437 3.90475 8.78437 3.90475 8.78437 3.91316ZM13.4676 11.5531L13.465 11.703C13.451 12.3837 13.4286 13.0616 13.4006 13.7394H8.90762V8.66664C9.74235 8.78148 10.2998 9.14283 10.8796 9.52658C11.5491 9.97195 12.297 10.465 13.4818 10.465L13.479 10.8207C13.4767 11.0403 13.4723 11.2878 13.4676 11.5531ZM13.1765 16.252C13.1906 16.1719 13.2028 16.0759 13.2146 15.9824L13.2213 15.9299C13.2409 15.7899 13.2577 15.6414 13.2745 15.4845L13.2875 15.3559C13.3008 15.2252 13.3144 15.0905 13.325 14.9495H8.90762V20.1176C9.40341 19.8459 9.89081 19.5545 10.3642 19.2436L10.4174 19.2072C10.5967 19.0896 10.7732 18.9663 10.9468 18.8403C11.2774 18.5994 11.5939 18.3445 11.902 18.0784L11.9692 18.0139C12.1093 17.8879 12.2409 17.759 12.3698 17.6218C12.4846 17.4957 12.5883 17.3725 12.6863 17.2464C12.7045 17.2237 12.719 17.2029 12.7342 17.1809L12.7451 17.1652C12.8348 17.0448 12.9188 16.9159 12.9888 16.7815C13.0813 16.605 13.1457 16.4285 13.1765 16.252ZM7.69754 8.68064V13.7422H3.2998C3.24098 12.5098 3.22137 11.2269 3.21577 10.4762H3.22697C4.38177 10.4762 5.13744 9.97654 5.81438 9.52897L5.818 9.52658C6.37542 9.15683 6.91043 8.80949 7.69754 8.68064ZM7.69754 20.07V14.9495H3.36983C3.41184 15.4481 3.45946 15.8991 3.52109 16.252C3.74237 17.5209 5.92444 19.0952 7.69754 20.07ZM14.8183 10.8925C14.9501 10.8972 15.082 10.9019 15.2185 10.9019C16.888 10.8991 18.465 10.7114 19.6499 10.3501C20.8263 9.99436 21.4706 9.45375 21.6863 9.04479V5.22128C21.2521 5.57141 20.6611 5.84872 19.902 6.07561C18.6303 6.45656 16.9692 6.66665 15.2185 6.66665C13.4678 6.66665 11.8068 6.45656 10.5351 6.07561C9.75916 5.85152 9.15692 5.55461 8.72274 5.20727V7.43695C8.68417 7.43516 8.6456 7.43279 8.60666 7.4304C8.524 7.42532 8.43969 7.42015 8.3502 7.42015H8.3446C6.81239 7.42015 5.92724 8.00558 5.14853 8.52098C4.40904 9.01117 3.82361 9.39773 2.74798 9.23246C2.70316 9.22126 2.65554 9.21566 2.61073 9.21566C2.27459 9.21285 2.00289 9.48176 2.00008 9.81509C2.00008 9.81912 2.00008 9.82508 2.00007 9.83289C1.99977 10.1947 1.99611 14.5456 2.33062 16.4621C2.78439 19.0588 7.54628 21.3725 8.0925 21.6302C8.25496 21.7086 8.44544 21.7086 8.6079 21.6302C9.31658 21.2912 10.0057 20.9103 10.6695 20.4929L10.7732 20.5265C11.9748 20.8851 13.5491 21.084 15.2129 21.084C16.8768 21.084 18.451 20.8823 19.6443 20.5265C21.0028 20.1176 21.6891 19.563 21.6891 18.8823V15.4481C21.2297 15.8039 20.6191 16.1092 19.9048 16.3165C18.6415 16.7002 16.9804 16.9075 15.2213 16.9075C14.8936 16.9075 14.5715 16.8963 14.2549 16.8795C14.3026 16.7394 14.3446 16.6022 14.3698 16.4593C14.3922 16.3249 14.4146 16.1736 14.4342 16.0167C14.6919 16.028 14.9524 16.0392 15.2185 16.0392C16.8908 16.0392 18.465 15.8403 19.6499 15.4845C20.8263 15.126 21.4706 14.5882 21.6863 14.1792V10.3193C21.2269 10.675 20.6163 10.9691 19.902 11.1792C18.6387 11.5602 16.9776 11.7703 15.2185 11.7703C15.0791 11.7703 14.9428 11.7655 14.8073 11.7607C14.7632 11.7592 14.7191 11.7576 14.6751 11.7563C14.6801 11.4759 14.6828 11.2153 14.6853 10.9784C14.6857 10.9479 14.686 10.9177 14.6863 10.8879C14.7304 10.8893 14.7743 10.8909 14.8183 10.8925Z" fill="#313235"/>
</svg>
