<svg width="24" height="24" viewBox="0 0 24 24" fill="none" xmlns="http://www.w3.org/2000/svg">
<path fill-rule="evenodd" clip-rule="evenodd" d="M15.0476 2C16.605 2 18.0868 2.18767 19.2184 2.52661C20.8739 3.02521 21.7142 3.82352 21.7086 4.91035V17.7534C21.7086 18.8319 20.8711 19.6302 19.2156 20.1288C18.0756 20.4677 16.5966 20.6554 15.0448 20.6554C13.6106 20.6554 12.2493 20.4873 11.1484 20.196C9.96916 20.9831 8.86552 21.5181 8.62182 21.633C8.54059 21.6694 8.45376 21.689 8.36412 21.689C8.27729 21.689 8.18765 21.6694 8.10642 21.6302C7.5658 21.3753 2.80952 19.0672 2.35574 16.4789C2.01971 14.5775 2.02474 10.2619 2.02519 9.87336C2.0252 9.86353 2.02521 9.85621 2.02521 9.85151C2.02521 9.66663 2.11205 9.49297 2.2577 9.37812C2.40616 9.26327 2.59664 9.22406 2.77591 9.26888C3.84001 9.43791 4.41614 9.05593 5.14434 8.57312L5.16806 8.5574L5.16973 8.55629C5.95083 8.04116 6.83301 7.45936 8.36132 7.45936H8.38093V4.90475C8.38093 4.72828 8.40614 4.55461 8.45376 4.39215C8.69185 3.56582 9.50697 2.93837 10.8767 2.52661C12.0112 2.18767 13.4901 2 15.0476 2ZM15.0476 3.20168C13.6078 3.20168 12.2493 3.37254 11.2269 3.67786C10.3725 3.93557 9.8375 4.2745 9.66664 4.63584C9.8291 5.00279 10.3753 5.34732 11.2381 5.60503C12.2605 5.91315 13.6162 6.08122 15.0588 6.08122C16.5013 6.08122 17.8571 5.91315 18.8795 5.60783C19.731 5.35013 20.28 5.01119 20.4481 4.64985C20.2408 4.18486 19.5069 3.86834 18.8711 3.67786C17.8487 3.36974 16.4901 3.20168 15.0476 3.20168ZM9.59101 6.20727L9.59381 6.20894V7.60502C10.4229 7.8095 11.0196 8.19605 11.563 8.55459C12.3025 9.04479 12.8879 9.42854 13.9859 9.25767C14.1624 9.23526 14.3473 9.28008 14.4817 9.39213C14.6162 9.50697 14.7058 9.66944 14.7058 9.84591C14.7058 9.88792 14.7058 10.1484 14.703 10.5378C16.2352 10.5714 17.7758 10.4033 18.8823 10.07C19.8235 9.78708 20.3277 9.36972 20.5069 9.0672V6.22127C20.1596 6.42575 19.7338 6.60502 19.2268 6.75628C18.0952 7.09522 16.6134 7.28289 15.0588 7.28289C13.5014 7.28289 12.0224 7.09522 10.8907 6.75628C10.3795 6.60542 9.94901 6.42112 9.59381 6.20894V6.20727H9.59101ZM5.83641 9.56092C5.15883 10.0089 4.40552 10.507 3.2493 10.507V10.5042H3.23809C3.24369 11.2549 3.2633 12.5322 3.32213 13.7647H7.71706V8.71706C6.93275 8.84591 6.39494 9.19325 5.83752 9.56019L5.83641 9.56092ZM3.54621 16.2688C3.48459 15.9159 3.43417 15.4677 3.39495 14.9691H7.71706V20.0728C6.14564 19.2072 3.78711 17.6386 3.54621 16.2688ZM18.8711 18.9691C17.8431 19.2744 16.4845 19.4453 15.0476 19.4453C14.1176 19.4453 13.2296 19.3669 12.4313 19.2352C13.3921 18.4229 14.2044 17.4733 14.3781 16.4761C14.3864 16.4298 14.3937 16.3805 14.4011 16.33C14.4063 16.2951 14.4116 16.2596 14.4173 16.224L14.4174 16.224C14.6303 16.2324 14.8431 16.2408 15.0588 16.2408C16.6134 16.2408 18.0952 16.0532 19.2268 15.7142C19.7114 15.5686 20.14 15.3809 20.5041 15.1568V17.7478C20.5069 18.3529 19.6162 18.745 18.8711 18.9691ZM14.6862 11.7423C14.7269 11.7432 14.7676 11.7444 14.8084 11.7456C14.8911 11.7481 14.9743 11.7507 15.0588 11.7507C16.6134 11.7507 18.0952 11.563 19.2268 11.2241C19.7114 11.0784 20.14 10.8879 20.5041 10.6666V13.5574C20.3249 13.8571 19.8179 14.2773 18.8795 14.5602C17.8571 14.8655 16.5013 15.0364 15.0588 15.0364C14.9282 15.0364 14.7991 15.0316 14.6705 15.0269L14.6704 15.0269L14.67 15.0268C14.6277 15.0253 14.5855 15.0237 14.5434 15.0224C14.6274 13.9663 14.6666 12.7395 14.6862 11.7423ZM10.8935 9.56019C10.3137 9.17924 9.75907 8.8179 8.92434 8.70305H8.92154V13.7647H13.4089C13.4677 12.5294 13.4873 11.2409 13.493 10.4958H13.4902C12.3109 10.4958 11.563 10.0028 10.8935 9.56019ZM8.92434 20.1232V14.9691H13.3389C13.2997 15.4677 13.2521 15.9159 13.1904 16.2688C12.9467 17.6666 10.4958 19.266 8.92434 20.1232Z" fill="#313235"/>
</svg>
