<svg width="24" height="24" viewBox="0 0 24 24" fill="none" xmlns="http://www.w3.org/2000/svg">
<path fill-rule="evenodd" clip-rule="evenodd" d="M21.8427 4.91535C21.8427 3.91255 21.036 3.16465 19.4393 2.68566C18.3021 2.34393 16.8091 2.15625 15.2404 2.15625C13.6718 2.15625 12.1788 2.34393 11.0416 2.68846C9.71663 3.08342 8.93231 3.67726 8.70542 4.45037V4.45317C8.66341 4.60163 8.641 4.75569 8.641 4.91535V7.73888C8.61147 7.73775 8.58286 7.73569 8.55443 7.73365C8.51273 7.73065 8.47141 7.72768 8.42811 7.72768H8.42251C6.92111 7.72768 6.04436 8.30471 5.27405 8.81451L5.26965 8.81742C4.47902 9.33985 3.85448 9.75254 2.66341 9.56521C2.54016 9.54 2.4113 9.56521 2.31327 9.64084C2.21523 9.71928 2.1564 9.83692 2.1564 9.96297C2.1564 9.96769 2.15639 9.975 2.15638 9.98481C2.15594 10.3773 2.15094 14.7674 2.49254 16.6941C2.94352 19.2795 8.03315 21.7025 8.24884 21.8033C8.35808 21.8565 8.48693 21.8565 8.59898 21.8033C9.50654 21.3635 10.3805 20.8621 11.2152 20.2991C12.3357 20.6128 13.753 20.7865 15.2432 20.7865C16.8063 20.7865 18.2965 20.5988 19.4421 20.2571C21.036 19.7781 21.8427 19.0274 21.8427 18.0246V4.91535ZM9.51214 4.64645C9.66901 4.17586 10.274 3.7697 11.2769 3.46998C12.3413 3.15065 13.7474 2.97698 15.2404 2.97698C16.7334 2.97698 18.1396 3.15345 19.204 3.46998C20.2432 3.7809 20.8371 4.18706 20.9827 4.67446C20.9813 4.67726 20.9792 4.68006 20.9771 4.68286C20.975 4.68566 20.9729 4.68846 20.9715 4.69126C20.8007 5.14505 20.1928 5.5372 19.2124 5.83132C18.1508 6.14785 16.7474 6.32432 15.2516 6.32432C13.7586 6.32432 12.3525 6.14785 11.2909 5.83132C10.2881 5.5288 9.67461 5.12264 9.51775 4.65485C9.51495 4.65205 9.51214 4.64925 9.51214 4.64645ZM9.46172 5.86213V7.83132C10.3665 8.01899 10.9995 8.43636 11.571 8.81451L11.573 8.81589C12.3648 9.33904 12.9866 9.74993 14.1928 9.56521C14.3133 9.54561 14.4393 9.57642 14.5346 9.65765C14.627 9.73608 14.6914 9.84533 14.6914 9.96577L14.6916 10.0051C14.692 10.1177 14.6934 10.4315 14.6886 10.8705C14.7331 10.8719 14.7777 10.8734 14.8224 10.8749L14.8231 10.8749L14.8232 10.8749C14.9644 10.8797 15.1072 10.8845 15.2516 10.8845C16.7446 10.8845 18.1508 10.7081 19.2124 10.3887C20.26 10.075 20.8259 9.59603 21.0219 9.23748V5.87894C20.6354 6.16745 20.1144 6.41115 19.4505 6.61283C18.3133 6.95457 16.8259 7.13944 15.2516 7.13944C13.6802 7.13944 12.19 6.95177 11.0556 6.61283C10.3833 6.41395 9.85388 6.16185 9.46172 5.86213ZM13.5542 16.5512C13.2516 18.2795 9.9043 20.2515 8.42531 20.977C6.94632 20.2515 3.60178 18.2823 3.29646 16.5512C3.02475 15.005 2.98273 11.6464 2.97713 10.4224C4.20682 10.484 4.98273 9.98818 5.72503 9.49799L5.72927 9.49518C6.46999 9.00603 7.1672 8.54561 8.41971 8.54561H8.42531C9.67741 8.54841 10.3777 9.00779 11.1172 9.49799L11.14 9.51303C11.8696 9.99301 12.6232 10.4888 13.8679 10.4168C13.8623 11.6352 13.8203 15.0022 13.5542 16.5512ZM10.8315 12.4784C10.9911 12.3187 11.2516 12.3187 11.4113 12.4784C11.571 12.638 11.571 12.8957 11.4141 13.0554L11.4113 13.0582L7.68862 16.7697C7.52895 16.9294 7.26845 16.9294 7.10878 16.7697L5.43371 15.1002C5.27405 14.9406 5.27125 14.6829 5.43091 14.5232L5.43371 14.5204C5.59338 14.3607 5.85388 14.3607 6.01635 14.5204L7.3973 15.8985L10.8315 12.4784ZM19.204 19.47C20.4085 19.1086 21.0191 18.624 21.0191 18.0246V14.9966C20.6046 15.3047 20.0752 15.5652 19.4477 15.7529C18.3105 16.0946 16.8203 16.2823 15.2488 16.2823C14.9687 16.2823 14.697 16.2711 14.4253 16.2571C14.4057 16.4112 14.3833 16.5596 14.3609 16.6913C14.1732 17.7641 13.1844 18.8061 12.0808 19.6689C13.0107 19.8593 14.1004 19.963 15.2404 19.963C16.7278 19.9658 18.134 19.7893 19.204 19.47ZM14.6774 11.6857C14.6606 12.8005 14.613 14.2543 14.5121 15.4392L14.5203 15.4395C14.764 15.4506 15.0051 15.4616 15.2516 15.4616C16.7446 15.4616 18.1508 15.2879 19.2124 14.9686C20.2572 14.6548 20.8259 14.1759 21.0219 13.8173V10.4168C20.6074 10.7249 20.078 10.9826 19.4505 11.1703C18.3133 11.512 16.8231 11.6997 15.2544 11.6997C15.1066 11.6997 14.9619 11.6949 14.8181 11.6901L14.8174 11.6901C14.7707 11.6886 14.724 11.687 14.6774 11.6857Z" fill="#313235"/>
</svg>
