<svg width="24" height="24" viewBox="0 0 24 24" fill="none" xmlns="http://www.w3.org/2000/svg">
<path fill-rule="evenodd" clip-rule="evenodd" d="M9.03367 3.86274C9.21294 4.37814 9.888 4.82632 10.9972 5.15685C12.1681 5.50419 13.7031 5.69746 15.3418 5.69746C16.9804 5.69746 18.5182 5.50419 19.6863 5.15685C20.7703 4.83752 21.437 4.40615 21.6331 3.90475C21.6331 3.89635 21.6415 3.88795 21.6415 3.88795C21.4958 3.34733 20.8403 2.89075 19.6779 2.54342C18.5182 2.19328 16.972 2 15.3334 2C13.6975 2 12.1513 2.19328 10.9804 2.54342C9.8796 2.87114 9.20453 3.33053 9.02526 3.84593C9.03009 3.85076 9.03215 3.85282 9.03302 3.85529C9.03367 3.85711 9.03367 3.85917 9.03367 3.86274ZM11.5267 12.1064C11.2858 11.8711 10.902 11.8711 10.6611 12.1064L7.40062 15.3333L6.17653 14.1204C5.93564 13.8851 5.55189 13.8851 5.31099 14.1204L5.30819 14.1232C5.0729 14.3613 5.0757 14.7422 5.31099 14.9775L6.96925 16.6218C7.21014 16.8599 7.5967 16.8599 7.83479 16.6218L11.5267 12.9635L11.5323 12.9579C11.7647 12.7226 11.7647 12.3417 11.5267 12.1064ZM13.5995 11.4285L13.6031 11.1849C13.6074 10.8955 13.6113 10.6311 13.6135 10.4201H13.6107C12.4146 10.4201 11.6583 9.92434 10.9776 9.47616C10.8404 9.38652 10.7031 9.29689 10.5631 9.21285L10.5267 9.19045C10.381 9.10081 10.2297 9.01958 10.0757 8.94395L10.0729 8.94115C9.72554 8.77308 9.35579 8.66104 8.97484 8.61342C8.80397 8.58821 8.6219 8.5714 8.42022 8.5714H8.41742C7.23893 8.5714 6.57273 9.00852 5.86644 9.47194L5.86001 9.47616C5.17374 9.92714 4.40904 10.4285 3.23817 10.4285H3.22697C3.23817 11.7647 3.28859 14.7983 3.54069 16.2296C3.8208 17.8179 6.94404 19.6722 8.42022 20.4033C9.1093 20.0559 9.78156 19.6722 10.4286 19.252L10.4314 19.2492C10.79 19.0167 11.1485 18.7618 11.4874 18.4985L11.5014 18.4873C12.3474 17.8235 13.0533 17.0896 13.2605 16.3921C13.2651 16.3769 13.2699 16.3617 13.2746 16.3466C13.2874 16.3059 13.3 16.2656 13.3082 16.2268C13.3418 16.0308 13.3726 15.8011 13.3978 15.5546C13.4286 15.2773 13.4538 14.9691 13.4762 14.6498L13.4902 14.4537C13.507 14.1764 13.5238 13.8935 13.5378 13.6078L13.5463 13.4481C13.5715 12.7479 13.5883 12.0364 13.5995 11.4285ZM15.0394 10.6578C15.1409 10.6608 15.2422 10.6638 15.3446 10.6638C16.9832 10.6638 18.5266 10.479 19.6863 10.1316C20.8375 9.78428 21.4706 9.26047 21.6835 8.86272V5.14004C21.2577 5.47898 20.6751 5.75068 19.9328 5.96917C18.6863 6.34172 17.056 6.5462 15.3418 6.5462C13.6247 6.5462 11.9944 6.34172 10.7479 5.96917C9.98884 5.74788 9.40061 5.46217 8.97204 5.12324V7.38653C8.79837 7.37253 8.6163 7.36132 8.42022 7.36132H8.41462C6.8687 7.36132 5.97562 7.94721 5.18687 8.46466L5.18214 8.46776C4.43144 8.95795 3.83761 9.34171 2.75918 9.18204C2.57711 9.13722 2.38383 9.17644 2.23538 9.29129C2.08972 9.40613 2.00008 9.5798 2.00008 9.76747C2.00008 9.77152 2.00008 9.77747 2.00007 9.78526C1.99977 10.1489 1.99616 14.5173 2.33621 16.4397C2.7928 19.0475 7.6079 21.3725 8.16252 21.6246C8.33059 21.703 8.52106 21.703 8.68633 21.6246C9.60509 21.1848 10.493 20.6806 11.339 20.112C12.4678 20.4005 13.86 20.5685 15.3418 20.5685C16.972 20.5685 18.5154 20.3753 19.6863 20.0279C21.0168 19.6302 21.6919 19.0868 21.6919 18.4285V15.0868C21.2381 15.4341 20.6415 15.731 19.9412 15.9327C18.7031 16.3053 17.0728 16.5097 15.3474 16.5097C15.1086 16.5097 14.8738 16.5 14.6396 16.4902C14.5935 16.4883 14.5475 16.4864 14.5014 16.4845C14.5014 16.4765 14.5042 16.4675 14.5071 16.4582C14.5092 16.4512 14.5114 16.4441 14.5126 16.4369C14.5547 16.2072 14.5883 15.9355 14.6191 15.6442C14.6666 15.6459 14.714 15.6476 14.7616 15.6494C14.9551 15.6566 15.1495 15.6638 15.3474 15.6638C16.986 15.6638 18.5294 15.4705 19.6919 15.1232C20.8431 14.7759 21.4762 14.252 21.6891 13.8543V10.098C21.2353 10.4453 20.6387 10.7339 19.9384 10.9355C18.7003 11.3081 17.07 11.5126 15.3446 11.5126C15.2126 11.5126 15.0838 11.5079 14.9546 11.5032C14.911 11.5016 14.8674 11.5 14.8236 11.4986C14.8283 11.2315 14.8311 10.9848 14.8335 10.7652C14.8339 10.7269 14.8343 10.6893 14.8348 10.6526C14.9033 10.6537 14.9714 10.6558 15.0394 10.6578Z" fill="#313235"/>
</svg>
