<svg width="24" height="24" viewBox="0 0 24 24" fill="none" xmlns="http://www.w3.org/2000/svg">
<path fill-rule="evenodd" clip-rule="evenodd" d="M5.42575 4.00005C5.62182 4.54907 6.36412 5.02245 7.5798 5.37259C8.86271 5.73954 10.549 5.94682 12.3445 5.94402C14.1428 5.94402 15.8291 5.73674 17.112 5.36979C18.3024 5.02806 19.0307 4.57148 19.2464 4.04207C19.2464 4.03366 19.2576 4.02526 19.2576 4.02526C19.098 3.45103 18.3781 2.96644 17.1036 2.5995C15.8291 2.23255 14.1344 2.02527 12.3361 2.02527C10.5378 2.02527 8.8431 2.23255 7.56019 2.5995C6.35291 2.94963 5.61342 3.43423 5.41734 3.98044C5.4225 3.98732 5.4245 3.98998 5.42526 3.99295C5.42575 3.99482 5.42575 3.99681 5.42575 4.00005ZM19.3052 5.35579C18.8375 5.71433 18.2016 6.00284 17.3865 6.23533C16.0195 6.62749 14.2296 6.84318 12.3473 6.84598C10.4677 6.84598 8.67783 6.63029 7.31089 6.23533C6.47616 6.00284 5.82911 5.69752 5.36132 5.33898V9.31375C5.61342 9.81515 6.43695 10.3166 7.5798 10.6499C8.86551 11.0196 10.549 11.2157 12.3473 11.2157C14.1456 11.2157 15.8403 11.0168 17.1148 10.6499C18.3781 10.2801 19.0699 9.72552 19.3052 9.30255V5.35579ZM12.3473 12.1093C14.238 12.1093 16.0279 11.8936 17.3865 11.4986C18.154 11.2829 18.8094 10.9776 19.3052 10.6107V14.5938C19.0699 15.0168 18.3781 15.5714 17.1148 15.9384C15.8403 16.3053 14.1456 16.5126 12.3473 16.5126C10.549 16.5126 8.86271 16.3053 7.5798 15.9384C6.43695 15.6078 5.61342 15.112 5.36132 14.6022V10.6219C5.85992 10.972 6.51258 11.2773 7.31089 11.5014C8.67783 11.8936 10.4649 12.1093 12.3473 12.1093ZM17.3865 16.7983C16.0279 17.1933 14.238 17.409 12.3473 17.409C10.4649 17.409 8.67783 17.1933 7.30809 16.7983C6.50978 16.563 5.84591 16.2605 5.35852 15.9104V19.4426C5.35852 20.1428 6.10081 20.7143 7.56019 21.1372C8.8543 21.5042 10.549 21.7115 12.3361 21.7115C14.126 21.7115 15.8207 21.507 17.1036 21.1372C18.5657 20.7171 19.3052 20.1428 19.3052 19.4426V15.902C18.8094 16.2689 18.154 16.5826 17.3865 16.7983Z" fill="#313235"/>
</svg>
