<svg width="24" height="24" viewBox="0 0 24 24" fill="none" xmlns="http://www.w3.org/2000/svg">
<path fill-rule="evenodd" clip-rule="evenodd" d="M4.48178 7.79549C4.68066 2.28291 9.89352 2 10.9579 2C11.7787 2 15.8123 2.17927 17.0616 5.70587C19.3865 5.92435 21.7114 7.35292 21.7114 10.8123C21.7114 14.6134 18.8711 15.9579 16.4397 15.9579L16.2772 15.9663V19.5882C16.2772 20.14 15.9747 20.8935 14.4929 21.3389C13.7254 21.5657 12.7338 21.6862 11.703 21.6862C10.661 21.6862 9.66943 21.5657 8.91033 21.3389C7.42855 20.8935 7.11762 20.14 7.11762 19.5882V16.0139H6.38093C4.2773 16.0139 2.02521 14.8851 2.02521 11.7254C2.02521 9.24647 3.40896 8.21566 4.48178 7.79549ZM16.28 11.2297V14.7478L16.4453 14.7394C17.3949 14.7394 20.4873 14.4565 20.4873 10.8095C20.4873 7.37253 17.7618 6.92715 16.591 6.89354C16.3109 6.88513 16.0812 6.70026 16.0083 6.43976C15.182 3.36694 11.6526 3.21288 10.9579 3.21288C9.72265 3.21288 5.70306 3.56022 5.70306 8.11482L5.71147 8.22126C5.71147 8.49577 5.5322 8.73106 5.26889 8.80389C3.93556 9.18484 3.25489 10.1652 3.25489 11.7226C3.25489 14.4957 5.43976 14.7955 6.38093 14.7955H7.11762V11.2297C7.11762 11.0924 7.13443 10.9635 7.17645 10.8403C7.35012 10.2241 7.93835 9.77028 8.90473 9.47896C10.4369 9.02518 12.9747 9.02518 14.4957 9.47896C15.9775 9.91593 16.28 10.6694 16.28 11.2297ZM11.703 10.3473C10.7787 10.3473 9.91033 10.4537 9.26327 10.647C8.80669 10.7787 8.55179 10.9299 8.42854 11.0644C8.54339 11.1848 8.80389 11.3473 9.27168 11.4846C10.5658 11.8739 12.8487 11.8739 14.1428 11.4846C14.6022 11.3473 14.8543 11.1904 14.9775 11.07C14.8403 10.9159 14.5518 10.7703 14.1428 10.6386C13.4873 10.4537 12.619 10.3473 11.703 10.3473ZM15.0504 13.8739C14.9523 14.0112 14.6806 14.2296 14.14 14.3865C12.8459 14.7759 10.563 14.7759 9.26887 14.3865C8.69465 14.2156 8.44255 14.014 8.34171 13.8907V12.4313C8.51258 12.5126 8.70305 12.5854 8.90753 12.6498C9.66663 12.8683 10.6582 12.9972 11.7002 12.9972C12.7394 12.9972 13.7282 12.8767 14.4901 12.6498C14.703 12.5854 14.8851 12.5126 15.0476 12.4397V13.8739H15.0504ZM14.14 17.2997C14.6806 17.1456 14.9523 16.9271 15.0504 16.7899V15.3389C14.8767 15.4201 14.6974 15.4929 14.5013 15.549C13.7366 15.7759 12.7394 15.8963 11.7086 15.8963C10.6582 15.8963 9.66943 15.7759 8.91594 15.549C8.70305 15.4845 8.51258 15.4117 8.34171 15.3389V16.8067C8.43414 16.9271 8.69465 17.1288 9.26887 17.2997C10.563 17.689 12.8459 17.689 14.14 17.2997ZM15.0504 19.5882C15.0504 19.7814 14.7058 20.0027 14.14 20.1708C12.8319 20.5601 10.563 20.5601 9.26047 20.1708C8.69745 19.9999 8.34451 19.7814 8.34451 19.5882V18.2604C8.51538 18.3333 8.70585 18.4061 8.91874 18.4705C9.67223 18.6974 10.661 18.8179 11.7114 18.8179C12.7422 18.8179 13.7394 18.6974 14.5041 18.4705C14.7002 18.4145 14.8795 18.3389 15.0532 18.2604V19.5882H15.0504Z" fill="#313235"/>
</svg>
