<svg width="24" height="24" viewBox="0 0 24 24" fill="none" xmlns="http://www.w3.org/2000/svg">
<path fill-rule="evenodd" clip-rule="evenodd" d="M21.6863 4.93001C21.6863 3.85158 20.8459 3.05046 19.1905 2.55467C18.0588 2.21573 16.5771 2.02806 15.0224 2.01965C13.465 2.01965 11.9832 2.20733 10.8516 2.54626C9.48185 2.95802 8.66672 3.58547 8.42863 4.4118C8.38101 4.57707 8.3558 4.74793 8.3558 4.9244V7.48182H8.33619C6.80679 7.48182 5.92164 8.06445 5.14293 8.57985L5.14207 8.58042C4.40299 9.07034 3.82039 9.45653 2.74518 9.28853C2.56591 9.24651 2.37543 9.28573 2.22978 9.40057C2.08692 9.51262 2.00008 9.68629 2.00008 9.87116C2.00008 9.87519 2.00008 9.88115 2.00007 9.88896C1.99977 10.2504 1.99611 14.5903 2.33062 16.4986C2.78159 19.0868 7.54068 21.3949 8.08129 21.6498C8.16252 21.689 8.25216 21.7086 8.33899 21.7086C8.42863 21.7086 8.51546 21.6918 8.5967 21.6526C8.84039 21.5378 9.94403 21.0028 11.1233 20.2157C12.2213 20.5098 13.5827 20.675 15.0196 20.675C16.5715 20.675 18.0532 20.4874 19.1905 20.1484C20.8459 19.6526 21.6863 18.8515 21.6863 17.7731V4.93001ZM9.63871 4.6639C9.80958 4.29976 10.3446 3.96362 11.1989 3.70592C12.2213 3.4006 13.5799 3.23253 15.0196 3.23253C16.4622 3.23253 17.8207 3.4034 18.8432 3.70872C19.4818 3.8992 20.2157 4.21572 20.4202 4.67791C20.2521 5.04205 19.7031 5.38098 18.8516 5.63588C17.8291 5.94121 16.4734 6.10927 15.0308 6.10927C13.5883 6.10927 12.2325 5.9384 11.2101 5.63308C10.3446 5.37258 9.80117 5.03085 9.63871 4.6639ZM9.56308 6.23812V7.63588C10.3894 7.84036 10.9888 8.22691 11.5323 8.58545C12.2717 9.07565 12.86 9.4622 13.9552 9.28853C14.1317 9.26332 14.3166 9.31094 14.451 9.42298C14.5855 9.53783 14.6723 9.70029 14.6751 9.87676C14.6751 9.91878 14.6751 10.1793 14.6723 10.5658C14.7127 10.5668 14.7528 10.568 14.7928 10.5693L14.793 10.5693L14.7933 10.5693H14.7933H14.7933H14.7933C14.8723 10.5718 14.951 10.5742 15.0308 10.5742C16.4734 10.5742 17.8291 10.4062 18.8516 10.0981C19.7927 9.81514 20.2997 9.39777 20.4762 9.09525V6.25213C20.1261 6.45661 19.7031 6.63588 19.1961 6.78714C18.0644 7.12607 16.5855 7.31375 15.028 7.31375C13.4706 7.31375 11.9916 7.12607 10.86 6.78714C10.3502 6.63308 9.91882 6.44821 9.56308 6.23812ZM13.1625 16.2969C12.888 17.8739 9.79837 19.7143 8.33899 20.4425C6.50147 19.535 3.76758 17.7199 3.52109 16.2941C3.27179 14.8739 3.22137 11.8599 3.21296 10.5322H3.22417C4.3804 10.5322 5.13371 10.0342 5.81129 9.58618L5.81239 9.58545L5.82143 9.57952C6.51837 9.12231 7.17875 8.68909 8.33899 8.68909H8.34179C9.50986 8.69189 10.1709 9.12607 10.8684 9.58825L10.8748 9.59244C11.5454 10.0339 12.2895 10.5238 13.4678 10.5238H13.4706C13.4691 10.6034 13.4685 10.69 13.4677 10.7819L13.4677 10.7822L13.4677 10.7824L13.4677 10.7826V10.7828C13.467 10.8653 13.4663 10.9521 13.465 11.042C13.4628 11.0518 13.4598 11.0612 13.4568 11.0707C13.452 11.0855 13.4471 11.1005 13.4454 11.1177C13.4435 11.1441 13.4493 11.1693 13.455 11.1941C13.4577 11.206 13.4604 11.2179 13.4622 11.2297C13.4454 12.4566 13.395 14.2465 13.2633 15.5266C13.2619 15.5378 13.2584 15.5476 13.2549 15.5574C13.2514 15.5672 13.2479 15.577 13.2465 15.5882C13.2449 15.5978 13.247 15.6064 13.249 15.6151C13.2506 15.6218 13.2521 15.6286 13.2521 15.6358C13.2269 15.8767 13.1961 16.1036 13.1625 16.2969ZM11.3054 13.7395C11.5491 13.7395 11.7479 13.9384 11.7479 14.1821V14.8151C11.7479 15.0588 11.5491 15.2577 11.3054 15.2577C11.0617 15.2577 10.8628 15.0616 10.8628 14.8151V14.6246H10.79C10.7844 15.0812 10.7423 15.5182 10.6359 15.9132L11.2241 16.0924C11.4202 16.1512 11.5491 16.3361 11.5379 16.5378L11.4874 17.4902C11.4734 17.7255 11.2802 17.9075 11.0449 17.9075H11.0225C10.7788 17.8935 10.5911 17.6863 10.6051 17.4426L10.6359 16.8347L10.2493 16.7171C9.89081 17.1793 9.30818 17.4818 8.33619 17.4818C7.36141 17.4818 6.77878 17.1793 6.42023 16.7143L6.01968 16.8347L6.05049 17.4426C6.06449 17.6863 5.87682 17.8935 5.63312 17.9075H5.60791C5.37262 17.9075 5.17934 17.7255 5.16534 17.4902L5.11492 16.5378C5.10371 16.3361 5.23256 16.1512 5.42864 16.0924L6.03368 15.9104C5.93004 15.5154 5.88802 15.0784 5.88242 14.6274H5.80959V14.8179C5.80959 15.0616 5.61071 15.2605 5.36702 15.2605C5.12332 15.2605 4.92444 15.0644 4.92444 14.8179V14.1849C4.92444 13.9412 5.12332 13.7423 5.36702 13.7423H5.90763C5.94124 13.3753 6.01407 13.0196 6.14853 12.7003L5.42864 12.4818C5.23256 12.423 5.10371 12.2381 5.11492 12.0364L5.16534 11.0812C5.17934 10.8375 5.38382 10.6527 5.63032 10.6639C5.87402 10.6779 6.06169 10.8852 6.04769 11.1289L6.01687 11.7367L6.41463 11.8571C6.40623 11.7843 6.39783 11.7115 6.39783 11.6331C6.39783 10.2381 7.75636 10.2381 8.33899 10.2381C8.92162 10.2381 10.2802 10.2381 10.2802 11.6331C10.2802 11.7087 10.2718 11.7787 10.2634 11.8487L10.6359 11.7367L10.6051 11.1289C10.5911 10.8852 10.7788 10.6779 11.0225 10.6639C11.269 10.6527 11.4762 10.8375 11.4874 11.0812L11.5379 12.0364C11.5491 12.2381 11.4202 12.423 11.2241 12.4818L10.5183 12.6947C10.6555 13.014 10.7255 13.3753 10.762 13.7423H11.3054V13.7395ZM7.28578 11.6331C7.28578 11.3333 7.28578 11.1205 8.34179 11.1205C9.39501 11.1205 9.39501 11.3333 9.39501 11.6331V11.6527C9.09529 11.5518 8.75076 11.4958 8.33899 11.4958C7.93003 11.4958 7.5855 11.549 7.28858 11.6499C7.28578 11.6443 7.28578 11.6415 7.28578 11.6331ZM9.91042 14.4874C9.91042 16.1428 9.57148 16.5966 8.33899 16.5966C7.1037 16.5966 6.76757 16.1456 6.76757 14.4846C6.76757 13.451 6.91323 12.8992 7.26057 12.6331C7.48746 12.4594 7.8404 12.3754 8.33899 12.3754C8.83479 12.3754 9.18493 12.4594 9.41182 12.6303C9.76196 12.8936 9.91042 13.4482 9.91042 14.4874ZM8.75636 13.4762C8.75636 13.2297 8.55748 13.0336 8.31378 13.0336C8.06729 13.0336 7.86841 13.2325 7.87121 13.4762V15.8459C7.87121 16.0924 8.07009 16.2885 8.31378 16.2885C8.55748 16.2885 8.75636 16.0896 8.75636 15.8459V13.4762ZM18.8432 18.9972C19.5882 18.7731 20.479 18.3781 20.479 17.7731V15.1821C20.1121 15.4034 19.6835 15.5938 19.2017 15.7395C18.07 16.0784 16.5883 16.2661 15.0336 16.2661C14.8965 16.2661 14.7627 16.2606 14.6295 16.2551C14.5504 16.2518 14.4715 16.2486 14.3922 16.2465C14.386 16.285 14.3803 16.3241 14.3747 16.3628C14.3677 16.4112 14.3608 16.459 14.353 16.5042C14.1793 17.4986 13.367 18.451 12.4034 19.2633C13.2017 19.3977 14.0897 19.4734 15.0196 19.4734C16.4566 19.4734 17.8151 19.3053 18.8432 18.9972ZM14.6583 11.7675C14.6387 12.7647 14.5995 13.9888 14.5154 15.0448C14.5741 15.0467 14.6322 15.0492 14.6901 15.0518H14.6901C14.8034 15.0567 14.9159 15.0616 15.0308 15.0616C16.4734 15.0616 17.8291 14.8935 18.8516 14.5854C19.7899 14.3025 20.2969 13.8851 20.4762 13.5854V10.6947C20.1093 10.916 19.6807 11.1065 19.1989 11.2521C18.0672 11.591 16.5855 11.7787 15.0308 11.7787C14.91 11.7787 14.7943 11.7736 14.6738 11.7682L14.6738 11.7682L14.6583 11.7675Z" fill="#313235"/>
</svg>
