<svg width="24" height="24" viewBox="0 0 24 24" fill="none" xmlns="http://www.w3.org/2000/svg">
<path fill-rule="evenodd" clip-rule="evenodd" d="M8.53714 3.96174C8.53779 3.96356 8.53779 3.96561 8.53779 3.96919C8.72826 4.5154 9.42574 4.98879 10.5798 5.33893C11.7983 5.71428 13.4033 5.92156 15.1064 5.92156C16.8179 5.92156 18.4145 5.71428 19.633 5.33893C20.7618 4.99999 21.4537 4.54341 21.6582 4.01961C21.6582 4.0112 21.6666 3.9944 21.6666 3.9944C21.5181 3.42297 20.8347 2.94118 19.6246 2.57423C18.4145 2.20169 16.8095 2.00281 15.098 2.00281C13.3949 2.00281 11.7815 2.20169 10.563 2.57423C9.41733 2.92157 8.71986 3.40336 8.52938 3.95238C8.53421 3.95721 8.53627 3.95926 8.53714 3.96174ZM15.1036 11.1876C13.4005 11.1876 11.7955 10.9888 10.577 10.6218C10.3725 10.5546 10.1736 10.4818 9.98596 10.4061L10.5378 11.5266C11.8039 11.8851 13.4089 12.084 15.1036 12.084C16.8963 12.084 18.6022 11.8683 19.8851 11.4706C20.619 11.2549 21.2352 10.9467 21.7142 10.5826V14.5686C21.4901 14.9831 20.8319 15.5406 19.6302 15.9159C18.4201 16.2801 16.8151 16.4873 15.1036 16.4873C14.3389 16.4873 13.605 16.4369 12.9131 16.3557L13.3809 17.3109C13.9411 17.3529 14.5182 17.3865 15.1008 17.3865C16.8935 17.3865 18.5994 17.1708 19.8823 16.7731C20.6162 16.5574 21.2324 16.2492 21.7114 15.8767V19.4229C21.7114 20.1204 21.0027 20.6946 19.619 21.1176C18.4005 21.4817 16.7871 21.6918 15.0924 21.6918C14.7955 21.6918 14.4985 21.6834 14.2044 21.6666C14.14 21.6834 14.0644 21.6918 13.9915 21.6918H13.9663L2.98879 21.6498C2.74789 21.6246 2.5014 21.5573 2.32213 21.3753C2.13165 21.1988 2.02521 20.9523 2.02521 20.6946C2.02521 20.5377 2.05882 20.3697 2.13165 20.2296L7.66944 9.22407C7.77588 8.99998 7.97476 8.8179 8.22126 8.73387C8.28305 8.7147 8.34645 8.71011 8.41271 8.70531C8.43357 8.7038 8.4547 8.70227 8.47616 8.70026V5.31092C8.91874 5.66946 9.52938 5.97478 10.3193 6.20727C11.619 6.60503 13.3165 6.82071 15.1008 6.82071C16.8879 6.82071 18.591 6.60503 19.8823 6.20727C20.6554 5.97478 21.266 5.68346 21.7114 5.32772V9.27449C21.4873 9.69745 20.8291 10.2549 19.6274 10.6274C18.4229 10.9888 16.8179 11.1876 15.1036 11.1876ZM8.80949 10.8151L11.4173 16.1064L11.9187 17.1288L13.5574 20.4425H13.1708L3.43417 20.4005L8.53779 10.2577L8.80949 10.8151ZM8.49017 17.9831C8.14843 17.9831 7.87392 17.703 7.87392 17.3613V13.3389C7.87392 12.9944 8.15123 12.717 8.49017 12.717C8.8291 12.717 9.10641 12.9972 9.10641 13.3389V17.3613C9.10641 17.7058 8.8291 17.9831 8.49017 17.9831ZM8.49017 18.3333C8.8375 18.3333 9.11761 18.6162 9.11761 18.9663C9.11761 19.3165 8.8375 19.5994 8.49017 19.5994C8.14283 19.5994 7.86272 19.3165 7.86272 18.9663C7.86272 18.6162 8.14283 18.3333 8.49017 18.3333Z" fill="#313235"/>
</svg>
