<svg width="24" height="24" viewBox="0 0 24 24" fill="none" xmlns="http://www.w3.org/2000/svg">
<path fill-rule="evenodd" clip-rule="evenodd" d="M15.9823 5.19995H5.23495C4.1603 5.19995 3.28822 6.04379 3.27687 7.08856H2.46664L2.37618 7.09449C2.05079 7.13753 1.79999 7.40948 1.79999 7.73855C1.79999 8.09752 2.09846 8.38853 2.46664 8.38853H3.27676V9.60635H2.46664L2.37618 9.61229C2.05079 9.65533 1.79999 9.92728 1.79999 10.2563C1.79999 10.6153 2.09846 10.9063 2.46664 10.9063H3.27676V12.1251H2.46664L2.37618 12.131C2.05079 12.1741 1.79999 12.446 1.79999 12.7751C1.79999 13.1341 2.09846 13.4251 2.46664 13.4251H3.27676V14.6629C3.27676 15.7178 4.15303 16.573 5.23495 16.573H5.27161C5.50052 17.7811 6.40046 18.4604 7.81641 18.4604C9.23374 18.4604 10.1347 17.7812 10.3638 16.573H14.3903C14.6192 17.7812 15.5194 18.4604 16.936 18.4604C18.3527 18.4604 19.2534 17.7811 19.4825 16.573H19.8418C20.9231 16.573 21.8 15.7176 21.8 14.6629V11.9486C21.8 11.5237 21.6549 11.1113 21.3879 10.776L17.5272 5.93704C17.1567 5.47212 16.5864 5.19995 15.9823 5.19995ZM15.6658 15.9329L15.6659 15.923C15.6659 15.0284 16.0194 14.6837 16.9361 14.6837C17.6972 14.6837 18.0705 14.9214 18.1754 15.5136C18.1969 15.6348 18.2071 15.7709 18.2071 15.9229C18.2071 16.8164 17.8538 17.1604 16.936 17.1604C16.022 17.1604 15.6684 16.8193 15.6658 15.9329ZM19.4825 15.2723L19.8418 15.273C20.1578 15.273 20.4195 15.0434 20.461 14.7457L20.4667 14.6629V11.9486C20.4667 11.8126 20.4203 11.6806 20.3351 11.5737L16.4745 6.73488C16.3564 6.58663 16.1747 6.49993 15.9823 6.49993H5.23495C4.88974 6.49993 4.61007 6.77274 4.61007 7.10918V14.6629C4.61007 15.0002 4.88968 15.273 5.23495 15.273L5.27024 15.2723L5.28228 15.2187C5.28827 15.19 5.29465 15.1616 5.30141 15.1335L5.30308 15.126C5.37646 14.8249 5.49424 14.5595 5.65377 14.3325C6.08595 13.7172 6.82458 13.3836 7.81641 13.3836C9.23378 13.3836 10.1347 14.0634 10.3638 15.2723H14.3892L14.3978 15.2339C14.6384 14.0491 15.5344 13.3836 16.936 13.3836C18.3527 13.3836 19.2534 14.0635 19.4825 15.2723ZM6.74613 15.0761C6.93914 14.8008 7.28217 14.6837 7.81713 14.6837C8.73433 14.6837 9.08758 15.0281 9.08821 15.9235L9.08836 15.9369C9.08467 16.8201 8.7302 17.1604 7.81641 17.1604C6.89979 17.1604 6.5471 16.8167 6.5471 15.9229C6.5471 15.5594 6.60532 15.2867 6.73587 15.0911L6.74613 15.0761Z" fill="#313235"/>
</svg>
