<svg width="24" height="24" viewBox="0 0 24 24" fill="none" xmlns="http://www.w3.org/2000/svg">
<path fill-rule="evenodd" clip-rule="evenodd" d="M20.8853 14.6067C20.3335 15.1978 19.538 15.4975 18.5296 15.4975L14.4679 15.5031V16.279H21.087C21.4259 16.2818 21.6948 16.5619 21.6892 16.8981C21.6948 17.2342 21.4231 17.5115 21.087 17.5171H14.4707V18.2874C14.4764 18.6235 14.2046 18.9009 13.8685 18.9065C10.8721 18.9065 8.61491 20.0816 8.51862 20.1318C8.51697 20.1326 8.51596 20.1332 8.51558 20.1333C8.43435 20.1726 8.34751 20.195 8.25788 20.1978C8.25368 20.1978 8.25017 20.1992 8.24667 20.2006C8.24317 20.202 8.23967 20.2034 8.23547 20.2034C8.13743 20.2006 8.04219 20.1782 7.95536 20.1305C7.93295 20.1165 5.63323 18.9037 2.60243 18.9037C2.2691 18.9037 2.00019 18.6263 2.00019 18.2846V9.9541C1.99459 9.63477 2.23548 9.36586 2.55481 9.33785C2.62204 9.33225 3.44556 9.27343 4.58282 9.39668V7.03253C4.58282 6.03254 4.85452 5.24262 5.38674 4.6796C5.93856 4.09977 6.72847 3.80565 7.73967 3.80565L18.5296 3.80005C19.5408 3.80005 20.3307 4.09136 20.8825 4.674C21.4147 5.23422 21.6864 6.02413 21.6864 7.02413V12.2482C21.6864 13.2482 21.4147 14.0409 20.8853 14.6067ZM13.2635 17.6796C11.3391 17.7692 9.75928 18.2706 8.83491 18.6376V11.4863C10.496 10.6768 12.3587 10.5591 13.2635 10.5563V17.6796ZM7.63043 18.6348C6.21587 18.0773 4.72007 17.7524 3.20467 17.6768V10.5591C3.68086 10.5619 4.42315 10.5984 5.26069 10.7468C5.44556 10.7804 5.63323 10.8168 5.82371 10.8617C5.83771 10.8645 5.85172 10.8687 5.86573 10.8729C5.87973 10.8771 5.89374 10.8813 5.90774 10.8841C6.07581 10.9261 6.24388 10.9681 6.41474 11.0213C6.49315 11.0465 6.57435 11.0745 6.65556 11.1025L6.65558 11.1025L6.65564 11.1026C6.77889 11.1418 6.89934 11.181 7.02259 11.2286C7.22707 11.307 7.43155 11.3939 7.63323 11.4919L7.63043 18.6348Z" fill="#313235"/>
</svg>
