<svg width="24" height="24" viewBox="0 0 24 24" fill="none" xmlns="http://www.w3.org/2000/svg">
<path fill-rule="evenodd" clip-rule="evenodd" d="M20.7927 9.89672C20.8935 9.99476 20.9552 10.1208 20.9972 10.2553C21.0308 10.3309 21.0476 10.4149 21.0448 10.5018V20.583C21.0448 21.2664 20.4622 21.8463 19.7675 21.8463H9.82352C9.12884 21.8463 8.54341 21.2664 8.54341 20.583V17.9695H4.2549C3.58543 17.9695 3 17.3897 3 16.7286V3.39813C3 2.72866 3.57423 2.16003 4.2549 2.16003H13.8207C14.5014 2.16003 15.0756 2.72586 15.0756 3.39813V5.45695H15.8795C16.098 5.45695 16.3081 5.54098 16.4678 5.69504L20.7927 9.89672ZM4.2549 3.41493L4.2521 16.7286L8.54341 16.7146V6.72025C8.54341 6.04798 9.14285 5.45695 9.82352 5.45695H13.8235V3.39813L4.2549 3.41493ZM9.79551 6.72025V20.583L19.7731 20.5858L19.7983 11.3421H18.042C17.1793 11.3421 16.4342 11.0592 15.8823 10.5242C15.3249 9.98355 15.0308 9.24966 15.0308 8.39812V6.71185H9.82352L9.79551 6.72025ZM16.2801 7.26087L19.1877 10.0872H18.0392C17.507 10.0872 17.0616 9.92753 16.7479 9.62221C16.4398 9.32249 16.2773 8.89952 16.2773 8.39812V7.26087H16.2801Z" fill="#313235"/>
</svg>
