<svg width="24" height="24" viewBox="0 0 24 24" fill="none" xmlns="http://www.w3.org/2000/svg">
<path fill-rule="evenodd" clip-rule="evenodd" d="M19.3271 7.91634C19.3579 7.98917 19.3747 8.0704 19.3747 8.16003V20.4682C19.3747 21.2133 18.7444 21.8463 17.9881 21.8463H5.99654C5.26265 21.8463 4.60999 21.2049 4.60999 20.4682L4.652 17.1684L4.60999 9.19085V3.53819C4.60999 2.8155 5.27105 2.16003 5.99654 2.16003H13.2963C13.5288 2.16003 13.75 2.24967 13.9097 2.41214L19.1198 7.53538C19.2234 7.64183 19.2879 7.77068 19.3271 7.91634ZM13.6324 3.8295V5.58861C13.6324 6.25527 13.8397 6.80429 14.2458 7.20205C14.652 7.59981 15.2262 7.80989 15.9125 7.80989H17.68L13.6324 3.8295ZM11.8397 14.3617C12.3579 14.3617 12.7556 14.7763 12.7556 15.2945C12.7556 15.8295 12.3579 16.2357 11.8481 16.2357C11.3215 16.2357 10.9237 15.8295 10.9237 15.3113V15.2945C10.9237 14.7735 11.3215 14.3617 11.8397 14.3617ZM15.8621 15.2945C15.8621 14.7763 15.4643 14.3617 14.9461 14.3617C14.4279 14.3617 14.0302 14.7735 14.0302 15.2945V15.3113C14.0302 15.8295 14.4279 16.2357 14.9545 16.2357C15.4643 16.2357 15.8621 15.8295 15.8621 15.2945ZM8.72203 14.3617C9.24864 14.3617 9.6464 14.7763 9.6464 15.2945C9.6464 15.8295 9.24864 16.2357 8.73043 16.2357C8.21223 16.2357 7.81447 15.8295 7.81447 15.3113V15.2945C7.81447 14.7735 8.21223 14.3617 8.72203 14.3617Z" fill="#313235"/>
</svg>
