<svg width="24" height="24" viewBox="0 0 24 24" fill="none" xmlns="http://www.w3.org/2000/svg">
<path fill-rule="evenodd" clip-rule="evenodd" d="M13.1933 10.8963C13.8571 10.9972 14.5238 11.1428 15.1624 11.4482C16.3585 12.0112 17.2045 13.126 17.4229 14.4313C17.675 15.8739 17.1988 17.3921 16.1456 18.493C15.3557 19.3165 14.3193 19.8571 13.1905 20.0336V20.6834C13.1905 21.2212 12.7675 21.6582 12.2465 21.6582C11.7255 21.6582 11.3025 21.2212 11.3025 20.6834V20.0504C9.89914 19.8683 8.56021 19.3417 7.40895 18.5154C6.98038 18.1988 6.87674 17.5994 7.17646 17.1568C7.18066 17.1512 7.18416 17.1463 7.18766 17.1414C7.19117 17.1365 7.19467 17.1316 7.19887 17.126C7.49859 16.7115 8.07842 16.6162 8.49298 16.9159C9.33052 17.5126 10.2941 17.9131 11.3081 18.0812V12.6022C10.2577 12.4201 9.17646 12.0924 8.31091 11.1624C7.5238 10.3165 7.16245 9.18766 7.29411 7.98318C7.46497 6.54341 8.24368 5.24649 9.43416 4.42016C9.99998 4.03641 10.6358 3.77591 11.3053 3.64706V2.97479C11.2969 2.44538 11.7199 2.0084 12.2493 2C12.7787 2.0084 13.2017 2.44538 13.1933 2.97479V3.59103C14.4313 3.7619 15.5994 4.27451 16.5658 5.07002C16.9692 5.41736 17.0308 6.0196 16.7002 6.43977C16.696 6.44537 16.6911 6.45097 16.6862 6.45657C16.6813 6.46218 16.6764 6.46778 16.6722 6.47338C16.3445 6.86273 15.7619 6.91035 15.3725 6.57982C14.7927 6.09523 14.014 5.72548 13.1933 5.57142V10.8963ZM9.67225 9.80951C9.17085 9.27169 9.12043 8.63864 9.17085 8.20167C9.26329 7.36694 9.77309 6.5238 10.4706 6.05041C10.7339 5.87394 11.0168 5.75629 11.3053 5.66386V10.605C10.661 10.4706 10.0924 10.2633 9.67225 9.80951ZM14.8067 17.1204C14.3557 17.5938 13.7955 17.8739 13.1933 18.0252V12.8739C13.6162 12.9524 14.0196 13.0476 14.3669 13.2157C15.2045 13.619 15.4846 14.2857 15.5714 14.7759C15.7087 15.5854 15.4173 16.4818 14.8067 17.1204Z" fill="#313235"/>
</svg>
