<svg width="24" height="24" viewBox="0 0 24 24" fill="none" xmlns="http://www.w3.org/2000/svg">
<path fill-rule="evenodd" clip-rule="evenodd" d="M15.2044 21.6918C16.3109 21.6918 17.1148 21.4257 17.6694 20.8795C18.224 20.3277 18.4957 19.5153 18.4957 18.4005V5.2913C18.4957 4.18767 18.2296 3.38375 17.675 2.82633C17.1204 2.26891 16.3137 2 15.2044 2H8.64984C7.549 2 6.74228 2.27731 6.18206 2.84313C5.62744 3.40616 5.35854 4.20447 5.35854 5.2913V18.4005C5.35854 19.5153 5.62744 20.3277 6.18486 20.8795C6.73668 21.4257 7.5434 21.6918 8.64984 21.6918H15.2044ZM6.47898 5.2913C6.47898 3.75069 7.10923 3.12044 8.64984 3.12044H15.2044C15.9999 3.12044 16.5518 3.28291 16.8823 3.61624C17.2128 3.94957 17.3753 4.49859 17.3753 5.2913V18.4005C17.3753 19.9831 16.7871 20.5714 15.2044 20.5714H8.64984C7.06721 20.5714 6.47898 19.9831 6.47898 18.4005V5.2913ZM11.5434 15.7394C11.6386 15.8487 11.7759 15.9131 11.9215 15.9131C12.0672 15.9131 12.2044 15.8487 12.2969 15.7394L15.605 11.9299C15.6862 11.8375 15.7282 11.7198 15.7282 11.5994C15.7282 11.3221 15.5042 11.1008 15.2268 11.1008H13.7367V6.23248C13.7423 6.20166 13.7423 6.17365 13.7423 6.14284C13.7395 5.66105 13.3501 5.2745 12.8683 5.2745H11.0308C10.7731 5.25209 10.5182 5.34172 10.3305 5.52099C10.1484 5.69186 10.0504 5.92996 10.0588 6.17925V11.1008H8.62183C8.50138 11.1008 8.38653 11.1456 8.2941 11.2241C8.08401 11.4033 8.06161 11.7198 8.24368 11.9299L11.5434 15.7394ZM11.9271 19.3585C11.5854 19.3585 11.2997 19.252 11.1064 19.0531C10.9131 18.8543 10.8179 18.5826 10.8179 18.2436C10.8179 17.5462 11.2325 17.1288 11.9299 17.1288C12.6274 17.1288 13.0392 17.5462 13.0392 18.2436C13.0392 18.5854 12.9411 18.8571 12.7507 19.0531C12.5602 19.2492 12.2689 19.3585 11.9271 19.3585ZM9.71986 12.1036L11.9215 14.6498L14.1316 12.1036H13.2381C12.9607 12.1036 12.7367 11.8795 12.7367 11.6022V6.27729H11.0616V11.6022C11.0616 11.8795 10.8375 12.1036 10.5602 12.1036H9.71986Z" fill="#313235"/>
</svg>
