<svg width="24" height="24" viewBox="0 0 24 24" fill="none" xmlns="http://www.w3.org/2000/svg">
<path fill-rule="evenodd" clip-rule="evenodd" d="M11.1036 21.3333C11.2829 21.5462 11.549 21.6694 11.8291 21.6694C12.1092 21.6694 12.3753 21.5462 12.5574 21.3333L21.4201 12.1905L21.4201 12.1904C21.4313 12.1792 21.4425 12.1681 21.4509 12.1569C21.7002 11.8543 21.7506 11.4314 21.5797 11.0784C21.4229 10.7367 21.0812 10.5182 20.7058 10.5182H16.745L16.7478 3.9216C16.7478 2.86838 15.8963 2.01685 14.8431 2.01685H8.81229C7.76188 2.01685 6.90754 2.87118 6.90754 3.9216V10.5182H2.97478C2.59943 10.5182 2.2605 10.7367 2.10364 11.0784C1.93277 11.4314 1.98319 11.8515 2.23249 12.1569C2.23809 12.1625 2.24299 12.1681 2.24789 12.1737C2.2528 12.1793 2.2577 12.1849 2.2633 12.1905L11.1036 21.3333ZM11.8319 20.521L3.21288 11.6078V11.605H7.02799C7.563 11.605 7.99997 11.1569 7.99997 10.6078V3.9216C7.99997 3.47342 8.36412 3.10648 8.81509 3.10648H14.8459C15.2969 3.10648 15.661 3.47342 15.661 3.9244L15.6582 10.6106C15.6582 11.1597 16.0952 11.6078 16.6302 11.6078H20.4733L11.8319 20.521Z" fill="#313235"/>
</svg>
