<svg width="24" height="24" viewBox="0 0 24 24" fill="none" xmlns="http://www.w3.org/2000/svg">
<path fill-rule="evenodd" clip-rule="evenodd" d="M20.9476 5.62909C21.0596 5.43172 20.9858 5.18027 20.7864 5.07213L17.1096 3.05246C17.0768 3.03354 17.0413 3.02002 17.003 3.01191C16.779 2.95783 16.555 3.09302 16.5004 3.31472L15.853 5.98057H6.25386C5.56001 5.98057 4.99729 6.53483 5.00002 7.26212L6.6281 20.7671C6.6281 21.4484 7.19083 22 7.88467 22H16.1234C16.8145 22 17.3773 21.4484 17.3745 20.8158L19.0135 7.21075C19.0135 6.53212 18.4481 5.97787 17.757 5.97787H16.708L17.1833 4.0285L20.3794 5.7859C20.5815 5.89675 20.8328 5.82646 20.9476 5.62909ZM6.25113 6.79709C6.01894 6.79709 5.82772 6.98094 5.82772 7.21075L6.11455 9.57108H14.9789L15.6536 6.79709H6.25113ZM16.5086 6.79709H17.7542C17.9892 6.79709 18.1776 6.98364 18.1804 7.16209L17.8908 9.57108H15.8311L16.5086 6.79709ZM17.7925 10.3903L16.5441 20.7725C16.5414 21.0023 16.3529 21.1862 16.1207 21.1862H7.88467C7.65248 21.1862 7.46126 20.9996 7.45853 20.7239L6.21289 10.3903H14.774L12.5531 19.5099V19.5126C12.5012 19.7316 12.6405 19.9506 12.8618 20.002H12.8645C13.0885 20.056 13.3098 19.9181 13.3644 19.6992L15.6317 10.3903H17.7925ZM9.97441 14.1322C10.7557 13.3671 10.1929 12.6912 10.0263 12.5235L9.94983 12.4478C9.85149 12.3559 9.54827 12.1045 9.14944 12.1045C8.90086 12.1045 8.61403 12.2018 8.31628 12.4938C7.54048 13.2562 8.10867 13.943 8.26711 14.1052L8.34633 14.1836C8.4474 14.2836 8.74242 14.527 9.13305 14.527C9.38164 14.5297 9.67119 14.4296 9.97441 14.1322ZM10.5617 14.7081C11.5397 13.7483 11.2993 12.6344 10.6246 11.953L10.6245 11.953C10.5945 11.9233 10.559 11.8882 10.5262 11.8611C10.3432 11.6881 9.84329 11.2879 9.14671 11.2879C8.78886 11.2879 8.25345 11.3961 7.72351 11.9179C6.75649 12.8669 6.99688 13.9835 7.66068 14.6703C7.68061 14.6918 7.70175 14.7121 7.7233 14.7329C7.73422 14.7434 7.74525 14.754 7.75629 14.7649C7.93931 14.9406 8.43374 15.3462 9.13032 15.3462C9.48817 15.3462 10.0263 15.2353 10.5617 14.7081ZM11.1654 18.0634C11.5998 17.6362 11.2883 17.2604 11.1955 17.1685C11.1818 17.155 11.1654 17.1387 11.1518 17.1279C11.0971 17.0766 10.9305 16.936 10.7065 16.936C10.5699 16.936 10.4087 16.99 10.2448 17.155C9.81324 17.5767 10.1301 17.9607 10.2148 18.0499L10.2585 18.0932C10.3159 18.1472 10.4798 18.2851 10.6956 18.2851C10.8349 18.2851 10.9961 18.2283 11.1654 18.0634ZM11.791 16.6007L11.7227 16.5331C11.597 16.4114 11.2283 16.1195 10.7065 16.1222C10.4388 16.1222 10.0372 16.2006 9.6548 16.5791C8.94457 17.2766 9.13305 18.1256 9.61383 18.6177L9.67666 18.6799C9.95529 18.9475 10.3268 19.1043 10.6956 19.1043C10.966 19.1043 11.3648 19.0259 11.7527 18.6447C12.4712 17.939 12.2745 17.0901 11.791 16.6007Z" fill="#313235"/>
</svg>
