<svg width="24" height="24" viewBox="0 0 24 24" fill="none" xmlns="http://www.w3.org/2000/svg">
<path fill-rule="evenodd" clip-rule="evenodd" d="M8.04482 9.49015V6.67502C8.04482 5.93553 7.47059 5.33609 6.7647 5.33889H5.66667C4.97479 5.33889 4.41176 5.91592 4.39216 6.6358V17.168C4.41176 17.8851 4.97479 18.4621 5.66667 18.4621H6.7647C7.47339 18.4621 8.04482 17.8655 8.04482 17.126V14.3109H8.05882V9.49015H8.04482ZM20.4062 6.78707C21.112 6.78707 21.6863 7.38651 21.6863 8.1232V15.6722C21.6863 16.4117 21.112 17.0084 20.4062 17.0084H20.1653V6.78426H20.4062V6.78707ZM2 8.126C2 7.38651 2.57143 6.78987 3.28011 6.78987H3.54062V17.014H3.28011C2.57423 17.014 2 16.4145 2 15.6778V8.126ZM8.91036 13.9187V9.8795H14.8039V13.9187H8.91036ZM19.3109 6.78707V6.67502C19.3109 5.93553 18.7395 5.33609 18.0308 5.33889H16.9328C16.2241 5.33889 15.6527 5.93553 15.6527 6.67502V17.1232C15.6527 17.8599 16.2269 18.4593 16.9328 18.4593H18.0308C18.7367 18.4593 19.3109 17.8627 19.3109 17.1232V17.0112H19.3137V6.78707H19.3109Z" fill="#313235"/>
</svg>
