<svg width="24" height="24" viewBox="0 0 24 24" fill="none" xmlns="http://www.w3.org/2000/svg">
<path fill-rule="evenodd" clip-rule="evenodd" d="M9.26892 10.4971C8.49302 9.06016 7.42579 8.07416 6.09526 7.56716C5.81795 7.46072 5.6779 7.1498 5.78434 6.86968C5.89078 6.59237 6.2017 6.45232 6.48182 6.55876C8.06164 7.1638 9.31935 8.31506 10.2185 9.98452L10.3109 10.161L9.53381 10.9829C9.50505 10.9503 9.48375 10.9126 9.465 10.8725C9.40058 10.7464 9.33615 10.6204 9.26892 10.4971ZM9.53465 10.9898C8.78986 11.5568 7.78255 11.8501 6.53224 11.8501C3.61908 11.8501 2.01404 10.259 2.01404 7.37108V4.48313C2.01404 3.57837 2.75073 2.84448 3.65549 2.84448H6.55745C7.97481 2.84448 9.08125 3.22263 9.84876 3.96773C10.6387 4.73804 11.042 5.87529 11.042 7.34867C11.042 8.49713 10.7927 9.43831 10.3109 10.161C11.224 12.0278 11.6393 14.2904 11.8457 16.1688C12.2292 14.8372 12.6919 13.6374 13.2233 12.6386C12.8373 11.9526 12.6387 11.0903 12.6387 10.0686C12.6387 8.59517 13.0392 7.45792 13.8319 6.68761C14.5994 5.94252 15.7059 5.56436 17.1232 5.56436H20.028C20.9328 5.56436 21.6667 6.29826 21.6695 7.20302V10.091C21.6695 12.9789 20.0644 14.5699 17.1513 14.5699C15.7815 14.5699 14.7283 14.2394 13.9664 13.5587C13.9951 13.5318 14.01 13.4911 14.0251 13.4499C14.0336 13.4267 14.0422 13.4034 14.0532 13.3823C15.1317 11.2366 16.479 10.0041 18.0588 9.71562C18.3529 9.6624 18.5462 9.38228 18.493 9.08817C18.4398 8.79405 18.1597 8.60077 17.8655 8.65399C16.0033 8.99285 14.4433 10.334 13.225 12.6383L13.9664 13.5587C13.1645 15.2125 12.5495 17.3143 12.1377 19.8124C12.1407 20.0644 11.9647 20.2917 11.7087 20.3458C11.4174 20.4075 11.1317 20.2198 11.07 19.9285L11.0658 19.9047L11.0616 19.8809C11.0095 19.5569 10.9815 19.0795 10.9461 18.475L10.944 18.4383L10.9387 18.3453C10.8321 16.4668 10.6594 13.4218 9.53465 10.9898Z" fill="#313235"/>
</svg>
