<svg width="24" height="24" viewBox="0 0 24 24" fill="none" xmlns="http://www.w3.org/2000/svg">
<path fill-rule="evenodd" clip-rule="evenodd" d="M21.0647 6.43137C21.6445 7.014 21.989 7.84873 21.9862 8.66386C21.9834 9.48178 21.6613 10.2325 21.0535 10.8319C20.9274 10.958 20.3168 11.507 19.4428 12.2885V17.5602C19.4428 18.7899 19.0955 19.7843 18.412 20.5126C17.6837 21.2913 16.6501 21.6862 15.3476 21.6862H6.38962C5.0843 21.6862 4.05629 21.2913 3.328 20.5126C2.64453 19.7843 2.29999 18.7899 2.29999 17.5602V6.17646C2.29999 3.59944 3.86861 2 6.39242 2H15.3476C17.6501 2 19.1571 3.36134 19.3924 5.56862C20.0199 5.68627 20.6137 5.98039 21.0647 6.43137ZM18.2383 17.5602C18.2383 18.4734 18.0002 19.1905 17.5353 19.689C17.0423 20.2157 16.3084 20.4818 15.3504 20.4818H6.39242C5.43444 20.4818 4.70054 20.2157 4.20755 19.689C3.73976 19.1905 3.50447 18.4762 3.50447 17.5602V6.17646C3.50447 4.2605 4.52968 3.20448 6.39242 3.20448H15.3504C17.0058 3.20448 17.9946 4.05602 18.1935 5.59383C17.6333 5.72268 17.1039 5.99999 16.6725 6.43137C16.4176 6.68627 12.6389 10.0392 9.21594 13.0672C9.03947 13.2213 8.90782 13.4202 8.83219 13.6442L7.57169 17.4033C7.40922 17.8851 7.53247 18.4117 7.89102 18.7731C8.14592 19.028 8.48205 19.1652 8.83779 19.1652C8.98065 19.1652 9.12071 19.1428 9.25796 19.098L13.0171 17.8543C13.1879 17.7983 13.3504 17.7059 13.4848 17.5854L13.6277 17.4594C15.1646 16.0988 16.8527 14.5983 18.2388 13.3662L18.2404 13.3648L18.2411 13.3641V17.5602H18.2383ZM20.2075 9.97478C19.9582 10.2213 17.2664 12.6218 12.8266 16.5546L12.6361 16.7087L8.87701 17.9524C8.82379 17.9664 8.77337 17.9552 8.73975 17.9215C8.70334 17.8851 8.69214 17.8347 8.70894 17.7871L10.0059 13.972C12.4596 11.8039 17.1879 7.61624 17.5185 7.28571C17.9162 6.88795 18.3868 6.71708 18.8462 6.71708C19.3616 6.71708 19.8602 6.93277 20.2131 7.28571C20.5717 7.64425 20.7846 8.15966 20.7818 8.66106C20.7818 9.15125 20.5829 9.60503 20.2075 9.97478Z" fill="#313235"/>
</svg>
