<svg width="24" height="24" viewBox="0 0 24 24" fill="none" xmlns="http://www.w3.org/2000/svg">
<path fill-rule="evenodd" clip-rule="evenodd" d="M19.4146 12.4075H21.0728C21.4146 12.4103 21.6891 12.6876 21.6919 13.0265C21.6919 13.3655 21.4174 13.6428 21.0784 13.6456H18.8067C18.5406 14.1358 18.2549 14.6288 17.9412 15.119C16.8936 16.766 16.056 17.8304 14.6359 19.3178L14.6023 19.3542C14.4622 19.4999 13.9748 20.0013 13.5602 20.301C13.2045 20.5615 12.8011 20.7436 12.4006 20.8304C12.2801 20.8584 12.1569 20.8781 12.0336 20.8837H12.0196C12.0018 20.8837 11.9846 20.8843 11.967 20.885C11.9489 20.8857 11.9304 20.8865 11.9104 20.8865H11.8768C11.8404 20.8865 11.8039 20.8865 11.7703 20.8837H11.7535C11.6303 20.8752 11.507 20.8584 11.3866 20.8304C10.9832 20.7436 10.5827 20.5615 10.2269 20.301C9.81235 19.9985 9.32496 19.4999 9.1849 19.3542C7.74233 17.8472 6.90199 16.78 5.84597 15.119C5.51264 14.598 5.21012 14.0797 4.93001 13.5615H2.61349C2.27455 13.5615 2.00004 13.2842 2.00004 12.9425C1.99724 12.6008 2.27175 12.3234 2.61349 12.3206H4.32217C3.80676 11.1974 3.4062 10.0826 3.1485 8.99012C2.6387 6.82766 3.05886 5.02935 4.33057 3.92851C5.06446 3.28985 6.07006 2.9061 7.15409 2.85008C7.24933 2.84448 7.34457 2.84167 7.43981 2.84167C8.49303 2.84167 9.57426 3.13579 10.5799 3.70162C10.9524 3.9117 11.339 4.13579 11.7563 4.38789C11.8404 4.43551 11.944 4.43551 12.028 4.38789C12.4174 4.1526 12.8095 3.92571 13.2073 3.70162C14.2129 3.13579 15.2913 2.84167 16.3446 2.84167C16.4398 2.84167 16.5378 2.84448 16.6331 2.85008C17.7171 2.9061 18.7199 3.28985 19.4566 3.92851C20.7227 5.02935 21.1429 6.82766 20.6331 8.99012C20.3698 10.1078 19.9524 11.2534 19.4146 12.4075ZM4.33897 8.70161C4.10928 7.72402 3.9048 5.9257 5.12329 4.86968C5.6555 4.4075 6.39779 4.13019 7.21292 4.08817L7.22073 4.08788L7.22074 4.08788C7.29358 4.08518 7.36399 4.08257 7.43701 4.08257C8.28294 4.08257 9.16249 4.32627 9.98042 4.78565C10.3446 4.99013 10.7199 5.20862 11.1485 5.46912C11.6135 5.73523 12.1877 5.72962 12.6499 5.45792C13.0588 5.21142 13.4342 4.99293 13.7983 4.78565C14.6191 4.32627 15.4986 4.08257 16.3417 4.08257C16.4146 4.08257 16.493 4.08537 16.5658 4.08817C17.381 4.13019 18.1233 4.4075 18.6555 4.86968C19.874 5.9257 19.6695 7.72682 19.437 8.70161C19.1541 9.90609 18.6779 11.1498 18.0448 12.4075H16.1709L14.9244 8.80805C14.846 8.54754 14.6023 8.37668 14.3305 8.39348C14.0644 8.40189 13.8319 8.58116 13.7591 8.83886L12.7283 12.4075H11.7059C11.4342 12.4075 11.1961 12.5868 11.1205 12.8473L10.6975 14.2478L9.13448 6.32626C9.08126 6.04895 8.84877 5.84447 8.56586 5.82766C8.28294 5.80525 8.02244 5.99013 7.94681 6.26464L6.09527 12.3206H5.68351C5.08127 11.091 4.61628 9.88368 4.33897 8.70161ZM16.9048 14.4467C15.9048 16.0209 15.1093 17.0321 13.7507 18.4523L13.7087 18.4943L13.6919 18.5139C13.451 18.7632 13.0953 19.1049 12.8376 19.2898C12.6219 19.4495 12.3754 19.5615 12.1121 19.6203C12.0672 19.6316 12.0196 19.6372 11.972 19.64H11.9048L11.8684 19.6428L11.8236 19.64H11.8123C11.7535 19.6372 11.6947 19.626 11.6359 19.6147C11.381 19.5559 11.1429 19.4439 10.9328 19.2898C10.6667 19.0965 10.2941 18.738 10.056 18.4887C8.6863 17.0517 7.88238 16.0321 6.87398 14.4467C6.73731 14.2325 6.61401 14.0168 6.49109 13.8018L6.49108 13.8018C6.44522 13.7216 6.39941 13.6415 6.35297 13.5615H6.55185C6.82356 13.5615 7.05885 13.3823 7.13729 13.1246L8.40899 8.96491L9.97482 16.9061C10.0308 17.1862 10.2633 17.3907 10.5462 17.4047H10.5771C10.8488 17.4047 11.0841 17.2254 11.1625 16.9649L12.1625 13.6484H13.1877C13.4594 13.6484 13.6975 13.4691 13.7759 13.203L14.4034 11.0377L15.1625 13.2338C15.2465 13.4803 15.479 13.6484 15.7395 13.6484H17.3754C17.3343 13.7193 17.294 13.7903 17.2537 13.8613C17.1429 14.0564 17.0321 14.2515 16.9048 14.4467Z" fill="#313235"/>
</svg>
