<svg width="24" height="24" viewBox="0 0 24 24" fill="none" xmlns="http://www.w3.org/2000/svg">
<path fill-rule="evenodd" clip-rule="evenodd" d="M21.4569 18.9555C21.8882 18.4373 21.8602 17.7987 21.835 17.5914L21.8434 8.56618C21.821 7.63061 21.4288 7.15442 21.0759 6.90512L14.2972 2.62782C14.23 2.5774 13.6165 2.16003 12.7398 2.16003C12.202 2.16284 11.6754 2.3169 11.2216 2.60821L4.51571 6.8379L4.38686 6.92193C4.06193 7.15722 3.66697 7.63061 3.64736 8.58019V9.47094C2.88546 10.4429 2.35045 11.7202 2.20199 13.3757C2.17398 13.6922 2.15997 14.0228 2.15997 14.3701C2.15997 21.3841 8.13475 21.8267 9.33083 21.8435C9.54931 21.8463 9.7678 21.8435 9.98349 21.8407C10.835 21.8267 13.5493 21.6054 15.3868 19.6026C17.3028 19.6026 19.5549 19.5998 19.9302 19.5942C20.7678 19.5774 21.2216 19.2384 21.4569 18.9555ZM11.8938 3.60821L5.07033 7.91913C4.9919 7.97515 4.93308 8.104 4.89666 8.28047C6.19358 7.3561 7.78181 6.95274 9.28881 6.93874C9.5073 6.93593 9.75379 6.93874 9.96108 6.94434C12.5045 7.00596 15.3112 8.14602 16.5297 11.02L20.6221 8.46814C20.5997 8.19644 20.5213 7.99195 20.3952 7.89952L20.3168 7.8491L13.6193 3.62502C13.3616 3.45975 13.0591 3.37012 12.751 3.36451C12.2808 3.36451 11.9329 3.58367 11.8969 3.60635L11.8938 3.60821ZM14.9303 18.2496C13.4625 20.4121 10.7566 20.625 9.96108 20.639C9.779 20.6418 9.55772 20.6446 9.35043 20.6418C7.94708 20.6222 3.37005 20.1096 3.37005 14.3701C3.37005 14.062 3.38406 13.7651 3.40927 13.4821C3.84344 8.56898 8.02551 8.15442 9.30281 8.14041H9.45127C9.61374 8.14041 9.78461 8.14321 9.93307 8.14602C11.1908 8.17963 15.3448 8.64181 15.8854 13.3225C15.9246 13.6642 15.9443 14.0312 15.9443 14.4093C15.9443 15.9695 15.6025 17.2608 14.9303 18.2496ZM13.8462 14.527C13.8462 14.2356 13.6137 14.0031 13.3224 14.0031C13.3224 14.0031 12.6361 14.0031 12.6361 14.0087C12.5941 13.5466 12.5017 13.0984 12.328 12.6978L13.2216 12.4317C13.4513 12.3617 13.6081 12.1432 13.5941 11.9023L13.5297 10.737C13.5157 10.4485 13.2776 10.2609 12.9779 10.2441C12.6894 10.2581 12.4681 10.5046 12.4821 10.7931L12.5241 11.5466L12.0143 11.6978C12.0255 11.6054 12.0367 11.5102 12.0367 11.4093C12.0367 9.72024 10.3728 9.72024 9.66136 9.72024C8.94987 9.72024 7.28601 9.72024 7.28601 11.4093C7.28601 11.5074 7.29442 11.6082 7.31122 11.7062L6.77061 11.5438L6.81262 10.7875C6.82663 10.499 6.60534 10.2553 6.31683 10.2384C6.02551 10.2553 5.78181 10.4429 5.76501 10.7314L5.70058 11.8967C5.68938 12.1376 5.84344 12.3561 6.07593 12.4233L6.98629 12.6978C6.81262 13.0956 6.72299 13.5438 6.68097 14.0031H5.9947C5.70618 14.0031 5.47089 14.2384 5.47089 14.527V15.3001C5.47089 15.5886 5.70618 15.8211 5.9947 15.8211C6.28321 15.8239 6.51851 15.5886 6.51851 15.3001V15.048H6.64736C6.65296 15.6138 6.69778 16.16 6.82943 16.6502L6.07593 16.8771C5.84344 16.9443 5.68938 17.1628 5.70338 17.4037L5.76781 18.569C5.78462 18.8463 6.01431 19.062 6.29162 19.062H6.32243C6.61094 19.048 6.83223 18.8015 6.81823 18.5129L6.77621 17.7566L7.28601 17.6026C7.72579 18.1768 8.45688 18.541 9.66136 18.541C10.8602 18.541 11.5885 18.1796 12.0311 17.6082L12.5241 17.7566L12.4821 18.5129C12.4681 18.8015 12.6894 19.048 12.9779 19.062H13.0059C13.2832 19.062 13.5129 18.8463 13.5297 18.569L13.5941 17.4037C13.6081 17.1628 13.4541 16.9471 13.2216 16.8771L12.4849 16.6558C12.6193 16.1656 12.6642 15.6166 12.6698 15.048H12.7986V15.3001C12.7986 15.5886 13.0339 15.8211 13.3224 15.8211C13.6109 15.8239 13.8462 15.5886 13.8462 15.3001V14.527ZM8.33643 11.4093C8.33643 11.0508 8.33643 10.7651 9.66136 10.7651C10.9863 10.7651 10.9863 11.0508 10.9863 11.4093C10.9863 11.4191 10.9856 11.4268 10.9849 11.4345C10.9842 11.4422 10.9835 11.4499 10.9835 11.4597C10.6109 11.3281 10.1768 11.2581 9.65856 11.2581C9.14315 11.2581 8.71178 11.3281 8.33923 11.4569C8.33923 11.4485 8.33853 11.4408 8.33783 11.4331C8.33713 11.4254 8.33643 11.4177 8.33643 11.4093ZM9.62494 13.1404C9.33643 13.1404 9.10113 13.3729 9.10113 13.6614V16.5578C9.10113 16.8463 9.33643 17.0788 9.62494 17.0788C9.91346 17.0788 10.1488 16.8463 10.1488 16.5578V13.6614C10.1488 13.3729 9.91626 13.1404 9.62494 13.1404Z" fill="#313235"/>
</svg>
