<svg width="24" height="24" viewBox="0 0 24 24" fill="none" xmlns="http://www.w3.org/2000/svg">
<path fill-rule="evenodd" clip-rule="evenodd" d="M10.8658 11.471C10.9303 11.5158 11.7958 12.1068 12.7622 11.4766L21.6165 6.08444C21.2524 5.2245 20.4793 5.02562 20.1123 5.02282L3.89106 5.02002C3.40647 5.02002 2.9919 5.18809 2.68938 5.50741C2.52132 5.68388 2.40927 5.88836 2.33084 6.09005L10.8658 11.471ZM21.4092 18.2637C21.8658 17.7147 21.8266 17.0424 21.8014 16.8267L21.8154 7.36175L13.4064 12.485C12.8518 12.8491 12.314 12.9696 11.8434 12.9696C10.9051 12.9696 10.2272 12.4906 10.1852 12.4598L2.15997 7.40097V16.8687C2.15997 17.5494 2.35605 18.0816 2.737 18.4542C3.2272 18.9304 3.82664 18.936 3.88826 18.9332C3.97539 18.9332 4.35393 18.9337 4.94038 18.9346C6.9559 18.9376 11.4271 18.9444 14.9639 18.9444C17.328 18.9444 19.2748 18.9416 19.793 18.9332C20.6809 18.9163 21.1627 18.5606 21.4092 18.2637Z" fill="#313235"/>
</svg>
