<svg width="24" height="24" viewBox="0 0 24 24" fill="none" xmlns="http://www.w3.org/2000/svg">
<path fill-rule="evenodd" clip-rule="evenodd" d="M21.457 18.964C21.8883 18.4457 21.8603 17.8071 21.8351 17.5998L21.8379 8.569C21.8155 7.63342 21.4233 7.15723 21.0704 6.90793L14.2917 2.62782C14.2245 2.5802 13.611 2.16003 12.7343 2.16003C11.8715 2.16003 11.2581 2.5802 11.2189 2.60821L4.51578 6.84071L4.38692 6.92474C4.062 7.16003 3.66984 7.63342 3.64743 8.583V9.47376C2.88552 10.4457 2.34771 11.7231 2.20205 13.3785C2.17404 13.695 2.16003 14.0256 2.16003 14.3729C2.16003 21.3897 8.13482 21.8295 9.3337 21.8491C9.40653 21.8519 9.47936 21.8519 9.55219 21.8519C9.70345 21.8519 9.85471 21.8491 9.98356 21.8463C10.8351 21.8323 13.5494 21.611 15.3869 19.6082C17.3029 19.6082 19.5578 19.6054 19.9303 19.5998C20.7679 19.5858 21.2217 19.2469 21.457 18.964ZM11.8939 3.61662L5.0704 7.92754C4.99197 7.98356 4.93314 8.11242 4.89673 8.28889C6.19085 7.36452 7.78188 6.96115 9.28889 6.94715C9.50737 6.94435 9.75387 6.94715 9.96115 6.95275C12.5046 7.01438 15.3113 8.15443 16.5298 11.0284L20.6222 8.47656C20.5998 8.20485 20.5242 8.00037 20.3953 7.90793L20.3169 7.85751L13.6194 3.63062C13.5914 3.61101 13.2329 3.37012 12.7539 3.37012C12.281 3.37279 11.933 3.59203 11.897 3.61475L11.8939 3.61662ZM14.9303 18.2581C13.4626 20.4205 10.7567 20.6334 9.96115 20.6474C9.77908 20.6502 9.55779 20.653 9.35331 20.6474C7.94995 20.6278 3.37292 20.1152 3.37292 14.3757C3.37292 14.0676 3.38692 13.7707 3.41214 13.4878C3.84911 8.5746 8.03118 8.16003 9.30289 8.14883H9.45135C9.61382 8.14883 9.78468 8.15163 9.93314 8.15443C11.1936 8.18805 15.3449 8.65023 15.8855 13.3309C15.9247 13.6754 15.9443 14.0396 15.9443 14.4177C15.9443 15.978 15.6026 17.2693 14.9303 18.2581ZM13.3225 14.0116C13.6138 14.0116 13.8463 14.2441 13.8463 14.5354V15.3085C13.8463 15.597 13.611 15.8295 13.3225 15.8295C13.0312 15.8295 12.7987 15.597 12.7987 15.3085V15.0564H12.6698C12.6642 15.625 12.6194 16.174 12.485 16.6642L13.2217 16.8855C13.4542 16.9556 13.6082 17.1712 13.5942 17.4121L13.5326 18.5774C13.5186 18.8547 13.2861 19.0704 13.0088 19.0704H12.9808C12.6922 19.0536 12.471 18.8099 12.485 18.5214L12.527 17.7651L12.034 17.6166C11.5942 18.1852 10.8631 18.5494 9.66144 18.5494C8.45695 18.5494 7.72586 18.1852 7.28608 17.611L6.77348 17.7651L6.8155 18.5214C6.8295 18.8099 6.60821 19.0564 6.3197 19.0704H6.29169C6.01438 19.0704 5.78188 18.8547 5.76788 18.5774L5.70625 17.4121C5.69225 17.1712 5.84631 16.9528 6.0788 16.8855L6.8351 16.6586C6.70065 16.1684 6.65863 15.6222 6.65303 15.0564H6.52418V15.3085C6.52418 15.597 6.28889 15.8295 6.00037 15.8295C5.70905 15.8295 5.47656 15.597 5.47656 15.3085V14.5354C5.47656 14.2469 5.71185 14.0116 6.00037 14.0116H6.68665C6.72866 13.5522 6.8211 13.1068 6.99197 12.7063L6.0816 12.4345C5.84911 12.3645 5.69505 12.146 5.70905 11.9051L5.77068 10.7399C5.78468 10.4514 6.03118 10.2637 6.3225 10.2469C6.61382 10.2609 6.8351 10.5074 6.8183 10.7959L6.77628 11.5522L7.3169 11.7147C7.30289 11.6194 7.29169 11.5214 7.29169 11.4177C7.29169 9.72866 8.95835 9.72866 9.66704 9.72866C10.3785 9.72866 12.0424 9.72866 12.0424 11.4177C12.0424 11.5186 12.0312 11.6138 12.02 11.7063L12.5298 11.555L12.4878 10.7987C12.4738 10.5102 12.695 10.2637 12.9836 10.2497C13.2833 10.2665 13.5214 10.4542 13.5354 10.7427L13.597 11.9079C13.611 12.1488 13.457 12.3673 13.2245 12.4373L12.3309 12.7035C12.5046 13.1012 12.597 13.5522 12.639 14.0144H13.3225V14.0116ZM8.3365 11.4177C8.3365 11.0592 8.3365 10.7735 9.66144 10.7735C10.9864 10.7735 10.9864 11.0592 10.9864 11.4177C10.9864 11.4275 10.9857 11.4352 10.985 11.4429C10.9843 11.4507 10.9836 11.4584 10.9836 11.4682C10.611 11.3365 10.1768 11.2665 9.65863 11.2665C9.14323 11.2665 8.71185 11.3365 8.33931 11.4654C8.33931 11.4573 8.33866 11.4505 8.33799 11.4434C8.33726 11.4358 8.3365 11.4279 8.3365 11.4177ZM11.6222 14.9079C11.6222 16.9471 11.1992 17.5046 9.65863 17.5046C8.11522 17.5046 7.69225 16.9471 7.69225 14.9079C7.69225 13.639 7.87712 12.9584 8.31129 12.6306C8.59701 12.4149 9.03678 12.3113 9.65863 12.3113C10.2749 12.3113 10.7119 12.4149 10.9976 12.625C11.4345 12.95 11.6222 13.6334 11.6222 14.9079ZM10.1488 13.6698C10.1488 13.3813 9.91634 13.1488 9.62502 13.1488C9.3365 13.1488 9.10121 13.3813 9.10121 13.6698V16.5662C9.10121 16.8547 9.3365 17.0872 9.62502 17.0872C9.91354 17.0872 10.1488 16.8547 10.1488 16.5662V13.6698ZM20.5186 18.2021C20.6612 18.0353 20.6332 17.7574 20.6308 17.7331L20.6306 17.7315L20.6222 17.6362L20.6278 9.89113L16.9079 12.2077C16.9808 12.5214 17.0452 12.8435 17.0844 13.188C17.1292 13.5774 17.1516 13.992 17.1516 14.4121C17.1516 15.9668 16.8267 17.2945 16.2245 18.4009C17.8995 18.4009 19.5914 18.3981 19.9079 18.3925C20.1124 18.3953 20.3869 18.3561 20.5186 18.2021Z" fill="#313235"/>
</svg>
