<svg width="24" height="24" viewBox="0 0 24 24" fill="none" xmlns="http://www.w3.org/2000/svg">
<path fill-rule="evenodd" clip-rule="evenodd" d="M21.4933 18.9724C21.9415 18.4345 21.8378 17.7539 21.8322 17.7483L21.8378 8.50177C21.8182 7.62502 21.4625 7.19365 21.1516 6.97236L14.2216 2.59701C14.221 2.59661 14.2201 2.59597 14.2188 2.59511C14.1676 2.56026 13.5794 2.16003 12.7538 2.16003C12.244 2.16284 11.7454 2.31129 11.314 2.5858L4.4709 6.90513L4.35045 6.98356C4.05353 7.19365 3.69779 7.62502 3.67818 8.51017V9.49337C2.89947 10.4626 2.35045 11.7483 2.20199 13.4205C2.17678 13.7371 2.15997 14.0704 2.15997 14.4177C2.15997 21.3869 8.08994 21.8267 9.28042 21.8463H9.49891H9.49922C9.65038 21.8463 9.80432 21.8463 9.93588 21.8435C10.793 21.8295 13.5437 21.6054 15.3645 19.5578C15.5427 19.5575 15.7242 19.5573 15.9071 19.557C17.7482 19.5545 19.7383 19.5517 20.0899 19.5466C20.7118 19.5354 21.1852 19.3421 21.4933 18.9724ZM4.81544 7.66143C4.62496 7.79589 4.51291 8.09561 4.50451 8.52138V8.65863C5.84905 7.53538 7.58854 7.05359 9.23 7.03959C9.45409 7.03679 9.70339 7.03959 9.90787 7.04519C12.4961 7.10681 15.3561 8.29729 16.5129 11.3085L20.9891 8.51858L21.0143 8.51017C21.0031 8.09561 20.8939 7.79589 20.6866 7.65023L20.5969 7.59421L13.7622 3.27768C13.7426 3.26368 13.328 2.98356 12.7678 2.98356C12.1908 2.98356 11.7818 3.26368 11.779 3.26648C11.7762 3.26368 4.81544 7.66143 4.81544 7.66143ZM15.16 18.4934C13.6054 20.7819 10.7566 21.0088 9.91908 21.0228C9.7342 21.0256 9.50171 21.0256 9.29163 21.0256C7.80983 21.0032 2.9835 20.4626 2.9835 14.4177C2.9835 14.1096 2.99751 13.8015 3.02272 13.4934C3.4821 8.30569 7.89667 7.86592 9.2384 7.85471H9.39247C9.55773 7.85471 9.7258 7.85471 9.89107 7.86031C11.2188 7.89393 15.5941 8.38132 16.1656 13.3253C16.2076 13.6838 16.23 14.0648 16.23 14.457C16.23 16.09 15.8687 17.4457 15.16 18.4934ZM20.8575 18.4485C21.06 18.2055 21.0178 17.8451 21.0145 17.8172L21.0143 17.8155L21.0171 9.46816L16.7734 12.1124C16.8631 12.4682 16.9415 12.8351 16.9863 13.2329C17.0311 13.6222 17.0535 14.034 17.0535 14.4598C17.0535 16.1544 16.6782 17.5858 15.9611 18.7371C17.7818 18.7371 19.7286 18.7343 20.0759 18.7287C20.4457 18.7203 20.709 18.6278 20.8575 18.4485ZM13.3504 14.1684C13.5773 14.1684 13.7622 14.3533 13.7622 14.5774V15.3673C13.7622 15.5942 13.5773 15.7763 13.3504 15.7763H13.3476C13.1208 15.7763 12.9359 15.5942 12.9359 15.3673V14.9836H12.5577C12.5549 15.6866 12.4905 16.3057 12.3308 16.8267L13.2076 17.09C13.3897 17.1432 13.5101 17.3141 13.5017 17.5046L13.4373 18.695C13.4233 18.9135 13.244 19.0844 13.0255 19.0816H13.0031C12.7762 19.0704 12.6026 18.8771 12.6138 18.6502L12.6614 17.7819L11.9863 17.5802C11.5521 18.1964 10.8182 18.5494 9.60815 18.5494C8.39247 18.5494 7.65857 18.1936 7.2244 17.5774L6.53252 17.7847L6.57734 18.653C6.58854 18.8799 6.41488 19.0732 6.18798 19.0844H6.16558C5.94709 19.0844 5.76782 18.9163 5.75381 18.6978L5.68938 17.5074C5.67818 17.3169 5.79863 17.146 5.9807 17.0928L6.87706 16.8239C6.7174 16.3029 6.65297 15.6866 6.65017 14.9864H6.27762V15.3673C6.27762 15.5942 6.09275 15.7763 5.86586 15.7763H5.86305C5.63616 15.7763 5.45129 15.5942 5.45129 15.3673V14.5746C5.45129 14.3477 5.63616 14.1656 5.86305 14.1656H6.68098C6.723 13.6194 6.82664 13.09 7.05353 12.6362L5.9835 12.3169C5.80143 12.2637 5.68098 12.0928 5.69219 11.9023L5.75661 10.7119C5.76502 10.4906 5.94989 10.3169 6.17398 10.3225H6.19079C6.41768 10.3337 6.59135 10.527 6.58014 10.7539L6.53532 11.6222L7.37286 11.8743C7.33084 11.7175 7.31123 11.555 7.31123 11.3925C7.31123 9.79309 8.86586 9.79309 9.61375 9.79309C10.3589 9.79309 11.9135 9.79309 11.9135 11.3925C11.9135 11.5662 11.8911 11.7203 11.8547 11.8631L12.6614 11.6222L12.6138 10.7539C12.6026 10.527 12.7762 10.3365 13.0031 10.3225C13.2664 10.3113 13.4261 10.4822 13.4373 10.7091L13.5017 11.8995C13.5129 12.09 13.3897 12.2609 13.2076 12.3141L12.1572 12.6278C12.3841 13.0816 12.4905 13.6138 12.5325 14.1628C12.5325 14.1684 13.3504 14.1684 13.3504 14.1684ZM8.13476 11.3981C8.13476 10.9107 8.2328 10.6166 9.61095 10.6166C10.9891 10.6166 11.0871 10.9107 11.0871 11.3981C11.0871 11.485 11.0815 11.5578 11.0703 11.6194C10.6754 11.4542 10.1964 11.3673 9.60815 11.3673C9.02272 11.3673 8.54653 11.4542 8.15157 11.6166C8.14037 11.555 8.13476 11.4822 8.13476 11.3981ZM11.737 14.9584C11.737 17.1096 11.258 17.7315 9.60815 17.7315C7.95549 17.7315 7.4793 17.1096 7.4821 14.9584C7.4821 13.6194 7.68378 12.8967 8.15997 12.5354C8.4709 12.3001 8.94429 12.1852 9.60815 12.1852C10.2664 12.1852 10.737 12.2973 11.0507 12.5298C11.5325 12.8855 11.737 13.6138 11.737 14.9584ZM9.9863 13.6978C9.9863 13.4738 9.80143 13.2889 9.57454 13.2889C9.34765 13.2861 9.16277 13.471 9.16277 13.6978V16.653C9.16277 16.8799 9.34765 17.062 9.57454 17.062H9.57734C9.80143 17.062 9.9863 16.8799 9.9863 16.653V13.6978Z" fill="#313235"/>
</svg>
