<svg width="24" height="24" viewBox="0 0 24 24" fill="none" xmlns="http://www.w3.org/2000/svg">
<path fill-rule="evenodd" clip-rule="evenodd" d="M8.23966 2.15002C8.55899 2.15002 8.81949 2.40773 8.81949 2.72706V8.23966C8.81389 8.55619 8.55899 8.81389 8.24246 8.81949H2.72986C2.41053 8.81949 2.15002 8.56179 2.15002 8.24246C2.15002 7.92313 2.41053 7.66263 2.72986 7.66263H7.66263V2.72986C7.66263 2.40773 7.92033 2.15002 8.23966 2.15002ZM8.81949 15.7439C8.81949 15.4245 8.55899 15.1668 8.23966 15.1668C8.23966 15.1668 2.72986 15.1668 2.72986 15.164C2.41053 15.164 2.15002 15.4217 2.15002 15.7439C2.15002 16.066 2.41053 16.3237 2.72986 16.3237H7.65983V21.2565C7.65983 21.5758 7.92033 21.8363 8.23966 21.8363C8.55899 21.8363 8.81949 21.5758 8.81949 21.2565V15.7439ZM21.8363 15.7467C21.8363 15.4273 21.5758 15.1668 21.2565 15.1668H15.7411C15.4217 15.1668 15.164 15.4273 15.164 15.7467V21.2593C15.164 21.5786 15.4245 21.8391 15.7439 21.8391C16.0632 21.8391 16.3237 21.5786 16.3237 21.2593V16.3265H21.2565C21.5758 16.3265 21.8363 16.066 21.8363 15.7467ZM15.1668 8.24246C15.1668 8.56179 15.4273 8.81949 15.7467 8.81949V8.82229H21.2565C21.5758 8.82229 21.8363 8.56179 21.8363 8.24246C21.8363 7.92313 21.5758 7.66263 21.2565 7.66263H16.3237V2.72986C16.3237 2.41053 16.066 2.15002 15.7467 2.15002C15.4273 2.15002 15.1668 2.41053 15.1668 2.72986V8.24246Z" fill="#313235"/>
</svg>
