<svg width="24" height="24" viewBox="0 0 24 24" fill="none" xmlns="http://www.w3.org/2000/svg">
<path fill-rule="evenodd" clip-rule="evenodd" d="M8.34607 2.15002C8.81106 2.15002 9.18921 2.52818 9.18921 2.99316V8.34609C9.18921 8.81108 8.81106 9.18923 8.34607 9.18923H2.99314C2.52815 9.18923 2.15 8.81108 2.15 8.34329C2.15 7.87831 2.52815 7.50016 2.99314 7.50016H7.50013V2.99316C7.50013 2.52818 7.87828 2.15002 8.34607 2.15002ZM9.18921 15.6402C9.18921 15.1752 8.81105 14.7971 8.34607 14.7971H2.99314C2.55056 14.8139 2.19762 15.1696 2.18081 15.6094C2.1612 16.0744 2.52535 16.4665 2.99314 16.4833H7.50293V20.9931C7.52814 21.4245 7.86988 21.769 8.30125 21.7915C8.76624 21.8167 9.164 21.4581 9.18921 20.9931V15.6402ZM21.8026 15.6738C21.8194 15.206 21.4553 14.8139 20.9903 14.7971H15.6374C15.1724 14.7971 14.7942 15.1724 14.7942 15.6402V20.9959C14.7942 21.4609 15.1724 21.8391 15.6374 21.8391C16.1052 21.8391 16.4833 21.4609 16.4833 20.9959V16.4861H20.9903C21.4329 16.4693 21.7858 16.1136 21.8026 15.6738ZM14.797 8.34609C14.797 8.81108 15.1752 9.18923 15.6402 9.18923H20.9931C21.4357 9.17242 21.7886 8.81668 21.8054 8.37691C21.8222 7.90912 21.4581 7.51696 20.9931 7.50016H16.4833V2.99316C16.4581 2.56179 16.1164 2.21725 15.685 2.19484C15.22 2.16963 14.8223 2.52818 14.797 2.99316V8.34609Z" fill="#313235"/>
</svg>
