<svg width="24" height="24" viewBox="0 0 24 24" fill="none" xmlns="http://www.w3.org/2000/svg">
<path fill-rule="evenodd" clip-rule="evenodd" d="M5.49172 8.72354C5.49172 9.18853 5.86988 9.56388 6.33486 9.56388C6.55615 9.56388 6.77183 9.47424 6.9287 9.31458L11.206 5.03167V16.0821C11.2228 16.5247 11.5785 16.8776 12.0183 16.8944C12.4861 16.9112 12.8783 16.5471 12.8951 16.0821V5.03167L17.1052 9.24455C17.1081 9.24746 17.1106 9.25038 17.1131 9.25318C17.1178 9.25844 17.1221 9.2633 17.1276 9.26696C17.4637 9.58909 17.9959 9.58068 18.3208 9.24455C18.643 8.90842 18.6346 8.3762 18.2984 8.05128L12.6486 2.39582C12.318 2.06809 11.7858 2.06809 11.4553 2.39582L5.73822 8.1241C5.58136 8.28377 5.49172 8.49945 5.49172 8.72354ZM21.8362 16.9056C21.8362 16.4406 21.4581 16.0625 20.9931 16.0625C20.5281 16.0625 20.15 16.4406 20.1528 16.9056V20.1493H3.83907V16.9056C3.82226 16.463 3.46652 16.1101 3.02674 16.0933C2.55896 16.0765 2.1668 16.4406 2.14999 16.9056V20.9924C2.14999 21.4574 2.52814 21.8356 2.99313 21.8356H20.9931C21.4581 21.8356 21.8362 21.4574 21.8362 20.9924V16.9056Z" fill="#313235"/>
</svg>
