<svg width="24" height="24" viewBox="0 0 24 24" fill="none" xmlns="http://www.w3.org/2000/svg">
<path fill-rule="evenodd" clip-rule="evenodd" d="M9.44537 4.15409C9.56862 4.6611 9.80111 5.1793 10.1372 5.69751C10.3977 6.09807 10.6162 6.36697 10.9664 6.72552C11.0084 6.76753 11.1597 6.91599 11.2885 7.00843C11.4398 7.11767 11.6162 7.1933 11.7815 7.22972L12.0504 7.26053L12.2969 7.23252C12.4762 7.1933 12.6526 7.11767 12.8067 7.00843C12.9356 6.91879 13.084 6.77033 13.1372 6.71711C13.4874 6.35857 13.7003 6.09246 13.958 5.69751C14.2913 5.1793 14.5238 4.6611 14.647 4.15409C14.8179 3.44261 14.647 2.79835 14.1708 2.39499C13.8935 2.1625 13.5266 2.02245 13.14 2.00284C12.7759 1.98323 12.3893 2.07006 12.0448 2.25494C11.7003 2.07006 11.3137 1.98323 10.9552 2.00284C10.5658 2.02245 10.1989 2.1625 9.92156 2.39499C9.44817 2.79835 9.2745 3.44261 9.44537 4.15409ZM10.7423 3.84877C10.7199 3.74513 10.6723 3.49583 10.7927 3.39779C10.8459 3.35297 10.93 3.32496 11.0224 3.32216H11.0532C11.1765 3.32216 11.3025 3.35858 11.4314 3.4258C11.5098 3.46782 11.5882 3.51264 11.6975 3.57706L11.8767 3.6667L12.2577 3.6583L12.4146 3.56586C12.5014 3.51544 12.5798 3.47062 12.661 3.4258C12.8011 3.35017 12.9384 3.31096 13.07 3.32216C13.1624 3.32776 13.2493 3.35578 13.2997 3.40059C13.4202 3.49863 13.3725 3.74793 13.3501 3.85157C13.2605 4.21292 13.0896 4.59107 12.8347 4.98602C12.6274 5.30535 12.4678 5.50423 12.1737 5.80395L12.1615 5.81627L12.1615 5.81628L12.1615 5.8163C12.1366 5.8416 12.0921 5.88692 12.0476 5.9244C11.9944 5.88238 11.9384 5.82356 11.9216 5.80395C11.6302 5.50703 11.4678 5.30815 11.2549 4.98322C11.0028 4.58827 10.8291 4.21012 10.7423 3.84877ZM5.7423 8.72831C5.5014 8.96081 5.38095 9.36137 5.38095 9.92159C5.38095 10.479 5.5014 10.8824 5.7423 11.1121C5.97479 11.3334 6.37255 11.4482 6.91876 11.4482C7.46498 11.4482 7.86274 11.3334 8.09803 11.1093C8.33893 10.8796 8.46218 10.479 8.46218 9.92159C8.46218 9.36137 8.33893 8.96081 8.09523 8.72831C7.85714 8.50142 7.46218 8.38658 6.91596 8.38658C6.37535 8.38658 5.97759 8.50142 5.7423 8.72831ZM4.89076 11.9916C5.35854 12.4454 6.04201 12.6723 6.91876 12.6723C7.79271 12.6723 8.47618 12.4426 8.94957 11.9916C9.44257 11.521 9.69187 10.8235 9.69187 9.92159C9.69187 9.01683 9.44257 8.31935 8.94957 7.84876C8.47618 7.39498 7.79271 7.16529 6.91876 7.16529C6.04201 7.16529 5.35854 7.39498 4.88796 7.84876C4.39776 8.31935 4.15126 9.01683 4.15126 9.92159C4.15126 10.8235 4.40056 11.521 4.89076 11.9916ZM15.5854 8.72831C15.3445 8.96081 15.2241 9.36137 15.2241 9.92159C15.2241 10.479 15.3445 10.8824 15.5854 11.1121C15.8179 11.3334 16.2157 11.4482 16.7619 11.4482C17.3081 11.4482 17.7059 11.3334 17.9411 11.1093C18.182 10.8796 18.3053 10.479 18.3053 9.92159C18.3053 9.36137 18.182 8.96081 17.9383 8.72831C17.7003 8.50142 17.3053 8.38658 16.7591 8.38658C16.2185 8.38658 15.8207 8.50142 15.5854 8.72831ZM13.9916 9.92159C13.9916 10.8235 14.2409 11.521 14.7311 11.9916C15.2017 12.4426 15.8851 12.6723 16.7591 12.6723C17.633 12.6723 18.3165 12.4426 18.7899 11.9916C19.2829 11.521 19.5322 10.8235 19.5322 9.92159C19.5322 9.01683 19.2829 8.31935 18.7899 7.84876C18.3165 7.39498 17.633 7.16529 16.7591 7.16529C15.8823 7.16529 15.1989 7.39498 14.7283 7.84876C14.2381 8.31935 13.9916 9.01683 13.9916 9.92159ZM12.3389 12.7619C12.3893 12.7115 12.4454 12.563 12.4454 12.2913C12.4454 12.0168 12.3893 11.8656 12.3361 11.8151C12.2829 11.7619 12.1288 11.7087 11.8599 11.7087C11.591 11.7087 11.4398 11.7619 11.3893 11.8123C11.3361 11.8628 11.2801 12.014 11.2801 12.2885C11.2801 12.563 11.3333 12.7115 11.3865 12.7619C11.437 12.8123 11.591 12.8656 11.8599 12.8656C12.1316 12.8656 12.2857 12.8123 12.3389 12.7619ZM13.1905 10.9356C12.8795 10.6387 12.4314 10.4874 11.8599 10.4874C11.2885 10.4874 10.8431 10.6387 10.5322 10.9356C10.2129 11.2437 10.0504 11.6975 10.0504 12.2913C10.0504 12.8824 10.2101 13.3361 10.5322 13.6443C10.8431 13.9384 11.2885 14.0896 11.8599 14.0896C12.4314 14.0896 12.8795 13.9384 13.1905 13.6443C13.5126 13.3361 13.6779 12.8824 13.6779 12.2913C13.6779 11.7003 13.5126 11.2437 13.1905 10.9356ZM20.4566 20.465V17.1989C20.4566 16.8123 20.3753 16.2717 20 15.8852C19.5854 15.4538 18.9271 15.3614 18.451 15.3614H15.0728C14.8263 15.3614 14.5322 15.3894 14.2493 15.4734C14.3613 15.5462 14.4678 15.6303 14.563 15.7283C14.9047 16.0812 15.084 16.5686 15.084 17.1429V20.465H20.4566ZM13.8515 17.1401V20.465H13.8487V20.479H9.87114V17.1401C9.87114 16.9636 9.90195 16.7227 10.0476 16.5714C10.1344 16.479 10.2857 16.4314 10.465 16.3978L10.5033 16.3906C10.582 16.3759 10.6595 16.3614 10.7535 16.3614H12.9636C13.0364 16.3614 13.0977 16.3728 13.1601 16.3845H13.1601H13.1601L13.1602 16.3845C13.1794 16.3881 13.1987 16.3917 13.2185 16.395C13.4117 16.4258 13.5798 16.4762 13.6723 16.5742C13.8207 16.7255 13.8515 16.9664 13.8515 17.1401ZM9.16246 15.7283C9.25209 15.6359 9.35293 15.5574 9.46218 15.4846C9.16806 15.3922 8.86274 15.3614 8.60784 15.3614H5.22969C4.7535 15.3614 4.09804 15.4538 3.68348 15.8824C3.31093 16.2689 3.2325 16.8123 3.2325 17.1989V20.465H8.64705V17.1401C8.64425 16.5686 8.82072 16.0784 9.16246 15.7283ZM2.31653 21.6863H14.9243V21.6891H21.3697C21.5434 21.6891 21.6862 21.549 21.6862 21.3753V17.2017C21.6862 16.3249 21.4089 15.5798 20.8851 15.0392C20.3193 14.451 19.4762 14.1401 18.4482 14.1401H15.07C14.0448 14.1401 13.2017 14.451 12.6358 15.0392C12.6205 15.0561 12.6069 15.0754 12.5931 15.095C12.5816 15.1112 12.5701 15.1276 12.5574 15.1429H11.126C11.1148 15.1294 11.1045 15.1151 11.0942 15.1007C11.0788 15.0792 11.0633 15.0577 11.0448 15.0392C10.479 14.451 9.63584 14.1401 8.60784 14.1401H5.22969C4.20448 14.1401 3.36135 14.451 2.79552 15.0392C2.27732 15.577 2.00281 16.3221 2.00281 17.1989V21.3725C2.00281 21.5462 2.14286 21.6863 2.31653 21.6863Z" fill="#313235"/>
</svg>
