<svg width="24" height="24" viewBox="0 0 24 24" fill="none" xmlns="http://www.w3.org/2000/svg">
<path fill-rule="evenodd" clip-rule="evenodd" d="M21.6386 7.78715C21.6694 7.85998 21.6862 7.94121 21.6862 8.02524V20.3305C21.6862 21.0812 21.0419 21.7143 20.2772 21.7143H8.09521C7.34452 21.7143 6.68625 21.0672 6.68625 20.3305L6.71987 17.5574H4.42016C3.08683 17.5574 2 16.4678 2 15.1317V11.0364C2 9.70031 3.08683 8.61067 4.42016 8.61067H6.68625V3.40902C6.68625 2.68353 7.35852 2.02527 8.09521 2.02527H15.5097C15.7422 2.02527 15.9607 2.1121 16.1232 2.27457L21.4201 7.4006C21.5321 7.50984 21.5966 7.64709 21.6386 7.78715ZM20.2772 20.4986C20.3753 20.4986 20.4705 20.4033 20.4705 20.3305V8.89639H18.1568C17.1428 8.89639 16.266 8.56586 15.6218 7.94401C14.9719 7.31656 14.6302 6.45942 14.6302 5.46223V3.24375H8.09521C8.02238 3.24375 7.90754 3.35299 7.90194 3.41182V8.61348H14.2661C15.6022 8.61348 16.6862 9.70311 16.6862 11.0392V15.1345C16.6862 16.4706 15.5994 17.5602 14.2661 17.5602H7.93555L7.90194 20.3389C7.90194 20.3893 8.00278 20.4986 8.09521 20.4986H20.2772ZM3.21288 15.1345C3.21288 15.8011 3.75349 16.3445 4.42016 16.3445H14.2661C14.9327 16.3445 15.4733 15.8011 15.4733 15.1345V11.0392C15.4733 10.3726 14.9327 9.82916 14.2661 9.82916H4.42016C3.75349 9.82916 3.21288 10.3726 3.21288 11.0392V15.1345ZM15.8459 3.69753L19.9607 7.68071H18.1596C17.4649 7.68071 16.8823 7.47062 16.4677 7.07007C16.0616 6.67511 15.8459 6.12049 15.8459 5.46223V3.69753ZM4.7675 13.0896C4.7675 13.7255 4.90195 14.2017 5.21287 14.535C5.48738 14.8235 5.89354 14.9776 6.5434 14.9776C6.84312 14.9776 7.24648 14.93 7.46496 14.8656L7.37813 14.2549C7.16244 14.2969 6.87953 14.3305 6.70306 14.3305C6.2913 14.3305 6.05881 14.2493 5.89914 14.0672C5.71707 13.8656 5.63584 13.5014 5.63584 13.0672C5.63584 12.339 5.81791 11.8207 6.60502 11.8207C6.83471 11.8207 7.10922 11.8684 7.39213 11.9496L7.49858 11.339C7.26328 11.2437 6.85712 11.1737 6.5406 11.1737C5.2857 11.1737 4.7675 11.944 4.7675 13.0896ZM8.0756 14.1541L7.94675 14.7899C8.3165 14.9188 8.69465 14.9776 9.15963 14.9832C9.68344 14.9832 10.0308 14.8768 10.2885 14.6359C10.4818 14.4538 10.5938 14.1933 10.5938 13.8656C10.5938 13.0274 9.95321 12.8491 9.42222 12.7013C9.04639 12.5966 8.72546 12.5073 8.72546 12.2101C8.72546 11.9776 8.86832 11.8179 9.3193 11.8179C9.577 11.8179 9.89913 11.8656 10.1988 11.9468L10.3277 11.3249C10.0448 11.2269 9.65823 11.1737 9.30529 11.1737C8.52378 11.1737 7.94115 11.4986 7.94115 12.2437C7.94115 13.0954 8.595 13.2688 9.12909 13.4104C9.49783 13.5082 9.80949 13.5909 9.80949 13.8712C9.80949 14.2073 9.5798 14.3361 9.0868 14.3361C8.8207 14.3361 8.39773 14.2661 8.0756 14.1541ZM11.1064 14.7899L11.2353 14.1541C11.5574 14.2661 11.9804 14.3361 12.2465 14.3361C12.7395 14.3361 12.9691 14.2073 12.9691 13.8712C12.9691 13.5909 12.6575 13.5082 12.2887 13.4104C11.7546 13.2688 11.1008 13.0954 11.1008 12.2437C11.1008 11.4986 11.6834 11.1737 12.4649 11.1737C12.8179 11.1737 13.2044 11.2269 13.4873 11.3249L13.3585 11.9468C13.0588 11.8656 12.7366 11.8179 12.4789 11.8179C12.028 11.8179 11.8851 11.9776 11.8851 12.2101C11.8851 12.5073 12.206 12.5966 12.5819 12.7013C13.1129 12.8491 13.7535 13.0274 13.7535 13.8656C13.7535 14.1933 13.6414 14.4538 13.4481 14.6359C13.1904 14.8768 12.8431 14.9832 12.3193 14.9832C11.8571 14.9776 11.4762 14.9188 11.1064 14.7899Z" fill="#313235"/>
</svg>
