<svg width="24" height="24" viewBox="0 0 24 24" fill="none" xmlns="http://www.w3.org/2000/svg">
<path fill-rule="evenodd" clip-rule="evenodd" d="M21.7045 12.9678C21.7031 12.9762 21.7017 12.9846 21.7031 12.9944C21.7041 13.0069 21.7059 13.0198 21.7078 13.0331C21.711 13.0555 21.7143 13.079 21.7143 13.1036V20.2325C21.7143 21.0364 21.0644 21.6891 20.2633 21.6891H3.47619C2.67507 21.6891 2.02521 21.0364 2.02521 20.2325V13.1036C2.02521 13.0677 2.03031 13.0331 2.03535 12.9989C2.03778 12.9824 2.04019 12.966 2.04201 12.9496C2.04201 12.9395 2.04112 12.9294 2.04022 12.9193C2.03888 12.9042 2.03753 12.8891 2.03921 12.874L3.63305 3.39777C3.66386 2.62186 4.30252 2.00281 5.08123 2.00281L18.6611 2.01681C19.4146 2.01681 20.042 2.58264 20.1905 3.39216L21.7059 12.9412C21.7073 12.951 21.7059 12.9594 21.7045 12.9678ZM4.87955 3.55743C4.88515 3.52101 4.88795 3.4874 4.88795 3.45379C4.88795 3.34735 4.97479 3.26051 5.08123 3.26051L18.6611 3.27452C18.7927 3.27452 18.9188 3.42017 18.9552 3.60225L20.2325 11.6499H14.0924C13.7451 11.6499 13.465 11.9328 13.465 12.2801V13.1457C13.465 13.9692 12.7955 14.6359 11.9692 14.6359H11.7759C10.9524 14.6359 10.2829 13.9664 10.2829 13.1457V12.2801C10.2829 11.9328 10.0028 11.6499 9.65546 11.6499H3.52101L4.87955 3.55743ZM20.2633 20.4286H3.48179C3.37815 20.4286 3.28571 20.3361 3.28571 20.2325V13.1036C3.28571 13.0028 3.37815 12.9132 3.48179 12.9132H9.02801V13.1513C9.02801 14.6667 10.2605 15.902 11.7759 15.902H11.9692C13.4846 15.902 14.7199 14.6695 14.7199 13.1513V12.9132H20.2661C20.3781 12.9132 20.4426 12.9944 20.4566 13.0504L20.4622 20.2353C20.4594 20.3389 20.3725 20.4286 20.2633 20.4286Z" fill="#313235"/>
</svg>
