<svg width="24" height="24" viewBox="0 0 24 24" fill="none" xmlns="http://www.w3.org/2000/svg">
<path fill-rule="evenodd" clip-rule="evenodd" d="M21.6666 7.78715C21.6974 7.85998 21.7142 7.94121 21.7142 8.02524V20.3305C21.7142 21.0812 21.0699 21.7143 20.3052 21.7143H8.12322C7.37252 21.7143 6.71426 21.0672 6.71426 20.3305L6.74788 17.5574H4.44537C3.11204 17.5574 2.02521 16.4706 2.02521 15.1345V11.0392C2.02521 9.70311 3.11204 8.61348 4.44537 8.61348H6.71146V3.40902C6.71146 2.68353 7.38093 2.02527 8.12042 2.02527H15.535C15.7674 2.02527 15.9859 2.1121 16.1484 2.27457L21.4453 7.4006C21.5601 7.50984 21.6246 7.64429 21.6666 7.78715ZM20.3052 20.4986C20.4033 20.4986 20.4985 20.4033 20.4985 20.3305V8.89639H18.1848C17.1708 8.89639 16.2941 8.56586 15.6526 7.94401C15.0027 7.31376 14.6582 6.45662 14.6582 5.46223V3.24375H8.12322C8.05039 3.24375 7.93555 3.35299 7.92994 3.41182V8.61348H14.2941C15.6302 8.61348 16.7142 9.70311 16.7142 11.0392V15.1345C16.7142 16.4706 15.6274 17.5574 14.2941 17.5574H7.96356L7.92994 20.3361C7.92994 20.3865 8.03078 20.4958 8.12322 20.4958H20.3052V20.4986ZM3.24089 15.1345C3.24089 15.8011 3.7815 16.3417 4.44817 16.3417H14.2941C14.9607 16.3417 15.5013 15.7983 15.5013 15.1345V11.0392C15.5013 10.3726 14.9607 9.82916 14.2941 9.82916H4.44817C3.7815 9.82916 3.24089 10.3726 3.24089 11.0392V15.1345ZM19.9858 7.67791L19.9887 7.68071V7.67791H19.9858ZM19.9858 7.67791L15.8739 3.69473V5.45943C15.8739 6.11489 16.0896 6.67231 16.4957 7.06726C16.9103 7.46782 17.4929 7.67791 18.1848 7.67791H19.9858ZM11.4145 13.1933C11.4145 12.042 12.0224 11.2633 13.2745 11.2633C13.6386 11.2633 14.0756 11.339 14.3109 11.4398L14.2044 12.0532C13.9411 11.9776 13.6246 11.9188 13.3333 11.9188C12.591 11.9188 12.2857 12.3586 12.2857 13.1597C12.2857 13.5742 12.3389 13.9132 12.5014 14.1373C12.6358 14.3249 12.8571 14.4342 13.21 14.4342C13.3445 14.4342 13.5266 14.4174 13.6554 14.3978V13.6247H13.14V13.0224H14.4901V14.8992C14.14 15.0056 13.5826 15.0868 13.1792 15.0868C11.8599 15.084 11.4145 14.3585 11.4145 13.1933ZM4.35013 11.3334H5.61343C6.18765 11.3334 6.5546 11.4146 6.78989 11.6331C6.98877 11.8151 7.08681 12.1009 7.08681 12.493C7.08681 12.8852 6.99437 13.1821 6.8123 13.3866C6.59662 13.6275 6.26328 13.7423 5.78149 13.7423H5.19046V15.0112H4.35013V11.3334ZM5.60222 13.1121C5.87113 13.1121 5.98317 13.0756 6.09242 12.972C6.19046 12.874 6.23807 12.7199 6.23807 12.5042C6.23807 12.3053 6.19606 12.1597 6.09802 12.07C5.99718 11.9776 5.84032 11.9412 5.58262 11.9412H5.19046V13.1121H5.60222ZM8.29689 11.3334H7.67785V15.0084H8.41454V12.7787L10.1036 15.0084H10.7759V11.3334H10.0392V13.6863L8.29689 11.3334Z" fill="#313235"/>
</svg>
