<svg width="24" height="24" viewBox="0 0 24 24" fill="none" xmlns="http://www.w3.org/2000/svg">
<path fill-rule="evenodd" clip-rule="evenodd" d="M21.6807 14.0099C21.6891 13.9762 21.6891 13.853 21.6723 13.6821H21.6751V6.48045C21.6751 5.68773 21.0308 5.04067 20.2353 5.04067H12.0392V4.27877C12.0392 3.48325 11.3922 2.83899 10.5994 2.83899H3.45099C2.64707 2.83899 2.00281 3.48325 2.00281 4.27877V17.7886C2.00281 18.5813 2.64987 19.2283 3.45099 19.2283H11.8431C11.8908 19.5225 12.014 19.923 12.3333 20.2592C12.5938 20.5477 13.0924 20.881 13.9608 20.881H19.4902C19.5882 20.8922 20.4622 20.9314 21.0924 20.3432C21.3614 20.0883 21.6891 19.6233 21.6807 18.8362V14.0099ZM11.8151 13.9538C11.8151 13.1611 12.1429 12.6933 12.4118 12.4412C12.7311 12.1471 13.1149 12.0155 13.4174 11.9678V11.4272C13.4174 8.94823 15.1681 8.05468 16.6667 8.04067H16.944C18.4482 8.08269 20.2073 8.99025 20.2073 11.444V12.0071L20.2073 12.0071C20.2885 12.0239 20.3698 12.0407 20.4454 12.0715V6.48325C20.4454 6.3684 20.3557 6.27036 20.2325 6.27036H11.423C11.0868 6.27036 10.8095 5.99305 10.8095 5.65692V4.28157C10.8095 4.15832 10.7199 4.06868 10.5966 4.06868H3.44819C3.32494 4.06868 3.2269 4.15832 3.2269 4.28157V17.7914C3.2269 17.9146 3.32494 18.0043 3.44819 18.0043H11.8151V15.9006C11.8008 15.9035 11.7878 15.9073 11.7748 15.9112C11.7498 15.9185 11.7251 15.9258 11.6919 15.9258H10.6695C10.4398 15.9258 10.2605 15.7381 10.2605 15.5169V15.4104C10.2605 15.1807 10.4398 15.0015 10.6695 15.0015H10.7507V13.2087H10.7003C10.4706 13.2087 10.2913 13.0267 10.2913 12.7998V12.7101C10.2913 12.4973 10.4538 12.3264 10.6583 12.3012C10.8459 12.2844 11.0196 12.276 11.084 12.276C11.6555 12.276 11.6891 12.7353 11.6891 12.825V15.0015C11.7311 15.0015 11.7703 15.0099 11.8123 15.0267V13.9538H11.8151ZM6.63586 9.20314C6.63586 7.65972 5.94118 7.33759 5.35855 7.33759C4.77312 7.33759 4.07844 7.65972 4.07844 9.20314C4.07844 10.741 4.77312 11.0659 5.35855 11.0659C5.94118 11.0659 6.63586 10.7438 6.63586 9.20314ZM5.69188 9.20314C5.69188 10.1303 5.4818 10.1303 5.35855 10.1303C5.2241 10.1303 5.02242 10.1303 5.02242 9.20314C5.02242 8.27316 5.2325 8.27316 5.35855 8.27316C5.4846 8.27316 5.69188 8.27316 5.69188 9.20314ZM8.26891 10.1303C8.39216 10.1303 8.60225 10.1303 8.60225 9.20314C8.60225 8.27316 8.39496 8.27316 8.26891 8.27316C8.14286 8.27316 7.93278 8.27316 7.93278 9.20314C7.93278 10.1303 8.13446 10.1303 8.26891 10.1303ZM9.54622 9.20314C9.54622 7.65972 8.85155 7.33759 8.26891 7.33759C7.68348 7.33759 6.9888 7.65972 6.9888 9.20314C6.9888 10.741 7.68348 11.0659 8.26891 11.0659C8.85155 11.0659 9.54622 10.7438 9.54622 9.20314ZM5.87676 14.9959C6.10365 14.9959 6.28572 15.1779 6.28572 15.4048V15.5113C6.28572 15.7381 6.10365 15.9202 5.87676 15.9202H4.85155C4.62466 15.9202 4.44258 15.7381 4.44258 15.5113V15.4048C4.44258 15.1779 4.62466 14.9959 4.85155 14.9959H4.93558V13.2087H4.88516C4.65827 13.2087 4.4762 13.0267 4.4762 12.7998V12.7101C4.4762 12.5001 4.63586 12.3236 4.84594 12.304C5.03082 12.2872 5.20169 12.2788 5.26891 12.2788C5.84034 12.2788 5.87116 12.7325 5.87116 12.8222L5.87676 14.9959ZM8.60225 14.1135C8.60225 15.0407 8.39216 15.0407 8.26891 15.0407C8.13446 15.0407 7.93278 15.0407 7.93278 14.1135C7.93278 13.1835 8.14286 13.1835 8.26891 13.1835C8.39496 13.1835 8.60225 13.1835 8.60225 14.1135ZM8.26891 12.248C8.85155 12.248 9.54622 12.5701 9.54622 14.1135C9.54622 15.6541 8.85155 15.9762 8.26891 15.9762C7.68348 15.9762 6.9888 15.6513 6.9888 14.1135C6.9888 12.5729 7.68348 12.248 8.26891 12.248ZM16.9188 9.26476C17.6891 9.28717 18.9804 9.59249 18.9804 11.4412H18.9776V11.9146L14.6415 11.923V11.4244C14.6415 9.55888 15.9188 9.27316 16.6723 9.26476H16.9188ZM16.8011 17.388H16.6975C16.0056 17.3768 16.0056 16.839 16.0056 16.6373C16.0056 16.4356 16.0056 15.9006 16.6835 15.895H16.7927C17.4958 15.9118 17.4958 16.444 17.4958 16.6429C17.4958 16.8446 17.4958 17.374 16.8011 17.388ZM16.6751 14.6681H16.8207C17.7675 14.6905 18.7227 15.3124 18.7227 16.6457C18.7227 17.9818 17.7703 18.5981 16.8235 18.6149H16.6891C15.7339 18.6009 14.7787 17.9846 14.7787 16.6373C14.7787 15.2872 15.7311 14.6765 16.6751 14.6681Z" fill="#313235"/>
</svg>
