<svg width="24" height="24" viewBox="0 0 24 24" fill="none" xmlns="http://www.w3.org/2000/svg">
<path fill-rule="evenodd" clip-rule="evenodd" d="M13.8137 2.2465L19.0294 7.37535C19.1947 7.53782 19.2871 7.76471 19.2871 7.9972V20.3053C19.2871 21.0532 18.6541 21.6863 17.9034 21.6863H5.90615C5.16946 21.6863 4.5224 21.0392 4.5224 20.3053V3.38095C4.5224 2.65826 5.18066 2 5.90615 2H13.2115C13.4384 2 13.6513 2.08683 13.8137 2.2465ZM17.9062 20.4762C18.0042 20.4762 18.0994 20.3782 18.0994 20.3053H18.0966V8.86275H15.8165C14.8193 8.86275 13.9566 8.53221 13.3235 7.91036C12.6849 7.28291 12.3459 6.42577 12.3459 5.43137V3.20728H9.34873V3.82073H10.2563C10.584 3.82073 10.8501 4.09244 10.8501 4.42577C10.8501 4.7591 10.584 5.03081 10.2563 5.03081H9.34873V6.55462H10.2563C10.584 6.55462 10.8501 6.82633 10.8501 7.15966C10.8501 7.493 10.584 7.76471 10.2563 7.76471H9.34873V9.28852H10.2563C10.584 9.28852 10.8501 9.56022 10.8501 9.89356C10.8501 10.2269 10.584 10.4986 10.2563 10.4986H9.34873V12.0224H10.2563C10.584 12.0224 10.8501 12.2941 10.8501 12.6275C10.8501 12.9608 10.584 13.2325 10.2563 13.2325H9.34873V13.7255H10.2339C10.5616 13.7255 10.8277 13.9972 10.8277 14.3305V16.5966C10.8277 16.93 10.5616 17.2017 10.2339 17.2017H7.23388C6.90615 17.2017 6.64005 16.93 6.64005 16.5966V14.3305C6.64005 13.9972 6.90615 13.7255 7.23388 13.7255H8.16106V11.8655H7.22548C6.89775 11.8655 6.63164 11.5938 6.63164 11.2605C6.63164 10.9272 6.89775 10.6555 7.22548 10.6555H8.16106V9.13165H7.22548C6.89775 9.13165 6.63164 8.85994 6.63164 8.52661C6.63164 8.19328 6.89775 7.92157 7.22548 7.92157H8.16106V6.39776H7.22548C6.89775 6.39776 6.63164 6.12605 6.63164 5.79272C6.63164 5.45938 6.89775 5.18767 7.22548 5.18767H8.16106V3.20728H5.90615C5.83052 3.20728 5.71568 3.31933 5.71008 3.38095V20.3053C5.71008 20.3669 5.80811 20.4762 5.90615 20.4762H17.9062ZM9.64005 15.9916H7.83052V15.1765H9.64005V15.9916ZM13.5364 3.65826L17.6008 7.65546H15.8165C15.133 7.65546 14.556 7.44258 14.1499 7.04482C13.7493 6.64986 13.5364 6.09244 13.5364 5.43417V3.65826Z" fill="#313235"/>
</svg>
