<svg width="24" height="24" viewBox="0 0 24 24" fill="none" xmlns="http://www.w3.org/2000/svg">
<path fill-rule="evenodd" clip-rule="evenodd" d="M21.4201 7.37814C21.5882 7.5294 21.6862 7.75628 21.6862 7.99718V20.3081C21.6862 21.0503 21.0448 21.6862 20.2829 21.6862H8.13444C7.38935 21.6862 6.73949 21.0419 6.73949 20.3081V19.2772C5.57703 18.6638 2.61626 16.9467 2.28012 15.0532C1.99161 13.3921 1.99721 9.57981 2.00562 9.41734C2.00562 9.23247 2.08685 9.056 2.23811 8.94115C2.38096 8.82911 2.56584 8.78989 2.75071 8.83751C3.60225 8.96636 4.05883 8.66665 4.68628 8.24928C5.19888 7.90194 5.81792 7.49298 6.73949 7.35573V3.38095C6.73949 2.65547 7.40615 2.00281 8.13444 2.00281H15.5322C15.7563 2.00281 15.9747 2.08964 16.1428 2.2437L21.4201 7.37814ZM20.4817 20.3081V8.85992H18.1708C17.1596 8.85992 16.2857 8.52939 15.6442 7.90754C15.0028 7.2801 14.6582 6.42296 14.6582 5.42576V3.21009H8.13444C8.06161 3.21009 7.94116 3.32213 7.94116 3.37815V7.32771C8.95236 7.44256 9.61903 7.87673 10.1568 8.24648L10.1579 8.2472C10.7904 8.667 11.2498 8.97188 12.1316 8.82631C12.3081 8.8011 12.493 8.84311 12.6302 8.96356C12.7591 9.07561 12.8459 9.23807 12.8459 9.41454C12.8459 9.48737 12.8459 10.3921 12.8123 11.4958H18.126C18.4537 11.4958 18.7282 11.7703 18.7282 12.1008C18.7282 12.4397 18.4537 12.7058 18.126 12.7058H12.7731C12.7479 13.3025 12.7087 13.8991 12.6526 14.4089H18.14C18.4761 14.4089 18.7422 14.675 18.7422 15.014C18.7422 15.3445 18.4761 15.619 18.14 15.619H12.3949C12.1372 16.2072 11.6498 16.7787 11.0868 17.2885H18.14C18.4761 17.2885 18.7422 17.5546 18.7422 17.8935C18.7422 18.224 18.4761 18.4985 18.14 18.4985H9.45656C8.83752 18.8935 8.26889 19.1932 7.94116 19.3613V20.3137C7.94116 20.3697 8.0364 20.4817 8.13444 20.4817H20.2828C20.3865 20.4761 20.4817 20.3809 20.4817 20.3081ZM3.46219 14.8431C3.66387 16.0027 5.89355 17.4957 7.41736 18.2604C8.94116 17.4957 11.182 16.0027 11.3809 14.8431C11.4762 14.2633 11.5406 13.3529 11.5826 12.4481C11.6134 11.5462 11.6302 10.6414 11.6386 10.0616C10.6685 10.0364 10.0528 9.629 9.49064 9.25704L9.48738 9.25488C8.89354 8.85152 8.37254 8.50418 7.41736 8.50418C6.4681 8.50418 5.95595 8.84722 5.35853 9.24738L5.34734 9.25488L5.33497 9.263C4.77504 9.63075 4.14434 10.045 3.20449 10.07C3.21289 11.2381 3.26331 13.675 3.46219 14.8431ZM15.8599 5.42576V3.66106L19.9775 7.65264H18.1708C17.4789 7.65264 16.8935 7.44256 16.4845 7.0392C16.0756 6.64424 15.8599 6.08682 15.8599 5.42576ZM10.4454 11.3025C10.2101 11.0672 9.82911 11.0672 9.59382 11.3025L6.7591 14.1512L5.71989 13.1064C5.48459 12.8711 5.10364 12.8711 4.86835 13.1064C4.63306 13.3417 4.63306 13.7254 4.86835 13.9607L6.33333 15.4341C6.45098 15.5518 6.60504 15.6106 6.7591 15.6106C6.91316 15.6106 7.06722 15.5518 7.18487 15.4341L10.4454 12.1568C10.6806 11.9215 10.6806 11.5378 10.4454 11.3025Z" fill="#313235"/>
</svg>
