<svg width="24" height="24" viewBox="0 0 24 24" fill="none" xmlns="http://www.w3.org/2000/svg">
<path fill-rule="evenodd" clip-rule="evenodd" d="M21.6666 7.78715C21.6974 7.85998 21.7142 7.94121 21.7142 8.02524V20.3305C21.7142 21.0812 21.0699 21.7143 20.3052 21.7143H8.12322C7.37252 21.7143 6.71426 21.0672 6.71426 20.3305L6.74788 17.5574H4.44537C3.11204 17.5574 2.02521 16.4678 2.02521 15.1317V11.0392C2.02521 9.70311 3.11204 8.61348 4.44537 8.61348H6.71146V3.40902C6.71146 2.68353 7.38093 2.02527 8.12042 2.02527H15.535C15.7674 2.02527 15.9859 2.1121 16.1484 2.27457L21.4453 7.4006C21.5601 7.50984 21.6246 7.64429 21.6666 7.78715ZM20.3052 20.4986C20.4033 20.4986 20.4985 20.4033 20.4985 20.3305V8.89639H18.1848C17.1708 8.89639 16.2941 8.56586 15.6526 7.94401C15.0027 7.31376 14.6582 6.45662 14.6582 5.46223V3.24375H8.12322C8.05039 3.24375 7.93555 3.35299 7.92994 3.41182V8.61348H14.2941C15.6302 8.61348 16.7142 9.70311 16.7142 11.0392V15.1317C16.7142 16.4678 15.6274 17.5574 14.2941 17.5574H7.96356L7.92994 20.3361C7.92994 20.3865 8.03078 20.4958 8.12322 20.4958H20.3052V20.4986ZM3.24089 15.1345C3.24089 15.8011 3.7815 16.3445 4.44817 16.3445H14.2941C14.9607 16.3445 15.5013 15.8011 15.5013 15.1345V11.042C15.5013 10.3754 14.9607 9.83196 14.2941 9.83196H4.44817C3.7815 9.83196 3.24089 10.3754 3.24089 11.042V15.1345ZM19.9858 7.67791L19.9887 7.68071V7.67791H19.9858ZM19.9858 7.67791L15.8739 3.69473V5.45943C15.8739 6.11489 16.0896 6.67231 16.4957 7.06726C16.9103 7.46782 17.4929 7.67791 18.1848 7.67791H19.9858ZM6.01119 11.3334H4.71707V15.1036H5.57701V13.8039H6.18205C6.67785 13.8039 7.01958 13.6891 7.24087 13.4398C7.42855 13.2297 7.52098 12.9272 7.52098 12.5238C7.52098 12.1205 7.42294 11.8291 7.21846 11.6415C6.97477 11.4146 6.60222 11.3334 6.01119 11.3334ZM6.50138 13.014C6.39214 13.1177 6.27449 13.1569 5.99998 13.1569V13.1597H5.57421V11.958H5.97757C6.24368 11.958 6.40334 11.9972 6.50698 12.0897C6.60502 12.1821 6.64984 12.3305 6.64984 12.535C6.64984 12.7563 6.59942 12.916 6.50138 13.014ZM8.13162 11.3334H9.42574C10.0168 11.3334 10.3893 11.4146 10.633 11.6415C10.8375 11.8291 10.9355 12.1205 10.9355 12.5238C10.9355 12.9272 10.8431 13.2297 10.6554 13.4398C10.4341 13.6891 10.0924 13.8039 9.5966 13.8039H8.99156V15.1036H8.13162V11.3334ZM9.91593 13.014C9.80669 13.1177 9.68904 13.1569 9.41453 13.1569V13.1597H8.98876V11.958H9.39212C9.65823 11.958 9.81789 11.9972 9.92153 12.0897C10.0196 12.1821 10.0644 12.3305 10.0644 12.535C10.0644 12.7563 10.014 12.916 9.91593 13.014ZM12.3809 11.9552H11.2128V11.3334H14.4481L14.3809 11.9552H13.2408V15.1036H12.3809V11.9552Z" fill="#313235"/>
</svg>
