<svg width="24" height="24" viewBox="0 0 24 24" fill="none" xmlns="http://www.w3.org/2000/svg">
<path fill-rule="evenodd" clip-rule="evenodd" d="M19.287 7.99717C19.287 7.91314 19.2702 7.83191 19.2394 7.75908C19.2002 7.61622 19.1358 7.47897 19.0265 7.37533L13.8137 2.2493C13.6512 2.08964 13.4383 2 13.2086 2H5.90895C5.18346 2 4.5224 2.65826 4.5224 3.38375V20.3024C4.5224 21.0391 5.17226 21.6862 5.90895 21.6862H17.9005C18.6512 21.6862 19.287 21.0531 19.287 20.3024V7.99717ZM17.9033 20.4705C17.9985 20.4705 18.0938 20.3753 18.0938 20.3024V8.86832H15.8165C14.8193 8.86832 13.9565 8.53779 13.3235 7.91594C12.6848 7.28849 12.3459 6.42855 12.3459 5.43416V3.21568H5.91175C5.83892 3.21568 5.72688 3.32492 5.72127 3.38375V20.3024C5.72127 20.3613 5.81931 20.4705 5.91175 20.4705H17.9033ZM17.5896 7.65264L13.5392 3.66946V5.43416C13.5392 6.09242 13.7521 6.64704 14.1526 7.042C14.5588 7.44255 15.1358 7.65264 15.8165 7.65264H17.5896ZM6.23388 7.0644C6.23388 5.94116 6.58121 5.35293 7.49438 5.35293C8.40754 5.35293 8.75488 5.93836 8.75488 7.0644C8.75488 8.19045 8.40754 8.77028 7.49438 8.77028C6.58121 8.77028 6.23388 8.18765 6.23388 7.0644ZM7.49438 5.85713C7.88373 5.85713 8.03779 6.15685 8.03779 7.0644C8.03779 7.97196 7.88373 8.21846 7.49438 8.21846C7.10502 8.21846 6.95096 7.97476 6.95096 7.0644C6.95096 6.15404 7.10502 5.85713 7.49438 5.85713ZM9.25627 12.3949C9.25627 11.2689 9.60361 10.6834 10.5168 10.6834C11.4299 10.6834 11.7773 11.2689 11.7773 12.3949C11.7773 13.521 11.4299 14.1008 10.5168 14.1008C9.60361 14.1008 9.25627 13.5182 9.25627 12.3949ZM10.514 11.1876C10.9033 11.1876 11.0574 11.4874 11.0574 12.3949C11.0574 13.3025 10.9061 13.549 10.514 13.549C10.1246 13.549 9.97056 13.3025 9.97056 12.3949C9.97056 11.4846 10.1246 11.1876 10.514 11.1876ZM12.5056 12.3949C12.5056 11.2689 12.8529 10.6834 13.7661 10.6834C14.6792 10.6834 15.0266 11.2689 15.0266 12.3949C15.0266 13.521 14.6792 14.1008 13.7661 14.1008C12.8529 14.1008 12.5056 13.5182 12.5056 12.3949ZM13.7633 11.1876C14.1526 11.1876 14.3067 11.4874 14.3067 12.3949C14.3067 13.3025 14.1554 13.549 13.7633 13.549C13.3739 13.549 13.2198 13.3025 13.2198 12.3949C13.2198 11.4846 13.3739 11.1876 13.7633 11.1876ZM12.4215 17.5265C12.4215 16.4033 12.7689 15.8151 13.682 15.8151C14.5952 15.8151 14.9425 16.4005 14.9425 17.5265C14.9425 18.6526 14.5952 19.2324 13.682 19.2324C12.7689 19.2324 12.4215 18.6498 12.4215 17.5265ZM13.6792 16.3193C14.0686 16.3193 14.2226 16.619 14.2226 17.5265C14.2226 18.4341 14.0714 18.6806 13.6792 18.6806C13.2899 18.6806 13.1358 18.4369 13.1358 17.5265C13.1358 16.6162 13.2899 16.3193 13.6792 16.3193ZM6.61483 13.5658H7.16665V11.2745H6.64004V10.8151C6.83331 10.7871 7.16104 10.7591 7.39354 10.7591C7.72967 10.7591 7.84451 10.8403 7.84451 11.0812V13.5686H8.3095V14.0532H6.61483V13.5658ZM10.2367 8.25488H9.68484V8.74227H11.3795V8.25768H10.9145V5.77029C10.9145 5.5294 10.7997 5.44816 10.4636 5.44816C10.2311 5.44816 9.90333 5.47618 9.71005 5.50419V5.96357H10.2367V8.25488ZM15.8389 13.5658H16.3907V11.2745H15.8641V10.8151C16.0574 10.7871 16.3851 10.7591 16.6176 10.7591C16.9537 10.7591 17.0686 10.8403 17.0686 11.0812V13.5686H17.5335V14.0532H15.8389V13.5658ZM16.3907 18.6862H15.8389V19.1736H17.5335V18.689H17.0686V16.2016C17.0686 15.9607 16.9537 15.8795 16.6176 15.8795C16.3851 15.8795 16.0574 15.9075 15.8641 15.9355V16.3949H16.3907V18.6862ZM9.73526 18.6862H10.2871V16.3949H9.76047V15.9355C9.95375 15.9075 10.2815 15.8795 10.514 15.8795C10.8501 15.8795 10.9649 15.9607 10.9649 16.2016V18.689H11.4299V19.1736H9.73526V18.6862ZM7.24788 18.6862H6.69606V19.1736H8.39073V18.689H7.92575V16.2016C7.92575 15.9607 7.8109 15.8795 7.47477 15.8795C7.24228 15.8795 6.91455 15.9075 6.72127 15.9355V16.3949H7.24788V18.6862Z" fill="#313235"/>
</svg>
