<svg width="24" height="24" viewBox="0 0 24 24" fill="none" xmlns="http://www.w3.org/2000/svg">
<path fill-rule="evenodd" clip-rule="evenodd" d="M21.6386 7.78716C21.6694 7.85999 21.6862 7.94122 21.6862 8.02526V20.3306C21.6862 21.0812 21.042 21.7143 20.2773 21.7143H8.09523C7.34453 21.7143 6.68907 21.0672 6.68907 20.3306L6.72269 17.5602H4.42297C3.08964 17.5602 2.00281 16.4706 2.00281 15.1345V11.0393C2.00281 9.70312 3.08964 8.61349 4.42297 8.61349H6.68907V3.40902C6.68907 2.68353 7.36134 2.02527 8.09523 2.02527H15.5098C15.7423 2.02527 15.9608 2.1121 16.1232 2.27457L21.4201 7.40061C21.5322 7.50985 21.5966 7.6443 21.6386 7.78716ZM19.9579 7.67792L19.9608 7.68072V7.67792H19.9579ZM19.9579 7.67792L15.8459 3.69473V5.45943C15.8459 6.1177 16.0616 6.67232 16.4678 7.06727C16.8823 7.46783 17.465 7.67792 18.1596 7.67792H19.9579ZM4.42017 16.3446C3.7535 16.3446 3.21289 15.8011 3.21289 15.1345V11.0393C3.21289 10.3726 3.7535 9.82917 4.42017 9.82917H14.2661C14.9328 9.82917 15.4734 10.3726 15.4734 11.0393V15.1345C15.4734 15.8011 14.9328 16.3446 14.2661 16.3446H4.42017ZM6.20728 11.395H7.13445L8.46498 15.0785H7.56582L7.2577 14.1513H6.06162L5.77591 15.0785H4.97199L6.20728 11.395ZM7.05322 13.5435L6.64986 12.3166H6.63865L6.2549 13.5435H7.05322ZM9.22968 11.395H8.33053L9.61344 15.0785H10.4902L11.7143 11.395H10.8963L10.0924 14.0673L9.22968 11.395ZM12.1905 11.395H13.0308V15.0785H12.1905V11.395Z" fill="#313235"/>
</svg>
