<svg width="24" height="24" viewBox="0 0 24 24" fill="none" xmlns="http://www.w3.org/2000/svg">
<path fill-rule="evenodd" clip-rule="evenodd" d="M19.0294 7.37535C19.1947 7.53782 19.2899 7.76471 19.2899 7.9972V20.3081C19.2899 21.056 18.6569 21.6891 17.9062 21.6891H5.90617C5.16947 21.6891 4.52242 21.0448 4.52242 20.3081V3.38095C4.52242 2.65826 5.18068 2 5.90617 2H8.16107V5.19048H7.2255C6.89777 5.19048 6.63166 5.46218 6.63166 5.79552C6.63166 6.12885 6.89777 6.40056 7.2255 6.40056H8.16107V7.92437H7.2255C6.89777 7.92437 6.63166 8.19608 6.63166 8.52941C6.63166 8.86275 6.89777 9.13445 7.2255 9.13445H8.16107V10.6583H7.2255C6.89777 10.6583 6.63166 10.93 6.63166 11.2633C6.63166 11.5966 6.89777 11.8683 7.2255 11.8683H8.16107V13.7255H7.2339C6.90617 13.7255 6.64006 13.9972 6.64006 14.3305V16.5966C6.64006 16.93 6.90617 17.2017 7.2339 17.2017H10.2339C10.5616 17.2017 10.8277 16.93 10.8277 16.5966V14.3305C10.8277 13.9972 10.5616 13.7255 10.2339 13.7255H9.34875V13.2325H10.2563C10.584 13.2325 10.8501 12.9608 10.8501 12.6275C10.8501 12.2941 10.584 12.0224 10.2563 12.0224H9.34875V10.4986H10.2563C10.584 10.4986 10.8501 10.2269 10.8501 9.89356C10.8501 9.56022 10.584 9.28852 10.2563 9.28852H9.34875V7.76471H10.2563C10.584 7.76471 10.8501 7.493 10.8501 7.15966C10.8501 6.82633 10.584 6.55462 10.2563 6.55462H9.34875V5.03081H10.2563C10.584 5.03081 10.8501 4.7591 10.8501 4.42577C10.8501 4.09244 10.584 3.82073 10.2563 3.82073H9.34875V2H13.2115C13.4356 2 13.6485 2.08683 13.8109 2.2437L19.0294 7.37535ZM15.8193 7.65546H17.6036L13.5364 3.65546V5.43137C13.5364 6.08964 13.7493 6.64706 14.1499 7.04202C14.5588 7.44258 15.1359 7.65546 15.8193 7.65546ZM7.83054 15.1765V15.9916H9.64006V15.1765H7.83054Z" fill="#313235"/>
</svg>
