<svg width="24" height="24" viewBox="0 0 24 24" fill="none" xmlns="http://www.w3.org/2000/svg">
<path fill-rule="evenodd" clip-rule="evenodd" d="M21.6666 7.78716C21.6974 7.85999 21.7142 7.94122 21.7142 8.02526V20.3306C21.7142 21.0812 21.07 21.7143 20.3053 21.7143H8.12323C7.37534 21.7143 6.71427 21.0672 6.71427 20.3306L6.74789 17.5574H4.44537C3.11204 17.5574 2.02521 16.4706 2.02521 15.1345V11.0393C2.02521 9.70312 3.11204 8.61349 4.44537 8.61349H6.71147V3.40902C6.71147 2.68353 7.38094 2.02527 8.12043 2.02527H15.535C15.7675 2.02527 15.986 2.1121 16.1484 2.27457L21.4453 7.40061C21.5602 7.50985 21.6246 7.6443 21.6666 7.78716ZM19.9859 7.67792L19.9888 7.68072V7.67792H19.9859ZM19.9859 7.67792L15.8739 3.69473V5.45943C15.8739 6.1149 16.0896 6.67232 16.4958 7.06727C16.9103 7.46783 17.493 7.67792 18.1876 7.67792H19.9859ZM4.44817 16.3418C3.78151 16.3418 3.24089 15.8011 3.24089 15.1345V11.0393C3.24089 10.3726 3.78151 9.82917 4.44817 9.82917H14.2941C14.9608 9.82917 15.5014 10.3726 15.5014 11.0393V15.1345C15.5014 15.7983 14.9608 16.3418 14.2941 16.3418H4.44817ZM11.3865 13.1933C11.3865 12.0421 11.9944 11.2633 13.2465 11.2633C13.6106 11.2633 14.0476 11.339 14.2829 11.4398L14.1764 12.0533C13.9131 11.9776 13.5966 11.9188 13.3053 11.9188C12.563 11.9188 12.2577 12.3586 12.2577 13.1597C12.2577 13.5743 12.3109 13.9132 12.4734 14.1373C12.6078 14.325 12.8291 14.4342 13.182 14.4342C13.3165 14.4342 13.4986 14.4174 13.6274 14.3978V13.6247H13.112V13.0224H14.4622V14.8992C14.112 15.0056 13.5546 15.0869 13.1512 15.0869C11.8319 15.0841 11.3865 14.3586 11.3865 13.1933ZM4.32212 11.3334H5.58542C6.15965 11.3334 6.5266 11.4146 6.76189 11.6331C6.96077 11.8152 7.05881 12.1009 7.05881 12.493C7.05881 12.8852 6.96637 13.1821 6.7843 13.3866C6.56861 13.6275 6.23528 13.7423 5.75349 13.7423H5.16246V15.0112H4.32212V11.3334ZM5.57422 13.1121C5.84313 13.1121 5.95517 13.0757 6.06441 12.972C6.16245 12.874 6.21007 12.7199 6.21007 12.5042C6.21007 12.3054 6.16806 12.1597 6.07002 12.0701C5.96918 11.9776 5.81231 11.9412 5.55461 11.9412H5.16246V13.1121H5.57422ZM8.26889 11.3334H7.64985V15.0084H8.38654V12.7787L10.0756 15.0084H10.7479V11.3334H10.0112V13.6863L8.26889 11.3334Z" fill="#313235"/>
</svg>
