<svg width="24" height="24" viewBox="0 0 24 24" fill="none" xmlns="http://www.w3.org/2000/svg">
<path fill-rule="evenodd" clip-rule="evenodd" d="M21.6386 7.78716C21.6694 7.85999 21.6862 7.94122 21.6862 8.02526V20.3306C21.6862 21.0812 21.042 21.7143 20.2773 21.7143H8.09523C7.34453 21.7143 6.68626 21.0672 6.68626 20.3306L6.71988 17.5602H4.42016C3.08683 17.5602 2 16.4706 2 15.1345V11.0393C2 9.70312 3.08683 8.61349 4.42016 8.61349H6.68626V3.40902C6.68626 2.68353 7.35853 2.02527 8.09523 2.02527H15.5098C15.7395 2.02527 15.9552 2.1121 16.1204 2.26897L21.4201 7.40061C21.5294 7.50705 21.5938 7.6443 21.6386 7.78716ZM19.9579 7.67792L19.9607 7.68072V7.67792H19.9579ZM19.9579 7.67792L15.8459 3.69473V5.45943C15.8459 6.1177 16.0616 6.67232 16.4678 7.06727C16.8823 7.46783 17.465 7.67792 18.1596 7.67792H19.9579ZM4.42016 16.3446C3.7535 16.3446 3.21288 15.8011 3.21288 15.1345V11.0393C3.21288 10.3726 3.7535 9.82917 4.42016 9.82917H14.2661C14.9327 9.82917 15.4734 10.3726 15.4734 11.0393V15.1345C15.4734 15.8011 14.9327 16.3446 14.2661 16.3446H4.42016ZM5.84873 11.297H4.57703V15H5.41736V13.7227H6.014C6.50139 13.7227 6.83752 13.6079 7.05321 13.3642C7.23808 13.1597 7.33052 12.86 7.33052 12.465C7.33052 12.0701 7.23528 11.7844 7.0336 11.5995C6.79551 11.3782 6.42856 11.297 5.84873 11.297ZM6.33052 12.9496C6.22128 13.0505 6.10923 13.0897 5.83753 13.0897V13.0925H5.42016V11.9104H5.81512C6.07562 11.9104 6.23248 11.9468 6.33613 12.0393C6.43416 12.1317 6.47618 12.2801 6.47618 12.479C6.47618 12.6947 6.42856 12.8516 6.33052 12.9496ZM7.93276 11.297H9.07562C9.7787 11.297 10.2465 11.4062 10.5546 11.7143C10.8515 12.0056 11.0056 12.4678 11.0056 13.1345C11.0056 13.8068 10.8599 14.2717 10.5546 14.5855C10.2773 14.8684 9.85152 15.0028 9.19046 15.0028H7.93276V11.297ZM9.92996 14.0561C9.7843 14.2717 9.51259 14.3866 9.13444 14.3866H8.7759V11.916H9.0364C9.44816 11.916 9.69746 11.9804 9.86553 12.1597C10.0448 12.353 10.126 12.6023 10.126 13.1345C10.126 13.5911 10.0756 13.8404 9.92996 14.0561ZM11.6498 11.297H14.0924L14.028 11.9076H12.4958V12.8068H13.7087V13.4398H12.4958V15H11.6498V11.297Z" fill="#313235"/>
</svg>
