<svg width="24" height="24" viewBox="0 0 24 24" fill="none" xmlns="http://www.w3.org/2000/svg">
<path fill-rule="evenodd" clip-rule="evenodd" d="M21.6386 7.78715C21.6694 7.85998 21.6862 7.94121 21.6862 8.02524V20.3305C21.6862 21.0812 21.0419 21.7143 20.28 21.7143H8.09801C7.34732 21.7143 6.68906 21.0672 6.68906 20.3305L6.72267 17.5602H4.42016C3.08683 17.5602 2 16.4706 2 15.1345V11.0392C2 9.70311 3.08683 8.61348 4.42016 8.61348H6.68625V3.40902C6.68625 2.68353 7.35572 2.02527 8.09521 2.02527H15.5097C15.7394 2.02527 15.9551 2.1121 16.1204 2.26897L21.4201 7.4006C21.5321 7.50984 21.5966 7.64429 21.6386 7.78715ZM20.28 20.4986C20.3781 20.4986 20.4733 20.4033 20.4733 20.3305V8.89639H18.1624C17.1484 8.89639 16.2716 8.56586 15.6274 7.94401C14.9775 7.31376 14.633 6.45662 14.633 5.46223V3.24375H8.09801C8.02518 3.24375 7.91034 3.35299 7.90474 3.41182V8.61348H14.9187C16.252 8.61348 17.3389 9.70311 17.3389 11.0392V15.1345C17.3389 16.4706 16.252 17.5602 14.9187 17.5602H7.94115L7.90754 20.3389C7.90754 20.3893 8.00838 20.4986 8.10081 20.4986H20.28ZM3.21288 15.1345C3.21288 15.8011 3.75349 16.3445 4.42016 16.3445H14.9131C15.5798 16.3445 16.1204 15.8011 16.1204 15.1345V11.0392C16.1204 10.3726 15.5798 9.82916 14.9131 9.82916H4.42016C3.75349 9.82916 3.21288 10.3726 3.21288 11.0392V15.1345ZM19.9606 7.67791L19.9635 7.68071V7.67791H19.9606ZM19.9606 7.67791L15.8487 3.69473V5.45943C15.8487 6.11769 16.0644 6.67231 16.4705 7.06726C16.8851 7.46782 17.4677 7.67791 18.1624 7.67791H19.9606ZM3.84593 11.5799H4.55181V12.8403H5.64144V11.5799H6.34732V14.6751H5.64144V13.3726H4.55181V14.6751H3.84593V11.5799ZM7.70586 12.0897H6.74788V11.5799H9.40333L9.35011 12.0897H8.41454V14.6723H7.70866V12.0897H7.70586ZM10.3277 11.5799H9.77028V14.6751H10.3641V12.874L11.0252 13.9692H11.5686L12.21 12.8936V14.6751H12.8571V11.5799H12.3137L11.3053 13.3081L10.3277 11.5799ZM13.5266 11.5799H14.2324V14.1625H15.6022V14.6751H13.5266V11.5799Z" fill="#313235"/>
</svg>
