<svg width="24" height="24" viewBox="0 0 24 24" fill="none" xmlns="http://www.w3.org/2000/svg">
<path fill-rule="evenodd" clip-rule="evenodd" d="M21.6386 7.78716C21.6694 7.85999 21.6862 7.94122 21.6862 8.02526V20.3306C21.6862 21.0812 21.042 21.7143 20.2773 21.7143H8.09523C7.34453 21.7143 6.68626 21.0672 6.68626 20.3306L6.71988 17.5602H4.42016C3.08683 17.5602 2 16.4706 2 15.1345V11.0393C2 9.70312 3.08683 8.61349 4.42016 8.61349H6.68626V3.40902C6.68626 2.68353 7.35853 2.02527 8.09523 2.02527H15.5098C15.7395 2.02527 15.9552 2.1121 16.1204 2.26897L21.4201 7.40061C21.5322 7.50985 21.5966 7.6443 21.6386 7.78716ZM19.9607 7.67792L19.9635 7.68072V7.67792H19.9607ZM19.9607 7.67792L15.8487 3.69473V5.45943C15.8487 6.1177 16.0644 6.67232 16.4706 7.06727C16.8851 7.46783 17.4678 7.67792 18.1624 7.67792H19.9607ZM4.42016 16.3446C3.7535 16.3446 3.21288 15.8011 3.21288 15.1345V11.0393C3.21288 10.3726 3.7535 9.82917 4.42016 9.82917H14.5994C15.2661 9.82917 15.8067 10.3726 15.8067 11.0393V15.1345C15.8067 15.8011 15.2661 16.3446 14.5994 16.3446H4.42016ZM3.82353 11.4846H6.0224L5.96638 12.0224H4.56582V12.8124H5.68627V13.3698H4.56582V14.2017H6.04761V14.7395H3.82353V11.4846ZM6.59943 11.4846H7.14565L8.68906 13.5715V11.4846H9.34172V14.7423H8.74508L7.24929 12.7647V14.7423H6.59663V11.4846H6.59943ZM12.2493 11.4846H10.0504V14.7395H12.2745V14.2017H10.7927V13.3698H11.9131V12.8124H10.7927V12.0224H12.1933L12.2493 11.4846ZM13.6218 13.1177L12.6274 11.4846H13.4033L14.0504 12.5603L14.6414 11.4846H15.4313L14.3641 13.0785L15.4033 14.7395H14.5798L13.9327 13.6359L13.3473 14.7395H12.5434L13.6218 13.1177Z" fill="#313235"/>
</svg>
