<svg width="24" height="24" viewBox="0 0 24 24" fill="none" xmlns="http://www.w3.org/2000/svg">
<path fill-rule="evenodd" clip-rule="evenodd" d="M19.287 7.99717C19.287 7.91314 19.2702 7.83191 19.2394 7.75908C19.1974 7.61622 19.1358 7.47897 19.0265 7.37533L13.8137 2.2493C13.6512 2.08683 13.4383 2 13.2086 2H5.90895C5.18346 2 4.5224 2.65826 4.5224 3.38375V20.3024C4.5224 21.0391 5.17226 21.6862 5.90895 21.6862H17.9005C18.6512 21.6862 19.287 21.0531 19.287 20.3024V7.99717ZM17.9033 20.4705C17.9985 20.4705 18.0938 20.3753 18.0938 20.3024V8.86832H15.8165C14.8193 8.86832 13.9565 8.53779 13.3235 7.91594C12.682 7.28569 12.3459 6.42855 12.3459 5.43416V3.21568H5.91175C5.83892 3.21568 5.72688 3.32492 5.72127 3.38375V20.3024C5.72127 20.3613 5.81931 20.4705 5.91175 20.4705H17.9033ZM17.5896 7.65264L17.5867 7.64984H17.5896V7.65264ZM17.5867 7.64984H15.8165C15.133 7.64984 14.5588 7.43975 14.1526 7.03919C13.7521 6.64424 13.5392 6.08962 13.5392 5.43136V3.66666L17.5867 7.64984ZM16.1134 18.3781V10.7955L7.69886 10.7815V18.3669L16.1134 18.3781ZM17.1498 10.6638C17.1498 10.1652 16.6708 9.72826 16.1274 9.72826H7.68765C7.13583 9.72826 6.66525 10.1568 6.66525 10.6638V18.4957C6.66525 19.0027 7.13303 19.4313 7.68765 19.4313H16.1274C16.6708 19.4313 17.1498 18.9943 17.1498 18.4957V10.6638ZM9.51678 14.1372C9.04339 14.1372 8.65684 13.745 8.65684 13.2633C8.65684 12.7815 9.04059 12.3893 9.51678 12.3893C9.99016 12.3893 10.3739 12.7815 10.3739 13.2633C10.3739 13.745 9.99016 14.1372 9.51678 14.1372ZM8.36272 17.4061C8.46356 17.5321 8.61202 17.5966 8.76048 17.5966C8.87812 17.5966 8.99577 17.5574 9.09661 17.4761L11.1862 15.7058L12.598 17.0588C12.8053 17.2576 13.133 17.2464 13.3291 17.0364C13.5252 16.8235 13.5168 16.4901 13.3067 16.2913L12.5896 15.605L13.7156 14.6946L14.8977 15.6134C15.1218 15.7899 15.4495 15.7478 15.6232 15.5153C15.7969 15.2829 15.752 14.9523 15.5252 14.7759L14.0238 13.605C13.8361 13.4565 13.5728 13.4593 13.3879 13.6106L11.8277 14.8739L11.5588 14.6162C11.3683 14.4341 11.0742 14.4257 10.8725 14.5938L8.42995 16.6638C8.21146 16.8515 8.18065 17.182 8.36272 17.4061Z" fill="#313235"/>
</svg>
