<svg width="24" height="24" viewBox="0 0 24 24" fill="none" xmlns="http://www.w3.org/2000/svg">
<path fill-rule="evenodd" clip-rule="evenodd" d="M21.6666 7.78716C21.6974 7.85999 21.7142 7.94122 21.7142 8.02526V20.3306C21.7142 21.0812 21.07 21.7143 20.3053 21.7143H8.12323C7.37534 21.7143 6.71427 21.0672 6.71427 20.3306L6.74789 17.5574H4.44537C3.11204 17.5574 2.02521 16.4678 2.02521 15.1317V11.0393C2.02521 9.70312 3.11204 8.61349 4.44537 8.61349H6.71147V3.40902C6.71147 2.68353 7.38094 2.02527 8.12043 2.02527H15.535C15.7675 2.02527 15.986 2.1121 16.1484 2.27457L21.4453 7.40061C21.5602 7.50985 21.6246 7.6443 21.6666 7.78716ZM19.9859 7.67792L19.9888 7.68072V7.67792H19.9859ZM19.9859 7.67792L15.8739 3.69473V5.45943C15.8739 6.1149 16.0896 6.67232 16.4958 7.06727C16.9103 7.46783 17.493 7.67792 18.1876 7.67792H19.9859ZM4.44817 16.3446C3.78151 16.3446 3.24089 15.8012 3.24089 15.1345V11.0421C3.24089 10.3754 3.78151 9.83197 4.44817 9.83197H14.2941C14.9608 9.83197 15.5014 10.3754 15.5014 11.0421V15.1345C15.5014 15.8012 14.9608 16.3446 14.2941 16.3446H4.44817ZM5.7871 11.3334H4.49299V15.1037H5.35293V13.804H5.95797C6.45377 13.804 6.79551 13.6891 7.01679 13.4398C7.20447 13.2297 7.29691 12.9272 7.29691 12.5238C7.29691 12.1205 7.19887 11.8292 6.99438 11.6415C6.75069 11.4146 6.37814 11.3334 5.7871 11.3334ZM6.2773 13.014C6.16806 13.1177 6.05041 13.1569 5.7759 13.1569V13.1597H5.35013V11.958H5.75349C6.0196 11.958 6.17926 11.9972 6.2829 12.0897C6.38094 12.1821 6.42576 12.3306 6.42576 12.5351C6.42576 12.7563 6.37534 12.916 6.2773 13.014ZM7.90755 11.3334H9.20166C9.7927 11.3334 10.1652 11.4146 10.4089 11.6415C10.6134 11.8292 10.7115 12.1205 10.7115 12.5238C10.7115 12.9272 10.619 13.2297 10.4314 13.4398C10.2101 13.6891 9.86833 13.804 9.37253 13.804H8.76749V15.1037H7.90755V11.3334ZM9.69186 13.014C9.58261 13.1177 9.46497 13.1569 9.19046 13.1569V13.1597H8.76469V11.958H9.16805C9.43416 11.958 9.59382 11.9972 9.69746 12.0897C9.7955 12.1821 9.84032 12.3306 9.84032 12.5351C9.84032 12.7563 9.7899 12.916 9.69186 13.014ZM12.1568 11.9552H10.9888V11.3334H14.2241L14.1568 11.9552H13.0168V15.1037H12.1568V11.9552Z" fill="#313235"/>
</svg>
