<svg width="24" height="24" viewBox="0 0 24 24" fill="none" xmlns="http://www.w3.org/2000/svg">
<path fill-rule="evenodd" clip-rule="evenodd" d="M21.6386 7.78715C21.6694 7.85998 21.6862 7.94121 21.6862 8.02524V20.3305C21.6862 21.0812 21.0419 21.7143 20.2772 21.7143H8.09521C7.34452 21.7143 6.68625 21.0672 6.68625 20.3305L6.71987 17.5602H4.42016C3.08683 17.5602 2 16.4706 2 15.1345V11.0392C2 9.70311 3.08683 8.61348 4.42016 8.61348H6.68625V3.40902C6.68625 2.68353 7.35852 2.02527 8.09521 2.02527H15.5097C15.7394 2.02527 15.9551 2.1121 16.1204 2.26897L21.4201 7.4006C21.5293 7.50704 21.5938 7.64429 21.6386 7.78715ZM20.2772 20.4986C20.3753 20.4986 20.4705 20.4033 20.4705 20.3305V8.89639H18.1596C17.1456 8.89639 16.2688 8.56586 15.6246 7.94401C14.9747 7.31656 14.6302 6.45662 14.6302 5.46223V3.24375H8.09521C8.02238 3.24375 7.90754 3.35299 7.90194 3.41182V8.61348H14.2661C15.6022 8.61348 16.6862 9.70311 16.6862 11.0392V15.1345C16.6862 16.4706 15.5994 17.5602 14.2661 17.5602H7.93555L7.90194 20.3389C7.90194 20.3893 8.00278 20.4986 8.09521 20.4986H20.2772ZM3.21288 15.1345C3.21288 15.8011 3.75349 16.3445 4.42016 16.3445H14.2661C14.9327 16.3445 15.4733 15.8011 15.4733 15.1345V11.0392C15.4733 10.3726 14.9327 9.82916 14.2661 9.82916H4.42016C3.75349 9.82916 3.21288 10.3726 3.21288 11.0392V15.1345ZM19.9578 7.67791L19.9607 7.68071V7.67791H19.9578ZM19.9578 7.67791L15.8459 3.69473V5.45943C15.8459 6.11769 16.0616 6.67231 16.4677 7.06726C16.8823 7.46782 17.4649 7.67791 18.1596 7.67791H19.9578ZM5.93276 11.2969H4.66105V15H5.50139V13.7227H6.09802C6.58541 13.7227 6.92155 13.6079 7.13723 13.3642C7.32211 13.1597 7.41454 12.86 7.41454 12.465C7.41454 12.07 7.31931 11.7843 7.11763 11.5995C6.87953 11.3782 6.51259 11.2969 5.93276 11.2969ZM6.41455 12.9496C6.3053 13.0504 6.19326 13.0896 5.92155 13.0896V13.0924H5.50419V11.9104H5.89914C6.15965 11.9104 6.31651 11.9468 6.42015 12.0392C6.51819 12.1317 6.5602 12.2801 6.5602 12.479C6.5602 12.6947 6.51259 12.8516 6.41455 12.9496ZM8.01678 11.2969H9.15963C9.86271 11.2969 10.3305 11.4062 10.6386 11.7143C10.9355 12.0056 11.0896 12.4678 11.0896 13.1345C11.0896 13.8067 10.9439 14.2717 10.6386 14.5854C10.3613 14.8684 9.93554 15.0028 9.27448 15.0028H8.01678V11.2969ZM10.014 14.056C9.86831 14.2717 9.59661 14.3866 9.21846 14.3866H8.85991V11.916H9.12042C9.53218 11.916 9.78148 11.9804 9.94955 12.1597C10.1288 12.353 10.21 12.6023 10.21 13.1345C10.21 13.591 10.1596 13.8403 10.014 14.056ZM11.7339 11.2969H14.1764L14.112 11.9076H12.5798V12.8067H13.7927V13.4398H12.5798V15H11.7339V11.2969Z" fill="#313235"/>
</svg>
