<svg width="24" height="24" viewBox="0 0 24 24" fill="none" xmlns="http://www.w3.org/2000/svg">
<path fill-rule="evenodd" clip-rule="evenodd" d="M19.287 7.99717C19.287 7.91314 19.2702 7.83191 19.2394 7.75908C19.2002 7.61902 19.1358 7.48177 19.0265 7.37533L13.8137 2.2493C13.6512 2.08683 13.4355 2 13.2086 2H5.90895C5.18346 2 4.5224 2.65826 4.5224 3.38375V20.3024C4.5224 21.0391 5.16946 21.6862 5.90895 21.6862H17.9005C18.6512 21.6862 19.287 21.0531 19.287 20.3024V7.99717ZM18.0938 20.3024V8.86832H15.8165C14.8165 8.86832 13.9565 8.53779 13.3235 7.91594C12.6848 7.28569 12.3459 6.42855 12.3459 5.43416V3.21568H5.91175C5.83892 3.21568 5.72688 3.32492 5.72127 3.38375V20.3024C5.72127 20.3613 5.81931 20.4705 5.91175 20.4705H17.9033C17.9985 20.4705 18.0938 20.3753 18.0938 20.3024ZM13.5392 3.66946V5.43416C13.5392 6.09242 13.7521 6.64704 14.1526 7.042C14.5588 7.43975 15.133 7.65264 15.8165 7.65264H17.5896L13.5392 3.66946ZM14.7296 12.3193V11.7086L10.9874 10.6778V11.2885L14.7296 12.3193ZM14.7296 17.5742C14.7296 18.1176 14.4691 18.3977 13.9565 18.4089V18.4117H13.8529C13.3403 18.4033 13.0826 18.1204 13.0826 17.5686C13.0826 17.3641 13.0826 16.7422 13.8389 16.7338H13.9509C14.4663 16.745 14.7296 17.0307 14.7296 17.5742ZM9.18905 16.4005C9.69045 16.3893 9.95095 16.1092 9.95095 15.5658C9.95095 15.0196 9.68764 14.7366 9.16944 14.7226H9.0602C8.3039 14.7282 8.3039 15.3529 8.3039 15.5546C8.3039 16.1064 8.5616 16.3893 9.0742 16.3977H9.18905V16.4005ZM15.7661 11.4565C15.7661 11.084 15.4915 10.7731 15.1358 10.7283L10.7997 9.52938L10.6652 9.50977C10.2675 9.50977 9.94535 9.8403 9.94535 10.2437V13.8347C9.70165 13.731 9.44115 13.6722 9.18905 13.6666H9.04619C8.22266 13.675 7.26188 14.1736 7.26188 15.5546C7.26188 16.9355 8.22827 17.4397 9.05179 17.4509H9.19465C9.99016 17.4341 10.9033 16.9579 10.9706 15.7058L10.9846 12.3753L14.7268 13.4089V15.8459C14.4831 15.7422 14.2226 15.6834 13.9705 15.6778L13.8277 15.675C13.007 15.6806 12.0434 16.182 12.0434 17.563C12.0434 18.9439 13.0098 19.4481 13.8333 19.4593H13.9761C14.8025 19.4453 15.7661 18.9411 15.7661 17.5714V11.4565Z" fill="#313235"/>
</svg>
