<svg width="24" height="24" viewBox="0 0 24 24" fill="none" xmlns="http://www.w3.org/2000/svg">
<path fill-rule="evenodd" clip-rule="evenodd" d="M21.6386 7.78715C21.6694 7.85998 21.6862 7.94121 21.6862 8.02524V20.3305C21.6862 21.0812 21.0419 21.7143 20.2772 21.7143H8.09522C7.34452 21.7143 6.68906 21.0672 6.68906 20.3305L6.72268 17.5574H4.42297C3.08964 17.5574 2.00281 16.4678 2.00281 15.1317V11.0392C2.00281 9.70311 3.08964 8.61348 4.42297 8.61348H6.68906V3.40902C6.68906 2.68353 7.35853 2.02527 8.09522 2.02527H15.5098C15.7394 2.02527 15.9663 2.11771 16.1288 2.27737L21.4201 7.4006C21.5321 7.50984 21.5966 7.64429 21.6386 7.78715ZM20.2772 20.4986C20.3753 20.4986 20.4705 20.4033 20.4705 20.3305V8.89639H18.1568C17.1428 8.89639 16.2661 8.56586 15.6218 7.94401C14.9719 7.31376 14.6274 6.45662 14.6274 5.46223V3.24375H8.09242C8.01959 3.24375 7.90474 3.35299 7.89914 3.41182V8.61348H14.2633C15.5994 8.61348 16.6834 9.70311 16.6834 11.0392V15.1317C16.6834 16.4678 15.5966 17.5574 14.2633 17.5574H7.93275L7.89914 20.3361C7.89914 20.3865 7.99998 20.4958 8.09242 20.4958H20.2772V20.4986ZM3.21289 15.1345C3.21289 15.8011 3.7535 16.3445 4.42016 16.3445H14.2661C14.9327 16.3445 15.4733 15.8011 15.4733 15.1345V11.042C15.4733 10.3754 14.9327 9.83196 14.2661 9.83196H4.42016C3.7535 9.83196 3.21289 10.3754 3.21289 11.042V15.1345ZM15.8459 3.69753L19.9607 7.68071H18.1596C17.4649 7.68071 16.8823 7.47062 16.4677 7.07007C16.0616 6.67511 15.8459 6.12049 15.8459 5.46223V3.69753ZM12.1792 14.9944V14.4118C12.3949 14.451 12.6498 14.4762 12.9187 14.4762C13.2212 14.4762 13.4005 14.437 13.5294 14.3529C13.6582 14.2661 13.7282 14.1261 13.7282 13.9272C13.7282 13.7339 13.6582 13.6023 13.5434 13.521C13.4089 13.423 13.2016 13.3922 12.8235 13.3922H12.7198V12.8516H12.8487C13.1876 12.8516 13.3613 12.8095 13.493 12.6947C13.5798 12.6191 13.6386 12.4958 13.6386 12.3165C13.6386 12.1765 13.5994 12.056 13.5154 11.9804C13.4061 11.8824 13.224 11.8404 12.9327 11.8404C12.6946 11.8404 12.4257 11.8628 12.21 11.8936V11.3221C12.4593 11.2689 12.7731 11.2409 13.0588 11.2409C13.5238 11.2409 13.9187 11.3502 14.1456 11.577C14.3025 11.7339 14.4005 11.9496 14.4005 12.2577C14.4005 12.6415 14.2324 12.9104 13.9103 13.0728C14.2997 13.2129 14.5322 13.5042 14.5322 13.986C14.5322 14.2717 14.4453 14.521 14.2717 14.7003C14.028 14.9552 13.633 15.084 13.0728 15.084C12.7507 15.0812 12.4257 15.0476 12.1792 14.9944ZM4.2689 11.3109H4.93277L6.10083 13.3754L7.30531 11.3109H7.95236V15.0056H7.18206V12.8768L6.41455 14.1625H5.7675L4.97758 12.8544V15.0056H4.2689V11.3109ZM8.75628 11.3109H10.0252C10.6022 11.3109 10.9692 11.3922 11.2073 11.6135C11.4061 11.7983 11.5042 12.0841 11.5042 12.479C11.5042 12.874 11.4117 13.1709 11.2297 13.3754C11.014 13.6191 10.6778 13.7311 10.1932 13.7311H9.59941V15.0056H8.75628V11.3109ZM10.507 12.958C10.4005 13.0588 10.2857 13.0981 10.0168 13.0981V13.1009H9.59941V11.9216H9.99437C10.2521 11.9216 10.4089 11.958 10.5126 12.0504C10.6106 12.1429 10.6526 12.2885 10.6526 12.4874C10.6526 12.7031 10.605 12.86 10.507 12.958Z" fill="#313235"/>
</svg>
