<svg width="24" height="24" viewBox="0 0 24 24" fill="none" xmlns="http://www.w3.org/2000/svg">
<path fill-rule="evenodd" clip-rule="evenodd" d="M19.1974 7.76754C19.2283 7.84037 19.2451 7.9216 19.2451 8.00564V20.2857C19.2451 21.0336 18.612 21.6667 17.8613 21.6667H5.89495C5.15826 21.6667 4.5112 21.0224 4.5112 20.2857V3.4006C4.5112 2.67792 5.16946 2.01965 5.89495 2.01965H13.1778C13.4047 2.01965 13.6204 2.10649 13.7801 2.26615L18.9846 7.38379C19.091 7.48743 19.1554 7.62468 19.1974 7.76754ZM17.5504 7.6611L13.5084 3.68352V5.44542C13.5084 6.10088 13.7185 6.6555 14.1218 7.05046C14.528 7.44821 15.1022 7.6611 15.7829 7.6611H17.5504ZM7.66806 9.73112H16.0882C16.6316 9.73112 17.1106 10.1681 17.105 10.6639V18.479C17.105 18.9776 16.6288 19.4146 16.0854 19.4146H7.66525C7.11344 19.4146 6.64565 18.9832 6.64565 18.479V10.6639C6.64565 10.1597 7.11344 9.73112 7.66806 9.73112ZM9.49438 14.1317C9.02099 14.1317 8.63724 13.7423 8.63724 13.2605C8.63724 12.7787 9.02099 12.3894 9.49438 12.3894C9.96777 12.3894 10.3515 12.7787 10.3515 13.2605C10.3487 13.7423 9.96497 14.1317 9.49438 14.1317ZM8.34032 17.395C8.44396 17.521 8.58962 17.5854 8.73808 17.5854C8.85573 17.5854 8.97338 17.5434 9.06581 17.4622L11.1526 15.6947L12.5616 17.0448C12.7689 17.2437 13.0966 17.2325 13.2927 17.0224C13.4888 16.8123 13.4776 16.479 13.2703 16.2801L12.556 15.5939L13.682 14.6835L14.8613 15.6023C15.0854 15.7787 15.4131 15.7367 15.5868 15.5042C15.7577 15.2745 15.7157 14.944 15.4888 14.7675L13.9902 13.5995C13.8053 13.451 13.542 13.4566 13.3571 13.6051L11.7997 14.8656L11.5308 14.6079C11.3403 14.4286 11.0462 14.4202 10.8445 14.5883L8.40755 16.6527C8.18906 16.8404 8.15825 17.1709 8.34032 17.395Z" fill="#313235"/>
</svg>
