<svg width="24" height="24" viewBox="0 0 24 24" fill="none" xmlns="http://www.w3.org/2000/svg">
<path fill-rule="evenodd" clip-rule="evenodd" d="M21.6386 7.78715C21.6694 7.85998 21.6862 7.94121 21.6862 8.02524V20.3305C21.6862 21.0812 21.0419 21.7143 20.2772 21.7143H8.09521C7.34452 21.7143 6.68625 21.0672 6.68625 20.3305L6.71987 17.5574H4.42016C3.08683 17.5574 2 16.4678 2 15.1317V11.0364C2 9.70031 3.08683 8.61067 4.42016 8.61067H6.68625V3.40902C6.68625 2.68353 7.35852 2.02527 8.09521 2.02527H15.5097C15.7422 2.02527 15.9607 2.1121 16.1232 2.27457L21.4201 7.4006C21.5321 7.51264 21.5966 7.64709 21.6386 7.78715ZM20.2772 20.4986C20.3753 20.4986 20.4705 20.4033 20.4705 20.3305V8.89639H18.1568C17.1428 8.89639 16.266 8.56586 15.6218 7.94401C14.9719 7.31376 14.6274 6.45662 14.6274 5.46223V3.24375H8.09241C8.01958 3.24375 7.90474 3.35299 7.89913 3.41182V8.61348H14.2633C15.5994 8.61348 16.6834 9.70311 16.6834 11.0392V15.1345C16.6834 16.4706 15.5966 17.5602 14.2633 17.5602H7.93275L7.89913 20.3389C7.89913 20.3893 7.99997 20.4986 8.09241 20.4986H20.2772ZM3.21288 15.1345C3.21288 15.8011 3.75349 16.3445 4.42016 16.3445H14.2661C14.9327 16.3445 15.4733 15.8011 15.4733 15.1345V11.0392C15.4733 10.3726 14.9327 9.82916 14.2661 9.82916H4.42016C3.75349 9.82916 3.21288 10.3726 3.21288 11.0392V15.1345ZM15.8459 3.69753L19.9607 7.68071H18.1596C17.4649 7.68071 16.8823 7.47062 16.4677 7.07007C16.0616 6.67511 15.8459 6.12049 15.8459 5.46223V3.69753ZM7.8179 14.8964L7.94675 14.2521C8.27168 14.367 8.69745 14.437 8.96916 14.437C9.46776 14.437 9.70025 14.3081 9.70025 13.9664C9.70025 13.6839 9.38561 13.6004 9.01322 13.5014C8.47343 13.3581 7.8123 13.1824 7.8123 12.3221C7.8123 11.5714 8.40333 11.2409 9.19045 11.2409C9.54899 11.2409 9.93834 11.2941 10.2241 11.3922L10.0952 12.0196C9.79268 11.9384 9.46776 11.8908 9.20725 11.8908C8.75347 11.8908 8.60781 12.0532 8.60781 12.2857C8.60781 12.5866 8.93247 12.6769 9.31252 12.7827C9.84896 12.932 10.4958 13.112 10.4958 13.958C10.4958 14.2885 10.3809 14.5518 10.1876 14.7367C9.92714 14.9804 9.577 15.0896 9.04479 15.0896C8.5742 15.0868 8.19045 15.028 7.8179 14.8964ZM5.87393 11.3109H4.60223V15.014H5.44536V13.7367H6.0392C6.52659 13.7367 6.86272 13.6219 7.07841 13.3782C7.26328 13.1709 7.35572 12.874 7.35572 12.479C7.35572 12.0841 7.25768 11.7983 7.0588 11.6135C6.82071 11.3922 6.45376 11.3109 5.87393 11.3109ZM6.35572 12.9608C6.24648 13.0616 6.13444 13.1009 5.86273 13.1009V13.1037H5.44536V11.9244H5.84312C6.10082 11.9244 6.25769 11.9608 6.36133 12.0532C6.45936 12.1429 6.50138 12.2913 6.50138 12.4902C6.50138 12.7059 6.45376 12.8628 6.35572 12.9608ZM12.2857 11.3109H11.1456H11.1428V15.014H12.3977C13.0588 15.014 13.4845 14.8768 13.7619 14.5966C14.0644 14.2829 14.21 13.8179 14.21 13.1457C14.21 12.479 14.0588 12.0196 13.7619 11.7283C13.4537 11.4202 12.9887 11.3109 12.2857 11.3109ZM12.3473 14.395C12.7254 14.395 12.9972 14.2801 13.1428 14.0644C13.2885 13.8487 13.3389 13.5994 13.3389 13.1457C13.3389 12.6163 13.2577 12.367 13.0784 12.1709C12.9103 11.9916 12.661 11.9272 12.2493 11.9272H11.9888V14.395H12.3473Z" fill="#313235"/>
</svg>
