<svg width="24" height="24" viewBox="0 0 24 24" fill="none" xmlns="http://www.w3.org/2000/svg">
<path fill-rule="evenodd" clip-rule="evenodd" d="M21.6386 7.78716C21.6694 7.85999 21.6862 7.94122 21.6862 8.02526V20.3306C21.6862 21.0812 21.042 21.7143 20.2773 21.7143H8.09523C7.34453 21.7143 6.68626 21.0672 6.68626 20.3306L6.71988 17.5574H4.42016C3.08683 17.5574 2 16.4678 2 15.1317V11.0393C2 9.70312 3.08683 8.61349 4.42016 8.61349H6.68626V3.40902C6.68626 2.68353 7.35853 2.02527 8.09523 2.02527H15.5098C15.7423 2.02527 15.958 2.1149 16.126 2.27457L21.4229 7.40061C21.5322 7.50985 21.5966 7.6443 21.6386 7.78716ZM15.8487 3.69753L19.9635 7.68072H18.1624C17.4678 7.68072 16.8851 7.47064 16.4706 7.07008C16.0644 6.67512 15.8487 6.1205 15.8487 5.46224V3.69753ZM4.42016 16.3446C3.7535 16.3446 3.21288 15.8012 3.21288 15.1345V11.0421C3.21288 10.3754 3.7535 9.83197 4.42016 9.83197H14.2661C14.9327 9.83197 15.4734 10.3754 15.4734 11.0421V15.1345C15.4734 15.8012 14.9327 16.3446 14.2661 16.3446H4.42016ZM9.02239 11.1933H8.06721L6.78991 14.9972H7.61904L7.91315 14.042H9.14844L9.46497 14.9972H10.3949L9.02239 11.1933ZM8.5238 12.1429L8.94116 13.4118H8.11763L8.51259 12.1429H8.5238ZM10.8487 11.1933H11.7171V14.9972H10.8487V11.1933Z" fill="#313235"/>
</svg>
