<svg width="24" height="24" viewBox="0 0 24 24" fill="none" xmlns="http://www.w3.org/2000/svg">
<path fill-rule="evenodd" clip-rule="evenodd" d="M19.2422 7.75908C19.273 7.83471 19.287 7.91314 19.287 7.99437V20.2996C19.2786 21.0615 18.6624 21.675 17.9005 21.6834H5.90895C5.16946 21.6834 4.5224 21.0363 4.5224 20.2996V3.38095C4.5224 2.65826 5.18346 2 5.90895 2H13.2086C13.4355 2 13.6512 2.08683 13.8137 2.2465L19.0265 7.37253C19.1386 7.48457 19.2002 7.61902 19.2422 7.75908ZM18.0938 20.3024C18.0938 20.3753 18.0013 20.4705 17.9033 20.4705H5.90895C5.81651 20.4705 5.71847 20.3613 5.71847 20.3024V3.38375C5.72408 3.32773 5.83892 3.21568 5.90895 3.21568H12.3459V5.43416C12.3459 6.42855 12.6848 7.28569 13.3235 7.91594C13.9565 8.53779 14.8165 8.86832 15.8165 8.86832H18.0938V20.3024ZM13.5392 3.66946L17.5896 7.65264H15.8193C15.1358 7.65264 14.5616 7.43975 14.1554 7.042C13.7521 6.64704 13.5392 6.09242 13.5392 5.43416V3.66946ZM15.5308 12.7198H14.6932L15.0322 11.7311L15.5308 12.7198ZM14.3599 13.689L13.4355 16.4033L15.3767 13.689H14.3599ZM8.44115 13.689H9.49157L10.4327 16.4481L8.44115 13.689ZM9.99857 12.2156L10.9621 10.986H9.5812C9.5784 10.9888 9.99857 12.2156 9.99857 12.2156ZM14.2759 10.9888L13.8529 12.2212L12.8753 10.9888H14.2759ZM10.8277 12.7198H13.0182L11.9173 11.3305L10.8277 12.7198ZM10.5028 13.689H13.3487C13.3487 13.689 11.9257 17.8571 11.9257 17.8543L10.5028 13.689ZM8.8165 11.7142L8.29269 12.7198H9.15823L8.8165 11.7142ZM16.7941 13.2044C16.7941 13.1344 16.7744 13.0616 16.7436 12.9972C16.7427 12.9954 16.7424 12.9938 16.7421 12.9924C16.7415 12.9895 16.7409 12.987 16.7352 12.9831L15.3711 10.2913L15.3683 10.2801C15.3663 10.2762 15.363 10.2736 15.3602 10.2715C15.359 10.2706 15.3579 10.2697 15.3571 10.2689C15.3235 10.2044 15.2731 10.154 15.217 10.112C15.2072 10.1064 15.1981 10.1008 15.189 10.0952C15.1799 10.0896 15.1708 10.084 15.161 10.0784C15.1519 10.0745 15.1441 10.0688 15.136 10.063C15.1267 10.0562 15.117 10.0493 15.105 10.0448C15.0666 10.0304 15.0303 10.0283 14.9943 10.0263C14.9882 10.0259 14.9822 10.0256 14.9761 10.0252C14.9705 10.0252 14.9656 10.0231 14.9607 10.021C14.9558 10.0189 14.9509 10.0168 14.9453 10.0168H8.90613C8.8996 10.0168 8.89402 10.0196 8.88828 10.0226C8.88418 10.0247 8.87999 10.0268 8.87532 10.028C8.86832 10.0284 8.86132 10.0288 8.85432 10.0292C8.8193 10.0312 8.78429 10.0331 8.74927 10.0448C8.73947 10.049 8.73106 10.0553 8.72266 10.0616C8.71426 10.0679 8.70586 10.0742 8.69605 10.0784C8.61482 10.1176 8.54759 10.182 8.50278 10.2577C8.50024 10.2615 8.49656 10.2641 8.49302 10.2667C8.48875 10.2698 8.4847 10.2727 8.48317 10.2773L7.07421 12.9803C7.07281 12.9831 7.07281 12.9859 7.07281 12.9887C7.07281 12.9916 7.07281 12.9944 7.07141 12.9972C7.0406 13.0616 7.02099 13.1344 7.02099 13.2072C7.02099 13.2098 7.02155 13.2123 7.02218 13.215C7.02294 13.2184 7.02379 13.2222 7.02379 13.2268C7.02379 13.2369 7.02682 13.247 7.02984 13.2571C7.03186 13.2638 7.03387 13.2705 7.03499 13.2773C7.0406 13.3417 7.06301 13.4033 7.09942 13.4565C7.10184 13.4614 7.10269 13.4667 7.10355 13.4722C7.10469 13.4793 7.10585 13.4866 7.11062 13.4929L11.5364 19.6274H11.5392C11.5784 19.6806 11.6288 19.7226 11.6876 19.7562L11.7297 19.7758C11.7885 19.8066 11.8557 19.8207 11.9229 19.8235H11.9257C11.993 19.8207 12.0602 19.8038 12.119 19.7758L12.161 19.7562C12.2198 19.7254 12.2703 19.6806 12.3095 19.6274C12.3095 19.6274 12.3123 19.6274 12.3123 19.6246L16.7016 13.4901C16.7058 13.4845 16.7072 13.4782 16.7086 13.4719C16.71 13.4656 16.7114 13.4593 16.7156 13.4537C16.7464 13.4005 16.7688 13.3417 16.7773 13.2801C16.7784 13.272 16.7805 13.2645 16.7826 13.257C16.7855 13.2462 16.7885 13.2356 16.7885 13.224C16.7913 13.2156 16.7941 13.21 16.7941 13.2044Z" fill="#313235"/>
</svg>
