<svg width="24" height="24" viewBox="0 0 24 24" fill="none" xmlns="http://www.w3.org/2000/svg">
<path fill-rule="evenodd" clip-rule="evenodd" d="M21.6381 7.58762C21.7697 7.71087 21.8426 7.89014 21.8426 8.07222V20.6408C21.8426 21.2907 21.2852 21.8425 20.6213 21.8425H8.21793C7.56246 21.8425 6.98823 21.2739 6.98823 20.6408V19.456C5.91541 18.9126 2.76134 17.1506 2.43361 15.2319C2.15349 13.5951 2.15609 9.8365 2.15629 9.53431L2.1563 9.5204C2.1563 9.39715 2.21232 9.2739 2.31316 9.20107C2.4112 9.12544 2.54286 9.09463 2.66611 9.12544C3.63513 9.28137 4.15019 8.93352 4.79189 8.50013L4.80336 8.49238C5.36919 8.11423 6.00784 7.69407 6.99104 7.59603V3.35793C6.99104 2.73328 7.57367 2.15625 8.22073 2.15625H15.7669C15.9462 2.15625 16.1199 2.22068 16.2515 2.34673L21.6381 7.58762ZM21.0246 20.6408V8.75009H18.4588C17.484 8.75009 16.6381 8.43636 16.0246 7.83692C15.4028 7.23748 15.0751 6.41395 15.0751 5.45877V2.98258H8.21793C8.03025 2.98258 7.80896 3.18706 7.80896 3.36073V7.58482C8.88447 7.64841 9.55337 8.09133 10.1443 8.4826L10.1675 8.49799L10.1831 8.5084C10.8311 8.94042 11.3379 9.27832 12.3216 9.13104C12.4448 9.10583 12.5765 9.13944 12.6661 9.22068C12.7557 9.29631 12.8118 9.41115 12.8118 9.526C12.8202 9.60723 12.8202 10.6464 12.781 11.8621H18.4084C18.6381 11.8621 18.8174 12.0442 18.8174 12.2739C18.8174 12.498 18.6381 12.6857 18.4084 12.6857H12.7585C12.7249 13.4504 12.6773 14.2235 12.6017 14.8257H18.4336C18.6633 14.8257 18.8426 15.0078 18.8426 15.2375C18.8426 15.4588 18.6633 15.6492 18.4336 15.6492H12.4308C12.1451 16.414 11.4476 17.1478 10.6689 17.7641H18.4364C18.6661 17.7641 18.8454 17.9462 18.8454 18.1759C18.8454 18.3999 18.6661 18.5876 18.4364 18.5876H9.51204C8.77535 19.0554 8.11989 19.3943 7.80896 19.5512V20.6464C7.80896 20.8285 8.01344 21.0246 8.21793 21.0246H20.6213C20.8258 21.019 21.0246 20.8285 21.0246 20.6408ZM3.24594 15.0918C3.49244 16.5232 6.24314 18.1619 7.48963 18.7781C7.92381 18.5652 8.53165 18.2263 9.1619 17.8229C10.3412 17.0498 11.5709 16.0274 11.7333 15.0918C11.9546 13.8089 11.9938 11.0526 11.9938 9.97418C10.9796 10.0234 10.355 9.60838 9.76047 9.21345L9.71653 9.18426C9.10308 8.7725 8.52045 8.38594 7.48683 8.38594H7.47843C6.45181 8.38594 5.88115 8.76728 5.26965 9.1759L5.25714 9.18426L5.22246 9.20723C4.61143 9.61209 3.97759 10.0321 2.97143 9.98258C2.98263 11.0694 3.02465 13.8173 3.24594 15.0918ZM15.893 3.15345L20.809 7.92656V7.92936H18.4588C17.7053 7.92936 17.0583 7.69967 16.5989 7.24589C16.1395 6.80051 15.893 6.18146 15.893 5.45877V3.15345ZM6.51765 15.5204C6.59888 15.6016 6.70532 15.6408 6.80896 15.6408C6.9126 15.6408 7.01905 15.6016 7.09748 15.5204L10.428 12.1759C10.5877 12.0134 10.5877 11.7529 10.428 11.5932C10.2683 11.4336 10.0078 11.4336 9.84818 11.5932L6.80896 14.6464L5.60168 13.4364C5.44202 13.2767 5.18151 13.2767 5.02185 13.4364C4.86218 13.5988 4.86218 13.8593 5.02185 14.019L6.51765 15.5204Z" fill="#313235"/>
</svg>
