<svg width="24" height="24" viewBox="0 0 24 24" fill="none" xmlns="http://www.w3.org/2000/svg">
<path fill-rule="evenodd" clip-rule="evenodd" d="M19.2423 7.75909C19.2731 7.83192 19.2871 7.91315 19.2871 7.99719V20.3025C19.2871 21.0532 18.6513 21.6862 17.9006 21.6862H5.90621C5.16951 21.6862 4.51965 21.0392 4.51965 20.3025V3.38375C4.51965 2.65826 5.18072 2 5.90621 2H13.2059C13.4356 2 13.6485 2.08683 13.811 2.2493L19.0238 7.37534C19.1387 7.48458 19.2003 7.61904 19.2423 7.75909ZM17.5897 7.65265L13.5364 3.66946V5.43417C13.5364 6.09243 13.7493 6.64705 14.1499 7.04201C14.556 7.43976 15.1303 7.65265 15.8137 7.65265H17.5897ZM15.0322 11.7339L14.6933 12.7199H15.5308L15.0322 11.7339ZM14.3628 13.6919H15.3768L13.4356 16.4061L14.3628 13.6919ZM10.4328 16.4481L9.49163 13.6919H8.44121L10.4328 16.4481ZM9.99863 12.2185L9.57847 10.9888H10.9594L9.99863 12.2185ZM12.8754 10.9888L13.853 12.2213L14.2759 10.9888H12.8754ZM10.8278 12.7199L11.9174 11.3305L13.0182 12.7199H10.8278ZM11.923 17.8571L13.3488 13.6919H10.5L11.923 17.8571ZM8.81656 11.7143L9.1611 12.7199H8.29556L8.81656 11.7143ZM16.7423 12.9902C16.7423 12.9923 16.7423 12.9944 16.7437 12.9972C16.7717 13.0616 16.7941 13.1316 16.7969 13.1989C16.7969 13.2031 16.7955 13.2066 16.7941 13.2101C16.7927 13.2136 16.7913 13.2171 16.7913 13.2213C16.7913 13.2328 16.7884 13.2434 16.7854 13.2542C16.7834 13.2617 16.7813 13.2692 16.7801 13.2773C16.7717 13.3417 16.7493 13.3977 16.7185 13.451C16.7143 13.4566 16.7129 13.4629 16.7115 13.4692C16.7101 13.4755 16.7087 13.4818 16.7045 13.4874L12.3152 19.619C12.3152 19.6208 12.3152 19.6214 12.3145 19.6217C12.314 19.6218 12.3134 19.6218 12.3124 19.6218C12.2731 19.675 12.2199 19.717 12.1639 19.7507C12.1569 19.7549 12.1499 19.7584 12.1429 19.7619C12.1359 19.7654 12.1289 19.7689 12.1219 19.7731C12.0631 19.8011 11.9986 19.8207 11.9314 19.8207H11.9286C11.8586 19.8207 11.7941 19.8011 11.7353 19.7731C11.7213 19.7675 11.7073 19.7619 11.6933 19.7535C11.6373 19.7199 11.5841 19.6806 11.5448 19.6246H11.542L7.11349 13.493C7.11068 13.4874 7.10928 13.4811 7.10788 13.4748C7.10648 13.4685 7.10508 13.4622 7.10228 13.4566C7.06867 13.4005 7.04626 13.3417 7.03786 13.2745C7.03673 13.2678 7.03472 13.261 7.0327 13.2543C7.02968 13.2442 7.02665 13.2341 7.02665 13.2241C7.02665 13.2213 7.02595 13.2178 7.02525 13.2143C7.02455 13.2108 7.02385 13.2073 7.02385 13.2045C7.02385 13.1288 7.04346 13.0588 7.07427 12.9944C7.07567 12.9916 7.07567 12.9888 7.07567 12.986C7.07567 12.9832 7.07567 12.9804 7.07707 12.9776L8.48603 10.2745C8.48883 10.2703 8.49233 10.2675 8.49584 10.2647C8.49934 10.2619 8.50284 10.2591 8.50564 10.2549C8.53925 10.1989 8.58687 10.1512 8.64009 10.112C8.6597 10.098 8.67651 10.0868 8.69892 10.0756C8.70344 10.0726 8.70797 10.0694 8.71255 10.0661C8.72498 10.0573 8.73781 10.0481 8.75214 10.042C8.78715 10.0303 8.82217 10.0284 8.85718 10.0264C8.86418 10.026 8.87119 10.0257 8.87819 10.0252C8.88379 10.0252 8.88869 10.0231 8.89359 10.021C8.8985 10.0189 8.9034 10.0168 8.909 10.0168H14.9482C14.9538 10.0168 14.9587 10.0189 14.9636 10.021C14.9685 10.0231 14.9734 10.0252 14.979 10.0252C14.9913 10.0268 15.0037 10.028 15.0163 10.0291C15.0469 10.032 15.0781 10.0349 15.1079 10.0448C15.1177 10.049 15.1268 10.0553 15.1359 10.0616C15.145 10.0679 15.1541 10.0742 15.1639 10.0784C15.1737 10.084 15.1828 10.0896 15.1919 10.0952C15.201 10.1008 15.2101 10.1064 15.2199 10.112C15.2787 10.154 15.3292 10.2045 15.3628 10.2689C15.3636 10.2697 15.3647 10.2706 15.3659 10.2715C15.3687 10.2736 15.372 10.2762 15.374 10.2801L15.3768 10.2913L16.7409 12.9832C16.7423 12.986 16.7423 12.9881 16.7423 12.9902Z" fill="#313235"/>
</svg>
