<svg width="24" height="24" viewBox="0 0 24 24" fill="none" xmlns="http://www.w3.org/2000/svg">
<path fill-rule="evenodd" clip-rule="evenodd" d="M21.6386 7.78715C21.6694 7.85998 21.6862 7.94121 21.6862 8.02524V20.3305C21.6862 21.0812 21.0419 21.7143 20.2772 21.7143H8.09521C7.34452 21.7143 6.68625 21.0672 6.68625 20.3305L6.71987 17.5574H4.42016C3.08683 17.5574 2 16.4678 2 15.1317V11.0392C2 9.70311 3.08683 8.61348 4.42016 8.61348H6.68625V3.40902C6.68625 2.68353 7.35852 2.02527 8.09521 2.02527H15.5097C15.7422 2.02527 15.9579 2.1149 16.126 2.27457L21.4229 7.4006C21.5321 7.50984 21.5966 7.64429 21.6386 7.78715ZM20.2772 20.4986C20.3753 20.4986 20.4705 20.4033 20.4705 20.3305V8.89639H18.1596C17.1456 8.89639 16.2688 8.56586 15.6246 7.94401C14.9747 7.31656 14.633 6.45662 14.633 5.46223V3.24375H8.09801C8.02518 3.24375 7.91034 3.35299 7.90474 3.41182V8.61348H14.2689C15.605 8.61348 16.689 9.70311 16.689 11.0392V15.1317C16.689 16.4678 15.6022 17.5574 14.2689 17.5574H7.93835L7.90474 20.3361C7.90474 20.3865 8.00558 20.4958 8.09801 20.4958H20.2772V20.4986ZM3.21288 15.1345C3.21288 15.8011 3.75349 16.3445 4.42016 16.3445H14.2661C14.9327 16.3445 15.4733 15.8011 15.4733 15.1345V11.042C15.4733 10.3754 14.9327 9.83196 14.2661 9.83196H4.42016C3.75349 9.83196 3.21288 10.3754 3.21288 11.042V15.1345ZM15.8487 3.69753L19.9635 7.68071H18.1624C17.4677 7.68071 16.8851 7.47062 16.4705 7.07007C16.0644 6.67511 15.8487 6.12049 15.8487 5.46223V3.69753ZM9.02238 11.1933H8.0672L6.7899 14.9972H7.61902L7.91314 14.042H9.14843L9.46495 14.9972H10.3949L9.02238 11.1933ZM8.52378 12.1429L8.94115 13.4118H8.11762L8.51258 12.1429H8.52378ZM10.8487 11.1933H11.717V14.9972H10.8487V11.1933Z" fill="#313235"/>
</svg>
