<svg width="24" height="24" viewBox="0 0 24 24" fill="none" xmlns="http://www.w3.org/2000/svg">
<path fill-rule="evenodd" clip-rule="evenodd" d="M21.6386 7.78715C21.6694 7.85998 21.6862 7.94121 21.6862 8.02524V20.3305C21.6862 21.0812 21.0419 21.7143 20.2772 21.7143H8.09521C7.34452 21.7143 6.68625 21.0672 6.68625 20.3305L6.71987 17.5602H4.42016C3.08683 17.5602 2 16.4706 2 15.1345V11.0392C2 9.70311 3.08683 8.61348 4.42016 8.61348H6.68625V3.40902C6.68625 2.68353 7.35572 2.02527 8.09521 2.02527H15.5097C15.7394 2.02527 15.9551 2.1121 16.1204 2.26897L21.4201 7.4006C21.5321 7.50984 21.5966 7.64429 21.6386 7.78715ZM20.2772 20.4986C20.3753 20.4986 20.4705 20.4033 20.4705 20.3305V8.89639H18.1596C17.1456 8.89639 16.2688 8.56586 15.6246 7.94401C14.9747 7.31376 14.6302 6.45662 14.6302 5.46223V3.24375H8.09521C8.02238 3.24375 7.90754 3.35299 7.90194 3.41182V8.61348H14.5994C15.9355 8.61348 17.0223 9.70311 17.0223 11.0392V15.1345C17.0223 16.4706 15.9355 17.5602 14.5994 17.5602H7.93275L7.89913 20.3389C7.89913 20.3893 7.99997 20.4986 8.09241 20.4986H20.2772ZM3.21288 15.1345C3.21288 15.8011 3.75349 16.3445 4.42016 16.3445H14.5994C15.2661 16.3445 15.8067 15.8011 15.8067 15.1345V11.0392C15.8067 10.3726 15.2661 9.82916 14.5994 9.82916H4.42016C3.75349 9.82916 3.21288 10.3726 3.21288 11.0392V15.1345ZM19.9606 7.67791L19.9635 7.68071V7.67791H19.9606ZM19.9606 7.67791L15.8487 3.69473V5.45943C15.8487 6.11769 16.0644 6.67231 16.4705 7.06726C16.8851 7.46782 17.4677 7.67791 18.1624 7.67791H19.9606ZM3.7675 11.4846H5.96637L5.91035 12.0224H4.50979V12.8123H5.63024V13.3698H4.50979V14.2017H5.99158V14.7395H3.7675V11.4846ZM6.5434 11.4846H7.08961L8.63303 13.5714V11.4846H9.28568V14.7423H8.68905L7.19326 12.7647V14.7423H6.5406V11.4846H6.5434ZM12.1932 11.4846H9.99436V14.7395H12.2184V14.2017H10.7367V13.3698H11.8571V12.8123H10.7367V12.0224H12.1372L12.1932 11.4846ZM13.5658 13.1177L12.5714 11.4846H13.3473L13.9943 12.5602L14.5854 11.4846H15.3753L14.3081 13.0784L15.3473 14.7395H14.5238L13.8767 13.6359L13.2913 14.7395H12.4874L13.5658 13.1177Z" fill="#313235"/>
</svg>
