<svg width="24" height="24" viewBox="0 0 24 24" fill="none" xmlns="http://www.w3.org/2000/svg">
<path fill-rule="evenodd" clip-rule="evenodd" d="M21.6386 7.78715C21.6694 7.85998 21.6862 7.94121 21.6862 8.02524V20.3305C21.6862 21.0812 21.0419 21.7143 20.2772 21.7143H8.09521C7.34452 21.7143 6.68625 21.0672 6.68625 20.3305L6.71987 17.5574H4.42016C3.08683 17.5574 2 16.4678 2 15.1317V11.0392C2 9.70311 3.08683 8.61348 4.42016 8.61348H6.68625V3.40902C6.68625 2.68353 7.35852 2.02527 8.09521 2.02527H15.5097C15.7394 2.02527 15.9551 2.1121 16.1204 2.26897L21.4201 7.4006C21.5293 7.50704 21.5938 7.64429 21.6386 7.78715ZM20.2772 20.4986C20.3753 20.4986 20.4705 20.4033 20.4705 20.3305V8.89639H18.1568C17.1428 8.89639 16.2688 8.56586 15.6246 7.94401C14.9747 7.31376 14.6302 6.45662 14.6302 5.46223V3.24375H8.09521C8.02238 3.24375 7.90754 3.35299 7.90194 3.41182V8.61348H14.2661C15.6022 8.61348 16.6862 9.70311 16.6862 11.0392V15.1317C16.6862 16.4678 15.6022 17.5574 14.2661 17.5574H7.93555L7.90194 20.3361C7.90194 20.3865 8.00278 20.4958 8.09521 20.4958H20.2772V20.4986ZM3.21288 15.1345C3.21288 15.8011 3.75349 16.3445 4.42016 16.3445H14.2661C14.9327 16.3445 15.4733 15.8011 15.4733 15.1345V11.042C15.4733 10.3754 14.9327 9.83196 14.2661 9.83196H4.42016C3.75349 9.83196 3.21288 10.3754 3.21288 11.042V15.1345ZM19.9606 7.67791L19.9635 7.68071V7.67791H19.9606ZM19.9606 7.67791L15.8487 3.69473V5.45943C15.8487 6.11769 16.0644 6.67231 16.4705 7.06726C16.8851 7.46782 17.4677 7.67791 18.1596 7.67791H19.9606ZM11.8291 13.1401C11.8291 12.1261 12.3641 11.437 13.4705 11.437C13.7927 11.437 14.1764 11.5042 14.3865 11.5939L14.2913 12.1345C14.0588 12.0672 13.7787 12.0168 13.5238 12.0168C12.8683 12.0168 12.5994 12.4062 12.5994 13.1121C12.5994 13.4762 12.647 13.7759 12.7899 13.9748C12.9075 14.1401 13.1036 14.2353 13.4173 14.2353C13.535 14.2353 13.6974 14.2213 13.8123 14.2017V13.5182H13.3557V12.986H14.5462V14.6415C14.238 14.7367 13.745 14.8067 13.3893 14.8067C12.224 14.8095 11.8291 14.1681 11.8291 13.1401ZM4.03921 14.2017L4.09243 14.7675C4.32492 14.7983 4.43136 14.8095 4.59103 14.8095C4.95797 14.8095 5.19326 14.7423 5.34172 14.5994C5.50699 14.4342 5.57421 14.2157 5.57421 13.8123V11.4986H4.83472V13.7955C4.83472 14.1569 4.73668 14.2409 4.42296 14.2409C4.35293 14.2409 4.18767 14.2297 4.03921 14.2017ZM7.37813 11.4986H6.26609V14.7451H7.00558V13.6247H7.52659C7.95236 13.6247 8.24647 13.5238 8.43695 13.3109C8.59661 13.1317 8.67784 12.8712 8.67784 12.5238C8.67784 12.1765 8.59381 11.9272 8.41734 11.7647C8.20726 11.5686 7.88513 11.4986 7.37813 11.4986ZM7.36692 13.0672C7.60502 13.0672 7.70306 13.0336 7.7983 12.944C7.88233 12.86 7.92715 12.7199 7.92715 12.5322C7.92715 12.3558 7.88793 12.2297 7.8039 12.1485C7.71426 12.0672 7.57701 12.0336 7.34732 12.0336H6.99998V13.0672H7.36692ZM11.3893 11.4986H9.19885V14.7395H11.4145V14.2045H9.93834V13.3754H11.0532V12.8207H9.93834V12.0336H11.3333L11.3893 11.4986Z" fill="#313235"/>
</svg>
