<svg width="24" height="24" viewBox="0 0 24 24" fill="none" xmlns="http://www.w3.org/2000/svg">
<path fill-rule="evenodd" clip-rule="evenodd" d="M21.4229 7.4034C21.5938 7.57146 21.6862 7.79275 21.6862 8.02524V20.3305C21.6862 21.0812 21.0419 21.7143 20.2772 21.7143H8.09521C7.34452 21.7143 6.68625 21.0672 6.68625 20.3305L6.71987 17.5574H4.42016C3.08683 17.5574 2 16.4678 2 15.1317V11.0364C2 9.70031 3.08683 8.61067 4.42016 8.61067H6.68625V3.40902C6.68625 2.68353 7.35852 2.02527 8.09521 2.02527H15.5097C15.7394 2.02527 15.9551 2.1121 16.1204 2.26897L21.4229 7.4034ZM20.2772 20.4986C20.3753 20.4986 20.4705 20.4033 20.4705 20.3305V8.89639H18.1596C17.1456 8.89639 16.2688 8.56586 15.6246 7.94401C14.9747 7.31656 14.633 6.45662 14.633 5.46223V3.24375H8.09801C8.02518 3.24375 7.91034 3.35299 7.90474 3.41182V8.61348H14.2689C15.605 8.61348 16.689 9.70311 16.689 11.0392V15.1345C16.689 16.4706 15.6022 17.5602 14.2689 17.5602H7.93835L7.90474 20.3389C7.90474 20.3893 8.00558 20.4986 8.09801 20.4986H20.2772ZM3.21288 15.1345C3.21288 15.8011 3.75349 16.3445 4.42016 16.3445H14.2661C14.9327 16.3445 15.4733 15.8011 15.4733 15.1345V11.0392C15.4733 10.3726 14.9327 9.82916 14.2661 9.82916H4.42016C3.75349 9.82916 3.21288 10.3726 3.21288 11.0392V15.1345ZM15.8487 3.69753L19.9635 7.68071H18.1624C17.4677 7.68071 16.8851 7.47062 16.4705 7.07007C16.0644 6.67511 15.8487 6.12049 15.8487 5.46223V3.69753ZM8.78709 11.2829H9.63302V14.986H8.78709V11.2829ZM5.32772 14.4902L7.12603 11.9076H5.38094V11.2857H8.16524V11.8039L6.39494 14.3642H8.17644V14.986H5.32772V14.4902ZM11.7142 11.2829H10.4425H10.4369V14.986H11.2829V13.7087H11.8795C12.3669 13.7087 12.703 13.5938 12.9187 13.3502C13.1036 13.1429 13.196 12.846 13.196 12.451C13.196 12.056 13.1008 11.7703 12.8991 11.5855C12.661 11.3642 12.2941 11.2829 11.7142 11.2829ZM11.7058 13.0756C11.9775 13.0756 12.0896 13.0364 12.1988 12.9356C12.2969 12.8375 12.3445 12.6807 12.3445 12.465C12.3445 12.2661 12.3025 12.1177 12.2044 12.0252C12.1008 11.9328 11.9439 11.8964 11.6834 11.8964H11.2885V13.0784H11.7058V13.0756Z" fill="#313235"/>
</svg>
