<svg width="24" height="24" viewBox="0 0 24 24" fill="none" xmlns="http://www.w3.org/2000/svg">
<path fill-rule="evenodd" clip-rule="evenodd" d="M16.6989 9.75627C17.2087 10.1204 17.6793 10.5322 18.1078 10.9888C19.2311 12.1904 19.8165 13.7423 19.7549 15.3557C19.6961 16.9663 18.9986 18.4649 17.7941 19.5742C16.0434 21.1904 14.1106 21.4733 14.0294 21.4845C13.4328 21.6218 12.8277 21.6862 12.2199 21.6862C12.1779 21.6862 12.1359 21.6832 12.0938 21.6802C12.0658 21.6782 12.0378 21.6761 12.0098 21.675C11.9971 21.6759 11.9845 21.6771 11.9717 21.6783C11.945 21.6809 11.9178 21.6834 11.8894 21.6834C11.7073 21.6834 11.5252 21.6638 11.3403 21.6386C9.14987 21.4089 7.06304 20.3333 5.7157 18.6106C2.31235 14.2605 5.11626 7.5686 8.62326 4.68625C10.1947 3.39774 12.0602 2.44816 13.8754 2.01679C14.0966 1.96357 14.3291 2.042 14.4748 2.21847C14.6204 2.39494 14.6541 2.63864 14.5616 2.84872C14.4916 3.01399 12.8501 6.94395 16.6989 9.75627ZM16.9874 18.6806C16.4636 19.1624 15.8641 19.5546 15.2143 19.8431C16.5924 17.6246 15.3235 14.4061 13.7241 12.9972C12.9846 12.3445 12.1022 11.8655 11.2423 11.6442C10.9202 11.563 10.5924 11.7619 10.514 12.084C10.4832 12.2101 10.4944 12.3417 10.542 12.4594L10.543 12.462C10.572 12.5394 11.2027 14.2211 9.69049 15.4061C9.44119 15.5966 9.2143 15.8095 9.01262 16.042C8.2143 16.9635 7.98461 18.2521 8.41878 19.3921C7.74651 18.9832 7.14147 18.4733 6.65688 17.8543C3.74932 14.1372 6.32915 8.12602 9.38236 5.61903C10.5028 4.69466 11.7717 3.97477 13.1387 3.48458C12.7969 5.15684 12.7101 8.33051 16.0014 10.7395C16.4524 11.0616 16.8697 11.4257 17.2339 11.8179C18.1358 12.7815 18.6036 14.0224 18.5588 15.3081C18.5112 16.5938 17.9538 17.7899 16.9874 18.6806ZM11.2171 20.3865C11.2115 20.3865 10.5784 20.2745 10.007 19.7086C9.2255 18.9383 9.18628 17.6778 9.91177 16.8431C10.0602 16.6722 10.2311 16.5126 10.4216 16.3669C11.6373 15.4117 11.937 14.168 11.8922 13.1848C12.2675 13.3837 12.6177 13.6246 12.937 13.9075C14.1835 15.0056 15.2843 17.7395 14.105 19.3557C13.6233 20.0084 12.8754 20.4117 12.0658 20.4593C12.0538 20.4593 12.0415 20.4596 12.0291 20.46H12.029H12.029C12.0038 20.4606 11.9782 20.4612 11.9538 20.4593C11.8894 20.4621 11.8222 20.4593 11.755 20.4565L11.7549 20.4565C11.6466 20.4491 11.5408 20.4341 11.435 20.4192L11.4347 20.4191C11.3818 20.4117 11.329 20.4042 11.2759 20.3977C11.2673 20.3948 11.2571 20.3934 11.2466 20.392L11.2466 20.392C11.2367 20.3906 11.2266 20.3892 11.2171 20.3865Z" fill="#313235"/>
</svg>
