<svg width="24" height="24" viewBox="0 0 24 24" fill="none" xmlns="http://www.w3.org/2000/svg">
<path fill-rule="evenodd" clip-rule="evenodd" d="M5.2997 2H20.2997C21.0224 2 21.6863 2.77031 21.6834 3.60504V20.0756C21.6834 20.9412 21.042 21.6807 20.2969 21.6807H7.77869C8.21847 21.5042 8.60782 21.2073 8.89074 20.8179C9.94396 19.3613 9.09242 17.126 8.02239 16.1737C7.53499 15.7451 6.96917 15.4286 6.40894 15.2801C6.26609 15.2493 6.11763 15.2969 6.01959 15.4062C5.92435 15.521 5.89914 15.6807 5.95516 15.8207C5.95516 15.8213 5.95635 15.8249 5.95846 15.8312C5.99726 15.9477 6.34912 17.0046 5.40334 17.7591C5.24088 17.8851 5.09522 18.0252 4.95796 18.1737C4.22127 19.042 4.26049 20.3417 5.06441 21.1457C5.20726 21.2913 5.36693 21.4146 5.5434 21.5182C4.51539 21.2185 3.58261 20.6246 2.92435 19.7787C1.61063 18.0812 1.49578 14.4146 3.91315 11.6835V3.60504C3.91315 2.7619 4.57141 2 5.2997 2ZM17.0896 7.63585L20.4706 7.64426V3.60504C20.4706 3.42017 20.3333 3.2577 20.2773 3.2409H17.0896V7.63585ZM13.2381 14.2605L20.4706 14.3025V8.88795L13.2297 8.87115C13.2297 8.8787 13.2314 8.88795 13.2332 8.89814C13.2355 8.91062 13.2381 8.92449 13.2381 8.93837V14.2605ZM20.4706 20.0812C20.4706 20.2885 20.3417 20.437 20.2997 20.4454H17.0896V15.5266L20.4706 15.5434V20.0812ZM10.5154 20.4454H15.8711L15.8739 15.5182L11.1877 15.493C11.619 16.1541 11.8347 16.9328 11.8039 17.7199C11.7703 18.7423 11.3249 19.7059 10.5714 20.395C10.563 20.4034 10.5532 20.4118 10.5434 20.4202L10.5434 20.4202C10.5336 20.4286 10.5238 20.437 10.5154 20.4454ZM8.44536 9.45658C8.48457 9.36414 8.47057 9.2577 8.40334 9.18207C8.34452 9.10084 8.24088 9.06442 8.14284 9.09243C7.10642 9.34173 6.0504 9.87115 5.12603 10.5742V8.84313L12.0336 8.85994C12.0336 8.87255 12.0294 8.88515 12.0252 8.89776C12.021 8.91036 12.0168 8.92297 12.0168 8.93557V14.2577L10.647 14.2493H9.98878L9.86833 14.1513C7.30671 12.2564 8.37989 9.61757 8.44399 9.45996L8.44536 9.45658ZM5.2997 3.2409C5.26609 3.2577 5.12883 3.42297 5.12883 3.60504H5.13163V7.60504L8.26048 7.61344V3.2409H5.2997ZM9.47337 3.2409H15.8711V7.62745L9.47337 7.61064V3.2409Z" fill="#313235"/>
</svg>
