<svg width="24" height="24" viewBox="0 0 24 24" fill="none" xmlns="http://www.w3.org/2000/svg">
<path fill-rule="evenodd" clip-rule="evenodd" d="M5.3193 2H20.3277C21.0532 2 21.7142 2.7563 21.7142 3.58543V19.8375C21.7142 20.6974 21.0784 21.4229 20.3277 21.4229H9.29688C9.21845 21.4229 9.14562 21.4061 9.0756 21.3781C8.69184 21.5098 8.42014 21.5546 8.39773 21.5574C8.01958 21.6442 7.63022 21.6862 7.24367 21.6862C7.2174 21.6862 7.19045 21.6842 7.16315 21.6821C7.13514 21.68 7.10677 21.6778 7.0784 21.6778C7.0714 21.6778 7.0651 21.6785 7.05879 21.6792C7.05249 21.6799 7.04619 21.6806 7.03919 21.6806C7.02238 21.6806 7.00487 21.6778 6.98736 21.675C6.96986 21.6722 6.95235 21.6694 6.93554 21.6694C5.42854 21.5826 3.95796 20.8767 3.02799 19.6918C1.14564 17.2913 2.18485 13.8067 3.93275 11.6947V3.58543C3.93275 2.7563 4.59381 2 5.3193 2ZM20.4985 7.56581V3.58543C20.4985 3.40616 20.3613 3.24369 20.3053 3.22129H17.1204V7.55741L20.4985 7.56581ZM5.3221 3.22409H8.28568V7.5378L5.15404 7.5294V3.58263C5.15123 3.40616 5.28849 3.24089 5.3221 3.22409ZM5.63583 11.7003C3.8179 13.1905 2.26889 16.7479 3.98317 18.9327C4.14283 19.1372 4.33051 19.3137 4.53499 19.4762C4.49017 18.8851 4.66944 18.2773 5.08681 17.7983C5.22126 17.6442 5.37532 17.4986 5.54059 17.3725C6.3221 16.7619 6.02518 15.9215 5.98877 15.8263C5.90473 15.6134 5.94675 15.3669 6.09801 15.1961C6.24927 15.0224 6.47896 14.9468 6.70305 15.0056C7.27168 15.1512 7.85431 15.4678 8.3389 15.8935C9.24366 16.6918 9.97195 18.3697 9.5826 19.7675C9.73666 19.6666 9.89072 19.5518 10.042 19.4117C10.5938 18.9047 10.9131 18.2241 10.9411 17.493C10.9663 16.7647 10.7002 16.0588 10.1848 15.5098C9.96915 15.2801 9.72265 15.0644 9.45375 14.8739C7.67504 13.577 7.35291 11.8459 7.49857 10.5742C6.84311 10.8487 6.20725 11.2325 5.63583 11.7003ZM17.1176 20.1988H20.3277C20.3697 20.1848 20.4985 20.0364 20.4957 19.8403V15.3613L17.1176 15.3445V20.1988ZM13.2689 14.098V8.84032C13.2689 8.82629 13.2654 8.81486 13.2618 8.80313C13.259 8.7938 13.2561 8.78427 13.2549 8.7731L20.4985 8.7899V14.1316L13.2689 14.098ZM15.9019 20.1988V15.3361L11.563 15.3165C11.9747 15.9832 12.182 16.7507 12.154 17.5406C12.1176 18.549 11.689 19.4818 10.9663 20.1988H15.9019ZM9.50137 7.5406V3.22409H15.9019V7.55741L9.50137 7.5406ZM8.21845 9.05321C8.44254 8.99999 8.67784 9.07842 8.8263 9.25769C8.97195 9.43696 9.00557 9.68346 8.91873 9.89914C8.87672 9.99158 7.94114 12.2577 10.1652 13.8795C10.2505 13.9385 10.3306 14.0044 10.4109 14.0703L10.4109 14.0703C10.4335 14.0889 10.4562 14.1076 10.479 14.126C10.5406 14.1036 10.605 14.0868 10.675 14.0868H10.6778L12.0532 14.0924V8.84312C12.0532 8.82897 12.0567 8.81658 12.0603 8.80398C12.0631 8.79413 12.066 8.78415 12.0672 8.77309L5.15404 8.75629V10.5434C6.09241 9.83472 7.16524 9.30531 8.21845 9.05321ZM7.10921 20.4509C6.96356 20.4565 6.8151 20.4453 6.66384 20.4089C6.66104 20.4089 6.3333 20.3473 6.04199 20.056C5.65543 19.6722 5.63303 19.0252 5.99437 18.6106C6.0728 18.521 6.16524 18.4341 6.27728 18.3473C6.93834 17.8319 7.20165 17.1876 7.26608 16.6078C7.35851 16.6722 7.44815 16.7451 7.53498 16.8179C8.24927 17.4481 8.85431 19.0028 8.22406 19.8655C7.96916 20.2156 7.56299 20.4257 7.12042 20.4509H7.10921Z" fill="#313235"/>
</svg>
