<svg width="24" height="24" viewBox="0 0 24 24" fill="none" xmlns="http://www.w3.org/2000/svg">
<path d="M17.4426 7.46501C17.3782 7.40339 17.3754 7.30255 17.437 7.23812L20.577 4.10367C20.8824 3.71151 20.9328 3.1765 20.7115 2.73112C20.4902 2.28294 20.0336 2.00003 19.535 2.00283H4.9916C4.26611 2.00283 3.67787 2.58826 3.67787 3.30815V21.0532C3.67787 21.3698 3.93557 21.6275 4.2549 21.6275C4.57423 21.6275 4.83193 21.3698 4.83193 21.0532V12.7087H19.5322C20.0364 12.7087 20.4874 12.4286 20.7087 11.9804C20.9328 11.5294 20.8796 11.0056 20.5266 10.5546C20.5294 10.5546 17.4426 7.46501 17.4426 7.46501Z" fill="#313235"/>
</svg>
