<svg width="24" height="24" viewBox="0 0 24 24" fill="none" xmlns="http://www.w3.org/2000/svg">
<path fill-rule="evenodd" clip-rule="evenodd" d="M17.4846 7.27737C17.4202 7.33899 17.423 7.43983 17.4874 7.50706L20.5854 10.6023C20.9384 11.0561 20.9916 11.5827 20.7675 12.0337C20.5434 12.4847 20.0896 12.7648 19.5854 12.7648H4.83754V21.1345C4.83754 21.451 4.57703 21.7087 4.2577 21.7087C3.93838 21.7087 3.67787 21.451 3.67787 21.1345V3.33339C3.67787 2.6135 4.26891 2.02527 4.9944 2.02527H19.5854C20.0924 2.02527 20.5434 2.30538 20.7675 2.75636C20.9916 3.20734 20.9384 3.73395 20.6331 4.13171L17.4846 7.27737ZM19.5854 11.6163C19.6723 11.6163 19.7115 11.5603 19.7283 11.5267C19.7479 11.4875 19.7619 11.4258 19.7115 11.3614L16.6611 8.31659C16.1541 7.79838 16.1569 6.97205 16.6639 6.46504L19.7647 3.37821C19.7647 3.36981 19.7507 3.31098 19.7311 3.26897C19.7143 3.23535 19.6751 3.17933 19.5882 3.17933H4.9972C4.90756 3.17933 4.83754 3.24936 4.83754 3.33619V11.6163H19.5854Z" fill="#313235"/>
</svg>
