<svg width="24" height="24" viewBox="0 0 24 24" fill="none" xmlns="http://www.w3.org/2000/svg">
<path fill-rule="evenodd" clip-rule="evenodd" d="M17.1565 7.17871C17.0165 7.32156 17.0193 7.54845 17.1593 7.68851L20.3274 10.8482C20.6299 11.2347 20.6747 11.6941 20.4786 12.0863C20.2826 12.4784 19.8876 12.7221 19.4478 12.7221H4.16492V21.4532C4.16492 21.6689 3.98564 21.8426 3.76996 21.8426C3.55147 21.8426 3.375 21.6661 3.375 21.4504V3.29355C3.375 2.6661 3.89041 2.1563 4.52346 2.1563H19.4478C19.8848 2.1535 20.2854 2.39999 20.4786 2.79215C20.6747 3.18151 20.6299 3.64929 20.361 3.99103L17.1565 7.17871ZM19.4478 11.9378C19.5851 11.9406 19.7111 11.8622 19.77 11.7389C19.798 11.6801 19.8568 11.5232 19.7335 11.3636L16.5963 8.23753C16.1537 7.79215 16.1537 7.07226 16.5963 6.62688L19.7644 3.47562C19.8512 3.35518 19.798 3.19831 19.7672 3.13949C19.7447 3.09187 19.6523 2.94061 19.445 2.94061H4.52066C4.32178 2.94061 4.16211 3.10027 4.16211 3.29635V11.9378H19.4478Z" fill="#313235"/>
</svg>
