<svg width="24" height="24" viewBox="0 0 24 24" fill="none" xmlns="http://www.w3.org/2000/svg">
<path fill-rule="evenodd" clip-rule="evenodd" d="M16.905 6.80671C19.2299 6.15125 21.003 7.16526 21.6529 9.5294C22.2999 11.8991 21.2971 13.7087 18.9694 14.3669C18.6585 14.4482 18.3391 14.4902 18.017 14.493C18.3587 14.7759 18.6585 15.0784 18.8741 15.4033V15.4061C19.5352 16.4005 19.7901 17.4313 19.6136 18.3809C19.4372 19.3361 18.8265 20.1932 17.8517 20.8655C17.0646 21.4117 16.2747 21.6806 15.5268 21.6806C14.3784 21.6806 13.3251 21.0504 12.5044 19.8207C12.3139 19.535 12.1655 19.1876 12.0422 18.8179C11.9162 19.1932 11.7649 19.5462 11.5716 19.8375C10.9106 20.8291 10.0674 21.4509 9.13187 21.6302C8.94139 21.6694 8.74532 21.6862 8.54924 21.6862C7.78733 21.6862 6.99462 21.4117 6.22431 20.8739C4.23272 19.5014 3.84897 17.4622 5.2019 15.4201C5.41479 15.098 5.70891 14.7955 6.04504 14.5154C5.6865 14.5098 5.33916 14.4706 5.03104 14.3809C2.70611 13.7227 1.70611 11.9131 2.35317 9.54341C2.66689 8.38654 3.27474 7.5238 4.10387 7.04761C4.933 6.57422 5.96941 6.49579 7.10106 6.82072C7.55764 6.95237 8.01983 7.21288 8.47361 7.535C8.27753 6.97758 8.15148 6.42576 8.15428 5.91876C8.15428 3.46778 9.59685 2 12.0114 2H12.0142C14.426 2.0112 15.8602 3.48459 15.8517 5.94397C15.8517 6.43417 15.7257 6.97198 15.5352 7.5182C15.989 7.19607 16.4512 6.93557 16.905 6.80671ZM14.6277 5.93837C14.6333 4.18487 13.7285 3.2549 12.0086 3.2465C10.2887 3.2465 9.37837 4.17367 9.37837 5.92436C9.37277 6.73389 9.88817 7.99159 10.7985 9.42296C10.8116 9.41735 10.8272 9.41424 10.8427 9.41113C10.8505 9.40957 10.8583 9.40802 10.8658 9.40615C11.0058 9.36133 11.1515 9.32772 11.3083 9.29971L11.3615 9.29131L11.4148 9.2829C11.6025 9.25489 11.7957 9.23808 12.003 9.23808C12.1963 9.24088 12.3896 9.25209 12.58 9.2801C12.6249 9.2857 12.6697 9.29411 12.7145 9.30251C12.8461 9.32492 12.9778 9.35573 13.1067 9.39495C13.1182 9.39842 13.1308 9.40094 13.1435 9.40349L13.1435 9.40349C13.1615 9.40711 13.1799 9.41079 13.1963 9.41735C14.1123 7.98318 14.6277 6.73108 14.6277 5.93837ZM14.947 12.7031C14.9778 12.3613 14.9694 12.0196 14.9246 11.6807C14.9204 11.6526 14.9155 11.6246 14.9106 11.5966C14.9057 11.5686 14.9008 11.5406 14.8966 11.5126C14.877 11.4005 14.8517 11.2857 14.8209 11.1765C14.8153 11.1578 14.81 11.1388 14.8048 11.1198C14.7942 11.0818 14.7836 11.0439 14.7705 11.0084C14.7397 10.9188 14.7033 10.8319 14.6641 10.7451C14.6137 10.633 14.5548 10.5238 14.4876 10.423L14.4372 10.3417C14.4301 10.3322 14.4234 10.3212 14.4167 10.3099C14.4075 10.2947 14.398 10.279 14.3868 10.2661C15.4708 9.0336 16.4904 8.22128 17.2299 8.01119C18.8882 7.53781 20.0086 8.18206 20.4708 9.86553C20.933 11.5546 20.2999 12.6975 18.6417 13.1708C17.891 13.3809 16.5604 13.2129 14.947 12.7031ZM18.412 18.1484C18.2943 18.7787 17.8742 19.3445 17.1655 19.8347C15.7453 20.8179 14.4848 20.5714 13.5184 19.1204C13.0534 18.4229 12.7873 17.0168 12.7733 15.2213C12.7883 15.2183 12.8016 15.2137 12.8147 15.2092C12.8261 15.2053 12.8372 15.2015 12.849 15.1989C12.9946 15.168 13.1375 15.126 13.2775 15.0728C13.3027 15.063 13.3272 15.0525 13.3517 15.042C13.3763 15.0315 13.4008 15.021 13.426 15.0112C13.5464 14.958 13.6613 14.8963 13.7677 14.8291C13.7875 14.8154 13.8081 14.8034 13.8283 14.7916L13.8283 14.7916L13.8284 14.7915C13.8452 14.7817 13.8617 14.7721 13.877 14.7619C14.0114 14.6638 14.1347 14.5574 14.2467 14.437C14.2599 14.4222 14.272 14.4054 14.2844 14.3885L14.2844 14.3885C14.2931 14.3765 14.3019 14.3645 14.3111 14.3529C14.3952 14.2521 14.4708 14.1428 14.5408 14.028C14.5478 14.0168 14.5555 14.007 14.5632 13.9972C14.5709 13.9874 14.5786 13.9776 14.5856 13.9664C16.2187 14.6442 17.398 15.4117 17.8657 16.1092C18.3447 16.8319 18.5296 17.5182 18.412 18.1484ZM8.90498 20.4061C9.52403 20.2857 10.0814 19.8599 10.5632 19.1372C11.0254 18.4397 11.2915 17.0364 11.3027 15.2381C11.2817 15.2339 11.2621 15.2276 11.2425 15.2213C11.2229 15.215 11.2033 15.2087 11.1823 15.2045C10.8658 15.1456 10.5632 15.0308 10.2887 14.8627C10.2705 14.8515 10.2509 14.841 10.2313 14.8305C10.2117 14.82 10.1921 14.8095 10.1739 14.7983C10.0366 14.7059 9.91338 14.5994 9.80134 14.4818C9.78593 14.465 9.77192 14.4475 9.75792 14.4299L9.75791 14.4299C9.74391 14.4124 9.7299 14.3949 9.7145 14.3781C9.63327 14.2829 9.56044 14.1821 9.49321 14.0756C9.48621 14.063 9.47711 14.0518 9.46801 14.0406L9.468 14.0406L9.468 14.0406C9.45889 14.0294 9.44979 14.0182 9.44279 14.0056C7.82935 14.6807 6.66689 15.4398 6.21311 16.1232C5.24952 17.577 5.49042 18.8627 6.91058 19.8431C7.61927 20.3361 8.28593 20.521 8.90498 20.4061ZM5.35877 13.1821C4.53244 12.9468 3.95821 12.5462 3.65009 11.9888C3.34196 11.4314 3.30275 10.7227 3.53244 9.87954C3.76213 9.0392 4.15709 8.45097 4.70331 8.13724C5.03104 7.95517 5.40358 7.86274 5.77893 7.87114C6.08426 7.87114 6.41479 7.92156 6.77053 8.0252C7.51002 8.23808 8.52403 9.04761 9.59966 10.2773C9.49041 10.4258 9.40358 10.591 9.32515 10.7703C9.30942 10.8057 9.29645 10.8424 9.28334 10.8796C9.27777 10.8954 9.27217 10.9113 9.26632 10.9272C9.2131 11.0756 9.16828 11.2297 9.13467 11.3837C9.12958 11.4117 9.12392 11.4397 9.1182 11.4679C9.11133 11.5019 9.10437 11.5362 9.09826 11.5714C9.06184 11.8039 9.04223 12.0364 9.04223 12.2717C9.04223 12.4258 9.04784 12.5742 9.06184 12.7199C7.4512 13.2297 6.12067 13.4033 5.35877 13.1821ZM12.1431 14.0392C12.0955 14.0392 12.0506 14.042 12.003 14.0476H11.9274C10.7705 14.0224 10.4792 13.4566 10.3616 13.0336C10.356 13.0112 10.3476 12.9888 10.3392 12.9692C10.3263 12.9197 10.3183 12.867 10.3102 12.8134L10.3027 12.7647C10.3001 12.7446 10.2961 12.7252 10.2921 12.7054L10.2921 12.7054C10.2877 12.6839 10.2833 12.662 10.2803 12.6386C10.2691 12.5154 10.2607 12.3893 10.2607 12.2633C10.2607 11.5686 10.44 11.0784 10.7929 10.8011C10.8068 10.7907 10.8228 10.7814 10.8448 10.7685L10.8449 10.7685C10.8585 10.7606 10.8745 10.7513 10.8938 10.7395C11.1683 10.5686 11.5408 10.4818 12.0002 10.4818C12.4624 10.4818 12.8293 10.5658 13.0982 10.7311C13.1123 10.7423 13.1767 10.7843 13.1935 10.7927C13.5548 11.0644 13.7397 11.5574 13.7397 12.2633C13.7453 12.5098 13.7173 12.7535 13.6557 12.9944V12.9972C13.5352 13.4622 13.2523 13.9972 12.1431 14.0392Z" fill="#313235"/>
</svg>
