<svg width="24" height="24" viewBox="0 0 24 24" fill="none" xmlns="http://www.w3.org/2000/svg">
<path fill-rule="evenodd" clip-rule="evenodd" d="M21.66 9.56308C22.2847 11.8544 21.3183 13.6023 19.0718 14.241C18.744 14.3362 18.3771 14.3754 17.9877 14.3754C17.8629 14.3754 17.7321 14.3634 17.6019 14.3515C17.5539 14.3472 17.5059 14.3428 17.4583 14.339C18.027 14.7255 18.5312 15.1597 18.8505 15.6387C20.1586 17.6107 19.7889 19.5827 17.8589 20.9132C17.1082 21.4342 16.3407 21.7003 15.6068 21.7003C15.4163 21.7003 15.2286 21.6807 15.0438 21.6443C14.1474 21.4706 13.3323 20.8684 12.6908 19.9048C12.3855 19.4454 12.181 18.8432 12.0382 18.1989C11.8981 18.8516 11.6908 19.4594 11.3827 19.9216C10.7384 20.8852 9.92331 21.4874 9.02695 21.6611C8.84488 21.6975 8.66001 21.7143 8.47233 21.7143C7.73564 21.7143 6.96533 21.4454 6.21463 20.9216C5.26785 20.269 4.67682 19.4398 4.50595 18.5267C4.33508 17.6135 4.58438 16.6191 5.22583 15.6527C5.54516 15.1737 6.05217 14.7339 6.62359 14.3474C6.58837 14.3508 6.55297 14.3544 6.51751 14.358C6.34994 14.375 6.18087 14.3922 6.02135 14.3922C5.632 14.3922 5.26225 14.353 4.93172 14.2578C3.83088 13.944 3.01015 13.3502 2.56197 12.5379C2.11379 11.7283 2.03816 10.7031 2.34628 9.57989C2.65441 8.45384 3.23984 7.6191 4.03536 7.16252C4.83368 6.70594 5.83648 6.63311 6.93732 6.94964C7.58438 7.13451 8.25665 7.58269 8.8925 8.12891C8.53116 7.33339 8.27905 6.52387 8.28466 5.81238C8.28466 3.44263 9.67681 2.02527 12.0101 2.02527H12.0129C13.1558 2.03087 14.0998 2.38381 14.744 3.04488C15.3883 3.70594 15.7272 4.67233 15.7216 5.83759C15.7216 6.52947 15.4723 7.32499 15.1166 8.1065C15.7524 7.56308 16.4247 7.1177 17.0718 6.93283C19.3183 6.29698 21.0326 7.27737 21.66 9.56308ZM12.0118 14.3648C12.0141 14.3655 12.0163 14.3663 12.0185 14.367C12.0606 14.3502 12.1054 14.3362 12.1502 14.3334C13.1306 14.2998 13.6852 13.9076 13.8981 13.1093C13.8981 13.1065 13.8995 13.1044 13.9009 13.1023C13.9023 13.1002 13.9037 13.0981 13.9037 13.0953C13.9051 13.0925 13.9051 13.089 13.9051 13.0855C13.9051 13.082 13.9051 13.0785 13.9065 13.0757C13.9625 12.86 13.9905 12.5995 13.9905 12.3026C13.9905 11.5071 13.772 10.9412 13.3435 10.6219C13.3329 10.6149 13.3246 10.6045 13.3163 10.5943C13.3115 10.5883 13.3067 10.5823 13.3015 10.5771C13.2917 10.5722 13.2815 10.5689 13.2711 10.5656C13.2577 10.5613 13.2441 10.557 13.2314 10.5491C12.9261 10.3586 12.5115 10.2634 11.9989 10.2634C11.4919 10.2634 11.0718 10.3614 10.758 10.5575C10.7445 10.566 10.7298 10.5683 10.7148 10.5707C10.7051 10.5722 10.6951 10.5738 10.6852 10.5771C10.6805 10.5827 10.6762 10.5886 10.6718 10.5945C10.6631 10.6063 10.6544 10.6182 10.6432 10.6275C10.2202 10.9524 10.0073 11.5183 10.0073 12.3026C10.0073 12.5995 10.0382 12.8628 10.0942 13.0897V13.1065C10.0965 13.1122 10.1001 13.1174 10.1039 13.1228C10.1093 13.1305 10.1149 13.1385 10.1166 13.1485C10.3323 13.93 10.9233 14.3222 11.9177 14.3446C11.9517 14.3446 11.9808 14.3543 12.0118 14.3648Z" fill="#313235"/>
</svg>
