<svg width="24" height="24" viewBox="0 0 24 24" fill="none" xmlns="http://www.w3.org/2000/svg">
<path fill-rule="evenodd" clip-rule="evenodd" d="M3.46499 20.2367H20.2241C21.0308 20.2367 21.6863 19.5813 21.6863 18.7746V7.48884C21.6863 6.68211 21.0308 6.02665 20.2241 6.02665H12.07V5.29556C12.07 4.48884 11.4118 3.83337 10.605 3.83337H3.46499C2.65546 3.83337 2 4.48884 2 5.29556V18.7717C2 19.5813 2.65826 20.2367 3.46499 20.2367ZM3.27731 5.29556C3.27731 5.18912 3.35854 5.10788 3.46499 5.10788H10.605C10.7115 5.10788 10.7927 5.18912 10.7927 5.29556V6.66531C10.7927 7.01825 11.0784 7.30396 11.4314 7.30396H20.2241C20.3305 7.30396 20.4118 7.38519 20.4118 7.49164V18.7746C20.4118 18.8782 20.3277 18.9622 20.2241 18.9622H3.46499C3.35854 18.9622 3.27731 18.881 3.27731 18.7746V5.29556Z" fill="#313235"/>
</svg>
