<svg width="24" height="24" viewBox="0 0 24 24" fill="none" xmlns="http://www.w3.org/2000/svg">
<path fill-rule="evenodd" clip-rule="evenodd" d="M21.6862 7.44987C21.6862 6.64315 21.0307 5.98769 20.224 5.98769H12.0672V5.2538C12.0672 4.44709 11.4117 3.79163 10.605 3.79163H3.46218C2.65546 3.79163 2 4.44709 2 5.2538V18.7327C2 19.5395 2.65546 20.1949 3.46218 20.1949H20.224C21.0307 20.1949 21.6862 19.5395 21.6862 18.7327V7.44987ZM5.43696 8.786C4.5238 8.786 4.17646 9.37423 4.17646 10.4975C4.17646 11.6235 4.5238 12.2034 5.43696 12.2034C6.35012 12.2034 6.69746 11.6235 6.69746 10.4975C6.69746 9.37143 6.35012 8.786 5.43696 8.786ZM5.43696 9.2902C5.82631 9.2902 5.98037 9.58992 5.98037 10.4975C5.98037 11.405 5.82631 11.6515 5.43696 11.6515C5.04761 11.6515 4.89354 11.4078 4.89354 10.4975C4.89354 9.58712 5.04761 9.2902 5.43696 9.2902ZM9.02798 8.786C8.11482 8.786 7.76748 9.37423 7.76748 10.4975C7.76748 11.6235 8.11482 12.2034 9.02798 12.2034C9.94114 12.2034 10.2885 11.6235 10.2885 10.4975C10.2885 9.37143 9.94114 8.786 9.02798 8.786ZM9.02798 9.2902C9.41733 9.2902 9.57139 9.58992 9.57139 10.4975C9.57139 11.405 9.41733 11.6515 9.02798 11.6515C8.63863 11.6515 8.48456 11.4078 8.48456 10.4975C8.48456 9.58712 8.63863 9.2902 9.02798 9.2902ZM16.8907 10.4975C16.8907 9.37423 17.238 8.786 18.1512 8.786C19.0643 8.786 19.4117 9.37143 19.4117 10.4975C19.4117 11.6235 19.0643 12.2034 18.1512 12.2034C17.238 12.2034 16.8907 11.6235 16.8907 10.4975ZM18.6918 10.4975C18.6918 9.58992 18.5377 9.2902 18.1484 9.2902C17.759 9.2902 17.605 9.58712 17.605 10.4975C17.605 11.4078 17.759 11.6515 18.1484 11.6515C18.5377 11.6515 18.6918 11.405 18.6918 10.4975ZM11.3053 11.6908H11.8571V9.39944H11.3277V8.94006C11.521 8.91205 11.8487 8.88404 12.0812 8.88404C12.4173 8.88404 12.5322 8.96527 12.5322 9.20617V11.6936H12.9971V12.1781H11.3025V11.6908H11.3053ZM5.19606 17.0913H4.64425V17.5787H6.33892V17.0941H5.87393V14.6067C5.87393 14.3658 5.75909 14.2846 5.42295 14.2846C5.19046 14.2846 4.86273 14.3126 4.66946 14.3406V14.8H5.19606V17.0913ZM14.2128 11.6908H14.7646V9.39944H14.238V8.94006C14.4313 8.91205 14.759 8.88404 14.9915 8.88404C15.3277 8.88404 15.4425 8.96527 15.4425 9.20617V11.6936H15.9075V12.1781H14.2128V11.6908ZM7.76748 15.9008C7.76748 14.7776 8.11482 14.1893 9.02798 14.1893C9.94114 14.1893 10.2885 14.7748 10.2885 15.9008C10.2885 17.0269 9.94114 17.6067 9.02798 17.6067C8.11482 17.6067 7.76748 17.0269 7.76748 15.9008ZM9.57139 15.9008C9.57139 14.9933 9.41733 14.6935 9.02798 14.6935C8.63863 14.6935 8.48456 14.9905 8.48456 15.9008C8.48456 16.8112 8.63863 17.0549 9.02798 17.0549C9.41733 17.0549 9.57139 16.8084 9.57139 15.9008ZM18.1512 14.1893C17.238 14.1893 16.8907 14.7776 16.8907 15.9008C16.8907 17.0269 17.238 17.6067 18.1512 17.6067C19.0643 17.6067 19.4117 17.0269 19.4117 15.9008C19.4117 14.7748 19.0643 14.1893 18.1512 14.1893ZM18.1484 14.6935C18.5377 14.6935 18.6918 14.9933 18.6918 15.9008C18.6918 16.8084 18.5377 17.0549 18.1484 17.0549C17.759 17.0549 17.605 16.8112 17.605 15.9008C17.605 14.9905 17.759 14.6935 18.1484 14.6935ZM11.8571 17.0941H11.3053H11.3025V17.5815H12.9971V17.0969H12.5322V14.6095C12.5322 14.3686 12.4173 14.2874 12.0812 14.2874C11.8487 14.2874 11.521 14.3154 11.3277 14.3434V14.8028H11.8571V17.0941ZM14.2128 17.0941H14.7646V14.8028H14.238V14.3434C14.4313 14.3154 14.759 14.2874 14.9915 14.2874C15.3277 14.2874 15.4425 14.3686 15.4425 14.6095V17.0969H15.9075V17.5815H14.2128V17.0941Z" fill="#313235"/>
</svg>
