<svg width="24" height="24" viewBox="0 0 24 24" fill="none" xmlns="http://www.w3.org/2000/svg">
<path fill-rule="evenodd" clip-rule="evenodd" d="M12.0168 2C12.1204 2 12.2213 2 12.3221 2.0028C14.2997 2.03081 21.7143 2.7451 21.7114 11.8767C21.7114 20.9916 14.3669 21.6694 12.3893 21.6862H12.1933C11.9412 21.6862 11.6835 21.6834 11.4566 21.6778C9.5294 21.633 2.02521 20.8711 2.02521 11.8179C2.02521 2.7451 9.5406 2.04202 11.4201 2.0056C11.5994 2.0028 11.8067 2 12.0168 2ZM12.0168 3.22969C11.8179 3.22969 11.619 3.23249 11.4454 3.23529C10.8963 3.2465 10.1821 3.30532 9.40895 3.46778L11.2549 4.80672C11.6078 5.07282 12.1456 5.06722 12.4818 4.81232L14.3445 3.45938C13.5686 3.29692 12.8515 3.24089 12.3025 3.23249L12.0168 3.22969ZM12.1961 20.4538H12.3809C12.6835 20.4538 13.0336 20.4369 13.4145 20.3977C13.4208 20.3696 13.4259 20.341 13.431 20.3125L13.431 20.3125L13.431 20.3125C13.4396 20.2644 13.4481 20.2165 13.4622 20.1708L14.2969 17.605C14.3781 17.3389 14.5238 17.0896 14.7059 16.8655L14.1708 15.9916C13.8795 16.126 13.5602 16.2045 13.2241 16.2045H10.4902C10.1372 16.2045 9.80951 16.1092 9.50699 15.958L8.92436 16.8375C9.10083 17.056 9.24088 17.3025 9.32492 17.5686L10.1568 20.1316C10.1702 20.1699 10.1766 20.2101 10.1831 20.2512C10.1875 20.2793 10.192 20.3077 10.1989 20.3361C10.6807 20.4033 11.1232 20.4369 11.4902 20.4453C11.7059 20.451 11.9552 20.4538 12.1961 20.4538ZM15.4678 17.9776L14.7563 20.1624C16.2661 19.7927 17.9496 18.986 19.098 17.2605H16.465C16.2605 17.2661 16.028 17.3277 15.8459 17.4594C15.6638 17.591 15.5294 17.7759 15.4678 17.9776ZM4.70027 17.2185H7.17646C7.38094 17.2185 7.59383 17.2885 7.7731 17.4201C7.95517 17.5518 8.08962 17.7367 8.15405 17.9468L8.83752 20.0532C7.38094 19.6414 5.80671 18.8263 4.70027 17.2185ZM9.52099 14.2549L9.38094 13.8319L8.68346 11.6779C8.5406 11.2437 8.69466 10.7703 9.06721 10.5014L11.2605 8.90755C11.5966 8.65545 12.1344 8.64705 12.4902 8.91315L14.6778 10.5042C15.0504 10.7731 15.2045 11.2437 15.0616 11.6807L14.2269 14.2465C14.084 14.6835 13.6807 14.9776 13.2241 14.9776H10.5014C10.0532 14.9748 9.66105 14.6863 9.52099 14.2549ZM18.7563 10.3081L20.4706 11.5546C20.4229 9.42856 19.9299 7.83753 19.1904 6.64705L18.3837 9.13724C18.3109 9.34733 18.3109 9.57422 18.3809 9.7871C18.451 10.0028 18.5854 10.1877 18.7563 10.3081ZM15.7507 3.87395C16.6638 4.22409 17.5742 4.7647 18.3557 5.58263C18.2241 5.7703 18.1148 5.97198 18.0448 6.19327L17.2129 8.75349C17.1204 9.0252 17.0896 9.31371 17.1092 9.60223L15.9552 10.0868C15.8067 9.86833 15.6246 9.66665 15.3977 9.50699L13.2185 7.92436C13 7.7619 12.7507 7.64985 12.4846 7.58262V6.15125C12.7507 6.07842 13 5.96358 13.2101 5.80392L15.3921 4.21848C15.5206 4.12856 15.6231 4.01506 15.7235 3.90394L15.7507 3.87395ZM8.03185 3.91176L8.00279 3.87955C7.08402 4.22969 6.16806 4.7703 5.38655 5.58263C5.49579 5.75069 5.59103 5.92997 5.65265 6.12324L6.48458 8.68906C6.57702 8.96077 6.60783 9.25489 6.58542 9.54901L7.7787 10.1008C7.92996 9.87394 8.11763 9.66665 8.35013 9.50139L10.5322 7.91596C10.7451 7.75629 10.9944 7.64705 11.2577 7.57702V6.14845C10.9916 6.07562 10.7423 5.96078 10.5238 5.79551L8.34733 4.21568C8.22765 4.12911 8.1288 4.01938 8.03185 3.91176ZM4.53781 6.68066L5.31652 9.08402C5.38655 9.2829 5.38375 9.50979 5.31372 9.72548C5.24369 9.93836 5.11204 10.1232 4.93277 10.2521L3.27731 11.4566C3.32773 9.39214 3.81232 7.84033 4.53781 6.68066ZM4.05322 16.0224C4.17927 16 4.30812 15.986 4.43977 15.986V15.9888H7.15405C7.41736 15.986 7.67786 16.0364 7.92436 16.126L8.58822 15.1232C8.58122 15.112 8.57281 15.1022 8.56441 15.0924C8.55601 15.0826 8.54761 15.0728 8.5406 15.0616H8.49018L7.51539 12.0588C7.43136 11.8039 7.39775 11.5434 7.40615 11.2857L6.17646 10.7171C6.0308 10.9216 5.85433 11.1036 5.64985 11.2493L3.47338 12.8319C3.44361 12.8534 3.41091 12.87 3.37873 12.8864C3.35642 12.8977 3.33437 12.9089 3.31372 12.9216C3.41176 14.1428 3.67506 15.1624 4.05322 16.0224ZM19.1764 16.028H16.4454C16.1989 16.028 15.9496 16.0756 15.7143 16.1568L15.1176 15.1877C15.2325 15.0168 15.3305 14.8291 15.3949 14.6274L16.2297 12.0616C16.3165 11.7955 16.3473 11.5266 16.3389 11.2605L17.5098 10.7675C17.6582 10.9804 17.8347 11.1653 18.0392 11.3109L20.2213 12.8991C20.2625 12.9296 20.3082 12.9532 20.3535 12.9765C20.379 12.9896 20.4043 13.0026 20.4285 13.0168C20.3305 14.2325 20.07 15.2465 19.703 16.098C19.5322 16.056 19.3557 16.028 19.1764 16.028Z" fill="#313235"/>
</svg>
