<svg width="24" height="24" viewBox="0 0 24 24" fill="none" xmlns="http://www.w3.org/2000/svg">
<path fill-rule="evenodd" clip-rule="evenodd" d="M20.2034 13.9191C20.2034 10.6026 18.2622 8.0844 14.9905 7.09001V4.26648C14.9905 3.10401 14.0493 2.16003 12.8953 2.16003H10.7664C9.60957 2.16003 8.6712 3.10401 8.6712 4.26648V7.21886C5.98212 8.17124 3.80005 10.3421 3.80005 13.9191C3.80005 16.2945 4.74123 18.2553 6.47232 19.5438C6.28184 19.7875 6.16139 20.09 6.16139 20.4233C6.16139 21.2077 6.79725 21.8463 7.58156 21.8463H16.4583C17.2398 21.8463 17.8757 21.2077 17.8757 20.4233C17.8757 20.1012 17.7636 19.8043 17.5816 19.5662C19.2986 18.2917 20.2034 16.3617 20.2034 13.9191ZM10.7664 3.36452C10.2706 3.36452 9.86728 3.76788 9.86728 4.26648H9.87008V6.87992C10.5732 6.72866 11.2902 6.65303 12.0017 6.65303C12.6124 6.65303 13.209 6.72306 13.7944 6.8239V4.26648C13.7944 3.76788 13.3911 3.36452 12.8953 3.36452H10.7664ZM7.57876 20.6418H16.4555C16.576 20.6418 16.674 20.5438 16.674 20.4205C16.674 20.3001 16.576 20.1992 16.4555 20.1992H7.57876C7.45551 20.1992 7.35747 20.2973 7.35747 20.4205C7.35747 20.5438 7.45831 20.6418 7.57876 20.6418ZM8.9233 15.4317V12.5858C8.9233 12.1908 9.24263 11.8687 9.63758 11.8687H14.1194C14.5143 11.8687 14.8337 12.1908 14.8337 12.5858V15.4317C14.8337 15.8267 14.5143 16.1488 14.1194 16.1488H9.63758C9.24263 16.1488 8.9233 15.8267 8.9233 15.4317ZM9.63758 17.3505C8.58156 17.3505 7.72442 16.4906 7.72442 15.4317V12.5858C7.72442 11.527 8.58156 10.6642 9.63758 10.6642H14.1194C15.1726 10.6642 16.0325 11.527 16.0325 12.5858V15.4317C16.0325 16.4906 15.1754 17.3505 14.1194 17.3505H9.63758ZM10.6208 13.1628C10.6208 13.3841 10.8 13.5634 11.0213 13.5634H12.6936C12.9149 13.5634 13.0942 13.3841 13.0942 13.1628C13.0942 12.9415 12.9149 12.7623 12.6936 12.7623H11.0213C10.8 12.7623 10.6208 12.9415 10.6208 13.1628ZM10.3911 15.1544C10.1698 15.1544 9.99053 14.9752 9.99053 14.7539C9.99053 14.5326 10.1698 14.3533 10.3911 14.3533H13.3183C13.5395 14.3533 13.7188 14.5326 13.7188 14.7539C13.7188 14.9752 13.5395 15.1544 13.3183 15.1544H10.3911ZM12.3995 5.36732C12.2258 5.36732 12.083 5.21045 12.083 5.01998C12.083 4.8267 12.2258 4.66984 12.3995 4.66984C12.5732 4.66984 12.716 4.8295 12.716 5.01998C12.716 5.21045 12.5732 5.36732 12.3995 5.36732ZM13.5143 5.01998C13.5143 5.65303 13.0129 6.17124 12.3995 6.17124C11.7832 6.17124 11.2846 5.65303 11.2846 5.01998C11.2846 4.38412 11.786 3.86872 12.3995 3.86872C13.0157 3.86592 13.5143 4.38412 13.5143 5.01998ZM15.7664 4.0732C15.8813 4.19085 16.0353 4.24967 16.1894 4.24967C16.3435 4.24967 16.4975 4.19085 16.6152 4.0704L17.3267 3.35611C17.562 3.12082 17.562 2.73987 17.3267 2.50457C17.0914 2.26928 16.7132 2.26928 16.4779 2.50457L15.7664 3.22166C15.5311 3.45695 15.5311 3.83791 15.7664 4.0732ZM16.3687 4.85471C16.3687 4.52138 16.6376 4.25247 16.9681 4.25247H18.2734C18.604 4.25247 18.8729 4.52138 18.8729 4.85471C18.8729 5.18805 18.604 5.45695 18.2734 5.45695H16.9681C16.6348 5.45415 16.3687 5.18524 16.3687 4.85471ZM16.6656 5.63903C16.4303 5.40373 16.0521 5.40373 15.8169 5.63903C15.5844 5.87432 15.5844 6.25527 15.8197 6.49057L16.5732 7.24687C16.688 7.36452 16.8421 7.42334 16.9961 7.42334C17.1502 7.42334 17.3014 7.36452 17.4191 7.24687C17.6544 7.01157 17.6544 6.63062 17.4191 6.39533L16.6656 5.63903Z" fill="#313235"/>
</svg>
