<svg width="24" height="24" viewBox="0 0 24 24" fill="none" xmlns="http://www.w3.org/2000/svg">
<path fill-rule="evenodd" clip-rule="evenodd" d="M20.2062 13.9191C20.2062 16.3617 19.3014 18.2945 17.5815 19.5662C17.7636 19.8043 17.8756 20.1012 17.8756 20.4233C17.8756 21.2077 17.2398 21.8463 16.4583 21.8463H7.58151C6.8 21.8463 6.16134 21.2077 6.16134 20.4233C6.16134 20.09 6.28179 19.7875 6.47227 19.5438C4.74118 18.2553 3.8 16.2945 3.8 13.9191C3.8 10.3449 5.98207 8.17124 8.67115 7.21886V4.26648C8.67115 3.10401 9.61232 2.16003 10.7664 2.16003H12.8952C14.0521 2.16003 14.9905 3.10401 14.9905 4.26648V7.09001C18.2678 8.0844 20.2062 10.6026 20.2062 13.9191ZM9.87003 6.87992V4.26648C9.87003 3.76788 10.2734 3.36452 10.7664 3.36452H12.8952C13.391 3.36452 13.7944 3.76788 13.7944 4.26648V6.8239C13.209 6.72306 12.6123 6.65303 12.0017 6.65303C11.2902 6.65303 10.5731 6.72866 9.87003 6.87992ZM5.00168 13.9191C5.00168 16.2077 5.98487 17.9612 7.84482 18.9976H16.2482C18.0521 17.9836 19.0101 16.2329 19.0101 13.9191C19.0101 9.76788 15.6768 8.48496 14.2398 8.12362H14.237C13.5199 7.94715 12.7692 7.85471 12.0017 7.85471C11.1669 7.85471 10.3154 7.97236 9.50588 8.21045C9.50168 8.21185 9.49748 8.21255 9.49329 8.21325L9.49328 8.21326L9.49327 8.21326C9.48907 8.21396 9.48487 8.21466 9.48067 8.21606C7.0409 8.94715 5.00168 10.7959 5.00168 13.9191ZM16.4583 20.6418C16.5787 20.6418 16.6768 20.5438 16.6768 20.4205C16.6768 20.2973 16.5787 20.1992 16.4583 20.1992H7.58151C7.46106 20.1992 7.36022 20.3001 7.36022 20.4205C7.36022 20.541 7.45826 20.6418 7.58151 20.6418H16.4583ZM8.92605 15.4317V12.5858C8.92605 12.1908 9.24538 11.8687 9.64034 11.8687H14.1221C14.5171 11.8687 14.8364 12.1908 14.8364 12.5858V15.4317C14.8364 15.8267 14.5171 16.1488 14.1221 16.1488H9.64034C9.24538 16.1488 8.92605 15.8267 8.92605 15.4317ZM9.64034 17.3505C8.58431 17.3505 7.72717 16.4906 7.72717 15.4317V12.5858C7.72717 11.527 8.58431 10.6642 9.64034 10.6642H14.1221C15.1753 10.6642 16.0353 11.527 16.0353 12.5858V15.4317C16.0353 16.4906 15.1782 17.3505 14.1221 17.3505H9.64034ZM12.4022 5.36732C12.2286 5.36732 12.0857 5.21045 12.0857 5.01998C12.0857 4.8267 12.2286 4.66984 12.4022 4.66984C12.5759 4.66984 12.7188 4.8295 12.7188 5.01998C12.7188 5.21045 12.5759 5.36732 12.4022 5.36732ZM13.5171 5.01998C13.5171 5.65303 13.0157 6.17124 12.4022 6.17124C11.786 6.17124 11.2874 5.65303 11.2874 5.01998C11.2874 4.38412 11.7888 3.86872 12.4022 3.86872C13.0185 3.86592 13.5171 4.38412 13.5171 5.01998ZM15.7692 4.0732C15.884 4.19085 16.0381 4.24967 16.1922 4.24967C16.3462 4.24967 16.5003 4.19085 16.6179 4.0704L17.3294 3.35611C17.5647 3.12082 17.5647 2.73987 17.3294 2.50457C17.0941 2.26928 16.716 2.26928 16.4807 2.50457L15.7692 3.22166C15.5339 3.45695 15.5339 3.83791 15.7692 4.0732ZM16.3714 4.85471C16.3714 4.52138 16.6403 4.25247 16.9709 4.25247H18.2762C18.6067 4.25247 18.8756 4.52138 18.8756 4.85471C18.8756 5.18805 18.6067 5.45695 18.2762 5.45695H16.9709C16.6375 5.45415 16.3714 5.18524 16.3714 4.85471ZM16.6683 5.63903C16.4331 5.40373 16.0549 5.40373 15.8196 5.63903C15.5871 5.87432 15.5871 6.25527 15.8224 6.49057L16.5759 7.24687C16.6908 7.36452 16.8448 7.42334 16.9989 7.42334C17.1529 7.42334 17.3042 7.36452 17.4218 7.24687C17.6571 7.01157 17.6571 6.63062 17.4218 6.39533L16.6683 5.63903ZM11.0241 13.5634C10.8028 13.5634 10.6235 13.3841 10.6235 13.1628C10.6235 12.9415 10.8028 12.7623 11.0241 12.7623H12.6964C12.9176 12.7623 13.0969 12.9415 13.0969 13.1628C13.0969 13.3841 12.9176 13.5634 12.6964 13.5634H11.0241ZM9.99328 14.7539C9.99328 14.9752 10.1725 15.1544 10.3938 15.1544H13.321C13.5423 15.1544 13.7216 14.9752 13.7216 14.7539C13.7216 14.5326 13.5423 14.3533 13.321 14.3533H10.3938C10.1725 14.3533 9.99328 14.5326 9.99328 14.7539Z" fill="#313235"/>
</svg>
