<svg width="24" height="24" viewBox="0 0 24 24" fill="none" xmlns="http://www.w3.org/2000/svg">
<path fill-rule="evenodd" clip-rule="evenodd" d="M2.16 8.35611C2.16 8.8211 2.53815 9.19925 3.00314 9.19925C3.46813 9.19925 3.84628 8.8211 3.84628 8.35891V3.84911H8.35888C8.80146 3.8323 9.1544 3.47656 9.17121 3.03678C9.18801 2.569 8.82387 2.17684 8.35888 2.16003H3.00314C2.53815 2.16003 2.16 2.53819 2.16 3.00317V8.35611ZM9.17961 21.0368C9.19642 20.569 8.83227 20.1768 8.36729 20.16H3.85188V15.6502C3.85188 15.1852 3.47373 14.8071 3.00874 14.8071C2.54376 14.8071 2.16561 15.1852 2.16561 15.6502V21.006C2.16561 21.471 2.54376 21.8491 3.00874 21.8491H8.36729C8.80986 21.8323 9.1628 21.4766 9.17961 21.0368ZM20.9975 14.7931C21.4625 14.7931 21.8407 15.1712 21.8407 15.6362V20.9892C21.8407 21.4542 21.4625 21.8323 20.9975 21.8323H15.639C15.174 21.8071 14.8155 21.4093 14.8407 20.9443C14.8631 20.513 15.2076 20.1712 15.639 20.146H20.1516V15.6362C20.1544 15.1712 20.5298 14.7931 20.9975 14.7931ZM21.8463 3.02558C21.8463 2.55779 21.4681 2.18244 21.0031 2.18244V2.18524H15.6446C15.1796 2.18524 14.8015 2.5634 14.8015 3.02838C14.8015 3.49337 15.1796 3.87152 15.6446 3.87152H20.1572V8.37852C20.174 8.8211 20.5298 9.17404 20.9695 9.19085C21.4373 9.20765 21.8295 8.84351 21.8463 8.37852V3.02558Z" fill="#313235"/>
</svg>
