<svg width="24" height="24" viewBox="0 0 24 24" fill="none" xmlns="http://www.w3.org/2000/svg">
<path fill-rule="evenodd" clip-rule="evenodd" d="M2.16 8.25247C2.16 8.5718 2.42051 8.8295 2.73984 8.8295C3.05916 8.8295 3.31967 8.5718 3.31967 8.25247V3.3197H8.25244C8.57177 3.3197 8.83227 3.05919 8.83227 2.73987C8.83227 2.42054 8.57177 2.16003 8.25244 2.16003H2.73984C2.42051 2.16003 2.16 2.42054 2.16 2.73987V8.25247ZM8.84348 21.2693C8.84348 20.9499 8.58297 20.6894 8.26365 20.6894C8.26365 20.6894 3.31967 20.6894 3.31687 20.6866V15.7539C3.31126 15.4373 3.05356 15.1824 2.73703 15.1768C2.41771 15.1768 2.16 15.4373 2.16 15.7567V21.2693C2.16 21.5886 2.42051 21.8463 2.73984 21.8491H8.26365C8.58297 21.8491 8.84348 21.5886 8.84348 21.2693ZM21.2664 15.1656C21.583 15.1712 21.8379 15.4289 21.8435 15.7455V21.2693C21.8435 21.5886 21.5858 21.8463 21.2664 21.8463H15.7426C15.4233 21.8463 15.1628 21.5858 15.1628 21.2665C15.1628 20.9471 15.4233 20.6866 15.7426 20.6866H20.6894V15.7427C20.6894 15.4233 20.9471 15.1656 21.2664 15.1656ZM21.8463 2.73707C21.8463 2.41774 21.5858 2.16003 21.2664 2.16003H15.7538C15.4345 2.16003 15.174 2.41774 15.174 2.73707C15.174 3.05639 15.4345 3.3169 15.7538 3.3169H20.6922V8.27488C20.6922 8.59421 20.9499 8.85191 21.2692 8.85191C21.5886 8.85191 21.8463 8.59421 21.8463 8.27488V2.73707Z" fill="#313235"/>
</svg>
