<svg width="24" height="24" viewBox="0 0 24 24" fill="none" xmlns="http://www.w3.org/2000/svg">
<path fill-rule="evenodd" clip-rule="evenodd" d="M21.2381 10.4453L13.1344 2.50418C12.4509 1.83471 11.2913 1.83471 10.6078 2.50418L2.50139 10.4481C2.042 10.8991 1.90475 11.5378 2.14004 12.1176C2.39775 12.7479 3.0364 13.1568 3.76469 13.1568H4.17926V20.084C4.17926 20.9691 4.95797 21.689 5.91595 21.689H7.35852C7.36132 21.689 7.36342 21.6883 7.36552 21.6876C7.36763 21.6869 7.36973 21.6862 7.37253 21.6862C7.37393 21.6862 7.37533 21.6869 7.37673 21.6876C7.37813 21.6883 7.37953 21.689 7.38093 21.689H16.3025C16.3109 21.689 16.3165 21.6862 16.3221 21.6862L16.3264 21.6864C16.3292 21.6867 16.3319 21.6872 16.3347 21.6876C16.3361 21.6878 16.3375 21.6881 16.3389 21.6883C16.3401 21.6885 16.3413 21.6886 16.3426 21.6888L16.3473 21.689H17.703C18.661 21.689 19.4397 20.9691 19.4397 20.084V13.1568H19.9691C20.6974 13.1568 21.3361 12.7507 21.5938 12.1176C21.8375 11.535 21.6974 10.8963 21.2381 10.4453ZM20.4846 11.6582C20.4313 11.7927 20.2633 11.9467 19.9747 11.9467H18.8431C18.5098 11.9467 18.2409 12.2156 18.2409 12.549V20.0784C18.2409 20.2969 17.9972 20.4789 17.7086 20.4789H16.9551V12.633C16.9551 12.2997 16.6862 12.0308 16.3529 12.0308H7.36132C7.02799 12.0308 6.75908 12.2997 6.75908 12.633V20.4789H5.91875C5.63023 20.4789 5.38654 20.2969 5.38654 20.0784V12.549C5.38654 12.2156 5.11763 11.9467 4.7843 11.9467H3.76749C3.47618 11.9467 3.31091 11.7899 3.25769 11.6582C3.20447 11.5322 3.23528 11.4145 3.34732 11.3053L11.451 3.36132C11.6666 3.14843 12.0756 3.14843 12.2913 3.36132L20.3949 11.3053C20.507 11.4145 20.535 11.535 20.4846 11.6582Z" fill="#313235"/>
</svg>
