<svg width="24" height="24" viewBox="0 0 24 24" fill="none" xmlns="http://www.w3.org/2000/svg">
<path fill-rule="evenodd" clip-rule="evenodd" d="M21.7087 8.56438C21.7073 8.58119 21.7059 8.59799 21.7059 8.6162L21.7087 18.8963C21.7087 20.9355 20.2493 21.6862 19 21.7086H18.8571C17.5294 21.6918 16.0672 20.9411 16.0672 18.8851V15.0112C16.0672 14.1652 15.3753 13.4761 14.5266 13.4761H14.0476V20.3305C14.0476 21.0644 13.3893 21.7086 12.6386 21.7086H3.43417C2.68347 21.7086 2.02521 21.0644 2.02521 20.3305V3.41732C2.02521 2.69743 2.69748 2.03917 3.43417 2.03917H12.6386C13.3753 2.03917 14.0476 2.69743 14.0476 3.41732V12.2689H14.5266C16.042 12.2689 17.2745 13.4986 17.2745 15.0112V18.8851C17.2745 20.2717 18.2269 20.4929 18.7955 20.5013H18.9776C19.5462 20.4901 20.5014 20.2661 20.5014 18.8963L20.4958 10.7983C19.9748 11.0728 19.4342 11.1148 19.2045 11.1204C19.1541 11.1232 19.0952 11.1232 19.0364 11.1232H18.9636C18.437 11.1148 16.4594 10.9243 16.4594 8.49295C16.4594 6.41732 17.8879 5.98315 18.633 5.89911L15.8095 3.04757C15.577 2.81228 15.577 2.43133 15.8151 2.19603C16.0532 1.96074 16.437 1.96634 16.6695 2.20164L21.0028 6.57979C21.0308 6.605 21.056 6.63021 21.0812 6.65822L21.0896 6.66662C21.0896 6.66942 21.0896 6.66942 21.0924 6.67222C21.4482 7.06438 21.7115 7.64141 21.7115 8.51256C21.7115 8.53076 21.7101 8.54757 21.7087 8.56438ZM11.6443 8.82628C11.6443 9.45373 11.1681 9.98595 10.605 9.98595H5.60504C5.04201 9.98595 4.56302 9.45373 4.56302 8.82628V5.73665C4.56302 5.1204 5.04762 4.57698 5.60504 4.57698H10.605C11.1597 4.57698 11.6443 5.1204 11.6443 5.73665V8.82628ZM20.5042 8.54897C20.5042 8.55317 20.5028 8.55738 20.5014 8.56158L20.5014 8.56159C20.5 8.56579 20.4986 8.56999 20.4986 8.57418V8.71704C20.4762 9.16802 20.3137 9.90471 19.1877 9.92432L19.0392 9.92712H18.9832C17.6695 9.90752 17.6695 8.88791 17.6695 8.50415C17.6695 8.1204 17.6695 7.1064 18.958 7.09799H19.0028L19.1653 7.10079C19.647 7.112 19.9496 7.25205 20.1485 7.44253L20.1961 7.49295C20.4986 7.82908 20.5014 8.29127 20.5014 8.52096C20.5042 8.52376 20.5042 8.53777 20.5042 8.54897Z" fill="#313235"/>
</svg>
