<svg width="24" height="24" viewBox="0 0 24 24" fill="none" xmlns="http://www.w3.org/2000/svg">
<path fill-rule="evenodd" clip-rule="evenodd" d="M21.7058 8.61907L21.7143 18.9048C21.7143 20.9412 20.2549 21.6919 19.0028 21.7171H18.8599C17.5322 21.7003 16.07 20.9496 16.07 18.8936V15.0224C16.0672 14.1737 15.3781 13.4874 14.5294 13.4874H14.0476V20.3417C14.0476 21.0756 13.3893 21.7199 12.6386 21.7199H3.43417C2.68347 21.7199 2.02521 21.0756 2.02521 20.3417V3.423C2.02801 2.70311 2.70028 2.04765 3.43697 2.04765H12.6414C13.3781 2.04765 14.0504 2.70591 14.0504 3.4258V12.2773H14.5322C16.0476 12.2773 17.2773 13.5042 17.2801 15.0196L17.2829 18.8908C17.2829 20.2801 18.2353 20.5014 18.8039 20.5098H18.986C19.5546 20.4986 20.5098 20.2773 20.5098 18.9048L20.5042 10.8095C20.1036 11.0112 19.661 11.1205 19.2101 11.1317L19.042 11.1345H18.972C18.4425 11.1261 16.465 10.9356 16.465 8.50422C16.465 6.4286 17.8963 5.99722 18.6386 5.91319L15.8123 3.05605C15.577 2.81796 15.5798 2.437 15.8179 2.20171C16.056 1.96642 16.4369 1.96922 16.6722 2.20731L21.0056 6.58546C21.0139 6.59376 21.0225 6.60207 21.0312 6.61047C21.0489 6.62758 21.0671 6.6451 21.084 6.66389L21.0896 6.67229L21.0924 6.67789C21.4509 7.06725 21.7114 7.64708 21.7114 8.51543C21.7114 8.54751 21.7093 8.57525 21.7068 8.6063L21.7058 8.61907ZM12.6414 3.25493C12.7171 3.25493 12.8347 3.36698 12.8403 3.4258V20.3361C12.8403 20.3978 12.7395 20.5098 12.6414 20.5098H3.43697C3.33893 20.5098 3.23809 20.4006 3.23809 20.3389V3.4286C3.24369 3.36698 3.36134 3.25493 3.43697 3.25493H12.6414ZM20.4986 8.71711C20.4734 9.16809 20.3137 9.90478 19.1876 9.92439L19.0336 9.92159H18.9804C17.6666 9.90478 17.6666 8.88237 17.6666 8.49862C17.6666 8.11767 17.6666 7.10366 18.958 7.09246H19.0028L19.168 7.09526C19.647 7.10646 19.9523 7.24652 20.1484 7.437L20.1988 7.48742C20.5014 7.82075 20.5042 8.28573 20.5042 8.51543V8.54904C20.5042 8.55324 20.5028 8.55744 20.5014 8.56164C20.5 8.56585 20.4986 8.57005 20.4986 8.57425V8.71711ZM10.4342 5.78154L10.4286 8.78153L5.7703 8.77873L5.7787 5.78154H10.4342ZM10.605 4.57706C11.1596 4.57706 11.6442 5.11767 11.6442 5.73672V8.82635C11.6442 9.4538 11.168 9.98601 10.605 9.98601H5.60503C5.04201 9.98601 4.56302 9.4538 4.56302 8.82635V5.73672C4.56302 5.11767 5.05041 4.57706 5.60503 4.57706H10.605Z" fill="#313235"/>
</svg>
