<svg width="24" height="24" viewBox="0 0 24 24" fill="none" xmlns="http://www.w3.org/2000/svg">
<path fill-rule="evenodd" clip-rule="evenodd" d="M17.2608 7.0656H20.5773C21.2412 7.0656 21.8462 7.75468 21.8434 8.51098V11.5082C21.8434 12.2785 21.2496 12.9536 20.5745 12.9536H20.5185V20.4045C20.5185 21.1748 19.9247 21.8499 19.2496 21.8499H4.69219C4.01431 21.8499 3.42048 21.172 3.42048 20.4017V13.046C3.42048 13.0198 3.42729 12.997 3.43427 12.9736C3.43625 12.967 3.43823 12.9603 3.44009 12.9536H3.42888C2.75381 12.9536 2.15997 12.2757 2.15997 11.5054V8.51098C2.15997 7.75468 2.76502 7.0656 3.42888 7.0656H6.68378C6.07594 6.63423 5.67538 6.10482 5.54653 5.51098C5.40647 4.86112 5.57454 4.15524 6.03392 3.46896C6.49331 2.78269 7.08995 2.34571 7.75661 2.20846C8.42328 2.0684 9.14877 2.23647 9.85745 2.68465C10.7874 3.27288 11.5325 4.76588 11.9695 5.87512C12.4093 4.76868 13.1544 3.27288 14.0871 2.68465C14.7958 2.23367 15.5241 2.0684 16.188 2.20846C16.8547 2.34571 17.4513 2.78269 17.9107 3.46896C18.3701 4.15804 18.5381 4.86392 18.3981 5.51098C18.2692 6.10482 17.8715 6.63703 17.2608 7.0656ZM14.5549 3.37653C15.0759 3.04599 15.5661 2.92554 16.0143 3.02078C16.4625 3.11322 16.8603 3.41574 17.1992 3.92274C17.8799 4.93955 17.6866 5.8247 16.639 6.48857C15.7454 7.0544 13.5493 6.99837 12.5017 6.88353C12.8266 5.88633 13.6642 3.93955 14.5549 3.37653ZM7.93308 3.02078C7.4849 3.11322 7.08714 3.41574 6.74821 3.92274C6.40927 4.42975 6.28882 4.90594 6.38406 5.34291C6.4765 5.77428 6.79023 6.16364 7.31123 6.49137C8.20479 7.0544 10.4037 6.99837 11.4485 6.88633C11.1208 5.88913 10.2804 3.93955 9.39247 3.37933C8.9835 3.12162 8.59415 2.99277 8.23 2.99277C8.12916 2.99277 8.03112 3.00117 7.93308 3.02078ZM3.01431 11.5054V8.51098C3.01431 8.17204 3.29163 7.89193 3.43168 7.89193H11.5241V12.1216H3.42888C3.26642 12.1216 3.01431 11.8555 3.01431 11.5054ZM20.9919 11.5054C20.9919 11.8583 20.7398 12.1244 20.5745 12.1244H12.3729V7.89473H20.5745C20.7146 7.89473 20.9919 8.17484 20.9919 8.51378V11.5054ZM19.6698 20.4017C19.6698 20.7547 19.4177 21.0208 19.2524 21.0208H12.3757V12.9536H19.6698V20.4017ZM4.27762 13.0432V20.3989C4.27482 20.7519 4.52972 21.018 4.69219 21.018H11.5241V12.9508H4.25801C4.25986 12.9575 4.26185 12.9642 4.26382 12.9708C4.27081 12.9942 4.27762 13.017 4.27762 13.0432Z" fill="#313235"/>
</svg>
