<svg width="24" height="24" viewBox="0 0 24 24" fill="none" xmlns="http://www.w3.org/2000/svg">
<path fill-rule="evenodd" clip-rule="evenodd" d="M17.7398 6.95503H20.3784C21.1459 6.95503 21.8434 7.73094 21.8434 8.58528V11.5124C21.8434 12.3332 21.2664 13.0251 20.5493 13.1259V20.2127C20.5493 21.0979 19.877 21.8458 19.0843 21.8458H4.85745C4.06473 21.8458 3.39246 21.0979 3.39246 20.2127V13.1203C2.70619 12.9914 2.15997 12.3108 2.15997 11.5152V8.58808C2.15997 7.73374 2.85745 6.95503 3.62496 6.95503H6.20198C5.83224 6.58248 5.57453 6.15951 5.47369 5.69733C5.32243 5.00545 5.4989 4.26036 5.9807 3.53767C6.96389 2.06708 8.51291 1.74776 10.0255 2.70574C10.8518 3.22675 11.5213 4.40041 11.9723 5.42282C12.4261 4.40041 13.0927 3.22955 13.9191 2.70574C15.4317 1.74776 16.9807 2.06708 17.9639 3.53767C18.4457 4.26036 18.6221 5.00545 18.4709 5.69733C18.37 6.15951 18.1123 6.58248 17.7398 6.95503ZM14.6165 3.74775C15.5297 3.17072 16.2944 3.32759 16.8882 4.21554C17.1852 4.66092 17.2972 5.06988 17.216 5.43683C17.1375 5.80097 16.863 6.1343 16.4065 6.42282C15.6838 6.8794 13.8714 6.89061 12.7846 6.80377C13.146 5.79817 13.8882 4.20994 14.6165 3.74775ZM8.31683 3.40882C7.83784 3.40882 7.41487 3.67773 7.05352 4.21834C6.75661 4.66092 6.64456 5.07268 6.72579 5.44243C6.80422 5.80657 7.07873 6.13991 7.53532 6.42842C8.2552 6.885 10.0675 6.89621 11.1544 6.80937C10.7958 5.80097 10.0535 4.20994 9.32523 3.75055C8.96669 3.52366 8.62775 3.40882 8.31683 3.40882ZM3.44008 8.58528C3.44008 8.392 3.58854 8.21834 3.62496 8.19873H11.3084V11.899H3.63616C3.57734 11.8766 3.44288 11.7225 3.44288 11.5124V8.58528H3.44008ZM20.5605 11.5152C20.5605 11.7281 20.4205 11.8878 20.3756 11.9018H12.5857V8.20153L20.3476 8.19873C20.4092 8.22114 20.5605 8.39481 20.5605 8.58808V11.5152ZM19.0843 20.5993H12.5885V13.1455H19.2692V20.2127C19.2664 20.4256 19.1263 20.5853 19.0843 20.5993ZM4.67257 13.1455V20.2127C4.67257 20.4256 4.81263 20.5825 4.87145 20.5993H11.3056V13.1455H4.67257Z" fill="#313235"/>
</svg>
