<svg width="24" height="24" viewBox="0 0 24 24" fill="none" xmlns="http://www.w3.org/2000/svg">
<path fill-rule="evenodd" clip-rule="evenodd" d="M21.8462 8.49636C21.8462 7.64482 21.1543 6.86611 20.3952 6.86611V6.86331H17.4849C17.849 6.49636 18.0983 6.0846 18.1964 5.63082C18.3448 4.95295 18.174 4.22185 17.7034 3.51317C17.2328 2.80449 16.6165 2.35351 15.9247 2.21065C15.2328 2.06499 14.4821 2.23586 13.7594 2.69525C12.9527 3.20785 12.3056 4.35071 11.8658 5.3535C11.4289 4.35351 10.779 3.20785 9.97229 2.69525C9.2496 2.23586 8.5017 2.06499 7.80702 2.21065C7.11235 2.35631 6.4989 2.80449 6.02831 3.51317C5.55773 4.21905 5.38966 4.95295 5.53532 5.63082C5.63336 6.0846 5.88266 6.49916 6.244 6.86331H3.61095C2.85185 6.86331 2.15997 7.64202 2.15997 8.49356V11.4459C2.15997 12.1994 2.64457 12.8493 3.27482 13.0258H11.3224V7.47675H12.5745V13.0286H20.5773C20.5981 13.0286 20.6177 13.0339 20.6377 13.0393C20.65 13.0426 20.6625 13.046 20.6754 13.0482C21.3336 12.8941 21.8462 12.2246 21.8462 11.4487V8.49636ZM16.6501 4.18264C16.9387 4.61681 17.0479 5.02017 16.9695 5.37871C16.8938 5.73726 16.6277 6.06219 16.1824 6.3451C15.4821 6.79048 13.723 6.80168 12.6614 6.72045C13.0115 5.73166 13.7342 4.17704 14.4429 3.72606C14.8882 3.44034 15.2972 3.3339 15.6642 3.41233C16.0283 3.48796 16.3616 3.74846 16.6501 4.18264ZM3.39246 20.2162V14.2527H11.3224V21.8493H4.84344C4.05913 21.8493 3.39246 21.107 3.39246 20.2162ZM12.5745 21.8493V14.2527H20.5493V20.2246C20.5493 21.107 19.891 21.8521 19.0955 21.8521H12.5745V21.8493ZM7.54932 6.3451C8.2524 6.79048 10.0087 6.80448 11.0703 6.72045C10.7202 5.73446 9.9975 4.17704 9.28881 3.72606C8.93867 3.50197 8.60534 3.38992 8.30282 3.38992C8.22159 3.38992 8.14316 3.39833 8.06753 3.41513C7.70058 3.49076 7.37005 3.75127 7.07873 4.18544C6.79022 4.61961 6.68097 5.02297 6.75941 5.38152C6.83784 5.73726 7.10394 6.06219 7.54932 6.3451Z" fill="#313235"/>
</svg>
