<svg width="24" height="24" viewBox="0 0 24 24" fill="none" xmlns="http://www.w3.org/2000/svg">
<path fill-rule="evenodd" clip-rule="evenodd" d="M9.16562 11.0403C9.81828 11.6789 10.7651 12.0039 11.9779 12.0039C13.1908 12.0039 14.1376 11.6817 14.7959 11.0403C15.4793 10.3764 15.8267 9.39043 15.8267 8.10751C15.8267 6.8246 15.4793 5.83581 14.7959 5.16914C14.1376 4.52768 13.188 4.19995 11.9779 4.19995C10.7679 4.19995 9.82108 4.52768 9.16562 5.17194C8.48774 5.83581 8.14321 6.8274 8.14321 8.10751C8.14321 9.39043 8.48774 10.3764 9.16562 11.0403ZM8.92472 8.10751C8.92472 7.04869 9.18802 6.25317 9.70903 5.74337C10.2104 5.24757 10.9751 4.99827 11.9807 4.99827C12.9807 4.99827 13.7454 5.24757 14.2525 5.74337C14.7763 6.25597 15.0396 7.05149 15.0396 8.10751C15.0396 9.16354 14.7763 9.95625 14.2525 10.4661C13.7454 10.9591 12.9807 11.2084 11.9779 11.2084C10.9751 11.2084 10.2104 10.9591 9.70903 10.4661C9.18802 9.95905 8.92472 9.16354 8.92472 8.10751ZM5.26926 10.6873C5.05917 10.8918 4.95273 11.2364 4.95273 11.707C4.95273 12.1775 5.05917 12.5193 5.26646 12.7238C5.46814 12.9226 5.79867 13.0235 6.24405 13.0235C6.69223 13.0235 7.02276 12.9226 7.22724 12.7238C7.43733 12.5193 7.54377 12.1775 7.54377 11.7098C7.54377 11.2392 7.43733 10.8974 7.22724 10.6929C7.02276 10.4941 6.69223 10.3904 6.24405 10.3904C5.80147 10.3876 5.47374 10.4885 5.26926 10.6873ZM4.72304 13.298C5.07878 13.6425 5.59139 13.819 6.24685 13.819C6.90511 13.819 7.42052 13.6425 7.77346 13.2952C8.14321 12.9338 8.33088 12.3988 8.33088 11.7042C8.33088 11.0123 8.14321 10.4745 7.77346 10.1131C7.41772 9.76578 6.90511 9.58931 6.24685 9.58931C5.59139 9.58931 5.07878 9.76858 4.72304 10.1159C4.35609 10.4773 4.16842 11.0123 4.16842 11.707C4.16842 12.4016 4.35609 12.9366 4.72304 13.298ZM16.7791 10.6733C16.569 10.8778 16.4625 11.2224 16.4625 11.6929C16.4625 12.1607 16.569 12.5025 16.7791 12.707C16.9835 12.9058 17.3141 13.0067 17.7623 13.0067C18.2104 13.0067 18.5382 12.9058 18.7426 12.707C18.9499 12.5025 19.0564 12.1607 19.0564 11.6929C19.0564 11.2224 18.9499 10.8806 18.7398 10.6733C18.5382 10.4745 18.2076 10.3736 17.7623 10.3736C17.3141 10.3736 16.9835 10.4745 16.7791 10.6733ZM15.6782 11.6929C15.6782 12.3876 15.8659 12.9226 16.2356 13.284C16.5914 13.6285 17.104 13.805 17.7623 13.8022C18.4205 13.8022 18.9331 13.6285 19.2889 13.2812C19.6586 12.9198 19.8435 12.3848 19.8435 11.6929C19.8435 10.9983 19.6558 10.4605 19.2889 10.0991C18.9331 9.75177 18.4205 9.5753 17.7623 9.5753C17.104 9.5753 16.5914 9.75177 16.2356 10.1019C15.8659 10.4633 15.6782 10.9983 15.6782 11.6929ZM21.062 17.6257V17.0767C21.062 16.5109 20.8967 16.0319 20.5746 15.6957C20.2216 15.3204 19.6866 15.1299 19.0284 15.1299H17.8211C18.3841 15.7826 18.7146 16.6369 18.7875 17.6257H21.062ZM18.0172 18.0459V18.9871H5.94153V18.0459C5.94153 17.0151 6.24685 16.1467 6.82668 15.5333C7.46253 14.8638 8.42892 14.5053 9.6362 14.5053H14.3141C15.5214 14.5053 16.4961 14.8638 17.132 15.5333C17.7118 16.1495 18.0172 17.0179 18.0172 18.0459ZM5.17402 17.6425C5.24405 16.6537 5.56898 15.7994 6.132 15.1467H4.97794C4.31968 15.1467 3.78466 15.34 3.43172 15.7126C3.118 16.0459 2.94433 16.5249 2.94433 17.0907V17.6425H5.17402ZM21.8463 17.0767C21.8463 16.3036 21.6026 15.6341 21.1404 15.1467C20.6362 14.6117 19.9079 14.3344 19.0312 14.3316H16.8659C16.1684 13.917 15.3057 13.7098 14.3169 13.7098H9.63901C8.64181 13.7098 7.77066 13.9254 7.07318 14.3484H4.97794C4.09839 14.3484 3.3701 14.6285 2.8659 15.1523C2.40371 15.6481 2.16001 16.3176 2.16001 17.0907V17.7966C2.15721 18.1495 2.44293 18.4352 2.79587 18.438H5.15721V19.3484C5.16001 19.5921 5.35609 19.7882 5.59699 19.7882H18.3617C18.6054 19.7882 18.8015 19.5921 18.8015 19.3484V18.424H21.2188C21.569 18.4184 21.8491 18.1355 21.8463 17.7854V17.0767Z" fill="#313235"/>
</svg>
