<svg width="24" height="24" viewBox="0 0 24 24" fill="none" xmlns="http://www.w3.org/2000/svg">
<path fill-rule="evenodd" clip-rule="evenodd" d="M14.7202 5.16914C14.0815 4.52488 13.1572 4.19995 11.9751 4.19995C10.793 4.19995 9.87146 4.52488 9.2328 5.16914C8.57174 5.83581 8.2356 6.8246 8.2356 8.10751C8.2356 9.38763 8.57174 10.3764 9.2328 11.0403C9.86866 11.6789 10.793 12.0039 11.9751 12.0039C13.1572 12.0039 14.0815 11.6789 14.7202 11.0403C15.3869 10.3764 15.7258 9.38763 15.7258 8.10751C15.7258 6.8274 15.3869 5.83861 14.7202 5.16914ZM7.65017 9.5697C7.31403 9.23076 6.82664 9.0599 6.20479 9.0599C5.58294 9.0599 5.09835 9.23076 4.75661 9.5697C4.40927 9.91984 4.2328 10.4408 4.2328 11.1159C4.2328 11.791 4.40927 12.3092 4.75941 12.6593C5.09555 12.9955 5.58014 13.1663 6.20199 13.1663C6.82384 13.1663 7.31123 12.9955 7.64737 12.6593C8.00031 12.3092 8.17678 11.791 8.17678 11.1159C8.17678 10.4408 8.00031 9.91984 7.65017 9.5697ZM17.751 9.08791C18.3645 9.08791 18.8462 9.25877 19.1796 9.59211C19.5241 9.93945 19.6978 10.4549 19.6978 11.1215C19.6978 11.7882 19.5241 12.3036 19.1768 12.6481C18.8462 12.9815 18.3645 13.1495 17.7482 13.1495C17.132 13.1495 16.6502 12.9815 16.3168 12.6481C15.9695 12.3008 15.7958 11.7882 15.7958 11.1215C15.7958 10.4549 15.9723 9.93945 16.3168 9.59211C16.653 9.25597 17.1376 9.08791 17.751 9.08791ZM17.5549 14.6929C16.7846 13.8106 15.6446 13.3456 14.258 13.3456V13.3484H9.69499C8.30563 13.3484 7.16838 13.8134 6.40367 14.6957C5.70059 15.5053 5.33084 16.6257 5.33084 17.9422V19.3176C5.33084 19.5781 5.52132 19.7882 5.75661 19.7882H18.2076C18.4429 19.7882 18.6334 19.5781 18.6334 19.3176V17.9422C18.6334 16.6257 18.2608 15.5025 17.5549 14.6929ZM5.79532 14.091C5.79445 14.0918 5.79356 14.0925 5.79264 14.0933C5.78799 14.0973 5.78285 14.1018 5.77902 14.1075C4.93588 15.0795 4.49051 16.4072 4.49051 17.9422V18.6901H3.01992C2.54653 18.6901 2.15997 18.2896 2.15997 17.7938V17.0907C2.15997 16.2448 2.42048 15.5165 2.91628 14.9787C3.45409 14.396 4.2272 14.0879 5.15437 14.0879H5.79863C5.79761 14.0889 5.79649 14.09 5.79532 14.091ZM21.8462 17.0739C21.8462 16.2308 21.5857 15.4997 21.0899 14.9619C20.5549 14.3792 19.7818 14.0711 18.8519 14.0711H18.1404L18.174 14.1047C19.0227 15.0795 19.4709 16.4044 19.4709 17.9394V18.6733H20.9863C21.4597 18.6733 21.8462 18.2728 21.8462 17.777V17.0739Z" fill="#313235"/>
</svg>
