<svg width="24" height="24" viewBox="0 0 24 24" fill="none" xmlns="http://www.w3.org/2000/svg">
<path fill-rule="evenodd" clip-rule="evenodd" d="M9.2356 11.0403C9.87146 11.6789 10.793 12.0039 11.9779 12.0039C13.16 12.0039 14.0815 11.6789 14.7258 11.0403C15.3925 10.3736 15.7286 9.38763 15.7286 8.10751C15.7286 6.8274 15.3897 5.83861 14.7258 5.16914C14.0871 4.52768 13.1628 4.19995 11.9807 4.19995C10.7958 4.19995 9.87426 4.52488 9.2356 5.16914C8.57454 5.83861 8.2384 6.8246 8.2384 8.10751C8.2384 9.38763 8.57174 10.3764 9.2356 11.0403ZM9.49331 8.10751C9.49331 7.19435 9.69779 6.52208 10.1068 6.11032C10.5045 5.71256 11.132 5.51088 11.9751 5.51088C12.821 5.51088 13.4513 5.71256 13.849 6.11312C14.2608 6.52488 14.4681 7.19435 14.4681 8.10751C14.4681 9.01788 14.2608 9.68735 13.8519 10.0963C13.4541 10.4913 12.821 10.6929 11.9751 10.6929C11.1292 10.6929 10.4989 10.4941 10.104 10.0963C9.70059 9.68735 9.49331 9.01788 9.49331 8.10751ZM5.66978 10.2896C5.51852 10.4408 5.49611 10.7938 5.49611 10.9899C5.49611 11.1831 5.51852 11.5333 5.66698 11.6845C5.77902 11.7966 6.01151 11.8554 6.32804 11.8554C6.64457 11.8554 6.87986 11.7938 6.99191 11.6817C7.14317 11.5305 7.16558 11.1803 7.16558 10.9871C7.16558 10.791 7.14317 10.4408 6.9891 10.2868C6.87706 10.1747 6.64177 10.1131 6.32804 10.1131C6.01151 10.1159 5.77902 10.1775 5.66978 10.2896ZM4.79583 12.6285C5.15157 12.9871 5.66698 13.1663 6.32804 13.1663C6.9863 13.1663 7.50451 12.9871 7.86305 12.6341C8.2356 12.2588 8.42328 11.707 8.42328 10.9927C8.42328 10.2756 8.2356 9.72376 7.86305 9.34841C7.50451 8.98987 6.9891 8.80779 6.32804 8.80779C5.66698 8.80779 5.15157 8.98987 4.79583 9.34841C4.42608 9.72096 4.2384 10.2728 4.2384 10.9899C4.2384 11.7042 4.42608 12.256 4.79583 12.6285ZM17.0087 10.3428C16.8631 10.4885 16.8434 10.8246 16.8434 11.0123C16.8434 11.1971 16.8659 11.5333 17.0087 11.6761C17.1124 11.7798 17.3448 11.8414 17.6474 11.8414C17.9471 11.8414 18.1768 11.7826 18.2804 11.6789C18.3841 11.5753 18.4429 11.3316 18.4429 11.0123C18.4429 10.8246 18.4205 10.4857 18.2776 10.34C18.174 10.2364 17.9471 10.1775 17.6474 10.1775C17.3392 10.1747 17.1152 10.2336 17.0087 10.3428ZM15.5829 11.0123C15.5829 11.7154 15.7678 12.2588 16.1348 12.6229C16.4877 12.9731 16.9947 13.1523 17.6418 13.1523C18.2916 13.1523 18.7986 12.9759 19.1488 12.6229C19.5129 12.2588 19.6978 11.7154 19.6978 11.0123C19.6978 10.3092 19.5129 9.76578 19.1516 9.39883C18.8014 9.04589 18.2916 8.86662 17.6446 8.86662C16.9919 8.86662 16.4849 9.04589 16.1348 9.39883C15.7678 9.76578 15.5829 10.3064 15.5829 11.0123ZM20.5885 17.3624V17.0767C20.5885 16.5781 20.4485 16.1607 20.1824 15.8694C19.8883 15.5501 19.4289 15.382 18.8547 15.382L18.0311 15.3792C18.3448 15.9479 18.5241 16.6229 18.5913 17.3624H20.5885ZM17.3729 17.9394V18.4745C17.3729 18.4745 6.58854 18.4745 6.58854 18.4717V17.9366C6.58854 16.9507 6.84625 16.1327 7.33364 15.5697C7.99191 14.8134 8.9779 14.6537 9.69219 14.6537H14.258C14.9723 14.6537 15.9611 14.8134 16.6222 15.5725C17.1124 16.1383 17.3729 16.9563 17.3729 17.9394ZM5.37006 17.3792C5.43448 16.6397 5.61095 15.9647 5.92188 15.3932L5.15437 15.396C4.57734 15.396 4.11796 15.5641 3.82664 15.8834C3.56053 16.1719 3.41768 16.5893 3.41768 17.0879V17.3764C3.41768 17.3792 5.37006 17.3792 5.37006 17.3792ZM21.8462 17.0767C21.8462 16.2308 21.5857 15.4997 21.0899 14.9619C20.5549 14.3792 19.7818 14.0711 18.8519 14.0683H16.8378C16.1376 13.5949 15.2664 13.3428 14.2552 13.3428H9.69219C8.67258 13.3428 7.79023 13.6005 7.08714 14.0851H5.15437C4.2244 14.0851 3.45129 14.396 2.91628 14.9787C2.42048 15.5165 2.15997 16.2448 2.15997 17.0907V17.7938C2.15997 18.2868 2.54653 18.6901 3.01992 18.6901H5.33084V19.3148C5.33084 19.5753 5.52132 19.7854 5.75661 19.7854H18.2048C18.4401 19.7854 18.6306 19.5753 18.6306 19.3148V18.6733H20.9863C21.4597 18.6733 21.8462 18.2728 21.8462 17.7798V17.0767Z" fill="#313235"/>
</svg>
