<svg width="24" height="24" viewBox="0 0 24 24" fill="none" xmlns="http://www.w3.org/2000/svg">
<path fill-rule="evenodd" clip-rule="evenodd" d="M18.1681 21.7087H18.0589V21.7115H11.4118L7.64151 21.7143C7.57121 21.7207 7.02629 21.7174 6.70521 21.7154C6.60407 21.7148 6.52514 21.7143 6.49025 21.7143C4.43143 21.7143 4.00286 20.6863 3.59669 19.3194C3.25496 19.2101 2.95524 19.0392 2.71434 18.7983C2.26056 18.3418 2.02527 17.6919 2.02527 16.8712C2.02527 16.0505 2.25776 15.4006 2.71434 14.9412C2.87961 14.7731 3.07849 14.6499 3.29137 14.5435C3.52947 12.9832 4.15132 11.0673 6.46784 10.7339C6.53226 10.7199 6.6219 10.7087 6.67512 10.7031C6.71434 10.7003 6.80397 10.6947 6.84599 10.6947C6.96608 10.6931 7.13352 10.6943 7.30915 10.6956C7.43256 10.6966 7.56001 10.6975 7.67792 10.6975L11.4482 10.6947C11.5112 10.6963 11.5836 10.6952 11.6625 10.6939C11.7205 10.6929 11.782 10.6919 11.846 10.6919C11.9832 10.6919 12.1037 10.6975 12.2325 10.7059C12.2194 10.3447 12.2088 10.0483 12.2001 9.80503C12.1884 9.47862 12.1801 9.24778 12.1737 9.08408C12.0561 9.01685 11.9468 8.94122 11.8488 8.84599C11.6275 8.6219 11.3642 8.21573 11.3642 7.52106C11.3642 6.82918 11.6275 6.41742 11.846 6.19893C12.1513 5.88801 12.5687 5.73395 13.0841 5.73395H15.0252V3.59669C15.0252 2.72835 15.7059 2.02527 16.5378 2.02527C17.3726 2.02527 18.0505 2.73115 18.0505 3.59669V5.73395H20.2605C20.2941 5.73395 20.3558 5.73395 20.3866 5.73955C20.7227 5.78156 21.0056 5.97484 21.2269 6.19893C21.4482 6.41742 21.7115 6.82918 21.7115 7.52106C21.7115 8.21573 21.4482 8.6247 21.2269 8.84599C21.1289 8.94122 21.0168 9.01685 20.8992 9.08408C20.8768 9.58548 20.8236 10.7255 20.7003 13.3558C20.6812 13.7698 20.6621 14.1834 20.6436 14.5833C20.5619 16.3507 20.4925 17.8506 20.4902 17.9328C20.4734 19.6387 20.2045 21.4286 18.339 21.6975C18.2745 21.7087 18.2297 21.7087 18.1681 21.7087ZM16.2577 3.5995C16.2577 3.43703 16.3838 3.30538 16.5407 3.30538C16.6975 3.30538 16.8236 3.43703 16.8236 3.5995V5.74515H16.2577V3.5995ZM20.3754 7.92442C20.2885 8.01405 20.1177 8.03086 19.9888 8.03086V8.04207H13.0841V8.03086C12.958 8.03086 12.79 8.01405 12.7031 7.92722C12.6135 7.83758 12.5967 7.65831 12.5967 7.52106C12.5967 7.3866 12.6163 7.20453 12.7059 7.1177C12.7928 7.03086 12.9608 7.01406 13.0869 7.01406H19.9916C20.1205 7.01406 20.2885 7.03086 20.3754 7.1205C20.465 7.20733 20.4846 7.38941 20.4846 7.52386C20.4818 7.65831 20.465 7.83758 20.3754 7.92442ZM19.4734 13.297C19.2605 17.874 19.2605 17.8824 19.2605 17.9076C19.2409 20.1345 18.7199 20.3698 18.0953 20.437L18.089 20.4381L18.089 20.4381C18.0749 20.4405 18.0623 20.4426 18.0476 20.4426H18.0224C17.8992 20.451 17.804 20.4538 17.6023 20.4398L15.3474 20.4426C15.2858 20.4482 15.2241 20.451 15.1569 20.451H15.1205C15.2661 20.1345 15.3698 19.7787 15.4734 19.4034L15.5014 19.311C15.8376 19.2017 16.1261 19.0336 16.367 18.7955C16.8292 18.3362 17.0617 17.6891 17.0617 16.8684C17.0617 16.2325 16.916 15.7031 16.6387 15.2801C17.1681 15.2521 17.6723 15.0028 18.1345 14.521C18.6387 14 18.888 13.4286 18.8768 12.832C18.8656 12.2577 18.6163 11.7115 18.1317 11.2101C17.6471 10.7115 17.1205 10.4538 16.5687 10.4454C15.9804 10.4482 15.4454 10.6947 14.944 11.2185C14.804 11.3642 14.6863 11.5126 14.5883 11.6667C14.2745 11.3474 13.9048 11.1093 13.4762 10.9468L13.4698 10.7815C13.4473 10.1983 13.4277 9.6911 13.4174 9.32218H19.6611C19.6213 10.1297 19.5537 11.5769 19.4847 13.0549L19.4734 13.297ZM15.8152 12.1177C15.5575 12.3838 15.4314 12.6415 15.4342 12.8796C15.437 13.1093 15.5659 13.3586 15.8152 13.6163C16.0673 13.874 16.3054 14.0084 16.5294 14.0112C16.7759 13.9972 17.0084 13.8852 17.2633 13.6191C17.521 13.3502 17.6527 13.0925 17.6471 12.8544C17.6415 12.6219 17.5154 12.3726 17.2633 12.1121C17.0168 11.8544 16.7759 11.7227 16.5547 11.7199H16.5435C16.3138 11.7199 16.0701 11.8516 15.8152 12.1177ZM13.7339 18.1597H4.38381C4.03087 18.1345 3.74795 18.0505 3.57148 17.874C3.3642 17.6667 3.26056 17.3278 3.26056 16.8684C3.26056 16.4874 3.33619 16.1961 3.47905 15.986C3.6107 16.2549 3.78997 16.5182 4.03087 16.7675C4.55188 17.3082 5.1149 17.5799 5.70313 17.5799H5.73955C6.31938 17.5687 6.8712 17.297 7.381 16.7675C7.74795 16.3866 7.98044 15.9832 8.08968 15.5631H14.6219C15.0168 15.5715 15.3222 15.6695 15.5126 15.8572C15.7227 16.0673 15.8292 16.409 15.8292 16.8684C15.8292 17.3278 15.7227 17.6667 15.5126 17.874C15.3362 18.0505 15.0533 18.1345 14.7003 18.1597H13.7339ZM13.1513 20.4202C13.6611 20.3614 13.8656 20.2521 14.0281 19.888C14.08 19.7704 14.1266 19.626 14.1836 19.4498L14.1836 19.4497L14.1836 19.4496L14.1877 19.437H4.93283C5.21854 20.2605 5.48745 20.451 6.49585 20.451C6.6275 20.451 7.46784 20.4426 7.60229 20.4342L11.4566 20.4314L12.2017 20.4342L12.9188 20.423L13.1513 20.4202ZM6.74795 15.5631C6.68352 15.6639 6.60789 15.7619 6.50985 15.8656C6.23535 16.1513 5.96644 16.2998 5.71994 16.3054C5.42022 16.3138 5.18493 16.1625 4.90201 15.8656C4.80117 15.7647 4.72835 15.6639 4.66112 15.5631H6.74795ZM7.6387 11.9748C7.32218 11.9692 6.96364 11.9636 6.89081 11.972L6.75075 11.9888C5.72554 12.1009 4.95804 12.5603 4.59109 14.2886H14.5042C14.3166 13.3894 14.0056 12.7928 13.5266 12.4258C13.1989 12.1737 12.79 12.0309 12.2802 11.9832C12.1717 11.9724 12.0633 11.9733 11.9484 11.9743C11.9149 11.9745 11.8808 11.9748 11.846 11.9748C11.8148 11.9748 11.784 11.975 11.7536 11.9752C11.6636 11.9757 11.5767 11.9762 11.493 11.972L7.6387 11.9748Z" fill="#313235"/>
</svg>
