<svg width="24" height="24" viewBox="0 0 24 24" fill="none" xmlns="http://www.w3.org/2000/svg">
<path fill-rule="evenodd" clip-rule="evenodd" d="M17.3906 9.73706C17.6203 9.65863 17.8808 9.61942 18.1638 9.61942C19.4215 9.61942 20.2002 10.4093 20.203 11.6838V18.6838C20.203 19.653 19.9313 20.4289 19.3935 20.9836C18.8528 21.541 18.0153 21.8491 17.0321 21.8491H9.24499C8.46348 21.8491 8.11894 21.104 7.97328 20.7875C7.83644 20.4892 7.35999 19.5223 6.8026 18.3912L6.7632 18.3113C6.69488 18.1722 6.62532 18.0305 6.55478 17.8869C5.67663 16.0989 4.64816 14.0047 4.0181 12.6642C3.61754 11.8099 3.7772 10.9219 4.42706 10.4009C4.75479 10.1348 5.15536 10.0032 5.55872 10.0032C5.99849 10.006 6.42426 10.1572 6.766 10.4345C7.13015 10.7259 7.43547 11.1292 7.7744 11.7063L7.7772 4.3197V4.27768C7.86404 2.93034 8.63995 2.16003 9.90606 2.16003C11.2226 2.16003 12.0405 2.98636 12.0405 4.3197V7.22446C12.2478 7.16564 12.4775 7.13482 12.724 7.13482C13.7268 7.13482 14.4271 7.63903 14.668 8.48777C14.9005 8.41214 15.161 8.37012 15.4439 8.37012C16.4495 8.37012 17.1526 8.87992 17.3906 9.73706ZM18.808 20.4065C19.1946 20.0088 19.3878 19.4261 19.3878 18.6782L19.385 11.6866C19.385 10.8631 18.9733 10.4457 18.161 10.4457C17.9705 10.4457 17.794 10.471 17.6427 10.5214C17.4299 10.5914 17.2002 10.5718 17.0041 10.4654C16.808 10.3589 16.6624 10.1768 16.6035 9.96115C16.4607 9.45135 16.0685 9.19365 15.4383 9.19365C15.245 9.19365 15.0685 9.21886 14.9173 9.26928C14.8332 9.29729 14.7464 9.31129 14.6596 9.31129C14.2954 9.30849 13.9761 9.0648 13.878 8.71466C13.7352 8.21045 13.343 7.95555 12.7156 7.95555C12.5447 7.95555 12.3878 7.97516 12.2506 8.01438C12.1806 8.03398 12.1049 8.04519 12.0321 8.04519C11.5811 8.04239 11.2198 7.67544 11.2198 7.22446V4.3225C11.2198 3.44575 10.7632 2.98356 9.90045 2.98356C9.37104 2.98356 8.66236 3.12082 8.58393 4.3309V11.7063C8.58393 12.076 8.33743 12.4009 7.98449 12.499C7.62874 12.597 7.25339 12.4429 7.06852 12.1264C6.7604 11.5998 6.5167 11.2861 6.2562 11.0788C6.05171 10.9135 5.80241 10.8239 5.55311 10.8239C5.32342 10.8239 5.10493 10.8995 4.92846 11.0424C4.58113 11.3197 4.5139 11.8071 4.74919 12.3085C5.42706 13.7567 6.56992 16.0788 7.48869 17.9443C8.04051 19.062 8.55872 20.1208 8.70718 20.4401C8.90045 20.8603 9.05171 21.0256 9.24219 21.0256H17.0293C17.7912 21.0256 18.4215 20.8043 18.808 20.4065Z" fill="#313235"/>
</svg>
