<svg width="24" height="24" viewBox="0 0 24 24" fill="none" xmlns="http://www.w3.org/2000/svg">
<path d="M14.3897 18.1638C14.3897 17.8809 14.3505 17.6232 14.272 17.3907C15.1292 17.1526 15.639 16.4495 15.639 15.4411C15.639 15.1582 15.5969 14.8977 15.5213 14.6652C16.3701 14.4243 16.8743 13.724 16.8743 12.7212C16.8743 12.4747 16.8434 12.245 16.7846 12.0378H19.6866C21.0199 12.0378 21.849 11.2198 21.849 9.9033C21.849 8.6372 21.0787 7.86129 19.7314 7.77446H12.3028C12.8799 7.43552 13.2832 7.1302 13.5745 6.76605C13.8631 6.40751 14.0059 5.97894 14.0059 5.55877C14.0059 5.15541 13.8743 4.75765 13.6082 4.42712C13.0872 3.77726 12.1992 3.6176 11.3449 4.01816C9.89668 4.69883 7.56896 5.84449 5.69781 6.76605C4.53255 7.34028 3.52415 7.83608 3.22163 7.97614C2.9023 8.12179 2.16 8.46633 2.16 9.24784V17.0349C2.16 18.0181 2.46813 18.8557 3.02555 19.3963C3.58017 19.9341 4.35608 20.2058 5.32806 20.2058H12.3252C13.5998 20.2002 14.3897 19.4215 14.3897 18.1638Z" fill="#313235"/>
</svg>
