<svg width="24" height="24" viewBox="0 0 24 24" fill="none" xmlns="http://www.w3.org/2000/svg">
<path d="M18.1637 9.6194C17.8808 9.6194 17.6231 9.65862 17.3906 9.73705C17.1525 8.87991 16.4494 8.3701 15.441 8.3701C15.1581 8.3701 14.8976 8.41212 14.6651 8.48775C14.4242 7.63901 13.724 7.13481 12.7212 7.13481C12.4747 7.13481 12.245 7.16563 12.0377 7.22445V4.32249C12.0377 2.98916 11.2198 2.16003 9.90324 2.16003C8.63714 2.16003 7.86123 2.93034 7.77439 4.27768V11.7062C7.43546 11.1292 7.13014 10.7258 6.76599 10.4345C6.40745 10.146 5.97888 10.0032 5.55871 10.0032C5.15535 10.0032 4.75759 10.1348 4.42706 10.4009C3.7772 10.9219 3.61754 11.8099 4.0181 12.6642C4.69877 14.1124 5.84443 16.4401 6.76599 18.3113C7.34022 19.4765 7.83602 20.4849 7.97607 20.7874C8.12173 21.1068 8.46627 21.8491 9.24778 21.8491H17.0349C18.0181 21.8491 18.8556 21.5409 19.3962 20.9835C19.934 20.4289 20.2057 19.653 20.2057 18.681V11.6838C20.2001 10.4093 19.4214 9.6194 18.1637 9.6194Z" fill="#313235"/>
</svg>
