<svg width="24" height="24" viewBox="0 0 24 24" fill="none" xmlns="http://www.w3.org/2000/svg">
<path d="M14.758 2.16003H6.97366C5.99047 2.16003 5.15014 2.46816 4.60952 3.02558C4.07171 3.5802 3.8 4.35611 3.8 5.32529V12.3225C3.8 13.5942 4.58151 14.3841 5.83641 14.3841C6.11932 14.3841 6.37703 14.3449 6.60952 14.2665C6.84761 15.1236 7.55069 15.6334 8.55629 15.6334C8.84201 15.6334 9.10251 15.5942 9.3322 15.5157C9.5759 16.3645 10.2734 16.8687 11.2762 16.8687C11.5227 16.8687 11.7524 16.8379 11.9596 16.779V19.681C11.9596 21.0143 12.7776 21.8435 14.0941 21.8435C15.3602 21.8435 16.1361 21.0704 16.2229 19.7258C16.2229 19.7118 16.2257 19.695 16.2257 19.681V12.2973C16.5647 12.8743 16.8672 13.2777 17.2341 13.569C17.5927 13.8547 18.0213 14.0003 18.4414 14.0003C18.8448 14.0003 19.2425 13.8687 19.5731 13.6026C20.2229 13.0816 20.3826 12.1936 19.982 11.3421C19.3014 9.89391 18.1557 7.56338 17.2369 5.69504C16.6627 4.52978 16.1669 3.52418 16.0269 3.21886C15.884 2.90233 15.5395 2.16003 14.758 2.16003Z" fill="#313235"/>
</svg>
