<svg width="24" height="24" viewBox="0 0 24 24" fill="none" xmlns="http://www.w3.org/2000/svg">
<path fill-rule="evenodd" clip-rule="evenodd" d="M17.3935 9.73706C17.6259 9.65863 17.8836 9.61942 18.1666 9.61942C19.4215 9.61942 20.203 10.4093 20.2058 11.681V18.6782C20.2058 19.6502 19.9341 20.4233 19.3963 20.9808C18.8556 21.5382 18.0181 21.8463 17.0349 21.8463H9.24779C8.46628 21.8463 8.12174 21.104 7.97608 20.7875C7.83924 20.4892 7.36277 19.5223 6.80536 18.3912L6.766 18.3113C5.84443 16.4401 4.69877 14.1124 4.0181 12.6642C3.61754 11.8099 3.7772 10.9219 4.42706 10.4009C4.7576 10.1348 5.15536 10.0032 5.55872 10.0032C5.97888 10.0032 6.40746 10.1488 6.766 10.4345C7.13295 10.7259 7.43827 11.1292 7.7772 11.7063C7.77482 9.81009 7.7765 5.96751 7.77705 4.71591C7.77714 4.49946 7.7772 4.3605 7.7772 4.3225V4.27768C7.86404 2.93034 8.63995 2.16003 9.90606 2.16003C11.2226 2.16003 12.0405 2.98917 12.0405 4.3225V7.22446C12.2478 7.16564 12.4775 7.13482 12.724 7.13482C13.7268 7.13482 14.4271 7.63622 14.668 8.48777C14.8977 8.40933 15.161 8.37012 15.4439 8.37012C16.4523 8.37012 17.1554 8.87992 17.3935 9.73706ZM18.5223 20.118C18.8332 19.7959 18.9845 19.3253 18.9845 18.6782H18.9929V11.6726C18.9929 11.0844 18.7548 10.8435 18.175 10.8435C18.0265 10.8435 17.8949 10.8631 17.7856 10.8995C17.6596 10.9415 17.5307 10.9612 17.4019 10.9612C17.203 10.9612 17.0069 10.9135 16.8276 10.8155C16.5335 10.6586 16.315 10.3869 16.2254 10.062C16.1834 9.90793 16.0937 9.59421 15.4523 9.59421C15.301 9.59421 15.1694 9.61382 15.0573 9.65023C14.9313 9.69225 14.8024 9.71185 14.6736 9.71185C14.4747 9.71185 14.2814 9.66424 14.1021 9.569C13.808 9.41213 13.5923 9.14323 13.4999 8.8211L13.4998 8.82084C13.4606 8.68344 13.3678 8.35891 12.7296 8.35891C12.5951 8.35891 12.4775 8.37572 12.3738 8.40373C12.2646 8.43454 12.1554 8.45135 12.0433 8.45135C11.78 8.45135 11.5195 8.36452 11.3066 8.20205C11.0013 7.96956 10.822 7.60261 10.822 7.21886V4.3169C10.822 3.66424 10.5475 3.38692 9.90605 3.38692C9.37944 3.38692 9.04611 3.54659 8.99569 4.35051V11.7007C8.99569 12.2553 8.62874 12.7399 8.09933 12.8883C7.99289 12.9191 7.88365 12.9331 7.7772 12.9331C7.34504 12.9329 6.94535 12.7037 6.72678 12.3309C6.44387 11.8491 6.22818 11.569 6.0097 11.3953C5.87804 11.2889 5.71558 11.2301 5.55872 11.2301C5.46068 11.2301 5.31782 11.2525 5.18617 11.3589C4.90606 11.583 5.04891 11.9724 5.12174 12.1292C5.78841 13.555 6.92006 15.8547 7.83042 17.7035L7.85844 17.7595C8.48309 19.0312 8.93687 19.9556 9.07972 20.2637C9.11054 20.3337 9.20297 20.5354 9.2786 20.611H17.0321C17.6764 20.611 18.217 20.4317 18.5223 20.118Z" fill="#313235"/>
</svg>
