<svg width="24" height="24" viewBox="0 0 24 24" fill="none" xmlns="http://www.w3.org/2000/svg">
<path fill-rule="evenodd" clip-rule="evenodd" d="M6.97367 2.16003H14.7608C15.5423 2.16003 15.8868 2.90233 16.0297 3.22166C16.1698 3.52418 16.6655 4.53258 17.2398 5.69785C18.1613 7.569 19.307 9.89673 19.9877 11.3449C20.3854 12.1992 20.2286 13.0872 19.5787 13.6082C19.2482 13.8715 18.8504 14.0032 18.4471 14.0032C18.0241 14.0032 17.5955 13.8575 17.237 13.5718C16.87 13.2805 16.5675 12.8771 16.2286 12.3001C16.231 14.1986 16.2293 18.0395 16.2287 19.2906C16.2286 19.5069 16.2286 19.6458 16.2286 19.6838C16.2286 19.7007 16.2286 19.7147 16.2258 19.7287C16.1389 21.0732 15.363 21.8463 14.0969 21.8463C12.7804 21.8463 11.9625 21.0172 11.9625 19.6838V16.7819C11.7552 16.8407 11.5255 16.8715 11.279 16.8715C10.2762 16.8715 9.57591 16.3673 9.33502 15.5186C9.10533 15.597 8.84202 15.6362 8.55911 15.6362C7.5507 15.6362 6.84762 15.1264 6.60953 14.2693C6.37703 14.3477 6.11933 14.3869 5.83642 14.3869C4.58152 14.3869 3.8 13.5942 3.8 12.3225V5.3281C3.8 4.35611 4.07171 3.5802 4.60953 3.02558C5.15014 2.46816 5.99048 2.16003 6.97367 2.16003ZM14.9261 3.74267C14.8952 3.66984 14.8028 3.47096 14.7272 3.39253V3.38692H6.98488C6.34062 3.38692 5.8 3.569 5.49468 3.88272C5.18376 4.20485 5.0325 4.67544 5.0325 5.3225V12.3169C5.0325 12.9079 5.26779 13.1488 5.84762 13.1488C5.99608 13.1488 6.12773 13.1292 6.23978 13.0928C6.36303 13.0508 6.49188 13.0312 6.62073 13.0312C6.81961 13.0312 7.01569 13.0816 7.19496 13.1768C7.48908 13.3365 7.70757 13.6082 7.7972 13.9331L7.79759 13.9345C7.83701 14.0753 7.92816 14.4009 8.57031 14.4009C8.71877 14.4009 8.85042 14.3813 8.96247 14.3449C9.08852 14.3029 9.21737 14.2833 9.34622 14.2833C9.5423 14.2833 9.73838 14.3309 9.91485 14.4261C10.209 14.583 10.4247 14.8547 10.5171 15.1768L10.5172 15.1772C10.5565 15.3175 10.6465 15.639 11.2874 15.639C11.4219 15.639 11.5395 15.6222 11.6431 15.5942C11.7496 15.5634 11.8616 15.5494 11.9709 15.5494C12.237 15.5494 12.4947 15.6362 12.7104 15.8015C13.0129 16.034 13.1922 16.3953 13.1922 16.7819V19.6866C13.1922 20.3393 13.4639 20.6166 14.1053 20.6166C14.6291 20.6166 14.9625 20.4542 15.0157 19.6502L15.0129 19.1124V12.3029C15.0129 11.7483 15.3798 11.2609 15.9092 11.1152C16.0185 11.0844 16.1277 11.0704 16.2342 11.0704C16.6543 11.0704 17.0577 11.2917 17.2818 11.6726C17.5647 12.1544 17.7804 12.4345 17.9989 12.6082C18.1305 12.7147 18.293 12.7735 18.4499 12.7735C18.5451 12.7735 18.688 12.7511 18.8196 12.6446C19.0997 12.4205 18.9569 12.0312 18.884 11.8743C18.209 10.4345 17.0661 8.11242 16.1473 6.24687C16.0397 6.02741 15.9347 5.81356 15.8342 5.60881C15.3985 4.72115 15.0467 4.00442 14.9261 3.74267Z" fill="#313235"/>
</svg>
