<svg width="24" height="24" viewBox="0 0 24 24" fill="none" xmlns="http://www.w3.org/2000/svg">
<path fill-rule="evenodd" clip-rule="evenodd" d="M9.73703 17.3935C9.6586 17.626 9.61939 17.8837 9.61939 18.1666C9.61939 19.4215 10.4093 20.203 11.681 20.2058H18.6782C19.6502 20.2058 20.4233 19.9341 20.9807 19.3963C21.5382 18.8557 21.8463 18.0182 21.8463 17.035V9.24785C21.8463 8.46634 21.104 8.1218 20.7875 7.97614C20.4891 7.8393 19.5223 7.36283 18.3911 6.80542L18.3113 6.76606C16.4401 5.84449 14.1124 4.69883 12.6642 4.01816C11.8099 3.6176 10.9219 3.77726 10.4009 4.42712C10.1348 4.75766 10.0031 5.15542 10.0031 5.55878C10.0031 5.97895 10.1488 6.40752 10.4345 6.76606C10.7258 7.13301 11.1292 7.43833 11.7062 7.77726C9.81006 7.77488 5.96748 7.77656 4.71588 7.77711C4.49943 7.7772 4.36047 7.77726 4.32247 7.77726H4.27765C2.93031 7.8641 2.16 8.64001 2.16 9.90612C2.16 11.2226 2.98914 12.0406 4.32247 12.0406H7.22443C7.16561 12.2479 7.13479 12.4775 7.13479 12.724C7.13479 13.7268 7.63619 14.4271 8.48773 14.668C8.4093 14.8977 8.37009 15.161 8.37009 15.4439C8.37009 16.4523 8.87989 17.1554 9.73703 17.3935ZM20.118 18.5224C19.7987 18.8333 19.3253 18.9845 18.6782 18.9845V18.993H11.6726C11.0844 18.993 10.8435 18.7549 10.8435 18.175C10.8435 18.0266 10.8631 17.8949 10.8995 17.7857C10.9415 17.6596 10.9611 17.5308 10.9611 17.4019C10.9611 17.203 10.9135 17.007 10.8155 16.8277C10.6586 16.5336 10.3869 16.3151 10.062 16.2254C9.9079 16.1834 9.59418 16.0938 9.59418 15.4523C9.59418 15.3011 9.61379 15.1694 9.6502 15.0574C9.69222 14.9313 9.71182 14.8025 9.71182 14.6736C9.71182 14.4747 9.66421 14.2815 9.56897 14.1022C9.4121 13.8081 9.1432 13.5924 8.82107 13.5L8.82081 13.4999C8.6834 13.4606 8.35888 13.3679 8.35888 12.7296C8.35888 12.5952 8.37569 12.4775 8.4037 12.3739C8.43451 12.2647 8.45132 12.1526 8.45132 12.0434C8.45132 11.7801 8.36449 11.5196 8.20202 11.3067C7.96953 11.0014 7.60258 10.8221 7.21883 10.8221H4.31687C3.66421 10.8221 3.38689 10.5476 3.38689 9.90612C3.38689 9.37951 3.54656 9.04617 4.35048 8.99575H11.7006C12.2552 8.99575 12.7398 8.62881 12.8883 8.09939C12.9191 7.99295 12.9331 7.88371 12.9331 7.77726C12.9328 7.3451 12.7037 6.94541 12.3309 6.72684C11.8491 6.44393 11.569 6.22825 11.3953 6.00976C11.2889 5.87811 11.23 5.71564 11.23 5.55878C11.23 5.46074 11.2524 5.31788 11.3589 5.18623C11.583 4.90612 11.9723 5.04897 12.1292 5.1218C13.555 5.78847 15.8547 6.92012 17.7034 7.83049L17.7594 7.8585C19.0312 8.48315 19.9555 8.93693 20.2636 9.07979C20.3337 9.1106 20.5354 9.20303 20.611 9.27867V17.0322C20.611 17.6764 20.4317 18.217 20.118 18.5224Z" fill="#313235"/>
</svg>
