<svg width="24" height="24" viewBox="0 0 24 24" fill="none" xmlns="http://www.w3.org/2000/svg">
<path fill-rule="evenodd" clip-rule="evenodd" d="M6.96247 2.16003H14.7272C15.5087 2.16003 15.8504 2.89953 15.9933 3.21326C16.1348 3.51302 16.6202 4.50035 17.185 5.64928L17.2006 5.68104C18.1193 7.54659 19.2622 9.86872 19.9401 11.3141C20.3406 12.1628 20.181 13.0508 19.5339 13.569C19.2062 13.8323 18.8084 13.964 18.405 13.964C17.9849 13.964 17.5591 13.8211 17.2006 13.5354C16.8364 13.2441 16.5339 12.8407 16.195 12.2665V19.6278C16.195 19.6348 16.1943 19.6425 16.1936 19.6502C16.1929 19.6579 16.1922 19.6656 16.1922 19.6726C16.1053 21.0144 15.3322 21.7847 14.0689 21.7847C12.7552 21.7847 11.9401 20.9584 11.9401 19.6278V16.7343C11.7356 16.7931 11.5059 16.8239 11.2594 16.8239C10.2594 16.8239 9.56191 16.3225 9.32101 15.4766C9.08852 15.5522 8.82801 15.5942 8.5451 15.5942C7.5423 15.5942 6.84202 15.0872 6.60392 14.2329C6.37143 14.3085 6.11373 14.3505 5.83082 14.3505C4.57871 14.3505 3.8 13.5634 3.8 12.2945V5.3169C3.8 4.35051 4.06891 3.5774 4.60673 3.02558C5.14454 2.46816 5.98208 2.16003 6.96247 2.16003ZM15.2594 3.5662C15.0661 3.14323 14.9148 2.98076 14.7272 2.98076L6.95687 2.97796C6.19496 2.97796 5.56471 3.19645 5.18096 3.59421C4.7972 3.98917 4.60392 4.569 4.60392 5.3169V12.2917C4.60392 13.1124 5.01289 13.5298 5.82241 13.5298C5.99888 13.5326 6.17255 13.5074 6.34062 13.4542C6.5507 13.3841 6.7804 13.4065 6.97647 13.5102C7.17255 13.6166 7.31821 13.7959 7.37703 14.0116C7.51709 14.5186 7.90645 14.7763 8.5367 14.7763C8.71317 14.7791 8.88964 14.7539 9.05771 14.7007C9.26779 14.6306 9.49748 14.6502 9.69356 14.7539C9.88964 14.8603 10.0325 15.0396 10.0941 15.2525C10.237 15.7539 10.6263 16.0088 11.2538 16.0088C11.4106 16.0116 11.5647 15.992 11.716 15.9528C11.9597 15.8827 12.223 15.9331 12.4247 16.0872C12.6263 16.2413 12.744 16.4822 12.744 16.7399V19.6334C12.744 20.5074 13.2006 20.9696 14.0633 20.9696C14.5899 20.9696 15.3014 20.8295 15.377 19.6222V12.2693C15.377 11.9023 15.6207 11.5774 15.9737 11.4794C16.3266 11.3841 16.702 11.5354 16.8868 11.8519C17.1978 12.3785 17.4415 12.6894 17.6992 12.8967C17.9036 13.062 18.1557 13.1516 18.4022 13.1516C18.6347 13.1516 18.8504 13.076 19.0269 12.9331C19.3742 12.6558 19.4415 12.1712 19.2062 11.6698C18.5311 10.2357 17.391 7.91634 16.4751 6.05359C15.9008 4.88833 15.405 3.87992 15.2594 3.5662Z" fill="#313235"/>
</svg>
