<svg width="24" height="24" viewBox="0 0 24 24" fill="none" xmlns="http://www.w3.org/2000/svg">
<path fill-rule="evenodd" clip-rule="evenodd" d="M14.2692 17.3935C14.3476 17.626 14.3869 17.8837 14.3869 18.1666C14.3869 19.4215 13.5969 20.203 12.3252 20.2058H5.32804C4.35605 20.2058 3.58294 19.9341 3.02552 19.3963C2.4681 18.8557 2.15997 18.0182 2.15997 17.035V9.24785C2.15997 8.46634 2.90227 8.1218 3.2188 7.97614C3.51712 7.8393 4.48397 7.36284 5.61508 6.80544L5.69499 6.76606C7.56614 5.84449 9.89387 4.69883 11.342 4.01816C12.1964 3.6176 13.0843 3.77726 13.6054 4.42712C13.8715 4.75766 14.0031 5.15542 14.0031 5.55878C14.0031 5.97895 13.8575 6.40752 13.5717 6.76606C13.2804 7.13301 12.8771 7.43833 12.3 7.77726C14.1962 7.77488 18.0388 7.77656 19.2904 7.77711C19.5068 7.7772 19.6458 7.77726 19.6838 7.77726H19.7286C21.0759 7.8641 21.8462 8.64001 21.8462 9.90612C21.8462 11.2226 21.0171 12.0406 19.6838 12.0406H16.7818C16.8406 12.2479 16.8715 12.4775 16.8715 12.724C16.8715 13.7268 16.3701 14.4271 15.5185 14.668C15.5969 14.8977 15.6362 15.161 15.6362 15.4439C15.6362 16.4523 15.1264 17.1554 14.2692 17.3935ZM3.88826 18.5224C4.20759 18.8333 4.68098 18.9845 5.32804 18.9845V18.993H12.328C12.9163 18.993 13.1572 18.7549 13.1572 18.175C13.1572 18.0266 13.1376 17.8949 13.1011 17.7857C13.0591 17.6596 13.0395 17.5308 13.0395 17.4019C13.0395 17.203 13.0871 17.007 13.1852 16.8277C13.342 16.5336 13.6138 16.3151 13.9387 16.2254C14.0927 16.1834 14.4065 16.0938 14.4065 15.4523C14.4065 15.3011 14.3869 15.1694 14.3504 15.0574C14.3084 14.9313 14.2888 14.8025 14.2888 14.6736C14.2888 14.4747 14.3364 14.2815 14.4317 14.1022C14.5885 13.8081 14.8575 13.5924 15.1796 13.5L15.1798 13.4999C15.3172 13.4606 15.6418 13.3679 15.6418 12.7296C15.6418 12.5952 15.625 12.4775 15.5969 12.3739C15.5661 12.2647 15.5493 12.1526 15.5493 12.0434C15.5493 11.7801 15.6362 11.5196 15.7986 11.3067C16.0311 11.0014 16.3981 10.8221 16.7818 10.8221H19.6894C20.342 10.8221 20.6194 10.5476 20.6194 9.90612C20.6194 9.37951 20.4597 9.04617 19.6558 8.99575H12.3056C11.751 8.99575 11.2664 8.62881 11.118 8.09939C11.0871 7.99295 11.0731 7.88371 11.0731 7.77726C11.0734 7.3451 11.3026 6.94541 11.6754 6.72684C12.1572 6.44393 12.4373 6.22825 12.611 6.00976C12.7174 5.87811 12.7762 5.71564 12.7762 5.55878C12.7762 5.46074 12.7538 5.31788 12.6474 5.18623C12.4233 4.90612 12.0339 5.04897 11.8771 5.1218C10.4513 5.78847 8.15157 6.92012 6.30283 7.83049L6.24681 7.8585C4.9751 8.48315 4.05073 8.93693 3.74261 9.07979C3.67258 9.1106 3.4709 9.20303 3.39527 9.27867V17.0322C3.39527 17.6764 3.57454 18.217 3.88826 18.5224Z" fill="#313235"/>
</svg>
