<svg width="24" height="24" viewBox="0 0 24 24" fill="none" xmlns="http://www.w3.org/2000/svg">
<path d="M9.61937 18.1638C9.61937 17.8809 9.65859 17.6232 9.73702 17.3907C8.87988 17.1526 8.37007 16.4495 8.37007 15.4411C8.37007 15.1582 8.41209 14.8977 8.48772 14.6652C7.63898 14.4243 7.13478 13.724 7.13478 12.7212C7.13478 12.4747 7.1656 12.245 7.22442 12.0378H4.32246C2.98913 12.0378 2.16 11.2198 2.16 9.9033C2.16 8.6372 2.93031 7.86129 4.27765 7.77446H11.7062C11.1292 7.43552 10.7258 7.1302 10.4345 6.76605C10.146 6.40751 10.0031 5.97894 10.0031 5.55877C10.0031 5.15541 10.1348 4.75765 10.4009 4.42712C10.9219 3.77726 11.8098 3.6176 12.6642 4.01816C14.1124 4.69883 16.4401 5.84449 18.3112 6.76605C19.4765 7.34028 20.4849 7.83608 20.7874 7.97614C21.1067 8.12179 21.849 8.46633 21.849 9.24784V17.0349C21.849 18.0181 21.5409 18.8557 20.9835 19.3963C20.4289 19.9341 19.653 20.2058 18.681 20.2058H11.6838C10.4093 20.2002 9.61937 19.4215 9.61937 18.1638Z" fill="#313235"/>
</svg>
