<svg width="24" height="24" viewBox="0 0 24 24" fill="none" xmlns="http://www.w3.org/2000/svg">
<path fill-rule="evenodd" clip-rule="evenodd" d="M21.71 15.4676L21.7086 15.4565L21.7088 15.4526L21.7093 15.4491C21.7099 15.4454 21.7104 15.4423 21.7086 15.4369L21.6946 15.3165C21.6924 15.3022 21.6911 15.2879 21.6897 15.2738V15.2737C21.6877 15.2519 21.6857 15.2304 21.6806 15.21L20.1904 3.38375C20.0419 2.57703 19.4145 2.01401 18.6666 2.01401L5.07561 2C4.2801 2 3.63024 2.65266 3.63584 3.36694L2.03361 15.3725C2.03197 15.3823 2.03321 15.3922 2.03452 15.4026C2.03545 15.4099 2.03641 15.4176 2.03641 15.4257C2.03529 15.438 2.03327 15.4504 2.03126 15.4627C2.02823 15.4812 2.02521 15.4997 2.02521 15.5182V20.2408C2.02521 21.0391 2.67506 21.689 3.47058 21.689H20.2688C21.0671 21.689 21.7142 21.0391 21.7142 20.2408V15.5182C21.7142 15.4996 21.7123 15.4849 21.71 15.4676ZM4.87113 3.44817L3.45657 14.07C3.45938 14.07 3.46148 14.0693 3.46358 14.0686C3.46568 14.0679 3.46778 14.0672 3.47058 14.0672H20.2688C20.2716 14.0672 20.2744 14.0679 20.2772 14.0686L20.2772 14.0686C20.28 14.0693 20.2828 14.07 20.2856 14.07L18.9635 3.57702C18.9327 3.40896 18.8038 3.2605 18.6666 3.2605L5.07561 3.24649C4.96357 3.24369 4.87113 3.33613 4.87113 3.44817ZM20.2688 20.4425C20.3809 20.4425 20.4705 20.3501 20.4705 20.238V15.5546L20.4621 15.4985C20.4537 15.3949 20.3725 15.3109 20.266 15.3109H3.46778C3.35573 15.3109 3.2661 15.4033 3.2661 15.5153V20.238C3.2661 20.3501 3.35854 20.4425 3.46778 20.4425H20.2688ZM11.8711 7.94955C10.9776 7.94955 10.9776 8.3221 10.9776 8.48177C10.9776 8.64143 10.9776 9.01118 11.8711 9.01118C12.7647 9.01118 12.7647 8.64143 12.7647 8.48177C12.7647 8.3221 12.7647 7.94955 11.8711 7.94955ZM10.1512 8.48177C10.1512 8.89073 10.3193 9.8403 11.8711 9.8403C13.4229 9.8403 13.591 8.89073 13.5938 8.48177C13.5938 8.0728 13.4257 7.12043 11.8711 7.12043C10.3193 7.12043 10.1512 8.0728 10.1512 8.48177ZM17.9243 18.7086C18.4285 18.7086 18.6274 18.5125 18.6274 18.0027C18.6274 17.4957 18.4285 17.2997 17.9243 17.2997C17.4201 17.2997 17.2212 17.4985 17.2212 18.0027C17.2212 18.5125 17.4173 18.7086 17.9243 18.7086ZM19.4537 18.0027C19.4537 17.0448 18.8823 16.4705 17.9243 16.4705C16.9663 16.4705 16.3921 17.0448 16.3949 18.0027C16.3949 18.9635 16.9663 19.5377 17.9243 19.5377C18.8823 19.5377 19.4537 18.9635 19.4537 18.0027ZM6.07001 4.76469C5.59662 4.76469 5.32211 4.59103 5.32211 4.22408C5.32211 3.85433 5.59662 3.68347 6.07001 3.68347C6.54059 3.68347 6.8179 3.85714 6.8179 4.22408C6.8179 4.59383 6.5434 4.76469 6.07001 4.76469ZM16.5434 4.22408C16.5434 4.59103 16.8179 4.76469 17.2912 4.76469C17.7618 4.76469 18.0391 4.59383 18.0391 4.22408C18.0391 3.85714 17.7618 3.68347 17.2912 3.68347C16.8179 3.68347 16.5434 3.85433 16.5434 4.22408ZM18.8935 13.605C18.4201 13.605 18.1456 13.4313 18.1456 13.0644C18.1456 12.6946 18.4201 12.5238 18.8935 12.5238C19.3669 12.5238 19.6414 12.6946 19.6414 13.0644C19.6414 13.4341 19.3669 13.605 18.8935 13.605ZM4.88794 12.3893C4.88234 12.3053 4.95517 12.1876 5.08962 12.0644C5.88794 11.3333 7.94395 9.92434 8.43694 9.92434C8.45095 9.92434 8.46496 9.92434 8.47616 9.92714C8.54339 10.2941 7.37813 11.7311 6.37533 12.6498C5.92715 13.0588 5.47617 12.9131 5.17926 12.7198C5.00559 12.605 4.89634 12.4817 4.88794 12.3893ZM7.35572 8.48177C7.35572 8.8291 7.40894 9.14563 7.49017 9.43414C8.0784 9.16804 8.61902 9.05319 8.95795 9.27448C9.15963 9.40613 9.28288 9.61341 9.30249 9.86271C9.3277 10.1904 9.14843 10.605 8.87672 11.0308L8.89633 11.0392C9.63302 11.3921 10.6358 11.5714 11.8683 11.5714C16.3837 11.5714 16.3837 9.24367 16.3837 8.48177C16.3837 7.71706 16.3837 5.38654 11.8683 5.38654C7.35572 5.38934 7.35572 7.71706 7.35572 8.48177ZM4.06441 12.4593C4.08682 12.7114 4.21848 13.084 4.73108 13.4173C5.06721 13.6358 5.41735 13.7422 5.75909 13.7394C6.17925 13.7394 6.58541 13.577 6.93275 13.2577C6.98037 13.2156 7.5574 12.6834 8.12882 12.0196C8.13882 12.0276 8.14775 12.0363 8.15662 12.0449C8.17261 12.0605 8.18844 12.076 8.21006 12.0868L8.35851 12.1596C9.26607 12.5966 10.4481 12.8151 11.8683 12.8151C16.8795 12.8151 17.6274 10.098 17.6274 8.47896C17.6274 6.85712 16.8795 4.14005 11.8683 4.14005C6.86272 4.14005 6.11483 6.85712 6.11483 8.47896C6.11483 9.05039 6.20446 9.5798 6.37533 10.0504C6.37533 10.0518 6.37603 10.0525 6.37673 10.0532C6.37743 10.0539 6.37813 10.0546 6.37813 10.056C5.44335 10.6649 4.62826 11.3681 4.53988 11.4443C4.53556 11.4481 4.53298 11.4503 4.5322 11.4509C4.10923 11.8403 4.04481 12.2128 4.06441 12.4593Z" fill="#313235"/>
</svg>
