<svg width="24" height="24" viewBox="0 0 24 24" fill="none" xmlns="http://www.w3.org/2000/svg">
<path fill-rule="evenodd" clip-rule="evenodd" d="M12.0092 21.7922H12.0093H12.0289H12.029C12.0766 21.7922 12.1186 21.7922 12.1578 21.7894H12.1718C12.295 21.781 12.4183 21.7642 12.5387 21.7362C12.9729 21.6382 13.3847 21.4533 13.746 21.19C14.1046 20.9351 14.5723 20.4925 14.8889 20.1648C14.8931 20.1592 14.8973 20.1543 14.9015 20.1494C14.9057 20.1445 14.9099 20.1396 14.9141 20.134C16.5163 18.4785 17.4603 17.2964 18.6396 15.4645C20.1214 13.162 21.1382 10.8819 21.662 8.68579C22.211 6.37206 21.7712 4.4617 20.4211 3.30484C19.634 2.63257 18.5611 2.2264 17.3931 2.16758C16.1522 2.10596 14.8609 2.42248 13.6648 3.08915C13.239 3.32444 12.802 3.57374 12.3287 3.85666C12.141 3.9603 11.9113 3.9575 11.7236 3.85386C11.2474 3.57374 10.8132 3.32164 10.3903 3.08915C9.1914 2.42248 7.90288 2.10596 6.66199 2.16758C5.49392 2.22921 4.41829 2.63257 3.63397 3.30764C2.28103 4.4645 1.84126 6.37486 2.39028 8.68579C2.91409 10.8847 3.93089 13.1676 5.41549 15.4645C6.60036 17.3076 7.54714 18.4925 9.16899 20.1648C9.48832 20.4925 9.9533 20.9323 10.3118 21.19C10.6732 21.4533 11.085 21.6382 11.5191 21.7362C11.6396 21.7642 11.7628 21.7838 11.8861 21.7894H11.9001C11.9337 21.7922 11.9701 21.7922 12.0092 21.7922ZM6.69 2.73061C6.78523 2.725 6.88047 2.7222 6.97571 2.7222C8.02333 2.7222 9.10456 3.01632 10.1158 3.57935C10.5331 3.81184 10.9645 4.05834 11.4351 4.33845L11.4379 4.34125C11.7964 4.54573 12.2418 4.54853 12.6032 4.34405L12.6088 4.34125C13.0794 4.06114 13.5135 3.81184 13.9337 3.57935C15.0401 2.9659 16.225 2.67178 17.3623 2.73061C18.4071 2.78383 19.3623 3.13957 20.0541 3.73341C20.6536 4.24601 21.0485 4.92949 21.225 5.76142C21.3987 6.57935 21.3623 7.52052 21.1158 8.55694C20.606 10.6914 19.6144 12.9127 18.1662 15.162C16.9869 16.9911 16.0934 18.1116 14.4799 19.7754C14.4715 19.7838 14.4631 19.7922 14.4547 19.8034C14.155 20.1116 13.732 20.5065 13.4155 20.7362C13.1158 20.9519 12.7768 21.106 12.4155 21.1872L12.4071 21.19C12.3174 21.2124 12.225 21.2236 12.1326 21.2292H12.1214C12.0934 21.232 12.0625 21.232 12.0261 21.232H12.0233C12.0035 21.232 11.9844 21.2312 11.9671 21.2304C11.9527 21.2298 11.9395 21.2292 11.9281 21.2292H11.9197C11.8273 21.2236 11.7348 21.2124 11.6452 21.19L11.6368 21.1872C11.2754 21.1088 10.9365 20.9547 10.6368 20.7362C10.309 20.5009 9.86927 20.0863 9.56955 19.7754C7.9589 18.1116 7.06255 16.9911 5.88608 15.162C4.4407 12.9155 3.4491 10.6942 2.9393 8.55694C2.6928 7.52052 2.65638 6.57935 2.83005 5.76142C3.00652 4.92949 3.39868 4.24601 3.99812 3.73341C4.69 3.13957 5.64798 2.78383 6.69 2.73061Z" fill="#313235"/>
</svg>
