<svg width="24" height="24" viewBox="0 0 24 24" fill="none" xmlns="http://www.w3.org/2000/svg">
<path fill-rule="evenodd" clip-rule="evenodd" d="M12.0196 21.7788H12.0364C12.0784 21.7788 12.1176 21.7788 12.1596 21.7732H12.1764C12.3109 21.7676 12.4453 21.748 12.577 21.7172C13.0364 21.6163 13.4733 21.4203 13.8543 21.143C14.3109 20.8152 14.8459 20.2746 15 20.1149C15.014 20.1009 15.0252 20.0869 15.0364 20.0729L15.0364 20.0729C16.6022 18.4567 17.5238 17.2998 18.675 15.5099C20.1316 13.2494 21.1288 11.0085 21.6442 8.84604C22.2044 6.4931 21.7423 4.53791 20.3473 3.34184C19.5378 2.64716 18.4341 2.22979 17.238 2.16817C15.9803 2.10374 14.675 2.42307 13.4677 3.09254C13.0532 3.32223 12.6274 3.56593 12.168 3.84044C12.0728 3.89086 11.9607 3.89086 11.8683 3.84044C11.4061 3.56873 10.9831 3.32223 10.5714 3.09534C9.3613 2.42307 8.05598 2.10374 6.79827 2.16817C5.605 2.22979 4.49855 2.64716 3.68903 3.33903C2.29407 4.53791 1.83189 6.49029 2.39211 8.84324C2.90752 11.0085 3.90752 13.2522 5.3613 15.5099C6.52376 17.3138 7.45093 18.4763 9.03917 20.1149C9.19323 20.2718 9.73105 20.8152 10.1876 21.1458C10.5686 21.4231 11.0056 21.6163 11.4649 21.72C11.5966 21.7508 11.731 21.7676 11.8655 21.776H11.8823C11.9243 21.7788 11.9691 21.7788 12.0196 21.7788ZM12.1064 20.6584H12.0196V20.6612H11.9327C11.8627 20.6556 11.7899 20.6472 11.7198 20.6304L11.703 20.6276C11.3921 20.5575 11.098 20.4231 10.8403 20.2354C10.5378 20.0169 10.112 19.6163 9.84309 19.3362C8.29407 17.7368 7.43413 16.6612 6.30247 14.9049C4.91592 12.7508 3.96914 10.6247 3.48175 8.58553C3.25205 7.62195 3.21844 6.7508 3.3781 6.0001C3.53777 5.255 3.88791 4.64716 4.42012 4.19058C5.04197 3.65556 5.90752 3.33343 6.8571 3.28581C7.90472 3.23259 9.00275 3.5043 10.0252 4.07573C10.4285 4.29702 10.8431 4.53791 11.2969 4.80682L11.3025 4.80962C11.7422 5.06172 12.2801 5.06172 12.7198 4.81523L12.731 4.80962C13.1848 4.54072 13.6022 4.29982 14.0084 4.07573C15.0336 3.5043 16.1316 3.23259 17.1848 3.28301C18.1316 3.33343 18.9972 3.65276 19.6218 4.18777C20.1512 4.64436 20.5014 5.2522 20.661 5.9973C20.8207 6.748 20.7843 7.61915 20.5546 8.58273C20.0672 10.6191 19.1176 12.7452 17.731 14.9021C16.5994 16.6584 15.7394 17.7368 14.1904 19.3334C14.1792 19.3446 14.168 19.3586 14.1568 19.3726L14.1568 19.3726C13.8851 19.65 13.4873 20.0253 13.1988 20.2326C12.9411 20.4231 12.647 20.5547 12.3361 20.6247L12.3193 20.6276C12.2493 20.6444 12.1792 20.6556 12.1064 20.6584Z" fill="#313235"/>
</svg>
