<svg width="24" height="24" viewBox="0 0 24 24" fill="none" xmlns="http://www.w3.org/2000/svg">
<path fill-rule="evenodd" clip-rule="evenodd" d="M5.13725 2.84167H18.549C20.2801 2.84167 21.6862 4.19741 21.689 5.86408V14.8248C21.689 16.4943 20.2801 17.85 18.5518 17.85H8.64144L6.65265 20.3122C6.35573 20.6904 5.96638 20.8865 5.49579 20.8865C4.73949 20.8865 4.09803 20.2842 4.09803 19.5671V17.7044C2.84594 17.3122 2 16.1722 2 14.8248V5.86408C2 4.19741 3.40896 2.84167 5.13725 2.84167ZM14.3053 11.8445C14.8543 11.0209 15.2297 10.203 15.4229 9.41589C15.633 8.55875 15.4622 7.84727 14.9411 7.40749C14.6358 7.15259 14.2185 7.00133 13.7703 6.97892C13.7311 6.97612 13.6891 6.97612 13.6498 6.97612C13.6414 6.97612 13.6323 6.97752 13.6232 6.97892C13.6141 6.98032 13.605 6.98172 13.5966 6.98172C13.4033 6.98732 13.2073 7.00973 13.014 7.06015C13.0028 7.06295 12.9923 7.06646 12.9818 7.06996C12.9713 7.07346 12.9608 7.07696 12.9496 7.07976C12.7451 7.13858 12.5434 7.21421 12.3501 7.31786C12.2927 7.35021 12.2341 7.38257 12.1743 7.41565C12.0734 7.47135 11.9689 7.5291 11.8599 7.59236C11.8431 7.60077 11.8235 7.60637 11.8039 7.60637C11.7843 7.60637 11.7647 7.60077 11.7479 7.59236C11.6987 7.56505 11.6508 7.53838 11.604 7.51231C11.4829 7.44481 11.3688 7.38127 11.2577 7.32066C11.0644 7.21702 10.8599 7.14139 10.6554 7.08256C10.6471 7.08017 10.6387 7.07728 10.6302 7.07431C10.6186 7.07031 10.6067 7.06617 10.5938 7.06295C10.4005 7.01253 10.2073 6.99013 10.0112 6.98452C10.0028 6.98452 9.99368 6.98312 9.98458 6.98172C9.97547 6.98032 9.96637 6.97892 9.95797 6.97892C9.91875 6.97892 9.87673 6.97892 9.83752 6.98172C9.38934 7.00413 8.97478 7.15539 8.66945 7.41029C8.14284 7.84727 7.96917 8.55875 8.17926 9.41589C8.37534 10.203 8.75069 11.0209 9.2969 11.8445C9.73388 12.4999 10.084 12.9229 10.6807 13.5195C10.6866 13.5252 10.694 13.5323 10.7026 13.5406C10.7798 13.6148 10.9584 13.7866 11.112 13.8949C11.2605 13.9985 11.4286 14.0713 11.5938 14.105C11.6414 14.1162 11.6919 14.1246 11.7451 14.1274H11.7507C11.7647 14.1302 11.7815 14.1302 11.7955 14.1302H11.7955H11.8095C11.8183 14.1302 11.8263 14.1294 11.834 14.1287C11.841 14.128 11.8476 14.1274 11.8543 14.1274H11.8599C11.9131 14.1246 11.9636 14.1162 12.0112 14.105C12.1764 14.0685 12.3417 13.9985 12.4902 13.8949C12.643 13.7889 12.8154 13.6221 12.8946 13.5455C12.9054 13.535 12.9145 13.5262 12.9215 13.5195L12.9356 13.5055C13.5238 12.9173 13.8711 12.4943 14.3053 11.8445Z" fill="#313235"/>
</svg>
