<svg width="24" height="24" viewBox="0 0 24 24" fill="none" xmlns="http://www.w3.org/2000/svg">
<path fill-rule="evenodd" clip-rule="evenodd" d="M12.0364 21.7788H12.0196C11.9691 21.7788 11.9243 21.7788 11.8823 21.776H11.8655C11.731 21.7676 11.5966 21.7508 11.4649 21.72C11.0056 21.6163 10.5686 21.4203 10.1876 21.1458C9.73105 20.8152 9.19323 20.2718 9.03917 20.1149C7.45093 18.4763 6.52376 17.3138 5.3613 15.5099C3.90752 13.2522 2.90752 11.0085 2.39211 8.84324C1.83189 6.49029 2.29407 4.53791 3.68903 3.33903C4.49855 2.64716 5.605 2.22979 6.79827 2.16817C8.05598 2.10374 9.3613 2.42307 10.5714 3.09534C10.9831 3.32223 11.4061 3.56873 11.8683 3.84044C11.9607 3.89086 12.0728 3.89086 12.168 3.84044C12.6302 3.56593 13.0532 3.32223 13.4677 3.09254C14.675 2.42307 15.9803 2.10374 17.238 2.16817C18.4341 2.22979 19.5378 2.64716 20.3473 3.34184C21.7423 4.53791 22.2044 6.4931 21.6442 8.84604C21.1288 11.0085 20.1316 13.2494 18.675 15.5099C17.5238 17.2998 16.5994 18.4567 15.0364 20.0729L15.0364 20.0729C15.0252 20.0869 15.014 20.1009 15 20.1149C14.8459 20.2746 14.3081 20.8152 13.8543 21.143C13.4733 21.4203 13.0364 21.6163 12.577 21.7172C12.4453 21.748 12.3109 21.7676 12.1764 21.7732H12.1596C12.1176 21.7788 12.0784 21.7788 12.0364 21.7788Z" fill="#313235"/>
</svg>
