<svg width="24" height="24" viewBox="0 0 24 24" fill="none" xmlns="http://www.w3.org/2000/svg">
<path fill-rule="evenodd" clip-rule="evenodd" d="M21.6862 6.00694C21.6862 4.26184 20.2101 2.84167 18.4005 2.84167H5.28571C3.47619 2.84167 2 4.26184 2 6.00694V14.7548C2 16.1078 2.82353 17.2646 4.05322 17.7156V19.3879C4.05322 20.2002 4.77591 20.8865 5.63585 20.8865C6.29691 20.8865 6.71148 20.5335 6.93557 20.245L8.81511 17.9201H18.4005C20.2129 17.9201 21.6862 16.5027 21.6862 14.7576V6.00694ZM20.451 6.00694V14.7548C20.451 15.8417 19.5322 16.724 18.4033 16.724H8.5154C8.32492 16.724 8.14565 16.8108 8.028 16.9537L5.95518 19.5195C5.82072 19.6932 5.70868 19.6932 5.63585 19.6932C5.46498 19.6932 5.28851 19.5419 5.28851 19.3907V17.273C5.28851 16.9873 5.08123 16.7436 4.79271 16.6876C3.87675 16.5055 3.23529 15.7128 3.23529 14.7576V6.00694C3.23529 4.9201 4.15406 4.03495 5.28571 4.03495H18.4005C19.5322 4.03495 20.451 4.9201 20.451 6.00694ZM14.2353 9.15539C14.2829 8.96772 14.3641 8.51113 14.1456 8.32906C14.0476 8.24783 13.8851 8.19461 13.7115 8.1862L13.6526 8.1834C13.4258 8.1834 13.1821 8.25063 12.9496 8.37668C12.8039 8.45511 12.6526 8.53914 12.4902 8.63158L12.4734 8.64279L12.4538 8.65119C12.2549 8.75763 12.0308 8.81085 11.8039 8.81085C11.5714 8.81085 11.3417 8.75203 11.14 8.63998C10.9524 8.53354 10.8039 8.44951 10.6582 8.37388C10.4258 8.24783 10.1821 8.1806 9.95237 8.1806L9.89635 8.1834C9.72268 8.19181 9.56021 8.24503 9.46217 8.32626C9.24088 8.50833 9.32492 8.96772 9.36974 9.15259C9.5322 9.81085 9.85433 10.5055 10.3277 11.217C10.7227 11.808 11.0224 12.1722 11.5658 12.7128C11.6582 12.8024 11.7507 12.8837 11.8067 12.9313C11.8571 12.8921 11.9328 12.8249 12.014 12.7464L12.0168 12.7408L12.0588 12.7016C12.591 12.1666 12.8907 11.808 13.2829 11.2198C13.7507 10.5083 14.0756 9.81365 14.2353 9.15539ZM14.9496 7.4215C14.6442 7.1666 14.2241 7.01534 13.7759 6.99293C13.7367 6.99293 13.6947 6.99013 13.661 6.98453C13.2241 6.98453 12.7759 7.09937 12.3557 7.32346C12.1989 7.40749 12.0392 7.49713 11.8655 7.59797C11.8487 7.60637 11.8319 7.61198 11.8095 7.61198C11.7899 7.61198 11.7703 7.60917 11.7535 7.59797C11.5798 7.49993 11.4202 7.4103 11.2633 7.32626C10.8431 7.10217 10.3977 6.98733 9.95797 6.98733C9.9387 6.98733 9.91943 6.988 9.89983 6.98869C9.87954 6.9894 9.85889 6.99013 9.83752 6.99013C9.38374 7.01254 8.96637 7.1638 8.66105 7.4187C8.13444 7.85567 7.95797 8.56996 8.17086 9.4299C8.36414 10.2198 8.74229 11.0405 9.2913 11.8641C9.73108 12.5251 10.0812 12.9509 10.6807 13.5475C10.6848 13.5515 10.6897 13.5562 10.6952 13.5615C10.7682 13.6313 10.956 13.8109 11.1148 13.9229C11.2633 14.0265 11.4286 14.0966 11.5966 14.133C11.6442 14.1414 11.6947 14.1498 11.7479 14.1526H11.7535H11.8599C11.9131 14.1498 11.9636 14.1414 12.0112 14.133C12.1765 14.0966 12.3445 14.0265 12.493 13.9229C12.6666 13.8052 12.8683 13.6064 12.9272 13.5475L12.9412 13.5335C13.5322 12.9425 13.8795 12.5195 14.3165 11.8669C14.8683 11.0405 15.2437 10.2226 15.4398 9.4327C15.6526 8.57276 15.479 7.86127 14.9496 7.4215Z" fill="#313235"/>
</svg>
