<svg width="24" height="24" viewBox="0 0 24 24" fill="none" xmlns="http://www.w3.org/2000/svg">
<path fill-rule="evenodd" clip-rule="evenodd" d="M14.7871 21.6863H17.6639C18.6331 21.6863 19.423 20.9636 19.423 20.0757V13.1429H19.9272C20.6499 13.1429 21.2941 12.7451 21.5602 12.1289C21.8151 11.5463 21.6807 10.8992 21.2129 10.4398L13.1317 2.49023C12.4678 1.83757 11.2185 1.83757 10.5574 2.49023L2.4762 10.4426C2.00561 10.8992 1.87396 11.5491 2.12886 12.1317C2.39497 12.7479 3.03923 13.1457 3.76192 13.1457H4.14847V20.0785C4.14847 20.9636 4.93839 21.6863 5.90758 21.6863H8.95239C9.29133 21.6919 9.57144 21.4202 9.57704 21.0813V17.3222H14.1625V21.0813C14.1681 21.423 14.4482 21.6919 14.7871 21.6863ZM17.6639 20.4762H15.4146V16.7171C15.409 16.3754 15.1289 16.1065 14.7899 16.1121H8.95239C8.61066 16.1065 8.33054 16.3782 8.32494 16.7171V20.479H5.90758C5.63026 20.479 5.40337 20.2998 5.40337 20.0785V12.5406C5.39777 12.1989 5.11766 11.93 4.77872 11.9356H3.76192C3.49581 11.9356 3.33895 11.7956 3.28293 11.6639C3.24091 11.5687 3.2213 11.4286 3.36696 11.2857L11.4482 3.33617C11.6443 3.14289 12.0392 3.14289 12.2353 3.33617L20.3193 11.2801C20.465 11.4258 20.4454 11.5631 20.4062 11.6583C20.3502 11.7927 20.1933 11.9328 19.9272 11.9328H18.7983C18.4566 11.9272 18.1765 12.1989 18.1709 12.5378V20.0757C18.1709 20.297 17.944 20.4762 17.6639 20.4762Z" fill="#313235"/>
</svg>
