<svg width="24" height="24" viewBox="0 0 24 24" fill="none" xmlns="http://www.w3.org/2000/svg">
<path fill-rule="evenodd" clip-rule="evenodd" d="M21.5602 12.1317C21.8123 11.5462 21.6807 10.8992 21.2129 10.4398L13.1317 2.49023C12.4678 1.83757 11.2185 1.83757 10.5574 2.49023L2.47341 10.437C2.00563 10.8992 1.87397 11.5462 2.12607 12.1289C2.39498 12.7451 3.03363 13.1429 3.75912 13.1429H4.14848V20.0756C4.14848 20.9636 4.93839 21.6863 5.90758 21.6863H17.6667C18.6358 21.6863 19.423 20.9664 19.423 20.0784V13.1457H19.9272C20.6526 13.1457 21.2913 12.7479 21.5602 12.1317ZM17.5826 11.888C17.8319 11.6779 17.8627 11.3053 17.6499 11.056C17.6442 11.0476 17.6386 11.042 17.6302 11.0364C15.3221 8.54624 11.8936 8.7143 11.7871 8.72271C8.10925 8.75912 6.13727 10.8151 6.05604 10.902C5.83195 11.1373 5.84035 11.5098 6.07565 11.7339C6.08405 11.7423 6.08965 11.7479 6.09805 11.7535C6.35576 11.9776 6.74511 11.958 6.98321 11.7115L6.98433 11.7104C7.03607 11.6574 8.69526 9.96044 11.8263 9.92719C11.8599 9.92439 14.8011 9.79273 16.6947 11.8403C16.8207 11.9748 16.9888 12.042 17.1625 12.042C17.3137 12.042 17.4622 11.9916 17.5826 11.888ZM16.3193 13.7171C16.5686 13.507 16.5994 13.1345 16.3894 12.8852C16.3837 12.8768 16.3781 12.8712 16.3697 12.8628L16.3697 12.8628C14.6246 10.9804 11.888 11.0644 11.7927 11.0728C9.01402 11.1037 7.38377 12.8151 7.31654 12.888C7.09525 13.1233 7.10365 13.4958 7.34175 13.7171C7.34595 13.7199 7.34945 13.7234 7.35295 13.7269C7.35646 13.7304 7.35996 13.7339 7.36416 13.7367C7.479 13.8375 7.63026 13.8936 7.78433 13.8936C7.95519 13.8936 8.12326 13.8291 8.24651 13.6975L8.24733 13.6967C8.28741 13.6559 9.61626 12.3051 11.8235 12.2829L11.8271 12.2829C11.9303 12.2811 14.1161 12.2441 15.4342 13.6695C15.6667 13.9188 16.0616 13.9412 16.3193 13.7171ZM14.8964 14.7115C15.1064 14.958 15.0756 15.3305 14.8263 15.5406C14.5658 15.7619 14.1793 15.7423 13.9468 15.4958C13.1887 14.6743 11.9043 14.6911 11.8477 14.6919L11.8459 14.6919C10.5486 14.7057 9.79167 15.4658 9.74358 15.5141L9.74231 15.5154C9.61906 15.6471 9.44819 15.7115 9.28012 15.7115C9.12886 15.7115 8.9748 15.6611 8.85715 15.5546L8.84035 15.5378C8.60225 15.3137 8.58825 14.9412 8.81234 14.7031C8.85715 14.6555 9.95239 13.507 11.8095 13.4846C11.8684 13.4818 13.7003 13.4174 14.8767 14.6891C14.8795 14.6933 14.8831 14.6968 14.8866 14.7003C14.8901 14.7038 14.8936 14.7073 14.8964 14.7115ZM11.8964 18.6947C12.5994 18.6835 13.3081 18.2409 13.3081 17.2829C13.3081 16.3305 12.5994 15.888 11.8459 15.8684C11.8403 15.8656 11.7899 15.8656 11.7899 15.8656C11.0868 15.8712 10.3782 16.3109 10.3782 17.2773C10.3782 18.2465 11.0896 18.6835 11.7927 18.6947H11.8964Z" fill="#313235"/>
</svg>
