<svg width="24" height="24" viewBox="0 0 24 24" fill="none" xmlns="http://www.w3.org/2000/svg">
<path fill-rule="evenodd" clip-rule="evenodd" d="M21.6862 6.23254C21.6862 5.44543 21.3977 4.97764 20.9103 4.97764L18.6358 4.97484V3.40342C18.6358 2.68353 18.0084 2.02527 17.3165 2.02527H6.38095C5.68907 2.02527 5.06162 2.68353 5.06162 3.40342V4.97764H2.78152C2.29412 4.97764 2.00281 5.44543 2.00281 6.23254V20.4594C2.00281 21.2465 2.29412 21.7143 2.78152 21.7143H9.42296H20.9103C21.3949 21.7143 21.6862 21.2437 21.6862 20.4594V6.23254ZM13.6694 20.5098H10.0224V14.5659H13.6694V20.5098ZM6.2577 3.40622V20.5098H8.82352V13.9636C8.82352 13.6303 9.09243 13.3614 9.42296 13.3614H14.2689C14.5994 13.3614 14.8683 13.6303 14.8683 13.9636V20.5098H17.4341V3.40622C17.4341 3.33899 17.3473 3.24375 17.3025 3.23255H6.37815C6.34173 3.24375 6.2577 3.33899 6.2577 3.40622ZM8.22128 8.66391C8.22128 8.95523 8.49859 9.19892 8.82352 9.19892H10.5742V10.9552C10.5742 11.2773 10.8235 11.5603 11.1064 11.5603H12.5854C12.8739 11.5603 13.1176 11.283 13.1176 10.9552L13.112 9.19892H14.8627C15.1821 9.19892 15.4706 8.94402 15.4706 8.66391V7.17932C15.4706 6.89921 15.1792 6.64431 14.8627 6.64431H13.112V4.89361C13.112 4.57428 12.8571 4.28297 12.5798 4.28297H11.1064C10.8235 4.28297 10.5742 4.56868 10.5742 4.89361V6.64991H8.82352C8.50139 6.64991 8.22128 6.89921 8.22128 7.18212V8.66391Z" fill="#313235"/>
</svg>
