<svg width="24" height="24" viewBox="0 0 24 24" fill="none" xmlns="http://www.w3.org/2000/svg">
<path fill-rule="evenodd" clip-rule="evenodd" d="M20.4161 4.5C21.1612 4.5 21.8363 5.08263 21.8363 5.72409V18.0406C21.8363 18.6793 21.1584 19.2647 20.4161 19.2647H3.56736C2.81386 19.2675 2.14999 18.6933 2.14999 18.0406L2.1528 5.72409C2.1528 5.07143 2.81666 4.5 3.57296 4.5H20.4161ZM21.0155 18.0406V5.72689C21.0155 5.59244 20.7438 5.33193 20.4161 5.33193H3.57016C3.23963 5.33193 2.97352 5.57003 2.97352 5.72689L2.97072 18.0434C2.97072 18.2003 3.23963 18.4384 3.57016 18.4384H20.4189C20.7438 18.4356 21.0155 18.1751 21.0155 18.0406ZM5.81946 8.86134C5.81946 8.17787 6.37128 7.62045 7.04915 7.62045C7.72702 7.62045 8.27885 8.17787 8.27885 8.86134C8.27885 9.54482 7.72702 10.1022 7.04915 10.1022C6.37128 10.1022 5.81946 9.54762 5.81946 8.86134ZM7.04915 10.9342C5.9175 10.9342 4.99873 10.0042 4.99873 8.86415C4.99873 7.72409 5.9175 6.79412 7.04915 6.79412C8.18081 6.79412 9.09957 7.72409 9.09957 8.86415C9.09957 10.0042 8.18081 10.9342 7.04915 10.9342ZM19.6038 12.6765L16.3573 10.1695C16.206 10.0546 15.9987 10.0574 15.8531 10.1751L12.0015 13.2647L10.9763 12.2899C10.8279 12.1471 10.5926 12.1387 10.4329 12.2731L5.1556 16.7129C4.98193 16.8585 4.95672 17.119 5.10237 17.2955L5.10518 17.2983C5.24803 17.472 5.50574 17.4944 5.67941 17.3487L10.6794 13.1471L14.1864 16.4832L14.192 16.4888C14.3573 16.6401 14.6122 16.6317 14.7662 16.4664C14.9231 16.3011 14.9147 16.0378 14.7494 15.881L12.6066 13.8417L16.1136 11.0238L19.108 13.3347L19.1108 13.3375C19.2901 13.4748 19.5478 13.4384 19.6822 13.2591C19.8195 13.077 19.783 12.8165 19.6038 12.6765Z" fill="#313235"/>
</svg>
