<svg width="24" height="24" viewBox="0 0 24 24" fill="none" xmlns="http://www.w3.org/2000/svg">
<path fill-rule="evenodd" clip-rule="evenodd" d="M20.2452 4.52246C21.0771 4.52246 21.8362 5.18633 21.8362 5.91462V17.895C21.8362 18.6233 21.0771 19.2871 20.2452 19.2871H3.74103C2.87828 19.2871 2.14999 18.6485 2.14999 17.895V5.91462C2.14999 5.16112 2.87828 4.52246 3.74103 4.52246H20.2452ZM20.2452 18.0799C20.4385 18.0799 20.6121 17.9342 20.6346 17.8726L20.6318 5.91742C20.6121 5.881 20.4385 5.73534 20.248 5.73534H3.74103C3.53094 5.73534 3.37688 5.867 3.35447 5.92582V17.8978C3.36848 17.9426 3.52534 18.0799 3.74103 18.0799H20.2452ZM6.14719 8.96783C6.14719 8.41321 6.59817 7.96223 7.14999 7.96223C7.70461 7.96223 8.15279 8.41321 8.15279 8.96783C8.15279 9.52245 7.70181 9.97343 7.14999 9.97343C6.59817 9.97343 6.14719 9.52245 6.14719 8.96783ZM7.14999 11.1835C5.9315 11.1835 4.93991 10.1891 4.93991 8.96783C4.93991 7.74655 5.9315 6.75215 7.14999 6.75215C8.36847 6.75215 9.35726 7.74655 9.35726 8.96783C9.35726 10.1891 8.36847 11.1835 7.14999 11.1835ZM19.5701 12.5196L16.3909 10.0799C16.1696 9.91181 15.8643 9.91461 15.6486 10.0855L12.0127 12.9846L11.1332 12.1555C10.9119 11.9454 10.5673 11.9342 10.3349 12.1303L5.1668 16.4468C4.91189 16.6597 4.87548 17.0406 5.08836 17.2983C5.20881 17.444 5.37968 17.5168 5.55335 17.5168C5.6878 17.5168 5.82506 17.472 5.9371 17.3768L10.6962 13.402L14.0043 16.5252C14.2452 16.7549 14.629 16.7465 14.8559 16.5C15.0855 16.2563 15.0715 15.8726 14.8306 15.6457L12.8979 13.8222L16.0295 11.3264L18.8362 13.4804C19.1023 13.6849 19.4805 13.6317 19.6822 13.3684C19.8839 13.1023 19.8334 12.7241 19.5701 12.5196Z" fill="#313235"/>
</svg>
