<svg width="24" height="24" viewBox="0 0 24 24" fill="none" xmlns="http://www.w3.org/2000/svg">
<path fill-rule="evenodd" clip-rule="evenodd" d="M17.8515 7.83325C19.0252 7.83885 20 8.21981 20.6695 8.93689C21.3389 9.65398 21.6891 10.6932 21.6863 11.9453C21.6807 14.5083 20.2465 16.0349 17.8487 16.0349H17.8319C15.7983 16.0293 12.9524 13.78 11.8432 12.7968C10.7339 13.7828 7.88798 16.0293 5.85437 16.0349H5.83756C3.44261 16.0349 2.00844 14.5055 2.00003 11.9453C1.99723 10.6932 2.34737 9.65398 3.01404 8.93689C3.6835 8.21981 4.65829 7.83605 5.83196 7.83325H5.84036C7.87958 7.83325 10.7339 10.0853 11.8432 11.0713C12.9524 10.0853 15.8095 7.83325 17.8431 7.83325H17.8515ZM17.8487 14.7352H17.8347C16.3726 14.7296 13.916 12.9425 12.7619 11.9341C13.9188 10.9229 16.381 9.13017 17.8459 9.13017H17.8515C18.7059 9.13297 19.3642 9.37387 19.8067 9.85006C20.2493 10.3262 20.4706 11.0293 20.4706 11.9397C20.4622 13.7716 19.5574 14.7352 17.8487 14.7352ZM5.85157 14.7352H5.83756C4.12888 14.7352 3.22412 13.7688 3.21852 11.9425C3.21572 11.0293 3.43981 10.3262 3.88238 9.85286C4.32496 9.37667 4.98042 9.13577 5.83756 9.13297H5.84316C7.31095 9.13297 9.77313 10.9257 10.9272 11.9369C9.77313 12.9425 7.31655 14.7296 5.85157 14.7352Z" fill="#313235"/>
</svg>
