<svg width="24" height="24" viewBox="0 0 24 24" fill="none" xmlns="http://www.w3.org/2000/svg">
<path fill-rule="evenodd" clip-rule="evenodd" d="M3.22969 15.2912C3.22969 9.41728 6.0252 6.56014 11.7787 6.56014C12.1092 6.56014 12.3809 6.28563 12.3781 5.9467C12.3781 5.60776 12.1064 5.33325 11.7759 5.33325C5.39775 5.33325 2.02521 8.77582 2.02521 15.2912C2.02521 15.6302 2.29412 15.9047 2.62745 15.9047C2.96078 15.9047 3.22969 15.6302 3.22969 15.2912ZM12.4286 15.3809C12.4286 14.8683 12.1372 14.6302 11.6891 14.6302C11.2409 14.6302 10.9496 14.8683 10.9496 15.3809C10.9496 15.6274 11.0168 15.8094 11.1372 15.9327C11.2661 16.0671 11.4566 16.1316 11.6891 16.1316C11.9216 16.1316 12.112 16.0671 12.2409 15.9327C12.3613 15.8094 12.4286 15.6274 12.4286 15.3809ZM12.3613 9.26322C12.3613 9.60215 12.0924 9.87666 11.7591 9.87666C8.16806 9.87666 6.42296 11.661 6.42296 15.3276C6.42296 15.6666 6.15405 15.9411 5.82072 15.9411C5.49019 15.9411 5.21848 15.6666 5.21848 15.3276C5.21848 10.9579 7.47898 8.64977 11.7591 8.64977C12.0924 8.64977 12.3613 8.92428 12.3613 9.26322ZM20.5126 13.8655V16.8066C20.5126 16.8907 20.4509 16.9579 20.3781 16.9579H19.6386V13.717H20.3865C20.4538 13.7282 20.5098 13.7954 20.5126 13.8655ZM18.1092 18.0503C18.2913 18.0503 18.4454 17.8879 18.4454 17.7002V17.5713H18.4369V13.0055C18.4369 12.815 18.2829 12.6554 18.1008 12.6554H12.2801C10.6442 12.7086 9.84032 13.5881 9.84032 15.35C9.84032 17.1063 10.6442 17.9915 12.2997 18.0531H18.1092V18.0503ZM21.7143 13.8542C21.7002 13.1007 21.0952 12.4901 20.3669 12.4901H19.5546C19.3473 11.8711 18.7731 11.4257 18.1008 11.4257H12.2605C9.95797 11.5013 8.63864 12.9299 8.63864 15.3472C8.63864 17.759 9.95517 19.1932 12.2577 19.2772H18.1092C18.7927 19.2772 19.3725 18.8178 19.5714 18.1848H20.3753C21.112 18.1848 21.7143 17.5657 21.7143 16.8066V13.8542Z" fill="#313235"/>
</svg>
