<svg width="24" height="24" viewBox="0 0 24 24" fill="none" xmlns="http://www.w3.org/2000/svg">
<path fill-rule="evenodd" clip-rule="evenodd" d="M14.07 2.85438C13.535 2.44542 12.9691 2.18491 12.3837 2.07287H12.3809V2.01685C15.2689 2.10368 17.535 2.916 19.1176 4.44261C20.0952 5.38939 20.8039 6.59387 21.2352 8.05045H17.0195C16.7506 6.9356 16.3641 5.91039 15.8683 5.02244C15.3557 4.09807 14.7506 3.36978 14.07 2.85438ZM7.56579 5.02244C7.06999 5.91039 6.68343 6.9356 6.41453 8.05045H2.51538C2.94675 6.59387 3.65263 5.38659 4.63302 4.44261C6.19604 2.93561 8.42573 2.12049 11.2661 2.01965V2.03925C10.605 2.12609 9.96634 2.3978 9.3641 2.85438C8.68623 3.36978 8.08119 4.10087 7.56579 5.02244ZM21.3921 15.1177C21.6246 14.1373 21.7394 13.056 21.7394 11.874C21.7394 10.9048 21.661 10.0028 21.5041 9.16809H17.2464C17.3893 10.0616 17.4621 10.9664 17.4621 11.8712C17.4649 12.9608 17.3613 14.0476 17.1512 15.1177H21.3921ZM7.56859 8.05045C7.80668 7.14008 8.13441 6.30255 8.54057 5.57426C9.30248 4.20732 10.2549 3.37539 11.2633 3.18211V8.05045H7.56859ZM15.6862 16.3193C15.4817 16.9608 15.2184 17.5798 14.8935 18.1709C14.1848 19.4398 13.3137 20.2465 12.3837 20.5126V16.3193H15.6862ZM11.2633 20.5602V16.3165H7.75066C7.95234 16.958 8.21845 17.5798 8.54338 18.1681C9.30248 19.535 10.2549 20.3697 11.2633 20.5602ZM6.18764 9.16809C6.04478 10.0616 5.97475 10.9664 5.97475 11.8712C5.97195 12.9608 6.07559 14.0476 6.28568 15.1177H2.36132C2.12882 14.1373 2.01398 13.056 2.01398 11.874C2.01678 10.902 2.09521 10.0028 2.24927 9.16809H6.18764ZM11.2633 9.17089H7.32489C7.17083 10.0644 7.0952 10.9664 7.0952 11.874C7.0924 12.9636 7.20444 14.0532 7.43133 15.1205H11.2633V9.17089ZM12.3837 3.23253C13.3137 3.49583 14.1848 4.30536 14.8935 5.57426C15.2997 6.30255 15.6274 7.14008 15.8655 8.05045H12.3837V3.23253ZM16.1092 9.17089H12.3837V15.1177H16.0027C16.2296 14.0504 16.3417 12.9636 16.3389 11.8712C16.3417 10.9664 16.2632 10.0616 16.1092 9.17089ZM9.3613 20.8908C9.96354 21.3473 10.6022 21.6218 11.2633 21.7059V21.7227C8.42573 21.6218 6.19604 20.8095 4.63302 19.3025C3.79549 18.4986 3.15963 17.4986 2.72266 16.3165H6.57699C6.83189 17.1933 7.16243 18.0028 7.56298 18.7227C8.07839 19.6443 8.68343 20.3753 9.3613 20.8908ZM16.8543 16.3165C16.5994 17.1905 16.2716 18.0028 15.8683 18.7227C15.3557 19.6443 14.7478 20.3753 14.07 20.8908C13.5322 21.2969 12.9691 21.5602 12.3837 21.6723V21.7283C15.2717 21.6443 17.535 20.8291 19.1176 19.3053C19.9523 18.4986 20.5938 17.5014 21.0307 16.3193H16.8543V16.3165Z" fill="#313235"/>
</svg>
