<svg width="24" height="24" viewBox="0 0 24 24" fill="none" xmlns="http://www.w3.org/2000/svg">
<path fill-rule="evenodd" clip-rule="evenodd" d="M11.7507 6.56014C6.00003 6.56014 3.20172 9.41448 3.20172 15.2912C3.20452 15.6273 2.93562 15.9019 2.60228 15.9047C2.26615 15.9019 1.99724 15.6273 2.00004 15.2912C2.00004 8.77582 5.37258 5.33325 11.7507 5.33325C12.0869 5.33605 12.3558 5.61056 12.353 5.9467C12.3558 6.28283 12.0869 6.55734 11.7507 6.56014ZM12.3334 9.26322C12.3362 9.59935 12.0672 9.87386 11.7339 9.87666C8.14289 9.87666 6.39779 11.661 6.39779 15.3276C6.40059 15.6638 6.13449 15.9383 5.79835 15.9411H5.79555C5.45942 15.9383 5.19051 15.6638 5.19331 15.3276V15.3248C5.19331 10.9551 7.45381 8.64697 11.7339 8.64697C12.0672 8.65537 12.3362 8.92988 12.3334 9.26322ZM20.4846 13.8654V16.8066C20.4846 16.8906 20.423 16.9579 20.3473 16.9579H19.6106V13.717H20.3585C20.4286 13.731 20.4818 13.7926 20.4846 13.8654ZM20.3361 12.4901C21.0644 12.4901 21.6695 13.1007 21.6863 13.8542V16.8066C21.6863 17.5657 21.084 18.1848 20.3473 18.1848H19.5434C19.3445 18.8178 18.7647 19.2772 18.0812 19.2772H12.2297C9.93 19.1932 8.61067 17.759 8.61067 15.3472C8.61067 12.9299 9.93 11.5013 12.2325 11.4257H18.0728C18.7451 11.4257 19.3165 11.8711 19.5266 12.4901H20.3361ZM10.9216 15.3808C10.9216 14.8682 11.2129 14.6302 11.6611 14.6302C12.1093 14.6302 12.4006 14.8682 12.4006 15.3808C12.4006 15.6273 12.3334 15.8094 12.2129 15.9327C12.0841 16.0671 11.8936 16.1315 11.6611 16.1315C11.4286 16.1315 11.2381 16.0671 11.1093 15.9327C10.9888 15.8094 10.9216 15.6273 10.9216 15.3808Z" fill="#313235"/>
</svg>
