<svg width="24" height="24" viewBox="0 0 24 24" fill="none" xmlns="http://www.w3.org/2000/svg">
<path fill-rule="evenodd" clip-rule="evenodd" d="M5.61761 21.6918H17.9145C18.5027 21.6918 19.0209 21.1736 19.0209 20.5854V7.74228C19.0209 7.58822 18.9593 7.44257 18.8473 7.33612L13.3851 2.15406C13.2815 2.05602 13.1414 2 12.9985 2H5.61761C5.04898 2 4.51117 2.53781 4.51117 3.10644V20.5854C4.51117 21.1736 5.02938 21.6918 5.61761 21.6918ZM17.8949 20.5714H5.64562C5.64002 20.5686 5.63442 20.563 5.63162 20.5602V3.14285C5.63722 3.13445 5.64562 3.12605 5.65402 3.12045H12.1582V5.55742C12.1582 6.5126 12.4775 7.33332 13.0742 7.93276C13.6708 8.5322 14.4943 8.84873 15.4495 8.84873H17.9005V20.5658L17.8949 20.5714ZM13.2787 5.55742V3.59875L17.6318 7.72828H15.4495C14.7997 7.72828 14.2506 7.5238 13.8669 7.14005C13.4831 6.75629 13.2787 6.21008 13.2787 5.55742ZM15.3095 12.6722H8.20864C7.90052 12.6722 7.64842 12.4201 7.64842 12.112C7.64842 11.8039 7.90052 11.5518 8.20864 11.5518H15.3095C15.6176 11.5518 15.8697 11.8039 15.8697 12.112C15.8697 12.4201 15.6176 12.6722 15.3095 12.6722ZM8.20864 15.6778H15.3095C15.6176 15.6778 15.8697 15.4257 15.8697 15.1176C15.8697 14.8095 15.6176 14.5574 15.3095 14.5574H8.20864C7.90052 14.5574 7.64842 14.8095 7.64842 15.1176C7.64842 15.4257 7.90052 15.6778 8.20864 15.6778ZM8.20864 18.6806H15.3095C15.6176 18.6806 15.8697 18.4285 15.8697 18.1204C15.8697 17.8123 15.6176 17.5602 15.3095 17.5602H8.20864C7.90052 17.5602 7.64842 17.8123 7.64842 18.1204C7.64842 18.4285 7.90052 18.6806 8.20864 18.6806Z" fill="#313235"/>
</svg>
