<svg width="24" height="24" viewBox="0 0 24 24" fill="none" xmlns="http://www.w3.org/2000/svg">
<path fill-rule="evenodd" clip-rule="evenodd" d="M11.9142 7.0649C10.6373 7.0649 9.59998 5.96553 9.59998 4.606C9.59998 3.24648 10.6373 2.1499 11.9142 2.1499C13.1912 2.1499 14.2259 3.24927 14.2259 4.6088C14.2259 5.96833 13.1912 7.0649 11.9142 7.0649ZM11.9142 14.4388C10.6373 14.4388 9.59998 13.3394 9.59998 11.9799C9.59998 10.6204 10.6347 9.521 11.9142 9.521C13.1912 9.521 14.2259 10.6204 14.2259 11.9799C14.2259 13.3394 13.1912 14.4388 11.9142 14.4388ZM9.59998 19.3538C9.59998 20.7105 10.6373 21.8099 11.9142 21.8099C13.1912 21.8099 14.2259 20.7133 14.2259 19.3538C14.2259 17.9943 13.1912 16.8949 11.9142 16.8949C10.6347 16.8949 9.59998 17.9971 9.59998 19.3538Z" fill="#313235"/>
</svg>
