<svg width="24" height="24" viewBox="0 0 24 24" fill="none" xmlns="http://www.w3.org/2000/svg">
<path fill-rule="evenodd" clip-rule="evenodd" d="M21.7315 12.25C21.8911 12.0792 21.8827 11.8131 21.7119 11.6562L19.7371 9.80186C19.6586 9.73184 19.5578 9.68982 19.4514 9.68982H9.8127C9.34211 8.82147 8.34491 7.8999 6.24127 7.8999C3.60821 7.8999 2.16003 9.35649 2.16003 12.0007C2.16003 14.645 3.60821 16.1016 6.24127 16.1016C7.98917 16.1016 9.21045 15.5049 9.77348 14.3789C9.78135 14.3616 9.79187 14.3381 9.80405 14.3109C9.81355 14.2897 9.82406 14.2662 9.8351 14.2416H14.4822C14.6194 14.2416 14.7455 14.1744 14.8239 14.0624L15.625 12.9055L16.527 14.0792C16.6054 14.194 16.7399 14.2556 16.8771 14.2416C17.0144 14.236 17.1376 14.1604 17.2105 14.0456L17.9415 12.8663L19.1908 14.1184C19.3505 14.2781 19.6082 14.2837 19.7735 14.1268L21.7147 12.2668L21.7315 12.25ZM19.4934 13.2332L20.8183 11.9643L19.2861 10.5274H9.55499C9.38973 10.5274 9.24127 10.4293 9.17404 10.2781C8.71466 9.24164 7.75387 8.73744 6.24127 8.73744C4.05639 8.73744 2.99477 9.80466 2.99477 11.9979C2.99477 14.194 4.05639 15.2612 6.24127 15.2612C7.66984 15.2612 8.60821 14.8355 9.02838 13.9979C9.0704 13.9167 9.16844 13.6646 9.16844 13.6646C9.23006 13.5049 9.38412 13.3985 9.55779 13.3985H14.2665L15.2665 11.9531C15.3421 11.8439 15.4654 11.7767 15.5998 11.7739C15.7371 11.7514 15.8603 11.8299 15.9415 11.9363L16.8239 13.0848L17.5158 11.9699C17.6362 11.7739 17.8939 11.715 18.0872 11.8355C18.1152 11.8523 18.1404 11.8719 18.1628 11.8943C18.16 11.8971 19.4934 13.2332 19.4934 13.2332ZM7.27208 12.0007C7.27208 11.0372 6.69785 10.4601 5.73987 10.4601C4.78188 10.4629 4.20765 11.0372 4.20765 12.0007C4.20765 12.9615 4.78188 13.5386 5.73987 13.5386C6.70065 13.5386 7.27208 12.9643 7.27208 12.0007ZM6.43735 12.0007C6.43735 12.5049 6.24127 12.701 5.73987 12.701C5.23847 12.701 5.04239 12.5049 5.04239 12.0007C5.04239 11.4965 5.23847 11.3005 5.73987 11.3005C6.24127 11.3005 6.43735 11.4965 6.43735 12.0007Z" fill="#313235"/>
</svg>
