<svg width="24" height="24" viewBox="0 0 24 24" fill="none" xmlns="http://www.w3.org/2000/svg">
<path fill-rule="evenodd" clip-rule="evenodd" d="M2.94552 16.2465C3.48053 16.7815 4.28165 17.0532 5.32086 17.0532C5.32086 17.0532 18.6626 17.0448 18.6626 17.0476C19.7018 17.0476 20.5029 16.7759 21.0407 16.2409C21.5561 15.7255 21.8194 14.9776 21.8194 14.0196V8.0028C21.8194 7.04482 21.5561 6.30252 21.0379 5.79272C20.5029 5.26611 19.7046 5 18.6626 5L5.32086 5.0056C4.28165 5.0056 3.48053 5.27171 2.94552 5.79552C2.42731 6.30532 2.16401 7.04762 2.16401 8.0056V14.0252C2.16401 14.986 2.42731 15.7311 2.94552 16.2465ZM11.7438 12.042L10.7634 12.1709C10.6878 12.1765 10.6178 12.1541 10.573 12.0924C10.5281 12.0392 10.5169 11.9636 10.5449 11.8991L11.769 9.05041C11.8082 8.96358 11.9035 8.91316 11.9987 8.93277C12.094 8.94957 12.164 9.03361 12.164 9.12885L12.1444 10.7983L13.2228 10.6555C13.2956 10.6471 13.3685 10.6751 13.4133 10.7311C13.4581 10.7871 13.4693 10.8627 13.4385 10.9272L12.1332 13.8179C12.0996 13.8907 12.0267 13.9356 11.9455 13.9356H11.9399C11.8307 13.9384 11.741 13.8487 11.741 13.7395L11.7438 12.042ZM9.83346 9.15406C9.83346 8.84313 9.90629 8.62464 10.0548 8.47899C10.206 8.33333 10.4357 8.2605 10.7634 8.2605H13.2256C13.5561 8.2605 13.7886 8.33053 13.9371 8.47338C14.0856 8.61344 14.1556 8.83473 14.1556 9.15125V13.8795C14.1556 14.1989 14.0828 14.423 13.9371 14.563C13.7886 14.7031 13.5561 14.7703 13.2284 14.7703H10.7662C10.4357 14.7703 10.2032 14.7031 10.0576 14.563C9.90909 14.423 9.83626 14.1989 9.83626 13.8795C9.83346 13.8795 9.83346 9.15406 9.83346 9.15406ZM11.5113 7.33893C11.4777 7.33893 11.3965 7.34173 11.3685 7.36974C11.3405 7.39495 11.3377 7.46498 11.3377 7.507V7.67507H12.6486V7.507C12.6486 7.42577 12.6346 7.38375 12.6178 7.36974C12.5982 7.35014 12.5449 7.33893 12.4721 7.33893H11.5113ZM10.7606 15.3585H13.2228C13.7242 15.3585 14.0968 15.2353 14.3629 14.9804C14.6346 14.7227 14.7662 14.3613 14.7662 13.8767V9.15406C14.7662 8.67506 14.6346 8.31652 14.3685 8.05882C14.108 7.80672 13.741 7.68067 13.2592 7.67507V7.5042C13.2592 7.27171 13.1892 7.08403 13.0491 6.94958C12.9091 6.81512 12.713 6.7479 12.4693 6.7479H11.5085C11.2648 6.7479 11.0688 6.81512 10.9259 6.95238C10.7886 7.08963 10.7186 7.27451 10.7186 7.5042V7.67507C10.2396 7.68067 9.87548 7.80672 9.61217 8.06442C9.34607 8.32493 9.21442 8.68067 9.21442 9.15406V13.8795C9.21442 14.3641 9.34607 14.7255 9.61497 14.9832C9.88668 15.2353 10.262 15.3585 10.7606 15.3585ZM21.8362 18.3557C21.8362 18.028 21.5617 17.7647 21.2228 17.7647H2.76344C2.42451 17.7647 2.15 18.0308 2.15 18.3557C2.15 18.6807 2.42451 18.944 2.76625 18.944H21.2228C21.5617 18.944 21.8362 18.6807 21.8362 18.3557Z" fill="#313235"/>
</svg>
