<svg width="24" height="24" viewBox="0 0 24 24" fill="none" xmlns="http://www.w3.org/2000/svg">
<path fill-rule="evenodd" clip-rule="evenodd" d="M20.93 10.6009C21.4118 10.8474 21.7143 11.3432 21.7143 11.8866C21.7143 12.4272 21.409 12.923 20.9188 13.1639L20.2381 13.5113L20.9244 13.8614C21.4062 14.1079 21.7087 14.6037 21.7087 15.1471C21.7087 15.6905 21.4034 16.1863 20.9216 16.43L12.437 20.7326C12.2353 20.8362 12.014 20.8866 11.7927 20.8866C11.5686 20.8866 11.3445 20.8362 11.14 20.7298L2.80111 16.4272C2.32212 16.1807 2.0224 15.6877 2.0224 15.1499C2.0224 14.6121 2.31932 14.1163 2.79551 13.8698L3.47898 13.5141L2.80111 13.1639C2.32212 12.9174 2.0224 12.4272 2.0224 11.8866C2.0224 11.346 2.31932 10.853 2.79551 10.6065L3.47898 10.2508L2.80111 9.90062C2.32212 9.65412 2.0224 9.16112 2.0224 8.62331C2.0224 8.08549 2.31932 7.5897 2.79551 7.3432L11.1344 3.00426C11.3417 2.89502 11.5658 2.8418 11.7927 2.8418C12.0168 2.8418 12.2381 2.89502 12.4426 2.99866L20.9272 7.33759C21.409 7.58409 21.7115 8.07989 21.7115 8.62331C21.7115 9.16673 21.4062 9.66253 20.9244 9.90622L20.2437 10.2508L20.93 10.6009ZM11.7983 4.28157L20.2829 8.62051L11.7983 12.9258L3.45937 8.62051L11.7983 4.28157ZM3.45937 11.8838L11.7983 16.1863L20.2829 11.8866L18.6611 11.0547L12.4426 14.2087C12.2409 14.3096 12.0196 14.3628 11.7983 14.3628C11.5742 14.3628 11.3501 14.3096 11.1456 14.2031L5.04761 11.0547L3.45937 11.8838ZM11.7983 19.4468L20.2829 15.1443L18.6611 14.3152L12.4426 17.4692C12.2409 17.5701 12.0196 17.6233 11.7983 17.6233C11.5742 17.6233 11.3501 17.5701 11.1456 17.4636L5.04761 14.318L3.45937 15.1443L11.7983 19.4468Z" fill="#313235"/>
</svg>
