<svg width="24" height="24" viewBox="0 0 24 24" fill="none" xmlns="http://www.w3.org/2000/svg">
<path fill-rule="evenodd" clip-rule="evenodd" d="M20.7982 10.332C21.3416 10.6597 21.6862 11.2423 21.6862 11.8838C21.6862 12.5252 21.3388 13.1023 20.7982 13.4272C21.3416 13.7577 21.6862 14.3375 21.6862 14.9818C21.6862 15.6681 21.2996 16.2955 20.6862 16.6036L12.5938 20.6905C12.3361 20.8221 12.056 20.8865 11.7759 20.8865C11.4901 20.8865 11.2044 20.8193 10.9439 20.6849L2.99159 16.6008C2.38655 16.2899 2.0056 15.6653 2.0028 14.9846C1.99999 14.3403 2.34453 13.7605 2.88795 13.43C2.34733 13.1023 2.0056 12.5224 2.0028 11.8838C1.99999 11.2451 2.34453 10.6597 2.88795 10.332C2.34733 10.007 2.0056 9.4272 2.0028 8.78855C2.0028 8.10508 2.38095 7.48043 2.98598 7.16671L10.9383 3.04628C11.2016 2.90902 11.4901 2.8418 11.7759 2.8418C12.0588 2.8418 12.3417 2.90902 12.5994 3.04068L20.6918 7.16111C21.3024 7.47203 21.689 8.10228 21.6862 8.78855C21.6862 9.4272 21.3388 10.007 20.7982 10.332ZM19.8655 8.78295L11.7731 4.66252L3.82071 8.78295L11.7731 12.867L19.8655 8.78295ZM3.82071 14.979L11.7731 19.0658L19.8683 14.979L18.8234 14.4468L12.5938 17.5924C12.3361 17.7241 12.056 17.7885 11.7759 17.7885C11.4901 17.7885 11.2044 17.7185 10.9439 17.5868L4.84032 14.4524L3.82071 14.979ZM3.82071 11.881L4.84032 11.3544L10.9439 14.4916C11.2044 14.6261 11.4901 14.6933 11.7759 14.6933C12.056 14.6933 12.3361 14.6289 12.5938 14.4972L18.8234 11.3516L19.8683 11.8838L11.7759 15.9706L3.82071 11.881Z" fill="#313235"/>
</svg>
