<svg width="24" height="24" viewBox="0 0 24 24" fill="none" xmlns="http://www.w3.org/2000/svg">
<path fill-rule="evenodd" clip-rule="evenodd" d="M8.56831 4.13005C8.56895 4.13187 8.56895 4.13393 8.56895 4.1375C8.75943 4.68372 9.46531 5.1571 10.625 5.50444C11.8519 5.87979 13.4709 6.07867 15.188 6.07867C16.9135 6.07867 18.5241 5.87979 19.751 5.50444C20.8883 5.16551 21.5857 4.70613 21.793 4.17671C21.793 4.16831 21.8014 4.15991 21.8014 4.15991C21.653 3.58848 20.9639 3.10669 19.7454 2.73414C18.5241 2.36719 16.9079 2.15991 15.1824 2.15991C13.4653 2.15991 11.8379 2.36719 10.611 2.73414C9.45691 3.09268 8.75103 3.57447 8.56055 4.12069C8.56538 4.12552 8.56744 4.12758 8.56831 4.13005ZM14.3533 12.2915L8.88548 14.7313L8.51013 14.5632L3.4009 12.314L8.86027 9.88258L8.86867 9.87418L11.3084 10.9442L14.1796 12.2159H14.188L14.3533 12.2915ZM12.5437 16.3083L12.5858 14.44L9.71461 15.7173L9.37567 15.8686C9.21601 15.9442 9.04234 15.9778 8.87708 15.9778C8.70341 15.9778 8.53814 15.9442 8.37288 15.8686L5.26084 14.482V16.2523L5.27475 16.2556C5.52033 16.3135 5.78985 16.3771 6.06476 16.4596C6.45411 16.5688 6.86868 16.7089 7.28324 16.8826C7.70621 17.0674 8.12918 17.2803 8.51293 17.5464C8.53518 17.5642 8.55665 17.5765 8.57942 17.5896L8.57943 17.5896C8.59964 17.6012 8.62087 17.6133 8.64458 17.6305C8.6866 17.6557 8.72862 17.6809 8.76783 17.7145C8.86867 17.7901 9.00033 17.7901 9.09276 17.7145C9.31685 17.5408 9.55775 17.3896 9.80705 17.2579C10.0059 17.1487 10.2132 17.0422 10.4289 16.9498C10.9835 16.7089 11.5577 16.5268 12.0619 16.4092C12.0872 16.4008 12.104 16.4008 12.1292 16.4008C12.1964 16.384 12.2692 16.3672 12.3449 16.3504C12.4093 16.3336 12.4765 16.3167 12.5437 16.3083ZM15.1908 11.3448C16.9163 11.3448 18.5353 11.1515 19.7538 10.7789C20.9639 10.412 21.6277 9.85737 21.8462 9.44001V5.49604C21.3981 5.85178 20.7846 6.1431 20.0031 6.37559C18.7034 6.76494 16.9863 6.98063 15.1852 6.98063C13.3841 6.98063 11.6754 6.76494 10.3645 6.37559C9.56895 6.1431 8.95551 5.83497 8.50733 5.47923V8.70051C8.46096 8.70824 8.42406 8.72308 8.38575 8.73849C8.3824 8.73983 8.37905 8.74118 8.37568 8.74253L2.89109 11.1851C2.44292 11.384 2.16 11.8154 2.16 12.314C2.16 12.8041 2.44292 13.2355 2.89109 13.4344L4.01154 13.933V16.2579C4.01154 16.8882 4.46812 17.426 5.08997 17.5436C5.94431 17.6949 7.13198 18.017 7.99473 18.6893C8.15159 18.8153 8.32806 18.8966 8.51013 18.947V19.5856C8.51013 20.2831 9.21321 20.8574 10.6082 21.2803C11.8435 21.6473 13.4709 21.8545 15.1796 21.8545C16.8883 21.8545 18.5129 21.6445 19.7426 21.2803C21.1348 20.8574 21.849 20.2831 21.849 19.5856V16.0394C21.3672 16.4036 20.7454 16.7201 20.0059 16.9358C18.7146 17.3335 16.9947 17.5492 15.188 17.5492C14.4513 17.5492 13.7454 17.4988 13.0563 17.4316C13.4149 17.2747 13.681 16.9666 13.7874 16.5941C14.244 16.6277 14.709 16.6529 15.1908 16.6529C16.9163 16.6529 18.5353 16.4456 19.7538 16.0786C20.9639 15.7061 21.6277 15.1487 21.8518 14.7341V10.7481C21.37 11.1123 20.7482 11.4204 20.0087 11.6361C18.807 12.0002 17.2384 12.2075 15.5717 12.2327C15.5549 11.877 15.3897 11.5605 15.1152 11.3448H15.1908Z" fill="#313235"/>
</svg>
