<svg width="24" height="24" viewBox="0 0 24 24" fill="none" xmlns="http://www.w3.org/2000/svg">
<path fill-rule="evenodd" clip-rule="evenodd" d="M14.936 2.15991C16.583 2.15991 18.146 2.35879 19.3393 2.72014C21.0032 3.22434 21.8463 4.01145 21.8435 5.05907V18.947C21.8435 19.9946 21.0004 20.7818 19.3393 21.286C18.1376 21.6473 16.5746 21.8462 14.9332 21.8462C13.2945 21.8462 11.7315 21.6473 10.5326 21.2888C8.86874 20.7846 8.0284 19.9974 8.0284 18.947V18.7005C8.00832 18.6901 7.98823 18.6806 7.96828 18.6711C7.91867 18.6476 7.86987 18.6244 7.82392 18.5885C6.94437 17.891 5.73708 17.5605 4.87714 17.4064C4.35893 17.314 3.98358 16.863 3.98358 16.3336V13.9022L2.75669 13.3532C2.38974 13.1879 2.16005 12.835 2.16005 12.4288C2.15725 12.0283 2.39255 11.6669 2.75669 11.5044L8.0312 9.14311V5.05907C8.0312 4.89381 8.05081 4.73134 8.09563 4.57448H8.09843C8.33092 3.76495 9.14885 3.1403 10.5354 2.72014C11.7287 2.35879 13.2917 2.15991 14.936 2.15991ZM10.7707 3.50725C11.8883 3.17112 13.3673 2.98344 14.936 2.98344C16.5046 2.98344 17.9836 3.17112 19.104 3.50725C20.2077 3.84058 20.8407 4.27756 20.992 4.80697C20.9902 4.81396 20.9863 4.81768 20.9822 4.82154C20.9798 4.82385 20.9773 4.82622 20.9752 4.82938C20.7903 5.31397 20.146 5.73694 19.1124 6.05067C17.9976 6.3868 16.5158 6.57448 14.9472 6.57448C13.3785 6.57448 11.8995 6.3868 10.7819 6.05067C9.72308 5.72854 9.07322 5.29437 8.90795 4.79297C8.90619 4.78769 8.90333 4.78352 8.90075 4.77976C8.89922 4.77753 8.89779 4.77544 8.89675 4.77336C9.06201 4.26635 9.70627 3.83218 10.7707 3.50725ZM3.09002 12.258C3.02 12.2888 2.97798 12.3504 2.97798 12.4288C2.97798 12.5044 3.02 12.5717 3.09002 12.5997L8.49059 15.0199C8.54101 15.0423 8.59703 15.0423 8.64465 15.0199L14.048 12.5997C14.118 12.5689 14.1601 12.5073 14.1601 12.4288C14.1601 12.3504 14.118 12.2888 14.048 12.2551L8.64745 9.83498C8.62224 9.82378 8.59423 9.81818 8.56902 9.81818C8.54381 9.81818 8.5186 9.82378 8.49339 9.83498L3.09002 12.258ZM5.0256 16.5997C4.89675 16.5773 4.80431 16.4652 4.80431 16.3364V14.2692L8.16005 15.7734C8.42056 15.8882 8.71748 15.8882 8.97798 15.7734L12.4458 14.2215V16.3392C12.4458 16.468 12.3533 16.5801 12.2245 16.6025C11.2721 16.7734 9.92756 17.1431 8.91355 17.947C8.74549 18.0815 8.50459 18.0815 8.33372 17.947C7.31972 17.1403 5.97238 16.7706 5.0256 16.5997ZM19.104 20.4988C17.9808 20.8378 16.499 21.0227 14.936 21.0227C13.3757 21.0227 11.8939 20.835 10.7735 20.4988C9.49619 20.1123 8.84913 19.5913 8.84913 18.9442V18.8266C9.05641 18.7958 9.25249 18.7117 9.41776 18.5857C10.2973 17.8882 11.5074 17.5577 12.3673 17.4036C12.639 17.3532 12.8799 17.1991 13.0396 16.975C13.6559 17.0367 14.2945 17.0731 14.9472 17.0731C16.597 17.0731 18.1573 16.8742 19.3477 16.5129C20.02 16.3084 20.5886 16.0227 21.0256 15.6865V18.9414C21.0284 19.5913 20.3813 20.1123 19.104 20.4988ZM10.5466 6.83778C9.82392 6.6193 9.26089 6.34198 8.84913 6.01425V9.06187C8.86856 9.06835 8.88858 9.07123 8.90865 9.07412C8.93199 9.07748 8.95539 9.08085 8.97798 9.08988L14.1096 11.3868C14.3869 11.398 14.6671 11.4064 14.95 11.4064C16.5186 11.4064 18.0004 11.2187 19.1152 10.8826C20.2245 10.5465 20.8211 10.0339 21.0284 9.64451V6.03106C20.6166 6.35039 20.0592 6.6221 19.3477 6.83778C18.1573 7.19913 16.597 7.39801 14.9472 7.39801C13.3001 7.39801 11.7371 7.19913 10.5466 6.83778ZM13.2637 13.8546L14.3841 13.3532C14.7511 13.1879 14.9808 12.835 14.9808 12.4288C14.9808 12.3588 14.9668 12.2916 14.9528 12.2243C16.6026 12.2243 18.1629 12.0255 19.3533 11.6669C20.0284 11.4624 20.597 11.1795 21.0312 10.8434V14.4988C20.8239 14.8854 20.2217 15.398 19.118 15.7341C18.0032 16.0703 16.5214 16.258 14.9528 16.258C14.3757 16.258 13.8127 16.2271 13.2637 16.1767V13.8546Z" fill="#313235"/>
</svg>
