<svg width="24" height="24" viewBox="0 0 24 24" fill="none" xmlns="http://www.w3.org/2000/svg">
<path fill-rule="evenodd" clip-rule="evenodd" d="M14.8715 2.15991C16.5017 2.15991 18.0564 2.36159 19.2384 2.72014C20.9695 3.24114 21.8435 4.08708 21.8435 5.22154V18.7902C21.8435 19.919 20.9695 20.765 19.2384 21.2916C18.0508 21.6417 16.4933 21.8434 14.8715 21.8434C13.2496 21.8434 11.7034 21.6445 10.5129 21.2916C8.78185 20.765 7.9079 19.919 7.9079 18.7902V18.6389C7.05916 17.9946 5.9107 17.6865 5.09558 17.5437C4.46252 17.4344 4.01435 16.8826 4.01435 16.2467V13.905L2.88269 13.4036C2.44292 13.2019 2.16 12.7566 2.16 12.272C2.16 11.7706 2.43451 11.3448 2.88269 11.1347L7.9079 8.8826V5.22154C7.9079 5.03946 7.93311 4.85459 7.98353 4.67812C8.23283 3.80977 9.08157 3.14871 10.5129 2.72014C11.695 2.36159 13.2412 2.15991 14.8715 2.15991ZM10.8687 3.91902C11.9415 3.59128 13.3645 3.41481 14.8687 3.41481C16.3841 3.41481 17.8071 3.59128 18.8799 3.91902C19.5466 4.1291 20.3197 4.46243 20.5354 4.94703C20.5017 5.03106 20.4513 5.10669 20.3757 5.18232C20.118 5.48484 19.5942 5.75935 18.8771 5.96944C17.8127 6.29717 16.3897 6.47084 14.8827 6.47084C13.3673 6.47084 11.9443 6.29437 10.8799 5.96944C10.4625 5.84339 10.1152 5.70053 9.84068 5.53526C9.51575 5.35879 9.30846 5.15151 9.21603 4.94142C9.38689 4.54647 9.96953 4.18512 10.8687 3.91902ZM20.5942 9.6361C20.4037 9.96383 19.8547 10.398 18.8883 10.6893C17.8323 11.0087 16.4429 11.1823 14.9695 11.1907C14.9506 11.1781 14.927 11.1655 14.9034 11.1529L14.9034 11.1529L14.8799 11.1403L9.38129 8.67252C9.30566 8.6389 9.23003 8.61369 9.1572 8.59689V6.58848C9.53255 6.81537 9.98073 7.01425 10.5213 7.17392C11.709 7.53246 13.258 7.72574 14.8883 7.72574C16.5101 7.72574 18.0564 7.53246 19.2468 7.17392C19.7791 7.01425 20.23 6.82098 20.5942 6.59689V9.6361ZM20.5942 14.37C20.4121 14.6893 19.8631 15.1319 18.8883 15.426C17.8155 15.7537 16.3925 15.9274 14.8883 15.9274C14.5466 15.9274 14.1964 15.919 13.8631 15.8938V13.8518L14.8799 13.4008C15.2777 13.2243 15.5466 12.8574 15.5942 12.4288C16.9583 12.3868 18.2412 12.1935 19.2468 11.8854C19.7538 11.7341 20.2104 11.5325 20.5942 11.2916V14.37ZM18.8799 20.0871C19.6642 19.8518 20.5942 19.4344 20.5942 18.7902H20.5914V16.0395C20.2076 16.272 19.751 16.4736 19.244 16.6333C18.062 16.9918 16.5073 17.1851 14.8855 17.1851C14.4205 17.1851 13.9611 17.1683 13.5129 17.1347C13.3309 17.342 13.0732 17.4932 12.7819 17.5437C11.9331 17.6921 10.7342 18.0199 9.87709 18.7061C9.66981 18.8658 9.43731 18.9666 9.19642 19.0171C9.38689 19.5353 10.1852 19.877 10.8687 20.0871C11.9471 20.4148 13.3701 20.5913 14.8687 20.5913C16.3757 20.5913 17.7987 20.4148 18.8799 20.0871ZM8.77065 17.7201C7.70622 16.8742 6.30006 16.4904 5.25804 16.2467V14.4652L8.37849 15.863C8.53535 15.9386 8.71182 15.9722 8.87709 15.9722C9.05356 15.9722 9.21883 15.9386 9.37849 15.863L12.5998 14.4232L12.5662 16.3056C11.5662 16.4904 10.1712 16.8742 9.10398 17.7201C9.00594 17.7958 8.87149 17.7958 8.77065 17.7201ZM8.87989 9.82098L3.3897 12.2888L8.8883 14.7145L14.3729 12.2551L8.87989 9.82098Z" fill="#313235"/>
</svg>
