<svg width="24" height="24" viewBox="0 0 24 24" fill="none" xmlns="http://www.w3.org/2000/svg">
<path fill-rule="evenodd" clip-rule="evenodd" d="M11.6698 2C11.9219 2 12.188 2.0056 12.4149 2.0112C14.342 2.05602 21.8462 2.81793 21.8462 11.8683C21.8462 20.9411 14.3336 21.647 12.4541 21.6806C12.272 21.6834 12.0675 21.6862 11.8602 21.6862H11.86C11.7565 21.6862 11.6529 21.6862 11.5521 21.6834C9.57733 21.6554 2.15997 20.9411 2.15997 11.8123C2.15997 2.69748 9.5073 2.01961 11.4821 2.0028C11.5437 2 11.6053 2 11.6698 2ZM11.6698 3.22969L11.4933 3.23249C11.1432 3.23529 10.7258 3.2577 10.272 3.31652L10.835 6.04201C11.1908 5.99159 11.4933 5.97758 11.695 5.97478H11.8042C11.9555 5.97478 12.1123 5.97758 12.2496 5.98039C12.4597 5.98599 12.7818 6.0056 13.1684 6.06722L13.7286 3.35854C13.2272 3.28571 12.765 3.2521 12.384 3.24089C12.1656 3.23529 11.9135 3.22969 11.6698 3.22969ZM9.05912 3.53781L9.63335 6.32212C8.41206 6.73389 7.06473 7.63024 6.45969 9.54901L3.70899 8.98038C4.54932 5.46498 6.95828 4.06722 9.05912 3.53781ZM3.4933 10.1961C3.43168 10.7031 3.38966 11.2325 3.38966 11.8123C3.38966 12.4678 3.44569 13.056 3.52132 13.619L6.22159 13.0616C6.16837 12.6807 6.13476 12.2717 6.13476 11.8263C6.13476 11.4426 6.15997 11.0896 6.20198 10.7563L3.4933 10.1961ZM3.75941 14.8235L6.51851 14.2549C7.10674 15.9524 8.29722 16.8319 9.42607 17.2689C9.47303 17.2867 9.51905 17.3008 9.56522 17.3149L9.56526 17.3149C9.59894 17.3252 9.6327 17.3355 9.66696 17.3473L9.09273 20.126C7.01151 19.5882 4.64456 18.2073 3.75941 14.8235ZM14.3392 17.3417L14.9135 20.1148C16.9975 19.5742 19.3728 18.1933 20.2524 14.8235L17.4961 14.2549C16.8658 16.0672 15.5353 16.9327 14.3392 17.3417ZM11.8602 20.4566C12.0619 20.4566 12.258 20.4538 12.4317 20.4509C12.793 20.4425 13.23 20.4117 13.7006 20.3529L13.1403 17.6358C12.7734 17.689 12.4681 17.7087 12.2692 17.7115C12.218 17.7115 12.1629 17.7121 12.1058 17.7128L12.1056 17.7128H12.1055H12.1055H12.1055H12.1055H12.1054H12.1054H12.1054C12.0439 17.7135 11.9801 17.7143 11.9163 17.7143C11.8546 17.7143 11.7902 17.7143 11.7314 17.7115C11.5269 17.7087 11.2188 17.689 10.8602 17.6386L10.2972 20.3585C10.7706 20.4201 11.2076 20.4481 11.5689 20.4538C11.6641 20.4566 11.7621 20.4566 11.86 20.4566H11.8602ZM12.2468 16.479C12.1488 16.4818 12.0339 16.4818 11.9191 16.4818L11.751 16.479C11.4541 16.4762 10.6726 16.4313 9.86864 16.1204C8.18237 15.4678 7.36445 14.0616 7.36445 11.8207C7.36445 7.83472 10.0815 7.21568 11.7034 7.20167H11.8014C11.9443 7.20167 12.0899 7.20447 12.2188 7.20727C16.2104 7.30251 16.6417 10.4902 16.6417 11.8571C16.6417 13.2241 16.2132 16.4089 12.2468 16.479ZM17.5241 9.55461L20.272 8.98878C19.4092 5.58543 17.0339 4.17086 14.9303 3.60504L14.3588 6.36974C15.5745 6.79551 16.9106 7.69467 17.5241 9.55461ZM20.6165 11.8683C20.6165 12.5014 20.5661 13.0728 20.4905 13.6162L17.7818 13.0588C17.8378 12.6863 17.8742 12.2941 17.8742 11.8599C17.8742 11.4622 17.8434 11.1008 17.7986 10.7563L20.5017 10.1989C20.5689 10.7199 20.6165 11.2661 20.6165 11.8683Z" fill="#313235"/>
</svg>
