<svg width="24" height="24" viewBox="0 0 24 24" fill="none" xmlns="http://www.w3.org/2000/svg">
<path fill-rule="evenodd" clip-rule="evenodd" d="M17.8219 11.2034C17.9675 11.237 18.0796 11.349 18.1216 11.4947C18.1636 11.6404 18.1244 11.7972 18.0179 11.9009L8.42691 21.716C8.34848 21.7972 8.24203 21.8392 8.13559 21.8392C8.05716 21.8392 7.98153 21.8168 7.9115 21.772C7.74904 21.6656 7.68461 21.4555 7.75464 21.2706L10.6286 13.8532L6.1524 12.758C6.00954 12.7244 5.8975 12.6123 5.85548 12.4695C5.81626 12.3266 5.85268 12.1698 5.95352 12.0633L15.1636 2.29301C15.3009 2.14735 15.5165 2.12494 15.6818 2.23139C15.8471 2.34063 15.9115 2.55352 15.8387 2.73839L12.9395 10.0129L17.8219 11.2034ZM11.5642 13.716L9.24764 19.6992L16.9255 11.8448L12.2897 10.716C12.172 10.6852 12.074 10.6095 12.0207 10.5003C11.9647 10.3911 11.9591 10.265 12.0039 10.153L14.2784 4.44427L7.04315 12.1221L11.2812 13.1586C11.3961 13.1866 11.4913 13.265 11.5474 13.3714C11.6006 13.4779 11.609 13.6039 11.5642 13.716Z" fill="#313235"/>
</svg>
