<svg width="24" height="24" viewBox="0 0 24 24" fill="none" xmlns="http://www.w3.org/2000/svg">
<path fill-rule="evenodd" clip-rule="evenodd" d="M11.1611 4.05042C11.1639 4.39216 11.444 4.66947 11.7857 4.66667C12.1303 4.66667 12.4076 4.39216 12.4104 4.05322V2.61625C12.4104 2.27451 12.1303 2 11.7857 2C11.4412 2 11.1611 2.27451 11.1611 2.61625V4.05042ZM17.4776 10.8571C17.4776 5.71989 13.1695 5.28571 12.063 5.26331C11.8922 5.2549 11.6989 5.2549 11.5252 5.2549C10.3908 5.26331 6.17227 5.64986 6.17227 10.8263C6.17227 13.4398 7.2591 14.8403 8.47759 15.5798L8.48599 16.6947C8.48599 17.2073 8.63725 17.605 8.93697 17.8683C9.22269 18.1261 9.65966 18.2577 10.8277 18.2577H12.8249C14.021 18.2577 14.4552 18.1261 14.7409 17.8683C15.035 17.605 15.1807 17.2073 15.1807 16.6947L15.1723 15.5742C16.3908 14.8291 17.4776 13.4398 17.4776 10.8571ZM16.2283 10.8571C16.2283 12.619 15.6681 13.8207 14.514 14.5266C14.514 14.5266 13.9202 14.888 13.9286 14.888L13.9314 15.5798L13.9398 16.6919C13.9398 16.7759 13.9314 16.8599 13.909 16.9412C13.8193 16.9692 13.5504 17.0224 12.8305 17.0224H10.8333C10.1106 17.0224 9.85294 16.9636 9.77171 16.9384C9.7605 16.9104 9.73809 16.8347 9.73809 16.6835L9.72969 15.5714L9.72409 14.888L9.13305 14.5322C7.9958 13.8431 7.42157 12.5966 7.42157 10.8291C7.42157 7.07283 9.9958 6.4986 11.5308 6.4902H11.5672C11.7157 6.4902 11.8781 6.4902 12.035 6.4958C15.8193 6.57703 16.2283 9.57423 16.2283 10.8571ZM11.4524 7.13165C13.3599 7.17367 15.4636 8.2381 15.6148 11.1036C15.6317 11.4454 15.3655 11.7339 15.0238 11.7507H14.9902C14.6597 11.7535 14.388 11.4958 14.3683 11.1681C14.2395 8.69188 12.2591 8.38095 11.416 8.36415C11.368 8.36295 11.3195 8.36329 11.2708 8.36363H11.2708H11.2708H11.2708H11.2707H11.2707H11.2707H11.2707C11.2056 8.36409 11.1399 8.36455 11.0742 8.36134C10.7325 8.36415 10.4524 8.08683 10.4496 7.7451C10.4496 7.40336 10.7297 7.12885 11.0742 7.12885C11.1975 7.12885 11.3347 7.12885 11.4524 7.13165ZM15.1751 19.3697C15.1751 19.0308 14.895 18.7535 14.5504 18.7535H9.2563C8.91176 18.7535 8.63165 19.028 8.63165 19.3697C8.63445 19.7115 8.91457 19.9888 9.2563 19.986H14.5504C14.895 19.986 15.1751 19.7115 15.1751 19.3697ZM13.8361 20.4538C14.1807 20.4538 14.4608 20.7311 14.4608 21.07C14.4608 21.4118 14.1807 21.6863 13.8361 21.6863H9.81092C9.46919 21.6891 9.18907 21.4118 9.18627 21.07C9.18627 20.7283 9.46639 20.4538 9.81092 20.4538H13.8361ZM16.8894 6.31653C16.7241 6.31653 16.5672 6.2521 16.4496 6.13725C16.2087 5.90196 16.2059 5.51541 16.4412 5.27451L16.4496 5.26611L17.4748 4.2493C17.7185 4.0084 18.1134 4.0084 18.3571 4.2493C18.598 4.48739 18.6008 4.87395 18.3627 5.11485L18.3571 5.12045L17.3291 6.13445C17.2143 6.2521 17.0546 6.31653 16.8894 6.31653ZM6.16106 6.31373C6.40476 6.55462 6.79972 6.55462 7.04342 6.31373L7.04902 6.30812C7.28711 6.06723 7.28431 5.68067 7.04342 5.44258L6.01821 4.42577C5.77171 4.18487 5.37955 4.18487 5.13585 4.42577L5.12745 4.43417C4.89216 4.67507 4.89496 5.06443 5.13585 5.29972L6.16106 6.31373ZM4.91737 9.95238C5.2619 9.95238 5.54202 10.2297 5.54202 10.5686C5.54202 10.9104 5.2619 11.1849 4.91737 11.1849H3.46639C3.12465 11.1877 2.84454 10.9104 2.84174 10.5686C2.84174 10.2269 3.12185 9.95238 3.46639 9.95238H4.91737ZM20.8866 10.4958C20.8866 10.1541 20.6064 9.87955 20.2619 9.87955H18.8109C18.4664 9.87955 18.1863 10.1541 18.1863 10.4958C18.1891 10.8375 18.4692 11.1148 18.8109 11.112H20.2619C20.6064 11.112 20.8866 10.8375 20.8866 10.4958Z" fill="#313235"/>
</svg>
