<svg width="24" height="24" viewBox="0 0 24 24" fill="none" xmlns="http://www.w3.org/2000/svg">
<path d="M18.1212 11.4505C18.0652 11.2404 17.8999 11.0752 17.687 11.022L13.1828 9.91272L15.9055 3.00797C16.0119 2.73626 15.9167 2.42534 15.6758 2.26287C15.4377 2.10321 15.1156 2.14242 14.9223 2.35531L6.00636 11.9239C5.8579 12.0836 5.80468 12.3105 5.8635 12.5206C5.92233 12.7306 6.08479 12.8903 6.29487 12.9435L10.4069 13.9603L7.70944 21.0107C7.6058 21.2796 7.70103 21.585 7.93913 21.7474C8.17442 21.9071 8.49095 21.8735 8.68703 21.6662L17.9727 12.05C18.124 11.8903 18.18 11.6634 18.1212 11.4505Z" fill="#313235"/>
</svg>
