<svg width="24" height="24" viewBox="0 0 24 24" fill="none" xmlns="http://www.w3.org/2000/svg">
<path fill-rule="evenodd" clip-rule="evenodd" d="M21.8463 13.8406C21.8463 13.2355 21.6782 12.7818 21.4653 12.4484C21.6754 12.1011 21.8463 11.6165 21.8491 10.947C21.8491 9.41762 20.6698 8.66411 19.4653 8.59969H16.0536L13.9835 8.53806C13.9863 7.71173 13.9891 6.18232 13.9891 4.92462L13.9947 4.79297L13.9975 4.69493C13.9975 3.10669 13.062 2.15991 11.4989 2.15991C10.681 2.15991 10.0143 2.41201 9.57177 2.8882C9.27765 3.20753 8.93591 3.78736 9.00314 4.73694L9.02275 4.96663C9.02329 4.97183 9.02382 4.97701 9.02436 4.98217C9.03221 5.05766 9.03973 5.13013 9.04236 5.22714L9.04516 5.26916C9.07037 6.3812 9.08437 7.78456 8.97513 8.90781C8.85748 10.1403 7.639 10.9022 7.08998 11.1823C6.84348 10.9918 6.53816 10.8742 6.20482 10.8742H3.61379C2.81266 10.8742 2.16 11.5269 2.16 12.3308V19.9274C2.16 20.7313 2.80986 21.384 3.61379 21.384H6.20482C6.54376 21.3812 6.87149 21.2608 7.13199 21.0423C7.15191 21.0466 7.17157 21.052 7.1912 21.0574C7.23506 21.0695 7.27883 21.0815 7.32527 21.0815L10.1292 21.1179C10.2889 21.1179 10.5438 21.1907 10.8603 21.2832L11.0676 21.342C11.8379 21.5689 12.7959 21.849 15.0536 21.849C18.667 21.849 19.5662 21.5185 20.1292 19.9918C20.1432 19.9582 20.1544 19.919 20.16 19.8826C20.2356 19.426 20.2412 19.0339 20.1712 18.6865C20.9079 18.2243 21.3197 17.5437 21.3197 16.7566C21.3197 16.2664 21.2244 15.8826 21.0984 15.5885C21.583 15.1039 21.8463 14.496 21.8463 13.8406ZM20.2244 12.0283C19.9919 12.2776 20.0059 12.6697 20.2552 12.9022C20.4961 13.1263 20.6194 13.44 20.6194 13.8406C20.6194 14.272 20.3953 14.6445 19.9527 14.9414C19.8099 15.0423 19.7146 15.1991 19.6922 15.37C19.6698 15.5409 19.723 15.7173 19.8351 15.849C20.0003 16.0451 20.09 16.356 20.09 16.7509C20.09 17.314 19.5942 17.6417 19.1796 17.8126C19.16 17.821 19.1432 17.8294 19.1236 17.8406C18.8267 18.003 18.7146 18.3756 18.8771 18.6753C18.9611 18.8266 19.0424 19.0703 18.9583 19.6165C18.7118 20.2804 18.4961 20.6137 15.0564 20.6137C12.9856 20.6137 12.1571 20.3724 11.4287 20.1603L11.4177 20.1571L11.202 20.0955C10.7931 19.9778 10.4681 19.8854 10.1404 19.8854L7.66421 19.8518V12.3308C7.66421 12.3224 7.66281 12.3147 7.6614 12.307C7.66 12.2993 7.6586 12.2916 7.6586 12.2832V12.2748C8.41771 11.8854 10.0255 10.8462 10.1992 9.02546C10.3141 7.81537 10.2973 6.33078 10.272 5.17392C10.272 5.15152 10.2692 5.12912 10.2664 5.10671L10.2664 5.10669C10.2612 5.01444 10.2534 4.93708 10.2455 4.85825L10.244 4.84339L10.2272 4.65291C10.1992 4.24114 10.2805 3.93022 10.4709 3.72574C10.7286 3.44563 11.1712 3.3896 11.4989 3.3896C12.3897 3.3896 12.7706 3.77896 12.7678 4.75375L12.7622 4.8742V4.90781C12.7622 6.73134 12.7538 9.1291 12.7538 9.1291C12.751 9.46523 13.0171 9.73974 13.3505 9.74815L16.034 9.82658H19.4261C19.7847 9.84619 20.6166 9.99465 20.6166 10.9442C20.6166 11.4176 20.4905 11.7818 20.258 11.9946L20.2244 12.0283ZM5.6502 13.7117C5.6502 13.2636 5.33647 12.9498 4.88829 12.9498C4.43731 12.9498 4.12639 13.2608 4.12639 13.7117C4.12639 14.1599 4.44012 14.4736 4.88829 14.4736C5.33647 14.4736 5.6502 14.1599 5.6502 13.7117ZM6.20482 20.1515C6.32527 20.1515 6.42331 20.0563 6.42891 19.9358V12.3168C6.42331 12.1963 6.32527 12.1011 6.20482 12.1011H3.61379C3.48773 12.1011 3.38689 12.2047 3.38689 12.3308V19.9246C3.38689 20.0507 3.49054 20.1515 3.61379 20.1515H6.20482Z" fill="#313235"/>
</svg>
