<svg width="24" height="24" viewBox="0 0 24 24" fill="none" xmlns="http://www.w3.org/2000/svg">
<path fill-rule="evenodd" clip-rule="evenodd" d="M21.8463 13.8798C21.8463 13.2383 21.6446 12.7762 21.4121 12.4596C21.6446 12.1347 21.8463 11.6417 21.8491 10.9218C21.8491 9.40361 20.667 8.79857 19.6306 8.74255H16.1376L13.8071 8.67252C13.8071 8.34488 13.8081 7.84241 13.8092 7.26491C13.8108 6.48465 13.8127 5.56743 13.8127 4.75935L13.8183 4.6249L13.8211 4.52966C13.8211 3.02546 12.9695 2.15991 11.4877 2.15991C10.7146 2.15991 10.09 2.39241 9.67821 2.83498C9.28605 3.25515 9.10398 3.85179 9.1544 4.55767L9.17401 4.79016C9.18801 4.89381 9.19641 4.99745 9.19922 5.10109C9.22443 6.24395 9.23843 7.68932 9.12639 8.85739C8.98633 10.3168 7.48213 11.1655 6.96112 11.4176C6.73703 11.2019 6.43451 11.0675 6.09838 11.0675H3.4037C2.71742 11.0675 2.16 11.6277 2.16 12.314V20.1207C2.16 20.807 2.71742 21.3672 3.4037 21.3672H6.09838C6.42611 21.3672 6.73983 21.2383 6.97233 21.0058C7.05076 21.0395 7.13479 21.0563 7.22162 21.0591L10.0872 21.0955C10.2793 21.0955 10.528 21.1654 10.8754 21.2632L10.8967 21.2692L11.1068 21.3308L11.11 21.3317C11.8826 21.5585 12.8439 21.8406 15.1236 21.8406C18.8883 21.8406 19.6026 21.4456 20.1264 20.0143C20.2132 19.5016 20.2076 19.0871 20.104 18.7229C20.8827 18.2916 21.3085 17.6389 21.3085 16.8574C21.3085 16.3084 21.1852 15.905 21.0339 15.6165C21.5606 15.1459 21.8463 14.5381 21.8463 13.8798ZM20.569 12.1823C20.4149 12.3504 20.4261 12.6081 20.5914 12.7622C20.8855 13.0311 21.0311 13.4064 21.0283 13.877C21.0283 14.5241 20.6082 14.9498 20.2552 15.1907L20.2449 15.1981C20.2361 15.2043 20.2268 15.2108 20.2188 15.2187C20.048 15.3672 20.0283 15.6221 20.1768 15.793C20.3841 16.0311 20.4905 16.4008 20.4905 16.8574C20.4905 17.5577 19.9107 17.9442 19.4233 18.1487L19.3897 18.1655C19.1908 18.272 19.1152 18.5213 19.2216 18.7201C19.3757 19.0058 19.4065 19.3644 19.3393 19.8098C19.0396 20.6221 18.8883 21.0283 15.1208 21.0283C12.9583 21.0283 12.0956 20.7762 11.3337 20.5521L11.1096 20.4876C10.7118 20.3728 10.3925 20.2832 10.09 20.2832L7.33647 20.2467V20.1711L7.33753 20.1648C7.33994 20.1507 7.34207 20.1382 7.34207 20.1235V12.314C7.34207 12.3056 7.34067 12.2979 7.33927 12.2902C7.33787 12.2825 7.33647 12.2748 7.33647 12.2664V12.1431C8.00874 11.8154 9.75664 10.7958 9.93591 8.93582C10.0508 7.70613 10.0339 6.19913 10.0087 5.02546C10.0073 5.01706 10.0066 5.00865 10.0059 5.00025C10.0052 4.99184 10.0045 4.98344 10.0031 4.97504C9.99754 4.8742 9.99193 4.79297 9.98073 4.70613L9.96392 4.50165C9.92751 4.01705 10.0311 3.64451 10.2692 3.3896C10.5213 3.1179 10.9415 2.97504 11.4821 2.97504C12.5185 2.97504 13.0003 3.47084 13.0003 4.60529L12.9947 4.72854V4.75095C12.9947 6.61369 12.9863 9.06747 12.9863 9.06747C12.9835 9.28876 13.16 9.46804 13.3813 9.47644L16.1208 9.55767H19.6026C19.9387 9.57728 21.0283 9.72854 21.0283 10.9218C21.0283 11.4708 20.8771 11.8994 20.5914 12.1599L20.569 12.1823ZM5.49613 13.7481C5.49613 13.2944 5.17961 12.9806 4.72863 12.9806C4.27485 12.9806 3.96112 13.2972 3.96112 13.7481C3.96112 14.1991 4.27765 14.5157 4.72863 14.5157C5.18241 14.5157 5.49613 14.2019 5.49613 13.7481ZM6.09838 20.5549C6.32527 20.5549 6.51294 20.3756 6.52415 20.1459V12.2916C6.51294 12.0647 6.32527 11.8854 6.09838 11.8854H3.4037C3.1656 11.8854 2.97513 12.0787 2.97513 12.3168V20.1263C2.97513 20.3644 3.1684 20.5577 3.4037 20.5577L6.09838 20.5549Z" fill="#313235"/>
</svg>
