<svg width="24" height="24" viewBox="0 0 24 24" fill="none" xmlns="http://www.w3.org/2000/svg">
<path fill-rule="evenodd" clip-rule="evenodd" d="M21.8463 10.947C21.8463 11.6193 21.6782 12.1067 21.4654 12.4512C21.6782 12.7846 21.8463 13.2383 21.8491 13.8378C21.8491 14.496 21.5886 15.1011 21.1012 15.5857C21.2273 15.8798 21.3225 16.2636 21.3225 16.7537C21.3225 17.5409 20.9107 18.2215 20.174 18.6837C20.2441 19.0311 20.2385 19.4232 20.1628 19.8798C20.1544 19.9162 20.146 19.9526 20.132 19.989C19.569 21.5157 18.667 21.8462 15.0564 21.8462C12.8158 21.8462 11.8557 21.5669 11.0879 21.3435L11.0732 21.3392L10.8631 21.2804C10.5466 21.1851 10.2945 21.1151 10.132 21.1151L7.3253 21.0787C7.27936 21.0787 7.23735 21.0669 7.19479 21.055C7.17507 21.0495 7.15523 21.0439 7.13482 21.0395C6.88272 21.2495 6.56059 21.3812 6.20765 21.3812H3.61662C2.8127 21.3812 2.16003 20.7285 2.16003 19.9246V12.3308C2.16003 11.5241 2.8127 10.8714 3.61662 10.8714H6.20205C6.53538 10.8714 6.84071 10.989 7.0872 11.1795C7.63622 10.8966 8.85471 10.1375 8.97236 8.90501C9.0816 7.78176 9.0676 6.3784 9.04239 5.26635C9.04239 5.25935 9.04169 5.25235 9.04099 5.24535C9.04029 5.23834 9.03959 5.23134 9.03959 5.22434C9.03697 5.13017 9.02947 5.05799 9.02164 4.9827C9.02109 4.97736 9.02053 4.97201 9.01998 4.96663L9.00037 4.73694C8.93314 3.78736 9.27488 3.20753 9.569 2.8882C10.0116 2.41201 10.6782 2.15991 11.4962 2.15991C13.062 2.15991 13.9948 3.10949 13.9948 4.69493L13.992 4.79297L13.9864 4.92462C13.9864 6.18512 13.9836 7.71173 13.9808 8.53806L16.0508 8.59969H19.4626C20.667 8.66691 21.8463 9.41762 21.8463 10.947ZM20.2553 12.905C20.4962 13.1263 20.6166 13.4428 20.6166 13.8434C20.6166 14.2748 20.3925 14.6473 19.9528 14.947C19.8099 15.0451 19.7147 15.2019 19.6922 15.3756C19.6698 15.5493 19.7203 15.7229 19.8351 15.8546C20.0032 16.0507 20.09 16.3616 20.09 16.7566C20.09 17.3196 19.5942 17.6445 19.1796 17.8182C19.0172 17.8854 18.8939 18.0171 18.8379 18.1795C18.7791 18.3448 18.7931 18.5241 18.8771 18.6781C18.9612 18.8294 19.0424 19.0731 18.9584 19.6193C18.7091 20.2832 18.4962 20.6165 15.0564 20.6165C12.9856 20.6165 12.1572 20.3752 11.4288 20.1631L11.4177 20.1599L11.2021 20.0983C10.7931 19.9806 10.4682 19.8882 10.1404 19.8882L7.66424 19.8546V12.3336C7.66424 12.3189 7.6621 12.3064 7.6597 12.2922L7.65863 12.286V12.2776C8.41774 11.8854 10.0256 10.8462 10.1993 9.02826C10.3169 7.81818 10.3001 6.33358 10.2749 5.17672C10.2749 5.15431 10.2721 5.1319 10.2693 5.10949C10.264 5.01722 10.2563 4.93984 10.2484 4.861L10.2483 4.86096L10.2469 4.84619L10.2301 4.65571C10.2021 4.24675 10.2833 3.93582 10.4738 3.73134C10.7343 3.45403 11.1768 3.39521 11.5018 3.39521C12.3925 3.39521 12.7707 3.78456 12.7707 4.75935L12.7651 4.8798V4.91341C12.7651 6.73694 12.7567 9.1347 12.7567 9.1347C12.7567 9.46804 13.02 9.74255 13.3533 9.75095L16.0396 9.83218H19.4345C19.7931 9.85179 20.625 10.0002 20.625 10.9498C20.625 11.426 20.5018 11.7902 20.2665 12.0002C20.1376 12.1151 20.0648 12.2804 20.0648 12.454C20.0564 12.6221 20.1292 12.7874 20.2553 12.905ZM4.88833 14.4764C4.44015 14.4764 4.12642 14.1627 4.12642 13.7145C4.12642 13.2664 4.44015 12.9526 4.88833 12.9526C5.3365 12.9526 5.64743 13.2636 5.64743 13.7145C5.64743 14.1627 5.3365 14.4764 4.88833 14.4764Z" fill="#313235"/>
</svg>
