<svg width="24" height="24" viewBox="0 0 24 24" fill="none" xmlns="http://www.w3.org/2000/svg">
<path fill-rule="evenodd" clip-rule="evenodd" d="M21.7173 7.93058C22.1011 6.44318 21.6361 5.06783 20.2972 3.72049C17.4008 0.80733 14.7201 2.30873 11.5885 5.46279C10.9806 6.07344 10.4876 6.61405 10.0759 7.11825C9.85738 7.38156 9.8966 7.77372 10.1599 7.9922C10.4232 8.21069 10.8126 8.17147 11.031 7.90817C11.4176 7.43478 11.8854 6.92218 12.4624 6.33954C15.7481 3.03142 17.4428 2.61125 19.4204 4.60285C21.4008 6.59725 20.9806 8.29753 17.6921 11.6056C14.4036 14.911 12.7145 15.3339 10.7313 13.3423C10.0282 12.6337 9.64449 11.9614 9.56326 11.2919C9.52125 10.9502 9.21032 10.7177 8.87419 10.7513C8.53525 10.7905 8.29435 11.1014 8.33637 11.4432C8.45682 12.4012 8.95262 13.3087 9.86018 14.2191C10.9442 15.3087 11.9974 15.7821 13.0535 15.7821C14.8238 15.7821 16.6081 14.4544 18.5689 12.4824C20.4148 10.6253 21.384 9.2219 21.7173 7.93058ZM13.8574 16.0538C13.5997 15.8269 13.2103 15.8577 12.9862 16.1183C12.6277 16.5356 11.9806 17.2331 11.5493 17.6673C9.89099 19.3367 8.63329 20.2387 7.58847 20.5104C6.54365 20.7821 5.61928 20.4432 4.58847 19.4068C3.55766 18.3704 3.21872 17.4404 3.49043 16.3872C3.75934 15.3367 4.6557 14.0734 6.31396 12.404C7.97223 10.7345 9.22993 9.83254 10.2747 9.56083C11.3224 9.29192 12.2467 9.63086 13.2747 10.6673C14.0058 11.4012 14.3896 12.0986 14.4512 12.7961C14.4792 13.1379 14.7874 13.3816 15.1207 13.362C15.4596 13.3311 15.7117 13.0286 15.6809 12.6869C15.5941 11.6869 15.0899 10.7401 14.1459 9.78772C11.2523 6.87456 8.57167 8.37596 5.44001 11.5244C2.30836 14.6757 0.815363 17.3704 3.71172 20.2835C4.75094 21.3283 5.80416 21.8437 6.9162 21.8437C7.23833 21.8437 7.56326 21.8017 7.8966 21.7149C9.17951 21.3816 10.5745 20.404 12.4204 18.5496C12.8798 18.0874 13.5409 17.376 13.9218 16.9306C14.1431 16.6701 14.1151 16.2779 13.8574 16.0538Z" fill="#313235"/>
</svg>
