<svg width="24" height="24" viewBox="0 0 24 24" fill="none" xmlns="http://www.w3.org/2000/svg">
<path fill-rule="evenodd" clip-rule="evenodd" d="M2.16 6.77846C2.16 7.29667 2.58577 7.71684 3.10958 7.71684C3.63339 7.71684 4.05916 7.29387 4.05916 6.77846C4.05916 6.26026 3.63339 5.84009 3.10958 5.84009C2.58577 5.84009 2.16 6.26026 2.16 6.77846ZM4.96112 6.77566C4.96112 7.08659 5.22163 7.33589 5.54096 7.33589H21.2664C21.5858 7.33589 21.8463 7.08379 21.8463 6.77566C21.8463 6.46474 21.5858 6.21544 21.2664 6.21544H5.54096C5.22163 6.22104 4.96673 6.47034 4.96112 6.77566ZM21.2664 11.4283C21.5858 11.4283 21.8463 11.6776 21.8463 11.9885C21.8463 12.2995 21.5858 12.5488 21.2664 12.5488H5.54096C5.22163 12.5488 4.96112 12.2995 4.96112 11.9885C4.96112 11.6776 5.22163 11.4283 5.54096 11.4283H21.2664ZM2.16 11.9885C2.16 12.5068 2.58577 12.9269 3.10958 12.9269C3.63339 12.9269 4.05916 12.5068 4.05916 11.9885C4.05916 11.4703 3.63339 11.0502 3.10958 11.0502C2.58577 11.0502 2.16 11.4703 2.16 11.9885ZM21.2664 16.6412C21.4205 16.6412 21.5662 16.7 21.6754 16.8037C21.7847 16.9073 21.8463 17.0502 21.8463 17.1986C21.8463 17.5068 21.5858 17.7589 21.2664 17.7589H5.54096C5.22443 17.7533 4.96673 17.5068 4.96112 17.1986C4.96112 16.8905 5.22163 16.6384 5.54096 16.6384H21.2664V16.6412ZM2.16 17.2014C2.16 17.7196 2.58577 18.1398 3.10958 18.1398C3.63339 18.1398 4.05916 17.7196 4.05916 17.2014C4.05916 16.6832 3.63339 16.2631 3.10958 16.2631C2.58577 16.2631 2.16 16.6832 2.16 17.2014Z" fill="#313235"/>
</svg>
