<svg width="24" height="24" viewBox="0 0 24 24" fill="none" xmlns="http://www.w3.org/2000/svg">
<path fill-rule="evenodd" clip-rule="evenodd" d="M4.4653 6.95213C4.4653 6.33869 3.94989 5.84009 3.31403 5.84009C2.67538 5.84009 2.15997 6.33869 2.15997 6.95213C2.15997 7.56558 2.67538 8.06138 3.31403 8.06418C3.94989 8.06418 4.4653 7.56558 4.4653 6.95213ZM5.44569 6.94933C5.44569 7.3583 5.80423 7.68883 6.24401 7.68883H21.0479C21.4905 7.68883 21.8462 7.3583 21.8462 6.94933C21.8462 6.54037 21.4877 6.20984 21.0479 6.20984H6.24401C5.80143 6.20984 5.44569 6.54037 5.44569 6.94933ZM21.0479 11.2519C21.4877 11.2519 21.8462 11.5824 21.8462 11.9913C21.8462 12.4003 21.4905 12.7308 21.0479 12.7308H6.24401C5.80423 12.7308 5.44569 12.4003 5.44569 11.9913C5.44569 11.5824 5.80143 11.2519 6.24401 11.2519H21.0479ZM4.4653 11.9913C4.4653 11.3779 3.94989 10.8793 3.31403 10.8793C2.67538 10.8793 2.15997 11.3779 2.15997 11.9913C2.15997 12.6048 2.67538 13.1034 3.31403 13.1034C3.94989 13.1034 4.4653 12.6048 4.4653 11.9913ZM21.0479 16.2939C21.4877 16.2939 21.8462 16.6244 21.8462 17.0334C21.8462 17.4395 21.4905 17.7729 21.0479 17.7729H6.24401C5.80423 17.7729 5.44569 17.4395 5.44569 17.0334C5.44569 16.6272 5.80143 16.2939 6.24401 16.2939H21.0479ZM4.4653 17.0334C4.4653 16.4199 3.94989 15.9213 3.31403 15.9213C2.67538 15.9213 2.15997 16.4171 2.15997 17.0334C2.15997 17.644 2.67538 18.1426 3.31403 18.1454C3.94989 18.1454 4.4653 17.644 4.4653 17.0334Z" fill="#313235"/>
</svg>
