<svg width="24" height="24" viewBox="0 0 24 24" fill="none" xmlns="http://www.w3.org/2000/svg">
<path fill-rule="evenodd" clip-rule="evenodd" d="M19.3847 3.75095C19.3847 2.91902 18.7208 2.15991 17.9925 2.15991H6.01215C5.28386 2.15991 4.62 2.91902 4.62 3.75095V20.2551C4.62 21.1179 5.25585 21.8462 6.01215 21.8462H17.9925C18.746 21.8462 19.3847 21.1179 19.3847 20.2551V3.75095ZM18.1746 20.2551V3.75095C18.1746 3.55767 18.029 3.384 17.9673 3.36159L6.01215 3.36439C5.97294 3.384 5.82728 3.55767 5.82728 3.75095V20.2551C5.82728 20.4596 5.95893 20.6193 6.01775 20.6417H17.9925C18.0374 20.6277 18.1746 20.4736 18.1746 20.2551ZM7.41271 7.95823C7.41271 8.40081 7.77126 8.75935 8.21663 8.75935C8.65921 8.75935 9.02056 8.39801 9.02056 7.95823C9.02056 7.51565 8.66201 7.15711 8.21663 7.15711C7.77126 7.15711 7.41271 7.51565 7.41271 7.95823ZM9.02616 12.0395C9.02616 11.5969 8.66761 11.2383 8.22224 11.2383C7.77686 11.2383 7.41831 11.5969 7.41831 12.0395C7.41831 12.482 7.77686 12.8406 8.22224 12.8406C8.66761 12.8406 9.02616 12.482 9.02616 12.0395ZM10.9477 8.61089C10.6144 8.61089 10.3427 8.34198 10.3427 8.00865C10.3427 7.67532 10.6144 7.40641 10.9477 7.40641H16.5108C16.8441 7.40641 17.1158 7.67532 17.1158 8.00865C17.1158 8.34198 16.8441 8.61089 16.5108 8.61089H10.9477ZM17.197 12.0395C17.197 11.7061 16.9253 11.4372 16.592 11.4372H11.029C10.6956 11.4372 10.4239 11.7061 10.4239 12.0395C10.4239 12.3728 10.6956 12.6417 11.029 12.6417H16.592C16.9253 12.6417 17.197 12.3728 17.197 12.0395ZM8.22224 15.2495C8.66761 15.2495 9.02616 15.6081 9.02616 16.0507C9.02616 16.4932 8.66761 16.8518 8.22224 16.8518C7.77686 16.8518 7.41831 16.4932 7.41831 16.0507C7.41831 15.6081 7.77686 15.2495 8.22224 15.2495ZM17.197 16.0507C17.197 15.7173 16.9253 15.4484 16.592 15.4484H11.029C10.6956 15.4484 10.4239 15.7173 10.4239 16.0507C10.4239 16.384 10.6956 16.6529 11.029 16.6529H16.592C16.9253 16.6529 17.197 16.384 17.197 16.0507Z" fill="#313235"/>
</svg>
