<svg width="24" height="24" viewBox="0 0 24 24" fill="none" xmlns="http://www.w3.org/2000/svg">
<path fill-rule="evenodd" clip-rule="evenodd" d="M19.5219 13.0434L21.816 21.0686C21.8804 21.2955 21.8076 21.5364 21.6311 21.6877C21.5191 21.7857 21.3762 21.8361 21.2333 21.8361C21.1493 21.8361 21.0681 21.8193 20.9896 21.7857L16.8216 19.9482L12.2166 21.7913C12.0989 21.8361 11.9729 21.8473 11.8524 21.8165L11.7404 21.7913C11.7095 21.7857 11.6787 21.7745 11.6507 21.7633L7.22216 19.9482L2.99248 21.7857C2.77679 21.8782 2.52469 21.8389 2.34822 21.6793C2.17455 21.5196 2.10733 21.2759 2.17736 21.049L4.70396 13.0238C4.75718 12.8502 4.88883 12.7129 5.0569 12.6457C5.22777 12.5813 5.41825 12.5925 5.57511 12.6821L7.8188 13.951L8.14093 13.8586C6.99807 11.9398 6.02889 9.79695 6.03449 8.11067C6.0485 4.37679 8.27818 2.1499 12.0037 2.1499H12.0317C15.774 2.16111 18.0009 4.402 17.9896 8.14429C17.984 9.90059 16.9756 12.0574 15.8104 13.9594L15.9784 14.0126L18.6731 12.6681C18.8328 12.5897 19.0233 12.5841 19.1857 12.6569C19.3482 12.7297 19.4742 12.8698 19.5219 13.0434ZM12.0289 9.11067C11.1381 9.11067 10.7236 8.69611 10.7236 7.80535C10.7236 6.9146 11.1381 6.50003 12.0289 6.50003C12.9196 6.50003 13.3342 6.9146 13.3342 7.80535C13.337 8.69331 12.9224 9.11067 12.0289 9.11067ZM16.7011 15.0042L17.365 18.8726L20.3062 20.1667L18.5639 14.0742L16.7011 15.0042ZM12.6171 18.3151L12.6031 20.3431L16.1493 18.9202L15.5023 15.1275L15.1381 15.0098C14.1101 16.542 13.0933 17.7829 12.6171 18.3151ZM7.85241 18.9062L11.3958 20.36L11.4098 18.3656C10.8552 17.7689 9.8244 16.4832 8.80479 14.9258L8.28939 15.077L7.85241 18.9062ZM6.64233 18.8894L3.72357 20.1583L5.63113 14.1023L7.09891 14.9314L6.64233 18.8894Z" fill="#313235"/>
</svg>
