<svg width="24" height="24" viewBox="0 0 24 24" fill="none" xmlns="http://www.w3.org/2000/svg">
<path fill-rule="evenodd" clip-rule="evenodd" d="M18.9999 9.15202C19.0139 4.68663 16.4041 2.01423 12.0197 2H11.9887C7.62678 2 5.01412 4.65533 5.00006 9.10933C4.98599 13.5007 10.3182 20.4905 11.685 21.8765L11.6906 21.8822C11.8509 22.0416 12.1068 22.0388 12.2643 21.8765C13.6311 20.4848 18.9858 13.4979 18.9999 9.15202ZM18.1815 9.14918C18.1702 12.9685 13.5327 19.1984 11.9747 20.9743C10.4222 19.2013 5.8072 12.9685 5.81845 9.11502C5.8297 5.06231 8.02051 2.83388 11.9887 2.83388H12.0197C16.0047 2.84526 18.1927 5.08792 18.1815 9.14918ZM12 10.4071C13.094 10.4071 13.6733 9.81799 13.6733 8.70235C13.6733 7.58672 13.094 6.99759 12 6.99759C10.906 6.99759 10.3238 7.58672 10.3238 8.70235C10.3238 9.81799 10.9032 10.4071 12 10.4071ZM14.4917 8.70235C14.4917 7.11428 13.5608 6.16371 12 6.16371C10.4391 6.16371 9.50824 7.11428 9.50824 8.70235C9.50824 10.2904 10.4391 11.241 12 11.241C13.5608 11.241 14.4917 10.2904 14.4917 8.70235Z" fill="#313235"/>
</svg>
