<svg width="24" height="24" viewBox="0 0 24 24" fill="none" xmlns="http://www.w3.org/2000/svg">
<path fill-rule="evenodd" clip-rule="evenodd" d="M11.6274 21.8112C11.7384 21.925 11.8948 21.9904 12.0541 21.9904C12.2134 21.9904 12.367 21.925 12.4808 21.8112C13.3113 20.9693 19.1452 13.8896 19.1566 9.2077C19.1708 4.70786 16.5312 2.01422 12.0996 2H12.0683C7.65666 2 5.01422 4.67658 5 9.16503C4.98577 13.5283 10.2763 20.4402 11.6274 21.8112ZM6.20602 9.16788C6.2174 5.33363 8.29949 3.22309 12.0683 3.22309H12.0968C15.8855 3.23731 17.9648 5.35923 17.9534 9.20485C17.942 12.7746 13.6896 18.5658 12.0513 20.4772C10.2508 18.3894 6.19464 12.5755 6.20602 9.16788ZM12.0797 7.29911C11.1098 7.29911 10.6347 7.77981 10.6347 8.76397C10.6347 9.75098 11.1069 10.2317 12.0797 10.2317C13.0525 10.2317 13.5246 9.75098 13.5246 8.76682C13.5246 7.77981 13.0496 7.30195 12.0797 7.29911ZM9.42872 8.76682C9.42872 10.4251 10.4442 11.4576 12.0797 11.4576C13.7152 11.4576 14.7307 10.4251 14.7307 8.76682C14.7307 7.10853 13.7152 6.07602 12.0797 6.07602C10.4442 6.07602 9.42872 7.10853 9.42872 8.76682Z" fill="#313235"/>
</svg>
