<svg width="24" height="24" viewBox="0 0 24 24" fill="none" xmlns="http://www.w3.org/2000/svg">
<path fill-rule="evenodd" clip-rule="evenodd" d="M19.2801 9.042C19.2913 4.64425 16.6947 2.01401 12.3277 2H12.2941C10.1513 2 8.38656 2.63305 7.18769 3.83473C5.98041 5.04201 5.33895 6.82912 5.33335 8.99999C5.32214 13.3221 10.6331 20.2016 11.9916 21.5686C12.0728 21.6498 12.1765 21.689 12.2801 21.689C12.3866 21.689 12.4902 21.647 12.5686 21.5686C13.9328 20.196 19.2661 13.3221 19.2801 9.042ZM12.3501 6.09803C13.9132 6.09803 14.8487 7.0308 14.8487 8.59663C14.8487 10.1624 13.916 11.0952 12.3501 11.0952C10.7871 11.0952 9.85155 10.1624 9.85155 8.59663C9.85155 7.0336 10.7871 6.09803 12.3501 6.09803Z" fill="#313235"/>
</svg>
