<svg width="24" height="24" viewBox="0 0 24 24" fill="none" xmlns="http://www.w3.org/2000/svg">
<path fill-rule="evenodd" clip-rule="evenodd" d="M21.8244 21.3159L19.4824 13.1239C19.446 13.0062 19.3648 12.911 19.2499 12.8606C19.1407 12.8129 19.0118 12.8157 18.9025 12.869L16.0787 14.2782L15.5745 14.1157C16.8155 12.1125 17.9052 9.82639 17.9108 8.06696C17.9221 4.3744 15.723 2.16111 12.0335 2.1499H12.0055C10.1958 2.1499 8.70265 2.68221 7.68575 3.6936C6.66604 4.7078 6.12257 6.20667 6.11697 8.03054C6.11416 9.78436 7.16189 12.0369 8.37209 14.0232L7.70816 14.2165L5.34378 12.8802C5.23453 12.8185 5.10566 12.8101 4.9908 12.855C4.87595 12.8998 4.7863 12.995 4.74988 13.1127L2.1698 21.3047C2.13898 21.3999 2.14459 21.5036 2.1838 21.5933C2.27625 21.8006 2.51717 21.8958 2.72447 21.8062L7.12267 19.8955L11.787 21.8006L11.9018 21.8286C11.9831 21.8454 12.0699 21.8398 12.1484 21.809L16.9304 19.8927L21.2641 21.8034C21.3538 21.8426 21.449 21.8482 21.5415 21.823C21.76 21.7614 21.886 21.5344 21.8244 21.3159ZM6.93778 8.03334C6.94058 6.40839 7.3888 5.14485 8.26564 4.27354C9.13407 3.40784 10.3919 2.97078 12.0027 2.97078H12.0279C15.3027 2.97919 17.1012 4.78624 17.09 8.06416C17.0816 11.1207 13.3306 16.1077 11.9915 17.6261C10.658 16.1105 6.92657 11.1263 6.93778 8.03334ZM20.7935 20.7023L17.2945 19.1586L16.5886 15.043L16.5718 14.9506L18.8269 13.8243L20.7935 20.7023ZM3.22312 20.6939L5.3802 13.8411L7.21791 14.8805L6.72207 19.1754L3.22312 20.6939ZM11.6049 18.4162C11.0474 17.8307 9.92126 16.4354 8.82592 14.7461L8.02752 14.9758L8.01071 15.1159L7.54568 19.1838L11.5853 20.8396L11.6049 18.4162ZM15.7538 15.0346L15.1151 14.8329C14.0589 16.4382 12.986 17.769 12.4229 18.3686L12.4061 20.8228L16.4653 19.1979L15.7538 15.0346ZM10.6888 7.69714C10.6888 8.57686 11.1343 9.02232 12.0139 9.02232C12.8935 9.02232 13.339 8.57686 13.339 7.69714C13.339 6.81743 12.8935 6.37197 12.0139 6.37197C11.1371 6.37197 10.6888 6.81743 10.6888 7.69714ZM12.0139 9.84319C13.3362 9.84319 14.1598 9.01951 14.1598 7.69714C14.1598 6.37477 13.3362 5.55109 12.0139 5.55109C10.6916 5.55109 9.87084 6.37197 9.87084 7.69714C9.87084 9.02232 10.6916 9.84319 12.0139 9.84319Z" fill="#313235"/>
</svg>
