<svg width="24" height="24" viewBox="0 0 24 24" fill="none" xmlns="http://www.w3.org/2000/svg">
<path fill-rule="evenodd" clip-rule="evenodd" d="M6.73251 9.08435V6.54053C6.73251 4.04754 8.89217 2.01953 11.5476 2.01953H11.7381C14.3936 2.01953 16.5532 4.04754 16.5532 6.54053V9.09136C17.0574 9.22821 17.4833 9.45802 17.8249 9.77862C18.444 10.3557 18.7633 11.2044 18.7773 12.2996V12.3052V18.3949C18.7633 19.4873 18.4412 20.336 17.8249 20.9159C17.2339 21.4705 16.3936 21.7506 15.3263 21.7506H7.93419C6.86696 21.7506 6.02663 21.4677 5.43839 20.9131C4.82215 20.3332 4.50842 19.4817 4.50842 18.3865L4.51122 12.7422C4.51122 12.4341 4.50842 12.3108 4.50842 12.3108V12.3052C4.50842 11.21 4.82215 10.3613 5.43839 9.77862C5.7843 9.45248 6.21738 9.2203 6.73251 9.08435ZM15.3936 8.94147V6.54053C15.3936 4.689 13.7549 3.17919 11.7381 3.17919H11.5476C9.53082 3.17919 7.89217 4.68619 7.89217 6.54053V8.94124C7.90614 8.94114 7.92014 8.94109 7.93419 8.94109H15.3263C15.3488 8.94109 15.3713 8.94122 15.3936 8.94147ZM12.8922 17.5377C12.5868 17.8318 12.1695 17.9803 11.6485 17.9803C11.1275 17.9803 10.7101 17.8318 10.4048 17.5377C10.0882 17.2324 9.92858 16.801 9.92858 16.2576C9.92858 15.7142 10.0882 15.2828 10.4048 14.9775C10.7101 14.6834 11.1275 14.5349 11.6485 14.5349C12.1695 14.5349 12.5868 14.6834 12.8922 14.9775C13.2115 15.2828 13.3684 15.7142 13.3684 16.2576C13.3684 16.801 13.2115 17.2324 12.8922 17.5377Z" fill="#313235"/>
</svg>
