<svg width="24" height="24" viewBox="0 0 24 24" fill="none" xmlns="http://www.w3.org/2000/svg">
<path fill-rule="evenodd" clip-rule="evenodd" d="M11.9539 21.8074C11.9927 21.8074 12.0297 21.7994 12.0634 21.785C13.3648 21.7852 14.6519 21.5248 15.8447 21.0203C19.4581 19.4909 21.8055 15.9503 21.8083 12.0287C21.8111 6.63095 17.4413 2.2528 12.0436 2.25C12.0223 2.25 12.0015 2.25241 11.9816 2.25696C11.9725 2.25606 11.9633 2.2556 11.9539 2.2556C11.7999 2.2556 11.6738 2.38165 11.6738 2.53571V21.5273C11.6738 21.6814 11.7999 21.8074 11.9539 21.8074ZM12.2341 8.16503V2.81852C12.7441 2.86308 13.2405 3.08721 13.7215 3.4909C14.2621 3.94468 14.7495 4.59734 15.1696 5.43487C15.512 6.11735 15.7949 6.8885 16.0128 7.72274C14.8276 8.00247 13.5578 8.15195 12.2341 8.16503ZM12.2341 11.7458V8.72527C13.6098 8.71191 14.936 8.55396 16.1442 8.26885C16.3834 9.35339 16.5173 10.5295 16.5346 11.7458H12.2341ZM12.2341 12.306V15.5422C13.5911 15.5554 14.8999 15.7093 16.0948 15.9874C16.3642 14.8472 16.5149 13.5995 16.5344 12.306H12.2341ZM17.0975 12.306C17.0777 13.6455 16.9207 14.9398 16.6396 16.125C17.7425 16.4259 18.7328 16.8373 19.5535 17.3448C20.5705 15.9139 21.1889 14.18 21.2465 12.3052C21.2396 12.3058 21.2326 12.306 21.2257 12.306H17.0975ZM21.2469 11.7466C21.1953 9.98849 20.6422 8.29292 19.6668 6.85405C18.8369 7.38537 17.8237 7.8157 16.6899 8.12919C16.9406 9.25902 17.0802 10.4825 17.0977 11.7458H21.2257C21.2328 11.7458 21.2399 11.7461 21.2469 11.7466ZM15.955 16.5309C14.7842 16.258 13.5341 16.1152 12.2341 16.1025V21.2164C12.7445 21.1714 13.243 20.9453 13.7215 20.5441C14.2593 20.0931 14.7467 19.4377 15.1696 18.6001C15.4829 17.9777 15.7459 17.2815 15.955 16.5309ZM16.4996 16.6691C16.2798 17.4602 16.0022 18.1949 15.671 18.8522C15.2016 19.7841 14.6506 20.5098 14.0464 21.0062C16.1175 20.5466 17.9263 19.3892 19.2135 17.7935C18.4634 17.3379 17.5345 16.9538 16.4996 16.6691ZM16.5581 7.58285C17.6266 7.28546 18.5798 6.87816 19.3365 6.39762C19.0962 6.08612 18.8349 5.78874 18.5534 5.5077C17.309 4.25724 15.7401 3.40287 14.0442 3.02696C14.6492 3.5234 15.2011 4.24975 15.671 5.18277C16.0323 5.89975 16.3298 6.70883 16.5581 7.58285ZM6.64582 21.306C6.37391 21.306 6.06743 21.2599 5.92714 21.2388L5.88952 21.2332L5.86991 21.2304L5.85311 21.2276C4.8391 21.0399 3.91193 20.0819 3.24246 18.5273C2.52818 16.8662 2.15002 14.6366 2.15002 12.0875V11.9923C2.15002 9.44328 2.52818 7.21359 3.24246 5.55252C3.91193 3.9979 4.8391 3.03711 5.85311 2.85224L5.86991 2.84944L5.88952 2.84664L5.90337 2.84443C6.03878 2.8228 6.3963 2.7657 6.69904 2.77381C8.45535 2.81303 9.3489 3.70658 9.3489 5.42647C9.35171 5.743 9.31529 6.06233 9.23686 6.37045C9.04358 7.19118 8.44414 8.16597 6.67383 8.16597C6.50016 8.16597 6.32369 8.15756 6.15283 8.13515C5.81949 8.17157 5.64582 8.83824 5.57299 9.2388C5.41893 10.0707 5.39932 11.208 5.39932 11.9923V12.0847C5.39932 12.869 5.41613 14.0091 5.57299 14.841C5.64862 15.2416 5.82229 15.9111 6.15283 15.9447C6.32649 15.9223 6.50016 15.9139 6.67383 15.9139C8.44414 15.9139 9.04638 16.8887 9.23686 17.7094C9.31529 18.0175 9.35171 18.334 9.3489 18.6506C9.3489 20.3704 8.45815 21.264 6.69904 21.3032L6.64582 21.306ZM5.94274 20.7066L5.97355 20.7122C6.27047 20.7598 6.51137 20.7822 6.68504 20.7794C7.44134 20.7626 7.97635 20.5777 8.32369 20.2192C8.65703 19.8747 8.81949 19.362 8.81949 18.6534C8.82229 18.3789 8.79148 18.1071 8.72425 17.8438L8.72145 17.8354C8.50297 16.8971 7.8335 16.4433 6.67103 16.4433C6.50857 16.4433 6.3461 16.4517 6.18644 16.4741C6.17243 16.4769 6.15843 16.4769 6.14442 16.4769C5.33192 16.4434 5.12057 15.3189 5.04986 14.9427L5.04918 14.9391C4.88672 14.0651 4.86711 12.8943 4.86711 12.0875V11.9923C4.86711 11.1856 4.88672 10.0147 5.04918 9.14076L5.04986 9.13714C5.12057 8.76095 5.33191 7.63646 6.14442 7.60574H6.14443C6.15843 7.60574 6.17244 7.60574 6.18644 7.60854C6.3461 7.63095 6.50857 7.63936 6.67103 7.63936C7.8335 7.63936 8.50577 7.18277 8.72145 6.2472L8.72425 6.2388C8.79148 5.97269 8.82229 5.70098 8.81949 5.42927C8.81949 4.72059 8.65703 4.20798 8.32369 3.86345C7.97635 3.5021 7.44134 3.32003 6.68504 3.30322C6.50857 3.30042 6.27047 3.32283 5.97355 3.37045L5.94274 3.37605C4.32089 3.67577 2.67944 6.73179 2.67944 11.9923V12.0875C2.67944 15.2192 3.25086 17.2052 3.72986 18.3172C4.31529 19.6814 5.12201 20.5525 5.94274 20.7066Z" fill="#313235"/>
</svg>
