<svg width="24" height="24" viewBox="0 0 24 24" fill="none" xmlns="http://www.w3.org/2000/svg">
<path fill-rule="evenodd" clip-rule="evenodd" d="M17.7318 21.8341H10.631C9.60294 21.8341 8.86064 21.596 8.36485 21.103C7.86345 20.6072 7.61975 19.8593 7.61975 18.8229V14.7286C6.2727 14.6827 5.21929 14.301 4.48249 13.5904C3.66457 12.8033 3.25 11.624 3.25 10.0834C3.25 8.5428 3.66457 7.36353 4.48249 6.57642C5.21869 5.86642 6.27344 5.48478 7.61695 5.43838V5.16745C7.61695 4.15905 7.86064 3.42236 8.35924 2.91815C8.86905 2.40555 9.61134 2.15625 10.631 2.15625H17.7318C18.7626 2.15625 19.5049 2.39995 20.0035 2.90135C20.5021 3.40275 20.743 4.14224 20.743 5.16745V18.8229C20.743 19.8593 20.4993 20.6044 19.9979 21.103C19.5021 21.596 18.7598 21.8341 17.7318 21.8341ZM8.17717 5.43819V5.16745C8.17717 4.31311 8.36765 3.70527 8.7598 3.31031C9.15756 2.90975 9.76821 2.71647 10.631 2.71647H17.7318C18.6057 2.71647 19.222 2.90975 19.6085 3.29631C19.9951 3.68286 20.1828 4.29631 20.1828 5.16745V18.8229C20.1828 20.5652 19.4741 21.2739 17.7318 21.2739H10.631C8.89146 21.2739 8.17997 20.5652 8.17997 18.8229V14.7286C9.52482 14.6826 10.5805 14.3009 11.3172 13.5904C12.1352 12.8033 12.5497 11.624 12.5497 10.0834C12.5497 8.5428 12.1352 7.36353 11.3172 6.57642C10.58 5.86544 9.52335 5.48372 8.17717 5.43819ZM7.90028 14.1731C9.23203 14.1725 10.2477 13.842 10.9251 13.1871C11.6282 12.5092 11.9839 11.4644 11.9839 10.0834C11.9839 8.70247 11.6282 7.65765 10.9251 6.97978C10.25 6.32432 9.23039 5.99378 7.89986 5.99378C6.56933 5.99378 5.54972 6.32432 4.86905 6.97978C4.16597 7.65765 3.80742 8.70247 3.80742 10.0834C3.80742 11.4644 4.16317 12.5092 4.86625 13.1871C5.54412 13.8425 6.56373 14.1731 7.89706 14.1731C7.89753 14.1731 7.89799 14.1731 7.89846 14.1731C7.89893 14.1731 7.89939 14.1731 7.89986 14.1731C7.9 14.1731 7.90014 14.1731 7.90028 14.1731ZM7.61975 11.7221C7.61975 11.8761 7.7458 12.0022 7.89986 12.0022C8.05392 12.0022 8.17997 11.8761 8.17997 11.7221V11.1759C8.17997 10.9966 8.52451 10.7137 8.77661 10.5092C8.80651 10.4841 8.83674 10.4594 8.86685 10.4347L8.86697 10.4346C8.92426 10.3877 8.98109 10.3412 9.03431 10.2935L9.03825 10.29C9.24205 10.1089 9.70729 9.69539 9.81583 9.0358C9.89706 8.54561 9.77381 8.07782 9.46849 7.71928C9.11555 7.30191 8.55812 7.07222 7.90266 7.07222C7.32843 7.07222 6.84104 7.26829 6.4909 7.64084C6.16317 7.98538 5.98389 8.46717 5.98389 8.99098V9.10863C5.98389 9.26269 6.10994 9.38874 6.26401 9.38874C6.41807 9.38874 6.54412 9.26269 6.54412 9.10863V8.99098C6.54412 8.61003 6.67017 8.26549 6.89986 8.0246C7.14076 7.76689 7.4881 7.63244 7.90266 7.63244C8.39006 7.63244 8.79622 7.7921 9.04272 8.08342C9.2416 8.31872 9.31723 8.61563 9.26401 8.94617C9.18838 9.41115 8.83543 9.72488 8.66457 9.87334C8.59174 9.93496 8.5105 10.0022 8.42367 10.0722C8.04552 10.3803 7.61975 10.7277 7.61975 11.1759V11.7221ZM7.89986 13.1562C8.0886 13.1562 8.2416 13.0032 8.2416 12.8145C8.2416 12.6258 8.0886 12.4728 7.89986 12.4728C7.71112 12.4728 7.55812 12.6258 7.55812 12.8145C7.55812 13.0032 7.71112 13.1562 7.89986 13.1562ZM13.3536 18.6605C13.3536 18.0918 13.6814 17.8257 14.1856 17.8257C14.6898 17.8257 15.0175 18.0918 15.0175 18.6605C15.0175 18.935 14.9419 19.1366 14.8074 19.2739C14.6618 19.4224 14.4461 19.4952 14.1856 19.4952C13.9251 19.4952 13.7094 19.4224 13.5637 19.2739C13.4293 19.1366 13.3536 18.935 13.3536 18.6605Z" fill="#313235"/>
</svg>
