<svg width="24" height="24" viewBox="0 0 24 24" fill="none" xmlns="http://www.w3.org/2000/svg">
<path fill-rule="evenodd" clip-rule="evenodd" d="M16.0247 18.5827C15.9379 18.5827 15.8483 18.5687 15.7614 18.5435L10.3048 16.9004L10.106 17.5322C10.0415 17.7423 9.89869 17.9132 9.70261 18.014C9.58496 18.0785 9.45611 18.1093 9.32446 18.1093C9.24322 18.1093 9.15919 18.0981 9.07796 18.0701L6.80905 17.3586C6.37768 17.2241 6.13678 16.7619 6.27123 16.3306L6.45651 15.7416L3.24617 14.775C3.1913 15.0124 2.97982 15.1877 2.72502 15.1877C2.4281 15.1877 2.19 14.9468 2.19 14.6527V9.36978C2.19 9.07286 2.4309 8.83477 2.72502 8.83477C2.97714 8.83477 3.19015 9.01178 3.24584 9.2476L15.7614 5.47902C16.0359 5.39499 16.3301 5.44821 16.5626 5.62188C16.8091 5.80395 16.9547 6.09807 16.9547 6.4118V17.6135C16.9547 17.9244 16.809 18.2213 16.5654 18.4006C16.4029 18.521 16.2152 18.5827 16.0247 18.5827ZM3.29364 13.6723L15.8847 17.465V6.56026L3.29364 10.3502V13.6723ZM19.0836 8.21572C18.9435 8.21572 18.8034 8.1625 18.697 8.05606C18.4841 7.84317 18.4841 7.49583 18.697 7.28295L20.2432 5.73673C20.4561 5.52384 20.8034 5.52384 21.0163 5.73673C21.2292 5.94961 21.2292 6.29695 21.0163 6.50984L19.4701 8.05606C19.3637 8.1625 19.2236 8.21572 19.0836 8.21572ZM19.1508 12.325C18.8483 12.325 18.6046 12.0813 18.6046 11.7787C18.6046 11.4762 18.8483 11.2325 19.1508 11.2325H21.3357C21.6382 11.2325 21.8819 11.4762 21.8819 11.7787C21.8819 12.0813 21.6382 12.325 21.3357 12.325H19.1508ZM7.39729 16.4006L9.14518 16.9496L9.21521 16.7255L7.46731 16.1765L7.39729 16.4006ZM20.2348 17.7563C20.3413 17.8628 20.4813 17.916 20.6214 17.916C20.7614 17.916 20.9015 17.8628 21.0079 17.7563C21.2208 17.5435 21.2208 17.1961 21.0079 16.9832L19.5009 15.4762C19.288 15.2633 18.9407 15.2633 18.7278 15.4762C18.5149 15.6891 18.5149 16.0364 18.7278 16.2493L20.2348 17.7563Z" fill="#313235"/>
</svg>
