<svg width="24" height="24" viewBox="0 0 24 24" fill="none" xmlns="http://www.w3.org/2000/svg">
<path fill-rule="evenodd" clip-rule="evenodd" d="M18.1367 8.22726C18.2096 8.29729 20.9659 11.3505 21.5849 15.0088C22.0471 17.7343 21.9098 19.3057 21.1367 20.0956C21.0611 20.1712 20.6465 20.5634 19.9715 20.5942C19.9295 20.597 19.8847 20.597 19.8427 20.597H19.8426C18.8622 20.597 18.2656 20.09 17.9042 19.7819L17.8202 19.7119C17.5065 19.4485 17.3748 19.3393 16.9547 19.3393H16.9463C16.5065 19.3393 15.4533 19.2441 15.3216 19.2077C14.344 18.9499 13.8006 18.1628 13.8006 16.9948C13.7698 16.2833 13.711 14.8323 13.683 13.3449L11.9295 12.4598L10.3272 13.2665C10.2992 14.7651 10.2404 16.2357 10.2096 16.9528C10.2096 18.118 9.66615 18.9023 8.68295 19.1628C8.5541 19.1992 7.50088 19.2945 7.06391 19.2945C6.64374 19.3141 6.50648 19.4037 6.18996 19.667L6.10592 19.7371C5.74458 20.0452 5.14794 20.5522 4.16755 20.5522C4.12553 20.5522 4.08352 20.5522 4.0387 20.5494C3.36083 20.5186 2.94906 20.1264 2.87343 20.048C2.10032 19.2581 1.96307 17.6866 2.42525 14.9612C3.0471 11.3029 5.8006 8.24967 5.91825 8.12082C6.34402 7.44575 7.00228 7.0872 7.89304 7.0872C8.93506 7.0872 9.66335 7.54939 9.94066 8.38973C10.0051 8.48776 10.0835 8.69785 10.1647 8.98076C10.2376 9.22726 10.2796 9.68664 10.3076 10.2525L10.6549 10.076V4.20765C10.6549 3.74547 11.0247 3.37012 11.4785 3.37012H12.5149C12.9687 3.37012 13.3384 3.74547 13.3384 4.20765V10.09L13.7054 10.2749C13.7306 9.72026 13.7754 9.26928 13.8454 9.02558C13.9267 8.73987 14.0051 8.53538 14.1003 8.36451C14.3468 7.59701 15.0751 7.13482 16.1171 7.13482C17.0051 7.13482 17.6661 7.49337 18.1367 8.22726ZM11.7474 11.6054C11.8622 11.5466 12.0023 11.5466 12.1199 11.6054L13.6746 12.3953C13.6718 11.9892 13.6718 11.5914 13.6774 11.2189L12.7334 10.7427C12.5905 10.6698 12.5009 10.5242 12.5009 10.3617V4.21325L11.4785 4.22726L11.4925 10.3449C11.4925 10.5074 11.4028 10.653 11.26 10.7259L10.3356 11.1908C10.3412 11.5466 10.344 11.9247 10.3412 12.3141L11.7474 11.6054ZM19.9379 19.7455C20.3104 19.7287 20.5345 19.5074 20.5429 19.499C21.0807 18.9443 21.1535 17.4822 20.753 15.1488C20.176 11.7455 17.5009 8.77628 17.4729 8.74547C17.1143 8.19365 16.7222 7.98356 16.1143 7.98356C15.1003 7.98356 14.9211 8.52698 14.8622 8.70625C14.7698 8.88832 14.711 9.04239 14.6493 9.26367C14.4393 10.0032 14.4897 13.6642 14.6381 16.9612C14.6381 18.0312 15.1507 18.2861 15.5373 18.3869C15.5966 18.3956 15.9738 18.4217 16.3481 18.4476C16.5752 18.4633 16.8013 18.4789 16.9547 18.4906C17.6742 18.4906 17.9883 18.7516 18.3504 19.0524L18.3552 19.0564L18.4449 19.132L18.4449 19.1321C18.7839 19.4206 19.1984 19.7735 19.9379 19.7455ZM9.37483 16.9528C9.37483 17.9864 8.86223 18.2413 8.49808 18.3365C8.38043 18.3561 7.46167 18.4289 7.0583 18.4457C6.33842 18.4457 6.02469 18.7063 5.66055 19.0116L5.57091 19.0872L5.54464 19.1094C5.21114 19.391 4.81204 19.7279 4.07791 19.7006C3.70536 19.6838 3.48127 19.4626 3.47287 19.4542C2.93506 18.8995 2.86223 17.4373 3.25438 15.1096C3.80598 11.8563 6.2773 8.99709 6.55526 8.67552C6.56807 8.66069 6.57623 8.65126 6.57931 8.64743C6.89584 8.15443 7.288 7.94435 7.89584 7.94435C8.8034 7.94435 9.0443 8.35611 9.17875 8.73706C9.24038 8.85191 9.2992 9.00597 9.36083 9.22446C9.57371 9.96115 9.52049 13.6194 9.37483 16.9528Z" fill="#313235"/>
</svg>
