<svg width="24" height="24" viewBox="0 0 24 24" fill="none" xmlns="http://www.w3.org/2000/svg">
<path fill-rule="evenodd" clip-rule="evenodd" d="M18.1483 8.0844C18.4929 8.47095 20.9971 11.3925 21.5853 14.8631C22.0503 17.611 21.899 19.2076 21.0895 20.0424C21.0027 20.132 20.5433 20.5634 19.8122 20.5942C19.7894 20.5942 19.7666 20.5949 19.7442 20.5956C19.7225 20.5963 19.7012 20.597 19.6805 20.597C18.6463 20.597 18.006 20.0532 17.652 19.7526L17.6469 19.7482L17.5685 19.681C17.2716 19.4317 17.1903 19.3645 16.8514 19.3645H16.8458C16.4564 19.3645 15.3724 19.2749 15.2015 19.2272C14.1427 18.9499 13.5573 18.1068 13.5573 16.8547C13.5265 16.16 13.4705 14.7398 13.4452 13.2777L11.9915 12.5438L10.5629 13.2637C10.5377 14.7174 10.4817 16.1292 10.4509 16.8239C10.4509 18.062 9.86542 18.9051 8.80099 19.1852C8.63853 19.23 7.5629 19.3225 7.15394 19.3197C6.8178 19.3197 6.73657 19.3869 6.43685 19.6362L6.35842 19.7034L6.35332 19.7078C5.99931 20.0084 5.35904 20.5522 4.32481 20.5522C4.28279 20.5522 4.23798 20.5522 4.19316 20.5494C3.46207 20.5186 3.00268 20.0872 2.91865 20.0003C2.10913 19.1684 1.95507 17.5718 2.42005 14.8211C3.00829 11.3477 5.51248 8.42893 5.85702 8.03958C6.35562 7.28328 7.0503 6.91633 7.97747 6.91633C9.43125 6.91633 9.96626 7.74826 10.1567 8.28328C10.2436 8.45134 10.3192 8.65302 10.3976 8.92473V8.92753C10.4621 9.15162 10.5041 9.53537 10.5321 10.0172L10.5657 10.0004V4.31689C10.5657 3.79589 10.9831 3.37012 11.4957 3.37012H12.5097C13.0223 3.37012 13.4396 3.79589 13.4396 4.31689V10.0144L13.4733 10.0312C13.4985 9.56339 13.5433 9.19084 13.6049 8.97235C13.6805 8.70624 13.759 8.49896 13.8458 8.32809C14.0391 7.79308 14.5741 6.96115 16.0279 6.96115C16.955 6.96115 17.6497 7.32809 18.1483 8.0844ZM10.5741 12.0424L11.7506 11.4485C11.9018 11.3729 12.0783 11.3729 12.224 11.4485L13.4256 12.0564C13.4256 11.7707 13.4284 11.4934 13.4312 11.2244L12.6693 10.8379C12.4873 10.7455 12.3724 10.5578 12.3724 10.3505V4.45695H11.6329V10.3365C11.6329 10.5438 11.5153 10.7315 11.336 10.8239L10.5685 11.2104C10.5741 11.4793 10.5741 11.7567 10.5741 12.0424ZM20.2134 19.1586L20.2183 19.1544C20.5433 18.8211 20.8374 17.8351 20.3668 15.076C19.8122 11.7987 17.2296 8.92473 17.2043 8.89672C17.1819 8.87151 17.1595 8.8407 17.1399 8.81269C16.8682 8.38972 16.5461 8.21605 16.0223 8.21605C15.1791 8.21605 15.0475 8.61101 14.9915 8.78187C14.9803 8.81829 14.9635 8.8519 14.9466 8.88552C14.8962 8.98075 14.843 9.12361 14.787 9.31969C14.5881 10.02 14.6441 13.6922 14.7814 16.8071C14.7842 17.7062 15.1511 17.9163 15.5097 18.0116C15.5909 18.0228 16.4592 18.1068 16.8374 18.1068H16.8458C17.6273 18.1068 17.9943 18.4121 18.3472 18.709L18.4368 18.7847C18.759 19.0592 19.1287 19.3729 19.759 19.3393C20.017 19.329 20.1824 19.1855 20.2134 19.1586ZM9.21836 16.8071C9.21836 17.6614 8.85141 17.8743 8.53209 17.9583C8.41164 17.9779 7.54609 18.062 7.16514 18.062H7.15674C6.37803 18.062 6.01108 18.3673 5.65814 18.6642L5.56851 18.7398L5.56738 18.7408C5.24832 19.0151 4.88428 19.328 4.24638 19.2945C3.9923 19.2843 3.8281 19.1451 3.79769 19.1193L3.79767 19.1193C3.79457 19.1166 3.79286 19.1152 3.7926 19.1152C3.46487 18.7763 3.17075 17.7931 3.63574 15.0312C4.19036 11.7539 6.77018 8.87991 6.7982 8.8491C6.82061 8.82389 6.84301 8.79588 6.86262 8.76507C7.13153 8.3421 7.45646 8.16843 7.98027 8.16843C8.82252 8.16843 8.95392 8.56273 9.01034 8.73205L9.01108 8.73425C9.02228 8.77067 9.03909 8.80708 9.0587 8.8435C9.10912 8.93594 9.15954 9.07319 9.21836 9.27487C9.41444 9.97795 9.35842 13.6502 9.21836 16.8071Z" fill="#313235"/>
</svg>
