<svg width="24" height="24" viewBox="0 0 24 24" fill="none" xmlns="http://www.w3.org/2000/svg">
<path fill-rule="evenodd" clip-rule="evenodd" d="M16.8463 2.16832L21.3225 2.90501C21.625 2.95543 21.8491 3.21593 21.8491 3.52406V20.4792C21.8491 20.6641 21.7678 20.8378 21.6278 20.9582C21.4849 21.0759 21.3001 21.1263 21.118 21.0983L16.7903 20.384L12.1936 21.8154C12.132 21.8322 12.0676 21.8434 12.0059 21.8434C11.9415 21.8434 11.8743 21.8322 11.8127 21.8126L7.4093 20.384L2.88829 21.0983C2.70622 21.1263 2.52135 21.0759 2.38129 20.9554C2.24124 20.8378 2.16 20.6641 2.16 20.4792V3.52686C2.16 3.21874 2.38409 2.95263 2.68942 2.90501L7.35888 2.16832C7.36748 2.16688 7.37535 2.16838 7.38286 2.16981C7.39002 2.17118 7.39686 2.17248 7.4037 2.17112C7.41005 2.17006 7.4164 2.1682 7.42291 2.1663C7.43361 2.16316 7.44472 2.15991 7.45692 2.15991C7.4864 2.15991 7.51224 2.16718 7.53843 2.17455C7.55206 2.17838 7.56579 2.18225 7.58017 2.18512C7.59164 2.18767 7.60252 2.18732 7.61336 2.18697C7.62634 2.18656 7.63926 2.18614 7.653 2.19072L12.0087 3.60249L16.5578 2.18792C16.57 2.18334 16.5831 2.18376 16.596 2.18417C16.6069 2.18452 16.6176 2.18487 16.6278 2.18232C16.6392 2.17988 16.6503 2.17697 16.6615 2.17406C16.6886 2.16696 16.7156 2.15991 16.7454 2.15991C16.757 2.15991 16.7676 2.16284 16.7784 2.16581C16.7859 2.16788 16.7934 2.16997 16.8015 2.17112C16.807 2.17112 16.8129 2.17025 16.819 2.16937C16.8283 2.16801 16.8378 2.16662 16.8463 2.16832ZM3.42051 4.06187L6.83227 3.52406V19.2075L3.42051 19.7481V4.06187ZM20.5914 19.7397L17.3729 19.2103V3.52966L20.5914 4.05907V19.7397ZM16.1152 3.6417L12.6334 4.72574V20.3672L16.1152 19.2832V3.6417ZM8.08717 3.65291L11.3785 4.72014V20.3532L8.08717 19.286V3.65291Z" fill="#313235"/>
</svg>
