<svg width="24" height="24" viewBox="0 0 24 24" fill="none" xmlns="http://www.w3.org/2000/svg">
<path fill-rule="evenodd" clip-rule="evenodd" d="M16.9191 2.16551L21.5017 2.91902C21.7006 2.95263 21.8463 3.1235 21.8435 3.32518V20.6837C21.8435 20.7061 21.8407 20.7313 21.8379 20.7537C21.8015 20.975 21.5886 21.1235 21.3673 21.0871L16.8799 20.3476L12.1208 21.8266C12.0424 21.8518 11.9555 21.8518 11.8743 21.8238L7.31407 20.3476L2.63339 21.0843L2.62671 21.0851C2.60701 21.0876 2.58912 21.0899 2.56897 21.0899C2.34488 21.0899 2.16 20.9078 2.16 20.6809V3.32518C2.16 3.1235 2.30566 2.94983 2.50734 2.91902L7.28325 2.16551C7.28745 2.16551 7.29236 2.16621 7.29726 2.16691C7.30216 2.16762 7.30706 2.16832 7.31126 2.16832C7.31679 2.16721 7.32188 2.16567 7.3267 2.16421C7.33411 2.16197 7.34089 2.15991 7.34768 2.15991C7.36596 2.15991 7.38304 2.16468 7.40049 2.16955C7.40978 2.17215 7.41918 2.17477 7.42891 2.17672C7.4349 2.17792 7.4414 2.17758 7.44797 2.17724C7.45677 2.17678 7.46571 2.17631 7.47373 2.17952L12.0059 3.64731L16.7342 2.17672C16.7423 2.17351 16.7512 2.17398 16.76 2.17443C16.7666 2.17478 16.7731 2.17512 16.7791 2.17392C16.7896 2.17274 16.7997 2.1701 16.8099 2.16741C16.824 2.1637 16.8384 2.15991 16.8547 2.15991C16.8617 2.15991 16.8673 2.16201 16.8729 2.16411C16.8785 2.16621 16.8841 2.16832 16.8911 2.16832C16.8943 2.16832 16.8975 2.1675 16.9008 2.16665C16.9063 2.16527 16.9122 2.16378 16.9191 2.16551ZM2.98073 3.67532L6.93871 3.05067V19.5773L2.98073 20.2019V3.67532ZM21.0256 20.1991L17.2636 19.5801V3.05347L21.0256 3.67252V20.1991ZM16.4429 3.1263L12.4121 4.3812V20.877L16.4429 19.6249V3.1263ZM7.75944 3.1347L11.5942 4.3784V20.8714L7.75944 19.6277V3.1347Z" fill="#313235"/>
</svg>
