<svg width="24" height="24" viewBox="0 0 24 24" fill="none" xmlns="http://www.w3.org/2000/svg">
<path fill-rule="evenodd" clip-rule="evenodd" d="M19.2899 4.73669C19.2899 4.04201 18.542 3.43137 17.6877 3.43137H14.7353C14.3739 2.70868 13.5924 2 11.9061 2C10.5224 2 9.55041 2.51541 9.07982 3.42857H6.12464C5.27311 3.42857 4.52521 4.03921 4.52521 4.73389V20.3809C4.52521 21.0868 5.2591 21.6862 6.12745 21.6862H17.6877C18.556 21.6862 19.2899 21.0896 19.2899 20.3809V4.73669ZM11.9061 3.17927C10.2339 3.17927 9.98178 4.0168 9.94817 4.74789L9.94257 4.88795L9.94265 4.88993C9.95384 5.15874 9.96973 5.54061 11.9061 5.54061C13.8473 5.54061 13.8613 5.15406 13.8669 4.92717V4.80952C13.8613 4.59663 13.8305 4.38655 13.7689 4.18207C13.6933 3.93277 13.4552 3.17927 11.9061 3.17927ZM17.6877 20.507C17.9201 20.507 18.0882 20.3837 18.1106 20.3361L18.1022 4.73669C18.0977 4.73669 18.0843 4.72971 18.0638 4.71899C17.9962 4.68367 17.851 4.60784 17.6877 4.60784H15.0406C15.0416 4.61932 15.0431 4.63002 15.0445 4.64038L15.0445 4.64039L15.0445 4.64046C15.0468 4.65788 15.049 4.67432 15.049 4.69187L15.0574 4.88515L15.0546 4.99159C15.0014 6.50139 13.5112 6.71428 11.9089 6.71428C10.3067 6.71428 8.81652 6.50139 8.76049 4.96358L8.75769 4.88515L8.76049 4.7591L8.7689 4.65826C8.7689 4.64986 8.7703 4.64075 8.7717 4.63165C8.7731 4.62254 8.7745 4.61344 8.7745 4.60504H6.12464C5.90896 4.60504 5.72689 4.73669 5.69607 4.78991L5.70728 20.3781C5.71038 20.3786 5.71863 20.3834 5.73148 20.3907C5.7883 20.4231 5.93505 20.507 6.12464 20.507H17.6877ZM11.2115 5.13165C10.9061 5.13165 10.6597 4.88795 10.6568 4.58263C10.6568 4.28011 10.9033 4.03361 11.2115 4.03361H12.6036C12.9089 4.03361 13.1554 4.28011 13.1554 4.58263C13.1554 4.88515 12.9089 5.13165 12.6036 5.13165H11.2115ZM17.5084 14.0952C17.5084 13.7927 17.2619 13.5462 16.9566 13.5462C16.9566 13.5462 15.3935 13.5462 15.3963 13.5406L14.64 11.4005C14.5588 11.1765 14.3431 11.0308 14.105 11.0336C13.8641 11.0392 13.6568 11.1989 13.5868 11.4286L12.9622 13.5434H12.4328C12.2143 13.5434 12.0182 13.6694 11.9286 13.8683L11.5784 14.6442L10.6176 9.87394C10.5672 9.62744 10.3571 9.44537 10.105 9.43416C9.85293 9.41735 9.62044 9.57702 9.54761 9.82071L8.40475 13.4902H6.85574C6.54761 13.4902 6.30111 13.7367 6.30111 14.0392C6.30392 14.3445 6.55041 14.5882 6.85574 14.5882H8.81091C9.05461 14.5882 9.2675 14.4314 9.34033 14.2017L9.95937 12.2129L10.8333 16.549C10.8697 16.7255 10.9874 16.8711 11.1498 16.944C11.4272 17.07 11.7549 16.9468 11.8809 16.6666L12.7913 14.6442H13.3767C13.6212 14.6443 13.8366 14.4836 13.9061 14.2493L14.1638 13.3809L14.4804 14.2773C14.5588 14.4986 14.7661 14.6442 15.0014 14.6442H16.9566C17.2619 14.6442 17.5084 14.3977 17.5084 14.0952Z" fill="#313235"/>
</svg>
