<svg width="24" height="24" viewBox="0 0 24 24" fill="none" xmlns="http://www.w3.org/2000/svg">
<path fill-rule="evenodd" clip-rule="evenodd" d="M3.00311 6.24155C2.54373 6.24716 2.16838 5.88021 2.15997 5.42083C2.15997 4.96985 2.53812 4.6001 3.00311 4.6001H21.0003C21.4653 4.6001 21.8434 4.96704 21.8434 5.42083C21.835 5.88021 21.4597 6.24716 21.0003 6.24155H3.00311ZM21.0031 11.1631C21.4681 11.1631 21.8462 11.5301 21.8462 11.9839C21.8406 12.4432 21.4625 12.8102 21.0031 12.8046H3.00311C2.54373 12.8102 2.16558 12.4432 2.15997 11.9839C2.15997 11.5301 2.53812 11.1631 3.00311 11.1631H21.0031ZM21.8462 18.5469C21.8462 18.0931 21.4681 17.7261 21.0031 17.7261H3.00311C2.53812 17.7261 2.15997 18.0931 2.15997 18.5469C2.16558 19.0063 2.54373 19.3732 3.00311 19.3676H21.0031C21.4625 19.3732 21.8406 19.0063 21.8462 18.5469Z" fill="#313235"/>
</svg>
