<svg width="24" height="24" viewBox="0 0 24 24" fill="none" xmlns="http://www.w3.org/2000/svg">
<path fill-rule="evenodd" clip-rule="evenodd" d="M2.73984 5.73735C2.42051 5.73735 2.16 5.48245 2.16 5.16873C2.16 4.855 2.42051 4.6001 2.73984 4.6001H21.2692C21.5886 4.6001 21.8491 4.855 21.8491 5.16873C21.8491 5.48245 21.5886 5.73735 21.2692 5.73735H2.73984ZM21.2664 11.4152C21.5858 11.4152 21.8463 11.6701 21.8463 11.9839C21.8463 12.2976 21.5858 12.5525 21.2664 12.5525H2.73984C2.42051 12.5525 2.16 12.2976 2.16 11.9839C2.16 11.6701 2.42051 11.4152 2.73984 11.4152H21.2664ZM21.8463 18.799C21.8463 18.4853 21.5858 18.2303 21.2664 18.2303H2.73984C2.42051 18.2303 2.16 18.4853 2.16 18.799C2.16 19.1127 2.42051 19.3676 2.73984 19.3676H21.2664C21.5858 19.3676 21.8463 19.1127 21.8463 18.799Z" fill="#313235"/>
</svg>
