<svg width="24" height="24" viewBox="0 0 24 24" fill="none" xmlns="http://www.w3.org/2000/svg">
<path fill-rule="evenodd" clip-rule="evenodd" d="M11.9927 2.15991C14.9143 2.15991 16.5221 3.77056 16.5221 6.69212V13.412C16.5221 16.3336 14.9143 17.9442 11.9927 17.9442C9.07116 17.9442 7.46332 16.3336 7.46332 13.412V6.69212C7.46332 3.77056 9.07116 2.15991 11.9927 2.15991ZM15.3009 13.412V6.69212C15.3009 4.46523 14.2196 3.3812 11.9927 3.3812C9.76584 3.3812 8.68461 4.46243 8.68461 6.69212V13.412C8.68461 15.6389 9.76584 16.7229 11.9927 16.7229C14.2196 16.7229 15.3009 15.6389 15.3009 13.412ZM12.9703 20.891C12.9703 20.3616 12.5417 19.933 12.0151 19.933C11.4885 19.933 11.06 20.3616 11.06 20.891C11.06 21.4176 11.4885 21.8462 12.0151 21.8462C12.5417 21.8462 12.9703 21.4176 12.9703 20.891ZM15.3429 18.9778C15.8695 18.9778 16.2981 19.4064 16.2981 19.933C16.2981 20.4624 15.8695 20.891 15.3429 20.891C14.8163 20.891 14.3877 20.4624 14.3877 19.933C14.3877 19.4064 14.8163 18.9778 15.3429 18.9778ZM18.9703 17.6529C18.9703 17.1263 18.5417 16.6977 18.0151 16.6977C17.4885 16.6977 17.06 17.1263 17.06 17.6529C17.06 18.1795 17.4885 18.6081 18.0151 18.6081C18.5417 18.6081 18.9703 18.1823 18.9703 17.6529ZM18.9703 13.4428C19.4213 13.4428 19.7854 13.807 19.7854 14.258C19.7854 14.7089 19.4213 15.0731 18.9703 15.0731C18.5193 15.0731 18.1552 14.7089 18.1552 14.258C18.1552 13.8098 18.5193 13.4428 18.9703 13.4428ZM9.59777 19.933C9.59777 19.4064 9.1692 18.9778 8.64259 18.9778C8.11598 18.9778 7.68461 19.4064 7.68741 19.933C7.68741 20.4624 8.11598 20.891 8.64259 20.891C9.1692 20.891 9.59777 20.4624 9.59777 19.933ZM5.97032 16.6977C6.49693 16.6977 6.9255 17.1263 6.9255 17.6529C6.9255 18.1823 6.49693 18.6081 5.97032 18.6081C5.44371 18.6081 5.01514 18.1795 5.01514 17.6529C5.01514 17.1263 5.44371 16.6977 5.97032 16.6977ZM5.01514 15.0759C5.46612 15.0759 5.83026 14.7117 5.83026 14.2608C5.83026 13.8098 5.46612 13.4428 5.01514 13.4456C4.56416 13.4456 4.20001 13.8098 4.20001 14.2608C4.20001 14.7117 4.56416 15.0759 5.01514 15.0759Z" fill="#313235"/>
</svg>
