<svg width="24" height="24" viewBox="0 0 24 24" fill="none" xmlns="http://www.w3.org/2000/svg">
<path fill-rule="evenodd" clip-rule="evenodd" d="M16.3177 6.53526C16.3177 3.71453 14.7827 2.15991 11.9928 2.15991C9.20285 2.15991 7.66503 3.71453 7.66503 6.53526V13.3252C7.66503 16.1459 9.20004 17.7005 11.99 17.7005C14.7827 17.7005 16.3177 16.1459 16.3177 13.3252V6.53526ZM12.9704 20.8798C12.9704 20.3448 12.5418 19.9134 12.0152 19.9134C11.4886 19.9134 11.06 20.3448 11.06 20.8798C11.0572 21.4092 11.4858 21.8434 12.0152 21.8462C12.5418 21.8462 12.9704 21.412 12.9704 20.8798ZM15.3429 18.947C15.8695 18.947 16.2981 19.3784 16.2981 19.9134C16.2981 20.4456 15.8695 20.8798 15.3429 20.8798C14.8135 20.877 14.3849 20.4456 14.3877 19.9134C14.3877 19.3784 14.8163 18.947 15.3429 18.947ZM18.9704 17.6109C18.9704 17.0759 18.5418 16.6445 18.0152 16.6445C17.4858 16.6445 17.06 17.0787 17.06 17.6109C17.0572 18.1403 17.4858 18.5745 18.0152 18.5773C18.5418 18.5773 18.9704 18.1431 18.9704 17.6109ZM18.9704 13.356C19.4241 13.3588 19.7883 13.7285 19.7855 14.1795C19.7883 14.6333 19.4241 15.003 18.9704 15.0058C18.5166 15.003 18.1524 14.6333 18.1552 14.1795C18.1524 13.7257 18.5166 13.3588 18.9704 13.356ZM9.5978 19.9134C9.5978 19.3784 9.16923 18.947 8.64262 18.947C8.11321 18.947 7.68464 19.3784 7.68744 19.9134C7.68464 20.4456 8.11321 20.877 8.64262 20.8798C9.16923 20.8798 9.5978 20.4456 9.5978 19.9134ZM5.97035 16.6445C6.49696 16.6445 6.92553 17.0759 6.92553 17.6109C6.92553 18.1431 6.49696 18.5773 5.97035 18.5773C5.44094 18.5745 5.01237 18.1403 5.01517 17.6109C5.01517 17.0787 5.44094 16.6445 5.97035 16.6445ZM5.01517 15.0058C5.46895 15.003 5.8331 14.6333 5.8303 14.1795C5.8331 13.7257 5.46895 13.3588 5.01517 13.356C4.56139 13.3588 4.19724 13.7257 4.20004 14.1795C4.19724 14.6333 4.56139 15.003 5.01517 15.0058Z" fill="#313235"/>
</svg>
