<svg width="24" height="24" viewBox="0 0 24 24" fill="none" xmlns="http://www.w3.org/2000/svg">
<path fill-rule="evenodd" clip-rule="evenodd" d="M21.8434 12.0059C21.8434 12.2327 21.6586 12.4176 21.4317 12.4176L18.6054 12.4148V14.0647H21.4401C21.6558 14.0759 21.8266 14.2467 21.835 14.4596C21.8434 14.6893 21.667 14.8798 21.4401 14.891H18.611V17.5381C18.611 18.1095 18.0815 18.6109 17.4793 18.6109H14.8967V21.4316C14.8967 21.6585 14.7118 21.8434 14.4849 21.8434C14.258 21.8434 14.0731 21.6585 14.0731 21.4316V18.6109H12.4233V21.4316C12.4233 21.6585 12.2384 21.8434 12.0115 21.8434C11.7846 21.8434 11.5997 21.6585 11.5997 21.4316V18.6109H9.94989V21.4316C9.93868 21.6473 9.76782 21.8182 9.55493 21.8266C9.32524 21.835 9.13476 21.6585 9.12356 21.4316V18.6109H6.54093C5.93868 18.6109 5.40927 18.1095 5.40927 17.5381V14.891H2.57174C2.34485 14.891 2.15997 14.7061 2.15997 14.4792C2.15997 14.2523 2.34485 14.0675 2.57174 14.0675H5.40927V12.4176H2.57174C2.34485 12.4176 2.15997 12.2327 2.15997 12.0059C2.15997 11.779 2.34485 11.5941 2.57174 11.5941H5.40927V9.94423H2.57174C2.34485 9.94423 2.15997 9.75935 2.15997 9.53246C2.15997 9.30277 2.34485 9.1179 2.57174 9.1179H5.40647V6.49605C5.40647 5.93022 5.94709 5.41481 6.53812 5.41481H9.12076V2.57168C9.12076 2.34479 9.30563 2.15991 9.53252 2.15991C9.76221 2.15991 9.94709 2.34479 9.94709 2.57168V5.41481H11.5969V2.57168C11.5969 2.34479 11.7818 2.15991 12.0087 2.15991C12.2356 2.15991 12.4205 2.34479 12.4205 2.57168V5.41481H14.0703V2.57168C14.0703 2.34479 14.2552 2.15991 14.4821 2.15991C14.709 2.15991 14.8939 2.34479 14.8911 2.57168V5.41762H17.4737C18.0675 5.41762 18.6054 5.93302 18.6054 6.49885V9.1207H21.4345C21.6614 9.1207 21.8462 9.30557 21.8462 9.53246C21.8462 9.75935 21.6614 9.94423 21.4345 9.94423H18.6054V11.5941H21.4317C21.6586 11.5941 21.8434 11.779 21.8434 12.0059ZM17.4737 17.7874C17.6278 17.7874 17.779 17.6473 17.779 17.5409V6.49885C17.779 6.39801 17.6166 6.24395 17.4737 6.24395H6.54093C6.39807 6.24395 6.2356 6.39801 6.2356 6.49885V17.5409C6.2356 17.6501 6.37846 17.7874 6.54093 17.7874H17.4737Z" fill="#313235"/>
</svg>
