<svg width="24" height="24" viewBox="0 0 24 24" fill="none" xmlns="http://www.w3.org/2000/svg">
<path fill-rule="evenodd" clip-rule="evenodd" d="M21.8434 12.0059C21.8434 12.3392 21.5717 12.6109 21.2384 12.6109H18.6698V13.8238H21.2384C21.5717 13.8238 21.8434 14.0955 21.8434 14.4288C21.8434 14.7622 21.5717 15.0339 21.2384 15.0339H18.6698V17.426C18.6698 18.0927 18.0591 18.6781 17.3617 18.6781H15.0339V21.2383C15.0339 21.5717 14.7622 21.8434 14.4289 21.8434C14.0955 21.8434 13.8238 21.5717 13.8238 21.2383V18.6781H12.611V21.2383C12.611 21.5717 12.3392 21.8434 12.0059 21.8434C11.6726 21.8434 11.4009 21.5717 11.4009 21.2383V18.6781H10.188V21.2383C10.188 21.5717 9.91628 21.8434 9.58294 21.8434C9.24961 21.8434 8.9779 21.5717 8.9779 21.2383V18.6781H6.65017C5.94149 18.6781 5.34205 18.1067 5.34205 17.426V15.0339H2.76502C2.43168 15.0339 2.15997 14.7622 2.15997 14.4288C2.15997 14.0955 2.43168 13.8238 2.76502 13.8238H5.34205V12.6109H2.76502C2.43168 12.6109 2.15997 12.3392 2.15997 12.0059C2.15997 11.6725 2.43168 11.4008 2.76502 11.4008H5.34205V10.1879H2.76502C2.43168 10.1879 2.15997 9.91621 2.15997 9.58288C2.15997 9.24955 2.43168 8.97784 2.76502 8.97784H5.34205V6.61089C5.34205 5.93862 5.95269 5.35039 6.65017 5.35039H8.9779V2.76495C8.9779 2.43162 9.24961 2.15991 9.58294 2.15991C9.91628 2.15991 10.188 2.43162 10.188 2.76495V5.35039H11.4009V2.76495C11.4009 2.43162 11.6726 2.15991 12.0059 2.15991C12.3392 2.15991 12.611 2.43162 12.611 2.76495V5.35039H13.8238V2.76495C13.8238 2.43162 14.0955 2.15991 14.4289 2.15991C14.7622 2.15991 15.0339 2.43162 15.0339 2.76495V5.35039H17.3617C18.0591 5.35039 18.6698 5.93862 18.6698 6.61089V8.97784H21.2384C21.5717 8.97784 21.8434 9.24955 21.8434 9.58288C21.8434 9.91621 21.5717 10.1879 21.2384 10.1879H18.6698V11.4008H21.2384C21.5717 11.4008 21.8434 11.6725 21.8434 12.0059ZM6.64737 17.468H17.3589C17.3981 17.468 17.4485 17.4288 17.4597 17.4092V14.4456C17.4597 14.4442 17.459 14.4421 17.4583 14.44C17.4576 14.4379 17.4569 14.4358 17.4569 14.4344C17.4569 14.4311 17.4579 14.4288 17.4586 14.4269C17.4592 14.4255 17.4597 14.4244 17.4597 14.4232V12.0171C17.4597 12.0157 17.459 12.0143 17.4583 12.0129C17.4576 12.0115 17.4569 12.0101 17.4569 12.0087C17.4569 12.0073 17.4576 12.0058 17.4583 12.0044C17.459 12.003 17.4597 12.0016 17.4597 12.0002V6.6361C17.4429 6.60529 17.3897 6.56888 17.3617 6.56607H6.65017C6.61936 6.56607 6.56053 6.61089 6.54933 6.6417V9.57168C6.54933 9.57448 6.55003 9.57658 6.55073 9.57868C6.55143 9.58078 6.55213 9.58288 6.55213 9.58568C6.55213 9.58848 6.55143 9.59058 6.55073 9.59269C6.55003 9.59479 6.54933 9.59689 6.54933 9.59969L6.55213 11.9974C6.55213 11.9988 6.55283 12.0002 6.55353 12.0016C6.55423 12.003 6.55493 12.0044 6.55493 12.0058C6.55493 12.0091 6.55397 12.0115 6.55317 12.0134C6.55261 12.0147 6.55213 12.0159 6.55213 12.0171V14.4288V14.4344V17.426C6.55306 17.4265 6.55506 17.4279 6.55796 17.4301C6.57258 17.4407 6.60997 17.468 6.64737 17.468Z" fill="#313235"/>
</svg>
