<svg width="24" height="24" viewBox="0 0 24 24" fill="none" xmlns="http://www.w3.org/2000/svg">
<path fill-rule="evenodd" clip-rule="evenodd" d="M20.9443 3.07028C21.5522 3.68652 21.8463 4.54927 21.8463 5.72294V18.2832C21.8463 19.4652 21.5522 20.3448 20.9359 20.9498C20.3281 21.5577 19.4597 21.8462 18.2861 21.8462H12.0115C10.8379 21.8462 9.97793 21.5577 9.36168 20.9498C8.82107 20.4092 8.52415 19.6613 8.46813 18.6753L8.45972 18.1263C8.35329 18.1347 8.25526 18.1347 8.14883 18.1347H8.1488C4.36729 18.1347 2.16 16.2215 2.16 12.1431C2.16 8.05347 4.36729 6.1403 8.1488 6.1403C8.24684 6.1403 8.35328 6.1403 8.45132 6.14871V5.72294C8.45132 4.57448 8.74544 3.71173 9.36168 3.08708C9.97793 2.46243 10.8463 2.15991 12.0115 2.15991H18.2861C19.4681 2.15991 20.3365 2.45403 20.9443 3.07028ZM21.0255 5.72294V18.2832C21.0255 19.2355 20.8127 19.9162 20.3617 20.37C19.9107 20.8154 19.2384 21.0283 18.2861 21.0283H12.0115C11.0676 21.0283 10.3869 20.8126 9.94432 20.37C9.54936 19.975 9.32807 19.4092 9.28045 18.6529V18.0703C12.3645 17.7173 14.1376 15.7958 14.1376 12.1431C14.1376 8.48204 12.3645 6.56047 9.27205 6.20753V5.72294C9.27205 4.79577 9.49334 4.1207 9.94432 3.66972C10.3953 3.20193 11.076 2.98064 12.0115 2.98064H18.2861C19.2384 2.98064 19.9191 3.20193 20.3617 3.65291C20.8127 4.09829 21.0255 4.77896 21.0255 5.72294ZM13.3169 12.1431C13.3169 15.6221 11.625 17.314 8.1488 17.314C4.66981 17.314 2.98073 15.6249 2.98073 12.1431C2.98073 8.66131 4.66981 6.96103 8.1488 6.96103C11.625 6.96103 13.3169 8.66411 13.3169 12.1431ZM16.2104 18.1347C16.2104 17.4624 15.8155 17.0675 15.1516 17.0675C14.4877 17.0675 14.0872 17.4624 14.0844 18.1347C14.0844 18.4568 14.1852 18.7201 14.3645 18.9078C14.5522 19.1039 14.8239 19.2019 15.1516 19.2019C15.4793 19.2019 15.751 19.1039 15.9387 18.9078C16.1208 18.7173 16.2104 18.454 16.2104 18.1347ZM6.33647 9.40641C6.56336 9.40641 6.74544 9.59128 6.74544 9.81537V14.6277C6.74544 14.8546 6.56056 15.0367 6.33647 15.0367C6.11238 15.0367 5.92751 14.8518 5.92751 14.6277V9.81818C5.92751 9.59128 6.11238 9.40641 6.33647 9.40641ZM10.2328 9.80137C10.2328 9.57448 10.0508 9.3896 9.82387 9.3896C9.59698 9.39241 9.41491 9.57448 9.41491 9.80137V14.6109C9.41491 14.835 9.59698 15.0199 9.82387 15.0199C10.048 15.0199 10.2328 14.8378 10.2328 14.6109V9.80137Z" fill="#313235"/>
</svg>
