<svg width="24" height="24" viewBox="0 0 24 24" fill="none" xmlns="http://www.w3.org/2000/svg">
<path fill-rule="evenodd" clip-rule="evenodd" d="M20.8967 3.10949C21.5381 3.75375 21.8462 4.64451 21.8462 5.85179V18.1543C21.8462 19.3672 21.5297 20.2692 20.8799 20.905C20.2384 21.5409 19.3364 21.8462 18.118 21.8462H11.9107C10.6922 21.8462 9.79023 21.5409 9.14037 20.9134C8.56614 20.342 8.25521 19.5717 8.19079 18.5493V18.003C8.16942 18.003 8.15095 18.0052 8.1328 18.0074L8.13279 18.0074L8.13277 18.0074C8.11524 18.0094 8.098 18.0115 8.07874 18.0115C4.33364 18.0115 2.15997 16.1375 2.15997 12.1403C2.15997 8.1347 4.33644 6.26075 8.07874 6.26075C8.10092 6.26075 8.11998 6.26309 8.13797 6.26531C8.15407 6.26728 8.16931 6.26916 8.18518 6.26916V5.84899C8.18518 4.65851 8.49331 3.77336 9.14317 3.1235C9.79023 2.47364 10.6922 2.15991 11.9107 2.15991H18.1208C19.3392 2.15991 20.2468 2.47364 20.8967 3.10949ZM20.6278 18.1543V5.85179C20.6278 4.98344 20.4345 4.36439 20.0283 3.96383C19.6222 3.56327 18.9975 3.3672 18.1208 3.3672H11.9107C11.0423 3.3672 10.4149 3.56888 10.0031 3.97784C9.59695 4.3868 9.40367 5.00025 9.40367 5.85179V6.35039C12.3336 6.75935 14.0143 8.6333 14.0143 12.1403C14.0143 15.6389 12.342 17.5044 9.41207 17.9218V18.5185C9.45409 19.1851 9.64737 19.7005 10.0031 20.0535C10.4093 20.4484 11.0339 20.6417 11.9107 20.6417H18.1208C18.9975 20.6417 19.6222 20.4484 20.0283 20.0535C20.4345 19.6501 20.6278 19.0339 20.6278 18.1543ZM11.6614 12.1375C11.6614 11.9218 11.5437 11.7229 11.3561 11.6137L6.65017 8.92182C6.56053 8.8686 6.45689 8.84058 6.35325 8.84058C6.01712 8.83778 5.73981 9.10669 5.737 9.44283V14.8322C5.73981 15.0479 5.85465 15.2467 6.04233 15.3532C6.23 15.4624 6.46249 15.4624 6.65017 15.3532L11.3561 12.6613C11.5437 12.5521 11.6614 12.3532 11.6614 12.1375ZM9.83504 12.1375L6.95549 13.7846V10.4876L9.83504 12.1375ZM12.7958 12.1403C12.7958 15.3168 11.2944 16.8042 8.07874 16.8042C4.87146 16.8042 3.37846 15.3168 3.37846 12.1403C3.37846 8.95823 4.87146 7.46804 8.07874 7.46804C11.2944 7.46804 12.7958 8.95543 12.7958 12.1403ZM13.9611 18.0087C13.9611 18.328 14.0535 18.5829 14.2356 18.7678C14.4205 18.9554 14.6894 19.0535 15.0143 19.0535C15.3392 19.0535 15.6082 18.9526 15.793 18.7678C15.9751 18.5829 16.0675 18.328 16.0675 18.0087C16.0675 17.3532 15.6726 16.961 15.0143 16.961C14.3561 16.961 13.9611 17.3532 13.9611 18.0087Z" fill="#313235"/>
</svg>
