<svg width="24" height="24" viewBox="0 0 24 24" fill="none" xmlns="http://www.w3.org/2000/svg">
<path fill-rule="evenodd" clip-rule="evenodd" d="M20.8883 3.1179C21.5381 3.75375 21.8462 4.65291 21.8462 5.84899V18.1487C21.8462 19.37 21.5297 20.272 20.8799 20.905C20.2384 21.5325 19.3364 21.8462 18.1208 21.8462H11.9135C10.695 21.8462 9.79583 21.5325 9.14597 20.905C8.56894 20.3336 8.26081 19.5633 8.19639 18.5521V18.0059H8.08154C4.34485 18.003 2.15997 16.1319 2.15997 12.1347C2.15997 8.1403 4.34485 6.26916 8.08434 6.26916H8.19079V5.84899C8.19079 4.66691 8.49891 3.77616 9.14597 3.1319C9.79583 2.48204 10.6978 2.15991 11.9135 2.15991H18.1208C19.3392 2.15991 20.2468 2.47364 20.8883 3.1179ZM20.6278 18.1487V5.84899C20.6278 4.98064 20.4345 4.36159 20.0283 3.96944C19.6222 3.56047 18.9975 3.36439 18.1208 3.36439H11.9135C11.0451 3.36439 10.4205 3.56607 10.0059 3.97504C9.59975 4.384 9.40647 4.99745 9.40647 5.84899V6.35599C12.3364 6.75655 14.0143 8.6305 14.0143 12.1347C14.0143 15.6305 12.342 17.5044 9.41207 17.9134V18.5073C9.45409 19.1823 9.64737 19.6977 10.0031 20.0423C10.4093 20.4428 11.0339 20.6389 11.9107 20.6389H18.118C18.9947 20.6389 19.6194 20.4456 20.0255 20.0423C20.4345 19.6501 20.6278 19.0339 20.6278 18.1487ZM9.94989 10.3532C9.94989 9.70613 9.737 9.24955 9.28042 8.91902C8.93028 8.65571 8.45409 8.52126 7.86305 8.52406C7.36445 8.52406 6.77622 8.6221 6.49611 8.75375C6.32804 8.83218 6.2356 9.01145 6.26922 9.19353L6.30843 9.39241C6.30843 9.39381 6.30913 9.39591 6.30983 9.39801C6.31053 9.40011 6.31123 9.40221 6.31123 9.40361C6.36446 9.6221 6.58574 9.75935 6.80703 9.70613C7.14597 9.6193 7.42888 9.58288 7.74541 9.58288C8.30563 9.58288 8.49611 9.67812 8.59975 9.76215C8.78182 9.90781 8.85185 10.0703 8.85185 10.3448C8.85185 10.7313 8.74261 10.9582 7.90787 11.9358L7.80983 12.0507C7.28882 12.6697 7.04233 13.0843 7.04233 13.765C7.03953 13.8994 7.05353 14.0339 7.07874 14.1655C7.11796 14.356 7.28322 14.4904 7.4765 14.4904H7.737C7.96109 14.4904 8.14317 14.3112 8.14317 14.0899C8.14317 13.7708 8.14317 13.582 8.19616 13.4095C8.27296 13.1594 8.46108 12.9436 8.92188 12.4148C9.62216 11.5941 9.94989 11.1235 9.94989 10.3532ZM8.30563 15.412C8.30563 15.0311 8.02552 14.7537 7.62216 14.7537C7.2356 14.7537 6.95549 15.0311 6.95549 15.4148V15.4512C6.95549 15.835 7.23 16.1011 7.63897 16.1011C8.03112 16.1011 8.30563 15.8322 8.30563 15.412ZM12.7986 12.1375C12.7986 15.3196 11.2972 16.7986 8.08434 16.7986C4.87706 16.7986 3.37846 15.3196 3.37846 12.1375C3.37846 8.95543 4.87986 7.47644 8.08434 7.47644C11.2972 7.47644 12.7986 8.95543 12.7986 12.1375ZM16.0703 18.003C16.0703 17.3448 15.6782 16.9582 15.0143 16.9582C14.3561 16.9582 13.9667 17.3448 13.9695 18.003C13.9695 18.3224 14.0563 18.5801 14.2356 18.7565C14.4233 18.9498 14.6894 19.0451 15.0143 19.0451C15.3364 19.0451 15.6054 18.9498 15.793 18.7565C15.9807 18.5801 16.0703 18.3224 16.0703 18.003Z" fill="#313235"/>
</svg>
