<svg width="24" height="24" viewBox="0 0 24 24" fill="none" xmlns="http://www.w3.org/2000/svg">
<path fill-rule="evenodd" clip-rule="evenodd" d="M20.8911 3.11229C21.5326 3.75095 21.8463 4.64731 21.8463 5.84899V18.1543C21.8463 19.37 21.5326 20.272 20.8827 20.9078C20.2384 21.5381 19.3337 21.8462 18.118 21.8462H11.9107C10.6922 21.8462 9.79026 21.5381 9.1488 20.9078C8.57177 20.342 8.26084 19.5689 8.19642 18.5493V18.0002C8.17856 18.0002 8.1607 18.0009 8.1425 18.0016H8.14249H8.14249H8.14248C8.12359 18.0023 8.10434 18.003 8.08437 18.003C4.34208 18.0058 2.16 16.1347 2.16 12.1375C2.16 8.1375 4.34208 6.26635 8.08437 6.26635C8.10118 6.26635 8.11799 6.26706 8.13479 6.26776L8.13483 6.26776C8.15162 6.26846 8.16842 6.26916 8.18521 6.26916V5.85179C8.18521 4.66691 8.49894 3.77616 9.1404 3.1319C9.79306 2.47644 10.6978 2.15991 11.9107 2.15991H18.1208C19.3393 2.15991 20.2468 2.47084 20.8911 3.11229ZM20.6278 5.85179V18.1543C20.6278 19.0311 20.4317 19.6529 20.0227 20.0507C19.6194 20.4456 18.9975 20.6389 18.118 20.6389H11.9079C11.0284 20.6389 10.4037 20.4456 10.0031 20.0507C9.6474 19.7033 9.45412 19.1879 9.4093 18.5129V17.919C12.3393 17.5073 14.0115 15.6389 14.0115 12.1375C14.0115 8.6361 12.3337 6.76215 9.4009 6.35319V5.85179C9.4009 4.99745 9.59978 4.3868 10.0059 3.97784C10.4177 3.56607 11.0424 3.3672 11.9107 3.3672H18.118C18.9975 3.3672 19.6222 3.56047 20.0284 3.96383C20.4317 4.36439 20.6278 4.98344 20.6278 5.85179ZM12.7931 12.1347C12.7931 15.3168 11.2973 16.7986 8.08437 16.7986C4.87429 16.7986 3.37849 15.3168 3.37849 12.1347C3.37849 8.94983 4.87429 7.46804 8.08437 7.46804C11.2973 7.46804 12.7931 8.95263 12.7931 12.1347ZM16.0648 18.0058C16.0648 17.3504 15.6726 16.9582 15.0143 16.9582C14.3561 16.9582 13.9639 17.3504 13.9583 18.0058C13.9583 18.3252 14.0508 18.5801 14.2328 18.765C14.4177 18.9526 14.6866 19.0507 15.0115 19.0507C15.3365 19.0507 15.6054 18.9526 15.7903 18.765C15.9723 18.5829 16.0648 18.3252 16.0648 18.0058ZM6.26365 9.30277C6.59978 9.30277 6.87149 9.57168 6.87149 9.90501V14.6165C6.87149 14.9526 6.59698 15.2215 6.26365 15.2215C5.93031 15.2215 5.6586 14.9526 5.6558 14.6165V9.90781C5.6586 9.57448 5.93031 9.30277 6.26365 9.30277ZM10.3225 9.8882C10.3225 9.55767 10.0508 9.28596 9.71463 9.28596C9.37849 9.28596 9.10678 9.55767 9.10678 9.891V14.5997C9.10958 14.9358 9.38129 15.2047 9.71463 15.2047C10.048 15.2047 10.3225 14.9358 10.3225 14.5997V9.8882Z" fill="#313235"/>
</svg>
