<svg width="24" height="24" viewBox="0 0 24 24" fill="none" xmlns="http://www.w3.org/2000/svg">
<path fill-rule="evenodd" clip-rule="evenodd" d="M20.8911 3.1235C21.5409 3.75935 21.849 4.65851 21.849 5.85459V18.1543C21.849 19.3756 21.5325 20.2776 20.8827 20.9106C20.2412 21.5381 19.3392 21.8518 18.1236 21.8518H11.9163C10.6978 21.8518 9.79863 21.5381 9.14877 20.9106C8.57174 20.3392 8.26361 19.5689 8.19919 18.5549V18.0087H8.08434C4.34485 18.0087 2.15997 16.1347 2.15997 12.1403C2.15997 8.14591 4.34485 6.27196 8.08434 6.27196H8.19079V5.85179C8.19079 4.66972 8.49891 3.77896 9.14877 3.1347C9.79583 2.48484 10.6978 2.15991 11.9163 2.15991H18.1236C19.342 2.16551 20.2496 2.47924 20.8911 3.1235ZM12.8014 12.1431C12.8014 15.3252 11.3 16.8042 8.08714 16.8042C4.88266 16.8042 3.38126 15.3252 3.38126 12.1431C3.38126 8.96103 4.88266 7.48204 8.08714 7.48204C11.3 7.48204 12.8014 8.96103 12.8014 12.1431ZM9.28322 8.92462C9.73981 9.25515 9.95269 9.71173 9.95269 10.3588C9.95269 11.1291 9.62216 11.5997 8.92468 12.4204C8.14597 13.314 8.14597 13.314 8.14597 14.0955C8.14597 14.3168 7.96389 14.496 7.73981 14.496H7.4793C7.28602 14.496 7.11796 14.3616 7.08154 14.1711C7.05913 14.0535 7.04513 13.933 7.04513 13.7678C7.04513 13.0871 7.29163 12.6725 7.81263 12.0535L7.91067 11.9386C8.74261 10.961 8.85465 10.7341 8.85465 10.3476C8.85465 10.0731 8.78462 9.91061 8.60255 9.76776C8.49891 9.68372 8.30563 9.58848 7.75101 9.58848C7.43448 9.58848 7.15157 9.6249 6.81263 9.71173C6.70619 9.73694 6.59135 9.72014 6.49611 9.66131C6.40087 9.60249 6.33644 9.50725 6.31403 9.39801L6.27482 9.19913C6.24121 9.01706 6.33364 8.83778 6.50171 8.75935C6.78182 8.6305 7.37006 8.52966 7.86866 8.52966C8.45689 8.52686 8.93308 8.66131 9.28322 8.92462ZM7.62496 14.7594C8.03112 14.7594 8.30843 15.0367 8.30843 15.4176C8.30843 15.8378 8.03392 16.1067 7.64177 16.1067C7.23 16.1067 6.95829 15.8406 6.95829 15.4568V15.4204C6.96109 15.0367 7.2384 14.7594 7.62496 14.7594ZM13.9695 18.0087C13.9695 17.3504 14.3589 16.9638 15.0171 16.9638C15.681 16.9638 16.0703 17.3504 16.0703 18.0087C16.0703 18.328 15.9807 18.5857 15.7958 18.7622C15.6082 18.9554 15.342 19.0507 15.0171 19.0507C14.6922 19.0507 14.4261 18.9554 14.2384 18.7622C14.0591 18.5857 13.9695 18.328 13.9695 18.0087Z" fill="#313235"/>
</svg>
