<svg width="24" height="24" viewBox="0 0 24 24" fill="none" xmlns="http://www.w3.org/2000/svg">
<path fill-rule="evenodd" clip-rule="evenodd" d="M20.9443 3.07868C21.5521 3.68652 21.8462 4.55487 21.8462 5.72014V18.286C21.8462 19.468 21.5521 20.3364 20.9359 20.9442C20.328 21.5521 19.4597 21.849 18.286 21.849H12.0115C10.8378 21.849 9.9751 21.5521 9.36165 20.947C8.82104 20.4064 8.52692 19.6669 8.45969 18.6753V18.1263C8.40647 18.1263 8.35535 18.1284 8.30423 18.1305L8.30416 18.1305C8.25306 18.1326 8.20197 18.1347 8.14877 18.1347C4.36445 18.1291 2.15997 16.2243 2.15997 12.1375C2.15997 8.05907 4.36445 6.14591 8.14877 6.14591C8.20308 6.14591 8.25521 6.14809 8.30627 6.15024C8.35527 6.15229 8.40328 6.15431 8.45129 6.15431V5.72014C8.45129 4.57168 8.74541 3.70893 9.36165 3.09269C9.9751 2.46243 10.8462 2.15991 12.0115 2.15991H18.286C19.4681 2.15991 20.3364 2.46243 20.9443 3.07868ZM21.0255 18.286V5.72014C21.0255 4.77616 20.8126 4.10389 20.3617 3.65291C19.9107 3.20193 19.2384 2.98064 18.286 2.98064H12.0115C11.0759 2.98064 10.3953 3.21033 9.94429 3.66972C9.49331 4.1291 9.27202 4.79297 9.27202 5.72014V6.21313C12.3645 6.57448 14.1376 8.48764 14.1376 12.1375C14.1376 15.7874 12.3645 17.7005 9.28042 18.0619V18.6445C9.33084 19.398 9.54373 19.9666 9.94429 20.3588C10.3869 20.8014 11.0675 21.0255 12.0115 21.0255H18.286C19.23 21.0255 19.9107 20.8014 20.3617 20.3588C20.8126 19.9162 21.0255 19.2355 21.0255 18.286ZM9.88546 10.3196C9.88546 9.70893 9.68938 9.28036 9.26642 8.96944C8.93868 8.72014 8.4849 8.59409 7.92188 8.59128C7.38967 8.59128 6.83224 8.70333 6.60255 8.81257C6.49331 8.86579 6.43168 8.98344 6.45409 9.10389L6.49331 9.30837C6.49331 9.30977 6.49401 9.31187 6.49471 9.31397L6.49471 9.31397L6.49471 9.31398C6.49541 9.31608 6.49611 9.31818 6.49611 9.31958C6.53252 9.46243 6.67818 9.55207 6.82104 9.51565C7.17678 9.42602 7.4709 9.3868 7.80423 9.3868C8.41207 9.3868 8.63336 9.49885 8.75661 9.59969C8.9723 9.77336 9.06473 9.98344 9.06473 10.3056C9.06473 10.765 8.90787 11.0367 8.07594 12.0227L7.9779 12.1403C7.4653 12.7594 7.2356 13.1431 7.2356 13.7986C7.2328 13.9274 7.24401 14.0563 7.26922 14.1823C7.29163 14.3084 7.40367 14.398 7.52972 14.398H7.79303C7.94149 14.398 8.05913 14.2804 8.05913 14.1319C8.05913 13.2804 8.08714 13.2467 8.87986 12.3308C9.57734 11.5016 9.88546 11.0619 9.88546 10.3196ZM8.2244 15.4848C8.2244 15.1739 8.00591 14.9554 7.67538 14.9554C7.36445 14.9554 7.14597 15.1739 7.14597 15.4848V15.5213C7.14597 15.8322 7.35885 16.0423 7.69499 16.0423C8.01151 16.0423 8.2244 15.8322 8.2244 15.4848ZM13.3168 12.1375C13.3168 15.6165 11.6278 17.3084 8.14877 17.3084C4.66978 17.3084 2.9807 15.6165 2.9807 12.1375C2.9807 8.65851 4.66978 6.96663 8.14877 6.96663C11.6278 6.96663 13.3168 8.65851 13.3168 12.1375ZM14.0871 18.1291C14.0871 18.4568 14.1796 18.7173 14.3645 18.905C14.5521 19.0955 14.8238 19.1991 15.1516 19.1991C15.4793 19.1991 15.751 19.0983 15.9387 18.905C16.1236 18.7173 16.216 18.4568 16.216 18.1291C16.216 17.4624 15.8182 17.0619 15.1516 17.0619C14.4849 17.0619 14.0871 17.4596 14.0871 18.1291Z" fill="#313235"/>
</svg>
