<svg width="24" height="24" viewBox="0 0 24 24" fill="none" xmlns="http://www.w3.org/2000/svg">
<path fill-rule="evenodd" clip-rule="evenodd" d="M20.9443 3.08428C21.5522 3.69213 21.8463 4.56047 21.8463 5.73414V18.2916C21.8463 19.4736 21.5522 20.342 20.9359 20.9498C20.3281 21.5577 19.4597 21.8546 18.2861 21.8546H12.0115C10.8379 21.8546 9.97793 21.5577 9.36168 20.9526C8.82107 20.4204 8.52415 19.6725 8.45972 18.6865V18.1291C8.40653 18.1291 8.35543 18.1312 8.30433 18.1333L8.30426 18.1333C8.25314 18.1354 8.20202 18.1375 8.1488 18.1375C4.36729 18.1347 2.16 16.2299 2.16 12.1431C2.16 8.06467 4.36729 6.15151 8.1488 6.15151C8.20311 6.15151 8.25524 6.1537 8.3063 6.15584C8.3553 6.1579 8.40331 6.15991 8.45132 6.15991V5.73134C8.45132 4.57448 8.74544 3.71173 9.36168 3.09549C9.97793 2.47364 10.8463 2.15991 12.0115 2.15991H18.2861C19.4681 2.16551 20.3365 2.46804 20.9443 3.08428ZM21.0255 5.73414V18.2916C21.0255 19.2411 20.8127 19.9218 20.3617 20.3644C19.9107 20.8182 19.2384 21.0311 18.2861 21.0311H12.0115C11.0676 21.0311 10.3869 20.8154 9.94432 20.3644C9.54096 19.9806 9.32807 19.4036 9.28045 18.6501V18.0675C12.3645 17.7061 14.1376 15.793 14.1376 12.1431C14.1376 8.49325 12.3645 6.58008 9.27205 6.21874V5.73414C9.27205 4.80697 9.49334 4.1347 9.94432 3.67532C10.3953 3.21593 11.076 2.98624 12.0115 2.98624H18.2861C19.2384 2.98624 19.9107 3.20753 20.3617 3.65851C20.8127 4.10949 21.0255 4.79016 21.0255 5.73414ZM13.3169 12.1431C13.3169 15.6221 11.625 17.314 8.1488 17.314C4.66981 17.314 2.98073 15.6221 2.98073 12.1431C2.98073 8.66411 4.66981 6.97224 8.1488 6.97224C11.625 6.97224 13.3169 8.66411 13.3169 12.1431ZM10.3253 12.1459L6.80146 14.1823V10.1095L10.3253 12.1459ZM11.3533 11.7902C11.5494 11.905 11.6166 12.1543 11.5017 12.3504C11.4653 12.412 11.4149 12.4624 11.3533 12.4988L6.59698 15.2467C6.47093 15.3196 6.31407 15.3196 6.18801 15.2467C6.06196 15.1739 5.98353 15.0395 5.98353 14.891V9.40081C5.98353 9.17392 6.16841 8.99184 6.3925 8.99184C6.46533 8.99184 6.53535 9.01145 6.59698 9.04787C6.59698 9.04507 11.3533 11.7902 11.3533 11.7902ZM14.0872 18.1347C14.0872 18.4624 14.1796 18.7229 14.3645 18.9106C14.5522 19.1039 14.8239 19.2047 15.1516 19.2019C15.4793 19.2019 15.751 19.1011 15.9387 18.9106C16.1236 18.7229 16.216 18.4624 16.216 18.1347C16.216 17.468 15.8183 17.0675 15.1516 17.0675C14.4849 17.0675 14.0872 17.4652 14.0872 18.1347Z" fill="#313235"/>
</svg>
