<svg width="24" height="24" viewBox="0 0 24 24" fill="none" xmlns="http://www.w3.org/2000/svg">
<path fill-rule="evenodd" clip-rule="evenodd" d="M14.3232 6.23936C14.4156 6.44107 14.6145 6.56995 14.8359 6.57275L16.2227 6.58396L16.2255 8.81407C16.2227 9.31837 16.6261 9.72741 17.1304 9.73301H18.8815C19.3802 9.73301 19.7864 9.32117 19.7864 8.81407L19.7836 6.58396L21.1648 6.57275C21.3861 6.56995 21.5851 6.44107 21.6775 6.23936C21.7728 6.03483 21.7475 5.78549 21.5766 5.57536L18.45 2.36467C18.3295 2.20778 18.1362 2.12933 17.9429 2.15455C17.7916 2.17416 17.6571 2.2498 17.5983 2.33385L14.3988 5.60618C14.2559 5.78549 14.2279 6.03203 14.3232 6.23936ZM2.90365 7.22834C2.90365 6.993 3.09136 6.80249 3.32389 6.80249H3.92345C3.9196 6.75474 3.91511 6.70762 3.91063 6.66056C3.89881 6.53642 3.88702 6.41266 3.88702 6.27858C3.88702 6.235 3.89135 6.19574 3.89567 6.15648C3.89913 6.12508 3.90259 6.09367 3.90383 6.06005H3.32389C3.09136 6.05725 2.90365 5.86674 2.90365 5.6342C2.90365 5.39886 3.09136 5.20835 3.32389 5.20835H3.98788C4.33809 3.28642 5.67728 2.2386 7.86537 2.2386C8.65263 2.2386 9.33904 2.37308 9.90497 2.63923C10.1151 2.74009 10.2075 2.99224 10.1095 3.20517C10.0142 3.41529 9.76769 3.51055 9.55757 3.41529C9.55616 3.41529 9.55546 3.41459 9.55476 3.41389C9.55406 3.41319 9.55336 3.41249 9.55196 3.41249C9.09809 3.19956 8.52936 3.0903 7.86537 3.0903C6.14516 3.0903 5.15897 3.79351 4.84519 5.20835H7.22659C7.45913 5.20835 7.64684 5.39886 7.64684 5.6342C7.64684 5.86954 7.45913 6.06005 7.22659 6.06005H4.74153C4.74035 6.09077 4.73767 6.1205 4.73497 6.15048C4.73127 6.1916 4.72752 6.23322 4.72752 6.27858C4.72752 6.46357 4.74385 6.62951 4.76041 6.79786L4.76114 6.80529H7.22939C7.46193 6.80529 7.64964 6.9958 7.64964 7.23114C7.64964 7.46648 7.46193 7.65699 7.22939 7.65699H4.91523C5.29906 8.87011 6.27403 9.46406 7.86537 9.46406C8.53777 9.46406 9.1121 9.35199 9.56877 9.13346C9.7789 9.0354 10.0282 9.12786 10.1263 9.33798C10.2272 9.55091 10.1347 9.80305 9.92458 9.90391C9.35585 10.1785 8.66104 10.3158 7.86257 10.3158C5.79775 10.3158 4.49778 9.3744 4.06073 7.65699H3.32389C3.09136 7.65419 2.90365 7.46368 2.90365 7.22834ZM18.0073 3.12112L15.4634 5.72665L16.4917 5.73506C16.8138 5.74346 17.0688 6.01242 17.0604 6.33461V6.33741L17.0632 8.81407C17.0632 8.85049 17.0912 8.88131 17.1276 8.88131H18.8815C18.9179 8.88131 18.9459 8.8533 18.9459 8.81687L18.9431 6.32621C18.9375 6.00962 19.1868 5.74626 19.5006 5.73506L20.5428 5.72665C20.5456 5.72665 18.0073 3.12112 18.0073 3.12112ZM20.2291 20.7435C20.4588 20.6735 20.9995 20.4773 20.9995 20.2028V19.0149C20.8314 19.1045 20.6549 19.1774 20.4756 19.2334C19.8816 19.4155 19.1028 19.5164 18.2847 19.5164C17.4638 19.5164 16.6878 19.4155 16.0938 19.2334C15.9089 19.1774 15.7296 19.1045 15.5587 19.0177V20.2028C15.5587 20.4773 16.0994 20.6735 16.3292 20.7463C17.3742 21.0601 19.1784 21.0601 20.2291 20.7435ZM14.7182 20.284C14.6201 20.4297 14.3652 20.6174 13.9506 20.7435C12.9083 21.0601 11.0929 21.0601 10.0563 20.7435C9.6192 20.6118 9.36425 20.4325 9.2774 20.2952V18.9757C9.4483 19.0625 9.62761 19.1354 9.81252 19.1914C10.4065 19.3763 11.1853 19.4744 12.0034 19.4744C12.8215 19.4744 13.6003 19.3735 14.1943 19.1914C14.3736 19.1326 14.5501 19.0625 14.7182 18.9729V20.284ZM7.66645 20.7435C8.07829 20.6174 8.33324 20.4325 8.4341 20.284V18.9925C8.28001 19.0709 8.10631 19.141 7.90739 19.2026C7.31344 19.3847 6.53458 19.4856 5.7165 19.4856C4.89842 19.4856 4.11956 19.3847 3.52561 19.2026C3.3407 19.1466 3.1614 19.0737 2.9905 18.9869V20.2952C3.07174 20.4213 3.30988 20.6006 3.76936 20.7435C4.80877 21.0629 6.62424 21.0629 7.66645 20.7435ZM3.04653 17.9783C3.14739 17.8354 3.39674 17.6897 3.76095 17.5776C4.80316 17.2639 6.61863 17.2639 7.65805 17.5804C7.85136 17.6393 8.252 17.7822 8.38367 17.9895C8.31924 18.0847 8.14553 18.2388 7.66365 18.3873C6.62984 18.7039 4.80316 18.7039 3.76655 18.3873C3.39393 18.2724 3.14179 18.124 3.04653 17.9783ZM10.0451 15.213C9.67523 15.3251 9.42309 15.4736 9.32783 15.6193C9.39227 15.7173 9.56877 15.8742 10.0535 16.0227C11.0929 16.3393 12.9083 16.3393 13.9506 16.0227C14.4296 15.877 14.6033 15.7201 14.6734 15.6221C14.5417 15.4176 14.1411 15.2719 13.9478 15.213C12.9027 14.8937 11.0845 14.8937 10.0451 15.213ZM15.6119 13.2799C15.6848 13.179 15.8669 13.0278 16.3292 12.8849C17.3714 12.5683 19.1868 12.5683 20.2291 12.8849C20.4224 12.9437 20.823 13.0894 20.9547 13.2939C20.8874 13.392 20.7137 13.5461 20.2347 13.6945C19.1952 14.0111 17.3714 14.0111 16.3348 13.6945C15.9593 13.5797 15.7016 13.4284 15.6119 13.2799ZM15.5587 16.6503V17.9699C15.6456 18.1071 15.9005 18.2865 16.3376 18.4181C17.3742 18.7347 19.198 18.7347 20.2347 18.4181C20.6493 18.2921 20.9042 18.1043 21.0023 17.9587V16.6475C20.8342 16.7371 20.6577 16.81 20.4784 16.866C19.8816 17.0481 19.1028 17.1462 18.2875 17.1462C17.4722 17.1462 16.6934 17.0481 16.0966 16.866C15.9089 16.81 15.7296 16.7371 15.5587 16.6503ZM15.5587 14.2941C15.7296 14.381 15.9061 14.4538 16.091 14.5098C16.6878 14.6919 17.4638 14.7928 18.2847 14.7956C19.1028 14.7956 19.8816 14.6947 20.4756 14.5126C20.6745 14.451 20.8426 14.381 20.9995 14.3025V15.5941C20.9014 15.7398 20.6465 15.9247 20.2347 16.0507C19.1896 16.3673 17.377 16.3673 16.3348 16.0507C15.8753 15.9107 15.6399 15.7285 15.5587 15.6025V14.2941ZM9.2746 16.6223V17.9278C9.35585 18.0567 9.59399 18.236 10.0535 18.3761C11.0901 18.6927 12.9139 18.6927 13.9506 18.3761C14.4128 18.236 14.637 18.0399 14.7182 17.9194V16.6279C14.5501 16.7119 14.3736 16.782 14.1915 16.838C13.5947 17.0201 12.8159 17.121 12.0006 17.121C11.1853 17.121 10.4093 17.0229 9.80971 16.838C9.62481 16.782 9.4455 16.7091 9.2746 16.6223ZM21.84 13.4256C21.84 12.9969 21.6019 12.417 20.47 12.0696C19.2737 11.7054 17.2817 11.7054 16.0854 12.0668C15.3402 12.2965 14.8919 12.6523 14.7574 13.1258C14.7322 13.2239 14.7182 13.3219 14.7182 13.4256V14.6107C14.5501 14.5238 14.3708 14.451 14.1887 14.395C12.9924 14.0307 10.9948 14.0307 9.80411 14.395C9.05607 14.6247 8.61061 14.9777 8.47613 15.454C8.44811 15.552 8.4341 15.6501 8.4341 15.7538V16.9781C8.28001 16.8996 8.11191 16.8268 7.90179 16.7624C6.70829 16.3981 4.71631 16.3981 3.52001 16.7624C2.77477 16.9921 2.32931 17.3479 2.19203 17.8186L2.18922 17.8242C2.16401 17.9194 2.15 18.0203 2.15 18.1212V20.4857C2.15 20.6258 2.22004 20.7547 2.33771 20.8332C2.57025 21.1385 2.96808 21.3907 3.52561 21.5616C4.12236 21.7437 4.90122 21.8445 5.7165 21.8445C6.53178 21.8445 7.31064 21.7437 7.90739 21.5616C8.29122 21.4467 8.605 21.2702 8.84595 21.0657C9.08409 21.2646 9.40067 21.4383 9.80971 21.5616C10.4093 21.7437 11.1853 21.8445 12.0006 21.8445C12.8159 21.8445 13.5919 21.7437 14.1915 21.5616C14.5361 21.4607 14.8555 21.2926 15.13 21.0657C15.3374 21.2506 15.6428 21.4243 16.0882 21.5616C16.6878 21.7409 17.4666 21.8417 18.2791 21.8417C19.0916 21.8417 19.8676 21.7409 20.47 21.5588C21.6019 21.2114 21.84 20.6286 21.84 20.2V13.4256Z" fill="#313235"/>
</svg>
