<svg width="24" height="24" viewBox="0 0 24 24" fill="none" xmlns="http://www.w3.org/2000/svg">
<path fill-rule="evenodd" clip-rule="evenodd" d="M14.1373 6.43698L17.1877 9.57703C17.2157 9.61064 17.2689 9.66387 17.3025 9.68908C17.4398 9.80112 17.605 9.85994 17.7787 9.85994C17.8067 9.85994 17.8375 9.85714 17.8655 9.85434C18.0672 9.83193 18.2493 9.72829 18.3305 9.61905L21.4762 6.39216C21.6639 6.15686 21.7031 5.82353 21.5742 5.54902C21.4482 5.27451 21.1821 5.10364 20.8908 5.10364L19.7367 5.09244L19.7339 3.10924C19.7339 2.4986 19.2437 2 18.6415 2H16.9244C16.3221 2 15.8319 2.4986 15.8319 3.11204L15.8347 5.09524L14.6891 5.10364C14.3922 5.10364 14.1288 5.27451 14 5.54902C13.8711 5.82353 13.9076 6.15686 14.1373 6.43698ZM2.7647 7.26611C2.7647 6.91877 3.04201 6.63866 3.38095 6.63866H3.7563C3.75287 6.59407 3.74865 6.55053 3.74445 6.50715L3.74445 6.50715C3.73493 6.40884 3.72549 6.31138 3.72549 6.20448C3.72549 6.18347 3.72759 6.16457 3.72969 6.14566C3.73179 6.12675 3.73389 6.10784 3.73389 6.08683H3.38095C3.03921 6.08683 2.7647 5.80672 2.7647 5.45938C2.7647 5.11204 3.04201 4.83193 3.38095 4.83193H3.89636C4.33333 3.02241 5.68067 2.03081 7.82913 2.03081C8.63025 2.03081 9.33053 2.17087 9.91316 2.44258C10.2213 2.58824 10.3585 2.96078 10.2157 3.27451C10.0728 3.59104 9.70588 3.72829 9.39776 3.58263C8.98039 3.38655 8.45098 3.28571 7.83193 3.28571C6.40336 3.28571 5.53501 3.78711 5.17087 4.83193H7.21008C7.55182 4.83193 7.82633 5.11204 7.82633 5.45938C7.82633 5.80672 7.54902 6.08683 7.21008 6.08683H4.97199C4.97199 6.10784 4.96989 6.12675 4.96778 6.14566C4.96568 6.16457 4.96358 6.18347 4.96358 6.20448C4.96358 6.31122 4.97136 6.40888 4.97899 6.50451L4.97899 6.50455L4.97899 6.50456C4.98257 6.54946 4.98611 6.59391 4.98879 6.63866H7.20728C7.54902 6.63866 7.82353 6.91877 7.82353 7.26611C7.82353 7.61345 7.54622 7.89356 7.20728 7.89356H5.30812C5.73389 8.71989 6.55742 9.12045 7.83193 9.12045C8.46218 9.12045 8.9944 9.01961 9.41176 8.81793C9.72269 8.66947 10.0868 8.80672 10.2325 9.11765C10.3781 9.43137 10.2465 9.80672 9.93837 9.95238C9.35294 10.2325 8.64426 10.3753 7.82913 10.3753C5.80672 10.3753 4.48739 9.5014 3.97199 7.89076H3.38095C3.03921 7.89356 2.7647 7.61064 2.7647 7.26611ZM19.8711 20.1989C20.4006 20.0364 20.479 19.874 20.479 19.874V19.0224C20.4601 19.0302 20.4413 19.0382 20.4226 19.0462L20.4225 19.0462L20.4225 19.0462L20.4225 19.0462L20.4225 19.0462L20.4224 19.0462L20.4224 19.0463L20.4224 19.0463L20.4223 19.0463L20.4223 19.0463L20.4223 19.0463L20.4223 19.0463C20.3604 19.0726 20.2984 19.099 20.2297 19.1204C19.6302 19.3053 18.8459 19.4062 18.0252 19.4062C17.2045 19.4062 16.4202 19.3053 15.8179 19.1204C15.75 19.0999 15.6896 19.0747 15.6291 19.0495L15.629 19.0495L15.6287 19.0494C15.607 19.0403 15.5852 19.0313 15.563 19.0224V19.8796C15.5714 19.8992 15.6639 20.0504 16.1681 20.2045C17.1597 20.4986 18.8852 20.4986 19.8711 20.1989ZM14.3305 19.8824C14.2381 19.972 14.0476 20.1008 13.7283 20.1989C12.7451 20.4986 11.0112 20.4986 10.028 20.1961C9.67507 20.0868 9.49299 19.9636 9.41456 19.888V18.972C9.44351 18.9832 9.47152 18.995 9.49953 19.0068C9.55555 19.0305 9.61158 19.0542 9.67507 19.0728C10.2745 19.2577 11.0588 19.3585 11.8795 19.3585C12.7003 19.3585 13.4846 19.2577 14.084 19.0728C14.1422 19.0565 14.1945 19.0342 14.2463 19.0121C14.2742 19.0002 14.302 18.9884 14.3305 18.9776V19.8824ZM7.57703 20.1989C7.91596 20.0952 8.09804 19.9608 8.17927 19.8796V18.9916C8.14711 19.0034 8.1166 19.016 8.086 19.0286L8.08597 19.0287L8.08595 19.0287C8.0366 19.0491 7.98702 19.0695 7.92997 19.0868C7.32773 19.2717 6.54622 19.3725 5.72549 19.3725C4.90476 19.3725 4.12045 19.2717 3.52101 19.0868C3.45878 19.0685 3.40493 19.0455 3.35086 19.0223L3.35074 19.0222C3.32208 19.0099 3.29337 18.9976 3.2633 18.986V19.8908C3.34173 19.9664 3.52381 20.0896 3.87955 20.1989C4.85994 20.4986 6.59103 20.4986 7.57703 20.1989ZM3.41736 17.6891C3.507 17.6303 3.64145 17.563 3.87115 17.493C4.85154 17.1933 6.58823 17.1933 7.57143 17.4902C7.80672 17.563 7.94117 17.6303 8.03081 17.6891C7.94117 17.7479 7.80672 17.8151 7.57703 17.8852C6.59664 18.1849 4.85434 18.1877 3.87675 17.8852C3.65546 17.8179 3.5098 17.7479 3.41736 17.6891ZM10.0224 15.1681C9.79552 15.2381 9.66106 15.3053 9.56862 15.3641C9.65826 15.423 9.79271 15.4902 10.028 15.563C11.0084 15.8627 12.7451 15.8627 13.7255 15.563C13.944 15.4958 14.0868 15.4286 14.1821 15.3697C14.0924 15.3109 13.958 15.2409 13.7227 15.1709C12.7451 14.8683 11.0028 14.8683 10.0224 15.1681ZM15.7171 13.0784C15.8095 13.0224 15.944 12.9552 16.1709 12.8852C17.1541 12.5826 18.8908 12.5854 19.8711 12.8852C20.1036 12.9552 20.2409 13.0252 20.3305 13.084C20.2353 13.1401 20.0924 13.2101 19.8739 13.2773C18.8964 13.577 17.1541 13.577 16.1765 13.2773C15.9412 13.2045 15.8067 13.1373 15.7171 13.0784ZM15.5658 16.6947V17.6106C15.6443 17.6863 15.8291 17.8095 16.1765 17.916C17.1541 18.2157 18.8964 18.2157 19.8739 17.916C20.1961 17.8151 20.3894 17.6863 20.479 17.5966V16.6947C20.4601 16.7025 20.4413 16.7105 20.4226 16.7185C20.3607 16.7448 20.2985 16.7712 20.2297 16.7927C19.6246 16.9776 18.8431 17.0784 18.0252 17.0784C17.2073 17.0784 16.423 16.9776 15.8207 16.7927C15.7528 16.7721 15.6924 16.747 15.6318 16.7218L15.6317 16.7217L15.6316 16.7217C15.6098 16.7126 15.588 16.7036 15.5658 16.6947ZM15.6506 14.4144C15.7047 14.4376 15.7585 14.4607 15.8207 14.479C16.423 14.6639 17.2045 14.7647 18.028 14.7647C18.8487 14.7647 19.6331 14.6639 20.2325 14.479C20.2896 14.4617 20.3391 14.4412 20.3885 14.4208C20.4191 14.4082 20.4496 14.3955 20.4818 14.3838V15.2717C20.4006 15.3529 20.2185 15.4874 19.8767 15.591C18.8964 15.8908 17.1569 15.8908 16.1793 15.591C15.8235 15.479 15.6415 15.3557 15.563 15.2801V14.3782C15.5931 14.3898 15.6219 14.4021 15.6506 14.4144L15.6506 14.4144L15.6506 14.4144L15.6506 14.4144ZM9.41456 17.5658C9.49299 17.6415 9.67507 17.7647 10.0308 17.8739C11.0084 18.1737 12.7507 18.1737 13.7283 17.8739C14.0672 17.7703 14.2465 17.6387 14.3305 17.5574V16.6667C14.3015 16.6777 14.2731 16.6894 14.2446 16.7013L14.2445 16.7013L14.2445 16.7013L14.2445 16.7013C14.1933 16.7225 14.1416 16.7439 14.084 16.7619C13.4818 16.9468 12.6975 17.0476 11.8795 17.0476C11.0616 17.0476 10.2773 16.9468 9.67507 16.7619C9.61158 16.7414 9.55556 16.7183 9.49954 16.6953C9.47152 16.6838 9.44351 16.6723 9.41456 16.6611V17.5658ZM21.7143 13.2157C21.7143 12.7227 21.4566 12.056 20.2269 11.6807C19.0224 11.3165 17.028 11.3137 15.8095 11.6863C15.0056 11.93 14.5238 12.3305 14.3697 12.8655V12.8711C14.3389 12.9832 14.3221 13.1008 14.3221 13.2185V14.0616C14.2409 14.028 14.1653 13.9972 14.0728 13.9692C12.8711 13.5994 10.8655 13.5994 9.66106 13.9692C8.85714 14.2129 8.37535 14.6106 8.22129 15.1485V15.1513C8.19047 15.2633 8.17367 15.381 8.17367 15.5014V16.3866C8.15259 16.3786 8.1317 16.3704 8.11071 16.3622L8.11055 16.3621L8.11053 16.3621L8.11052 16.3621C8.05066 16.3386 7.98995 16.3148 7.92157 16.2941C6.71428 15.9272 4.71708 15.9244 3.5098 16.2941C2.71148 16.5406 2.22689 16.9384 2.07283 17.4734V17.4762C2.04201 17.5882 2.02521 17.7087 2.02521 17.8263V20.1457C2.02521 20.3417 2.12325 20.5126 2.2633 20.6275C2.52101 20.9608 2.94398 21.2269 3.52101 21.4034C4.12325 21.5882 4.90756 21.6891 5.72549 21.6891C6.54342 21.6891 7.32493 21.5882 7.92997 21.4034C8.2633 21.3025 8.55182 21.1597 8.78991 20.986C9.02521 21.1541 9.31933 21.2969 9.67227 21.4034C10.2745 21.5882 11.0588 21.6891 11.8767 21.6891C12.6947 21.6891 13.4762 21.5882 14.0812 21.4034C14.4146 21.3025 14.7059 21.1597 14.944 20.986C15.1597 21.1429 15.437 21.2885 15.8151 21.4034C16.423 21.5882 17.2045 21.6891 18.0196 21.6891C18.8375 21.6891 19.619 21.5882 20.2269 21.4034C21.4566 21.0252 21.7143 20.3613 21.7143 19.8683V13.2157ZM16.3221 6.34454L15.7843 6.35014L17.7815 8.40616L19.7843 6.35014L19.2633 6.34454C19.0448 6.33894 18.8543 6.2521 18.7143 6.09804C18.5714 5.94678 18.4986 5.7479 18.5042 5.53782L18.5014 3.2549H17.07L17.0728 5.55462C17.0812 5.7423 17.0056 5.94118 16.8655 6.09524C16.7199 6.2521 16.5294 6.33894 16.3221 6.34454Z" fill="#313235"/>
</svg>
