<svg width="24" height="24" viewBox="0 0 24 24" fill="none" xmlns="http://www.w3.org/2000/svg">
<path fill-rule="evenodd" clip-rule="evenodd" d="M2.54999 11.8179C2.54999 18.9776 7.42954 21.6078 12.0066 21.6863H12.0072C12.3011 21.6863 12.6146 21.6863 12.8665 21.6835C14.3259 21.6583 19.2531 21.2269 21.3595 16.6751C21.4716 16.4314 21.4155 16.1429 21.2167 15.9636C21.0206 15.7843 20.7265 15.7479 20.494 15.8824C19.1326 16.6555 17.6648 16.8011 16.9001 16.8179C16.704 16.8235 16.466 16.8235 16.2531 16.8235C14.7349 16.7983 9.76848 16.2381 9.76848 10.0056C9.76848 5.40616 12.4127 3.87675 14.6312 3.40336C14.9197 3.34174 15.1214 3.08683 15.1186 2.79272C15.113 2.4986 14.9029 2.2493 14.6116 2.19608C13.8049 2.04762 13.1494 2.01401 12.8161 2.0084L11.9365 2C7.39873 2.05882 2.54999 4.66667 2.54999 11.8179ZM3.78808 11.8179C3.78808 4.17087 9.68444 3.29972 11.7713 3.23529C10.085 4.29692 8.53318 6.28571 8.53598 10.0028C8.53598 15.8487 12.5136 17.9916 16.2475 18.0504C16.4856 18.0504 16.7433 18.0504 16.9393 18.042C17.4744 18.0308 18.3203 17.9636 19.2615 17.7031C17.1942 20.1597 13.9309 20.4286 12.8413 20.4482C12.5892 20.4566 12.2895 20.4566 12.0206 20.4566C10.0878 20.4258 3.78808 19.7059 3.78808 11.8179Z" fill="#313235"/>
</svg>
