<svg width="24" height="24" viewBox="0 0 24 24" fill="none" xmlns="http://www.w3.org/2000/svg">
<path fill-rule="evenodd" clip-rule="evenodd" d="M12.0829 6.4173V6.05627C12.0829 6.03666 12.0716 5.74814 11.926 5.47924C11.7523 5.15711 11.4638 5.00865 11.0156 5.00865H9.09686C8.2005 5.00865 7.433 4.80977 6.87838 4.43442C6.27334 4.02265 5.94 3.40921 5.94 2.70893C5.94 2.40641 6.1865 2.15991 6.48902 2.15991C6.79154 2.15991 7.03804 2.40641 7.03804 2.70893C7.03804 3.59688 8.10246 3.91341 9.09966 3.91341H11.0184C11.8868 3.91341 12.5618 4.30277 12.9176 5.00865C13.1725 5.51005 13.1781 5.99744 13.1781 6.05346V6.42062C14.6819 6.51155 15.8722 6.9664 16.7215 7.77335C17.7187 8.72013 18.2229 10.1291 18.2229 11.9582V16.2691C18.2229 18.1655 17.7831 19.5324 16.8756 20.4428C15.954 21.3756 14.5562 21.8294 12.6011 21.8294C10.8223 21.8294 9.4358 21.3672 8.48062 20.4596C7.48342 19.5128 6.97922 18.1039 6.97922 16.2747V11.961C6.97922 10.1319 7.48342 8.72293 8.48062 7.77615C9.34333 6.95632 10.5536 6.49996 12.0829 6.4173ZM12.052 11.7285C12.052 12.031 12.2985 12.2775 12.6011 12.2775C12.9036 12.2775 13.1501 12.031 13.1501 11.7285V8.85178C13.1501 8.54926 12.9036 8.30276 12.6011 8.30276C12.2985 8.30276 12.052 8.54926 12.052 8.85178V11.7285ZM8.07445 12.4989V11.9638C8.07445 8.96102 9.55344 7.50164 12.6011 7.50164C15.6487 7.50164 17.1305 8.95822 17.1277 11.961V12.4989C15.6471 12.6819 14.1447 12.7733 12.6515 12.7733H12.5506C11.0599 12.7733 9.55544 12.6819 8.07445 12.4989ZM8.07445 13.6008V16.2747C8.07445 19.2747 9.55624 20.7341 12.6011 20.7341C14.2481 20.7341 15.3938 20.3868 16.0997 19.6753C16.7915 18.9778 17.1277 17.8658 17.1277 16.2719V13.6009C15.6466 13.7781 14.1429 13.8686 12.6543 13.8686H12.5478C11.0589 13.8686 9.55709 13.7781 8.07445 13.6008Z" fill="#313235"/>
</svg>
