<svg width="24" height="24" viewBox="0 0 24 24" fill="none" xmlns="http://www.w3.org/2000/svg">
<path fill-rule="evenodd" clip-rule="evenodd" d="M14.7202 16.0843V10.8154C14.7202 9.46523 15.4653 8.72014 16.8154 8.72014H17.7118V8.71173C17.7118 7.877 17.5409 7.25515 17.1992 6.86579C16.8547 6.47084 16.3112 6.27756 15.5409 6.27756H5.45129C4.68098 6.27756 4.13756 6.47084 3.79303 6.86579C3.45409 7.25515 3.28042 7.877 3.28042 8.71173V13.6501C3.28042 14.4848 3.45129 15.1067 3.79303 15.496C4.13756 15.891 4.68098 16.0843 5.45129 16.0843H14.7202ZM14.7202 17.2019H5.45129C4.35325 17.2019 3.51011 16.8742 2.94709 16.2327C2.42328 15.6333 2.15997 14.765 2.15997 13.6501V8.71173C2.15997 7.59689 2.42608 6.72854 2.94709 6.1291C3.51011 5.48484 4.35045 5.15991 5.45129 5.15991H15.5409C16.639 5.15991 17.4821 5.48764 18.0451 6.1291C18.5689 6.72854 18.8322 7.59689 18.8322 8.71173V8.72014H19.7538C21.1236 8.72014 21.849 9.44563 21.849 10.8154V17.3056C21.8462 18.6753 21.1236 19.4008 19.751 19.4008H16.8154C15.4457 19.4008 14.7202 18.6753 14.7202 17.3056V17.2019ZM7.90227 19.4036H12.8182C13.1292 19.4036 13.3785 19.1515 13.3785 18.8434C13.3785 18.5353 13.1264 18.2832 12.8182 18.2832H7.90227C7.59415 18.2832 7.34205 18.5353 7.34205 18.8434C7.34205 19.1515 7.59415 19.4036 7.90227 19.4036ZM18.2832 17.5997C17.9975 17.5997 17.8266 17.4876 17.7342 17.3924C17.6446 17.3 17.5353 17.1319 17.5353 16.8518C17.5353 16.3952 17.8294 16.1011 18.2832 16.1011C18.737 16.1011 19.0311 16.3952 19.0311 16.8518C19.0311 17.1319 18.9247 17.3 18.8322 17.3924C18.7398 17.4848 18.5689 17.5997 18.2832 17.5997ZM16.8154 9.83778C16.0871 9.83778 15.8406 10.0843 15.8406 10.8126V17.3028C15.8406 17.6781 15.9107 17.9386 16.0479 18.0759C16.1852 18.2103 16.4429 18.2804 16.8182 18.2804H19.7566C20.132 18.2804 20.3897 18.2131 20.5269 18.0759C20.6642 17.9414 20.7342 17.6809 20.7342 17.3028V10.8154C20.7342 10.0675 20.5073 9.84058 19.7594 9.84058H16.8154V9.83778Z" fill="#313235"/>
</svg>
