<svg width="24" height="24" viewBox="0 0 24 24" fill="none" xmlns="http://www.w3.org/2000/svg">
<path fill-rule="evenodd" clip-rule="evenodd" d="M18.835 8.71733H19.751C21.1208 8.71733 21.8462 9.44283 21.8462 10.8126V17.3C21.8462 18.6697 21.1208 19.3952 19.751 19.3952H16.8126C15.4429 19.3952 14.7174 18.6697 14.7174 17.3V17.1991H5.45129C4.35045 17.1991 3.51011 16.8742 2.94709 16.2299C2.42328 15.6305 2.15997 14.7622 2.15997 13.6473V8.70893C2.15997 7.59409 2.42328 6.72574 2.94709 6.1291C3.51011 5.48764 4.35325 5.15991 5.45129 5.15991H15.5437C16.6446 5.15991 17.4849 5.48484 18.0479 6.1291C18.5689 6.72854 18.835 7.59689 18.835 8.71173V8.71733ZM20.5185 18.0759C20.6558 17.9386 20.7258 17.6781 20.7258 17.3028V10.8126C20.7258 10.0647 20.4989 9.83778 19.751 9.83778H16.8098C16.0815 9.83778 15.835 10.0843 15.835 10.8126V17.3028C15.835 17.6809 15.9051 17.9414 16.0423 18.0759C16.1796 18.2131 16.4373 18.2804 16.8126 18.2804H19.7482C20.1236 18.2804 20.3813 18.2103 20.5185 18.0759ZM12.8182 18.2832H7.90227C7.59415 18.2832 7.34205 18.5353 7.34205 18.8434C7.34205 19.1515 7.59415 19.4036 7.90227 19.4036H12.8182C13.1264 19.4036 13.3785 19.1515 13.3785 18.8434C13.3785 18.5353 13.1264 18.2832 12.8182 18.2832ZM17.5325 16.849C17.5325 16.3924 17.8266 16.0983 18.2804 16.0983C18.7342 16.0983 19.0283 16.3924 19.0283 16.849C19.0283 17.1291 18.9191 17.2972 18.8294 17.3896C18.737 17.4848 18.5661 17.5969 18.2804 17.5969C17.9947 17.5969 17.8238 17.4848 17.7314 17.3896C17.639 17.2972 17.5325 17.1291 17.5325 16.849Z" fill="#313235"/>
</svg>
