<svg width="24" height="24" viewBox="0 0 24 24" fill="none" xmlns="http://www.w3.org/2000/svg">
<path fill-rule="evenodd" clip-rule="evenodd" d="M21.8189 9.39241C21.7405 9.65011 21.5024 9.82378 21.2335 9.82378V9.82098H19.4352V17.6725H21.1803C21.5192 17.6725 21.7937 17.9498 21.7937 18.2888V21.2271C21.7937 21.5661 21.5192 21.8434 21.1803 21.8434H2.82452C2.48558 21.8434 2.21107 21.5661 2.21107 21.2271V18.2888C2.21107 17.9498 2.48558 17.6725 2.82452 17.6725H4.60323V9.82098H2.7741C2.50519 9.82098 2.2699 9.64731 2.18866 9.3896C2.10743 9.1347 2.20267 8.85459 2.42396 8.70053L11.6537 2.26916C11.8665 2.1235 12.1438 2.1235 12.3539 2.26916L21.5836 8.70053C21.8021 8.85739 21.8973 9.1347 21.8189 9.39241ZM18.2083 17.6753H17.0374V9.82378H18.2083V17.6753ZM3.44077 20.6137H20.5696V18.9078H3.44077V20.6137ZM7.00379 17.6753H5.83292V9.82378H7.00379V17.6753ZM11.4324 17.6753H12.6032V9.82378H11.4324V17.6753ZM10.2083 17.6753H8.23348V9.82378H10.2083V17.6753ZM13.8329 17.6753H15.8077V9.82378H13.8329V17.6753ZM19.2727 8.59128L12.0038 3.52686L4.73488 8.59128H5.20827C5.21155 8.59128 5.21291 8.59032 5.21404 8.58953C5.21484 8.58896 5.21552 8.58848 5.21668 8.58848C5.21808 8.58848 5.21948 8.58918 5.22088 8.58988C5.22228 8.59058 5.22368 8.59128 5.22508 8.59128H7.60883C7.61023 8.59128 7.61163 8.59058 7.61303 8.58988C7.61444 8.58918 7.61584 8.58848 7.61724 8.58848C7.61864 8.58848 7.62004 8.58918 7.62144 8.58988C7.62284 8.59058 7.62424 8.59128 7.62564 8.59128H10.8105C10.8119 8.59128 10.8133 8.59058 10.8147 8.58988C10.8161 8.58918 10.8175 8.58848 10.8189 8.58848C10.8203 8.58848 10.8217 8.58918 10.8231 8.58988C10.8245 8.59058 10.8259 8.59128 10.8273 8.59128H13.2111C13.2125 8.59128 13.2139 8.59058 13.2153 8.58988C13.2167 8.58918 13.2181 8.58848 13.2195 8.58848C13.2209 8.58848 13.2223 8.58918 13.2237 8.58988C13.2251 8.59058 13.2265 8.59128 13.2279 8.59128H16.4128C16.4142 8.59128 16.4156 8.59058 16.417 8.58988C16.4184 8.58918 16.4198 8.58848 16.4212 8.58848C16.4226 8.58848 16.424 8.58918 16.4254 8.58988C16.4268 8.59058 16.4282 8.59128 16.4296 8.59128H18.8133C18.8147 8.59128 18.8161 8.59058 18.8175 8.58988C18.8189 8.58918 18.8203 8.58848 18.8217 8.58848C18.8225 8.58848 18.8233 8.5887 18.824 8.58901C18.8261 8.58982 18.8281 8.59128 18.8301 8.59128H19.2727Z" fill="#313235"/>
</svg>
