<svg width="24" height="24" viewBox="0 0 24 24" fill="none" xmlns="http://www.w3.org/2000/svg">
<path fill-rule="evenodd" clip-rule="evenodd" d="M21.8178 9.39241C21.7393 9.65011 21.5012 9.82378 21.2323 9.82378V9.82098H19.434V17.6725H21.1791C21.518 17.6725 21.7925 17.9498 21.7925 18.2888V21.2271C21.7925 21.5661 21.518 21.8434 21.1791 21.8434H2.82336C2.48442 21.8434 2.20991 21.5661 2.20991 21.2271V18.2888C2.20991 17.9498 2.48442 17.6725 2.82336 17.6725H4.60207V9.82098H2.77294C2.50403 9.82098 2.26874 9.64731 2.1875 9.3896C2.10907 9.1347 2.20151 8.85459 2.4228 8.70053L11.6525 2.26916C11.8654 2.1235 12.1427 2.1235 12.3528 2.26916L21.5825 8.70053C21.8009 8.85739 21.8962 9.1347 21.8178 9.39241ZM8.23232 17.6753H10.2071V9.82378H8.23232V17.6753ZM13.8318 17.6753H15.8066V9.82378H13.8318V17.6753Z" fill="#313235"/>
</svg>
