<svg width="24" height="24" viewBox="0 0 24 24" fill="none" xmlns="http://www.w3.org/2000/svg">
<path fill-rule="evenodd" clip-rule="evenodd" d="M19.3857 18.0087H21.3773C21.607 18.0087 21.7947 18.1963 21.7947 18.4288V21.4316C21.7947 21.6641 21.6098 21.8518 21.3773 21.8518H2.63219C2.40249 21.8518 2.21482 21.6641 2.21482 21.4316V18.4288C2.21482 18.1963 2.39969 18.0087 2.63219 18.0087H4.6574V9.56888H2.57896C2.39409 9.56888 2.23443 9.45123 2.1784 9.27476C2.12518 9.09829 2.18961 8.90781 2.34087 8.80417L11.7666 2.23554C11.9095 2.1347 12.1 2.1347 12.2428 2.23554L21.6686 8.80417C21.8171 8.90781 21.8815 9.09829 21.8283 9.27476C21.775 9.45123 21.6126 9.56888 21.4305 9.56888H19.3857V18.0087ZM20.9571 21.0115H3.04955V18.849H20.9571V21.0115ZM5.49213 18.0087H7.10838V9.56888H5.49213V18.0087ZM20.0944 8.72854L12.0047 3.09269L3.9123 8.72854H5.06636C5.06776 8.72854 5.06916 8.72784 5.07056 8.72714C5.07196 8.72644 5.07336 8.72574 5.07476 8.72574C5.07616 8.72574 5.07756 8.72644 5.07896 8.72714C5.08036 8.72784 5.08177 8.72854 5.08317 8.72854H7.51734C7.51874 8.72854 7.52014 8.72784 7.52154 8.72714C7.52294 8.72644 7.52434 8.72574 7.52574 8.72574C7.52714 8.72574 7.52854 8.72644 7.52994 8.72714C7.53134 8.72784 7.53275 8.72854 7.53415 8.72854H10.7862C10.7876 8.72854 10.789 8.72784 10.7904 8.72714C10.7918 8.72644 10.7932 8.72574 10.7947 8.72574C10.7961 8.72574 10.7975 8.72644 10.7989 8.72714C10.8003 8.72784 10.8017 8.72854 10.8031 8.72854H13.2372C13.2386 8.72854 13.24 8.72784 13.2414 8.72714C13.2428 8.72644 13.2442 8.72574 13.2456 8.72574C13.247 8.72574 13.2484 8.72644 13.2498 8.72714C13.2512 8.72784 13.2526 8.72854 13.254 8.72854H16.5061C16.5075 8.72854 16.5089 8.72784 16.5103 8.72714L16.5125 8.72615L16.5139 8.72579L16.5145 8.72574C16.5159 8.72574 16.5173 8.72644 16.5187 8.72714C16.5201 8.72784 16.5215 8.72854 16.5229 8.72854H18.9571C18.9585 8.72854 18.9599 8.72784 18.9613 8.72714C18.9627 8.72644 18.9641 8.72574 18.9655 8.72574C18.9669 8.72574 18.9683 8.72644 18.9697 8.72714C18.9711 8.72784 18.9725 8.72854 18.9739 8.72854H20.0944ZM13.6658 18.0087H16.1V9.56888H13.6658V18.0087ZM12.8311 18.0087H11.2148V9.56888H12.8311V18.0087ZM7.94311 18.0087H10.3773V9.56888H7.94311V18.0087ZM18.551 18.0087H16.9347V9.56888H18.551V18.0087Z" fill="#313235"/>
</svg>
