<svg width="24" height="24" viewBox="0 0 24 24" fill="none" xmlns="http://www.w3.org/2000/svg">
<path fill-rule="evenodd" clip-rule="evenodd" d="M19.809 4.70733C20.2628 4.73814 20.6185 5.11349 20.6213 5.56727H20.6241V18.3852H20.6101C20.6113 18.4073 20.6142 18.4273 20.617 18.447C20.6206 18.4722 20.6241 18.4969 20.6241 18.5253C20.6241 21.6177 17.9322 21.825 17.3916 21.8334L17.1115 21.8362C15.5485 21.8138 13.8762 20.9286 13.8762 18.5084C13.8762 16.0883 15.5373 15.2143 17.0919 15.2003L17.3832 15.2031C18.246 15.2227 19.1311 15.5168 19.7614 16.1611V8.12749L10.1619 5.56727L10.1507 14.5785H10.1339C9.96025 17.374 7.43924 17.5757 6.91823 17.5841C6.82299 17.5869 6.72776 17.5869 6.63252 17.5841C5.07229 17.5617 3.40002 16.6765 3.40002 14.2563C3.40002 11.8362 5.05829 10.9594 6.61571 10.9482C6.66473 10.9496 6.71585 10.9496 6.76592 10.9496C6.81599 10.9496 6.86501 10.9496 6.90983 10.951C7.76697 10.9706 8.65213 11.2619 9.28238 11.9062V3.01265C9.28238 2.53926 9.67453 2.1499 10.1591 2.1499L10.2712 2.16671L19.809 4.70733ZM10.1591 3.01545L10.1563 4.68492L19.7558 7.24234V5.56447L19.6297 5.53926L10.1591 3.01545ZM6.81863 16.7331C6.84559 16.7328 6.87157 16.7325 6.89582 16.7325C7.61291 16.7185 9.27958 16.4552 9.27958 14.2732C9.27958 12.0911 7.60451 11.8166 6.88462 11.7998C6.80058 11.797 6.70535 11.797 6.61851 11.797C5.90983 11.8026 4.25997 12.0575 4.25997 14.2563C4.25997 16.4608 5.92664 16.7241 6.64092 16.7325C6.6999 16.7344 6.76145 16.7338 6.81858 16.7331H6.8186H6.81863ZM17.372 20.9818L17.1171 20.9846C16.4028 20.9762 14.7362 20.7129 14.7362 18.5084C14.7362 16.3096 16.386 16.0575 17.0947 16.0519L17.3608 16.0547C18.0807 16.0715 19.7586 16.346 19.7586 18.5281C19.7558 20.7045 18.0891 20.9706 17.372 20.9818Z" fill="#313235"/>
</svg>
