<svg width="24" height="24" viewBox="0 0 24 24" fill="none" xmlns="http://www.w3.org/2000/svg">
<path d="M12.7885 20.1597C12.7801 20.1373 12.7773 20.1149 12.7773 20.0897C12.7801 19.7731 12.7829 19.1961 12.7773 19.0561V17.7535C12.7773 17.6387 12.8698 17.5435 12.9874 17.5435H14.4468C14.5168 17.5435 14.5812 17.5771 14.6205 17.6359C14.8389 17.958 15.2115 18.1513 15.6233 18.1513C16.2759 18.1513 16.8053 17.6695 16.8053 17.0785C16.8053 16.4874 16.2759 16.0084 15.6233 16.0084C15.2143 16.0084 14.8389 16.2017 14.6205 16.5238C14.5812 16.5827 14.5168 16.6163 14.4468 16.6163H12.9874C12.8726 16.6163 12.7773 16.5238 12.7773 16.4062V9.53505C12.7773 9.42021 12.8698 9.32497 12.9874 9.32497H14.021C14.1359 9.32497 14.2311 9.41741 14.2311 9.53505V11.7115C14.2311 11.7816 14.1975 11.846 14.1387 11.8852C13.8305 12.0925 13.6513 12.4062 13.6513 12.7451C13.6513 13.3362 14.1807 13.818 14.8333 13.818C15.2423 13.818 15.6176 13.6275 15.8361 13.3054C15.8754 13.2493 15.9398 13.2129 16.0098 13.2129L18.6625 13.2073C18.7185 13.2073 18.7717 13.2297 18.8109 13.2689C18.8501 13.3082 18.8726 13.3614 18.8726 13.4174V14.8096C18.8726 14.8852 18.8333 14.9552 18.7661 14.9916C18.416 15.1905 18.2087 15.5295 18.2087 15.8964C18.2087 16.4874 18.7381 16.9692 19.3908 16.9692C20.0406 16.9692 20.57 16.4874 20.57 15.8964C20.57 15.5323 20.3627 15.1933 20.0182 14.9944C19.9538 14.958 19.9146 14.888 19.9146 14.8124V12.7451C19.9146 12.6247 19.8613 12.507 19.7689 12.4258C19.6681 12.3334 19.5364 12.283 19.3992 12.283H19.3964L16.0182 12.2886C15.9482 12.2886 15.8838 12.2549 15.8445 12.1961C15.7297 12.0281 15.5756 11.8936 15.3936 11.8096C15.3207 11.7759 15.2731 11.7003 15.2731 11.6219V9.53505C15.2731 9.42021 15.3655 9.32497 15.4832 9.32497H18.0658C18.3515 9.32497 18.5868 9.11769 18.5868 8.86278V7.22133C18.5868 7.1457 18.6261 7.07567 18.6933 7.03925C19.0434 6.84037 19.2507 6.50424 19.2507 6.13729C19.2507 5.54626 18.7213 5.06727 18.0686 5.06727C17.4188 5.06727 16.8894 5.54626 16.8894 6.13729C16.8894 6.50424 17.0966 6.84037 17.4412 7.03925C17.5056 7.07567 17.5476 7.1457 17.5476 7.22133V8.19052C17.5476 8.30536 17.4552 8.4006 17.3375 8.4006H12.9874C12.8726 8.4006 12.7773 8.30816 12.7773 8.19052V4.6415C12.7773 4.43981 12.7829 3.70312 12.7857 3.43701C12.7857 3.409 12.7913 3.37819 12.8053 3.35298C12.9482 3.03925 13.5 2.01685 14.6429 2.01685C15.612 2.01685 16.3151 2.35298 16.7297 3.01404C16.7633 3.06727 16.7717 3.12889 16.7521 3.18771C16.7325 3.24654 16.6905 3.29416 16.6317 3.31657C15.9482 3.59948 15.4048 4.1569 15.1387 4.84878L15.0658 5.05326C15.0294 5.1625 15.0406 5.27735 15.0938 5.37819C15.1555 5.49584 15.2703 5.58547 15.4076 5.62469C15.458 5.63869 15.5112 5.6471 15.5644 5.6471C15.7913 5.6471 15.9986 5.50984 16.063 5.31657L16.1219 5.1485C16.1219 5.1457 16.1219 5.1457 16.1247 5.1429C16.2283 4.87679 16.6401 4.01124 17.6289 4.03925H17.6429C18.4972 4.04206 19.2339 4.22413 19.8333 4.58267C20.3431 4.88799 20.7549 5.31937 21.0602 5.86559C21.5896 6.81517 21.6681 7.87399 21.6681 8.42301C21.6681 8.74794 21.6261 9.8936 21.0826 10.93C21.0546 10.9804 21.007 11.0196 20.951 11.0337C20.895 11.0477 20.8361 11.0393 20.7857 11.0084C20.2087 10.6499 19.542 10.4286 18.8025 10.353C18.5196 10.3194 18.2563 10.507 18.2283 10.7619C18.2143 10.874 18.2479 10.986 18.3207 11.0785C18.4076 11.1849 18.5392 11.2549 18.6849 11.2689C19.5112 11.353 20.1751 11.6387 20.6653 12.1233L20.6821 12.1401C21.598 13.2661 21.6681 14.818 21.6681 15.2661C21.6681 15.8068 21.5896 16.8516 21.0574 17.7956C20.7521 18.339 20.3403 18.7675 19.8333 19.0757C19.2311 19.4398 18.4888 19.6303 17.6289 19.6443H17.6064C17.3235 19.6443 17.0126 19.5463 16.7017 19.3586C16.6345 19.3194 16.57 19.2745 16.5084 19.2297C16.2759 19.0617 15.9538 19.0953 15.7605 19.3054C15.6849 19.3922 15.6485 19.5014 15.6569 19.6135C15.6653 19.7283 15.7157 19.832 15.8025 19.9076C15.8137 19.9188 15.8277 19.9272 15.8417 19.9384C15.923 19.9972 16.0098 20.0561 16.1162 20.1233C16.2675 20.2129 16.43 20.2914 16.6289 20.3726C16.6849 20.395 16.7297 20.4426 16.7493 20.5014C16.7689 20.5603 16.7605 20.6247 16.7269 20.6779C16.3179 21.3362 15.6148 21.6723 14.6429 21.6723C13.3964 21.6723 12.909 20.5154 12.7885 20.1597Z" fill="#313235"/>
<path d="M7.80252 20.7171C7.7661 20.6639 7.7577 20.5967 7.78011 20.535C7.79972 20.4734 7.84734 20.4258 7.90896 20.4034C8.13025 20.325 8.32913 20.2325 8.514 20.1205C8.63165 20.0504 8.70728 19.944 8.73529 19.818C8.7577 19.7031 8.73249 19.5883 8.66246 19.4902C8.5056 19.2689 8.17507 19.2073 7.93137 19.353C7.60084 19.5518 7.30672 19.6443 7.0098 19.6415H6.98739C6.96778 19.6443 6.94257 19.6499 6.91176 19.6499H6.89215L6.87815 19.6471C6.02101 19.6443 5.28431 19.4622 4.68207 19.1037C4.17227 18.7983 3.7605 18.367 3.45518 17.8208C2.92577 16.8712 2.84734 15.8124 2.84734 15.2633C2.84734 14.9496 2.88655 13.8404 3.39916 12.8152C3.44117 12.7311 3.53361 12.6863 3.62605 12.7031C3.71849 12.7227 3.78851 12.8011 3.79412 12.8936C3.83053 13.4454 4.22549 13.9104 4.84734 14.1345L4.97339 14.1765C5.02381 14.1933 5.07703 14.2017 5.13025 14.2017C5.33193 14.1989 5.514 14.0729 5.58683 13.8824V13.8796C5.63445 13.7619 5.60364 13.6527 5.57283 13.5799C5.5112 13.4454 5.39075 13.3334 5.2451 13.2801C5.11905 13.2409 5.0042 13.1625 4.92297 13.056C4.87535 12.9944 4.86694 12.9104 4.90056 12.8404C4.93417 12.7703 5.0042 12.7255 5.07983 12.7199C5.54482 12.7003 5.93977 12.6023 6.2535 12.4258C6.37395 12.3586 6.45518 12.2549 6.48319 12.1317C6.5112 12.0196 6.48879 11.902 6.42157 11.8011C6.27031 11.5743 5.94538 11.5042 5.69608 11.6443C5.45518 11.7815 5.13585 11.8348 4.72409 11.8039C4.34874 11.7759 4.04342 11.6779 3.82213 11.5126C3.80532 11.5014 3.79412 11.4874 3.78011 11.4734C2.91176 10.3474 2.84454 8.85157 2.84454 8.41739C2.84454 7.86837 2.92577 6.80955 3.46638 5.85997C3.77731 5.31375 4.20028 4.88238 4.72129 4.57706C5.33753 4.21571 6.09664 4.03364 6.97899 4.03364H6.98739C7.30392 4.04484 7.53361 4.09807 7.73249 4.20451C7.81372 4.24933 7.90896 4.27454 8.0042 4.27454C8.18907 4.27454 8.36274 4.1849 8.45798 4.04204C8.52241 3.9412 8.54202 3.82356 8.514 3.71151C8.48319 3.58826 8.39916 3.48462 8.27871 3.42019C8.16386 3.35857 8.04342 3.30535 7.92017 3.26053C7.85854 3.23812 7.81372 3.1905 7.79131 3.12888C7.77171 3.06725 7.78011 3.00003 7.81652 2.9468C8.23389 2.32776 8.92297 2.01123 9.86975 2.01123C11.1162 2.01123 11.6036 3.16809 11.7241 3.52384C11.7325 3.54624 11.7353 3.57145 11.7353 3.59386C11.7297 3.9384 11.7297 4.28854 11.7353 4.63308V5.49022C11.7353 5.60507 11.6429 5.70031 11.5252 5.70031H10.2031C10.1359 5.70031 10.0714 5.66669 10.0322 5.61067C9.80252 5.28014 9.42717 5.08686 9.02661 5.09246C8.37395 5.09246 7.84173 5.57145 7.84173 6.16249C7.84173 6.75353 8.37115 7.23252 9.02381 7.23252C9.43557 7.23252 9.81092 7.03924 10.0294 6.71711C10.0686 6.65829 10.1331 6.62468 10.2031 6.62468H11.5252C11.6401 6.62468 11.7353 6.71711 11.7353 6.83476V8.1821C11.7353 8.29694 11.6429 8.39218 11.5252 8.39218H6.5112C6.44398 8.39218 6.37955 8.35857 6.34033 8.30255C6.11344 7.97762 5.7437 7.78434 5.34874 7.78434H5.33753C4.68487 7.78434 4.15266 8.26333 4.15266 8.85437C4.15266 9.4454 4.68207 9.9244 5.33473 9.9244C5.7465 9.9244 6.12185 9.73112 6.34033 9.40899C6.37955 9.35017 6.44398 9.31655 6.514 9.31655H11.5308C11.6457 9.31655 11.7409 9.40899 11.7409 9.52664V10.6611C11.7409 10.7759 11.6485 10.8712 11.5308 10.8712H9.05742C8.77171 10.8712 8.53641 11.0785 8.53641 11.3334V13.4006C8.53641 13.4762 8.4972 13.5462 8.42997 13.5827C8.08263 13.7815 7.87535 14.1205 7.87535 14.4874C7.87535 15.0785 8.40476 15.5574 9.05742 15.5574C9.71008 15.5574 10.2395 15.0785 10.2395 14.4874C10.2395 14.1205 10.0322 13.7815 9.68487 13.5827C9.62045 13.5462 9.57843 13.4762 9.57843 13.4006V12.0056C9.57843 11.8908 9.67087 11.7955 9.78851 11.7955H11.5336C11.6485 11.7955 11.7437 11.888 11.7437 12.0056V17.3782C11.7437 17.493 11.6513 17.5883 11.5336 17.5883H6.18347C6.06863 17.5883 5.97619 17.4958 5.97339 17.381L5.97059 17.2353C5.95658 17.1485 5.9986 17.0617 6.07703 17.0196C6.43277 16.8236 6.64566 16.4818 6.64566 16.1093C6.64566 15.5182 6.11624 15.0364 5.46358 15.0364C4.81092 15.0364 4.28151 15.5182 4.28151 16.1093C4.28151 16.4762 4.48879 16.8124 4.83333 17.0112C4.90336 17.0504 4.94258 17.1261 4.93697 17.2045C4.93697 17.2241 4.93137 17.2409 4.92857 17.2549L4.93977 18.056C4.94258 18.3081 5.17787 18.5126 5.46078 18.5126H11.5224C11.6373 18.5126 11.7325 18.6051 11.7325 18.7227V19.0476C11.7325 19.2157 11.7269 19.7395 11.7241 20.0869L11.7213 20.2493C11.7213 20.2773 11.7157 20.3081 11.7017 20.3334C11.5672 20.6471 11.0126 21.6723 9.86975 21.6723C8.91176 21.6723 8.21708 21.3502 7.80252 20.7171Z" fill="#313235"/>
</svg>
