<svg width="24" height="24" viewBox="0 0 24 24" fill="none" xmlns="http://www.w3.org/2000/svg">
<path fill-rule="evenodd" clip-rule="evenodd" d="M20.5306 14.968C21.3793 15.814 21.8191 16.7131 21.8359 17.6375C21.8527 18.5927 21.4186 19.5395 20.5446 20.4554C20.2813 20.7187 19.9956 20.9568 19.6903 21.1697C19.0376 21.6235 18.2813 21.8336 17.3934 21.8336C16.4998 21.8336 15.5054 21.6179 14.4326 21.1893C12.2869 20.3378 9.94517 18.6767 7.66786 16.3994L7.59783 16.3294C7.59223 16.3238 7.58663 16.3175 7.58103 16.3112C7.57543 16.3049 7.56982 16.2986 7.56422 16.293C5.30652 14.0381 3.64825 11.6991 2.79111 9.55068C1.93957 7.41342 1.93677 5.56468 2.77991 4.34339L2.83873 4.26496C2.91156 4.16132 3.20848 3.74956 3.52781 3.44143C4.44657 2.56748 5.38495 2.13891 6.34853 2.15012C7.2701 2.16692 8.16926 2.6067 9.018 3.45544C9.35414 3.79437 9.63145 4.14451 9.83873 4.50026C10.2981 5.24535 10.469 6.02967 10.3345 6.81958C10.2029 7.59269 9.77711 8.34619 9.07402 9.04928C8.94237 9.18093 8.84153 9.27337 8.71268 9.38261C8.74629 9.50026 8.84153 9.74115 9.12164 10.1501C9.68467 10.9708 10.6342 11.9456 11.2953 12.6095L11.3765 12.6879C12.0404 13.3518 13.018 14.2986 13.8359 14.8644C14.2477 15.1445 14.4886 15.2426 14.6034 15.2734C14.7127 15.1445 14.8079 15.0437 14.9396 14.912C15.6427 14.2061 16.3934 13.7832 17.1693 13.6515C17.962 13.5199 18.7435 13.6851 19.4998 14.1557C19.8415 14.3546 20.1945 14.6319 20.5306 14.968ZM19.9508 19.8896C20.6679 19.1389 21.0264 18.3854 21.0152 17.6543C21.0012 16.9512 20.6427 16.2426 19.9508 15.5507C19.6903 15.2846 19.3962 15.0521 19.0768 14.8616C18.4858 14.4975 17.8976 14.3658 17.3065 14.4638C16.7015 14.5675 16.102 14.9148 15.5194 15.4947C15.3793 15.6347 15.2477 15.7804 15.1244 15.9372C15.0908 15.9792 15.0516 16.0129 15.004 16.0381C14.6679 16.2257 14.1328 16.0661 13.3709 15.5423C12.4942 14.94 11.4802 13.9568 10.7939 13.2706L10.7127 13.1921C10.0264 12.5059 9.04321 11.4947 8.44097 10.6151C7.91996 9.856 7.7575 9.32379 7.94517 8.98485C7.97038 8.93723 8.0068 8.89521 8.04881 8.8616C8.23089 8.71594 8.33733 8.6207 8.49139 8.46944C9.07402 7.88681 9.42136 7.28457 9.525 6.68233C9.62584 6.09409 9.49419 5.50306 9.13285 4.92323C8.93957 4.5983 8.70708 4.30138 8.43537 4.03807C7.74349 3.34339 7.03481 2.98485 6.33173 2.97365C5.62024 2.95684 4.84993 3.31818 4.09643 4.03807C3.86954 4.26496 3.66506 4.51426 3.48019 4.77757C2.7715 5.79998 2.80792 7.37701 3.55302 9.25096C4.36814 11.2958 5.96478 13.5395 8.16646 15.7412L8.16926 15.744L8.23929 15.814C10.4466 18.0213 12.6903 19.6151 14.7351 20.4302C16.595 21.1725 18.1945 21.2061 19.1749 20.5283C19.5306 20.2734 19.7799 20.0661 19.9508 19.8896ZM12.7603 7.14171C12.7603 4.3714 14.1048 3.02687 16.8723 3.02687C19.6399 3.02687 20.9872 4.3714 20.9872 7.14171C20.9872 9.90922 19.6399 11.2538 16.8723 11.2538C14.0656 11.2538 12.7603 9.94563 12.7603 7.14171ZM16.8723 12.0745C13.7547 12.0745 11.9396 10.5031 11.9396 7.14171C11.9396 3.78037 13.7547 2.20614 16.8723 2.20614C19.99 2.20614 21.8079 3.78037 21.8079 7.14171C21.8079 10.5003 19.99 12.0717 16.8723 12.0745ZM14.9032 8.52547C14.7435 8.68513 14.7435 8.94563 14.9032 9.1053C14.9032 9.1081 14.906 9.1081 14.906 9.1081C15.0656 9.26776 15.3233 9.26496 15.483 9.1053L16.8667 7.71874L18.2589 9.1109C18.4186 9.27056 18.6791 9.27056 18.8387 9.1109C18.9984 8.95124 18.9984 8.69073 18.8387 8.53107L17.4494 7.13891L18.8415 5.74676C19.0012 5.58709 19.0012 5.32659 18.8415 5.16692C18.6819 5.00726 18.4214 5.00726 18.2617 5.16692L16.8695 6.55908L15.483 5.17253C15.3233 5.01286 15.0628 5.01286 14.9032 5.17253C14.7435 5.33219 14.7435 5.59269 14.9032 5.75236L16.2897 7.13891L14.9032 8.52547Z" fill="#313235"/>
</svg>
