<svg width="24" height="24" viewBox="0 0 24 24" fill="none" xmlns="http://www.w3.org/2000/svg">
<path fill-rule="evenodd" clip-rule="evenodd" d="M20.4959 14.7661C21.3643 15.6345 21.8152 16.5588 21.832 17.5196C21.8517 18.5084 21.4063 19.486 20.5127 20.4216C20.2046 20.7437 19.79 21.0462 19.6556 21.1443L19.6332 21.1583C19.6317 21.1598 19.6301 21.1612 19.6284 21.1626C19.6272 21.1635 19.626 21.1645 19.6248 21.1654L19.6192 21.1695L19.6191 21.1695L19.6114 21.1752C19.6092 21.1769 19.6071 21.1787 19.6052 21.1807C18.9749 21.6149 18.1934 21.8361 17.283 21.8361C16.3811 21.8361 15.3839 21.6177 14.3082 21.1919C12.1794 20.3432 9.86568 18.7045 7.61078 16.4496L7.54915 16.3852C7.54542 16.3833 7.54168 16.379 7.53795 16.3746C7.53608 16.3724 7.53421 16.3702 7.53235 16.3684C5.28025 14.1191 3.6416 11.8025 2.79286 9.6737C1.93291 7.51684 1.93572 5.63729 2.80126 4.38239L2.81785 4.35956C2.9591 4.16509 3.24562 3.77063 3.56316 3.46923C4.49874 2.57287 5.46232 2.1555 6.46512 2.1499C7.4231 2.16671 8.35027 2.61769 9.21862 3.48603C9.56035 3.82777 9.84327 4.18631 10.0534 4.55046C10.5295 5.31797 10.7032 6.13309 10.5632 6.95662C10.4287 7.75774 9.99453 8.52804 9.27184 9.25073C9.18781 9.33477 9.10097 9.4188 9.01134 9.49723C9.06176 9.61488 9.15699 9.79975 9.34187 10.0743C9.87968 10.8586 10.8041 11.8082 11.4511 12.4552L11.5295 12.5336C12.1766 13.1779 13.1262 14.1023 13.9133 14.6429C14.185 14.8278 14.3699 14.923 14.4875 14.9734C14.5631 14.8866 14.6388 14.8081 14.7368 14.7129C15.4567 13.993 16.2298 13.556 17.0309 13.4216C17.8573 13.2815 18.6724 13.458 19.4539 13.9398C19.7984 14.1443 20.157 14.4244 20.4959 14.7661ZM19.6416 19.5897C20.3082 18.8922 20.6388 18.2031 20.6276 17.542C20.6164 16.9062 20.283 16.2591 19.6444 15.6205C19.4007 15.3712 19.1262 15.1555 18.8264 14.9762C18.2886 14.6429 17.7536 14.5252 17.227 14.6121C16.678 14.7045 16.1262 15.0266 15.5828 15.5672C15.4511 15.6989 15.3279 15.8362 15.213 15.9818C15.1654 16.0406 15.1038 16.0911 15.0365 16.1303C14.6276 16.3628 14.0533 16.2031 13.2242 15.6373C12.3559 15.0406 11.3503 14.0687 10.6724 13.388L10.594 13.3096C9.91329 12.6289 8.93851 11.6261 8.34467 10.7577C7.77884 9.9314 7.61918 9.35717 7.84887 8.94821C7.88529 8.88099 7.93571 8.81936 7.99733 8.77174C8.1682 8.63449 8.26904 8.54485 8.4147 8.40199C8.95531 7.86138 9.27744 7.30956 9.36988 6.75774C9.45951 6.23113 9.33907 5.69612 9.01414 5.17231C8.83767 4.86699 8.61918 4.58687 8.36428 4.34038C7.72282 3.70172 7.07576 3.36839 6.43991 3.35718C5.75924 3.34038 5.08977 3.67651 4.39229 4.34318C4.17941 4.55886 3.98613 4.79136 3.81246 5.04065C3.1598 5.98463 3.20182 7.46082 3.9077 9.23112C4.69481 11.2031 6.23823 13.374 8.36708 15.5084L8.38949 15.528L8.45952 15.5981C10.5996 17.7381 12.776 19.2871 14.7536 20.0742C16.5043 20.7717 18.0113 20.8137 18.9133 20.1919C18.9301 20.1751 18.9497 20.1611 18.9693 20.1499C19.115 20.0462 19.4259 19.8137 19.6416 19.5897ZM13.1458 7.23953C13.1458 4.72973 14.2634 3.61209 16.7704 3.61209C19.2802 3.60928 20.4007 4.72973 20.3979 7.23953C20.3979 9.74653 19.2802 10.8642 16.7704 10.8642C14.2634 10.8642 13.1458 9.74653 13.1458 7.23953ZM16.7704 12.0715C13.7172 12.0715 11.9385 10.5308 11.9385 7.23953C11.9385 3.94542 13.7172 2.4048 16.7704 2.4048C19.8236 2.4048 21.608 3.94822 21.608 7.23953C21.608 10.5308 19.8236 12.0715 16.7704 12.0715ZM14.7004 8.45522C14.4651 8.69051 14.4651 9.07146 14.7004 9.30675C14.9357 9.54205 15.3166 9.54205 15.5547 9.30675L16.7704 8.09107L17.9861 9.31516C18.2242 9.55045 18.6052 9.55045 18.8405 9.31516C19.0757 9.07706 19.0757 8.69611 18.8405 8.46082L17.6192 7.23953L18.8405 6.01824C19.0757 5.78295 19.0757 5.402 18.8405 5.1667C18.6052 4.93141 18.2242 4.93141 17.9889 5.1667L16.7676 6.38799L15.5519 5.17231C15.3166 4.93701 14.9357 4.93701 14.7004 5.17231C14.4651 5.4076 14.4651 5.78855 14.7004 6.02385L15.9161 7.23953L14.7004 8.45522Z" fill="#313235"/>
</svg>
