<svg width="24" height="24" viewBox="0 0 24 24" fill="none" xmlns="http://www.w3.org/2000/svg">
<path fill-rule="evenodd" clip-rule="evenodd" d="M4.05044 4.73254C4.30814 4.99864 4.6919 5.1387 5.15408 5.1387C5.61627 5.1387 6.00282 4.99584 6.25772 4.73254C6.51263 4.46923 6.64148 4.10508 6.64148 3.6429C6.64148 2.70733 6.08685 2.1499 5.15408 2.1499C4.22131 2.1499 3.66669 2.70733 3.66669 3.6429C3.66669 4.10508 3.79274 4.46643 4.05044 4.73254ZM4.22691 3.6429C4.22691 3.01545 4.52943 2.71013 5.15408 2.71013C5.77873 2.71013 6.08125 3.01545 6.08125 3.6429C6.08125 3.95382 6.01122 4.18352 5.85716 4.34038C5.7031 4.49724 5.46781 4.57567 5.15408 4.57567C4.84036 4.57567 4.59946 4.49444 4.451 4.34038C4.30254 4.18632 4.22691 3.95382 4.22691 3.6429ZM8.7059 5.1387C8.24372 5.1387 7.86277 4.99864 7.60226 4.73254C7.34176 4.46643 7.21851 4.10508 7.21851 3.6429C7.21851 2.70733 7.77593 2.1499 8.7059 2.1499C9.63587 2.1499 10.1933 2.70733 10.1933 3.6429C10.1933 4.10508 10.0644 4.46923 9.80954 4.73254C9.55464 4.99584 9.16809 5.1387 8.7059 5.1387ZM7.77873 3.6429C7.77873 3.01545 8.08125 2.71013 8.7059 2.71013C9.33055 2.71013 9.63307 3.01545 9.63307 3.6429C9.63307 3.95382 9.56305 4.18352 9.40898 4.34038C9.25492 4.49724 9.01963 4.57567 8.7059 4.57567C8.39218 4.57567 8.15128 4.49444 8.00282 4.34038C7.85436 4.18632 7.77873 3.95382 7.77873 3.6429ZM12.2549 5.1387C11.7927 5.1387 11.4118 4.99864 11.1513 4.73254C10.8908 4.46643 10.7675 4.10508 10.7675 3.6429C10.7675 2.70733 11.3221 2.1499 12.2549 2.1499C13.1877 2.1499 13.7423 2.70733 13.7423 3.6429C13.7423 4.10508 13.6135 4.46923 13.3586 4.73254C13.1037 4.99584 12.7171 5.1387 12.2549 5.1387ZM11.3278 3.6429C11.3278 3.01545 11.6303 2.71013 12.2549 2.71013C12.8796 2.71013 13.1821 3.01545 13.1821 3.6429C13.1821 3.95382 13.1121 4.18352 12.958 4.34038C12.8039 4.49724 12.5686 4.57567 12.2549 4.57567C11.9412 4.57567 11.7003 4.49444 11.5518 4.34038C11.4034 4.18632 11.3278 3.95382 11.3278 3.6429ZM5.15408 8.41601C4.6919 8.41601 4.30814 8.27595 4.05044 8.00985C3.79274 7.74374 3.66669 7.3824 3.66669 6.92021C3.66669 5.98464 4.22411 5.42721 5.15408 5.42721C6.08405 5.42721 6.64148 5.98464 6.64148 6.92021C6.64148 7.3824 6.51263 7.74654 6.25772 8.00985C6.00282 8.27315 5.61627 8.41601 5.15408 8.41601ZM4.22691 6.92021C4.22691 6.29276 4.52943 5.98744 5.15408 5.98744C5.77873 5.98744 6.08125 6.29276 6.08125 6.92021C6.08125 7.22833 6.01122 7.46083 5.85716 7.61769C5.7031 7.77455 5.46781 7.85298 5.15408 7.85298C4.84036 7.85298 4.59946 7.77175 4.451 7.61769C4.30254 7.46363 4.22691 7.23113 4.22691 6.92021ZM8.7059 8.41601C8.24372 8.41601 7.86277 8.27595 7.60226 8.00985C7.34176 7.74374 7.21851 7.3824 7.21851 6.92021C7.21851 5.98464 7.77593 5.42721 8.7059 5.42721C9.63587 5.42721 10.1933 5.98464 10.1933 6.92021C10.1933 7.3824 10.0644 7.74654 9.80954 8.00985C9.55464 8.27315 9.16809 8.41601 8.7059 8.41601ZM7.77873 6.92021C7.77873 6.29276 8.08125 5.98744 8.7059 5.98744C9.33055 5.98744 9.63307 6.29276 9.63307 6.92021C9.63307 7.22833 9.56305 7.46083 9.40898 7.61769C9.25492 7.77455 9.01963 7.85298 8.7059 7.85298C8.39218 7.85298 8.15128 7.77175 8.00282 7.61769C7.85436 7.46363 7.77873 7.23113 7.77873 6.92021ZM11.7087 21.8278H18.1569C18.8936 21.8278 19.5182 21.6065 19.9104 21.2059C20.3025 20.8054 20.5014 20.2367 20.5014 19.514V13.5056C20.5014 12.6233 19.9776 12.0939 19.0953 12.0939C18.7563 12.0939 18.4678 12.1723 18.2437 12.3208C18.1821 11.5337 17.6695 11.0687 16.8432 11.0687C16.5014 11.0687 16.2129 11.1471 15.9888 11.2956C15.9244 10.514 15.4118 10.0547 14.5883 10.0547C14.2521 10.0547 13.9664 10.1331 13.7423 10.2788V6.92301C13.7423 5.98744 13.1877 5.43001 12.2549 5.43001C11.3614 5.43001 10.8348 5.95382 10.7731 6.9062V6.92301L10.7731 7.08751V7.08825C10.7727 8.1546 10.7706 14.0149 10.7731 14.3936C10.7759 14.4328 10.7703 14.4692 10.7591 14.5056C10.7227 14.472 10.6639 14.4076 10.5911 14.2732C10.5322 14.1667 10.4762 14.0603 10.4202 13.9539L10.4202 13.9538C10.0757 13.3012 9.75072 12.6877 9.40338 12.4132C8.92999 12.0407 8.26052 12.0267 7.81235 12.3852C7.46781 12.6569 7.21851 13.2003 7.55184 13.9006C8.24932 15.3712 9.63868 18.374 10.3838 19.9874L10.5892 20.4316L10.5899 20.4329L10.5902 20.4337L10.5904 20.4342C10.7434 20.7649 10.8538 21.0036 10.9076 21.1191C11.0813 21.486 11.2969 21.8278 11.7087 21.8278ZM8.15688 12.8222C8.27453 12.7297 8.41739 12.6793 8.56585 12.6821C8.74232 12.6849 8.91319 12.7437 9.05604 12.8558C9.30814 13.0547 9.62187 13.6457 9.92439 14.2171C9.95241 14.2704 9.98112 14.3243 10.0098 14.3782C10.0385 14.4321 10.0673 14.486 10.0953 14.5393C10.4006 15.1079 10.7311 15.1191 10.902 15.0771C11.1653 15.0098 11.3334 14.7409 11.3334 14.3908C11.331 14.045 11.3326 9.15992 11.3332 7.48244V7.48048L11.3334 6.93142C11.3782 6.27035 11.6555 5.98744 12.2577 5.98744C12.8824 5.98744 13.1849 6.29276 13.1849 6.92021V11.4664H13.7451C13.7451 10.895 14.0224 10.6149 14.5911 10.6149C15.1597 10.6149 15.437 10.8922 15.437 11.4664V12.4804H15.9972C15.9972 11.909 16.2745 11.6289 16.8432 11.6289C17.4118 11.6289 17.6891 11.9062 17.6891 12.4804V13.5056H18.2493C18.2493 12.9342 18.5266 12.6541 19.0953 12.6541C19.6639 12.6541 19.9412 12.9314 19.9412 13.5056V19.5056C19.9412 20.0771 19.7983 20.514 19.5098 20.8082C19.2213 21.1023 18.7395 21.2647 18.1541 21.2647H11.7059C11.6751 21.2647 11.5939 21.2647 11.4146 20.881C11.3478 20.74 11.1936 20.4066 10.9789 19.9427L10.9786 19.9419L10.9782 19.9411L10.9778 19.9403L10.8908 19.7521C10.1457 18.1387 8.75352 15.1331 8.05604 13.6597C7.88798 13.3124 7.92719 13.0042 8.15688 12.8222ZM5.15408 11.6933C4.6919 11.6933 4.30814 11.5533 4.05044 11.2872C3.79274 11.0211 3.66669 10.6597 3.66669 10.1975C3.66669 9.26195 4.22411 8.70172 5.15408 8.70172C6.08405 8.70172 6.64148 9.25915 6.64148 10.1947C6.64148 10.6569 6.51263 11.0211 6.25772 11.2844C6.00282 11.5477 5.61627 11.6933 5.15408 11.6933ZM4.22691 10.1975C4.22691 9.57007 4.52943 9.26475 5.15408 9.26475C5.77873 9.26475 6.08125 9.57007 6.08125 10.1975C6.08125 10.5084 6.01122 10.7381 5.85716 10.895C5.7031 11.0519 5.46781 11.1303 5.15408 11.1303C4.84036 11.1303 4.59946 11.0491 4.451 10.895C4.30254 10.7409 4.22691 10.5056 4.22691 10.1975ZM8.7059 11.6933C8.24372 11.6933 7.86277 11.5533 7.60226 11.2872C7.34176 11.0211 7.21851 10.6597 7.21851 10.1975C7.21851 9.26195 7.77593 8.70452 8.7059 8.70452C9.63587 8.70452 10.1933 9.26195 10.1933 10.1975C10.1933 10.6597 10.0644 11.0239 9.80954 11.2872C9.55464 11.5505 9.16809 11.6933 8.7059 11.6933ZM8.7059 9.26475C8.08125 9.26475 7.77873 9.57007 7.77873 10.1975C7.77873 10.5056 7.85436 10.7409 8.00282 10.895C8.15128 11.0491 8.39218 11.1303 8.7059 11.1303C9.01963 11.1303 9.25492 11.0519 9.40898 10.895C9.56305 10.7381 9.63307 10.5084 9.63307 10.1975C9.63307 9.57007 9.33055 9.26475 8.7059 9.26475Z" fill="#313235"/>
</svg>
