<svg width="24" height="24" viewBox="0 0 24 24" fill="none" xmlns="http://www.w3.org/2000/svg">
<path fill-rule="evenodd" clip-rule="evenodd" d="M11.9639 21.7734C11.4292 21.7734 11.0932 21.3425 10.9837 21.2022L10.9835 21.2019C10.7903 20.9526 10.6194 20.6445 10.4569 20.3476L10.4543 20.3428C10.3165 20.0926 10.0695 19.6439 9.93031 19.5409C9.75247 19.5548 9.29624 19.8305 9.04012 19.9853L9.04007 19.9853L9.03395 19.989L9.03264 19.9898C8.36078 20.3958 7.66661 20.8151 7.05916 20.4624C6.44291 20.1067 6.45972 19.2888 6.47653 18.496L6.47672 18.4857C6.48238 18.1923 6.49248 17.6679 6.4205 17.5101C6.26301 17.4382 5.74304 17.4481 5.44664 17.4538H5.4466L5.43451 17.454C4.64459 17.4708 3.82667 17.4876 3.46812 16.8714C3.12241 16.2664 3.53704 15.5754 3.93866 14.906L3.94431 14.8966C4.09838 14.6417 4.37849 14.1767 4.39249 14.0002C4.28951 13.8611 3.8408 13.614 3.59052 13.4763L3.58577 13.4736C3.28885 13.3112 2.98073 13.1403 2.73143 12.947C2.16 12.5016 2.16 12.0983 2.16 11.9666C2.16 11.432 2.59083 11.0959 2.73117 10.9864L2.73143 10.9862C2.98073 10.793 3.28885 10.6221 3.58577 10.4596L3.59053 10.457L3.59054 10.457C3.84081 10.3192 4.28951 10.0722 4.39249 9.93302C4.3786 9.75518 4.10282 9.29891 3.94802 9.0428L3.94431 9.03666L3.94353 9.03536C3.53761 8.36349 3.11821 7.66932 3.47092 7.06187C3.82667 6.44563 4.64459 6.46243 5.43731 6.47924L5.44819 6.47945C5.74169 6.48511 6.26281 6.49515 6.4205 6.42322C6.49235 6.26572 6.48242 5.74568 6.47676 5.4493L6.47653 5.43722C6.45972 4.64731 6.44291 3.82938 7.05916 3.47084C7.66661 3.11812 8.36078 3.53752 9.03264 3.94344L9.03395 3.94423C9.28885 4.09829 9.75384 4.3784 9.93031 4.39241C10.0695 4.28942 10.3165 3.84071 10.4543 3.59044L10.4569 3.58568C10.6194 3.28876 10.7903 2.98064 10.9835 2.73134C11.4289 2.15991 11.8323 2.15991 11.9639 2.15991C12.4986 2.15991 12.8347 2.59075 12.9441 2.73108L12.9443 2.73134C13.1376 2.98064 13.3085 3.28876 13.4709 3.58568L13.4735 3.59044C13.6113 3.84071 13.8584 4.28942 13.9975 4.39241C14.1754 4.37851 14.6316 4.10274 14.8878 3.94793L14.8939 3.94423L14.8952 3.94344C15.5671 3.53752 16.2612 3.11812 16.8687 3.47084C17.4799 3.82368 17.4656 4.63121 17.4517 5.41785L17.4513 5.43722L17.4511 5.44813C17.4455 5.74164 17.4354 6.26273 17.5073 6.42042C17.6648 6.49226 18.1849 6.48233 18.4813 6.47667L18.4933 6.47644C19.2832 6.45963 20.1012 6.44282 20.4597 7.05907C20.8124 7.66652 20.393 8.36069 19.9871 9.03255L19.9863 9.03386C19.8323 9.28876 19.5522 9.75375 19.5382 9.93022C19.6411 10.0694 20.0899 10.3164 20.3401 10.4542L20.3449 10.4568C20.6418 10.6193 20.9499 10.7902 21.1992 10.9834C21.7706 11.4288 21.7706 11.8322 21.7706 11.9638C21.7706 12.4985 21.3398 12.8345 21.1995 12.944L21.1995 12.944L21.1992 12.9442C20.9499 13.1375 20.6418 13.3084 20.3449 13.4708L20.3401 13.4735C20.0899 13.6112 19.6411 13.8583 19.5382 13.9974C19.552 14.1753 19.8278 14.6315 19.9826 14.8876L19.9826 14.8877L19.9863 14.8938L19.9871 14.8951C20.393 15.567 20.8124 16.2611 20.4597 16.8686C20.1069 17.4798 19.2993 17.4655 18.5127 17.4516L18.4933 17.4512L18.483 17.451H18.483C18.1895 17.4454 17.6651 17.4353 17.5073 17.5073C17.4355 17.6647 17.4454 18.1847 17.4511 18.4811V18.4812L17.4513 18.4932C17.4681 19.2832 17.4849 20.1011 16.8687 20.4596C16.2637 20.8109 15.5726 20.3963 14.9032 19.9947L14.8939 19.989C14.639 19.835 14.174 19.5549 13.9975 19.5409C13.8584 19.6439 13.6113 20.0926 13.4735 20.3428L13.4709 20.3476C13.3085 20.6445 13.1376 20.9526 12.9443 21.2019C12.4989 21.7734 12.0956 21.7734 11.9639 21.7734ZM9.94992 18.4176C10.0424 18.4176 10.1348 18.4288 10.2244 18.454C10.7762 18.6025 11.0984 19.1879 11.4373 19.807L11.4449 19.8208C11.5806 20.0667 11.8127 20.4874 11.9611 20.6249C12.1077 20.4916 12.328 20.0919 12.4648 19.8435L12.4849 19.807L12.4932 19.792C12.8318 19.1785 13.1504 18.6013 13.6978 18.454C14.2639 18.3034 14.8717 18.6693 15.4603 19.0235L15.4681 19.0283L15.4948 19.0443C15.7222 19.1808 16.0922 19.403 16.2861 19.4568C16.3393 19.2523 16.3309 18.7846 16.3253 18.5185L16.3249 18.5002C16.311 17.7899 16.2979 17.1228 16.7062 16.7145C17.1145 16.3063 17.7816 16.3193 18.4919 16.3332L18.5101 16.3336L18.5273 16.3339C18.7959 16.3396 19.2484 16.3492 19.4485 16.2944C19.3947 16.1005 19.1725 15.7305 19.036 15.5031L19.0199 15.4764C18.6614 14.8854 18.2945 14.2748 18.4457 13.7061C18.5942 13.1543 19.1796 12.8322 19.7987 12.4932L19.8124 12.4856C20.0584 12.35 20.4791 12.1179 20.6166 11.9694C20.4833 11.8228 20.0836 11.6026 19.8352 11.4658L19.8352 11.4658L19.7987 11.4456L19.7837 11.4374C19.1702 11.0987 18.593 10.7801 18.4457 10.2327C18.2951 9.66663 18.6609 9.05888 19.0152 8.47029L19.0199 8.46243L19.036 8.43574L19.036 8.43572C19.1725 8.20832 19.3947 7.83839 19.4485 7.64451C19.244 7.59128 18.7762 7.59969 18.5101 7.60529L18.4919 7.60565C17.7816 7.61955 17.1145 7.63261 16.7062 7.22434C16.2979 6.81607 16.311 6.14894 16.3249 5.43866L16.3253 5.42042L16.3256 5.40321C16.3313 5.13458 16.3409 4.68218 16.2861 4.48204C16.0922 4.5359 15.7222 4.75803 15.4948 4.89457L15.4681 4.91061C14.8771 5.26916 14.2664 5.6361 13.6978 5.48484C13.146 5.33638 12.8239 4.75095 12.4849 4.1319L12.4773 4.11812C12.3417 3.87217 12.1096 3.45143 11.9611 3.31397C11.8145 3.44727 11.5943 3.84696 11.4575 4.09532L11.4575 4.09535L11.4373 4.1319L11.429 4.14688C11.0904 4.76037 10.7718 5.33758 10.2244 5.48484C9.65831 5.63543 9.05056 5.26962 8.46197 4.91534L8.45412 4.91061L8.4274 4.89457C8.19999 4.75802 7.83008 4.5359 7.63619 4.48204C7.58297 4.68652 7.59137 5.15431 7.59697 5.42042L7.59733 5.43866C7.61123 6.14894 7.62429 6.81607 7.21602 7.22434C6.80775 7.63261 6.14062 7.61955 5.43035 7.60565L5.4121 7.60529L5.39492 7.60493C5.12629 7.59924 4.67387 7.58967 4.47373 7.64451C4.52758 7.83839 4.74971 8.20831 4.88626 8.43571L4.9023 8.46243C5.26084 9.05347 5.62779 9.66411 5.47653 10.2327C5.32807 10.7846 4.74263 11.1067 4.12359 11.4456L4.09904 11.4592C3.85192 11.5954 3.44383 11.8204 3.30566 11.9694C3.43896 12.1161 3.83868 12.3363 4.08703 12.4731L4.12359 12.4932L4.13857 12.5015C4.75206 12.8402 5.32927 13.1588 5.47653 13.7061C5.62712 14.2722 5.2613 14.88 4.90702 15.4686L4.9023 15.4764L4.88626 15.5032C4.74971 15.7306 4.52758 16.1005 4.47373 16.2944C4.67821 16.3476 5.14599 16.3392 5.4121 16.3336L5.43034 16.3332H5.43035C6.14063 16.3193 6.80775 16.3063 7.21602 16.7145C7.62429 17.1228 7.61123 17.7899 7.59733 18.5002L7.59697 18.5185L7.59661 18.5357C7.59093 18.8043 7.58136 19.2567 7.63619 19.4568C7.83008 19.403 8.20001 19.1808 8.42742 19.0443L8.45412 19.0283C8.95272 18.7257 9.46252 18.4176 9.94992 18.4176ZM8.00874 16.3C8.00874 16.6081 8.26084 16.8602 8.56896 16.8602C8.74263 16.8602 8.9051 16.7818 9.01154 16.6445L15.7931 7.98064C15.9835 7.73694 15.9415 7.384 15.6978 7.19353C15.4541 7.00305 15.1012 7.04507 14.9107 7.28876L8.12919 15.9554C8.05076 16.0535 8.00874 16.1739 8.00874 16.3ZM7.75104 9.23274C7.75104 10.4092 8.45412 11.1095 9.62779 11.1095C10.8043 11.1095 11.5045 10.4092 11.5045 9.23274C11.5045 8.05627 10.8043 7.35599 9.62779 7.35599C8.45132 7.35599 7.75104 8.05627 7.75104 9.23274ZM9.62779 8.47924C9.07036 8.47924 8.87148 8.67812 8.87148 9.23554C8.87148 9.79297 9.07036 9.99185 9.62779 9.99185C10.1852 9.99185 10.3841 9.79577 10.3841 9.23554C10.3841 8.67532 10.1852 8.47924 9.62779 8.47924ZM12.4149 14.6949C12.4149 15.8714 13.118 16.5717 14.2917 16.5717C15.4653 16.5717 16.1684 15.8714 16.1684 14.6949C16.1684 13.5185 15.4681 12.8182 14.2917 12.8182C13.1152 12.8182 12.4149 13.5185 12.4149 14.6949ZM14.2917 13.9414C13.7342 13.9414 13.5354 14.1375 13.5354 14.6977C13.5354 15.258 13.7342 15.454 14.2917 15.454C14.8491 15.454 15.048 15.258 15.048 14.6977C15.048 14.1375 14.8491 13.9414 14.2917 13.9414Z" fill="#313235"/>
</svg>
