<svg width="24" height="24" viewBox="0 0 24 24" fill="none" xmlns="http://www.w3.org/2000/svg">
<path fill-rule="evenodd" clip-rule="evenodd" d="M10.628 20.3677C10.9814 21.0078 11.3444 21.6653 11.9091 21.6653C12.475 21.6653 12.8419 21.0014 13.1976 20.3516L13.1985 20.35C13.4113 19.9636 13.7021 19.4355 13.9147 19.3796C14.1438 19.3181 14.674 19.6385 15.0631 19.8736L15.066 19.8754C15.7102 20.2647 16.3181 20.6317 16.7915 20.3572C17.2705 20.0799 17.2565 19.3628 17.2397 18.6037C17.2285 18.1555 17.2173 17.5393 17.3797 17.3768C17.5399 17.2167 18.1409 17.228 18.5873 17.2364L18.6066 17.2367L18.6109 17.2368C19.3684 17.2536 20.0833 17.2694 20.3601 16.7886C20.6346 16.3152 20.2677 15.7073 19.8783 15.0631C19.643 14.6765 19.3209 14.1443 19.3825 13.9118C19.4385 13.6992 19.9665 13.4084 20.353 13.1956L20.3545 13.1947C20.9988 12.8418 21.6626 12.4748 21.6626 11.9062C21.6626 11.3376 20.996 10.9706 20.3517 10.6177L20.3502 10.6168C19.9637 10.404 19.4357 10.1132 19.3797 9.9006C19.3182 9.67148 19.6386 9.14135 19.8738 8.75226L19.8755 8.74934C20.2649 8.10508 20.6318 7.49724 20.3573 7.02385C20.08 6.54486 19.3629 6.55887 18.6038 6.57567C18.1556 6.58688 17.5394 6.59808 17.3769 6.43562C17.2168 6.27548 17.2281 5.67445 17.2365 5.22806L17.2369 5.20873L17.237 5.2044C17.2537 4.4469 17.2696 3.73201 16.7887 3.45522C16.3153 3.18071 15.7074 3.54766 15.0632 3.93702C14.6766 4.17231 14.1444 4.49444 13.9119 4.43282C13.6993 4.37687 13.4085 3.84879 13.1957 3.46237L13.1948 3.46083L13.1929 3.4572C12.8405 2.81407 12.4767 2.1499 11.9091 2.1499C11.3457 2.1499 10.983 2.80451 10.6276 3.44599L10.6178 3.46363L10.617 3.46518C10.4041 3.8516 10.1133 4.37967 9.90072 4.43562C9.67161 4.49709 9.14148 4.17672 8.75238 3.94158L8.74946 3.93982C8.10521 3.55046 7.49736 3.18352 7.02397 3.45803C6.54498 3.73534 6.55899 4.45242 6.57579 5.21153C6.587 5.65971 6.5982 6.27595 6.43574 6.43842C6.2756 6.59856 5.67458 6.58724 5.22819 6.57884L5.20885 6.57847L5.20452 6.57838C4.44702 6.5616 3.73213 6.54578 3.45535 7.02665C3.18084 7.50004 3.54778 8.10789 3.93714 8.75214C4.17243 9.1387 4.49456 9.67371 4.43294 9.9034C4.37699 10.116 3.84891 10.4068 3.46249 10.6196L3.46095 10.6205L3.45697 10.6227C2.81395 10.9777 2.15002 11.3443 2.15002 11.909C2.15002 12.4748 2.81669 12.8418 3.46095 13.1947L3.46249 13.1956C3.84891 13.4084 4.37699 13.6992 4.43294 13.9118C4.49441 14.1409 4.17404 14.6711 3.9389 15.0601L3.93714 15.0631L3.93254 15.0707C3.54768 15.7121 3.18473 16.3171 3.45815 16.7914C3.73546 17.2704 4.45255 17.2563 5.21165 17.2395C5.65983 17.2283 6.27607 17.2171 6.43854 17.3796C6.59868 17.5397 6.58736 18.1408 6.57896 18.5871L6.5786 18.6065L6.5785 18.6108C6.56173 19.3683 6.5459 20.0832 7.02677 20.36C7.50016 20.6345 8.10801 20.2675 8.75227 19.8782C9.13882 19.6429 9.67383 19.3208 9.90353 19.3824C10.1161 19.4383 10.407 19.9664 10.6198 20.3528L10.6206 20.3544L10.628 20.3677ZM10.0492 18.8418C9.98196 18.825 9.91193 18.8166 9.8419 18.8166C9.42734 18.8166 8.95675 19.0995 8.46375 19.3964C8.08 19.6289 7.49736 19.9818 7.30969 19.8726C7.11361 19.7605 7.12762 19.0715 7.13882 18.6149L7.13892 18.6101C7.15289 17.9424 7.16603 17.3144 6.8335 16.9818C6.50091 16.6492 5.86993 16.6624 5.20211 16.6764L5.19764 16.6765L5.18849 16.6767C4.73191 16.6851 4.05124 16.6976 3.93994 16.5056C3.83267 16.3214 4.17103 15.759 4.40341 15.3727L4.41613 15.3516C4.76627 14.7746 5.0968 14.2283 4.97355 13.7661C4.85625 13.3248 4.31284 13.0256 3.73487 12.7073L3.72986 12.7045C3.32369 12.4832 2.71025 12.1443 2.71025 11.909C2.71025 11.676 3.31195 11.344 3.71808 11.12L3.72986 11.1135L3.74815 11.1034C4.31845 10.7878 4.85715 10.4897 4.97355 10.0491C5.0968 9.58968 4.76627 9.04066 4.41613 8.46363C4.18364 8.07987 3.8307 7.49724 3.93994 7.30957C4.05199 7.11349 4.74106 7.12749 5.19764 7.1387L5.20281 7.13881C5.87314 7.15277 6.50102 7.16586 6.8335 6.83338C7.16609 6.50079 7.15289 5.86981 7.13891 5.202L7.13882 5.19752L7.13865 5.18837C7.13024 4.73178 7.1177 4.05112 7.30969 3.93982C7.49251 3.83179 8.06431 4.17573 8.4508 4.40822L8.46375 4.41601C9.04078 4.76615 9.587 5.09668 10.0492 4.97343C10.4933 4.85612 10.7926 4.31269 11.1109 3.73472L11.1136 3.72973C11.3349 3.32357 11.671 2.71573 11.9063 2.71573C12.1394 2.71573 12.4713 3.31743 12.6954 3.72356L12.7018 3.73534L12.7054 3.74183C13.0206 4.31648 13.3198 4.86183 13.7635 4.97903C14.2221 5.10207 14.7672 4.77288 15.3459 4.42341L15.3489 4.42161C15.7327 4.18912 16.3153 3.83618 16.503 3.94542C16.6951 4.05522 16.6828 4.71647 16.6743 5.1726L16.6738 5.20032L16.6737 5.20549C16.6598 5.87582 16.6467 6.5037 16.9792 6.83618C17.3117 7.16877 17.9427 7.15557 18.6105 7.14159L18.615 7.1415L18.6242 7.14133C19.0807 7.13292 19.7614 7.12038 19.8727 7.31237C19.9807 7.49519 19.6368 8.06698 19.4043 8.45348L19.3965 8.46643C19.0464 9.04346 18.7159 9.58968 18.8391 10.0519C18.9564 10.4932 19.4998 10.7924 20.0778 11.1107L20.0828 11.1135C20.489 11.3348 21.1024 11.6737 21.1024 11.909C21.1024 12.142 20.5007 12.474 20.0946 12.698L20.0828 12.7045L20.0763 12.7081C19.5016 13.0233 18.9563 13.3224 18.8391 13.7661C18.7161 14.2247 19.0452 14.7699 19.3947 15.3486L19.3965 15.3516C19.629 15.7353 19.982 16.318 19.8727 16.5056C19.7629 16.6978 19.0986 16.6855 18.6424 16.677L18.615 16.6765L18.6105 16.6764C17.9427 16.6624 17.3117 16.6492 16.9792 16.9818C16.6466 17.3144 16.6598 17.9454 16.6737 18.6132L16.6738 18.6177L16.674 18.6269C16.6824 19.0834 16.695 19.7641 16.503 19.8754C16.3187 19.9827 15.7563 19.6443 15.3701 19.4119L15.3489 19.3992C14.7719 19.0491 14.2257 18.7185 13.7635 18.8418C13.3222 18.9591 13.0229 19.5025 12.7046 20.0805L12.7018 20.0855C12.4806 20.4916 12.1416 21.1051 11.9063 21.1051C11.6733 21.1051 11.3414 20.5034 11.1173 20.0973L11.1108 20.0855L11.1072 20.079C10.792 19.5043 10.4929 18.959 10.0492 18.8418Z" fill="#313235"/>
</svg>
