<svg width="24" height="24" viewBox="0 0 24 24" fill="none" xmlns="http://www.w3.org/2000/svg">
<path fill-rule="evenodd" clip-rule="evenodd" d="M21.1992 10.9834C20.9499 10.7902 20.6418 10.6193 20.3449 10.4568L20.3401 10.4542C20.0899 10.3164 19.6411 10.0694 19.5382 9.93021C19.5521 9.75236 19.8278 9.29608 19.9826 9.03997L19.9863 9.03385L19.9871 9.03255C20.393 8.36068 20.8124 7.66651 20.4597 7.05906C20.104 6.44282 19.2861 6.45963 18.4933 6.47643L18.483 6.47663C18.1896 6.48228 17.6652 6.49239 17.5074 6.42041C17.4355 6.26291 17.4454 5.74289 17.4511 5.4465L17.4513 5.43442C17.4681 4.6445 17.4849 3.82658 16.8687 3.46803C16.2665 3.12232 15.5755 3.53694 14.9062 3.93855L14.8967 3.94422C14.6418 4.09828 14.1768 4.3784 14.0004 4.3924C13.8612 4.28942 13.6142 3.84072 13.4764 3.59044L13.4737 3.58568C13.3113 3.28876 13.1404 2.98064 12.9471 2.73134C12.8379 2.58848 12.5018 2.15991 11.9667 2.15991C11.8351 2.15991 11.4317 2.15991 10.9864 2.73134C10.7931 2.98064 10.6222 3.28876 10.4597 3.58568L10.4571 3.59044C10.3193 3.84071 10.0723 4.28942 9.93313 4.3924C9.75529 4.37851 9.29903 4.10273 9.04291 3.94793L9.03678 3.94422L9.03547 3.94343C8.36361 3.53752 7.66944 3.11812 7.06199 3.47083C6.44574 3.82658 6.46255 4.6445 6.47936 5.43722L6.47955 5.44751V5.44752C6.48521 5.74097 6.49531 6.26541 6.42333 6.42321C6.26583 6.49505 5.74579 6.48512 5.44941 6.47946L5.43734 6.47923C4.64743 6.46243 3.8295 6.44562 3.47096 7.06187C3.11824 7.66931 3.53764 8.36349 3.94356 9.03535L3.94435 9.03665C4.09841 9.29155 4.37852 9.75654 4.39252 9.93301C4.28954 10.0722 3.84083 10.3192 3.59056 10.457L3.5858 10.4596C3.28888 10.6221 2.98076 10.793 2.73146 10.9862C2.5886 11.0955 2.16003 11.4316 2.16003 11.9666C2.16003 12.0983 2.16003 12.5016 2.73146 12.947C2.98076 13.1403 3.28888 13.3112 3.5858 13.4736L3.59057 13.4762C3.84084 13.614 4.28954 13.8611 4.39252 14.0002C4.37863 14.1781 4.10287 14.6343 3.94807 14.8904L3.94806 14.8904L3.94435 14.8966L3.94356 14.8979C3.53764 15.5698 3.11824 16.2639 3.47096 16.8714C3.8267 17.4876 4.64462 17.4708 5.43734 17.454L5.44766 17.4538H5.44768H5.44769C5.74115 17.4482 6.26554 17.4381 6.42333 17.51C6.49518 17.6675 6.48525 18.1876 6.47959 18.484L6.47936 18.496C6.46255 19.2859 6.44574 20.1039 7.06199 20.4624C7.66944 20.8151 8.36361 20.3957 9.03547 19.9898L9.03678 19.989C9.29168 19.835 9.75666 19.5548 9.93313 19.5408C10.0723 19.6438 10.3193 20.0926 10.4571 20.3428L10.4597 20.3476C10.6222 20.6445 10.7931 20.9526 10.9864 21.2019L10.9866 21.2022C11.096 21.3425 11.4321 21.7733 11.9667 21.7733C12.0984 21.7733 12.5018 21.7733 12.9471 21.2019C13.1404 20.9526 13.3113 20.6445 13.4737 20.3476L13.4764 20.3428C13.6141 20.0925 13.8612 19.6438 14.0004 19.5408C14.1782 19.5547 14.6344 19.8305 14.8905 19.9853L14.8906 19.9853L14.8906 19.9853L14.8967 19.989L14.898 19.9898C15.5699 20.3957 16.264 20.8151 16.8715 20.4624C17.4827 20.1096 17.4684 19.302 17.4545 18.5154L17.4541 18.496L17.4539 18.4857V18.4857C17.4483 18.1922 17.4382 17.6678 17.5102 17.51C17.6676 17.4382 18.1876 17.4481 18.484 17.4538H18.484H18.4841L18.4961 17.454C19.2861 17.4708 20.104 17.4876 20.4625 16.8714C20.8152 16.2639 20.3958 15.5698 19.9899 14.8979L19.9891 14.8966C19.8351 14.6417 19.555 14.1767 19.541 14.0002C19.6439 13.8611 20.0927 13.614 20.3429 13.4762L20.3477 13.4736C20.6446 13.3112 20.9527 13.1403 21.202 12.947L21.2023 12.9468C21.3426 12.8374 21.7735 12.5013 21.7735 11.9666C21.7735 11.8294 21.7735 11.4288 21.1992 10.9834ZM9.63341 7.35318C10.8071 7.35318 11.5102 8.05346 11.5102 9.22993C11.5102 10.4064 10.8099 11.1067 9.63341 11.1067C8.45694 11.1067 7.75666 10.4064 7.75666 9.22993C7.75666 8.05346 8.45974 7.35318 9.63341 7.35318ZM8.23005 16.7285C8.47095 16.9218 8.82389 16.8798 9.01717 16.6389L15.7987 7.97503C15.9891 7.73133 15.9471 7.37839 15.7034 7.18792C15.4597 6.99744 15.1068 7.03946 14.9163 7.28315L8.13482 15.9498C7.94994 16.1907 7.99196 16.538 8.23005 16.7285ZM14.2973 16.5661C13.1236 16.5661 12.4205 15.8658 12.4205 14.6893C12.4205 13.5128 13.1208 12.8126 14.2973 12.8126C15.4737 12.8126 16.174 13.5128 16.174 14.6893C16.174 15.8658 15.4709 16.5661 14.2973 16.5661ZM9.63341 9.98343C10.1908 9.98343 10.3897 9.78735 10.3897 9.22713C10.3897 8.66691 10.1908 8.47083 9.63341 8.47083C9.07599 8.47083 8.87711 8.66971 8.87711 9.22713C8.87711 9.78455 9.07599 9.98343 9.63341 9.98343ZM14.2973 13.9358C13.7398 13.9358 13.541 14.1319 13.541 14.6921C13.541 15.2523 13.7398 15.4484 14.2973 15.4484C14.8547 15.4484 15.0536 15.2523 15.0536 14.6921C15.0536 14.1319 14.8547 13.9358 14.2973 13.9358Z" fill="#313235"/>
</svg>
