<svg width="24" height="24" viewBox="0 0 24 24" fill="none" xmlns="http://www.w3.org/2000/svg">
<path fill-rule="evenodd" clip-rule="evenodd" d="M10.9847 21.2003C11.094 21.3432 11.4301 21.7746 11.9651 21.7746C12.0968 21.7746 12.5001 21.7746 12.9427 21.1975C13.136 20.9482 13.3069 20.6401 13.4693 20.3432L13.4719 20.3384C13.6097 20.0882 13.8568 19.6394 13.9959 19.5365C14.1752 19.5505 14.6402 19.8306 14.8951 19.9846L14.9011 19.9883C15.5715 20.3933 16.2611 20.8099 16.8699 20.458C17.4861 20.1023 17.4693 19.2844 17.4525 18.4916L17.4523 18.4813C17.4467 18.1879 17.4366 17.6634 17.5085 17.5056C17.6663 17.4337 18.1908 17.4438 18.4842 17.4494L18.4945 17.4496C19.2845 17.4664 20.1052 17.4832 20.4609 16.867C20.8136 16.2595 20.3942 15.5654 19.9883 14.8935L19.9875 14.8922C19.8335 14.6401 19.5534 14.1751 19.5394 13.9958C19.6379 13.859 20.076 13.6179 20.3286 13.4789L20.3461 13.4692C20.643 13.3068 20.9511 13.1359 21.2004 12.9426C21.3433 12.8334 21.7747 12.4972 21.7747 11.9622C21.7747 11.8306 21.7747 11.4272 21.2004 10.9818C20.9511 10.7886 20.643 10.6177 20.3461 10.4552L20.3413 10.4526C20.0911 10.3148 19.6423 10.0678 19.5394 9.92861C19.5534 9.74934 19.8335 9.28436 19.9875 9.02945C20.3937 8.35999 20.8139 7.66531 20.4609 7.05466C20.1052 6.43842 19.2873 6.45522 18.4945 6.47203L18.4842 6.47223C18.1908 6.47788 17.6663 6.48799 17.5085 6.41601C17.4366 6.25821 17.4467 5.73378 17.4523 5.44032L17.4525 5.43001C17.4693 4.6373 17.4861 3.81937 16.8699 3.46363C16.2624 3.11092 15.5683 3.53031 14.8964 3.93623L14.8951 3.93702C14.643 4.09108 14.178 4.37119 13.9987 4.3852C13.8668 4.28758 13.638 3.87939 13.4948 3.62395C13.486 3.60817 13.4775 3.59298 13.4693 3.57847C13.3069 3.28156 13.136 2.97343 12.9427 2.72413C12.8335 2.58127 12.4973 2.1499 11.9623 2.1499C11.8307 2.1499 11.4273 2.1499 10.9819 2.72413C10.7887 2.97343 10.6178 3.28156 10.4553 3.57847L10.4527 3.58323C10.3149 3.8335 10.0679 4.28221 9.92871 4.3852C9.74944 4.37119 9.28446 4.09108 9.02955 3.93702C8.36009 3.53085 7.66541 3.11069 7.05476 3.46363C6.43852 3.81937 6.45532 4.6373 6.47213 5.43001L6.47233 5.44031C6.47798 5.73377 6.48809 6.25821 6.41611 6.41601C6.25831 6.48799 5.73387 6.47788 5.44041 6.47223L5.43011 6.47203C4.6374 6.45522 3.81947 6.43842 3.46373 7.05466C3.11101 7.66211 3.53041 8.35629 3.93633 9.02815L3.93712 9.02945C4.09118 9.28436 4.37129 9.74934 4.3853 9.92861C4.28678 10.0654 3.84869 10.3066 3.5961 10.4456L3.57857 10.4552C3.28165 10.6177 2.97353 10.7886 2.72423 10.9818C2.58137 11.0911 2.15 11.4272 2.15 11.9622C2.15 12.0939 2.15 12.4972 2.72423 12.9426C2.97353 13.1359 3.28165 13.3068 3.57857 13.4692C3.83067 13.6065 4.28446 13.8558 4.3881 13.9958C4.37409 14.1751 4.09398 14.6401 3.93992 14.895L3.93629 14.901C3.53126 15.5714 3.11464 16.261 3.46653 16.8698C3.82227 17.486 4.6402 17.4692 5.43291 17.4524L5.44322 17.4522C5.73668 17.4466 6.26111 17.4365 6.41891 17.5084C6.49089 17.6662 6.48078 18.1907 6.47513 18.4841L6.47493 18.4944C6.45813 19.2872 6.44132 20.1051 7.05756 20.4608C7.66501 20.8135 8.35919 20.3941 9.03105 19.9882L9.03235 19.9874C9.28726 19.8334 9.75224 19.5533 9.93151 19.5393C10.0683 19.6378 10.3095 20.0759 10.4485 20.3285L10.4581 20.346C10.6206 20.6429 10.7915 20.951 10.9847 21.2003ZM10.2256 18.4524C10.136 18.4272 10.0436 18.416 9.95112 18.416C9.46827 18.416 8.96068 18.7212 8.46647 19.0183L8.45252 19.0267C8.44387 19.0318 8.43496 19.0372 8.42582 19.0427C8.19842 19.1792 7.82849 19.4014 7.6346 19.4552C7.57971 19.2576 7.58935 18.802 7.59503 18.5333L7.59538 18.5168L7.59574 18.4986C7.60964 17.7883 7.6227 17.1212 7.21443 16.7129C6.80888 16.3046 6.13891 16.3177 5.42848 16.3316L5.41051 16.332C5.1416 16.3376 4.67381 16.346 4.46933 16.2928C4.52319 16.0989 4.74531 15.729 4.88186 15.5016C4.88735 15.4924 4.8927 15.4835 4.8979 15.4748L4.90262 15.467C5.25691 14.8784 5.62272 14.2706 5.47213 13.7045C5.32647 13.1527 4.74104 12.8306 4.11919 12.4888L4.1059 12.4815C3.86002 12.3459 3.43881 12.1135 3.30126 11.9622C3.43881 11.8109 3.86001 11.5786 4.10589 11.443L4.11919 11.4356L4.12333 11.4333C4.74085 11.0924 5.324 10.7705 5.47213 10.2199C5.62619 9.6541 5.25644 9.04066 4.8979 8.44962C4.8927 8.44096 4.88735 8.43205 4.88186 8.4229C4.74531 8.1955 4.52319 7.82558 4.46933 7.6317C4.66966 7.57681 5.12539 7.58645 5.39404 7.59213L5.41051 7.59248L5.41472 7.59256C6.13024 7.60654 6.80347 7.61969 7.21443 7.21153C7.62275 6.80598 7.60964 6.13601 7.59573 5.42558L7.59538 5.40761C7.58978 5.1387 7.58137 4.67091 7.6346 4.46643C7.82848 4.52029 8.1984 4.74241 8.4258 4.87896C8.43494 4.88445 8.44386 4.8898 8.45252 4.895C8.95112 5.19752 9.46373 5.50564 9.95112 5.50564C10.0436 5.50564 10.136 5.49164 10.2256 5.46923C10.7775 5.32357 11.0996 4.73814 11.4413 4.11629L11.4486 4.103C11.5843 3.85712 11.8166 3.43591 11.9679 3.29836C12.1192 3.4359 12.3516 3.85711 12.4872 4.10299L12.4945 4.11629L12.4968 4.12043C12.8377 4.73795 13.1596 5.3211 13.7102 5.46923C14.2761 5.62049 14.8895 5.25354 15.4805 4.895C15.4892 4.8898 15.4981 4.88445 15.5073 4.87896C15.7347 4.74241 16.1046 4.52029 16.2985 4.46643C16.3533 4.66676 16.3437 5.1225 16.338 5.39115L16.3377 5.40761L16.3376 5.41182C16.3236 6.12734 16.3105 6.80057 16.7186 7.21153C17.1242 7.61985 17.7941 7.60674 18.5046 7.59283L18.5226 7.59248C18.7887 7.58688 19.2564 7.57847 19.4609 7.6317C19.4071 7.82559 19.1849 8.19552 19.0484 8.42292L19.0324 8.44962L19.0276 8.45748C18.6733 9.04607 18.3075 9.65382 18.4581 10.2199C18.6038 10.7718 19.1892 11.0939 19.8111 11.4356L19.8243 11.4429C20.0702 11.5786 20.4914 11.8109 20.629 11.9622C20.4914 12.1135 20.0702 12.3459 19.8243 12.4815L19.8111 12.4888L19.8069 12.4911C19.1894 12.832 18.6063 13.1539 18.4581 13.7045C18.3041 14.2704 18.6738 14.8838 19.0324 15.4748C19.0375 15.4835 19.0429 15.4924 19.0484 15.5015C19.1849 15.7289 19.4071 16.0989 19.4609 16.2928C19.2634 16.3476 18.8077 16.338 18.5391 16.3323L18.5226 16.332L18.5043 16.3316C17.794 16.3177 17.1269 16.3047 16.7186 16.7129C16.3103 17.1185 16.3234 17.7885 16.3373 18.4989L16.3377 18.5168C16.3433 18.783 16.3517 19.2507 16.2985 19.4552C16.1046 19.4014 15.7346 19.1792 15.5072 19.0427C15.4981 19.0372 15.4892 19.0318 15.4805 19.0267L15.4727 19.0219C14.8841 18.6676 14.2763 18.3018 13.7102 18.4524C13.1584 18.5981 12.8363 19.1835 12.4945 19.8054L12.4872 19.8187C12.3516 20.0645 12.1192 20.4858 11.9679 20.6233C11.8166 20.4857 11.5843 20.0645 11.4486 19.8187L11.4413 19.8054L11.439 19.8012C11.0981 19.1837 10.7762 18.6005 10.2256 18.4524Z" fill="#313235"/>
</svg>
