<svg width="24" height="24" viewBox="0 0 24 24" fill="none" xmlns="http://www.w3.org/2000/svg">
<path fill-rule="evenodd" clip-rule="evenodd" d="M12.0032 21.8378C11.4372 21.8378 11.0718 21.1783 10.7165 20.537L10.7063 20.5185C10.4934 20.1291 10.1992 19.5941 9.98356 19.5353C9.74939 19.4739 9.23779 19.7816 8.82426 20.0303L8.8183 20.0339C8.17124 20.426 7.55779 20.7958 7.0816 20.5185C6.59792 20.2389 6.61375 19.5184 6.63053 18.7553L6.63062 18.7509L6.63099 18.731C6.6394 18.2792 6.65062 17.6757 6.48777 17.5129C6.32479 17.3499 5.71783 17.3612 5.26855 17.3696L5.24967 17.37C4.48496 17.3868 3.76228 17.4008 3.48216 16.919C3.20796 16.4433 3.57659 15.8307 3.96547 15.1845L3.96676 15.1823L3.98013 15.1601C4.22711 14.7495 4.52864 14.2482 4.46536 14.0199C4.40653 13.8042 3.87152 13.5101 3.48216 13.2972L3.46884 13.2898C2.82315 12.9336 2.16003 12.5678 2.16003 12.0002C2.16003 11.4343 2.81952 11.0689 3.46082 10.7136L3.47936 10.7033C3.86872 10.4904 4.40373 10.1963 4.46256 9.98064C4.52388 9.74647 4.21623 9.23488 3.96755 8.82135L3.96396 8.81537C3.5718 8.16832 3.20205 7.55487 3.47936 7.07868C3.75895 6.59499 4.47945 6.61083 5.24257 6.6276L5.24687 6.6277L5.26683 6.62807H5.26684C5.71862 6.63647 6.32211 6.6477 6.48496 6.48484C6.64793 6.32187 6.63658 5.71492 6.62817 5.26564L6.62782 5.24675C6.61101 4.48204 6.59701 3.75935 7.0788 3.47924C7.55447 3.20503 8.16709 3.57367 8.81336 3.96255L8.8155 3.96383L8.83773 3.97721L8.83773 3.97721C9.24833 4.22418 9.74961 4.52571 9.97796 4.46243C10.1936 4.40361 10.4878 3.8686 10.7007 3.47924L10.7112 3.46034C11.0692 2.81916 11.4373 2.15991 12.0032 2.15991C12.5691 2.15991 12.9345 2.8194 13.2898 3.46069L13.3001 3.47924C13.513 3.8686 13.8071 4.40361 14.0228 4.46243C14.2581 4.52406 14.7735 4.21313 15.1852 3.96383C15.8323 3.57168 16.4457 3.20193 16.9219 3.47924C17.4056 3.75883 17.3898 4.47933 17.373 5.24245L17.3729 5.24675L17.3725 5.26669C17.3641 5.71848 17.3529 6.32199 17.5158 6.48484C17.6787 6.64781 18.2857 6.63646 18.735 6.62805L18.7539 6.6277C19.5186 6.61089 20.2413 6.59689 20.5214 7.07868C20.7956 7.55435 20.427 8.16697 20.0381 8.81324L20.0368 8.81537L20.0234 8.83761L20.0234 8.83764C19.7764 9.24823 19.4749 9.74949 19.5382 9.97784C19.597 10.1935 20.132 10.4876 20.5214 10.7005C21.1712 11.0563 21.8407 11.426 21.8407 11.9974C21.8407 12.5634 21.1812 12.9288 20.5399 13.2841L20.5214 13.2944C20.132 13.5073 19.597 13.8014 19.5382 14.0171C19.4766 14.2523 19.7875 14.7678 20.0368 15.1795C20.4289 15.8266 20.7987 16.44 20.5214 16.9162C20.2418 17.3999 19.5213 17.3841 18.7582 17.3673L18.7539 17.3672L18.7339 17.3668C18.2821 17.3584 17.6786 17.3472 17.5158 17.5101C17.3528 17.673 17.3642 18.28 17.3726 18.7293L17.3729 18.7481C17.3897 19.5129 17.4037 20.2355 16.9219 20.5157C16.4463 20.7899 15.8336 20.4212 15.1874 20.0323L15.1852 20.0311L15.163 20.0177C14.7524 19.7707 14.2511 19.4692 14.0228 19.5325C13.8071 19.5913 13.513 20.1263 13.3001 20.5157L13.2985 20.5185C12.9405 21.1703 12.5738 21.8378 12.0032 21.8378ZM9.91914 18.9694C9.98917 18.9694 10.0592 18.9778 10.1292 18.9974C10.5774 19.1179 10.8799 19.6669 11.1993 20.2523C11.4373 20.6865 11.7651 21.2832 12.0032 21.2832C12.2413 21.2832 12.569 20.6893 12.8071 20.2523C13.1264 19.6697 13.4317 19.1179 13.8771 18.9974C14.3365 18.8757 14.8779 19.1995 15.4553 19.545L15.4766 19.5577L15.4779 19.5585L15.4779 19.5585C15.8673 19.7938 16.4544 20.1486 16.6446 20.0395C16.8394 19.9254 16.8269 19.2389 16.8185 18.7795L16.8183 18.7706L16.8182 18.7661C16.8042 18.0927 16.791 17.4561 17.1236 17.1235C17.457 16.7902 18.0956 16.8014 18.7707 16.8182L18.7974 16.8187C19.2566 16.8271 19.9297 16.8396 20.0396 16.6445C20.1487 16.4543 19.7939 15.8672 19.5586 15.4778L19.5586 15.4778L19.5578 15.4764C19.2049 14.8938 18.8715 14.342 18.9976 13.877C19.118 13.4288 19.667 13.1263 20.2525 12.807C20.6866 12.5689 21.2833 12.2411 21.2833 12.003C21.2833 11.765 20.6894 11.4372 20.2525 11.1991C19.6698 10.8798 19.118 10.5745 18.9976 10.1291C18.8758 9.66974 19.1997 9.12836 19.5451 8.55089L19.5578 8.52966L19.5586 8.5283C19.7939 8.13893 20.1487 7.55185 20.0396 7.36159C19.9247 7.16551 19.2301 7.17952 18.7707 7.19072L18.7662 7.19082C18.0928 7.20479 17.4562 7.218 17.1236 6.8854C16.7903 6.55207 16.8015 5.91341 16.8183 5.23834L16.8188 5.21165C16.8273 4.75241 16.8397 4.07933 16.6446 3.96944C16.4544 3.86032 15.8673 4.21511 15.4779 4.45041L15.4766 4.45123C14.8939 4.80417 14.3421 5.1375 13.8771 5.01145C13.4289 4.891 13.1264 4.34198 12.8071 3.75655C12.569 3.32238 12.2413 2.72574 12.0032 2.72574C11.7651 2.72574 11.4373 3.31958 11.1993 3.75655C10.8799 4.33918 10.5746 4.891 10.1292 5.01145C10.062 5.02826 9.99197 5.03946 9.91914 5.03666C9.50177 5.03666 9.02838 4.75095 8.52978 4.44843L8.52842 4.44761L8.52842 4.4476C8.13906 4.2123 7.55197 3.85752 7.36171 3.96663C7.16564 4.08148 7.17964 4.77616 7.19085 5.23554L7.19094 5.24002C7.20491 5.91343 7.21812 6.55 6.88552 6.8826C6.55293 7.2152 5.91636 7.20199 5.24294 7.18802L5.23847 7.18792C4.77908 7.17672 4.0816 7.16271 3.96956 7.35879C3.86044 7.54905 4.21523 8.13614 4.45053 8.5255L4.45135 8.52686C4.80429 9.10949 5.13763 9.66131 5.01157 10.1263C4.89113 10.5745 4.34211 10.877 3.75667 11.1963C3.3225 11.4344 2.72586 11.7622 2.72586 12.0002C2.72586 12.2383 3.3197 12.5661 3.75667 12.8042C4.33931 13.1235 4.89113 13.4288 5.01157 13.8742C5.13482 14.3392 4.80429 14.8882 4.45135 15.4736L4.44266 15.4881L4.44265 15.4881C4.20741 15.8801 3.86165 16.4563 3.96956 16.6417C4.08366 16.8365 4.77016 16.8239 5.22957 16.8155L5.23847 16.8154L5.24294 16.8153C5.91636 16.8013 6.55293 16.7881 6.88552 17.1207C7.21812 17.4533 7.20491 18.0899 7.19094 18.7633L7.19085 18.7678C7.17964 19.2271 7.16564 19.9246 7.36171 20.0367C7.55197 20.1458 8.13907 19.791 8.52843 19.5557L8.52978 19.5549C9.02558 19.2551 9.50177 18.9694 9.91914 18.9694ZM8.3309 16.3336C8.3309 16.4876 8.45695 16.6137 8.61101 16.6137C8.69785 16.6137 8.77908 16.5745 8.8323 16.5044L15.611 7.83778C15.7063 7.71733 15.6838 7.54086 15.5634 7.44563C15.4429 7.35039 15.2665 7.3728 15.1712 7.49325L8.38973 16.1599C8.35051 16.2103 8.3309 16.272 8.3309 16.3336ZM8.50457 10.4624C8.77908 10.7285 9.17124 10.863 9.66984 10.863C10.1684 10.863 10.5606 10.7285 10.8351 10.4624C11.1208 10.1879 11.2665 9.78456 11.2665 9.26635C11.2665 8.74815 11.1208 8.34479 10.8351 8.07028C10.5606 7.80417 10.1684 7.66972 9.66984 7.66972C9.17124 7.66972 8.77908 7.80417 8.50457 8.07028C8.21886 8.34479 8.0732 8.74815 8.0732 9.26635C8.0732 9.78456 8.21886 10.1879 8.50457 10.4624ZM9.66984 8.23274C8.95275 8.23274 8.63342 8.55207 8.63342 9.26916C8.63342 9.98624 8.95275 10.3056 9.66984 10.3056C10.3869 10.3056 10.7063 9.98624 10.7063 9.26916C10.7063 8.55207 10.3869 8.23274 9.66984 8.23274ZM13.1684 15.9246C13.4429 16.1907 13.8351 16.3252 14.3337 16.3252C14.8323 16.3252 15.2245 16.1907 15.4962 15.9246C15.7819 15.6501 15.9275 15.2467 15.9275 14.7285C15.9275 14.2103 15.7819 13.807 15.4962 13.5325C15.2217 13.2664 14.8295 13.1319 14.3309 13.1319C13.8323 13.1319 13.4401 13.2664 13.1656 13.5325C12.8827 13.807 12.7371 14.2103 12.7371 14.7285C12.7371 15.2467 12.8827 15.6501 13.1684 15.9246ZM14.3337 13.6949C13.6166 13.6949 13.2973 14.0143 13.2973 14.7313C13.2973 15.4484 13.6166 15.7678 14.3337 15.7678C15.0508 15.7678 15.3701 15.4484 15.3701 14.7313C15.3701 14.0143 15.0508 13.6949 14.3337 13.6949Z" fill="#313235"/>
</svg>
