<svg width="24" height="24" viewBox="0 0 24 24" fill="none" xmlns="http://www.w3.org/2000/svg">
<path fill-rule="evenodd" clip-rule="evenodd" d="M11.5006 2.15991H12.411C13.988 2.21033 21.8451 2.79016 21.8451 12.003C21.8451 21.2159 14.0188 21.8462 12.4446 21.8462H11.5678C2.60984 21.7313 2.15886 13.6445 2.15886 12.003C2.15886 10.3616 2.60984 2.24114 11.5006 2.15991ZM11.5902 21.0255H12.411H12.4362C14.4642 21.0255 21.0244 20.2047 21.0244 12.003C21.0244 3.80137 14.4614 3.03666 12.3942 2.98064H11.509C9.53981 2.98064 2.97678 3.73414 2.97678 12.003C2.97678 20.272 9.53981 21.0255 11.5902 21.0255ZM6.2625 12.003C6.2625 8.8686 7.71348 8.20473 8.95998 8.20473C10.1981 8.20473 11.7079 8.8686 11.7079 12.003C11.7079 15.1375 10.2317 15.8014 8.99359 15.8014C7.18127 15.8014 6.2625 14.5213 6.2625 12.003ZM7.16446 12.0199C7.16446 14.5717 8.13925 14.8994 8.95998 14.8994C9.78631 14.8994 10.7471 14.5969 10.7471 12.0199C10.7471 9.44283 9.79751 9.11509 8.95998 9.11509C8.12524 9.11509 7.16446 9.46804 7.16446 12.0199ZM17.2009 8.33638H17.481H17.5006C17.6631 8.33918 17.7919 8.47644 17.7863 8.6389V15.3756C17.7863 15.5437 17.6519 15.6781 17.4838 15.6781H17.2541C17.1505 15.6781 17.0552 15.6249 16.9992 15.5381L13.5118 10.2551V15.3644C13.5118 15.5353 13.3717 15.6753 13.2009 15.6753H12.9208C12.7527 15.6725 12.6182 15.5325 12.6182 15.3644V8.6389C12.6182 8.47364 12.7527 8.33638 12.9208 8.33638H13.1421C13.2429 8.33638 13.3381 8.384 13.397 8.46804L16.9208 13.7566V8.6389C16.9208 8.48204 17.044 8.35039 17.2009 8.33638Z" fill="#313235"/>
</svg>
