<svg width="24" height="24" viewBox="0 0 24 24" fill="none" xmlns="http://www.w3.org/2000/svg">
<path fill-rule="evenodd" clip-rule="evenodd" d="M5.16963 16.3845H18.8251C19.8391 16.3845 20.6094 16.0904 21.1164 15.5077C21.5954 14.9615 21.8363 14.1548 21.8363 13.11V8.17161C21.8363 7.12679 21.5926 6.32007 21.1164 5.77385C20.6094 5.19402 19.8391 4.8999 18.8251 4.8999H5.16963C4.15563 4.8999 3.38532 5.19402 2.87832 5.77385C2.39932 6.32007 2.15843 7.12679 2.15843 8.17161V13.11C2.15843 14.1548 2.39932 14.9615 2.87832 15.5105C3.38532 16.0904 4.15563 16.3845 5.16963 16.3845ZM2.71865 8.17441C2.71865 6.32287 3.49736 5.46013 5.16963 5.46013H18.8251C20.4974 5.46013 21.2761 6.32007 21.2761 8.17161V13.1128C21.2761 14.9643 20.4974 15.8271 18.8251 15.8271H5.16963C3.49736 15.8271 2.71865 14.9643 2.71865 13.1128V8.17441ZM21.5478 18.603H2.43014C2.27607 18.603 2.15002 18.4769 2.15002 18.3229C2.15002 18.1688 2.27607 18.0428 2.43014 18.0428H21.5478C21.7018 18.0428 21.8279 18.1688 21.8279 18.3229C21.8279 18.4769 21.7018 18.603 21.5478 18.603ZM10.5366 13.9839C10.9708 14.1268 11.4778 14.1996 12.0408 14.1996C13.1724 14.1996 14.0548 13.9111 14.6626 13.3397C15.2929 12.7458 15.615 11.8579 15.615 10.7066C15.615 9.85422 15.4403 9.14817 15.0933 8.5979C15.187 8.62358 15.2922 8.65265 15.4086 8.68481L15.4086 8.68482L15.4469 8.69542L15.6822 8.75985C15.8307 8.79906 15.9876 8.71223 16.0268 8.56377C16.066 8.41531 15.9792 8.26125 15.8307 8.21923L15.5954 8.1548C15.1416 8.02875 14.8671 7.95312 14.7271 7.92511C14.3181 7.84388 14.0184 8.03996 13.9315 8.44612C13.8979 8.60298 13.8699 8.81027 13.8447 9.01195L13.8356 9.07875C13.8134 9.24292 13.7909 9.40901 13.7663 9.52735C13.7635 9.54696 13.7607 9.56657 13.7607 9.58618C13.7607 9.74024 13.8867 9.86629 14.0408 9.86629C14.1724 9.86629 14.2873 9.77385 14.3153 9.645C14.3489 9.48534 14.3769 9.28085 14.4021 9.08197C14.4189 8.93916 14.4389 8.79477 14.4596 8.6736C14.8563 9.15499 15.0576 9.8379 15.0576 10.7066C15.0576 11.6982 14.7971 12.4461 14.2817 12.9307C13.7803 13.4013 13.0296 13.6394 12.0436 13.6394C11.5394 13.6394 11.0912 13.575 10.713 13.4517C10.5702 13.4097 10.4189 13.4853 10.3685 13.6254C10.3153 13.7711 10.3909 13.9307 10.5366 13.9839ZM8.89227 12.6914C8.54203 12.1401 8.36571 11.4314 8.36571 10.575C8.36571 9.42371 8.68504 8.53576 9.31809 7.94192C9.92593 7.37049 10.8083 7.08198 11.9399 7.08198C12.503 7.08198 13.0072 7.1548 13.4441 7.29486C13.5898 7.34808 13.6654 7.50775 13.6122 7.6534C13.5618 7.79066 13.4133 7.86909 13.2705 7.82707C12.8923 7.70382 12.4441 7.6394 11.9399 7.6394C10.9539 7.6394 10.2032 7.87749 9.70185 8.34808C9.18644 8.83268 8.92593 9.58057 8.92593 10.5722C8.92593 11.4367 9.12527 12.1172 9.51812 12.5981C9.53792 12.4803 9.5569 12.342 9.57299 12.2052C9.5982 12.0063 9.62621 11.8019 9.65983 11.645C9.69624 11.4937 9.8475 11.4013 9.99596 11.4377C10.1416 11.4713 10.2341 11.617 10.206 11.7626C10.1799 11.8883 10.1561 12.0653 10.1326 12.2411C10.1309 12.2534 10.1293 12.2657 10.1276 12.2781C10.1024 12.4797 10.0744 12.687 10.0408 12.8439C9.97075 13.1828 9.74386 13.3761 9.42734 13.3761C9.36851 13.3761 9.30969 13.3705 9.25086 13.3593C9.11081 13.3313 8.8363 13.2556 8.38252 13.1296L8.14722 13.0652C7.99596 13.0316 7.90072 12.8831 7.93434 12.7318C7.96795 12.5806 8.11641 12.4853 8.26767 12.5189C8.27187 12.5204 8.27678 12.5218 8.28168 12.5232C8.28658 12.5246 8.29148 12.526 8.29568 12.5274L8.53098 12.5918L8.57317 12.6034C8.69127 12.6361 8.79781 12.6655 8.89227 12.6914Z" fill="#313235"/>
</svg>
