<svg width="24" height="24" viewBox="0 0 24 24" fill="none" xmlns="http://www.w3.org/2000/svg">
<path fill-rule="evenodd" clip-rule="evenodd" d="M19.9706 17.6106C19.9706 17.2012 19.594 16.9939 19.2896 16.8264L19.2843 16.8235C19.2283 16.7927 19.1471 16.7478 19.0854 16.7086C19.1097 16.6638 19.1402 16.6115 19.1678 16.5642L19.1678 16.5642L19.1679 16.564L19.168 16.5638C19.1818 16.5403 19.1947 16.518 19.2059 16.4985L19.2094 16.4926C19.3853 16.1995 19.6023 15.8379 19.402 15.4901C19.2003 15.14 18.7689 15.1484 18.4216 15.1568C18.4004 15.1568 18.3764 15.1571 18.3511 15.1574H18.351C18.2962 15.158 18.2352 15.1587 18.1835 15.1568C18.1816 15.105 18.1823 15.0441 18.1829 14.9892V14.9892C18.1832 14.9639 18.1835 14.9399 18.1835 14.9187C18.1919 14.5742 18.2003 14.1428 17.8501 13.9383C17.5046 13.7365 17.1454 13.9521 16.8533 14.1274L16.8417 14.1344C16.7829 14.1708 16.6989 14.2212 16.6316 14.2548C16.5924 14.1932 16.5476 14.112 16.5168 14.056L16.5111 14.0457C16.4398 13.9166 16.3601 13.7727 16.2619 13.6526V11.8319C16.2619 9.95232 15.7493 8.50414 14.7381 7.52935C13.8641 6.68901 12.6401 6.21842 11.0882 6.13159V5.75064C11.0882 5.06156 10.8613 4.51814 10.4104 4.13999C9.94257 3.74503 9.2647 3.55176 8.34313 3.55176H7.24509C5.63165 3.55176 5.63165 3.12599 5.63165 2.58537C5.63165 2.27725 5.37955 2.02515 5.07142 2.02515C4.7633 2.02515 4.5112 2.27725 4.5112 2.58537C4.5112 3.33607 4.74089 3.86548 5.21708 4.21002C5.65686 4.52935 6.28431 4.67221 7.24789 4.67221H8.35154C9.97619 4.67221 9.97619 5.37249 9.97619 5.75064V6.13439C8.44397 6.22683 7.22829 6.69461 6.36274 7.52935C5.34873 8.50694 4.83613 9.95512 4.83613 11.8375V16.2744C4.83613 18.154 5.34873 19.6022 6.35994 20.577C7.33193 21.5153 8.74369 21.9887 10.5504 21.9887C11.7885 21.9887 12.8445 21.7646 13.6961 21.3221C14.0182 21.4481 14.3487 21.2492 14.6204 21.084C14.6793 21.0476 14.7633 20.9971 14.8305 20.9635C14.8697 21.0251 14.9146 21.1064 14.9454 21.1624C15.1134 21.4677 15.3235 21.8487 15.7325 21.8487C16.1415 21.8487 16.3515 21.4677 16.5196 21.1624C16.5504 21.1064 16.5952 21.0251 16.6344 20.9635C16.6793 20.9878 16.7316 21.0183 16.7789 21.0459C16.8025 21.0597 16.8249 21.0728 16.8445 21.084L16.8505 21.0875C17.1435 21.2634 17.5051 21.4804 17.8529 21.28C18.2031 21.0784 18.1947 20.647 18.1863 20.2997C18.1863 20.2785 18.186 20.2545 18.1857 20.2292V20.2291C18.1851 20.1743 18.1844 20.1133 18.1863 20.0616C18.238 20.0596 18.2989 20.0604 18.3538 20.061H18.3539L18.3858 20.0613L18.4244 20.0616C18.7689 20.07 19.2003 20.0784 19.4048 19.7282C19.6066 19.3827 19.391 19.0235 19.2156 18.7314L19.2087 18.7198C19.1723 18.661 19.1218 18.577 19.0882 18.5097C19.1499 18.4705 19.2311 18.4257 19.2871 18.3949C19.5896 18.2324 19.9706 18.0223 19.9706 17.6106ZM9.99019 8.87389C9.99019 8.56576 10.2423 8.31366 10.5504 8.31366C10.8585 8.31366 11.1106 8.56576 11.1106 8.87389V11.3585C11.1106 11.6666 10.8585 11.9187 10.5504 11.9187C10.2423 11.9187 9.99019 11.6666 9.99019 11.3585V8.87389ZM5.35714 13.1596C7.07703 13.4005 8.81372 13.5181 10.5504 13.5153C12.2871 13.5181 14.0238 13.4005 15.7437 13.1596C15.8922 13.1344 15.993 12.9971 15.9762 12.8487C15.9594 12.6974 15.8193 12.5854 15.6653 12.605C13.9706 12.8403 12.2619 12.9579 10.5504 12.9551C8.83893 12.9579 7.13025 12.8403 5.43557 12.605C5.28431 12.5854 5.14986 12.689 5.12465 12.8375C5.09944 12.9915 5.20308 13.1344 5.35714 13.1596ZM18.2703 18.2913C18.2382 18.4129 18.3471 18.5933 18.4555 18.7726C18.5741 18.9691 18.6921 19.1644 18.6232 19.28C18.5546 19.3955 18.3259 19.3912 18.0969 19.387C17.8869 19.3832 17.6767 19.3793 17.5896 19.4677C17.5034 19.5553 17.5076 19.7629 17.5119 19.9708C17.5166 20.2019 17.5214 20.4335 17.402 20.5013C17.2837 20.5685 17.0892 20.4507 16.8941 20.3324C16.7149 20.2238 16.5352 20.1149 16.4132 20.1484C16.297 20.1787 16.1983 20.3583 16.0986 20.5397C15.9866 20.7434 15.8732 20.9495 15.7325 20.9495C15.5915 20.9495 15.478 20.7435 15.3658 20.5397C15.2663 20.3589 15.1677 20.18 15.0518 20.1484C14.9292 20.1165 14.7477 20.2259 14.5676 20.3345L14.5676 20.3345C14.4309 20.4169 14.295 20.4988 14.1863 20.5181C14.1723 20.4817 14.1583 20.4481 14.1387 20.4145C14.0938 20.3389 14.0294 20.2744 13.9566 20.2268C13.9516 20.1484 13.9535 20.061 13.9553 19.9735C13.9598 19.7642 13.9642 19.5547 13.8753 19.4677C13.7874 19.3798 13.5785 19.3844 13.3697 19.3889C13.1394 19.394 12.9093 19.399 12.8417 19.28C12.7746 19.1618 12.8924 18.9673 13.0107 18.7722C13.1192 18.593 13.2282 18.4133 13.1947 18.2913C13.1631 18.1754 12.9841 18.0768 12.8034 17.9773C12.5996 17.8651 12.3936 17.7516 12.3936 17.6106C12.3936 17.4696 12.5996 17.3561 12.8033 17.2439C12.9841 17.1443 13.1631 17.0458 13.1947 16.9299C13.2268 16.8082 13.1178 16.6279 13.0095 16.4485C12.8908 16.2521 12.7729 16.0568 12.8417 15.9411C12.9104 15.8257 13.1391 15.8299 13.368 15.8341C13.578 15.838 13.7882 15.8419 13.8753 15.7534C13.9616 15.6659 13.9573 15.4583 13.9531 15.2503C13.9483 15.0192 13.9436 14.7876 14.063 14.7198C14.1813 14.6526 14.3757 14.7705 14.5709 14.8888C14.75 14.9973 14.9298 15.1063 15.0518 15.0728C15.1667 15.0422 15.2642 14.8646 15.3631 14.6843C15.4548 14.5172 15.5477 14.3478 15.6569 14.2913C15.6653 14.2913 15.6737 14.292 15.6821 14.2927C15.6905 14.2934 15.6989 14.2941 15.7073 14.2941C15.7381 14.2941 15.7689 14.2913 15.7997 14.2857C15.9135 14.335 16.0091 14.5097 16.1037 14.6826L16.1037 14.6826C16.2025 14.863 16.3001 15.0413 16.416 15.0728C16.5376 15.1049 16.718 14.9959 16.8974 14.8876C17.0938 14.7689 17.2891 14.651 17.4048 14.7198C17.5202 14.7885 17.516 15.0172 17.5117 15.2461C17.5079 15.4561 17.504 15.6663 17.5924 15.7534C17.68 15.8397 17.8876 15.8354 18.0955 15.8312C18.3267 15.8264 18.5582 15.8217 18.626 15.9411C18.6933 16.0596 18.5749 16.2553 18.4564 16.4512C18.3481 16.6303 18.2397 16.8095 18.2731 16.9299C18.3035 17.046 18.483 17.1447 18.6644 17.2445C18.8681 17.3565 19.0742 17.4698 19.0742 17.6106C19.0742 17.7513 18.8674 17.8646 18.663 17.9766C18.4809 18.0764 18.3007 18.1751 18.2703 18.2913ZM14.7745 15.7899C15.2255 15.7899 15.5056 16.07 15.5056 16.5209C15.5056 16.9691 15.2255 17.252 14.7745 17.252C14.3235 17.252 14.0434 16.9719 14.0434 16.5209C14.0434 16.07 14.3235 15.7899 14.7745 15.7899ZM16.6709 15.9579C16.7661 15.8375 16.9426 15.8151 17.063 15.9103C17.1863 16.0055 17.2087 16.182 17.1106 16.3025L14.7913 19.266C14.6961 19.3865 14.5196 19.4089 14.3992 19.3137C14.2787 19.2184 14.2563 19.042 14.3515 18.9215L16.6709 15.9579ZM14.6064 16.5209C14.6064 16.3809 14.6344 16.3501 14.7773 16.3501C14.9202 16.3501 14.9482 16.3781 14.9482 16.5209C14.9482 16.6638 14.9202 16.6918 14.7773 16.6918C14.6344 16.6918 14.6064 16.661 14.6064 16.5209ZM15.9342 18.6834C15.9342 18.2324 16.2143 17.9523 16.6653 17.9523C17.1134 17.9523 17.3964 18.2324 17.3964 18.6834C17.3964 19.1344 17.1162 19.4145 16.6653 19.4145C16.2143 19.4145 15.9342 19.1344 15.9342 18.6834ZM16.6653 18.8515C16.5252 18.8515 16.4944 18.8235 16.4944 18.6806C16.4944 18.5378 16.5224 18.5097 16.6653 18.5097C16.8081 18.5097 16.8361 18.5378 16.8361 18.6806C16.8361 18.8235 16.8053 18.8515 16.6653 18.8515Z" fill="#313235"/>
</svg>
