<svg width="24" height="24" viewBox="0 0 24 24" fill="none" xmlns="http://www.w3.org/2000/svg">
<path fill-rule="evenodd" clip-rule="evenodd" d="M19.5322 8.58685H20.3389C21.0812 8.58685 21.6863 9.19189 21.6891 9.93979C21.6891 9.979 21.6863 10.0182 21.6779 10.0546L20.2297 18.0014C20.1961 18.7157 19.605 19.2899 18.8852 19.2899H4.11485C3.37255 19.2899 2.76751 18.6793 2.76751 17.9342C2.76751 17.9254 2.76827 17.9174 2.769 17.9097C2.76967 17.9027 2.77031 17.8961 2.77031 17.8894L2 5.93979V5.91458C2.0056 5.14147 2.63866 4.51962 3.41457 4.52522H9.54342C10.3249 4.52522 10.9608 5.14147 10.9608 5.90057V6.30113H18.0616C18.8431 6.30113 19.479 6.91738 19.479 7.67648L19.5434 8.48881C19.5452 8.50963 19.5415 8.52938 19.5378 8.54939C19.5356 8.56167 19.5333 8.57406 19.5322 8.58685ZM9.54342 5.77452H3.41457C3.30812 5.77452 3.2381 5.84175 3.2381 5.89777L3.68908 12.8922L4.2465 9.87256C4.28011 9.15547 4.87115 8.58404 5.59104 8.58404H18.3081V8.58124L18.2437 7.7213C18.2437 7.61486 18.1709 7.55043 18.0644 7.55043H10.3417C10 7.55043 9.72269 7.27032 9.72269 6.92578V5.89777C9.72269 5.83895 9.64986 5.77452 9.54342 5.77452Z" fill="#313235"/>
</svg>
