<svg width="24" height="24" viewBox="0 0 24 24" fill="none" xmlns="http://www.w3.org/2000/svg">
<path fill-rule="evenodd" clip-rule="evenodd" d="M19.5603 8.58396H20.367C21.1093 8.58396 21.7143 9.1918 21.7115 9.9369C21.7115 9.97331 21.7087 10.0125 21.7003 10.0489L20.2522 17.9957C20.2185 18.71 19.6275 19.2842 18.9076 19.2842H4.13731C3.39502 19.2842 2.78997 18.6764 2.78997 17.9285C2.78997 17.9197 2.79151 17.9117 2.79297 17.904C2.7943 17.897 2.79558 17.8904 2.79558 17.8837L2.02527 5.9341C2.02527 5.13578 2.65832 4.51953 3.43983 4.51953H9.56869C10.3502 4.51953 10.9861 5.13858 10.9861 5.89488V6.29824H18.0897C18.8712 6.29824 19.5071 6.91729 19.5071 7.67359L19.5715 8.48592C19.5732 8.50674 19.5696 8.52649 19.5659 8.5465C19.5636 8.55878 19.5613 8.57117 19.5603 8.58396ZM3.44264 5.77443H9.57149C9.67793 5.77443 9.75076 5.83886 9.75076 5.89768V6.92569C9.75076 7.27023 10.0281 7.55034 10.3698 7.55034H18.0925C18.1989 7.55034 18.2718 7.61477 18.2746 7.72401L18.339 8.58396V8.58676H5.61911C4.89922 8.58676 4.30818 9.15819 4.27457 9.87527L3.71715 12.8949L3.26616 5.90048C3.26336 5.83886 3.33619 5.77443 3.44264 5.77443ZM19.0309 17.8193C19.0225 17.8557 19.0197 17.8949 19.0197 17.9313C19.0197 17.9901 18.972 18.0349 18.9104 18.0349H4.14011C4.0925 18.0349 4.05048 18.0041 4.03647 17.9621L5.49866 10.0517L5.49971 10.0444L5.49971 10.0444C5.50494 10.0079 5.50986 9.97365 5.50986 9.9369C5.50986 9.87807 5.55748 9.83326 5.61911 9.83326H20.3698C20.4202 9.83326 20.4594 9.86407 20.4734 9.90609L19.0309 17.8193Z" fill="#313235"/>
</svg>
