<svg width="24" height="24" viewBox="0 0 24 24" fill="none" xmlns="http://www.w3.org/2000/svg">
<path fill-rule="evenodd" clip-rule="evenodd" d="M21.6807 9.76335L21.6723 19.5673C21.6975 19.7886 21.7339 20.4692 21.2689 21.0267C21.0196 21.3264 20.535 21.6877 19.6415 21.7045H4.04484C3.14848 21.6849 2.66389 21.3264 2.41459 21.0267C1.9524 20.472 1.98882 19.7886 2.01403 19.5701L2.00562 9.77736C2.02803 8.76055 2.4454 8.25355 2.79274 8.00425L2.92999 7.91741L10.2129 3.31797C10.2549 3.28436 10.9104 2.83618 11.8376 2.83618C12.4314 2.83618 13.0112 3.00985 13.507 3.33758L20.8656 7.98744C21.2409 8.25355 21.6583 8.76055 21.6807 9.76335ZM11.7171 14.8278C12.0448 14.8222 12.3642 14.7213 12.6359 14.5365L20.4342 9.67372C20.4118 9.35439 20.3221 9.11349 20.1709 9.00705L12.8123 4.35719C12.7843 4.33758 12.381 4.06867 11.8488 4.06867C11.5154 4.07148 11.1849 4.16391 10.8992 4.34038L3.49022 9.02386C3.34736 9.1275 3.25212 9.40481 3.24092 9.79136V9.79416L10.7535 14.5309C11.0392 14.7185 11.3754 14.8222 11.7171 14.8278Z" fill="#313235"/>
</svg>
