<svg width="24" height="24" viewBox="0 0 24 24" fill="none" xmlns="http://www.w3.org/2000/svg">
<path fill-rule="evenodd" clip-rule="evenodd" d="M21.8456 17.5132C21.8288 16.5496 21.3778 15.6224 20.5039 14.7485C20.1593 14.4039 19.8008 14.1238 19.4534 13.9165C18.6691 13.4319 17.8512 13.2555 17.0193 13.3955C16.2153 13.5328 15.4394 13.9698 14.7167 14.6924C14.6243 14.7821 14.5515 14.8605 14.4814 14.9389C14.3666 14.8885 14.1873 14.7933 13.9324 14.6196C13.1481 14.0818 12.2013 13.163 11.5627 12.5244L11.4814 12.4431C10.8372 11.8045 9.92122 10.8605 9.38341 10.0734C9.20974 9.8185 9.1145 9.63923 9.06408 9.52438C9.14811 9.44875 9.23215 9.37312 9.31058 9.29189C10.0361 8.5692 10.4702 7.79329 10.6075 6.98937C10.7476 6.16024 10.5711 5.33951 10.0949 4.5692C9.8624 4.17984 9.57949 3.8213 9.25736 3.50197C8.38341 2.63082 7.45344 2.17984 6.49265 2.16024C5.49545 2.14623 4.51786 2.58601 3.57669 3.48517C3.24895 3.79889 2.94643 4.21626 2.81478 4.40113C1.94643 5.66164 1.94083 7.54399 2.80358 9.70085C3.64111 11.8101 5.25736 14.0986 7.47585 16.3311C7.49265 16.3563 7.51506 16.3759 7.53747 16.3955L7.6131 16.4712C9.8624 18.7205 12.1733 20.3563 14.3022 21.2051C15.375 21.6336 16.375 21.8493 17.277 21.8493C18.1901 21.8493 18.9744 21.628 19.6635 21.149C19.8148 21.0398 20.2153 20.7485 20.5207 20.4291C21.4198 19.4908 21.8652 18.5076 21.8456 17.5132ZM20.5851 17.5356C20.5991 18.1882 20.2714 18.8661 19.6103 19.558C19.3834 19.7961 19.0389 20.0454 18.8904 20.1518C17.9997 20.7681 16.5067 20.7233 14.77 20.0314C12.8008 19.2471 10.6355 17.7065 8.50386 15.5776L8.45904 15.5328L8.42823 15.4992C6.29937 13.3703 4.75876 11.2051 3.97444 9.23587C3.27416 7.48237 3.22935 6.01738 3.87641 5.08741C4.09489 4.78209 4.28537 4.55239 4.44783 4.39553C5.13971 3.73447 5.82318 3.40393 6.47024 3.42074C7.09489 3.43194 7.73355 3.75968 8.3638 4.38993C8.6131 4.63363 8.83159 4.91094 9.01086 5.21346C9.33579 5.73727 9.45063 6.24987 9.361 6.77368C9.27136 7.3171 8.95204 7.86332 8.41702 8.39833C8.27136 8.54399 8.17613 8.63082 8.00526 8.76528C7.93803 8.8157 7.88481 8.87732 7.84559 8.95015C7.6131 9.37032 7.76996 9.95295 8.34139 10.7877C8.94083 11.6616 9.91002 12.6616 10.5851 13.3339L10.6663 13.4151C11.3442 14.0902 12.347 15.0622 13.2153 15.6588C14.0501 16.2303 14.6355 16.3871 15.0501 16.1518C15.1201 16.1126 15.1845 16.0594 15.2349 15.995C15.3498 15.8521 15.4702 15.7121 15.6019 15.5832C16.1369 15.0482 16.6859 14.7317 17.2265 14.6392C17.7448 14.5552 18.2714 14.67 18.8036 14.9978C19.1005 15.1742 19.3722 15.3899 19.6131 15.6364C20.2462 16.2723 20.5739 16.9109 20.5851 17.5356ZM14.0837 8.66724C14.0137 8.72046 13.9997 8.74847 13.9941 8.77928C13.9885 8.8129 13.9997 8.84931 14.0221 8.87452L14.9464 9.90533C14.9969 9.96976 15.0249 9.99497 15.0697 9.99777C15.0739 9.99357 15.097 9.98307 15.1201 9.97257L15.1201 9.97256C15.1432 9.96206 15.1663 9.95155 15.1705 9.94735L17.6327 7.83251C17.8904 7.60842 18.2826 7.63363 18.5123 7.88573L18.98 8.40113L19.742 4.83251L19.7307 4.8297L16.1341 5.10982L16.5851 5.61402C16.8176 5.87452 16.7952 6.27228 16.5375 6.50477L16.5347 6.50758L14.0837 8.66724ZM13.0865 9.72046L13.9744 10.7037C14.2125 11.0174 14.5711 11.2191 14.9632 11.2499C15.3414 11.2863 15.7139 11.1602 15.9913 10.9025L17.9885 9.18545L18.1201 9.3311C18.4338 9.68124 18.896 9.8241 19.3274 9.70646C19.7616 9.59161 20.0893 9.23587 20.1873 8.77928L20.9772 5.09021C21.0613 4.69525 20.9604 4.29469 20.6999 3.99777C20.4646 3.72886 20.1173 3.5748 19.7532 3.5748L19.6523 3.5776L15.9128 3.86612C15.4366 3.90253 15.0389 4.18825 14.8708 4.60842C14.7055 5.02858 14.798 5.50758 15.1145 5.86052L15.2265 5.98377L13.2966 7.68405C13.2574 7.71206 13.2209 7.74287 13.1873 7.77368C12.6215 8.28349 12.5767 9.15463 13.0865 9.72046Z" fill="#313235"/>
</svg>
