<svg width="24" height="24" viewBox="0 0 24 24" fill="none" xmlns="http://www.w3.org/2000/svg">
<path fill-rule="evenodd" clip-rule="evenodd" d="M21.8459 17.6473C21.8291 16.7258 21.3894 15.8266 20.5406 14.9779C20.2045 14.6417 19.8515 14.3672 19.5042 14.1711C18.7507 13.7034 17.9692 13.5325 17.1737 13.6669C16.4006 13.7986 15.6499 14.2216 14.944 14.9274C14.8095 15.0591 14.7171 15.1599 14.6078 15.2888C14.4902 15.2552 14.2493 15.1599 13.8403 14.8798C13.0252 14.3196 12.0476 13.3672 11.381 12.7034L11.2997 12.6221C10.6331 11.9555 9.68067 10.9723 9.12605 10.1627C8.84594 9.75098 8.7479 9.51288 8.71709 9.39523C8.84314 9.29159 8.96359 9.17955 9.07843 9.0619C9.78151 8.35602 10.2073 7.60532 10.3389 6.82941C10.4734 6.03669 10.3053 5.25238 9.84314 4.50728C9.63866 4.15434 9.36134 3.8042 9.02521 3.46526C8.17647 2.61652 7.27731 2.17675 6.35574 2.15994C5.39216 2.15714 4.45378 2.57451 3.54062 3.44846C3.23408 3.74166 2.95038 4.12871 2.81019 4.31998L2.81018 4.31998L2.78992 4.34762C1.94678 5.5717 1.94958 7.42044 2.80112 9.5577C3.65826 11.7034 5.31653 14.0451 7.59664 16.3252L7.61345 16.342L7.67787 16.4064C9.95518 18.6866 12.2969 20.3476 14.4454 21.202C15.5182 21.6305 16.5126 21.8462 17.4062 21.8462C18.2913 21.8462 19.0476 21.6333 19.6331 21.2272C19.6583 21.2104 19.6835 21.1936 19.7087 21.1739C19.8571 21.0675 20.2549 20.779 20.5546 20.4653C21.4314 19.5493 21.8627 18.6025 21.8459 17.6473ZM21.0252 17.6641C21.0364 18.3952 20.6807 19.1459 19.9608 19.8994C19.7143 20.1571 19.3473 20.4232 19.1877 20.5381C18.2017 21.2188 16.605 21.1823 14.7479 20.4401C12.7031 19.6277 10.4594 18.0311 8.2521 15.8238L8.18207 15.7538L8.16807 15.7398C5.97199 13.5409 4.38095 11.2972 3.56583 9.25798C2.81793 7.38403 2.78431 5.807 3.493 4.78459C3.67507 4.51848 3.88235 4.27198 4.10924 4.04509C4.84594 3.33921 5.58263 2.98067 6.29972 2.98067H6.34174C7.04482 2.99467 7.7535 3.35322 8.44538 4.04509C8.71429 4.3084 8.94958 4.60532 9.14286 4.93025C9.5042 5.50728 9.63585 6.09832 9.53501 6.68935C9.43137 7.29159 9.08403 7.89383 8.5014 8.47647C8.34734 8.63053 8.2437 8.72577 8.06163 8.86862C8.01961 8.90224 7.98319 8.94425 7.95798 8.99187C7.76751 9.32801 7.92997 9.86302 8.45098 10.6277C9.04482 11.4933 10.0308 12.5129 10.7227 13.2048L10.8039 13.2832C11.4902 13.9723 12.507 14.9583 13.3782 15.5549C14.1429 16.0787 14.6751 16.244 15.014 16.0507C15.0588 16.0255 15.098 15.9919 15.1317 15.9499C15.2549 15.793 15.3866 15.6445 15.5266 15.5073C16.1092 14.9246 16.7115 14.5745 17.3137 14.4737C17.9076 14.3756 18.4986 14.5073 19.0868 14.8714C19.4062 15.0619 19.7003 15.2944 19.9608 15.5605C20.6527 16.2524 21.0112 16.9611 21.0252 17.6641ZM13.9776 8.40924C13.8711 8.49047 13.8207 8.57451 13.8095 8.67254C13.7955 8.77339 13.8263 8.87703 13.8936 8.95546L14.8403 10.0087C14.9272 10.1207 15.0196 10.1711 15.1204 10.1795C15.2157 10.188 15.3109 10.1571 15.381 10.0899L17.9216 7.90504C18.0896 7.75938 18.3445 7.77339 18.493 7.94145L19.0504 8.5577C19.0812 8.59411 19.1541 8.65014 19.2297 8.63053C19.3137 8.60532 19.3417 8.51568 19.3501 8.47927L20.1569 4.70336C20.1765 4.63333 20.1597 4.5577 20.112 4.50168C20.0672 4.45406 20.0028 4.42605 19.9384 4.42885H19.9188L16.0868 4.72016C16.0392 4.72297 15.9524 4.74257 15.9216 4.8182C15.8908 4.89663 15.9412 4.96946 15.972 5.00308L16.521 5.61372C16.6723 5.78459 16.6583 6.04509 16.4874 6.19635C16.4902 6.19916 13.9776 8.40924 13.9776 8.40924ZM13.2857 9.50448L14.2101 10.5297C14.4118 10.7986 14.7171 10.9695 15.0532 10.9975C15.3782 11.0311 15.7003 10.919 15.9356 10.6978L18.1541 8.79019L18.437 9.11232C18.6863 9.39523 19.0728 9.51848 19.4398 9.42605C19.7983 9.33081 20.07 9.03389 20.1513 8.65294L20.958 4.87703C21.0308 4.54369 20.9468 4.21036 20.7283 3.96106C20.5294 3.73417 20.2437 3.60532 19.9356 3.60532L19.8487 3.60812L16.0196 3.90504C15.6247 3.93585 15.2941 4.17114 15.1569 4.51568C15.0196 4.86302 15.098 5.26078 15.3613 5.5549L15.6359 5.85742L13.465 7.76778C13.4342 7.79019 13.4034 7.8154 13.3753 7.84061C12.8908 8.27479 12.8515 9.01988 13.2857 9.50448Z" fill="#313235"/>
</svg>
