<svg width="24" height="24" viewBox="0 0 24 24" fill="none" xmlns="http://www.w3.org/2000/svg">
<path fill-rule="evenodd" clip-rule="evenodd" d="M20.2647 8.59969C20.2647 6.47084 19.7073 4.8686 18.6093 3.83778C17.9678 3.22714 17.1219 2.78736 16.0911 2.52686C15.1163 2.28596 13.8614 2.15991 12.36 2.15991H6.09388C5.76335 2.16271 5.49724 2.43162 5.50004 2.76215V21.2439C5.49724 21.5745 5.76335 21.8434 6.09388 21.8462H10.2563C10.5869 21.8434 10.853 21.5745 10.8502 21.2439V15.4708H13.1891C14.458 15.4708 15.5533 15.314 16.4468 15.0059C17.3796 14.6865 18.1555 14.1739 18.7521 13.4876C19.7549 12.3504 20.2647 10.7061 20.2647 8.59969ZM19.0743 8.59969C19.0743 10.4008 18.6681 11.7762 17.8614 12.6865C17.402 13.2159 16.797 13.6109 16.0631 13.863C15.2956 14.1291 14.3292 14.2636 13.1891 14.2636H10.2563C9.92581 14.2664 9.65691 14.5353 9.65971 14.8658V20.6417H6.68772V3.36439H12.36C13.7633 3.36439 14.923 3.47924 15.8054 3.69773C16.6345 3.90781 17.304 4.24955 17.797 4.71734C18.6457 5.51285 19.0743 6.82098 19.0743 8.59969ZM14.3152 10.5773C14.6765 10.2103 14.8614 9.56327 14.8614 8.65011C14.8614 7.81818 14.6905 7.22714 14.3488 6.89661C14.1835 6.74255 13.9426 6.6221 13.6373 6.54927C13.2732 6.46243 12.7886 6.41762 12.2031 6.41762H10.8502V11.1039H12.3096C13.0575 11.1039 13.4552 11.0367 13.6541 10.9778C13.9034 10.905 14.1191 10.7762 14.3152 10.5773ZM15.1639 6.02266C14.8418 5.71733 14.4216 5.50165 13.9118 5.3784C13.458 5.26916 12.8838 5.21313 12.2003 5.21313H10.2535C9.92301 5.21593 9.65691 5.48484 9.65971 5.81537V11.7061C9.65691 12.0367 9.92301 12.3056 10.2535 12.3084H12.3068C13.0295 12.3084 13.5757 12.2523 13.9762 12.1375C14.424 12.0086 14.8304 11.7653 15.1555 11.4316C15.7493 10.8294 16.0491 9.89661 16.0491 8.65291C16.0491 7.48204 15.7521 6.59969 15.1639 6.02266Z" fill="#313235"/>
</svg>
