<svg width="24" height="24" viewBox="0 0 24 24" fill="none" xmlns="http://www.w3.org/2000/svg">
<path fill-rule="evenodd" clip-rule="evenodd" d="M11.9863 21.821C8.86308 21.821 6.43451 21.0058 4.76784 19.398C3.03675 17.7313 2.16 15.2411 2.16 11.9946C2.16 8.74815 3.03675 6.25515 4.76784 4.58568C6.43451 2.97784 8.86588 2.15991 11.9863 2.15991C15.1096 2.15991 17.5382 2.97504 19.2076 4.58288C20.9415 6.25235 21.8183 8.74535 21.8183 11.9918C21.8183 15.2383 20.9387 17.7285 19.2076 19.398C17.5382 21.0058 15.1096 21.821 11.9863 21.821ZM11.9863 3.24955C6.18801 3.24955 3.24683 6.19072 3.24683 11.9946C3.24683 17.793 6.18801 20.7341 11.9863 20.7341C17.7875 20.7341 20.7314 17.793 20.7314 11.9946C20.7314 6.19353 17.7875 3.24955 11.9863 3.24955ZM9.25804 16.3756C8.94992 16.3756 8.69782 16.1235 8.69782 15.8154V8.16832C8.69782 7.86019 8.94992 7.60809 9.25804 7.60809C9.56616 7.60809 9.81826 7.86019 9.81826 8.16832V15.8154C9.81826 16.1235 9.56616 16.3756 9.25804 16.3756ZM14.7202 16.3756C14.4121 16.3756 14.16 16.1235 14.16 15.8154V8.16832C14.16 7.86019 14.4121 7.60809 14.7202 7.60809C15.0283 7.60809 15.2804 7.86019 15.2804 8.16832V15.8154C15.2804 16.1235 15.0283 16.3756 14.7202 16.3756Z" fill="#313235"/>
</svg>
