<svg width="24" height="24" viewBox="0 0 24 24" fill="none" xmlns="http://www.w3.org/2000/svg">
<path fill-rule="evenodd" clip-rule="evenodd" d="M11.9976 21.8378C5.5634 21.8378 2.16003 18.4372 2.16003 12.0002C2.16003 5.56327 5.56059 2.15991 11.9976 2.15991C15.1376 2.15991 17.5718 2.97224 19.2357 4.57728C20.9612 6.24114 21.8379 8.73974 21.8379 12.0002C21.8407 18.4344 18.4373 21.8378 11.9976 21.8378ZM11.9976 2.72014C5.84351 2.72014 2.72026 5.84339 2.72026 12.0002C2.72026 18.1543 5.84071 21.2776 11.9976 21.2776C18.1572 21.2776 21.2777 18.1571 21.2777 12.0002C21.2805 5.84058 18.1572 2.72014 11.9976 2.72014ZM14.9976 16.4232C14.8435 16.4232 14.7175 16.2972 14.7175 16.1431V7.80977C14.7175 7.65571 14.8435 7.52966 14.9976 7.52966C15.1516 7.52966 15.2777 7.65571 15.2777 7.80977V16.1431C15.2777 16.2972 15.1516 16.4232 14.9976 16.4232ZM8.95275 16.4512C8.79869 16.4512 8.67264 16.3252 8.67264 16.1711V7.83778C8.67264 7.68372 8.79869 7.55767 8.95275 7.55767C9.10681 7.55767 9.23286 7.68372 9.23286 7.83778V16.1711C9.23286 16.3252 9.10681 16.4512 8.95275 16.4512Z" fill="#313235"/>
</svg>
