<svg width="24" height="24" viewBox="0 0 24 24" fill="none" xmlns="http://www.w3.org/2000/svg">
<path fill-rule="evenodd" clip-rule="evenodd" d="M19.2077 4.58288C17.5382 2.97504 15.1096 2.15991 11.9864 2.15991C8.86312 2.15991 6.43454 2.97504 4.76788 4.58568C3.03678 6.25515 2.16003 8.74815 2.16003 11.9946C2.16003 15.2411 3.03678 17.7313 4.76788 19.4008C6.43454 21.0087 8.86312 21.8238 11.9864 21.8238C15.1096 21.8238 17.5382 21.0087 19.2077 19.4008C20.9387 17.7313 21.8183 15.2411 21.8183 11.9946C21.8183 8.74815 20.9387 6.25235 19.2077 4.58288ZM9.78188 15.8042C9.78188 16.1123 9.54379 16.3644 9.24967 16.3644C8.95555 16.3644 8.71746 16.1123 8.71746 15.8042V8.15711C8.71746 7.84899 8.95555 7.59689 9.24967 7.59689C9.54379 7.59689 9.78188 7.84899 9.78188 8.15711V15.8042ZM14.7427 16.3728C15.034 16.3728 15.2721 16.1207 15.2721 15.8126V8.16551C15.2721 7.85739 15.034 7.60529 14.7427 7.60529C14.4514 7.60529 14.2133 7.85739 14.2133 8.16551V15.8126C14.2133 16.1207 14.4514 16.3728 14.7427 16.3728Z" fill="#313235"/>
</svg>
