<svg width="24" height="24" viewBox="0 0 24 24" fill="none" xmlns="http://www.w3.org/2000/svg">
<path fill-rule="evenodd" clip-rule="evenodd" d="M7.82947 21.8742H19.9359C20.258 21.8742 20.583 21.8742 20.9079 21.877C21.4737 21.877 21.7987 21.5493 21.7987 20.9834V7.79458C21.8042 7.7167 21.7771 7.63696 21.7174 7.57728L16.3813 2.24114C16.3543 2.21557 16.323 2.19503 16.2888 2.18101C16.2559 2.16742 16.22 2.15991 16.1824 2.15991C13.2384 2.15991 8.47653 2.15991 7.82947 2.16551C7.24684 2.16551 6.91351 2.49885 6.91351 3.07588V3.9576C5.44915 4.00686 4.29944 4.42207 3.49894 5.19633C2.61098 6.05347 2.16 7.33638 2.16 9.00865C2.16 10.6809 2.61098 11.9638 3.49894 12.821C4.29893 13.5921 5.44769 14.0096 6.9107 14.0596V20.9498C6.9107 21.5437 7.23844 21.8742 7.82947 21.8742ZM15.9023 2.72294C12.9471 2.72294 8.45952 2.72294 7.82947 2.72574C7.55776 2.72574 7.47373 2.80697 7.47373 3.07588V3.95637C8.95678 3.99949 10.1199 4.41517 10.9275 5.19633C11.8155 6.05347 12.2664 7.33638 12.2664 9.00865C12.2664 10.6809 11.8155 11.9638 10.9275 12.821C10.1193 13.6 8.95761 14.0181 7.47093 14.061V20.9498C7.47093 21.2355 7.54936 21.314 7.82947 21.314H20.9079C21.1628 21.314 21.2384 21.2355 21.2412 20.9806V8.05907C19.5298 8.05907 18.5213 8.05907 18.244 8.05627C17.5819 8.05373 17.0403 7.83902 16.6457 7.44353C16.1686 6.96738 15.9054 6.22794 15.9023 5.28036V2.72294ZM16.4625 3.1179L16.4625 5.28036C16.4653 6.10389 16.6978 7.48764 18.2412 7.49605C18.3246 7.49605 18.4726 7.49627 18.6849 7.49659C19.1269 7.49726 19.8471 7.49836 20.8406 7.49872L16.4625 3.1179ZM10.2328 18.0479H18.5129C18.667 18.0479 18.7931 17.9218 18.7931 17.7678C18.7931 17.6137 18.667 17.4876 18.5129 17.4876H10.2328C10.0788 17.4876 9.95272 17.6137 9.95272 17.7678C9.95272 17.9218 10.0788 18.0479 10.2328 18.0479ZM18.5129 14.7706H11.3897C11.2356 14.7706 11.1096 14.6445 11.1096 14.4904C11.1096 14.3364 11.2356 14.2103 11.3897 14.2103H18.5157C18.6698 14.2103 18.7959 14.3364 18.7959 14.4904C18.7959 14.6445 18.667 14.7706 18.5129 14.7706ZM13.1768 11.4932H18.5129C18.667 11.4932 18.7931 11.3672 18.7931 11.2131C18.7931 11.0591 18.667 10.933 18.5129 10.933H13.1768C13.0227 10.933 12.8967 11.0591 12.8967 11.2131C12.8967 11.3672 13.0227 11.4932 13.1768 11.4932ZM7.21322 4.51285C5.75384 4.51285 4.63619 4.8798 3.88549 5.59969C3.10958 6.34759 2.71743 7.49325 2.71743 9.00865C2.71743 10.5241 3.10958 11.6697 3.88549 12.4176C4.63339 13.1403 5.75384 13.5044 7.21322 13.5044C8.67261 13.5044 9.79026 13.1403 10.541 12.4176C11.3141 11.6697 11.709 10.5241 11.709 9.00865C11.709 7.49325 11.3169 6.34759 10.541 5.59969C9.79306 4.877 8.67261 4.51285 7.21322 4.51285ZM7.45132 11.8091V12.328C7.45132 12.482 7.32527 12.6081 7.17121 12.6081C7.01715 12.6081 6.8911 12.482 6.8911 12.328V11.826C6.34282 11.791 5.81394 11.6096 5.35888 11.2944C5.24404 11.2131 5.18801 11.1123 5.18801 10.9806C5.19082 10.7874 5.34768 10.6333 5.54096 10.6361C5.62499 10.6389 5.70622 10.6641 5.77345 10.7117C6.14513 10.9595 6.51877 11.1039 6.8911 11.1449V9.26163C5.59191 9.0772 5.31687 8.33635 5.31687 7.74255C5.31687 6.82703 5.92753 6.21441 6.8911 6.13733V5.84619C6.8911 5.69213 7.01715 5.56607 7.17121 5.56607C7.32527 5.56607 7.45132 5.69213 7.45132 5.84619V6.14802C7.85651 6.19231 8.23058 6.31323 8.52975 6.49885C8.66421 6.58008 8.73703 6.69773 8.73703 6.82378C8.73703 7.00865 8.58577 7.15991 8.4009 7.15991C8.32527 7.15711 8.25524 7.1347 8.18801 7.10109L8.18521 7.09829C7.93683 6.96092 7.69729 6.87412 7.45132 6.83194V8.63038C8.19424 8.73666 9.05076 9.09458 9.05076 10.1711C9.05574 11.0827 8.4517 11.6864 7.45132 11.8091ZM7.45132 9.3411V11.1306C8.01756 11.0366 8.35608 10.6979 8.35608 10.2019C8.35608 9.86288 8.2424 9.50064 7.45132 9.3411ZM6.8911 6.81186C6.34402 6.87345 6.01154 7.20244 6.01154 7.70333C6.01154 8.01602 6.11767 8.38638 6.8911 8.54851V6.81186Z" fill="#313235"/>
</svg>
