<svg width="24" height="24" viewBox="0 0 24 24" fill="none" xmlns="http://www.w3.org/2000/svg">
<path fill-rule="evenodd" clip-rule="evenodd" d="M7.97233 21.8742H14.5101C17.4429 21.8742 20.3253 21.8742 20.7034 21.877C21.4149 21.8742 21.8575 21.4316 21.8575 20.7201V7.93862C21.8575 7.79016 21.7987 7.64731 21.695 7.54367L16.4905 2.32518C16.3841 2.21874 16.2412 2.15991 16.0928 2.15991C13.3337 2.15991 8.68942 2.15991 7.96953 2.16551C7.24404 2.16551 6.79306 2.61369 6.79306 3.33638V4.11888C5.42001 4.20838 4.3282 4.63517 3.54656 5.3896C2.62779 6.27756 2.16 7.59409 2.16 9.29717C2.16 11.0002 2.62779 12.3168 3.54656 13.2047C4.3282 13.9592 5.42001 14.386 6.79306 14.4755V20.6865C6.79306 21.0535 6.8995 21.342 7.10678 21.5549C7.31407 21.7678 7.60538 21.8742 7.97233 21.8742ZM7.91351 3.33638V4.1165C9.37698 4.19966 10.4719 4.61997 11.2496 5.39521C12.1236 6.26635 12.5494 7.54367 12.5494 9.29717C12.5494 11.003 12.0816 12.3168 11.1628 13.2047C10.3785 13.9593 9.28837 14.3861 7.91351 14.4755V20.6893C7.91351 20.7117 7.91351 20.7313 7.91631 20.7537C7.92229 20.7537 7.92929 20.7543 7.93731 20.7548L7.93736 20.7549C7.94812 20.7556 7.96071 20.7565 7.97513 20.7565H20.7342V20.7201V8.49885H18.1152C17.258 8.49885 16.5662 8.17392 16.1152 7.56047C15.7314 7.03946 15.5354 6.33918 15.5326 5.48204V3.28036C12.7452 3.28036 8.64299 3.28047 7.97233 3.28316C7.94992 3.28316 7.93031 3.28316 7.91631 3.28596C7.91631 3.29214 7.91576 3.29831 7.91515 3.3052L7.91515 3.30524V3.30525C7.91438 3.31398 7.91351 3.32387 7.91351 3.33638ZM16.6922 4.11514L16.653 4.07588V5.47644C16.653 6.08428 16.7791 6.57448 17.0171 6.89381C17.2552 7.21313 17.6138 7.3756 18.1152 7.3756H19.9414L16.6922 4.11514ZM10.4569 6.18792C9.81254 5.54354 8.81593 5.22955 7.40778 5.22169C7.38984 5.22344 7.37166 5.22434 7.35328 5.22434C7.33498 5.22434 7.31689 5.22345 7.29903 5.22171C4.59618 5.23926 3.28045 6.57304 3.28045 9.29717C3.28045 12.0395 4.61379 13.3728 7.35328 13.3728C10.0928 13.3728 11.4261 12.0395 11.4261 9.29717C11.4261 7.85739 11.1096 6.84058 10.4569 6.18792ZM10.6306 18.3308H18.8239C19.1348 18.3308 19.3841 18.0787 19.3841 17.7706C19.3841 17.4624 19.132 17.2103 18.8239 17.2103H10.6306C10.3225 17.2103 10.0704 17.4624 10.0704 17.7706C10.0704 18.0787 10.3225 18.3308 10.6306 18.3308ZM18.8239 15.0535H11.723C11.4149 15.0535 11.1628 14.8014 11.1628 14.4932C11.1628 14.1851 11.4149 13.933 11.723 13.933H18.8239C19.132 13.933 19.3841 14.1851 19.3841 14.4932C19.3841 14.8014 19.1348 15.0535 18.8239 15.0535ZM13.9079 11.2299H18.8239C19.1348 11.2299 19.3841 10.9778 19.3841 10.6697C19.3841 10.3616 19.132 10.1095 18.8239 10.1095H13.9079C13.5998 10.1095 13.3477 10.3616 13.3477 10.6697C13.3477 10.9778 13.5998 11.2299 13.9079 11.2299ZM7.77345 11.9379V12.3084C7.77345 12.5381 7.58577 12.7285 7.35328 12.7285C7.12079 12.7285 6.93311 12.5409 6.93311 12.3084V11.9435C6.49164 11.8808 6.06843 11.7169 5.69782 11.4596C5.56617 11.3672 5.50174 11.2439 5.50174 11.0955C5.50454 10.8658 5.68942 10.6837 5.91911 10.6837C6.01435 10.6865 6.10678 10.7145 6.18521 10.7678C6.43345 10.9327 6.68394 11.047 6.93311 11.1088V9.5682C5.8582 9.33879 5.62219 8.66332 5.62219 8.1179C5.62219 7.29517 6.12422 6.72243 6.93311 6.5771V6.10669C6.93311 5.8742 7.12079 5.68652 7.35328 5.68652C7.58577 5.68652 7.77345 5.8742 7.77345 6.10669V6.56954C8.12642 6.61873 8.45326 6.72998 8.72023 6.89381C8.92471 7.01986 8.95552 7.18512 8.95552 7.27196C8.95552 7.49325 8.77345 7.67532 8.55216 7.67532C8.46813 7.67252 8.38689 7.65011 8.31407 7.61089L8.30846 7.60809C8.12608 7.50833 7.95064 7.43892 7.77345 7.39699V8.85268C8.98103 9.05438 9.24124 9.77264 9.24124 10.3504C9.24124 10.8294 9.06477 11.2355 8.73423 11.5241C8.48954 11.7361 8.16171 11.8769 7.77345 11.9379ZM7.77345 9.7042V11.1158C8.17698 11.0137 8.41491 10.7506 8.41491 10.3784C8.41491 10.1096 8.32804 9.84483 7.77345 9.7042ZM6.93311 7.40857C6.62456 7.5134 6.44852 7.74903 6.44852 8.08148C6.44852 8.23518 6.44852 8.52351 6.93311 8.69713V7.40857Z" fill="#313235"/>
</svg>
