<svg width="24" height="24" viewBox="0 0 24 24" fill="none" xmlns="http://www.w3.org/2000/svg">
<path fill-rule="evenodd" clip-rule="evenodd" d="M20.3466 3.2437C20.4306 3.32494 20.5147 3.40897 20.5959 3.493C21.9348 4.88236 22.6071 7.11485 20.4811 9.22409L9.23737 20.4005C9.23457 20.4033 9.23107 20.4061 9.22757 20.4089C9.22407 20.4117 9.22057 20.4145 9.21776 20.4173C9.21636 20.4187 9.21496 20.4208 9.21356 20.4229C9.21216 20.425 9.21076 20.4271 9.20936 20.4285C9.19198 20.4459 9.1706 20.458 9.1489 20.4702C9.13913 20.4757 9.12929 20.4813 9.11973 20.4874C9.11166 20.4906 9.10453 20.4957 9.09779 20.5005C9.09282 20.504 9.08807 20.5074 9.08331 20.5098C8.99087 20.5686 8.88723 20.6022 8.77799 20.605C8.77239 20.605 8.76749 20.6036 8.76258 20.6022C8.75768 20.6008 8.75278 20.5994 8.74718 20.5994L2.87884 21.6778C2.68836 21.7115 2.48948 21.6526 2.34663 21.5182C2.20377 21.3837 2.13654 21.1877 2.16736 20.9944L3.10853 14.8935C3.11189 14.8767 3.11828 14.8599 3.12467 14.8431C3.12892 14.8319 3.13318 14.8207 3.13654 14.8095L3.13655 14.8095C3.14215 14.7871 3.14775 14.7647 3.15615 14.7423C3.18416 14.6751 3.22618 14.6134 3.2794 14.563L14.5875 3.37256C16.7416 1.24091 18.9741 1.91037 20.3466 3.2437ZM18.9488 9.03641L19.6155 8.37255C21.4642 6.54342 20.3018 4.93278 19.7191 4.32493C19.6519 4.25492 19.5707 4.17371 19.4979 4.10089L19.4979 4.10085C18.8984 3.52101 17.313 2.37536 15.4502 4.22129L14.7668 4.89916L18.9488 9.03641ZM4.64354 20.1288L3.67716 19.1708L3.49508 20.3389L4.64354 20.1288ZM6.25418 16.6554L4.56791 14.9888L13.9068 5.7507L15.5903 7.41737L6.25418 16.6554ZM3.90405 17.6947L6.09452 19.8627C6.09452 19.8627 7.51188 19.6022 7.50908 19.6022L4.12534 16.2549L3.90405 17.6947ZM8.77519 19.1512L7.11133 17.507L16.4474 8.26891L18.0861 9.89075C18.0889 9.89075 8.77519 19.1512 8.77519 19.1512Z" fill="#313235"/>
</svg>
