<svg width="24" height="24" viewBox="0 0 24 24" fill="none" xmlns="http://www.w3.org/2000/svg">
<path fill-rule="evenodd" clip-rule="evenodd" d="M21.8462 9.64854C21.8266 8.66535 21.0339 7.86703 20.0815 7.86703H19.2412V7.86983H18.5633C18.3589 6.92865 17.5353 6.21997 16.5521 6.21997H7.4765C4.04793 6.32921 2.15997 8.36563 2.15997 11.9539C2.15997 15.5365 4.04793 17.5785 7.49611 17.7046H16.5661C17.5633 17.7046 18.3981 16.9735 18.5857 16.0099H20.0955C21.0619 16.0099 21.8462 15.2032 21.8462 14.2144V9.64854ZM16.5661 16.4777C17.0367 16.4777 17.4177 16.0827 17.4177 15.5981V15.3992H17.4037V8.32921C17.4037 7.84462 17.0227 7.44966 16.5521 7.44966H7.49611C4.76221 7.5365 3.36726 9.0547 3.36726 11.9567C3.36726 14.8586 4.76221 16.3796 7.51572 16.4777H16.5661ZM20.639 9.66535V14.2172C20.639 14.5281 20.3953 14.783 20.0955 14.7858H18.6138V9.09952H20.1292C20.4093 9.12473 20.6334 9.37403 20.639 9.66535ZM7.43728 12.0659C7.43728 11.4329 7.07594 11.1387 6.51852 11.1387C5.96389 11.1387 5.59975 11.4329 5.59975 12.0659C5.59975 12.3712 5.68378 12.5953 5.83224 12.7494C5.99191 12.9146 6.23 12.9959 6.51852 12.9959C6.80703 12.9959 7.04233 12.9146 7.20479 12.7494C7.35325 12.5953 7.43728 12.3712 7.43728 12.0659Z" fill="#313235"/>
</svg>
