<svg width="24" height="24" viewBox="0 0 24 24" fill="none" xmlns="http://www.w3.org/2000/svg">
<path fill-rule="evenodd" clip-rule="evenodd" d="M11.9922 2.1499C18.2119 2.1499 21.84 5.29055 21.84 11.9977C21.84 18.7049 18.2119 21.8399 11.9922 21.8399C5.77256 21.8399 2.15002 18.7049 2.15002 11.9977C2.15002 5.29055 5.77256 2.1499 11.9922 2.1499ZM11.9922 21.019C17.9822 21.019 21.0191 17.9848 21.0191 11.9977C21.0191 6.00778 17.9822 2.97079 11.9922 2.97079C6.0051 2.97079 2.97091 6.00778 2.97091 11.9977C2.97091 17.9848 6.0051 21.019 11.9922 21.019ZM15.1553 14.8554C15.1553 15.4858 14.9508 15.6903 14.3176 15.6903C13.6844 15.6903 13.4827 15.4886 13.4827 14.8554C13.4827 14.2222 13.6844 14.0177 14.3176 14.0177C14.9508 14.0177 15.1553 14.2222 15.1553 14.8554ZM14.3176 13.1996C15.3626 13.1996 15.9762 13.7291 15.9762 14.8582C15.9762 15.9845 15.3654 16.514 14.3176 16.514C13.2726 16.514 12.6618 15.9845 12.6618 14.8582C12.6618 13.7319 13.2698 13.1996 14.3176 13.1996ZM8.83756 9.31092C8.83756 8.67775 9.04208 8.47323 9.67246 8.47323C10.3028 8.47323 10.5073 8.67495 10.5101 9.31092C10.5101 9.94409 10.3056 10.1458 9.67246 10.1458C9.04208 10.1458 8.83756 9.94129 8.83756 9.31092ZM9.67246 10.9639C8.62744 10.9639 8.01668 10.4372 8.01668 9.30812C8.01668 8.17905 8.62744 7.64954 9.67246 7.64954C10.7175 7.64954 11.331 8.17905 11.331 9.30812C11.331 10.4372 10.7175 10.9639 9.67246 10.9639ZM15.7969 7.78122C15.9341 7.60191 15.9033 7.34416 15.724 7.20688L15.7184 7.20128C15.5391 7.064 15.2842 7.09762 15.1469 7.27692L8.20439 16.2114C8.06711 16.3879 8.09793 16.6456 8.27723 16.7857C8.45374 16.923 8.71149 16.8922 8.85157 16.7129L15.7969 7.78122Z" fill="#313235"/>
</svg>
