<svg width="24" height="24" viewBox="0 0 24 24" fill="none" xmlns="http://www.w3.org/2000/svg">
<path fill-rule="evenodd" clip-rule="evenodd" d="M9.2783 4.6417C9.2783 6.19072 10.2139 7.1179 11.7769 7.1179C13.3455 7.11509 14.2783 6.19072 14.2783 4.6389C14.2783 3.84619 14.0458 3.22434 13.592 2.79016C13.155 2.3728 12.5444 2.15991 11.7769 2.15991C11.0122 2.15991 10.4015 2.3728 9.96177 2.79297C9.50799 3.22714 9.2783 3.84899 9.2783 4.6417ZM16.2251 15.905C17.0346 15.6893 17.5192 14.8574 17.3035 14.0479C17.3035 14.0479 16.1635 9.8826 16.1635 9.877C16.1522 9.81537 16.1326 9.75375 16.1046 9.68932C15.8189 8.39801 14.648 7.46523 13.3063 7.46523H10.7433C9.40155 7.46523 8.22788 8.40081 7.94216 9.69493C7.92256 9.74255 7.90575 9.79016 7.89454 9.84058L6.74048 14.0507C6.5276 14.8574 7.00659 15.6865 7.81331 15.9022C8.20267 16.0143 8.61723 15.961 8.97578 15.7622L9.01499 15.7369V20.3308C9.01499 21.1823 9.63684 21.8238 10.4604 21.8238C11.2783 21.8238 11.8749 21.1963 11.8749 20.3308V15.877H12.155V20.3308C12.155 21.1935 12.7713 21.8462 13.5892 21.8462C14.41 21.8462 15.029 21.1935 15.029 20.3308V15.7369C15.3875 15.9582 15.8217 16.0171 16.2251 15.905Z" fill="#313235"/>
</svg>
