<svg width="24" height="24" viewBox="0 0 24 24" fill="none" xmlns="http://www.w3.org/2000/svg">
<path fill-rule="evenodd" clip-rule="evenodd" d="M4.68381 15.7689C3.08717 15.7689 2.17121 14.8585 2.17121 13.2675V8.9874C2.17121 8.21148 2.38409 7.60084 2.80706 7.17227C3.24124 6.72969 3.87429 6.5056 4.68381 6.5056L13.8435 6.5C14.653 6.5 15.2861 6.72409 15.7202 7.16667C16.1432 7.59524 16.3561 8.20588 16.3561 8.98179V13.2619C16.3561 14.8529 15.4401 15.7633 13.8435 15.7633L11.6402 15.7647L12.1973 16.3391L15.8183 16.3375C16.1208 16.3375 16.3673 16.584 16.3673 16.8866C16.3673 17.1891 16.1208 17.4356 15.8183 17.4356L2.70902 17.4412C2.4065 17.4412 2.16 17.1947 2.16 16.8922C2.16 16.5896 2.4065 16.3431 2.70902 16.3431L6.23988 16.3416L6.78816 15.7676L4.68381 15.7689ZM8.30686 15.7667L7.7583 16.341L10.6692 16.3397L10.1124 15.7656L8.30686 15.7667ZM20.3645 17.4188H18.3673C17.8939 17.4188 17.4961 17.2031 17.2468 16.8081C17.034 16.4692 16.9303 16.0098 16.9303 15.402L16.9247 8.52241C16.9247 7.91457 17.0284 7.45518 17.2412 7.11625C17.4905 6.72409 17.8883 6.5056 18.3617 6.5056H20.3589C20.7931 6.5056 21.8071 6.70168 21.8071 8.51961L21.8099 15.3992C21.8127 17.2227 20.7987 17.4188 20.3645 17.4188Z" fill="#313235"/>
</svg>
