<svg width="24" height="24" viewBox="0 0 24 24" fill="none" xmlns="http://www.w3.org/2000/svg">
<path fill-rule="evenodd" clip-rule="evenodd" d="M9.27799 4.6417C9.27799 6.19072 10.2136 7.1179 11.7766 7.1179C13.3452 7.1179 14.278 6.19353 14.2752 4.6417C14.2752 3.84899 14.0427 3.22714 13.5889 2.79297C13.1519 2.3728 12.5413 2.15991 11.7738 2.15991C11.0091 2.15991 10.3984 2.3728 9.96147 2.79297C9.50769 3.22994 9.27799 3.84899 9.27799 4.6417ZM10.8102 3.66131C10.6029 3.86019 10.4965 4.19072 10.4965 4.64451C10.4965 5.53246 10.8802 5.91341 11.7766 5.91341C12.6786 5.91341 13.0623 5.53246 13.0623 4.64451C13.0623 4.19353 12.9559 3.86299 12.7486 3.66131C12.5441 3.46523 12.2164 3.3672 11.7766 3.3672C11.3368 3.3672 11.0119 3.46523 10.8102 3.66131ZM16.2248 15.9078C17.0343 15.6949 17.5189 14.863 17.3032 14.0507L16.1603 9.8854C16.1463 9.82378 16.1295 9.76215 16.1015 9.69773C15.8158 8.40641 14.6449 7.47364 13.3032 7.47364H10.7402C9.39844 7.47364 8.22477 8.40641 7.93906 9.70053C7.91385 9.75935 7.89704 9.81537 7.89144 9.84619L6.74018 14.0563C6.52729 14.8658 7.01189 15.6949 7.81301 15.9078C8.20517 16.0171 8.61693 15.9666 8.97547 15.765C8.98248 15.7608 8.98878 15.7566 8.99508 15.7523C9.00138 15.7481 9.00769 15.7439 9.01469 15.7397V20.3336C9.01469 21.1851 9.63654 21.8266 10.4601 21.8266C11.2808 21.8266 11.8746 21.1991 11.8746 20.3336V15.8798H12.1547V20.3336C12.1547 21.1963 12.771 21.849 13.5889 21.849C14.4096 21.849 15.0287 21.1963 15.0287 20.3336V15.7397C15.0355 15.7448 15.0432 15.7489 15.0514 15.7531C15.0568 15.7559 15.0624 15.7588 15.0679 15.7622C15.4265 15.9666 15.841 16.0171 16.2248 15.9078ZM16.1267 14.3616C16.1716 14.5269 16.0735 14.7005 15.9026 14.7453C15.8004 14.773 15.7172 14.7406 15.6666 14.7209L15.6645 14.7201C15.6225 14.6949 15.5497 14.6417 15.5329 14.5857L15.0147 11.7481C14.9587 11.4428 14.6786 11.2383 14.362 11.2551C14.0511 11.2832 13.8102 11.5437 13.8102 11.8546V20.3364C13.8102 20.4064 13.7934 20.6445 13.5861 20.6445C13.3844 20.6445 13.3676 20.4092 13.3676 20.3364V15.2804C13.3676 14.947 13.0959 14.6781 12.7598 14.6781H11.264C10.9279 14.6781 10.6561 14.947 10.6561 15.2804V20.3364C10.6561 20.6249 10.5133 20.6249 10.4573 20.6249C10.2668 20.6249 10.2276 20.468 10.2276 20.3364V11.8546C10.2276 11.5437 9.98668 11.2832 9.67295 11.2551C9.35362 11.2271 9.07631 11.44 9.02029 11.7481L8.51329 14.5353C8.48528 14.6389 8.41245 14.6949 8.37043 14.7173C8.32841 14.7425 8.24438 14.7762 8.13234 14.7453C7.96707 14.7005 7.87183 14.5297 7.91385 14.3672L9.06511 10.1571C9.08472 10.1151 9.09872 10.0703 9.10993 10.0255C9.11553 10.0115 9.11833 9.99745 9.12113 9.98064C9.27799 9.22714 9.95867 8.67812 10.7402 8.67812H13.3032C14.0847 8.67812 14.7626 9.22714 14.9195 9.98064C14.9208 9.98763 14.9229 9.99463 14.925 10.0016L14.9251 10.0016C14.9272 10.0087 14.9293 10.0157 14.9307 10.0227C14.9419 10.0731 14.9559 10.1179 14.9783 10.1627L16.1267 14.3616Z" fill="#313235"/>
</svg>
