<svg width="24" height="24" viewBox="0 0 24 24" fill="none" xmlns="http://www.w3.org/2000/svg">
<path fill-rule="evenodd" clip-rule="evenodd" d="M17.4622 11.9441C18.5042 12.5547 19.2073 13.6976 19.2969 14.9301C19.3781 16.0617 18.9328 17.101 18.0728 17.7844C17.0056 18.6332 15.6471 18.8264 14.6275 18.8264C13.8627 18.8264 13.2913 18.7172 13.1653 18.692V18.8096C14.3389 18.9917 14.9972 19.8124 14.9972 21.1262C14.9972 21.4483 14.7339 21.7116 14.409 21.7116H10.8768C10.5518 21.7116 10.2885 21.4511 10.2885 21.1262C10.2885 19.8629 10.9048 19.0645 11.9888 18.8404V14.1626C10.1289 13.9917 8.70028 13.0841 7.97479 11.6892C7.95787 11.6839 7.94055 11.681 7.92313 11.6781C7.89442 11.6733 7.86544 11.6685 7.83754 11.6528C5.61905 10.3979 5.15407 8.08135 5.43418 6.47911C5.67507 5.08975 6.56863 3.82084 7.88796 3.00012C11.1625 0.9609 14.1961 2.74521 14.3249 2.82364C14.3252 2.82381 14.3258 2.82413 14.3266 2.82458C14.3802 2.85447 15.5384 3.50076 15.7591 4.73401C15.9132 5.58835 15.5882 6.4679 14.7955 7.35586C14.7227 7.43709 14.6303 7.49591 14.5238 7.52672C14.2717 7.60235 13.8403 7.59115 13.4538 7.31944C12.972 6.9777 12.6779 6.32785 12.5826 5.38107C12.1681 5.17939 11.1485 4.84325 9.73109 5.52673C9.17367 5.79843 8.75911 6.05894 8.4902 7.00852C8.39496 7.35866 8.39776 7.7284 8.493 8.07854H16.8711C17.1933 8.07854 17.4566 8.33905 17.4566 8.66398L17.4538 9.54353C17.4426 10.3278 17.2633 11.0197 16.9692 11.6136C17.0896 11.6836 17.2073 11.7592 17.3165 11.8432C17.3291 11.8523 17.3413 11.8614 17.3533 11.8703C17.3896 11.8973 17.4243 11.923 17.4622 11.9441ZM6.59104 6.68079C6.77591 5.62196 7.47339 4.64437 8.50981 3.99731C11.1597 2.34465 13.6134 3.76762 13.7423 3.84325C13.7479 3.84605 14.479 4.25222 14.6022 4.94129C14.6779 5.35866 14.5126 5.83205 14.1092 6.34745C13.9496 6.2102 13.7731 5.79563 13.7311 5.00572C13.7227 4.83485 13.6387 4.67518 13.5014 4.57154L13.4993 4.57002C13.4012 4.49802 11.7163 3.26209 9.21849 4.4735C8.33614 4.89927 7.71709 5.41748 7.35575 6.68919C7.17647 7.34185 7.20729 8.03373 7.43978 8.66678V9.45109C7.43978 9.59115 7.45098 9.7256 7.46219 9.86006C6.60505 8.89367 6.42858 7.62756 6.59104 6.68079ZM16.0224 17.5687C16.5042 17.4511 16.9832 17.2494 17.3922 16.9245C18.1709 16.3054 18.2325 15.4567 18.2073 15.0029C18.1429 14.1262 17.6471 13.3138 16.9104 12.8853C16.8291 12.8376 16.7507 12.7816 16.6667 12.72C16.5686 12.6472 16.4706 12.5855 16.3557 12.5351C16.2325 12.6752 16.1008 12.8096 15.9636 12.9357C16.7003 13.3503 17.5042 14.0617 17.5042 15.1234C17.5042 16.2242 16.9832 16.9693 16.0224 17.5687ZM13.1653 14.1654V17.6024C15.8992 16.7088 16.4034 16.0645 16.4062 15.1262C16.4062 14.3839 15.4342 13.8432 14.9104 13.6528C14.3641 13.9273 13.7731 14.101 13.1653 14.1654Z" fill="#313235"/>
</svg>
