<svg width="24" height="24" viewBox="0 0 24 24" fill="none" xmlns="http://www.w3.org/2000/svg">
<path fill-rule="evenodd" clip-rule="evenodd" d="M17.4201 11.9103C18.4706 12.5266 19.1792 13.6834 19.2689 14.9271C19.3501 16.07 18.8991 17.1232 18.0364 17.8067C16.9636 18.661 15.5994 18.8571 14.5742 18.8571C14.0868 18.8599 13.5966 18.8151 13.1176 18.7254V18.8039C14.2857 18.9887 14.944 19.8095 14.944 21.1232C14.944 21.4453 14.6834 21.7086 14.3585 21.7086H10.8375C10.5154 21.7086 10.2521 21.4481 10.2521 21.1232C10.2521 19.8627 10.8627 19.0616 11.9468 18.8375V14.1624C10.0924 13.9888 8.66665 13.084 7.94397 11.689C7.92629 11.6838 7.90861 11.681 7.89108 11.6781C7.86138 11.6733 7.83209 11.6685 7.80391 11.6526C5.59103 10.3977 5.12885 8.08121 5.40616 6.47897C5.64705 5.08962 6.53781 3.82351 7.85433 2.99999C11.1232 0.957974 14.1456 2.74228 14.2717 2.82071C14.2941 2.83192 15.4818 3.47898 15.7059 4.73108C15.8571 5.58541 15.535 6.46777 14.7451 7.35292C14.6694 7.43415 14.577 7.49297 14.4706 7.52379C14.2185 7.59942 13.7871 7.58821 13.4033 7.3165C12.9215 6.97757 12.6302 6.32771 12.535 5.38093C12.1204 5.17925 11.1036 4.84312 9.68906 5.52659C9.13444 5.7983 8.71988 6.0616 8.45097 7.00838C8.35573 7.35852 8.35853 7.72827 8.45377 8.07841H16.8123C17.1344 8.07841 17.3977 8.33891 17.3977 8.66384L17.3949 9.54339C17.3921 10.2493 17.2325 10.9439 16.9299 11.5798C17.0504 11.6498 17.168 11.7283 17.2801 11.8123C17.2952 11.823 17.31 11.8339 17.3248 11.8448C17.3564 11.8682 17.3876 11.8912 17.4201 11.9103ZM6.56022 6.68065C6.74509 5.62183 7.44257 4.64424 8.47338 3.99718C11.1081 2.34871 13.5506 3.76031 13.6881 3.83974L13.6891 3.84032C13.6975 3.84312 14.4313 4.25489 14.549 4.94396C14.6218 5.36133 14.4566 5.83191 14.0588 6.34452C13.9804 6.27729 13.7311 5.98878 13.6806 5.00278C13.6722 4.83192 13.5882 4.67225 13.4538 4.56861C13.3837 4.51539 11.6891 3.25209 9.17926 4.46777C8.29971 4.89354 7.68346 5.41175 7.32492 6.68345C7.14565 7.3193 7.17366 8.01958 7.40615 8.66104L7.40895 8.66384V9.44815C7.40895 9.58821 7.42016 9.72266 7.43136 9.85711C6.57422 8.89353 6.39775 7.62743 6.56022 6.68065ZM8.57702 9.25207V9.44815C8.59943 12.084 10.6666 13.0252 12.591 13.0252C14.3697 13.0252 16.1848 11.8235 16.2213 9.52658V9.25207H8.57702ZM16.1932 17.4649C16.5854 17.3445 16.9692 17.1596 17.3053 16.8935C18.07 16.2857 18.1316 15.4509 18.1008 15.0112C18.0392 14.1456 17.5518 13.3445 16.8291 12.9215C16.7517 12.8777 16.6791 12.8243 16.6024 12.768L16.5826 12.7535C16.479 12.6778 16.3837 12.619 16.2689 12.5686C16.1624 12.6918 16.0504 12.8067 15.9327 12.9131C16.6722 13.3333 17.479 14.0532 17.479 15.126C17.479 16.1596 17.028 16.8823 16.1932 17.4649ZM13.1176 14.168V17.5602C15.8067 16.6778 16.3081 16.0448 16.3081 15.126C16.3081 14.3837 15.3081 13.8515 14.8067 13.6806C14.2773 13.9411 13.7059 14.1064 13.1176 14.168ZM11.5042 20.5406C11.6498 20.1232 11.9944 19.9439 12.5966 19.9439C13.1989 19.9439 13.5434 20.1232 13.6891 20.5406H11.5042Z" fill="#313235"/>
</svg>
