<svg width="24" height="24" viewBox="0 0 24 24" fill="none" xmlns="http://www.w3.org/2000/svg">
<path fill-rule="evenodd" clip-rule="evenodd" d="M11.8452 4.22679L12.0049 4.07553C14.5623 1.52091 17.3746 1.52091 19.9264 4.07833C22.4446 6.59093 22.4839 9.36685 20.0385 11.8907L11.932 19.9971C11.8732 20.0615 11.8172 20.1203 11.7528 20.1736C10.5623 21.2884 9.31018 21.8458 8.05248 21.8458C6.70794 21.8458 5.3578 21.2072 4.07769 19.9243C1.52307 17.3696 1.52027 14.5573 4.07209 12.0055L4.23175 11.843C4.3494 11.7198 4.46425 11.6021 4.58189 11.4985L11.5203 4.55732C11.5884 4.47554 11.6805 4.38638 11.7772 4.29285C11.7997 4.27105 11.8224 4.24902 11.8452 4.22679ZM16.1141 14.6358C16.0693 14.633 16.0245 14.6386 15.9797 14.6498C14.6855 15.0615 13.1533 14.3977 11.425 12.6666C9.70514 10.9467 9.0945 9.05312 9.49786 7.7646C9.51747 7.69738 10.397 6.81783 12.1337 5.12595C12.2051 5.04337 12.2837 4.9679 12.3637 4.89104L12.3637 4.89103C12.3841 4.87144 12.4045 4.85175 12.425 4.83183L12.5959 4.66376C13.7163 3.54612 14.8424 2.98589 15.9684 2.98589C17.0945 2.98589 18.2205 3.54612 19.3382 4.66376C21.5427 6.86825 21.5763 9.10074 19.4446 11.3024L16.1141 14.6358ZM11.4082 19.3416L11.327 19.4229C11.2878 19.4677 11.243 19.5097 11.1981 19.5489C9.03567 21.5741 6.8396 21.5041 4.66873 19.336C2.43063 17.0979 2.42783 14.8318 4.66032 12.5993L4.83119 12.4201L4.83311 12.418C4.92767 12.3179 5.0197 12.2205 5.14212 12.1147L8.49786 8.759C8.44464 10.14 9.21495 11.647 10.8284 13.2604C12.3662 14.801 13.8144 15.5825 15.1421 15.6049L11.4082 19.3416Z" fill="#313235"/>
</svg>
