<svg width="24" height="24" viewBox="0 0 24 24" fill="none" xmlns="http://www.w3.org/2000/svg">
<path fill-rule="evenodd" clip-rule="evenodd" d="M18.7152 3.95508C20.9225 6.16797 21.0877 8.59654 19.2082 10.8402C20.9925 11.7338 21.8468 13.5181 21.8496 16.0167C21.8496 19.6946 19.9981 21.843 16.0401 21.843C13.4211 21.843 11.732 20.8991 10.8833 19.1988C9.84405 20.0979 8.76001 20.5517 7.67318 20.5517C6.41828 20.5517 5.15777 19.9523 3.96169 18.7506C2.74321 17.5293 2.13816 16.2604 2.16057 14.9719C2.18298 13.7338 2.78802 12.5097 3.95609 11.336L4.10175 11.1876C4.20819 11.0727 4.31744 10.9635 4.42948 10.8654L10.8637 4.40606C10.9449 4.31362 11.0541 4.20718 11.1662 4.10074L11.3146 3.95508C13.7012 1.56292 16.3286 1.56012 18.7152 3.95508ZM11.746 4.70859C11.6536 4.79542 11.5611 4.88226 11.4799 4.97749L8.90007 7.56292C8.89913 7.57138 8.89882 7.57983 8.89851 7.58839C8.89789 7.60536 8.89725 7.62274 8.89167 7.64135C8.52472 8.82903 9.14377 10.2352 10.7292 11.829C10.8945 11.9915 11.0513 12.1344 11.211 12.2772C12.1354 10.9299 13.7236 10.1932 16.0401 10.1932C16.9225 10.1932 17.6928 10.3052 18.3679 10.5125C20.1662 8.53211 20.0961 6.52651 18.1242 4.54892C16.0625 2.48169 13.9729 2.48169 11.9085 4.54892L11.746 4.70858L11.746 4.70859ZM4.55273 18.1596C3.50231 17.1063 2.9785 16.0391 2.99811 14.9887C3.01492 13.9747 3.53592 12.9439 4.54713 11.9299L4.70679 11.7646L4.7068 11.7646C4.79364 11.6722 4.88047 11.5797 4.99811 11.4789L7.96169 8.5069C8.02612 9.71979 8.75161 11.0307 10.1382 12.4229C10.3595 12.6414 10.5723 12.8402 10.788 13.0251C10.4155 13.8598 10.2334 14.8626 10.2334 16.0195C10.2334 16.8963 10.3398 17.6806 10.5527 18.3752C8.56393 20.2296 6.54713 20.1596 4.55273 18.1596ZM16.0373 21.0055C13.6368 21.0055 12.1354 20.1484 11.4715 18.4341C11.4659 18.3416 11.4323 18.2548 11.3651 18.182C11.197 17.661 11.1158 17.0503 11.0877 16.3809C11.1494 16.4145 11.2138 16.4397 11.2894 16.4397H20.7852C20.8609 16.4397 20.9253 16.4145 20.9841 16.3809C20.8665 19.4817 19.2558 21.0055 16.0373 21.0055ZM20.9869 15.6582C20.9253 15.6245 20.8609 15.5993 20.788 15.5993H11.2922C11.2166 15.5993 11.1522 15.6245 11.0905 15.6582C11.211 12.5573 12.8216 11.0335 16.0373 11.0335C19.2558 11.0335 20.8665 12.5601 20.9869 15.6582Z" fill="#313235"/>
</svg>
