<svg width="24" height="24" viewBox="0 0 24 24" fill="none" xmlns="http://www.w3.org/2000/svg">
<path fill-rule="evenodd" clip-rule="evenodd" d="M15.7962 2.42882L21.5805 8.24114C21.7486 8.40921 21.8466 8.6361 21.8466 8.877C21.8466 9.09269 21.7626 9.29717 21.6113 9.45123C20.8438 10.2215 20.0203 10.6697 19.1435 10.8014L16.4292 13.5325C16.8186 15.5689 16.1099 17.5101 14.32 19.3084C14.0651 19.5633 13.8018 19.6753 13.5217 19.6753C13.2416 19.6753 12.9755 19.5633 12.7766 19.3616L9.03147 15.5885L2.88582 21.7229L2.88301 21.7257C2.71495 21.891 2.44884 21.8882 2.28357 21.7201C2.11831 21.5521 2.11831 21.2804 2.28638 21.1151L8.42363 14.9806L4.75416 11.286C4.55808 11.0871 4.44884 10.821 4.44884 10.5409C4.44884 10.2636 4.55808 9.99465 4.75696 9.79577L5.0903 10.0675L4.79058 9.76495C7.02027 7.52126 9.12111 7.32798 10.5553 7.59969L13.2696 4.8686C13.3928 3.99184 13.827 3.17112 14.5665 2.42882C14.7542 2.24114 14.953 2.15991 15.1659 2.15991C15.4012 2.16271 15.6281 2.25795 15.7962 2.42882ZM18.6477 10.0871C18.7149 10.0171 18.8046 9.97504 18.9026 9.96383C19.6393 9.8854 20.3424 9.51565 20.9951 8.86299L15.1967 3.03666C14.5273 3.68092 14.1687 4.3784 14.0987 5.11229C14.0875 5.21033 14.0455 5.30277 13.9755 5.3728L10.9951 8.3756C10.8914 8.47924 10.743 8.52126 10.5973 8.48764C8.81019 8.05627 7.05948 8.69213 5.39562 10.37L5.36481 10.4008C5.28357 10.4764 5.28357 10.6025 5.35921 10.6809L9.31439 14.6613C9.31719 14.6632 9.31999 14.6647 9.32279 14.6663C9.32839 14.6694 9.33399 14.6725 9.3396 14.6781C9.3424 14.6823 9.3445 14.6865 9.3466 14.6907C9.3487 14.6949 9.3508 14.6991 9.3536 14.7033L13.376 18.7565C13.4152 18.7958 13.4684 18.8182 13.5217 18.8182C13.5777 18.8182 13.6309 18.7958 13.6673 18.7565C15.3536 17.0563 15.9698 15.3028 15.5525 13.4876C15.5189 13.3448 15.5609 13.1935 15.6645 13.0871L18.6477 10.0871Z" fill="#313235"/>
</svg>
