<svg width="24" height="24" viewBox="0 0 24 24" fill="none" xmlns="http://www.w3.org/2000/svg">
<path d="M21.6834 4.69194C21.7142 4.0841 21.4677 3.46786 20.9663 2.91323C19.9383 1.76758 18.6414 1.70035 17.4958 2.72836C17.2156 2.98046 14.6358 5.75917 13.9271 6.52108L5.13721 5.22976C4.97755 5.21015 4.82069 5.28298 4.73105 5.41744L3.82909 6.84881C3.76466 6.94965 3.74786 7.0701 3.78427 7.18494C3.81789 7.29979 3.89912 7.39222 4.00556 7.44265L10.3529 10.3754C9.47895 11.325 8.82349 11.9609 8.23525 12.5323C7.44534 13.2998 6.81228 13.9132 6.00276 14.944L3.14842 14.7368C2.99996 14.7228 2.8543 14.7956 2.77587 14.9216L2.06719 15.9945C1.94394 16.1849 1.99436 16.437 2.18483 16.5631L4.99716 18.4118L6.82909 21.4875C6.93833 21.6695 7.16803 21.7368 7.3585 21.6471L8.6078 21.0449C8.75906 20.9721 8.8515 20.8124 8.83749 20.6443L8.5994 17.5435C9.66663 16.7088 10.2857 16.0869 11.0588 15.3082C11.7619 14.5883 12.4874 13.8908 13.2325 13.2158L16.2493 19.5687C16.3473 19.7732 16.591 19.86 16.7955 19.762H16.7983L18.2409 19.0561C18.4033 18.9777 18.493 18.8012 18.4649 18.6247L17.0728 9.77038C17.7759 9.12612 20.5406 6.60511 20.7815 6.38662C21.3389 5.88242 21.6526 5.29699 21.6834 4.69194Z" fill="#313235"/>
</svg>
