<svg width="24" height="24" viewBox="0 0 24 24" fill="none" xmlns="http://www.w3.org/2000/svg">
<path fill-rule="evenodd" clip-rule="evenodd" d="M17.3974 2.90918C18.5907 1.83075 19.9997 1.90638 21.0781 3.10246C22.1537 4.30134 22.0781 5.71311 20.8876 6.79994C20.6811 6.98627 18.6186 8.86795 17.6239 9.77546L17.333 10.0408L18.6803 18.6067C18.7224 18.8672 18.5879 19.1249 18.3498 19.2425L16.938 19.9316C16.7952 20.0016 16.6271 20.0128 16.4759 19.9596C16.3218 19.9064 16.1985 19.7943 16.1285 19.6487L13.291 13.6683C12.4842 14.4044 11.9198 14.972 11.4138 15.4808L11.3666 15.5282L11.3556 15.5393C10.6184 16.2821 10.0227 16.8823 9.02207 17.6711L9.24897 20.6011C9.26857 20.8504 9.13412 21.0857 8.91003 21.1921L7.68874 21.7803C7.60471 21.8195 7.51507 21.8392 7.42824 21.8392C7.22376 21.8392 7.02207 21.7327 6.91003 21.545L5.13972 18.5702L2.42263 16.7831C2.14252 16.6011 2.06689 16.2257 2.24897 15.9484L2.93804 14.8952C3.05569 14.7103 3.26857 14.6123 3.48426 14.6235L6.17614 14.8167C6.943 13.8547 7.55162 13.2618 8.30324 12.5297L8.31339 12.5198C8.8456 12.0072 9.43104 11.4358 10.1929 10.6179L4.22936 7.85876C4.07249 7.78874 3.95205 7.64868 3.90443 7.48341C3.85401 7.31815 3.87922 7.13888 3.97165 6.99042L4.85681 5.58706C4.98286 5.38538 5.21815 5.27893 5.45345 5.31255L13.9605 6.56185C14.812 5.64308 17.1257 3.15288 17.3974 2.90918ZM16.2798 9.36016C16.2798 9.36016 19.8064 6.14168 20.0781 5.89518C20.7784 5.26213 20.812 4.61227 20.1789 3.90918C19.5487 3.2089 18.8988 3.17529 18.1985 3.80554C17.9913 3.99322 15.896 6.23972 14.6243 7.61227C14.4899 7.75792 14.291 7.82515 14.0949 7.79994L5.66353 6.56185L5.35541 7.05204L11.4506 9.86997C11.6243 9.9484 11.7476 10.1081 11.7868 10.2957C11.826 10.4806 11.7728 10.6767 11.6439 10.8195C10.5757 12.0052 9.82291 12.7359 9.15706 13.3821L9.15373 13.3854C8.36661 14.1501 7.74476 14.7551 6.92964 15.8111C6.80639 15.9708 6.60751 16.0548 6.40863 16.0436L3.75037 15.8504L3.5851 16.1025L5.91563 17.6347C5.99126 17.6851 6.05569 17.7523 6.10331 17.8308L7.66073 20.4498L8.01367 20.2789L7.79518 17.4358C7.78118 17.2313 7.86801 17.0352 8.03048 16.9092C9.1264 16.0698 9.73372 15.4581 10.5019 14.6843L10.5123 14.6739L10.5383 14.6476C11.1763 14.0041 11.9038 13.2702 13.0865 12.2229C13.2266 12.0969 13.4198 12.0436 13.6047 12.0829C13.7924 12.1221 13.9492 12.2453 14.0305 12.4162L16.9548 18.5759L17.4198 18.349L16.0893 9.90078C16.0585 9.6991 16.1313 9.49742 16.2798 9.36016Z" fill="#313235"/>
</svg>
