<svg width="24" height="24" viewBox="0 0 24 24" fill="none" xmlns="http://www.w3.org/2000/svg">
<path fill-rule="evenodd" clip-rule="evenodd" d="M15.3112 3.67812H17.1011C17.9078 3.67812 18.5661 4.31397 18.5661 5.08988V6.96944C18.5661 7.01425 18.5605 7.05907 18.5492 7.10389C18.4316 8.93582 17.2579 9.97224 15.3112 9.97224C14.6949 9.97224 14.1655 9.86019 13.7145 9.66131C13.3336 10.426 13.0675 11.2327 12.8882 11.8994H16.5268C17.3364 11.8994 17.9918 12.5353 17.9918 13.314V14.7678C17.9918 15.4652 17.4652 16.0423 16.7789 16.1571L16.2663 20.6529C16.2691 21.2832 15.6865 21.8462 14.9694 21.8462H9.03384C8.31675 21.8462 7.73412 21.2832 7.73412 20.5885L7.22432 16.1599C6.53804 16.0451 6.01143 15.468 6.01143 14.7706V13.3168C6.01143 12.5381 6.66689 11.9022 7.47362 11.9022H11.0899C10.9358 10.2804 10.6221 9.07308 10.2495 8.17392C9.79574 8.37 9.28594 8.47364 8.70051 8.47364C6.73972 8.47364 5.56045 7.42322 5.45401 5.58848C5.4456 5.54647 5.44 5.50165 5.44 5.45963V3.58848C5.44 2.79857 6.10107 2.15991 6.91059 2.15991H8.70611C10.7789 2.15991 11.9666 3.31117 11.9694 5.31677C11.9694 6.14591 11.7565 6.84058 11.3308 7.3784C11.3252 7.384 11.321 7.3896 11.3168 7.39521C11.3126 7.40081 11.3084 7.40641 11.3027 7.41201L11.2747 7.44563C11.6109 8.19072 11.905 9.1291 12.1123 10.286C12.2831 9.81817 12.4848 9.36159 12.7173 8.92182L12.5857 8.75935C12.2243 8.20753 12.0562 7.57168 12.0562 6.82378C12.0562 4.82378 13.2411 3.67812 15.3112 3.67812ZM8.70051 7.27756C7.37838 7.27756 6.73692 6.70333 6.6865 5.49044C6.6865 5.45403 6.6837 5.41762 6.6753 5.3812V3.58848C6.6753 3.45963 6.78174 3.35599 6.91059 3.35599H8.70611C10.0871 3.35599 10.7313 3.98064 10.7313 5.31958C10.7313 5.66131 10.6781 5.95823 10.5829 6.21593C9.59687 4.79857 8.56605 4.51565 8.49042 4.49605C8.17109 4.41481 7.84336 4.59969 7.74813 4.91341C7.65569 5.22434 7.84897 5.55207 8.16829 5.64731C8.1823 5.65011 8.95261 5.89941 9.71451 7.10949C9.4316 7.21874 9.09827 7.28036 8.70051 7.27756ZM17.3308 6.89381C17.3252 6.92182 17.3224 6.94983 17.3196 6.97784C17.2691 8.20753 16.6277 8.78176 15.3112 8.78176C14.9778 8.78736 14.6473 8.73694 14.3308 8.6277C14.821 7.95543 15.4288 7.41761 16.1879 7.20193C16.5044 7.1179 16.6949 6.79297 16.6109 6.47364C16.6109 6.47224 16.6102 6.47014 16.6095 6.46804C16.6088 6.46593 16.6081 6.46383 16.6081 6.46243C16.5044 6.14311 16.1655 5.96103 15.8406 6.05627C14.8574 6.33358 14.0815 6.96103 13.4624 7.75375C13.3476 7.45683 13.2887 7.1403 13.2915 6.82098C13.2915 5.48764 13.933 4.8686 15.3112 4.8686H17.1011C17.2271 4.8686 17.3308 4.96663 17.3308 5.08988V6.89381ZM16.7537 13.314V14.7678C16.7537 14.891 16.6501 14.989 16.524 14.989H7.47362C7.35037 14.9918 7.24673 14.891 7.24392 14.7678V13.314C7.24392 13.1907 7.34757 13.0927 7.47362 13.0927H16.5268C16.6501 13.0927 16.7537 13.1907 16.7537 13.314ZM9.03104 20.6529H14.9666C15.003 20.6529 15.0338 20.6249 15.031 20.5885L15.5296 16.1823H8.46521L8.96101 20.5213C8.96381 20.6221 8.99462 20.6529 9.03104 20.6529Z" fill="#313235"/>
</svg>
