<svg width="24" height="24" viewBox="0 0 24 24" fill="none" xmlns="http://www.w3.org/2000/svg">
<path fill-rule="evenodd" clip-rule="evenodd" d="M11.9975 21.8378C5.56336 21.8378 2.16 18.4372 2.16 12.0002C2.16 5.56327 5.56056 2.15991 11.9975 2.15991C15.1376 2.15991 17.5718 2.97224 19.2356 4.57728C20.9611 6.24114 21.8379 8.73974 21.8379 12.0002C21.8407 18.4344 18.4373 21.8378 11.9975 21.8378ZM11.9975 2.72014C5.84348 2.72014 2.72023 5.84339 2.72023 12.0002C2.72023 18.1543 5.84068 21.2776 11.9975 21.2776C18.1572 21.2776 21.2777 18.1571 21.2777 12.0002C21.2805 5.84058 18.1572 2.72014 11.9975 2.72014ZM8.95552 16.3252C8.9107 16.3252 8.86589 16.314 8.82667 16.2916C8.74544 16.2439 8.69782 16.1599 8.69782 16.0675V7.83498C8.69782 7.74255 8.74824 7.65571 8.82667 7.61089C8.9079 7.56327 9.00594 7.56327 9.08717 7.61089L16.216 11.7257C16.2973 11.7734 16.3449 11.8574 16.3449 11.9498C16.3449 12.0423 16.2945 12.1291 16.216 12.1739L9.08437 16.2916C9.04516 16.314 9.00034 16.3252 8.95552 16.3252ZM9.21603 8.28596V15.6165L15.5634 11.9526L9.21603 8.28596Z" fill="#313235"/>
</svg>
