<svg width="24" height="24" viewBox="0 0 24 24" fill="none" xmlns="http://www.w3.org/2000/svg">
<path fill-rule="evenodd" clip-rule="evenodd" d="M11.9863 21.821C8.86308 21.821 6.43451 21.0058 4.76785 19.398C3.03675 17.7313 2.16 15.2411 2.16 11.9946C2.16 8.74815 3.03675 6.25515 4.76785 4.58568C6.43451 2.97784 8.86589 2.15991 11.9863 2.15991C15.1096 2.15991 17.5382 2.97504 19.2076 4.58288C20.9415 6.25235 21.8183 8.74535 21.8183 11.9918C21.8183 15.2383 20.9387 17.7285 19.2076 19.398C17.5382 21.0058 15.1096 21.821 11.9863 21.821ZM11.9863 3.24955C6.18802 3.24955 3.24684 6.19072 3.24684 11.9946C3.24684 17.793 6.18802 20.7341 11.9863 20.7341C17.7875 20.7341 20.7314 17.793 20.7314 11.9946C20.7314 6.19353 17.7875 3.24955 11.9863 3.24955ZM9.18801 16.3C9.10398 16.3 9.01995 16.2776 8.94432 16.2355C8.79306 16.1487 8.70062 15.989 8.70062 15.8154V8.1319C8.70062 7.95823 8.79306 7.79857 8.94432 7.71173C9.09558 7.6249 9.28045 7.6249 9.42891 7.71173L16.0816 11.5521C16.2328 11.6389 16.3253 11.7986 16.3253 11.9722C16.3253 12.1459 16.2328 12.3056 16.0816 12.3924L9.42891 16.2355C9.35328 16.2776 9.26925 16.3 9.18801 16.3ZM9.67261 14.9722L14.8687 11.9722L9.67261 8.97224V14.9722Z" fill="#313235"/>
</svg>
