<svg width="24" height="24" viewBox="0 0 24 24" fill="none" xmlns="http://www.w3.org/2000/svg">
<path fill-rule="evenodd" clip-rule="evenodd" d="M16.8585 7.49852H17.4887C18.035 7.49852 18.4775 7.92709 18.4775 8.4537V8.52373C18.4775 11.2492 17.2506 12.6834 16.1414 13.4201V14.6722C16.1414 15.3052 15.9453 15.7982 15.556 16.1372C15.2226 16.4341 14.7633 16.5881 14.1974 16.6162V20.7674C14.1974 21.2912 13.7577 21.7142 13.217 21.7142H11.4299C10.8893 21.7142 10.4495 21.2912 10.4495 20.7674V16.6162C9.88931 16.5853 9.43273 16.4313 9.105 16.1372C8.71565 15.8066 8.50556 15.2996 8.50556 14.675V13.4285C7.39632 12.6918 6.16943 11.2548 6.16943 8.49292C6.16943 7.92149 6.61481 7.49292 7.16103 7.49292H7.63722V3.62738C7.63722 2.74223 8.38231 2.02515 9.29548 2.02515C10.2086 2.02515 10.9537 2.74503 10.9537 3.62738V7.49292L13.542 7.49572V3.62738C13.542 2.74223 14.2871 2.02515 15.2002 2.02515C16.1162 2.02515 16.8585 2.74503 16.8585 3.62738V7.49852ZM9.29828 3.25203C9.08539 3.25203 8.90612 3.4229 8.90612 3.63019V7.49572H9.69043V3.63019C9.69043 3.4229 9.51396 3.25203 9.29828 3.25203ZM12.9369 20.4929H11.7184V16.8318H12.9369V20.4929ZM14.8081 3.63019C14.8081 3.4229 14.9873 3.25203 15.2002 3.25203C15.4159 3.25203 15.5924 3.4229 15.5924 3.63019V7.49852H14.8081V3.63019Z" fill="#313235"/>
</svg>
