<svg width="24" height="24" viewBox="0 0 24 24" fill="none" xmlns="http://www.w3.org/2000/svg">
<path fill-rule="evenodd" clip-rule="evenodd" d="M17.4804 7.37815H16.6401V3.42857C16.6401 2.64146 15.993 2 15.1919 2C14.3964 2 13.7465 2.63866 13.7465 3.42857V7.37815L10.7381 7.37535V3.42857C10.7381 2.64146 10.0911 2 9.28994 2C8.49162 2 7.84456 2.63866 7.84456 3.42857V7.37535H7.15828C6.61207 7.37535 6.16669 7.81233 6.16669 8.39496C6.16669 11.2157 7.39358 12.6835 8.50282 13.4342V14.7059C8.50282 15.3445 8.71291 15.8627 9.10226 16.1989C9.46921 16.5322 9.98461 16.7003 10.6373 16.7003H10.6569V20.9272C10.6569 21.3445 11.0014 21.6863 11.4272 21.6863H13.2143C13.6373 21.6891 13.9818 21.3501 13.9846 20.9272V16.7003H14.0294C14.6765 16.7003 15.1891 16.5322 15.5532 16.1989C15.937 15.8571 16.1387 15.3389 16.1387 14.7031V13.423C17.2479 12.6695 18.4748 11.2101 18.4748 8.42297V8.35294C18.4692 7.81793 18.0266 7.37815 17.4804 7.37815ZM17.6261 8.42577C17.6261 10.4874 16.9062 11.9776 15.4888 12.8487C15.3656 12.9244 15.2899 13.056 15.2899 13.2017V14.7059C15.2899 15.1064 15.1863 15.4006 14.979 15.5882C14.7745 15.7759 14.4524 15.8711 14.0238 15.8711H10.6345C10.2031 15.8711 9.88097 15.7759 9.66529 15.5826C9.4524 15.3978 9.34596 15.1036 9.34596 14.7087V13.2101C9.34596 13.0644 9.27033 12.93 9.14708 12.8571C7.73251 11.9916 7.01263 10.4902 7.01263 8.35294C7.01263 8.27451 7.07705 8.20728 7.16108 8.20728L17.4832 8.21289C17.5644 8.21289 17.6317 8.27731 17.6317 8.35854C17.6261 8.35574 17.6261 8.42577 17.6261 8.42577ZM13.1387 20.8543H11.4972V16.7003H13.1387V20.8543ZM8.6877 3.42857C8.6877 3.10084 8.9594 2.83193 9.28994 2.83193C9.62327 2.83193 9.89498 3.10084 9.89498 3.42857V7.37535H8.6877V3.42857ZM15.1919 2.83193C14.8614 2.83193 14.5897 3.10084 14.5897 3.42857L14.5925 7.37815H15.7969V3.42857C15.7969 3.10084 15.5252 2.83193 15.1919 2.83193Z" fill="#313235"/>
</svg>
