<svg width="24" height="24" viewBox="0 0 24 24" fill="none" xmlns="http://www.w3.org/2000/svg">
<path fill-rule="evenodd" clip-rule="evenodd" d="M8.82384 6.05907L9.50731 6.75375L9.34765 7.74255C9.26922 8.22994 9.4653 8.70893 9.86586 8.99465C10.0815 9.14591 10.328 9.22434 10.5801 9.22434C10.7818 9.22434 10.9863 9.17392 11.1712 9.07028L11.9863 8.6249L12.8042 9.07308C13.2132 9.29717 13.7286 9.26635 14.1096 8.99745C14.5073 8.71453 14.7062 8.23554 14.6278 7.74535L14.4653 6.75375L15.1488 6.05907C15.4877 5.71453 15.6026 5.21313 15.4513 4.75095C15.3 4.29717 14.9163 3.97224 14.4513 3.90221L13.5297 3.76495L13.1096 2.8798C12.8995 2.43442 12.4681 2.15991 11.9863 2.15991C11.5017 2.15991 11.0703 2.43722 10.8603 2.8798L10.4429 3.76215L9.52132 3.90221C9.05633 3.97224 8.67258 4.29717 8.52412 4.75095C8.37006 5.21313 8.4849 5.71453 8.82384 6.05907ZM13.3925 8.00025L13.3897 7.99745L12.3056 7.40081C12.2104 7.34479 12.0955 7.31397 11.9835 7.31397C11.8799 7.31397 11.7762 7.33918 11.6838 7.3896L10.5549 7.94423L10.765 6.66131C10.7986 6.46804 10.7286 6.24395 10.5913 6.10389L9.70339 5.1179L10.8995 4.93582C11.118 4.91621 11.3224 4.77056 11.4149 4.57448L12.0003 3.40641L12.5577 4.58848C12.6474 4.76776 12.8294 4.90221 13.0283 4.93302L14.272 5.19913L13.3953 6.08988C13.244 6.22994 13.1684 6.46243 13.202 6.66411L13.3953 7.99745C13.3953 8.00025 13.3925 8.00025 13.3925 8.00025ZM15.6922 20.5997H20.6194V17.4344H15.6922V20.5997ZM3.38686 20.5997V15.0563H8.31123V20.5997H3.38686ZM14.4653 12.0199H9.53812V14.7061C9.53812 14.7083 9.53831 14.7101 9.53858 14.7117C9.53884 14.7132 9.53918 14.7146 9.53953 14.7159C9.54023 14.7187 9.54093 14.7215 9.54093 14.7257V20.6193H14.4653V12.0199ZM3.2328 21.849H14.6222V21.8462H20.7734C21.4037 21.8462 21.8462 21.4988 21.8462 21.0283V17.003C21.8462 16.5409 21.3981 16.2047 20.7762 16.2047H15.695V11.8182C15.695 11.2692 15.1936 10.7902 14.6222 10.7902H9.38406C8.81544 10.7902 8.31403 11.272 8.31403 11.8182V13.8266H3.2328C2.7174 13.8266 2.15997 14.1711 2.15997 14.7257V20.9302C2.15997 21.426 2.64177 21.849 3.2328 21.849Z" fill="#313235"/>
</svg>
