<svg width="24" height="24" viewBox="0 0 24 24" fill="none" xmlns="http://www.w3.org/2000/svg">
<path fill-rule="evenodd" clip-rule="evenodd" d="M8.90507 5.73414L9.67818 6.51005L9.49891 7.61089C9.43168 8.02546 9.60255 8.42882 9.94429 8.66972C10.1236 8.79857 10.3364 8.86299 10.5493 8.86299C10.7202 8.86299 10.8939 8.82098 11.0535 8.73414L11.9863 8.22714L12.9191 8.73414C13.2664 8.92182 13.709 8.89661 14.0311 8.66972C14.3729 8.42882 14.5409 8.02546 14.4737 7.61089L14.2916 6.50725L15.0647 5.73134C15.3561 5.44002 15.4541 5.01705 15.3224 4.6277C15.1936 4.24395 14.8659 3.96944 14.4709 3.91061L13.4205 3.75375L12.9443 2.76495C12.7678 2.39241 12.3981 2.15991 11.9863 2.15991C11.5717 2.15991 11.2048 2.39521 11.0255 2.76776L10.5521 3.75655L9.50171 3.91341C9.10675 3.97504 8.77902 4.24675 8.65017 4.6305C8.51852 5.01986 8.61656 5.44283 8.90507 5.73414ZM9.49891 5.15711C9.42888 5.08708 9.40647 4.98624 9.44008 4.891C9.4681 4.80417 9.53812 4.74255 9.62496 4.73134L10.8575 4.54647C11.0059 4.53246 11.1488 4.43162 11.2132 4.29997L11.779 3.1235C11.8575 2.95543 12.1068 2.95543 12.188 3.1235L12.7566 4.30837C12.8154 4.42882 12.9443 4.52406 13.0787 4.54367L14.342 4.73134C14.4289 4.74255 14.4989 4.80697 14.5269 4.891C14.5577 4.98624 14.5353 5.08708 14.4681 5.15711L13.5661 6.06187C13.4625 6.15711 13.4093 6.31958 13.4317 6.45683L13.6474 7.74815C13.667 7.84899 13.6278 7.94423 13.5465 8.00025C13.4793 8.04507 13.3925 8.05067 13.3196 8.01145L12.2048 7.40921C12.1376 7.37 12.0619 7.35039 11.9835 7.35039C11.9135 7.35039 11.8406 7.3672 11.779 7.40081L10.6474 8.01145C10.5745 8.05347 10.4905 8.04787 10.4205 8.00025C10.3392 7.94423 10.3028 7.84899 10.3196 7.74815L10.5353 6.45683C10.5549 6.32518 10.5045 6.16832 10.4121 6.07308L9.49891 5.15711ZM21.0115 20.9806V17.3C20.9947 17.2972 20.9779 17.2972 20.9611 17.2972H15.611C15.5941 17.2972 15.5773 17.2972 15.5633 17.3V20.9806C15.57 20.9806 15.5773 20.9813 15.5849 20.9819L15.585 20.9819C15.5934 20.9827 15.6022 20.9834 15.611 20.9834H20.9611C20.9779 20.9834 20.9947 20.9834 21.0115 20.9806ZM14.6782 21.003H9.32804L9.28042 21.0002V20.5437L9.32804 11.7145L14.7286 11.7173L14.6782 21.003ZM3.04513 20.9834H8.39527C8.41207 20.9834 8.42888 20.9806 8.44289 20.9778V14.8518C8.42888 14.8462 8.41207 14.8434 8.39527 14.8434H3.04513C3.02832 14.8434 3.01151 14.8462 2.99751 14.8518V20.9806C3.00871 20.9834 3.02832 20.9834 3.04513 20.9834ZM3.04513 21.849H15.611V21.8434H20.9583C21.4793 21.8434 21.8462 21.5717 21.8462 21.2103V17.0619C21.8462 16.6585 21.4009 16.4484 20.9611 16.4484H15.611C15.604 16.4484 15.5955 16.4498 15.5871 16.4512C15.5787 16.4526 15.5703 16.454 15.5633 16.454V11.7145C15.5633 11.2636 15.1488 10.8658 14.6782 10.8658H9.32804C8.85745 10.8658 8.44289 11.2636 8.44289 11.7145V14.0058C8.4362 14.0058 8.42888 14.0039 8.42123 14.0019C8.41284 13.9997 8.40405 13.9974 8.39527 13.9974H3.04513C2.61656 13.9974 2.15997 14.286 2.15997 14.7145V21.1123C2.15997 21.5073 2.55773 21.849 3.04513 21.849Z" fill="#313235"/>
</svg>
