<svg width="24" height="24" viewBox="0 0 24 24" fill="none" xmlns="http://www.w3.org/2000/svg">
<path fill-rule="evenodd" clip-rule="evenodd" d="M10.9995 20.8434C8.19841 20.8434 6.01913 20.1095 4.52614 18.6641C2.97712 17.1655 2.19 14.9246 2.19 12.003C2.19 9.08148 2.97712 6.83778 4.52614 5.33918C6.01913 3.89381 8.19841 3.15991 10.9995 3.15991C13.8006 3.15991 15.9799 3.89381 17.4729 5.33918C19.0219 6.83778 19.809 9.08148 19.809 12.003C19.809 12.3112 19.5569 12.5633 19.2488 12.5633C18.9407 12.5633 18.6886 12.3112 18.6886 12.003C18.6886 9.39521 18.0163 7.42602 16.6942 6.14311C15.4169 4.90781 13.5009 4.28036 10.9995 4.28036C8.49813 4.28036 6.58216 4.90781 5.30485 6.14311C3.98272 7.42322 3.31045 9.39521 3.31045 12.003C3.31045 14.6109 3.98272 16.5801 5.30485 17.863C6.58216 19.0983 8.49813 19.7257 10.9995 19.7257C12.7222 19.7257 14.176 19.426 15.3217 18.8378C15.5962 18.6977 15.9351 18.8042 16.0752 19.0815C16.2152 19.356 16.1088 19.6949 15.8343 19.835C14.5261 20.5044 12.9015 20.8434 10.9995 20.8434ZM13.0359 5.42042H9.57656C9.27684 5.42042 8.98832 5.54086 8.77824 5.75375L6.60457 7.96103C6.39728 8.17112 6.28244 8.45403 6.28244 8.74815V15.9862C6.28244 16.7201 6.57376 17.1823 6.81745 17.4428C7.08076 17.7201 7.55695 18.0535 8.34686 18.0535H13.0387C13.8259 18.0535 14.3048 17.7229 14.5682 17.4428C14.8119 17.1823 15.1032 16.7201 15.1032 15.9862V7.48484C15.1032 6.75095 14.8119 6.28596 14.5682 6.02826C14.302 5.75095 13.8259 5.42042 13.0359 5.42042ZM13.0359 6.54086C13.6802 6.54086 13.9799 6.91341 13.9799 7.48764V15.989C13.9799 16.5633 13.6802 16.9358 13.0359 16.9358H8.34687C7.70261 16.9358 7.40289 16.5633 7.40289 15.989V8.74815L9.57656 6.54086H13.0359ZM12.8567 15.8406H8.48692C8.33286 15.8406 8.20681 15.7145 8.20681 15.5605V13.9246V12.2804V10.6165C8.20681 10.4624 8.33286 10.3364 8.48692 10.3364H12.8567C13.0107 10.3364 13.1368 10.4624 13.1368 10.6165V12.2804V13.9246V15.5605C13.1368 15.7145 13.0107 15.8406 12.8567 15.8406ZM12.5766 13.6445V12.5605H11.3945H9.9379H8.76703V13.6445H9.9379H11.3945H12.5766ZM11.6746 14.2047H12.5766V15.2804H11.6746V14.2047ZM11.1144 14.2047V15.2804H10.218V14.2047H11.1144ZM9.65779 14.2047H8.76703V15.2804H9.65779V14.2047ZM8.76703 12.0002H9.65779V10.8966H8.76703V12.0002ZM10.218 12.0002V10.8966H11.1144V12.0002H10.218ZM11.6746 12.0002H12.5766V10.8966H11.6746V12.0002ZM19.078 14.9414C18.7334 14.9414 18.3917 14.7818 18.0752 14.4652C17.8594 14.2495 17.4697 13.7974 16.8309 13.0566L16.8309 13.0565L16.8308 13.0564L16.7558 12.9694L16.4113 12.5689C16.2096 12.3336 16.2348 11.9806 16.4701 11.779C16.7054 11.5773 17.0583 11.6025 17.26 11.8378L17.6046 12.2383C18.0463 12.7511 18.3853 13.1441 18.6171 13.4027C18.6645 12.9571 18.6886 12.4881 18.6886 12.0002C18.6886 11.6921 18.9407 11.44 19.2488 11.44C19.5569 11.44 19.8091 11.6921 19.8091 12.0002C19.8091 12.4003 19.7942 12.7891 19.7647 13.1649C19.8679 13.0464 19.9742 12.9222 20.0797 12.7989L20.0797 12.7989L20.1088 12.765L20.1346 12.7346L20.1348 12.7345L20.1348 12.7344C20.4207 12.3995 20.7129 12.0572 20.9603 11.8098C21.1788 11.5913 21.5345 11.5913 21.753 11.8098C21.9715 12.0283 21.9715 12.384 21.753 12.6025C21.5289 12.8266 21.2404 13.1655 20.9631 13.4932L20.8954 13.5726C20.6201 13.8948 20.3413 14.2213 20.1032 14.4568C19.7754 14.779 19.4253 14.9414 19.078 14.9414Z" fill="#313235"/>
</svg>
