<svg width="24" height="24" viewBox="0 0 24 24" fill="none" xmlns="http://www.w3.org/2000/svg">
<path fill-rule="evenodd" clip-rule="evenodd" d="M10.9995 20.8434C8.19834 20.8434 6.01907 20.1095 4.52607 18.6641C2.97706 17.1655 2.18994 14.9246 2.18994 12.003C2.18994 9.08147 2.97706 6.83778 4.52607 5.33918C6.01907 3.8938 8.19834 3.15991 10.9995 3.15991C13.8006 3.15991 15.9798 3.8938 17.4728 5.33918C19.0216 6.83754 19.8087 9.08075 19.809 12.0016C19.809 12.0021 19.809 12.0026 19.809 12.003M10.9995 20.8434C12.9014 20.8434 14.5261 20.5044 15.8342 19.835L10.9995 20.8434ZM15.8342 19.835C16.1087 19.6949 16.2151 19.356 16.0751 19.0815L15.8342 19.835ZM16.0751 19.0815C15.935 18.8041 15.5961 18.6977 15.3216 18.8378L16.0751 19.0815ZM15.3216 18.8378C14.1759 19.426 12.7221 19.7257 10.9995 19.7257L15.3216 18.8378ZM10.9995 19.7257C8.49806 19.7257 6.58209 19.0983 5.30478 17.863L10.9995 19.7257ZM5.30478 17.863C3.98266 16.5801 3.31039 14.6109 3.31039 12.003L5.30478 17.863ZM3.31039 12.003C3.31039 9.3952 3.98266 7.42321 5.30478 6.1431L3.31039 12.003ZM5.30478 6.1431C6.58209 4.90781 8.49806 4.28036 10.9995 4.28036L5.30478 6.1431ZM10.9995 4.28036C13.5008 4.28036 15.4168 4.90781 16.6941 6.1431L10.9995 4.28036ZM16.6941 6.1431C18.0162 7.42601 18.6885 9.3952 18.6885 12.003L16.6941 6.1431ZM18.6885 12.003C18.6885 12.3112 18.9406 12.5633 19.2487 12.5633L18.6885 12.003ZM19.2487 12.5633C19.5566 12.5633 19.8086 12.3115 19.809 12.0037L19.2487 12.5633ZM19.0779 14.9414C18.7333 14.9414 18.3916 14.7817 18.0751 14.4652C17.8593 14.2494 17.4695 13.7973 16.8307 13.0564L16.8307 13.0564L16.7557 12.9694L16.4112 12.5689C16.2095 12.3336 16.2347 11.9806 16.47 11.7789C16.7053 11.5773 17.0583 11.6025 17.2599 11.8378L17.6045 12.2383C18.0462 12.7511 18.3852 13.144 18.617 13.4027C18.6645 12.957 18.6885 12.488 18.6885 12.0002C18.6885 11.6921 18.9406 11.44 19.2487 11.44C19.5569 11.44 19.809 11.6921 19.809 12.0002C19.809 12.0007 19.809 12.0012 19.809 12.0016M19.7646 13.1649C19.8678 13.0464 19.9741 12.9222 20.0795 12.799L20.0797 12.7988L20.1087 12.7649L20.1346 12.7346C20.4205 12.3996 20.7128 12.0572 20.9602 11.8098C21.1787 11.5913 21.5345 11.5913 21.7529 11.8098C21.9714 12.0282 21.9714 12.384 21.7529 12.6025C21.5288 12.8266 21.2403 13.1655 20.963 13.4932L20.8952 13.5726C20.62 13.8949 20.3412 14.2213 20.1031 14.4568C19.7754 14.7789 19.4252 14.9414 19.0779 14.9414M19.809 12.0037C19.8089 12.4025 19.794 12.7901 19.7646 13.1649L19.809 12.0037ZM13.0359 5.41761C13.8258 5.41761 14.302 5.75094 14.5653 6.02826C14.809 6.28876 15.1003 6.75094 15.1031 7.48484V15.9834C15.1031 16.7173 14.8118 17.1795 14.5681 17.44C14.3048 17.7201 13.8258 18.0506 13.0387 18.0506H8.3468C7.55688 18.0506 7.08069 17.7173 6.81739 17.44C6.57369 17.1795 6.28237 16.7173 6.28237 15.9834V8.74534C6.28237 8.45122 6.39722 8.16831 6.6045 7.95822L8.77817 5.75094C8.98825 5.53806 9.27677 5.41761 9.57649 5.41761H13.0359ZM8.76696 13.6445V12.5605H12.5765V13.6445H8.76696ZM11.6773 12.0002H12.5765V10.8966H11.6773V12.0002ZM11.1143 12.0002H10.2179V10.8966H11.1143V12.0002ZM8.76416 12.0002H9.65772V10.8966H8.76416V12.0002ZM8.76696 14.2047H9.66052V15.2803H8.76696V14.2047ZM11.1143 14.2047H10.2179V15.2803H11.1143V14.2047ZM11.6745 14.2047H12.5737V15.2803H11.6745V14.2047Z" fill="#313235"/>
</svg>
