<svg width="24" height="24" viewBox="0 0 24 24" fill="none" xmlns="http://www.w3.org/2000/svg">
<path fill-rule="evenodd" clip-rule="evenodd" d="M12.0003 2.15991C18.4429 2.15991 21.8463 5.56607 21.8463 12.0059C21.8463 18.4428 18.4429 21.8462 12.0003 21.8462C5.56336 21.8462 2.16 18.4428 2.16 12.0059C2.16 5.56607 5.56336 2.15991 12.0003 2.15991ZM12.0003 21.0255C17.9891 21.0255 21.0227 17.9918 21.0227 12.0059C21.0227 6.01706 17.9863 2.98344 12.0003 2.98344C6.01435 2.98344 2.98073 6.01706 2.98073 12.0059C2.98073 17.989 6.01715 21.0255 12.0003 21.0255ZM15.1208 17.1459C15.1208 17.0339 15.0284 16.9414 14.9163 16.9414V16.9386H9.60538C10.6642 15.9358 11.034 15.1459 11.034 13.989C11.034 13.4148 10.9471 12.8182 10.7678 12.2103H13.188C13.3001 12.2103 13.3925 12.1179 13.3925 12.0058V11.5969C13.3925 11.4848 13.3001 11.3924 13.188 11.3924H10.5101C10.3113 10.7594 10.1236 10.0255 10.1236 9.28876C10.1236 7.68652 10.9947 6.90781 12.7819 6.90781C13.3281 6.90781 14.0199 6.98064 14.7286 7.11509C14.7903 7.1235 14.8519 7.10949 14.8995 7.07028C14.9443 7.03106 14.9723 6.97504 14.9723 6.91341V6.53806C14.9723 6.44843 14.9135 6.37 14.8295 6.34199C14.1096 6.1179 13.188 6.03946 12.6194 6.03946C10.4205 6.03946 9.21042 7.19913 9.21042 9.30277C9.21042 10.1151 9.3981 10.8882 9.58858 11.4596L8.653 11.5241C8.54376 11.5325 8.46252 11.6193 8.46252 11.7285V12.0058C8.46252 12.1179 8.55496 12.2103 8.66701 12.2103H9.83507C10.0424 12.8686 10.1376 13.4176 10.1376 13.975C10.1376 14.7678 9.94992 15.4428 9.01154 16.3476C8.55496 16.7902 8.36449 16.975 8.36449 17.342C8.36168 17.4568 8.38409 17.5717 8.43451 17.6781C8.47093 17.7481 8.54096 17.7902 8.61939 17.7902H14.9163C15.0284 17.7902 15.1208 17.6977 15.1208 17.5857V17.1459Z" fill="#313235"/>
</svg>
