<svg width="24" height="24" viewBox="0 0 24 24" fill="none" xmlns="http://www.w3.org/2000/svg">
<path fill-rule="evenodd" clip-rule="evenodd" d="M2.15002 11.9902C2.15002 18.4272 5.55339 21.8278 11.9876 21.8278C18.4273 21.8278 21.8307 18.4244 21.8279 11.9902C21.8279 8.72973 20.9511 6.23113 19.2257 4.56727C17.5618 2.96223 15.1276 2.1499 11.9876 2.1499C5.55058 2.1499 2.15002 5.55326 2.15002 11.9902ZM2.71025 11.9902C2.71025 5.83338 5.8335 2.71013 11.9876 2.71013C18.1472 2.71013 21.2705 5.83057 21.2677 11.9902C21.2677 18.1471 18.1472 21.2675 11.9876 21.2675C5.8307 21.2675 2.71025 18.1443 2.71025 11.9902ZM11.9904 18.0323C10.0688 18.0323 8.57299 17.5309 7.55058 16.5449C6.48896 15.5197 5.94834 13.9874 5.94834 11.9902C5.94834 10.3264 6.32369 8.97903 7.06319 7.98464C7.78868 7.01265 8.85591 6.37959 10.2425 6.10508C10.3937 6.07427 10.5422 6.17231 10.573 6.32637C10.6038 6.47763 10.5058 6.62609 10.3517 6.65691C7.80269 7.16391 6.50857 8.95943 6.50857 11.993C6.50857 15.6317 8.35171 17.4748 11.9904 17.4748C15.629 17.4748 17.475 15.6317 17.475 11.993C17.475 8.92021 16.1444 7.11629 13.5254 6.6373C13.3741 6.60929 13.2733 6.46363 13.3013 6.31237C13.3293 6.16111 13.475 6.06027 13.6262 6.08828C15.0464 6.34878 16.1444 6.97343 16.8895 7.94822C17.6514 8.94542 18.038 10.3068 18.038 11.9958C18.038 13.993 17.4974 15.5253 16.4357 16.5505C15.4077 17.5309 13.9119 18.0323 11.9904 18.0323ZM11.7102 8.95662C11.7102 9.11069 11.8363 9.23674 11.9904 9.23674C12.1444 9.23674 12.2705 9.11069 12.2705 8.95662V4.85859C12.2705 4.70452 12.1444 4.57847 11.9904 4.57847C11.8363 4.57847 11.7102 4.70452 11.7102 4.85859V8.95662Z" fill="#313235"/>
</svg>
