<svg width="24" height="24" viewBox="0 0 24 24" fill="none" xmlns="http://www.w3.org/2000/svg">
<path fill-rule="evenodd" clip-rule="evenodd" d="M12.0504 21.5546C12.1541 21.6499 12.2913 21.7031 12.4314 21.7031C12.5714 21.7031 12.7059 21.6499 12.8095 21.5546L19.9132 14.9972C20.0308 14.8908 20.0952 14.7395 20.0952 14.5826C20.0924 14.2745 19.8403 14.0252 19.5322 14.0252H16.8151V3.38655C16.8151 2.53221 16.2829 2 15.4286 2H9.42017C8.57423 2 8.04762 2.53221 8.04762 3.38655V3.64339C6.75642 3.73223 5.73082 4.13653 4.9916 4.84874C4.11485 5.69468 3.67227 6.94398 3.67227 8.56303C3.67227 10.1821 4.11485 11.4286 4.9916 12.2745C5.73082 12.9867 6.75642 13.391 8.04762 13.4799V14.0252H5.33053C5.17367 14.0252 5.02521 14.0896 4.91877 14.2045C4.70869 14.4342 4.72269 14.7871 4.94958 14.9972L12.0504 21.5546ZM9.16807 13.4798C10.4575 13.3908 11.485 12.9862 12.2241 12.2717C13.098 11.4286 13.5434 10.1793 13.5434 8.56022C13.5434 6.94118 13.1008 5.69188 12.2241 4.84874C11.4849 4.13653 10.4593 3.73223 9.16807 3.64339V3.38655C9.16807 3.23529 9.19888 3.17087 9.21009 3.15966C9.22129 3.14846 9.28011 3.12045 9.42017 3.12045H15.4286C15.5686 3.12045 15.6331 3.14846 15.6499 3.16527C15.6667 3.18207 15.6947 3.2465 15.6947 3.38655V14.5826C15.6947 14.8908 15.9468 15.1429 16.2549 15.1429H18.1008L12.4314 20.3782L6.76191 15.1429H8.60785C8.91597 15.1429 9.16807 14.8908 9.16807 14.5826V13.4798ZM8.60785 4.7451C6.04202 4.7451 4.79272 5.9944 4.79272 8.56303C4.79272 11.1317 6.04202 12.381 8.60785 12.381C11.1737 12.381 12.423 11.1317 12.423 8.56303C12.423 5.9944 11.1737 4.7451 8.60785 4.7451ZM6.89356 10.7339C7.30083 11.0142 7.76956 11.1838 8.25771 11.2306V11.507C8.25771 11.7003 8.41457 11.8571 8.60785 11.8571C8.80112 11.8571 8.95799 11.7003 8.95799 11.5098V11.2108C9.34723 11.1512 9.67631 11.0115 9.92437 10.7983C10.2549 10.5098 10.4314 10.1064 10.4314 9.62745C10.4314 9.04841 10.17 8.33084 8.95799 8.13119V6.68105C9.13849 6.72322 9.31725 6.79354 9.5014 6.89356L9.50701 6.89636C9.57983 6.93557 9.66107 6.95798 9.7451 6.96078C9.96919 6.96078 10.1485 6.77871 10.1485 6.55742C10.1485 6.47059 10.1177 6.30532 9.91317 6.17927C9.6435 6.0138 9.31424 5.90196 8.95799 5.85354V5.56583C8.95799 5.37255 8.80112 5.21569 8.60785 5.21569C8.41457 5.21569 8.25771 5.37255 8.25771 5.56583V5.84345C7.37611 5.94922 6.82073 6.53776 6.82073 7.40056C6.82073 7.96708 7.07535 8.67391 8.25771 8.87295V10.4112C7.96621 10.3612 7.67281 10.2387 7.38096 10.0448C7.30252 9.9916 7.21009 9.96358 7.11485 9.96078C6.88516 9.95798 6.70028 10.1401 6.69748 10.3697C6.69748 10.521 6.76191 10.6415 6.89356 10.7339ZM9.60504 9.65546C9.60504 10.0276 9.3644 10.2911 8.95799 10.3918V8.98183C9.51936 9.12132 9.60504 9.38533 9.60504 9.65546ZM8.25771 6.65951V8.0175C7.64706 7.85242 7.64706 7.53048 7.64706 7.36415C7.64706 6.99024 7.87061 6.73844 8.25771 6.65951Z" fill="#313235"/>
</svg>
