<svg width="24" height="24" viewBox="0 0 24 24" fill="none" xmlns="http://www.w3.org/2000/svg">
<path fill-rule="evenodd" clip-rule="evenodd" d="M20.0476 14.381C19.9636 14.1653 19.7563 14.0252 19.5266 14.0252H16.8095V3.38655C16.8095 2.53221 16.2773 2 15.423 2H9.41457C8.56863 2 8.04202 2.53221 8.04202 3.38655V3.64426C6.75071 3.73389 5.7255 4.13725 4.986 4.85154C4.10925 5.69468 3.66667 6.94398 3.66667 8.56302C3.66667 10.1821 4.10925 11.4286 4.986 12.2745C5.7255 12.986 6.75071 13.3922 8.04202 13.4818V14.0252H5.32494C5.01681 14.0252 4.76471 14.2745 4.76471 14.5854C4.76471 14.7423 4.82914 14.8936 4.94678 15L12.0476 21.5574C12.2633 21.7563 12.5938 21.7563 12.8067 21.5574L19.9048 14.9972C20.0756 14.8403 20.1317 14.5966 20.0476 14.381ZM4.78712 8.56303C4.78712 5.9944 6.03362 4.7451 8.60225 4.7451C11.1709 4.7451 12.4174 5.9944 12.4174 8.56303C12.4174 11.1317 11.1681 12.3782 8.60225 12.3782C6.03642 12.3782 4.78712 11.1317 4.78712 8.56303ZM8.60225 11.8571C8.40897 11.8571 8.25211 11.7003 8.25211 11.507V11.2306C7.76396 11.1838 7.29523 11.0142 6.88796 10.7339C6.75631 10.6415 6.69188 10.521 6.69188 10.3697C6.69468 10.1401 6.87956 9.95798 7.10925 9.96078C7.20449 9.96358 7.29692 9.9916 7.37536 10.0448C7.66721 10.2387 7.96061 10.3612 8.25211 10.4112V8.87295C7.06975 8.67391 6.81513 7.96708 6.81513 7.40056C6.81513 6.53776 7.37051 5.94922 8.25211 5.84345V5.56583C8.25211 5.37255 8.40897 5.21569 8.60225 5.21569C8.79552 5.21569 8.95239 5.37255 8.95239 5.56583V5.85354C9.30864 5.90196 9.6379 6.0138 9.90757 6.17927C10.1121 6.30532 10.1429 6.47059 10.1429 6.55742C10.1429 6.77871 9.96359 6.96078 9.7395 6.96078C9.65547 6.95798 9.57423 6.93557 9.50141 6.89636L9.4958 6.89356C9.31165 6.79354 9.13289 6.72322 8.95239 6.68105V8.13119C10.1644 8.33084 10.4258 9.04841 10.4258 9.62745C10.4258 10.1064 10.2493 10.5098 9.91877 10.7983C9.67071 11.0115 9.34163 11.1512 8.95239 11.2108V11.5098C8.95239 11.7003 8.79552 11.8571 8.60225 11.8571ZM9.59944 9.65546C9.59944 10.0276 9.3588 10.2911 8.95239 10.3918V8.98183C9.51376 9.12132 9.59944 9.38533 9.59944 9.65546ZM8.25211 6.65951V8.0175C7.64146 7.85242 7.64146 7.53048 7.64146 7.36415C7.64146 6.99024 7.86501 6.73844 8.25211 6.65951Z" fill="#313235"/>
</svg>
