<svg width="24" height="24" viewBox="0 0 24 24" fill="none" xmlns="http://www.w3.org/2000/svg">
<path fill-rule="evenodd" clip-rule="evenodd" d="M2.16 12.0058C2.16 5.56327 5.56336 2.15991 12.0003 2.15991C18.4429 2.15991 21.8463 5.56327 21.8463 12.0058C21.8463 18.4428 18.4401 21.8462 12.0003 21.8462C5.56336 21.8462 2.16 18.4428 2.16 12.0058ZM12.6502 7.83217C12.6502 8.16551 12.3813 8.43721 12.0451 8.43721C11.709 8.43721 11.4401 8.16831 11.4401 7.83217V4.80697C11.4401 4.47363 11.709 4.20193 12.0451 4.20193C12.3813 4.20193 12.6502 4.47083 12.6502 4.80697V7.83217ZM16.1768 12.6501H19.1992C19.5325 12.6501 19.8042 12.3812 19.8042 12.0451C19.8042 11.7089 19.5325 11.44 19.1992 11.44H16.1768C15.8407 11.44 15.5717 11.7089 15.5717 12.0451C15.5717 12.3812 15.8435 12.6501 16.1768 12.6501ZM16.6362 17.552C16.8715 17.7873 17.2524 17.7845 17.4877 17.5492C17.7258 17.3112 17.7258 16.9302 17.4877 16.6921L15.3505 14.5549C15.1152 14.3196 14.7314 14.3196 14.4961 14.5549C14.2608 14.7901 14.2608 15.1739 14.4961 15.4092L16.6334 17.5492L16.6362 17.552ZM11.9611 19.8041C12.2972 19.8041 12.5662 19.5324 12.5662 19.1991V16.1739C12.5662 15.8378 12.2972 15.5689 11.9611 15.5689C11.625 15.5689 11.3561 15.8406 11.3561 16.1739V19.1991C11.3561 19.5352 11.625 19.8041 11.9611 19.8041ZM9.44851 15.3504L7.31126 17.4904C7.07596 17.7257 6.69221 17.7257 6.45692 17.4904C6.22162 17.2551 6.22162 16.8714 6.45692 16.6361L8.59417 14.4988C8.83506 14.2691 9.21882 14.2803 9.44851 14.5212C9.6698 14.7509 9.6698 15.1179 9.44851 15.3504ZM4.80706 11.356C4.47373 11.356 4.20202 11.6277 4.20202 11.961C4.20202 12.2944 4.47373 12.5661 4.80706 12.5661H7.83226C8.1684 12.5661 8.43731 12.2972 8.43731 11.961C8.43731 11.6249 8.1656 11.356 7.83226 11.356H4.80706ZM14.5577 8.6557L16.695 6.51845C16.9303 6.28316 17.3112 6.28316 17.5493 6.51845C17.7874 6.75374 17.7846 7.1347 17.5493 7.37279L15.4093 9.51004C15.174 9.74534 14.793 9.74534 14.5549 9.51004C14.3225 9.27475 14.3225 8.8938 14.5577 8.6557Z" fill="#313235"/>
</svg>
