<svg width="24" height="24" viewBox="0 0 24 24" fill="none" xmlns="http://www.w3.org/2000/svg">
<path fill-rule="evenodd" clip-rule="evenodd" d="M12.0031 2.15991C18.4177 2.15991 21.8463 5.55487 21.8463 12.003C21.8463 18.4512 18.4513 21.8462 12.0031 21.8462C5.55496 21.8462 2.16 18.4512 2.16 12.003C2.16 5.55487 5.55496 2.15991 12.0031 2.15991ZM12.0031 21.0255C17.9667 21.0255 21.0256 17.9918 21.0256 12.003C21.0256 6.01425 18.0003 2.98064 12.0031 2.98064C6.00594 2.98064 2.98073 6.03946 2.98073 12.003C2.98073 17.9666 6.00594 21.0255 12.0031 21.0255ZM12.4121 4.6221C12.3953 4.40641 12.2188 4.24395 12.0031 4.24395C11.7762 4.24395 11.5942 4.42602 11.5942 4.65291V7.73974C11.5942 7.96383 11.7762 8.14871 12.0031 8.14871C12.2272 8.14591 12.4065 7.96383 12.4121 7.73974V4.6221ZM8.1488 11.947C8.1488 12.1739 7.96393 12.356 7.73984 12.356H4.61939C4.3925 12.356 4.21042 12.1711 4.21042 11.947C4.21042 11.7201 4.3953 11.5381 4.61939 11.5381H7.73703C7.96393 11.5353 8.1488 11.7201 8.1488 11.947ZM9.23563 14.7061C9.08437 14.5381 8.82387 14.5269 8.6558 14.6781C8.6558 14.6781 6.48213 16.8602 6.48493 16.8602C6.4121 16.933 6.37009 17.0339 6.36729 17.1403C6.36449 17.3644 6.54376 17.5521 6.77065 17.5549C6.8883 17.5633 7.00314 17.5185 7.08157 17.4316L9.23843 15.2832L9.25524 15.2664C9.4037 15.1067 9.3981 14.8574 9.23843 14.7089L9.23563 14.7061ZM11.9471 15.835C12.174 15.835 12.3561 16.0199 12.3561 16.2439V19.3196C12.3561 19.5465 12.1712 19.7285 11.9471 19.7285C11.7202 19.7285 11.5382 19.5437 11.5382 19.3196V16.2439C11.5354 16.0171 11.7202 15.835 11.9471 15.835ZM17.4653 16.9162L15.2833 14.7341C15.1236 14.5773 14.8687 14.5773 14.709 14.7341L14.7062 14.7369C14.5466 14.8966 14.5494 15.1571 14.709 15.3168L16.8939 17.4988C16.9695 17.5745 17.0732 17.6137 17.1796 17.6137C17.2861 17.6137 17.3869 17.5717 17.4653 17.4988L17.4681 17.496C17.6278 17.3364 17.625 17.0759 17.4653 16.9162ZM19.3197 11.6249C19.5466 11.6249 19.7286 11.8098 19.7286 12.0339C19.7286 12.2608 19.5438 12.4428 19.3197 12.4428H16.244C16.0171 12.4428 15.8351 12.258 15.8351 12.0339C15.8351 11.807 16.0199 11.6249 16.244 11.6249H19.3197ZM14.737 9.30557C14.8155 9.3784 14.9219 9.42042 15.0312 9.42042C15.1236 9.40921 15.2132 9.37 15.2861 9.30557L17.5017 7.1235C17.6334 6.96944 17.6362 6.74255 17.5045 6.58848C17.3589 6.41761 17.1012 6.39521 16.9275 6.54086L14.737 8.72294C14.5802 8.8854 14.5802 9.14311 14.737 9.30557Z" fill="#313235"/>
</svg>
