<svg width="24" height="24" viewBox="0 0 24 24" fill="none" xmlns="http://www.w3.org/2000/svg">
<path fill-rule="evenodd" clip-rule="evenodd" d="M21.695 18.1589C21.8687 18.299 21.8967 18.5567 21.7566 18.7304C21.681 18.8256 21.5633 18.8816 21.4429 18.8816H15.9639C15.9555 19.3914 15.849 20.3018 15.244 20.9853C14.737 21.5595 14.0003 21.8452 13.0703 21.8452C12.1376 21.8452 11.4009 21.5595 10.8939 20.9853C10.2804 20.2962 10.1824 19.383 10.1824 18.8844H4.70339C4.4793 18.8844 4.29723 18.7024 4.29723 18.4783C4.29723 18.355 4.35325 18.2374 4.44849 18.1617C4.89107 17.792 5.26642 17.3074 5.56053 16.7248C3.38966 16.0833 2.15997 14.3578 2.15997 11.4166C2.15997 7.92084 3.89667 6.13092 6.88826 5.85922C8.40087 2.03288 12.7006 2.15053 13.0675 2.16734C13.3224 2.15053 15.9779 2.03569 17.8995 3.8256C19.1432 4.99367 19.779 6.69115 19.779 8.86762V12.7528C19.7734 12.8144 19.5829 16.4194 21.695 18.1589ZM5.68378 18.0609H20.4569C18.7818 15.9657 18.9527 12.8704 18.9611 12.7248V8.86482C18.9611 6.92644 18.4149 5.43344 17.342 4.43064C15.6334 2.8312 13.1236 2.97966 13.0983 2.98807C13.0941 2.98807 13.0899 2.98597 13.0857 2.98386C13.0815 2.98176 13.0773 2.97966 13.0731 2.97966C13.0633 2.97966 13.0563 2.98255 13.0506 2.98494C13.0465 2.98662 13.043 2.98807 13.0395 2.98807C12.8743 2.97126 9.26081 2.77518 7.79863 5.82C11.272 5.84521 13.3084 7.62672 13.3084 11.4194C13.3084 15.2318 11.2496 17.0133 7.7342 17.0133C7.25241 17.0133 6.80143 16.9797 6.37566 16.9068C6.18238 17.3298 5.95549 17.7248 5.68378 18.0609ZM14.6306 20.4418C15.0647 19.9573 15.1376 19.2682 15.146 18.8844H11.0003C11.0003 19.271 11.0731 19.9601 11.5073 20.4418C11.8518 20.8284 12.3813 21.0245 13.0703 21.0245C13.7622 21.0245 14.286 20.8284 14.6306 20.4418ZM7.737 16.1869C4.53812 16.1869 2.9779 14.6267 2.9779 11.4166C2.9779 8.19815 4.54093 6.64073 7.737 6.64073C10.9331 6.64073 12.4961 8.20095 12.4961 11.4166C12.4961 14.6267 10.9359 16.1869 7.737 16.1869ZM9.45409 13.7024C9.56053 13.7024 9.65857 13.6603 9.73981 13.5791C9.90507 13.4194 9.90507 13.1589 9.73981 13.0077L8.14597 11.4054V9.23737C8.14597 9.00767 7.9667 8.8284 7.737 8.8284C7.50731 8.8284 7.32804 9.00767 7.32804 9.23737V11.5707C7.32804 11.6799 7.37286 11.7864 7.45129 11.8648L9.15997 13.5791C9.2384 13.6575 9.34485 13.7024 9.45409 13.7024Z" fill="#313235"/>
</svg>
