<svg width="24" height="24" viewBox="0 0 24 24" fill="none" xmlns="http://www.w3.org/2000/svg">
<path fill-rule="evenodd" clip-rule="evenodd" d="M21.6165 17.871C21.8182 18.0307 21.891 18.2968 21.8014 18.5377C21.7202 18.7786 21.4961 18.941 21.2356 18.941H16.0087C15.9751 19.4901 15.8238 20.2996 15.2496 20.9354C14.7146 21.5377 13.9387 21.843 12.9527 21.843C11.9639 21.843 11.188 21.5377 10.653 20.9354C10.0787 20.2996 9.93307 19.4873 9.90226 18.941H4.67538C4.41767 18.941 4.19078 18.7814 4.10675 18.5377C4.01991 18.2968 4.09274 18.0307 4.29442 17.871C4.70619 17.5321 5.04792 17.0923 5.33084 16.5685C3.30003 15.9018 2.15997 14.2212 2.15997 11.4228C2.15997 8.09511 3.77902 6.35002 6.60254 6.01108C8.10954 2.0531 12.5269 2.14274 12.9555 2.16795C13.3196 2.14274 15.9583 2.07271 17.8742 3.84862C19.1515 5.03069 19.8014 6.73657 19.8014 8.92984V12.7338C19.7874 12.8038 19.6109 16.238 21.6165 17.871ZM3.36725 11.42C3.36725 14.3388 4.737 15.6973 7.67257 15.6973C10.6081 15.6973 11.9779 14.3388 11.9779 11.42C11.9779 8.50127 10.6081 7.14273 7.67257 7.14273C4.737 7.14273 3.36725 8.50127 3.36725 11.42ZM8.94148 13.6861C9.05912 13.8038 9.21599 13.8626 9.37005 13.8626C9.52691 13.8626 9.68097 13.8038 9.80142 13.6861C10.0395 13.4508 10.0395 13.0699 9.80142 12.8346L8.28041 11.3248V9.29119C8.28041 8.95786 8.0087 8.68895 7.67257 8.68895C7.33644 8.68895 7.06473 8.95786 7.06473 9.29119V11.5741C7.06473 11.7338 7.12915 11.8878 7.244 11.9999L8.94148 13.6861Z" fill="#313235"/>
</svg>
