<svg width="24" height="24" viewBox="0 0 24 24" fill="none" xmlns="http://www.w3.org/2000/svg">
<path fill-rule="evenodd" clip-rule="evenodd" d="M21.6222 17.874C21.8238 18.0336 21.8967 18.2997 21.807 18.5406C21.7258 18.7843 21.4961 18.944 21.2412 18.9412H16.0143C15.9807 19.4902 15.8294 20.3025 15.2552 20.9356C14.7202 21.5378 13.9443 21.8432 12.9555 21.8432C11.9667 21.8432 11.1908 21.5378 10.6558 20.9356C10.0815 20.2997 9.93588 19.4874 9.90227 18.9412H4.67818C4.42328 18.944 4.19359 18.7815 4.11235 18.5406C4.02272 18.2997 4.09835 18.0308 4.30003 17.874C4.71179 17.535 5.05353 17.0953 5.33364 16.5715C3.30003 15.902 2.15997 14.2213 2.15997 11.423C2.15997 8.09527 3.77902 6.35017 6.60255 6.01123C8.10955 2.05325 12.5269 2.14288 12.9555 2.16809C13.3196 2.14288 15.9583 2.07006 17.8743 3.84877C19.1544 5.03084 19.8014 6.73672 19.8014 8.93V12.7339C19.7958 12.8068 19.6166 16.2409 21.6222 17.874ZM6.04513 17.7367H19.8743C18.4261 15.6443 18.5801 12.8404 18.5885 12.6947V8.93C18.5885 7.08966 18.0703 5.6807 17.0507 4.73112C15.5455 3.33269 13.3624 3.36025 13.0426 3.36429C13.0184 3.36459 13.0049 3.36476 13.0031 3.36417C12.991 3.37022 12.9789 3.36757 12.97 3.3656C12.9665 3.36484 12.9635 3.36417 12.9611 3.36417C12.9554 3.36417 12.95 3.36514 12.9447 3.36609C12.9344 3.36794 12.9246 3.36972 12.9135 3.36417C12.7678 3.35577 9.37566 3.1709 7.96109 5.95521C11.272 6.04204 13.1964 7.79555 13.1964 11.423C13.1964 15.1625 11.1572 16.9076 7.67538 16.9076C7.27762 16.9076 6.90507 16.8768 6.55213 16.8348C6.40927 17.1485 6.2384 17.451 6.04513 17.7367ZM14.3476 20.1345C14.6698 19.7787 14.7678 19.2969 14.7986 18.944H11.118C11.1432 19.2969 11.2384 19.7815 11.5633 20.1429C11.8715 20.4734 12.3252 20.6415 12.9555 20.6415C13.5857 20.6387 14.0395 20.4706 14.3476 20.1345ZM7.67818 15.7003C4.74261 15.7003 3.37286 14.3418 3.37286 11.423C3.37286 8.50423 4.74261 7.14569 7.67818 7.14569C10.6166 7.14569 11.9863 8.50423 11.9835 11.423C11.9835 14.3418 10.6138 15.7003 7.67818 15.7003ZM7.24961 12L8.94709 13.6863C8.95148 13.6907 8.95616 13.6954 8.96112 13.7004C9.08552 13.8253 9.38185 14.123 9.67818 14.1149C10.0115 14.1065 10.3028 13.9468 10.3028 13.5659C10.3028 13.2325 9.80703 12.832 9.80703 12.832L8.28602 11.3222V9.28854C8.28602 8.95521 8.01151 8.6863 7.67818 8.6863C7.34205 8.6863 7.07034 8.95521 7.07034 9.28854V11.5743C7.07034 11.7339 7.13476 11.888 7.24961 12Z" fill="#313235"/>
</svg>
