<svg width="24" height="24" viewBox="0 0 24 24" fill="none" xmlns="http://www.w3.org/2000/svg">
<path fill-rule="evenodd" clip-rule="evenodd" d="M16.8294 7.29166H20.5661C21.2776 7.29166 21.8462 7.86589 21.8462 8.58297V20.555C21.8462 21.2749 21.2748 21.8463 20.5633 21.8463H3.44009C2.737 21.8463 2.15997 21.2749 2.15997 20.555V8.58297C2.15997 7.86589 2.737 7.29166 3.44009 7.29166H7.17678V6.71743C7.17678 4.21042 9.30283 2.16 11.9107 2.16H12.0927C14.709 2.16 16.8294 4.21042 16.8294 6.71743V7.29166ZM8.01712 6.71743C8.01712 4.67541 9.76782 3.00314 11.9135 3.00314H12.0955C14.2496 3.00314 15.9919 4.67541 15.9919 6.71743V7.29166H8.01712V6.71743ZM3.43448 8.13479C3.19079 8.13759 2.99471 8.33928 2.99751 8.58297V12.2861C4.723 13.6866 7.52132 14.3197 12.0787 14.3197H12.4037C16.653 14.2833 19.3168 13.695 21.0087 12.4121V8.57737C21.0059 8.33087 20.807 8.13479 20.5633 8.13479H3.43448ZM21.0087 20.555C21.0115 20.7987 20.8154 21.0003 20.5689 21.0031H3.44009C3.19639 21.0031 2.99751 20.8043 2.99751 20.5606V13.3309C4.70619 14.4709 7.12636 15.0368 10.7874 15.1376L10.779 15.146V16.7566C10.779 17.0087 10.8547 17.2132 11.0059 17.3645C11.1572 17.5073 11.3561 17.583 11.5997 17.583H12.4037C12.6558 17.583 12.8575 17.5073 12.9975 17.3645C13.1488 17.2132 13.2244 17.0087 13.2244 16.7566V15.146C16.8603 15.0536 19.2888 14.5213 21.0059 13.4233C21.0087 13.4233 21.0087 20.555 21.0087 20.555ZM11.8182 15.1544L12.3897 15.146V15.1544L12.3813 16.7398L11.6194 16.7566L11.6026 15.1628L11.8182 15.1544Z" fill="#313235"/>
</svg>
