<svg width="24" height="24" viewBox="0 0 24 24" fill="none" xmlns="http://www.w3.org/2000/svg">
<path fill-rule="evenodd" clip-rule="evenodd" d="M6.86699 9.21543C6.277 9.33825 5.78954 9.58352 5.41041 9.94958C4.81937 10.5182 4.51965 11.3529 4.51965 12.4314V12.4678C4.51965 12.4741 4.51987 12.4834 4.52019 12.4968L4.52019 12.4968L4.52019 12.4968C4.521 12.5315 4.52245 12.5934 4.52245 12.7003L4.51965 18.3501C4.51965 19.4258 4.81937 20.2633 5.41041 20.8319C5.97904 21.3809 6.79416 21.6583 7.82778 21.6583H15.402C16.4356 21.6583 17.2479 21.3809 17.8194 20.8319C18.4104 20.2661 18.7157 19.4314 18.7297 18.3557V12.423C18.7185 11.3473 18.4104 10.5154 17.8194 9.94678C17.2479 9.40056 16.4356 9.12325 15.402 9.12325H7.90341V6.49019C7.90341 4.60224 9.53366 3.06442 11.5337 3.06442H11.7185C13.7213 3.06442 15.3488 4.60224 15.3488 6.49019V6.52381C15.3572 6.80952 15.5981 7.03361 15.8838 7.02521C16.1695 7.0168 16.3936 6.77591 16.3852 6.49019C16.3852 4.02801 14.2928 2.02521 11.7185 2.02521H11.5337C8.95943 2.02521 6.86699 4.02801 6.86699 6.49019V9.21543ZM11.6261 18.0196C11.2199 18.0196 10.9566 18.2297 10.9566 18.6835C10.9566 18.902 11.0183 19.0644 11.1247 19.1737C11.2423 19.2913 11.4132 19.3501 11.6261 19.3501C11.839 19.3501 12.0098 19.2941 12.1275 19.1737C12.2367 19.0644 12.2956 18.902 12.2956 18.6835C12.2956 18.2297 12.0323 18.0196 11.6261 18.0196ZM5.55887 12.4622V12.409C5.56447 10.8739 6.28436 10.1597 7.82778 10.1569H15.4048C16.9482 10.1569 17.6765 10.8795 17.6961 12.4314V18.3445C17.6765 19.8964 16.9482 20.619 15.4048 20.619H7.82778C6.27876 20.619 5.55887 19.8992 5.55887 18.3501L5.56167 12.6947V12.6919C5.55887 12.5686 5.55887 12.5014 5.55887 12.4622ZM6.91181 14.9076C6.91181 15.1933 7.1443 15.4258 7.43002 15.4258C7.57007 15.4258 7.70453 15.3669 7.80257 15.2661C8.6317 14.4034 9.92021 13.9664 11.6289 13.9664C13.332 13.9664 14.6177 14.4006 15.4496 15.2577C15.6485 15.4622 15.979 15.4678 16.1835 15.2689C16.388 15.07 16.3936 14.7395 16.1947 14.535C15.1611 13.4706 13.6261 12.93 11.6317 12.93C9.6317 12.93 8.09108 13.4734 7.05747 14.5462C6.96503 14.6443 6.91181 14.7731 6.91181 14.9076ZM8.34318 17.1653C8.34318 17.451 8.57568 17.6835 8.86139 17.6835C9.00145 17.6835 9.1359 17.6246 9.23394 17.5238C9.74654 16.9916 10.5561 16.7227 11.6289 16.7227C12.7017 16.7227 13.5056 16.9916 14.0183 17.521C14.2171 17.7255 14.5477 17.7311 14.7521 17.5322C14.9566 17.3333 14.9622 17.0028 14.7634 16.7983C14.0463 16.0616 12.993 15.6863 11.6289 15.6863C10.262 15.6863 9.20593 16.0644 8.48884 16.8067C8.3964 16.902 8.34318 17.0308 8.34318 17.1653Z" fill="#313235"/>
</svg>
