<svg width="24" height="24" viewBox="0 0 24 24" fill="none" xmlns="http://www.w3.org/2000/svg">
<path fill-rule="evenodd" clip-rule="evenodd" d="M17.1286 10.0199C16.7365 12.2917 12.6524 14.2945 12.1903 14.5185C12.109 14.5578 12.0194 14.5774 11.9326 14.5774C11.8457 14.5774 11.7561 14.5578 11.6748 14.5185C11.2099 14.2973 7.13143 12.2945 6.74208 10.0199C6.45636 8.37157 6.45895 4.61878 6.45916 4.32189L6.45916 4.30846C6.45916 4.12079 6.546 3.94712 6.69166 3.82947C6.84011 3.71463 7.02779 3.67541 7.20706 3.71743C8.074 3.84844 8.52759 3.5467 9.15863 3.12692L9.16785 3.12079C9.8065 2.69222 10.602 2.16 11.9269 2.16H11.9326C13.2547 2.1628 14.0496 2.69277 14.6876 3.11809L14.6917 3.12079L14.7052 3.12981C15.3341 3.54816 15.7933 3.85366 16.6861 3.71182C16.8653 3.68661 17.0446 3.73423 17.1791 3.84908C17.3135 3.96393 17.4003 4.12919 17.4003 4.30846C17.4059 4.47093 17.4143 8.33647 17.1286 10.0199ZM15.941 9.80986C15.7365 10.9891 13.4788 12.5073 11.9354 13.2889C10.3919 12.5073 8.13423 10.9919 7.93535 9.80706C7.72807 8.62219 7.68325 6.1404 7.67205 4.95832C8.63563 4.93872 9.26869 4.51575 9.84011 4.13199L9.8551 4.12204C10.4566 3.72285 10.9797 3.37569 11.9354 3.37569H11.9382C12.8989 3.37849 13.4255 3.72863 14.0306 4.13479C14.5936 4.51294 15.2183 4.92751 16.1987 4.95272C16.1903 6.12919 16.1454 8.62219 15.941 9.80986ZM21.616 15.527C21.6272 15.3869 21.8737 12.132 21.8429 10.9975C21.8233 10.1852 21.3667 9.69222 20.518 9.6446C19.8681 9.6474 19.2827 10.0928 19.1482 10.751L18.8429 12.244C18.2687 12.0536 17.6412 12.258 17.3191 12.7847L17.2183 12.9611L17.2172 12.9631C17.0012 13.3473 16.6008 14.0598 15.8597 14.4457C15.7505 14.4933 15.3527 14.7174 14.7309 15.5298C14.2575 16.1488 13.8597 16.8379 13.5516 17.5746L13.1286 18.5886C12.8121 18.8519 12.6048 19.2468 12.6048 19.695V20.4065C12.6048 21.2048 13.2435 21.8491 14.0334 21.8491H17.49C18.2799 21.8491 18.9213 21.202 18.9213 20.4065V19.695C18.9213 19.4121 18.8345 19.146 18.6945 18.9247L20.1734 17.6586C20.3027 17.5455 20.4398 17.4427 20.5796 17.3378L20.5964 17.3253C20.8401 17.1404 21.0614 16.8827 21.2519 16.5634C21.4564 16.2188 21.5768 15.8771 21.616 15.527ZM20.4171 15.4093L20.4217 15.3454C20.4555 14.881 20.6642 12.0147 20.6384 11.0284C20.6356 10.9387 20.6272 10.8939 20.6188 10.8715C20.6165 10.8715 20.6125 10.8709 20.6068 10.8699L20.6067 10.8699C20.5914 10.8675 20.5635 10.8631 20.5208 10.8631C20.4199 10.8659 20.3443 10.9163 20.3275 10.9975L19.8093 13.5241C19.8061 13.5404 19.7991 13.5538 19.7921 13.5671C19.7871 13.5768 19.782 13.5864 19.7785 13.597C19.7757 13.8323 19.7253 14.0648 19.602 14.272L19.5992 14.2748V14.2777L18.0614 16.8799C17.9494 17.0732 17.7477 17.1796 17.5432 17.1796C17.4368 17.1796 17.3331 17.1516 17.2351 17.0928C16.9494 16.9191 16.8541 16.5466 17.025 16.258L18.5628 13.653C18.5628 13.653 18.5656 13.653 18.5656 13.6502V13.6474C18.5992 13.5914 18.5628 13.4485 18.5068 13.4121C18.5068 13.4121 18.3891 13.3449 18.3443 13.4205L18.2659 13.555L18.2651 13.5564C18.0071 14.0164 17.472 14.9701 16.3835 15.5326C16.3835 15.5326 16.1314 15.6838 15.6805 16.2692C15.2715 16.8043 14.9269 17.4009 14.6608 18.0424L14.574 18.2496H17.4872C17.5084 18.2496 17.5297 18.2525 17.5515 18.2554L17.5516 18.2555C17.5671 18.2575 17.5829 18.2597 17.5992 18.2608L19.3919 16.7286C19.546 16.597 19.7084 16.4737 19.8709 16.3505L19.8709 16.3505C19.9914 16.2608 20.1062 16.1208 20.2155 15.9359C20.3331 15.7454 20.4003 15.5662 20.4171 15.4093ZM17.7169 20.4037V19.695C17.7169 19.5718 17.616 19.4709 17.4928 19.4709H14.0362C13.9129 19.4709 13.8121 19.5718 13.8121 19.695V20.4065C13.8121 20.5298 13.9129 20.6306 14.0362 20.6306H17.4928C17.616 20.6306 17.7169 20.5298 17.7169 20.4037ZM10.1959 20.4037V19.695C10.1959 19.5718 10.095 19.4709 9.97457 19.4709H6.51799C6.39474 19.4709 6.2939 19.5718 6.2939 19.695V20.4065C6.2939 20.5298 6.39474 20.6306 6.51799 20.6306H9.97457C10.095 20.6306 10.1959 20.5298 10.1959 20.4037ZM6.40314 18.2636L4.61042 16.7314C4.45636 16.597 4.2939 16.4737 4.13703 16.3561C4.01659 16.2664 3.89894 16.1264 3.78969 15.9415C3.67485 15.7454 3.60762 15.5662 3.59081 15.4317C3.58801 15.3981 3.33871 12.1012 3.36673 11.0284C3.36834 10.9766 3.37277 10.9388 3.37567 10.914C3.3778 10.8958 3.37911 10.8846 3.37793 10.8799C3.39474 10.8743 3.43395 10.8659 3.51799 10.8603C3.59362 10.8659 3.66084 10.9163 3.67765 10.9975L4.19586 13.5241C4.1991 13.5404 4.20611 13.5538 4.21306 13.5671C4.21811 13.5768 4.22313 13.5864 4.22667 13.597C4.22947 13.8295 4.28269 14.0648 4.40314 14.272H4.40594V14.2748L5.94376 16.8799C6.0558 17.0732 6.25748 17.1796 6.46196 17.1796C6.5628 17.1796 6.67205 17.1488 6.76729 17.0928C7.0558 16.9191 7.14824 16.5466 6.97737 16.258L5.43955 13.653L5.43675 13.6502V13.6474C5.40314 13.5914 5.43955 13.4485 5.49558 13.4149C5.49558 13.4121 5.61322 13.3449 5.65804 13.4205L5.73647 13.5578C5.99138 14.0171 6.52639 14.9723 7.61322 15.5354C7.61602 15.5354 7.86813 15.6866 8.31911 16.272C8.72807 16.8071 9.06981 17.4037 9.33871 18.0452L9.42555 18.2524H6.51238C6.49053 18.2524 6.46868 18.2555 6.44683 18.2585C6.43227 18.2605 6.4177 18.2625 6.40314 18.2636ZM10.4508 17.5746L10.8765 18.5886C11.1931 18.8519 11.4003 19.2468 11.4003 19.695V20.4065C11.4003 21.1992 10.7589 21.8491 9.97177 21.8491H6.51518C5.72527 21.8491 5.08661 21.202 5.08661 20.4065V19.695C5.08661 19.4093 5.17065 19.146 5.3107 18.9247L3.83171 17.6586C3.70979 17.5545 3.57866 17.4549 3.45085 17.3579L3.41154 17.3281C3.16504 17.1404 2.94376 16.8827 2.75328 16.5634C2.5488 16.2188 2.42835 15.8771 2.39194 15.5466C2.37793 15.3869 2.13423 12.132 2.16224 10.9947C2.18185 10.1824 2.64124 9.69222 3.41434 9.6474C4.13983 9.6558 4.71967 10.09 4.85692 10.751L5.16504 12.244C5.73927 12.0536 6.36392 12.258 6.68605 12.7819L6.78689 12.9583L6.78796 12.9602C7.00391 13.3444 7.40441 14.057 8.16785 14.4541C8.25188 14.4933 8.64964 14.7174 9.27149 15.527C9.74488 16.146 10.1454 16.8351 10.4508 17.5746ZM14.7365 6.28045C14.5012 6.04236 14.1202 6.04236 13.8849 6.28045L11.0222 9.1628L9.97737 8.10398C9.74208 7.86589 9.36112 7.86589 9.12583 8.10398C8.89053 8.34208 8.89053 8.72583 9.12583 8.96393L10.5992 10.4513C10.7169 10.569 10.8709 10.6278 11.025 10.6278C11.1819 10.6278 11.3359 10.569 11.4536 10.4513L14.7365 7.1404C14.9718 6.9051 14.9718 6.51855 14.7365 6.28045Z" fill="#313235"/>
</svg>
