<svg width="24" height="24" viewBox="0 0 24 24" fill="none" xmlns="http://www.w3.org/2000/svg">
<path fill-rule="evenodd" clip-rule="evenodd" d="M19.2394 7.75908C19.2702 7.83191 19.287 7.91314 19.287 7.99717V20.3024C19.287 21.0531 18.6511 21.6862 17.9004 21.6862H5.90889C5.1722 21.6862 4.52234 21.0391 4.52234 20.3024L4.56155 17.0055L4.52234 9.03358V3.38375C4.52234 2.65826 5.1834 2 5.90889 2H13.2086C13.4355 2 13.6568 2.09244 13.8164 2.2521L19.0265 7.37533C19.1357 7.47897 19.2001 7.61622 19.2394 7.75908ZM17.5895 7.65264L17.5867 7.64983H17.5895V7.65264ZM17.5867 7.64983H15.8136C15.1329 7.64983 14.5559 7.43975 14.1497 7.03919C13.7492 6.64424 13.5363 6.08962 13.5363 5.43136V3.66666L17.5867 7.64983ZM14.6764 12.6918C14.6764 10.9215 13.9004 10.1316 12.161 10.1316C10.4215 10.1316 9.64557 10.9215 9.64557 12.6918C9.64557 14.4593 10.4215 15.2492 12.161 15.2492C13.9004 15.2492 14.6764 14.4621 14.6764 12.6918ZM15.0433 14.7002C15.0397 14.693 15.035 14.687 15.0305 14.6814C15.0281 14.6782 15.0257 14.6752 15.0237 14.6722C15.315 14.1596 15.4747 13.507 15.4747 12.6946C15.4747 10.4005 14.2534 9.3249 12.161 9.3249C10.0685 9.3249 8.85005 10.4005 8.85005 12.6946C8.85005 13.3865 8.9733 13.9523 9.18338 14.4257C9.17845 14.4319 9.17338 14.4379 9.16833 14.4439C9.15042 14.4652 9.13268 14.4863 9.12176 14.5125L7.58395 17.9075C7.48871 18.1204 7.51672 18.3641 7.66238 18.5461C7.80524 18.7282 8.03773 18.8094 8.30944 18.7422L9.24501 18.3921L9.61475 19.3921C9.72119 19.5938 9.92007 19.717 10.1442 19.717H10.161C10.3907 19.7114 10.5923 19.5742 10.6904 19.3641L12.0405 16.3809L13.3906 19.3641C13.4859 19.5742 13.6904 19.7114 13.9201 19.717H13.9369C14.1581 19.717 14.3626 19.5938 14.4859 19.3445L14.836 18.3921L15.8192 18.759C16.0405 18.8038 16.273 18.7282 16.4158 18.5461C16.5615 18.3641 16.5895 18.1204 16.4943 17.9075L15.0433 14.7002ZM10.85 13.6862L10.9257 13.2212L10.6063 12.8935C10.4327 12.7114 10.3739 12.4509 10.4523 12.21C10.5307 11.9719 10.7296 11.8011 10.9677 11.7647L11.3879 11.7002L11.5783 11.2913C11.7912 10.8291 12.5195 10.8263 12.738 11.2913L12.9313 11.7058L13.3514 11.7703C13.5923 11.8039 13.7884 11.9747 13.8668 12.2128C13.9481 12.4565 13.8864 12.717 13.7128 12.8963L13.399 13.2212L13.4747 13.6834C13.5139 13.9411 13.4131 14.1904 13.2086 14.3389C13.0097 14.4817 12.7408 14.4957 12.5335 14.3781L12.1638 14.1708L11.7912 14.3781C11.6932 14.4341 11.5867 14.4593 11.4831 14.4593C11.3542 14.4593 11.2254 14.4201 11.1133 14.3389C10.9117 14.1932 10.808 13.9411 10.85 13.6862Z" fill="#313235"/>
</svg>
