<svg width="24" height="24" viewBox="0 0 24 24" fill="none" xmlns="http://www.w3.org/2000/svg">
<path fill-rule="evenodd" clip-rule="evenodd" d="M21.0872 14.4132C20.5634 14.9483 19.8015 15.22 18.8295 15.22H14.4765V16.0631H21.4149C21.639 16.0631 21.8211 16.2424 21.8239 16.4665C21.8239 16.6906 21.6418 16.8698 21.4149 16.8698H14.4765V18.1387C14.4765 18.3628 14.2945 18.5421 14.0676 18.5421C10.9337 18.5421 8.55613 19.7361 8.50793 19.7603L8.50734 19.7606C8.45412 19.783 8.3981 19.797 8.34208 19.7998C8.33787 19.7998 8.33367 19.8012 8.32947 19.8026C8.32527 19.804 8.32107 19.8054 8.31687 19.8054C8.24964 19.8054 8.18521 19.7914 8.12639 19.7606L8.1258 19.7603C8.07759 19.7361 5.70003 18.5421 2.56897 18.5421C2.34208 18.5421 2.16 18.3656 2.16 18.1415V10.0211C2.16 9.80821 2.32527 9.63454 2.53815 9.61493C2.61098 9.60933 3.54096 9.5421 4.79866 9.69336V7.16675C4.79866 6.24798 5.05636 5.52529 5.56056 5.01549C6.08437 4.49168 6.84348 4.22557 7.81547 4.22557L18.8323 4.21997C19.8043 4.21997 20.5634 4.48888 21.0844 5.01269C21.5886 5.52249 21.8463 6.24518 21.8463 7.16395V12.2536C21.8463 13.1724 21.5914 13.8978 21.0872 14.4132ZM5.61659 7.16955C5.61659 6.46927 5.79586 5.93426 6.146 5.58132C6.50734 5.21717 7.07037 5.0323 7.81547 5.0323L18.8323 5.02669C19.5774 5.02669 20.1376 5.21157 20.5017 5.57571C20.8519 5.92865 21.0312 6.46087 21.0312 7.16395V12.2536C21.0312 12.9567 20.8519 13.4945 20.5017 13.853C20.1376 14.2256 19.5774 14.4132 18.8351 14.4132L14.4821 14.416V10.0183C14.4821 9.80821 14.3169 9.63454 14.104 9.61773C13.9751 9.60653 10.9527 9.39084 8.32247 10.6934C7.42331 10.2508 6.48213 9.98188 5.62219 9.82501L5.61659 7.16955ZM7.9107 11.388C6.01435 10.4665 3.83787 10.388 2.98073 10.4076V17.7438C4.67261 17.7998 6.33928 18.1499 7.9107 18.7802V11.388ZM8.72863 18.7802C9.61659 18.416 11.4177 17.811 13.6586 17.7438V10.4076C12.7959 10.3964 10.625 10.4637 8.72863 11.3852V18.7802Z" fill="#313235"/>
</svg>
