<svg width="24" height="24" viewBox="0 0 24 24" fill="none" xmlns="http://www.w3.org/2000/svg">
<path fill-rule="evenodd" clip-rule="evenodd" d="M21.7142 5.03912C21.7142 3.91307 20.8178 3.07554 19.0559 2.55453C17.8431 2.19599 16.2548 1.99991 14.5882 2.00272C12.9187 2.00272 11.3305 2.19879 10.1176 2.55733C8.65543 2.98871 7.78709 3.64697 7.53499 4.50971C7.48457 4.67777 7.45936 4.85704 7.45936 5.03912V8.77019C7.45936 8.78887 7.46434 8.80754 7.46932 8.82622C7.47181 8.83555 7.4743 8.84489 7.47616 8.85423V9.47047C7.24367 9.52649 7.01958 9.59372 6.8095 9.67495L6.18485 9.05871C5.68346 8.56851 4.86833 8.56851 4.36974 9.05871L3.63304 9.78419C3.38935 10.0195 3.25489 10.336 3.25489 10.6749C3.25489 11.0139 3.38935 11.3304 3.63024 11.5685L4.24929 12.1763C4.16245 12.4032 4.09523 12.6357 4.04481 12.8374H3.29971C2.59663 12.8374 2.02521 13.4004 2.02521 14.0895V15.0839C2.02521 15.773 2.59663 16.336 3.29971 16.336H4.04481C4.09523 16.5349 4.16245 16.7702 4.24929 16.9942L3.63304 17.6021C3.38935 17.8402 3.25489 18.1567 3.25489 18.4956C3.25489 18.8318 3.38935 19.1483 3.63024 19.3864L4.36974 20.1119C4.85713 20.5881 5.70026 20.5881 6.18485 20.1119L6.8095 19.4984C7.02239 19.5769 7.24367 19.6469 7.47616 19.7029V20.434C7.47616 21.1259 8.04759 21.6861 8.75067 21.6861H9.75907C10.1344 21.6861 10.4677 21.5236 10.7002 21.2687C11.8263 21.532 13.1764 21.6805 14.5826 21.6805C16.2492 21.6805 17.8375 21.4844 19.0559 21.1259C20.8206 20.6049 21.7142 19.7673 21.7142 18.6413V5.03912ZM10.4677 3.71139C9.52938 3.9887 8.94114 4.35845 8.76187 4.75901C8.93274 5.16237 9.53218 5.53491 10.479 5.81782C11.5798 6.14275 13.0392 6.32202 14.5938 6.32202C16.1484 6.32202 17.6106 6.14275 18.7086 5.81782C19.6442 5.54052 20.2436 5.17077 20.4229 4.77301C20.2044 4.26041 19.3977 3.91867 18.7002 3.71139C17.5994 3.38646 16.1372 3.20719 14.5826 3.20719C13.0308 3.20719 11.5686 3.38646 10.4677 3.71139ZM20.4845 6.37525V9.47327C20.2828 9.7982 19.7226 10.2464 18.7142 10.5517C17.7562 10.8346 16.5125 10.9971 15.1988 11.0391C15.2324 10.9242 15.2548 10.8066 15.2548 10.6834C15.2548 10.3444 15.1204 10.0279 14.8795 9.7926L14.14 9.06431C13.6386 8.57412 12.8263 8.57412 12.3249 9.06431L11.7002 9.67775C11.4874 9.59372 11.2689 9.52649 11.0364 9.47047V8.73938C11.0364 8.04751 10.4649 7.48729 9.76187 7.48729H8.75067C8.73053 7.48729 8.71266 7.48955 8.69298 7.49204H8.69297H8.69297H8.69296L8.68624 7.49289V6.35844C9.0756 6.59653 9.55179 6.80382 10.126 6.97188C11.3361 7.33042 12.9243 7.5265 14.5938 7.5265C16.266 7.5265 17.8515 7.33042 19.0644 6.97188C19.633 6.80382 20.1008 6.60494 20.4845 6.37525ZM9.25487 11.4397C11.2605 11.4397 12.4593 12.6161 12.4593 14.5881C12.4593 16.5601 11.2605 17.7365 9.25487 17.7365C7.24928 17.7365 6.0504 16.5601 6.0504 14.5881C6.0504 12.6161 7.24928 11.4397 9.25487 11.4397ZM9.25487 16.5265C10.5826 16.5265 11.2297 15.8906 11.2297 14.5853C11.2297 13.28 10.5826 12.6441 9.25487 12.6441C7.92714 12.6441 7.28009 13.28 7.28009 14.5853C7.28009 15.8934 7.92714 16.5265 9.25487 16.5265ZM20.4845 14.2268V11.0839C20.084 11.3304 19.6078 11.5433 19.0672 11.703C17.8515 12.0615 16.2632 12.2576 14.5966 12.2576C14.5434 12.2576 14.4901 12.2569 14.4369 12.2562L14.4367 12.2562C14.3836 12.2555 14.3304 12.2548 14.2773 12.2548C14.3473 12.4424 14.4117 12.6357 14.4621 12.8374H15.2072C15.9103 12.8374 16.4817 13.3976 16.4817 14.0895V15.0839C16.4817 15.3164 16.4117 15.5321 16.2997 15.7197C17.196 15.6385 18.0279 15.5013 18.7142 15.2968C19.7226 14.9999 20.2828 14.5517 20.4845 14.2268ZM20.4845 15.8374V18.6413C20.4845 19.3024 19.5153 19.7281 18.703 19.9718C17.5966 20.2968 16.1316 20.476 14.5826 20.476C14.1876 20.476 13.7983 20.462 13.4145 20.4368C13.6806 20.4004 13.9411 20.3052 14.14 20.1119L14.8795 19.3864C15.1204 19.1511 15.2548 18.8318 15.2548 18.4956C15.2548 18.1567 15.1204 17.8402 14.8795 17.6049L14.2717 17.0055C14.3263 17.0055 14.3802 17.0069 14.4341 17.0083C14.488 17.0097 14.542 17.0111 14.5966 17.0111C16.266 17.0111 17.8515 16.815 19.0672 16.4564C19.6078 16.2968 20.0812 16.0839 20.4845 15.8374ZM12.2745 18.3528L13.196 19.2575L14.0112 18.5321L13.0896 17.5517C12.9019 17.3696 12.8543 17.0867 12.9719 16.857C13.1512 16.5041 13.2801 16.0923 13.3557 15.6357C13.4033 15.3444 13.661 15.1287 13.9635 15.1287H15.21L15.2548 14.0895L13.9635 14.0447C13.661 14.0447 13.4033 13.829 13.3557 13.5377C13.2801 13.0811 13.1512 12.6693 12.9719 12.3164C12.8543 12.0839 12.9019 11.8038 13.0896 11.6217L14.0112 10.717L13.2717 9.91585L12.2745 10.8206C12.0896 11.0027 11.8039 11.0475 11.5714 10.9355C11.1904 10.7534 10.7927 10.6329 10.3249 10.5573C10.0252 10.5097 9.80669 10.2576 9.80669 9.96066V8.73658L8.75067 8.69176L8.70585 9.95786C8.70585 10.2548 8.48736 10.5069 8.18765 10.5545C7.72546 10.6273 7.3081 10.7534 6.94395 10.9298C6.70866 11.0447 6.42295 10.9971 6.23527 10.815L5.31371 9.91024L4.49859 10.6357L5.41735 11.6133C5.61343 11.8038 5.65264 12.1007 5.51819 12.336C5.35573 12.6189 5.21847 13.1399 5.15405 13.5321C5.10363 13.8234 4.84873 14.0391 4.54621 14.0391H3.29971L3.25489 15.0783L4.54621 15.1231C4.84592 15.1231 5.10363 15.336 5.15405 15.6301C5.21847 16.0251 5.35853 16.5461 5.51819 16.8262C5.65264 17.0615 5.61343 17.3584 5.41735 17.5489L4.49859 18.4536L5.23808 19.2547L6.23527 18.35C6.35292 18.2351 6.50978 18.1735 6.66945 18.1735C6.76188 18.1735 6.85712 18.1931 6.94115 18.2351C7.3025 18.4116 7.71986 18.5377 8.18485 18.6105C8.48176 18.6581 8.70025 18.9102 8.70025 19.2071V20.4312L9.75627 20.476C9.77868 20.476 9.80108 20.4564 9.80108 20.4312V19.2071C9.80108 18.9102 10.0196 18.6581 10.3193 18.6105C10.7871 18.5377 11.182 18.4144 11.5658 18.2323C11.8039 18.1231 12.0896 18.1707 12.2745 18.3528ZM12.7451 20.378C12.1316 20.3164 11.5574 20.2267 11.0364 20.1063H11.0392V19.7057C11.2689 19.6497 11.4874 19.5825 11.703 19.4984L12.3277 20.1119C12.4481 20.2295 12.591 20.3192 12.7451 20.378Z" fill="#313235"/>
</svg>
