<svg width="24" height="24" viewBox="0 0 24 24" fill="none" xmlns="http://www.w3.org/2000/svg">
<path fill-rule="evenodd" clip-rule="evenodd" d="M13.2465 6.22687C13.2633 3.50139 14.7619 2 17.479 2C20.2101 2 21.7143 3.5126 21.7087 6.26049C21.7087 9.00837 20.2045 10.521 17.4734 10.521C17.0812 10.521 16.7199 10.4846 16.3809 10.4229L12.6163 14.7843C12.5322 14.8823 12.4314 14.9607 12.3221 15.0252V18.8263L16.2885 20.5013C16.5518 20.6134 16.7031 20.8991 16.6471 21.182C16.591 21.4649 16.3445 21.6694 16.056 21.6694L7.72552 21.6862C7.44261 21.6862 7.19892 21.4873 7.13729 21.21C7.07847 20.9299 7.21852 20.647 7.47623 20.5265L11.1177 18.8403V15.042C11.014 14.9831 10.916 14.9159 10.832 14.8263L4.68072 8.3165C4.35019 7.96636 4.25775 7.44816 4.44543 7.00278C4.6359 6.5546 5.07007 6.26609 5.55186 6.26329L6.36138 6.26049L5.33898 5.22968C5.29416 5.18486 5.22974 5.15965 5.16531 5.15965H2.63031C2.29698 5.15965 2.02527 4.88794 2.02527 4.55181C2.02527 4.21568 2.29698 3.94397 2.63031 3.94397H5.16531C5.54906 3.94397 5.92441 4.09803 6.19332 4.36974L8.06446 6.25208L13.2465 6.22687ZM17.479 9.30529C17.4562 9.30529 17.4356 9.30384 17.4153 9.30242C17.3957 9.30104 17.3764 9.29969 17.3557 9.29969L18.2605 8.25207C18.4622 8.03639 18.5854 7.74227 18.5854 7.42295C18.5854 6.75068 18.0476 6.20727 17.3809 6.20727H17.3697L14.4566 6.22127C14.4706 4.17366 15.4314 3.21568 17.479 3.21568C19.5154 3.21568 20.507 4.21288 20.507 6.26329C20.507 8.33891 19.5434 9.30529 17.479 9.30529ZM16.3894 8.46496H6.49584L5.56307 7.47617L17.3781 7.42015L16.465 8.47896C16.4506 8.47896 16.4377 8.47528 16.4252 8.47168C16.4132 8.46828 16.4016 8.46496 16.3894 8.46496Z" fill="#313235"/>
</svg>
