<svg width="24" height="24" viewBox="0 0 24 24" fill="none" xmlns="http://www.w3.org/2000/svg">
<path fill-rule="evenodd" clip-rule="evenodd" d="M11.058 3.34998C11.8788 3.34998 15.9658 3.54606 17.1423 7.30254C18.557 7.41179 21.8372 8.15412 21.84 12.5465C21.84 17.5719 17.5289 17.8268 16.6661 17.8268L14.568 17.8352L14.5596 19.9222C14.5596 20.2891 14.2822 20.5777 13.9265 20.5777H10.0524C9.7078 20.5777 9.41927 20.2891 9.41927 19.9222V17.8689L6.37711 17.8857C4.3378 17.8857 2.15002 16.7344 2.15002 13.5241C2.15002 10.8937 3.60387 9.87129 4.65715 9.47071C4.76639 3.64691 9.99633 3.34998 11.058 3.34998ZM16.6661 16.9753L14.568 16.9837L14.5764 15.401H16.2459C16.5008 15.401 16.7305 15.2469 16.8286 15.0004C16.9266 14.7623 16.879 14.4822 16.7053 14.2945L12.5035 9.80686C12.3802 9.678 12.2149 9.61077 12.044 9.61077C11.8704 9.61077 11.7163 9.678 11.593 9.80686L7.29312 14.3813C7.11104 14.569 7.06062 14.8491 7.16146 15.0872C7.25951 15.3337 7.48921 15.4962 7.74412 15.4962H9.42207V17.0201L6.37991 17.0369C5.36026 17.0369 2.97639 16.6951 2.97639 13.5269C2.97639 11.7453 3.72433 10.622 5.18938 10.1962C5.36306 10.1458 5.48632 9.97494 5.48632 9.78725L5.47791 9.6668C5.47791 4.59093 9.75542 4.19875 11.0636 4.19875C11.8031 4.19875 15.5456 4.37804 16.4336 7.81797C16.484 8.00566 16.6381 8.13171 16.8202 8.13171C18.0863 8.17373 21.0221 8.67796 21.0221 12.5437C21.0165 16.6531 17.6858 16.9753 16.6661 16.9753ZM13.7444 17.3674L13.736 19.7261H10.24V15.2973C10.24 14.9332 9.95151 14.6418 9.60696 14.6418H8.18392L12.0412 10.538L15.8005 14.5494H14.3859C14.0413 14.5494 13.7528 14.8463 13.7528 15.2049L13.7444 17.3674Z" fill="#313235"/>
</svg>
