<svg width="24" height="24" viewBox="0 0 24 24" fill="none" xmlns="http://www.w3.org/2000/svg">
<path fill-rule="evenodd" clip-rule="evenodd" d="M19.3747 8.16003C19.3747 8.0704 19.3579 7.98917 19.3271 7.91634C19.2879 7.77068 19.2234 7.64183 19.1198 7.53538L13.9097 2.41214C13.75 2.24967 13.526 2.16003 13.2963 2.16003H5.99654C5.27105 2.16003 4.60999 2.8155 4.60999 3.53819V9.19085L4.652 17.1684L4.60999 20.4682C4.60999 21.2049 5.26265 21.8463 5.99654 21.8463H17.9881C18.7444 21.8463 19.3747 21.2133 19.3747 20.4682V8.16003ZM18.1814 9.02838V20.4682C18.1814 20.541 18.0946 20.6306 17.9909 20.6306H5.99934C5.9041 20.6306 5.80886 20.5242 5.80886 20.4766L5.85088 17.1768L5.80886 9.19085V3.54659C5.81447 3.48216 5.92651 3.37572 5.99934 3.37572H12.4363V5.58861C12.4363 6.5858 12.7696 7.44575 13.4167 8.0788C14.0442 8.70345 14.9069 9.02838 15.9097 9.02838H18.1814ZM11.8453 16.2357C12.3579 16.2357 12.7556 15.8295 12.7556 15.2945C12.7556 14.7763 12.3579 14.3645 11.8369 14.3617C11.3187 14.3617 10.9209 14.7763 10.9209 15.2945V15.3113C10.9209 15.8295 11.3187 16.2357 11.8453 16.2357ZM13.6324 3.8295V5.58861C13.6324 6.25527 13.8397 6.80429 14.2458 7.20205C14.652 7.59981 15.2262 7.80989 15.9125 7.80989H17.68L13.6324 3.8295ZM15.8621 15.2945C15.8621 15.8295 15.4643 16.2357 14.9545 16.2357C14.4279 16.2357 14.0302 15.8295 14.0302 15.3113V15.2945C14.0302 14.7763 14.4279 14.3617 14.9461 14.3617C15.4643 14.3645 15.8621 14.7763 15.8621 15.2945ZM8.73043 16.2357C9.24864 16.2357 9.6464 15.8295 9.6464 15.2945C9.6464 14.7763 9.24864 14.3645 8.72203 14.3617C8.21223 14.3617 7.81447 14.7763 7.81447 15.2945V15.3113C7.81447 15.8295 8.21223 16.2357 8.73043 16.2357Z" fill="#313235"/>
</svg>
