<svg width="24" height="24" viewBox="0 0 24 24" fill="none" xmlns="http://www.w3.org/2000/svg">
<path fill-rule="evenodd" clip-rule="evenodd" d="M20.1171 11.9701C22.4896 14.5023 22.4084 17.3146 19.8594 19.8609C18.5456 21.1774 17.1619 21.8356 15.7781 21.8356C14.4 21.8356 13.019 21.1802 11.7081 19.8665L11.5597 19.7236C11.4336 19.6032 11.3104 19.4827 11.2039 19.3595L10.5485 18.704C10.5429 18.6984 10.5366 18.6949 10.5303 18.6914C10.524 18.6879 10.5177 18.6844 10.512 18.6788L5.14791 13.3175C5.14371 13.3133 5.14091 13.3084 5.13811 13.3034C5.13531 13.2985 5.13251 13.2936 5.12831 13.2894L4.57649 12.7376C4.48965 12.6648 4.3692 12.5415 4.24876 12.4155L4.1115 12.2726C2.837 10.9981 2.17593 9.6536 2.15072 8.27825C2.12551 6.84968 2.78377 5.44912 4.1143 4.12139C6.69973 1.53316 9.55967 1.49115 12.1591 4.00935L13.2936 5.1438C13.2964 5.1466 13.2999 5.148 13.3034 5.1494C13.3069 5.1508 13.3104 5.1522 13.3132 5.15501L18.6773 10.5163C18.6785 10.5175 18.6796 10.5196 18.681 10.5221C18.6829 10.5256 18.6852 10.5299 18.6885 10.5331L19.9294 11.7712C19.9487 11.7913 19.9682 11.811 19.9876 11.8304L19.9876 11.8305L19.9877 11.8305L19.9877 11.8306C20.0331 11.8762 20.0778 11.9211 20.1171 11.9701ZM5.24595 11.1438C4.27117 10.169 3.76697 9.19421 3.75016 8.24744C3.73335 7.26985 4.23475 6.26145 5.24595 5.25305C6.24035 4.25865 7.21794 3.76285 8.19553 3.76285C9.1423 3.76285 10.0835 4.22504 11.0387 5.1494L11.6157 5.72643L5.71934 11.62L5.66612 11.5668C5.5895 11.4997 5.51902 11.4265 5.44768 11.3525L5.41122 11.3147L5.24595 11.1438ZM18.9238 13.0373C20.7137 14.9477 20.6493 16.8104 18.7277 18.732C16.7473 20.7152 14.8202 20.7152 12.8398 18.7404L12.6633 18.5695L12.6176 18.5256C12.5452 18.4564 12.4695 18.384 12.3748 18.2754L12.2095 18.113L18.1031 12.2222L18.7305 12.8469L18.823 12.9365C18.8482 12.9589 18.8762 12.9841 18.9238 13.0373ZM11.512 12.3483C11.274 12.1102 11.274 11.7236 11.512 11.4855C11.7473 11.2474 12.1339 11.2474 12.3748 11.4855C12.6129 11.7236 12.6129 12.1102 12.3748 12.3483C12.1339 12.5864 11.7501 12.5864 11.512 12.3483ZM10.9714 14.2698C10.7333 14.5079 10.7333 14.8945 10.9714 15.1326C11.2095 15.3707 11.5961 15.3707 11.8342 15.1326C12.0723 14.8945 12.0723 14.5079 11.8342 14.2698C11.5933 14.0317 11.2095 14.0317 10.9714 14.2698ZM14.3636 10.8777C14.6017 10.6396 14.9882 10.6396 15.2263 10.8777C15.4644 11.1158 15.4644 11.4995 15.2263 11.7404C14.9882 11.9785 14.6017 11.9785 14.3636 11.7404C14.1255 11.5023 14.1255 11.1158 14.3636 10.8777ZM8.78376 12.0626C8.54567 12.3007 8.54567 12.6872 8.78376 12.9253C9.02186 13.1634 9.40841 13.1634 9.64651 12.9253C9.8846 12.6872 9.8846 12.3007 9.64651 12.0626C9.40841 11.8245 9.02186 11.8245 8.78376 12.0626ZM12.1759 9.53035C11.9378 9.29225 11.9378 8.9057 12.1759 8.6676C12.414 8.43231 12.8006 8.43231 13.0387 8.6676C13.2768 8.9057 13.2768 9.29225 13.0387 9.53035C12.8006 9.76844 12.414 9.76844 12.1759 9.53035Z" fill="#313235"/>
</svg>
