<svg width="24" height="24" viewBox="0 0 24 24" fill="none" xmlns="http://www.w3.org/2000/svg">
<path fill-rule="evenodd" clip-rule="evenodd" d="M19.9694 4.04793C21.2019 5.27762 21.8546 7.07594 21.8462 9.26361C21.8378 13.8743 15.9162 20.8434 15.0787 21.6698C14.9638 21.7846 14.807 21.8462 14.6473 21.8462C14.4848 21.849 14.328 21.7846 14.2159 21.6698C13.793 21.2608 12.8462 20.16 11.7453 18.6334C10.4736 20.2496 8.39241 20.4345 7.70893 20.4401C7.61089 20.4485 7.49605 20.4485 7.3896 20.4485H7.21874C6.15711 20.4317 2.15991 20.0535 2.15991 15.202C2.15991 10.3645 6.11509 10.0031 7.17392 9.99471H7.54086C7.50445 9.737 7.48764 9.4765 7.49044 9.216C7.49044 7.03953 8.15151 5.2384 9.39801 4.01712C10.6473 2.79583 12.4876 2.16838 14.6921 2.15997C16.905 2.16838 18.7313 2.81824 19.9694 4.04793ZM20.6221 9.25521C20.6137 12.7678 16.3084 18.4737 14.6445 20.3533C13.8434 19.4233 13.0927 18.4541 12.3924 17.4429C12.6193 16.8406 12.7594 16.1096 12.7594 15.2328C12.7594 11.5465 10.3784 10.4541 8.80417 10.132C8.74815 9.81263 8.70613 9.49891 8.71453 9.2244C8.71453 7.34205 9.23834 5.87986 10.2664 4.87706C11.2944 3.87146 12.8014 3.36445 14.6865 3.36445C16.5941 3.37566 18.0787 3.88826 19.0955 4.90227C20.1151 5.91347 20.6305 7.37566 20.6221 9.25521ZM11.5381 15.2356C11.5381 18.6586 9.11509 19.2132 7.68092 19.2356C7.61369 19.2419 7.537 19.2435 7.46031 19.2451C7.43476 19.2456 7.4092 19.2461 7.384 19.2468H7.22994C5.79577 19.2216 3.3812 18.6754 3.3812 15.2048C3.3812 11.751 5.76215 11.2188 7.19072 11.202H7.64731C9.10109 11.2412 11.5381 11.8126 11.5381 15.2356ZM13.2047 8.82384C13.2047 7.85465 13.6837 7.38126 14.6697 7.38126C15.6529 7.38126 16.1347 7.85465 16.1347 8.82384C16.1347 9.79303 15.6557 10.2664 14.6697 10.2664C13.6837 10.2664 13.2047 9.79303 13.2047 8.82384ZM14.6697 11.4765C13.0115 11.4765 11.9806 10.4597 11.9806 8.82664C11.9806 7.19359 13.0115 6.17678 14.6697 6.17678C16.328 6.17678 17.3588 7.19359 17.3588 8.82664C17.356 10.4597 16.328 11.4765 14.6697 11.4765ZM10.7117 15.2048C10.7089 14.8687 10.4372 14.5997 10.1011 14.6026V14.6054H8.06748V12.6278C8.06467 12.2916 7.79297 12.0227 7.45683 12.0255C7.1207 12.0227 6.84899 12.2916 6.84619 12.6278V14.6054H4.81818C4.48484 14.6025 4.21033 14.8715 4.20753 15.2076C4.21033 15.5437 4.48204 15.8126 4.81818 15.8098H6.84899V17.8182C6.85179 18.1544 7.1235 18.4233 7.45963 18.4205C7.79577 18.4233 8.06748 18.1544 8.07028 17.8182V15.807H10.1011C10.4372 15.8098 10.7089 15.5409 10.7117 15.2048Z" fill="#313235"/>
</svg>
