<svg width="24" height="24" viewBox="0 0 24 24" fill="none" xmlns="http://www.w3.org/2000/svg">
<path fill-rule="evenodd" clip-rule="evenodd" d="M21.8435 14.3085C21.8435 12.7287 20.7147 12.1572 19.7455 12.1488V11.9331L19.7035 10.1993C19.7035 10.1124 19.7035 10.0284 19.6922 9.93594C19.555 7.80149 18.95 4.16284 15.7399 3.71746C15.6769 3.70812 15.6294 3.70462 15.5732 3.70047C15.562 3.69964 15.5504 3.69879 15.5382 3.69785L15.3477 3.68104C15.006 3.65863 14.5914 3.65863 14.3337 3.67824H12.9471C13.0088 3.53538 13.048 3.37292 13.048 3.17964C13.048 2.84631 12.9556 2.58861 12.7735 2.41214C12.597 2.24407 12.3421 2.16003 12.0172 2.16003C11.6922 2.16003 11.4345 2.24407 11.2609 2.41214C11.076 2.5858 10.9836 2.84631 10.9836 3.17964C10.9836 3.37572 11.0256 3.53538 11.0872 3.67824H9.67544C9.50457 3.66424 9.3281 3.65583 9.14603 3.65583C5.25527 3.65583 4.42334 6.38132 4.25527 9.49897H2.75387C2.42614 9.49897 2.16003 9.75947 2.16003 10.0844C2.16003 10.4065 2.42614 10.6698 2.75387 10.6698H4.22726L4.22166 12.1516C3.26368 12.174 2.16003 12.7483 2.16003 14.3085C2.16003 15.8883 3.29729 16.4654 4.26648 16.4794H4.43174C4.48777 16.4794 4.5718 16.4738 4.67264 16.4626C5.22446 18.5018 6.44295 20.1992 9.14323 20.1992C9.3281 20.1992 9.50177 20.1908 9.63342 20.1796H14.2945C14.3253 20.1812 14.3563 20.1828 14.3874 20.1845C14.5257 20.1918 14.6668 20.1992 14.8155 20.1992C14.9976 20.1992 15.1712 20.1908 15.3029 20.1796H15.5186C15.5914 20.1796 15.6614 20.1656 15.7259 20.1404C17.8435 19.8519 18.8267 18.1768 19.2917 16.457C19.295 16.457 19.2982 16.4579 19.301 16.4587C19.3029 16.4593 19.3045 16.4598 19.3057 16.4598C19.4177 16.4738 19.5074 16.4794 19.569 16.4794H19.7343C20.7091 16.4654 21.8435 15.8883 21.8435 14.3085ZM8.0704 9.49617C8.23006 7.75947 8.8323 6.37292 9.87432 5.37572C10.048 5.20765 10.2413 5.05639 10.4401 4.91073L10.5382 4.84631L13.7371 4.84351L13.8379 4.91073C14.034 5.05639 14.2273 5.20765 14.4009 5.37572C15.4429 6.37292 16.0424 7.75947 16.2049 9.49617H15.0116C14.8631 8.09561 14.3841 6.99197 13.5746 6.21886C13.1796 5.84071 12.6866 5.55779 12.1376 5.3337C11.5886 5.55499 11.0928 5.84071 10.6978 6.21886C9.88833 6.99477 9.41214 8.09561 9.26087 9.49617H8.0704ZM18.555 11.9247V11.076C18.5466 11.0424 18.5438 11.0088 18.5438 10.9724C18.5424 10.9185 18.5395 10.8682 18.5367 10.8182C18.5339 10.7695 18.5312 10.721 18.5298 10.6698H5.40933L5.40093 12.7763C5.40653 12.8099 5.41214 12.8435 5.41214 12.8771C5.52698 17.1852 6.64463 19.0228 9.14323 19.0228C9.30009 19.0228 9.44855 19.0144 9.59141 19.006L14.3309 19.0032C14.695 19.0256 14.9724 19.0256 15.2637 19.006H15.3645C15.3925 19.0004 15.4205 18.9948 15.4485 18.992C16.7119 18.8659 18.4037 18.0928 18.5438 12.8799C18.5438 12.8435 18.5466 12.8099 18.555 12.7763V11.9247ZM9.61101 14.8659C9.93875 14.8659 10.2049 14.6054 10.2049 14.2805V12.4485C10.2049 12.1264 9.93875 11.8631 9.61101 11.8631C9.28328 11.8631 9.01718 12.1236 9.01718 12.4485V14.2805C9.01718 14.6026 9.28328 14.8659 9.61101 14.8659ZM13.8687 16.4401C13.6362 16.2105 13.2609 16.2105 13.0284 16.4401C12.6894 16.7763 12.3533 16.95 12.034 16.9556C11.7063 16.9556 11.3561 16.7875 11.0032 16.4373C10.7707 16.2077 10.3953 16.2077 10.1628 16.4373C9.93034 16.667 9.93034 17.0368 10.1628 17.2665C10.7399 17.8379 11.3645 18.1264 12.0144 18.1264H12.0508C12.6922 18.118 13.3029 17.8267 13.8687 17.2693C14.1012 17.0424 14.1012 16.6698 13.8687 16.4401ZM14.3393 11.8631C14.667 11.8631 14.9331 12.1264 14.9331 12.4485V14.2805C14.9331 14.6054 14.667 14.8659 14.3393 14.8659C14.0116 14.8659 13.7455 14.6026 13.7455 14.2805V12.4485C13.7455 12.1264 14.0116 11.8631 14.3393 11.8631ZM20.6558 14.3113C20.6558 14.964 20.3393 15.3001 19.7175 15.3085H19.5886C19.5774 15.3085 19.5578 15.3085 19.5354 15.3057C19.6138 14.8127 19.6586 14.3393 19.6866 13.9247C19.6866 13.8848 19.69 13.8456 19.6935 13.8057L19.6935 13.8056V13.8056V13.8056V13.8055V13.8055C19.697 13.7643 19.7007 13.7223 19.7007 13.6782L19.7399 13.3253C20.3477 13.3365 20.6558 13.6642 20.6558 14.3113ZM4.40933 15.3085C4.41494 15.3085 4.42334 15.3085 4.42894 15.3057C4.35611 14.8491 4.30569 14.3869 4.27488 13.9331C4.27139 13.8983 4.26646 13.8639 4.26148 13.8292C4.25446 13.7802 4.24734 13.7307 4.24407 13.6782L4.21606 13.3337C3.64183 13.3589 3.34491 13.6838 3.34491 14.3141C3.34491 14.9668 3.65863 15.3029 4.28328 15.3113L4.40933 15.3085Z" fill="#313235"/>
</svg>
