<svg width="24" height="24" viewBox="0 0 24 24" fill="none" xmlns="http://www.w3.org/2000/svg">
<path d="M3.67505 10.2885V10.2661C3.68065 9.87112 3.86833 9.48737 4.23527 9.12322L9.26048 4.0756L9.27729 4.0588C9.62463 3.73947 9.98597 3.61902 10.3557 3.69745C10.6919 3.77028 10.9608 3.99997 11.1792 4.21846L11.1933 4.23247L16.0056 9.34731L18.5854 6.76748L18.5938 6.75908C18.9243 6.44255 19.4874 6.35011 19.9327 6.54059C20.3473 6.71706 20.5938 7.10642 20.5938 7.5798V19.6694C20.6134 19.9495 20.5238 20.2016 20.3389 20.3865C20.154 20.5714 19.8991 20.661 19.6218 20.6386L7.47617 20.633C7.0616 20.6442 6.68345 20.4005 6.52099 20.0196C6.3165 19.563 6.40894 18.9692 6.73667 18.6134L6.75068 18.5966L9.12883 16.2185L4.22407 11.4285L4.21847 11.4229C3.85712 11.07 3.67505 10.6862 3.67505 10.2885Z" fill="#313235"/>
</svg>
