<svg width="24" height="24" viewBox="0 0 24 24" fill="none" xmlns="http://www.w3.org/2000/svg">
<path fill-rule="evenodd" clip-rule="evenodd" d="M20.052 15.2761V17.1248C21.3293 17.3797 21.8195 18.4329 21.8363 19.3545V19.5366C21.8195 20.5954 21.1808 21.8363 19.4189 21.8363C17.657 21.8363 17.0268 20.6038 17.0184 19.5506C17.0126 19.5065 17.0147 19.4573 17.0166 19.4126C17.0175 19.3919 17.0184 19.3722 17.0184 19.3545C17.0352 18.4413 17.5338 17.3797 18.8055 17.1248V15.8923H5.18083V17.1164C6.46094 17.3797 6.95954 18.4329 6.97635 19.3545V19.5366C6.95954 20.5954 6.31248 21.8363 4.55898 21.8363C2.79708 21.8363 2.16683 20.6038 2.15002 19.5506V19.3545C2.17523 18.4413 2.66543 17.3881 3.93434 17.1248L3.92593 15.2845C3.92873 15.1164 3.99596 14.9567 4.11081 14.8391C4.22845 14.7214 4.38532 14.657 4.55058 14.657H11.3517C11.349 14.6437 11.3455 14.6307 11.342 14.6176C11.3343 14.5891 11.3265 14.5598 11.3265 14.5254V13.6038L7.75506 13.6206C6.08559 13.6206 4.14162 12.6934 4.14162 10.0604C4.14162 8.06038 5.22285 7.20044 6.1024 6.82789C6.27887 3.38252 9.03517 2.15002 11.4105 2.15002C12.0772 2.15002 15.3321 2.30689 16.3937 5.12761C18.2817 5.33209 20.15 6.51696 20.15 9.32929C20.15 12.4721 17.8055 13.5814 15.8055 13.5814L12.573 13.5982V14.5282C12.573 14.5685 12.5629 14.6048 12.553 14.6406C12.5513 14.647 12.5495 14.6534 12.5478 14.6598H19.4273C19.769 14.6598 20.0492 14.9343 20.052 15.2761ZM5.72985 19.3769V19.5169C5.71304 20.2312 5.32089 20.601 4.55898 20.601C3.79428 20.601 3.40492 20.2396 3.39652 19.5338V19.3853C3.41333 18.8923 3.62061 18.2929 4.56739 18.2929C5.50576 18.2929 5.72145 18.8839 5.72985 19.3769ZM20.5898 19.5169C20.5814 20.2312 20.1836 20.601 19.4189 20.601C18.6542 20.601 18.2648 20.2396 18.2648 19.5338V19.3853C18.2733 18.9007 18.4805 18.3153 19.3881 18.3013H19.4693C20.3769 18.3181 20.5842 18.8923 20.5926 19.3769C20.5898 19.3769 20.5898 19.5169 20.5898 19.5169Z" fill="#313235"/>
</svg>
