<svg width="24" height="24" viewBox="0 0 24 24" fill="none" xmlns="http://www.w3.org/2000/svg">
<path fill-rule="evenodd" clip-rule="evenodd" d="M20.0128 14.7439V17.4245C21.3125 17.601 21.8195 18.6262 21.8363 19.517V19.7018C21.8167 20.685 21.2173 21.8363 19.5786 21.8363C17.9315 21.8363 17.3377 20.6934 17.3293 19.7102V19.5254C17.3545 18.6234 17.8615 17.6094 19.1612 17.4245V15.164H4.81109L4.81949 17.4161C6.12762 17.6038 6.62902 18.6262 6.64582 19.517V19.7018C6.63742 20.685 6.03518 21.8363 4.38812 21.8363C2.75227 21.8363 2.15843 20.6934 2.15002 19.7102V19.5254C2.16683 18.6346 2.67383 17.6094 3.97355 17.4245L3.96515 14.7523C3.96235 14.643 4.00717 14.5338 4.0828 14.4525C4.16403 14.3741 4.27327 14.3293 4.38812 14.3265H11.5282V13.4273L7.65703 13.4525C5.97916 13.4525 4.17804 12.5534 4.17804 10.024C4.17804 8.00717 5.32369 7.19204 6.18084 6.86431C6.31809 2.37692 10.5338 2.15002 11.3909 2.15002C12.0604 2.15002 15.3461 2.30129 16.3293 5.17243C18.2116 5.3349 20.1052 6.47495 20.1052 9.27327C20.1052 13.206 16.5842 13.3993 15.8783 13.3993L12.3741 13.4245V14.3237H19.5898C19.8195 14.3265 20.0072 14.5114 20.0128 14.7439ZM7.65703 12.6122C6.86711 12.6122 5.02678 12.3601 5.02678 10.024C5.02678 8.71025 5.60381 7.88112 6.72425 7.57019C6.90913 7.51977 7.02958 7.25927 7.02958 7.07439C7.02958 3.28448 10.3713 2.99036 11.3909 2.99036C11.9764 2.99036 14.9035 3.11641 15.601 5.68784C15.6542 5.86431 15.8139 5.99036 15.9988 5.99596C16.9764 6.02117 19.2593 6.39932 19.2593 9.27327C19.2593 12.3237 16.6794 12.559 15.8811 12.559L7.65703 12.6122ZM5.79988 19.685V19.5422C5.79148 19.0464 5.60381 18.2229 4.41053 18.2229C3.21445 18.2229 3.00997 19.0464 3.00157 19.5422V19.7018C3.00157 20.1892 3.19484 20.996 4.39092 20.996C5.60381 20.996 5.79988 20.1808 5.79988 19.685ZM19.5786 20.996C20.7859 20.996 20.9792 20.1724 20.9876 19.685V19.531C20.9792 19.0548 20.7831 18.2481 19.6206 18.2229C19.6122 18.2313 19.5954 18.2313 19.587 18.2313C19.5702 18.2313 19.5618 18.2313 19.545 18.2229C18.3909 18.2481 18.1948 19.0548 18.178 19.5422V19.7018C18.1864 20.1892 18.3741 20.996 19.5786 20.996Z" fill="#313235"/>
</svg>
