<svg width="24" height="24" viewBox="0 0 24 24" fill="none" xmlns="http://www.w3.org/2000/svg">
<path fill-rule="evenodd" clip-rule="evenodd" d="M21.7143 5.07288C21.7143 3.94123 20.8375 3.10369 19.098 2.58269C17.9076 2.22974 16.3389 2.02806 14.6919 2.02246C13.0504 2.02246 11.4902 2.22134 10.2913 2.57708C8.85715 3.01126 8.00561 3.66952 7.75631 4.52946V4.53787C7.70869 4.71434 7.68348 4.89081 7.68348 5.06728V9.44823C7.62746 9.50425 7.57704 9.56028 7.53782 9.6247L2.12886 20.2802C2.05603 20.4174 2.01681 20.5715 2.02522 20.7311C2.03362 21.2437 2.45099 21.6555 2.94959 21.6555H2.96639L13.7031 21.6947H13.7451C13.759 21.6947 13.772 21.6973 13.7837 21.6996C13.7933 21.7014 13.802 21.7031 13.8095 21.7031C13.9804 21.7115 14.535 21.7115 14.6947 21.7115C16.3305 21.7115 17.8992 21.5183 19.098 21.1569C20.8375 20.6359 21.7143 19.8012 21.7143 18.6751V5.07288ZM10.6499 3.73955C9.7255 4.01966 9.14566 4.39221 8.96919 4.78437C9.13726 5.19333 9.7255 5.57148 10.6583 5.84319C11.7451 6.17372 13.1849 6.35019 14.7059 6.35019C16.2353 6.35019 17.6751 6.17372 18.7619 5.84319C19.6807 5.57148 20.2745 5.20173 20.451 4.79837C20.2325 4.29137 19.437 3.94683 18.7535 3.73675C17.6667 3.41462 16.2269 3.22974 14.6975 3.22974C13.1681 3.23255 11.7255 3.41742 10.6499 3.73955ZM20.507 9.50986V6.40902C20.1289 6.63311 19.6695 6.83479 19.1064 7.00285C17.9076 7.3642 16.3473 7.55748 14.7031 7.55748C13.0616 7.55748 11.4986 7.3642 10.3081 7.00285C9.7451 6.83198 9.26891 6.6247 8.89076 6.39221V9.26896C9.03642 9.3586 9.15687 9.48465 9.2381 9.63871L9.43978 10.0477C9.76191 10.2494 10.1793 10.4342 10.6555 10.5771C11.7423 10.9076 13.1821 11.0841 14.7115 11.0841C16.2409 11.0841 17.6723 10.9076 18.7591 10.5771C19.7591 10.2802 20.3053 9.82918 20.507 9.50986ZM7.7423 17.5351C7.7423 17.8684 8.01121 18.1373 8.34454 18.1373C8.67788 18.1373 8.94959 17.8656 8.94678 17.5351V13.6443C8.94678 13.311 8.67508 13.0421 8.34454 13.0421C8.01401 13.0421 7.7423 13.311 7.7423 13.6443V17.5351ZM8.95799 19.0869C8.95799 18.748 8.68348 18.4734 8.34454 18.4734C8.00561 18.4734 7.7311 18.748 7.7311 19.0869C7.7311 19.4258 8.00561 19.7003 8.34454 19.7003C8.68348 19.7003 8.95799 19.4258 8.95799 19.0869ZM20.507 11.1149V14.2578C20.3053 14.5883 19.7591 15.0393 18.7591 15.3306C17.6723 15.6527 16.2409 15.8376 14.7115 15.8376C13.8599 15.8376 13.0056 15.7732 12.2409 15.6611L10.2773 11.7171C10.2802 11.7215 10.2862 11.7236 10.2924 11.7258C10.2981 11.7278 10.3041 11.7299 10.3081 11.7339C11.5014 12.0869 13.07 12.2886 14.7115 12.2886C16.3529 12.2886 17.9132 12.0869 19.1064 11.7339C19.6387 11.5743 20.112 11.3558 20.507 11.1149ZM20.507 18.6779V15.8656C20.1121 16.1149 19.6387 16.325 19.1064 16.4846C17.9132 16.846 16.3529 17.0477 14.7115 17.0477C14.0756 17.0477 13.4734 17.0057 12.8768 16.9524L14.5658 20.3362C14.5855 20.3719 14.5926 20.4111 14.5996 20.4493C14.6035 20.471 14.6074 20.4924 14.6135 20.5127H14.6919C16.2129 20.5127 17.6555 20.3362 18.7479 20.0085C19.549 19.762 20.507 19.3362 20.507 18.6779ZM3.40617 20.4538L8.38656 10.6331L13.2969 20.493L3.40617 20.4538Z" fill="#313235"/>
</svg>
