<svg width="24" height="24" viewBox="0 0 24 24" fill="none" xmlns="http://www.w3.org/2000/svg">
<path d="M15.6784 19.7255C17.3619 21.0757 19.2443 21.8348 20.8913 21.8348C20.9669 21.8348 21.0426 21.832 21.1154 21.8292C21.2751 21.8208 21.4263 21.7703 21.5552 21.6863C21.8465 21.493 21.9193 21.1149 21.7176 20.8376C21.5468 20.5995 21.2274 20.5154 20.9613 20.6135C19.628 20.6527 17.9838 19.9832 16.4992 18.7899L16.4319 18.7367C15.5972 18.0673 14.8941 17.2773 14.3087 16.4118C14.5244 16.5995 14.7401 16.7647 14.9613 16.8936C15.8465 17.4146 16.7261 17.6807 17.5048 17.6807C17.9417 17.6807 18.3479 17.5967 18.7064 17.4258C19.2471 17.1681 19.9109 16.5995 20.0986 15.3558C21.0538 14.4902 21.1574 13.6443 21.065 13.0757C20.8969 12.0281 19.9417 11.0785 18.4459 10.4734C17.6 10.1289 16.3927 10.0505 15.2106 10.0897C16.2022 9.47064 17.1406 8.73955 17.6168 7.99445C18.4711 6.67512 18.6728 5.37261 18.1742 4.42583C17.9025 3.91042 17.3087 3.27737 16.0006 3.0981C15.0902 2.18494 14.205 2.0869 13.6084 2.17653C12.5104 2.3362 11.516 3.24936 10.8801 4.67513C10.5188 5.47905 10.4375 6.63031 10.4796 7.75916C9.82971 6.81518 9.0622 5.91882 8.28069 5.46504C6.89414 4.65272 5.52999 4.45664 4.5356 4.93283C3.99498 5.19053 3.33112 5.75916 3.14344 7.00285C2.18826 7.8684 2.08462 8.71434 2.17706 9.28296C2.34513 10.3306 3.30311 11.2774 4.7961 11.8824C5.51039 12.1737 6.48798 12.2774 7.49077 12.2774C7.67285 12.2774 7.85212 12.2718 8.03419 12.2662C7.0426 12.8852 6.10142 13.6191 5.62523 14.3642C4.77089 15.6835 4.56921 16.986 5.06781 17.9328C5.33952 18.4482 5.93616 19.0813 7.24148 19.2577C7.98657 20.0056 8.71486 20.2045 9.28349 20.2045C9.40674 20.2045 9.52719 20.1961 9.63363 20.1793C10.7345 20.0196 11.7289 19.1065 12.3619 17.6807C12.544 17.2773 12.6532 16.7815 12.7149 16.2521C13.4403 17.5491 14.4207 18.7143 15.614 19.6695" fill="#313235"/>
</svg>
