<svg width="24" height="24" viewBox="0 0 24 24" fill="none" xmlns="http://www.w3.org/2000/svg">
<path fill-rule="evenodd" clip-rule="evenodd" d="M15.2964 2C13.7023 2 12.188 2.19066 11.0323 2.53783C9.68585 2.94191 8.88597 3.54519 8.65825 4.32775V4.33059C8.61555 4.48426 8.59277 4.64077 8.59277 4.80013V7.66855C8.56376 7.66744 8.53518 7.66545 8.50635 7.66344L8.50634 7.66344C8.46164 7.66032 8.41635 7.65717 8.3679 7.65717C6.8393 7.65717 5.95118 8.24337 5.16838 8.76128L5.15259 8.77172C4.35451 9.29895 3.72294 9.71618 2.51824 9.52677C2.29337 9.4727 2.06564 9.60929 2.01156 9.8341C2.00302 9.8654 2.00017 9.89955 2.00017 9.93085L2.00015 9.9532C1.99969 10.353 1.99459 14.8119 2.33891 16.7661C2.79436 19.3955 7.96369 21.857 8.18572 21.9594C8.29958 22.0135 8.43052 22.0135 8.54154 21.9594L8.55681 21.9521C8.73408 21.8664 9.93137 21.2879 11.2002 20.4313C12.3388 20.7472 13.7792 20.9265 15.2935 20.9265C16.8819 20.9265 18.3991 20.7358 19.5605 20.3886C21.1802 19.902 22 19.1394 22 18.1235V4.80297C22 3.78707 21.1802 3.02444 19.5605 2.53783C18.4077 2.19066 16.8905 2 15.2964 2ZM19.3214 19.5919C18.234 19.9163 16.8051 20.0927 15.2935 20.0927C14.135 20.0927 13.0277 19.9874 12.0798 19.7911C13.2013 18.9174 14.2033 17.8589 14.394 16.769C14.4197 16.621 14.4396 16.473 14.4595 16.325L14.5961 16.3308H14.5961H14.5962H14.5962H14.5962H14.5963H14.5963H14.5963C14.8299 16.3407 15.0644 16.3507 15.3049 16.3507C16.899 16.3507 18.4134 16.16 19.5691 15.8128C20.2038 15.6222 20.7447 15.3575 21.166 15.0445V18.1207C21.1688 18.7296 20.5454 19.2219 19.3214 19.5919ZM2.98508 15.0331C3.01639 15.5653 3.07617 16.0974 3.15872 16.6238C3.43768 18.2203 6.25576 20.013 7.90106 20.8838V15.0331H2.98508ZM5.62667 9.45847C6.28422 9.02593 6.90762 8.61616 7.90106 8.51656V14.2022H2.93099C2.85698 12.7367 2.83706 11.1602 2.83421 10.4004C4.08954 10.4573 4.87234 9.95646 5.62667 9.45847ZM11.0437 6.52744C10.3633 6.32256 9.82533 6.06929 9.42681 5.76481V7.76815C10.3406 7.95881 10.981 8.37997 11.5617 8.76413C12.3673 9.29627 13.0021 9.71458 14.2261 9.52677C14.3513 9.50685 14.4766 9.541 14.5734 9.61783C14.6702 9.69466 14.7271 9.80849 14.7328 9.93085C14.7328 9.98207 14.7328 10.3292 14.7299 10.8472C14.7944 10.849 14.8587 10.8516 14.9229 10.8541C15.0513 10.8592 15.1797 10.8642 15.3106 10.8642C16.825 10.8642 18.254 10.6849 19.3328 10.3605C20.3974 10.0447 20.9696 9.55807 21.1688 9.19098V5.78188C20.776 6.07783 20.2494 6.3254 19.5719 6.52744C18.4162 6.87461 16.9018 7.06527 15.3078 7.06527C13.7137 7.06527 12.1994 6.87461 11.0437 6.52744ZM11.2685 3.33461C12.3502 3.01305 13.7763 2.83378 15.2935 2.83378C16.8108 2.83378 18.2397 3.01305 19.3186 3.33461C20.3718 3.65048 20.9753 4.06026 21.1261 4.55825C21.1247 4.56109 21.1226 4.56394 21.1204 4.56678C21.1183 4.56963 21.1162 4.57248 21.1147 4.57532C20.9383 5.03632 20.3206 5.43471 19.3271 5.7335C18.2483 6.05506 16.8193 6.23434 15.3049 6.23434C13.7906 6.23434 12.3616 6.05506 11.2828 5.7335C10.2637 5.42617 9.6403 5.0164 9.4809 4.53833C9.4809 4.53548 9.47805 4.53264 9.4752 4.52979C9.63746 4.05457 10.2523 3.64195 11.2685 3.33461ZM14.9109 11.685L14.9109 11.685L14.9108 11.685C14.8457 11.6825 14.7807 11.68 14.7157 11.6781C14.6958 12.8107 14.6502 14.2876 14.5534 15.4941C14.6244 15.4965 14.6952 15.4994 14.766 15.5023C14.9452 15.5096 15.125 15.5169 15.3106 15.5169C16.825 15.5169 18.254 15.3404 19.3328 15.016C20.3917 14.6973 20.9696 14.2136 21.1688 13.8465V10.3918C20.7475 10.702 20.2095 10.9667 19.5719 11.1573C18.4162 11.5045 16.9018 11.6952 15.3078 11.6952C15.1745 11.6952 15.0425 11.6901 14.9109 11.685ZM8.7351 8.51087C9.77979 8.59339 10.426 9.01455 11.1006 9.46132L11.1033 9.46314C11.8483 9.95488 12.6222 10.4657 13.893 10.3947C13.893 10.568 13.8909 10.7908 13.8885 11.0426L13.8885 11.0428L13.8874 11.1573C13.8851 11.1676 13.8819 11.1778 13.8787 11.1881C13.8739 11.2034 13.8691 11.2188 13.8674 11.2342C13.865 11.2676 13.8727 11.2991 13.8803 11.3302L13.8845 11.348C13.8731 12.3013 13.8447 13.2517 13.7991 14.2022H8.7351V8.51087ZM8.7351 15.0331V20.9293C10.3605 20.0813 13.2896 18.2487 13.5742 16.6238C13.6112 16.419 13.6397 16.1799 13.6682 15.921C13.6682 15.9128 13.6669 15.9045 13.6655 15.896C13.664 15.8868 13.6625 15.8772 13.6625 15.8669C13.6641 15.8541 13.6684 15.8413 13.6728 15.828C13.6763 15.8176 13.6799 15.807 13.6824 15.7958C13.708 15.5567 13.7279 15.3006 13.7479 15.0331H8.7351Z" fill="#313235"/>
</svg>
