<svg width="24" height="24" viewBox="0 0 24 24" fill="none" xmlns="http://www.w3.org/2000/svg">
<path fill-rule="evenodd" clip-rule="evenodd" d="M9.11838 20.025C9.49093 20.3976 9.88869 20.5824 10.2836 20.5824C10.673 20.5824 11.0624 20.4032 11.4209 20.0418L11.4265 20.0362L16.2164 15.1315L18.5918 17.5124C18.5974 17.5152 18.603 17.5208 18.6086 17.5264C18.9671 17.8541 19.5581 17.9466 20.0147 17.7421C20.4041 17.5684 20.631 17.2127 20.6282 16.7869L20.6338 4.64129C20.6562 4.36118 20.5665 4.10908 20.3817 3.92421C20.1968 3.73933 19.9447 3.6497 19.6646 3.66931H7.57777C7.10158 3.66651 6.71223 3.913 6.53296 4.32757C6.34248 4.77295 6.43492 5.33597 6.75144 5.6665L6.75985 5.6749L9.33967 8.25473L4.22484 13.067L4.21083 13.0811C3.99234 13.2995 3.76265 13.5684 3.68982 13.9046C3.61139 14.2743 3.73184 14.6357 4.05117 14.983L4.06797 14.9998L9.11838 20.025ZM9.87749 19.2631L4.83828 14.2463C4.77666 14.1791 4.75425 14.1371 4.74584 14.1203C4.75705 14.0923 4.79907 14.0166 4.96713 13.8458L10.152 8.96621L10.1632 8.95501C10.3453 8.77294 10.4489 8.53484 10.4573 8.27994C10.4657 8.01664 10.3649 7.76173 10.1828 7.57966L7.53015 4.92701C7.50494 4.88779 7.50214 4.78695 7.52175 4.75054C7.53015 4.74774 7.54696 4.74493 7.57217 4.74493H19.5609L19.5553 16.7673C19.4909 16.7813 19.3845 16.7673 19.3425 16.7365L16.8943 14.2883C16.5189 13.913 15.9027 13.9214 15.5189 14.3051L15.5133 14.3107L10.659 19.2827C10.5554 19.3864 10.4069 19.5096 10.2808 19.5096H10.278C10.1772 19.5068 10.0343 19.42 9.87749 19.2631Z" fill="#313235"/>
</svg>
