<svg width="24" height="24" viewBox="0 0 24 24" fill="none" xmlns="http://www.w3.org/2000/svg">
<path fill-rule="evenodd" clip-rule="evenodd" d="M5.22692 21.4328C4.6807 21.4328 4.19891 20.9678 4.19891 20.4384V18.1023C2.9356 17.8446 2.01123 16.7185 2.01123 15.3292V5.6821C2.01123 4.12187 3.28854 2.85297 4.85717 2.85297H18.8404C20.409 2.85297 21.6835 4.12187 21.6835 5.6821V15.332C21.6835 16.8922 20.409 18.1611 18.8404 18.1611H8.29694L6.09526 20.979C5.75353 21.4328 5.35577 21.4328 5.22692 21.4328ZM4.85437 3.97341C3.90479 3.97341 3.13168 4.74092 3.13168 5.6821V15.332C3.13168 16.3067 3.83196 17.0406 4.75913 17.0406C5.06725 17.0406 5.31935 17.2927 5.31935 17.6009V20.1527L7.58266 17.2591C7.6891 17.1247 7.85157 17.0434 8.02524 17.0434H18.8376C19.7871 17.0434 20.5603 16.2759 20.5603 15.3348V5.6821C20.5603 4.73812 19.7871 3.97341 18.8376 3.97341H4.85437ZM17.8095 8.90899H5.87678C5.56865 8.90899 5.31655 8.65689 5.31655 8.34876C5.31655 8.04064 5.56865 7.78854 5.87678 7.78854H17.8095C18.1177 7.78854 18.3698 8.04064 18.3698 8.34876C18.3698 8.65689 18.1177 8.90899 17.8095 8.90899ZM13.986 13.2787H5.87678C5.56865 13.2787 5.31655 13.0266 5.31655 12.7185C5.31655 12.4104 5.56865 12.1583 5.87678 12.1583H13.986C14.2941 12.1583 14.5462 12.4104 14.5462 12.7185C14.5462 13.0266 14.2941 13.2787 13.986 13.2787Z" fill="#313235"/>
</svg>
