<svg width="24" height="24" viewBox="0 0 24 24" fill="none" xmlns="http://www.w3.org/2000/svg">
<path fill-rule="evenodd" clip-rule="evenodd" d="M21.6218 13.4454C21.6218 11.028 20.958 9.16246 19.6499 7.89916C18.7815 7.05602 17.6358 6.5098 16.2493 6.2521C15.9216 5.29692 15.423 4.48739 14.7535 3.84314C13.4958 2.62745 11.6807 2.0112 9.35854 2.0112C7.03641 2.0112 5.22409 2.62745 3.97198 3.84314C2.67226 5.10364 2.0112 6.96919 2.0112 9.38936C2.0112 11.8095 2.66946 13.6723 3.97198 14.9272C4.83753 15.7675 5.98599 16.3109 7.37815 16.5686C7.70588 17.5266 8.20168 18.3389 8.87114 18.9832C10.1204 20.1905 11.9328 20.8039 14.2577 20.8039C16.5798 20.8039 18.395 20.1933 19.6499 18.986C20.958 17.7283 21.6218 15.8655 21.6218 13.4454ZM5.23249 4.38655C6.10924 3.72269 7.29131 3.34734 8.74789 3.26891H8.7507V4.65546C7.7731 4.73389 6.95518 5.0056 6.31092 5.46499L5.23249 4.38655ZM4.36414 5.26611C3.71148 6.14846 3.33893 7.32493 3.2605 8.78151H4.64705C4.72549 7.80392 4.98319 6.98039 5.43417 6.33613L4.36414 5.26611ZM3.26346 10.0224L3.2633 10.0196V10.0224H3.26346ZM4.65266 10.0224H3.26346C3.34781 11.4749 3.72031 12.6476 4.37815 13.5238L5.45098 12.451C4.99719 11.8095 4.73389 10.9944 4.65266 10.0224ZM14.2605 16.972C13.3137 16.972 12.5658 16.7787 12.0084 16.4202C12.5882 16.2605 13.1232 16.0476 13.605 15.7759C14.0252 15.5378 14.409 15.2577 14.7507 14.9328C15.3865 14.3193 15.8683 13.563 16.1961 12.6723C16.4286 12.0392 16.5798 11.3333 16.6583 10.5658C16.6839 10.585 16.7106 10.6036 16.7376 10.6223L16.7376 10.6223L16.7376 10.6223C16.7931 10.6609 16.8492 10.6998 16.8964 10.7451C17.4902 11.3193 17.7927 12.2297 17.7927 13.4454C17.7927 14.6611 17.4902 15.5686 16.8964 16.1401C16.3193 16.6919 15.4342 16.972 14.2605 16.972ZM19.2493 17.5742C19.9104 16.6975 20.2857 15.5266 20.3669 14.0756H18.9804C18.8964 15.0476 18.633 15.8627 18.1765 16.5014L19.2493 17.5742ZM14.8823 19.549C16.3277 19.4678 17.5014 19.1008 18.3753 18.4482L17.2997 17.3697C16.6583 17.8179 15.8487 18.0812 14.8823 18.1625V19.549ZM13.6471 19.549V18.1625C12.6807 18.084 11.8683 17.8207 11.2269 17.3725L10.1485 18.451C11.028 19.1036 12.2017 19.4706 13.6471 19.549ZM10.1316 16.7255L9.27731 17.5798C9.08403 17.3193 8.91036 17.042 8.7647 16.7311L8.87759 16.7362L8.87768 16.7362H8.87771C9.03359 16.7434 9.19054 16.7507 9.35294 16.7507C9.61904 16.7507 9.87675 16.7395 10.1316 16.7255ZM7.04761 15.2325C7.44817 15.3417 7.88515 15.4174 8.34733 15.4622C8.38976 15.4658 8.43218 15.4697 8.47469 15.4736L8.47475 15.4736L8.47482 15.4736L8.47488 15.4736L8.47494 15.4736L8.47501 15.4736L8.47507 15.4736L8.47513 15.4736L8.4752 15.4737C8.56446 15.4819 8.65413 15.4901 8.74509 15.4958V14.1092C8.68166 14.1033 8.61515 14.1003 8.54886 14.0974C8.46 14.0935 8.37152 14.0897 8.29131 14.0784C8.26633 14.074 8.24366 14.0681 8.22128 14.0622L8.22125 14.0622L8.22123 14.0622C8.20097 14.0569 8.18095 14.0516 8.15966 14.0476C7.71708 13.972 7.32212 13.8403 6.95798 13.6751C6.94397 13.6695 6.92717 13.6611 6.91596 13.6555C6.70588 13.5602 6.5098 13.4482 6.32493 13.3221L5.24649 14.4006C5.7507 14.7703 6.35574 15.0476 7.04761 15.2325ZM9.35854 5.84874C8.18767 5.84874 7.30252 6.12885 6.72829 6.68347C6.13725 7.2577 5.83473 8.16807 5.83473 9.38375C5.83473 10.6022 6.13445 11.5098 6.72549 12.0784C6.77262 12.1238 6.8268 12.1609 6.88118 12.1981L6.8812 12.1981C6.91084 12.2184 6.94053 12.2388 6.96918 12.2605C7.29131 12.5014 7.68907 12.6723 8.15966 12.7787C8.19315 12.7858 8.22518 12.7933 8.25706 12.8007L8.25708 12.8007L8.2571 12.8007C8.3132 12.8138 8.36887 12.8268 8.43137 12.8375C8.71708 12.8824 9.0196 12.9104 9.35574 12.9104C9.39402 12.9104 9.42777 12.9067 9.46162 12.9031L9.46165 12.9031C9.48724 12.9003 9.51289 12.8976 9.54061 12.8964C9.80112 12.888 10.0504 12.8711 10.2829 12.8347C10.4594 12.8067 10.6246 12.7703 10.7843 12.7227C11.2717 12.5854 11.6807 12.3725 11.9916 12.0756C12.465 11.619 12.7423 10.9468 12.8403 10.084C12.8655 9.85994 12.8851 9.63025 12.8851 9.38095C12.8851 9.23453 12.873 9.09873 12.861 8.96462L12.861 8.9646L12.861 8.96454L12.861 8.96448L12.861 8.96442L12.861 8.96436L12.861 8.96434L12.861 8.96432C12.8567 8.91638 12.8524 8.86865 12.8487 8.82073C12.8011 8.29412 12.6863 7.84034 12.507 7.45658C12.3669 7.15966 12.2017 6.89356 11.9888 6.68067C11.8739 6.57143 11.7423 6.48179 11.605 6.39496C11.0476 6.03922 10.3025 5.84874 9.35854 5.84874ZM9.98039 4.65546V3.26891C11.4342 3.35014 12.6134 3.72549 13.493 4.39216L12.4174 5.46779C11.7731 5.0084 10.958 4.73669 9.98039 4.65546ZM13.4734 14.3922L12.3978 13.3137C12.2605 13.409 12.1204 13.5014 11.9664 13.577C11.6106 13.7619 11.2101 13.8992 10.7731 13.9916C10.7056 14.0068 10.6331 14.0159 10.5603 14.025L10.5603 14.025C10.5123 14.031 10.4642 14.037 10.4174 14.0448C10.3445 14.056 10.2717 14.0672 10.1961 14.0756C10.1609 14.0797 10.127 14.0851 10.0928 14.0905L10.0928 14.0905L10.0928 14.0905C10.0563 14.0963 10.0195 14.1021 9.98039 14.1064V15.493C10.3781 15.4678 10.7535 15.423 11.1092 15.3557C11.7395 15.2381 12.3025 15.0532 12.7983 14.8011C13.0392 14.6779 13.2661 14.5462 13.4734 14.3922ZM13.7423 12.9104L13.2773 12.4454C13.5854 12.0112 13.8039 11.4958 13.9412 10.9048C14.0056 10.6246 14.0532 10.3305 14.0784 10.0168H15.465V10.0392C15.4342 10.5742 15.3641 11.07 15.2549 11.5294C15.1373 12.0224 14.9664 12.465 14.7563 12.8655C14.6358 13.098 14.5014 13.3165 14.3501 13.5182L13.7423 12.9104ZM14.3585 5.27171L13.5378 6.09244L13.2913 6.33893C13.4286 6.53781 13.5434 6.7563 13.6471 6.98319C13.6653 7.02165 13.6849 7.05878 13.7045 7.09585C13.7419 7.16677 13.7791 7.23742 13.8067 7.31653C13.9496 7.72269 14.0252 8.18767 14.0728 8.68067C14.1008 8.67946 14.1272 8.67666 14.1533 8.67388L14.1533 8.67387L14.1534 8.67387L14.1534 8.67387L14.1534 8.67387L14.1534 8.67387C14.1875 8.67025 14.2213 8.66667 14.2577 8.66667C14.4146 8.66667 14.5614 8.68111 14.7074 8.69548C14.7647 8.70112 14.8219 8.70675 14.8795 8.71148L14.9549 8.71776C15.1291 8.73214 15.3034 8.74654 15.465 8.77591V8.78151H15.4902C15.4818 8.77871 15.4734 8.77591 15.465 8.77591C15.437 8.27171 15.3753 7.79552 15.2773 7.35854C15.1793 6.92437 15.0504 6.52381 14.8823 6.15686V6.13725H14.8767L14.8724 6.12804L14.869 6.12045C14.864 6.10925 14.859 6.09804 14.8515 6.08683C14.7115 5.78992 14.5434 5.52101 14.3585 5.27171ZM16.5798 7.59384C17.2773 7.78151 17.888 8.06442 18.395 8.44818L17.3193 9.52381C17.1316 9.38935 16.93 9.27451 16.7143 9.17367C16.7031 8.61625 16.6611 8.08683 16.5798 7.59384ZM20.3669 12.8403C20.2885 11.3866 19.916 10.2101 19.2605 9.32773L18.1933 10.3978C18.6471 11.042 18.9048 11.8627 18.9832 12.8403H20.3669ZM8.06162 8.08123C7.91876 8.20168 7.96638 8.48179 7.99439 8.59944C8.00636 8.65074 8.02668 8.70412 8.04707 8.75768L8.04707 8.75768L8.04708 8.75771C8.06009 8.79188 8.07312 8.82612 8.08403 8.85994C8.18487 9.15966 8.31932 9.46218 8.521 9.77591C8.60784 9.91597 8.69187 10.0308 8.77591 10.1429C8.89635 10.2997 9.0224 10.4454 9.19607 10.6246C9.21848 10.6499 9.28851 10.7227 9.34733 10.7675L9.36694 10.7815H9.36974C9.43977 10.7227 9.5126 10.6471 9.53221 10.6246C9.73109 10.4146 9.87114 10.2549 10.0056 10.07L10.0207 10.049C10.0805 9.96585 10.1427 9.87942 10.2073 9.77871C10.3922 9.4902 10.5182 9.21008 10.619 8.93557C10.6315 8.90006 10.645 8.86454 10.6586 8.82911C10.6877 8.75278 10.7167 8.67685 10.7339 8.60224C10.7647 8.46498 10.7983 8.21849 10.6751 8.09804C10.674 8.09696 10.6733 8.09504 10.6726 8.09294C10.6714 8.08958 10.6701 8.08575 10.6667 8.08403C10.605 8.03081 10.507 7.9972 10.4006 7.9916C10.2521 7.98039 10.1064 8.02521 9.96078 8.10364C9.92437 8.12325 9.88795 8.14566 9.85154 8.16807C9.80392 8.19328 9.7591 8.21849 9.71148 8.2493L9.56302 8.33893L9.21568 8.34454L9.09523 8.28851L9.05602 8.27171C8.92717 8.19608 8.84593 8.14846 8.7675 8.10644C8.7571 8.1005 8.7467 8.09692 8.73588 8.0932C8.72631 8.0899 8.7164 8.08649 8.70588 8.08123C8.59103 8.02801 8.47058 7.9944 8.35854 7.9944H8.32493C8.22128 7.9944 8.12044 8.02801 8.06162 8.08123ZM7.2577 7.14006C6.79551 7.54062 6.62465 8.17367 6.79271 8.88515C6.90196 9.34174 7.11204 9.80952 7.38655 10.2745C7.40149 10.2994 7.41421 10.3243 7.42694 10.3492C7.44285 10.3803 7.45876 10.4115 7.47899 10.4426C7.73949 10.8487 7.95518 11.1204 8.30532 11.479L8.33053 11.5042C8.38935 11.563 8.5126 11.6807 8.62745 11.7675C8.77871 11.8739 8.94677 11.9496 9.10084 11.9804C9.15966 11.9972 9.22689 12.0084 9.27731 12.0112L9.36694 12.014L9.42857 12.0112C9.49579 12.0084 9.56022 11.9972 9.60504 11.986C9.6153 11.9834 9.62557 11.9797 9.63611 11.9758C9.64857 11.9713 9.66141 11.9666 9.67507 11.9636C9.82352 11.9216 9.96918 11.8599 10.098 11.7675C10.2241 11.6751 10.3725 11.5294 10.423 11.4734C10.7255 11.1569 10.93 10.9104 11.1485 10.5826L11.1485 10.5825C11.1793 10.5378 11.2101 10.493 11.2437 10.4426C11.3669 10.2521 11.4622 10.0588 11.5546 9.87115C11.6751 9.63305 11.7675 9.39496 11.8403 9.15966C11.8518 9.12173 11.8661 9.0838 11.8804 9.04607C11.9009 8.99184 11.9212 8.93801 11.9328 8.88515C12.0448 8.41176 11.9944 7.98319 11.8207 7.62185C11.7339 7.44258 11.6246 7.27451 11.4706 7.14006C11.2241 6.92997 10.8964 6.80672 10.549 6.77031C10.535 6.76891 10.521 6.76541 10.507 6.7619C10.493 6.7584 10.479 6.7549 10.465 6.7535C10.0924 6.73389 9.71148 6.82633 9.36414 7.01961C9.0168 6.82633 8.64425 6.73389 8.2633 6.7535C7.88235 6.77311 7.52661 6.91036 7.2577 7.14006Z" fill="#313235"/>
</svg>
