<svg width="24" height="24" viewBox="0 0 24 24" fill="none" xmlns="http://www.w3.org/2000/svg">
<path fill-rule="evenodd" clip-rule="evenodd" d="M11.7759 4.09368C11.7759 4.32703 11.9637 4.51485 12.1941 4.51485C12.4246 4.51485 12.6124 4.32703 12.6124 4.09652V2.56835C12.6124 2.33784 12.4246 2.15002 12.1941 2.15002C11.9637 2.15002 11.7759 2.33784 11.7759 2.56835V4.09368ZM18.9462 17.9981C19.6006 17.9981 20.1725 18.4648 20.1725 18.9998V21.1483C20.1725 21.6805 19.5977 22.15 18.9462 22.15H5.4421C4.77629 22.15 4.21575 21.6919 4.21575 21.1483V18.9998C4.21575 18.4562 4.77913 17.9981 5.4421 17.9981H5.80915V11.8455C5.80915 7.64803 8.01715 5.43119 12.1913 5.43119C16.3683 5.43119 18.5791 7.64803 18.5791 11.8455V17.9952H18.9462V17.9981ZM6.64569 17.9724V11.8484C6.64569 8.14604 8.50939 6.27353 12.1941 6.27353C15.8732 6.27353 17.7426 8.14889 17.7426 11.8484V17.9724H6.64569ZM19.3388 21.1256C19.3161 21.1825 19.1425 21.3105 18.9433 21.3105H5.4421C5.22585 21.3105 5.06651 21.1853 5.05229 21.1483V19.0083C5.07505 18.9571 5.23154 18.8376 5.4421 18.8376H18.9462C19.1453 18.8376 19.3161 18.9656 19.336 18.9998L19.3388 21.1256ZM4.50882 9.62868C4.50882 9.85919 4.32103 10.047 4.09056 10.0499H2.56829C2.33782 10.0499 2.15002 9.86203 2.15002 9.63153V9.62868C2.15002 9.39533 2.33782 9.20751 2.56829 9.20751H4.08771C4.32103 9.20751 4.50882 9.39533 4.50882 9.62868ZM22.15 9.65429C22.15 9.42379 21.9622 9.23597 21.7318 9.23597L20.2095 9.23027C19.979 9.23027 19.7912 9.42094 19.7912 9.65145V9.65429C19.7912 9.8848 19.979 10.0726 20.2095 10.0726H21.7318C21.9622 10.0726 22.15 9.8848 22.15 9.65429ZM5.73517 5.73853L4.65963 4.65714C4.49744 4.49208 4.49744 4.22743 4.65963 4.06238C4.82181 3.90017 5.08643 3.89732 5.24862 4.05953L5.25146 4.06238L6.32701 5.14376C6.48919 5.30882 6.48635 5.57632 6.32131 5.74137C6.24449 5.81821 6.14206 5.8609 6.03393 5.8609C5.91727 5.8609 5.812 5.81536 5.73517 5.73853ZM17.1166 5.31736C17.1166 5.55071 17.3072 5.73568 17.5377 5.73568C17.6487 5.73608 17.7553 5.69201 17.8336 5.61331L18.9092 4.53193C19.0714 4.36687 19.0714 4.10222 18.9092 3.93716L18.9063 3.93432C18.7441 3.77211 18.4795 3.77495 18.3173 3.93716L17.2418 5.01855C17.1621 5.09823 17.1166 5.20637 17.1166 5.31736ZM14.7236 12.7875V11.8171H13.0677C12.8372 11.8171 12.6494 11.6293 12.6494 11.3987V9.73397H11.6791V11.3987C11.6791 11.6293 11.4942 11.8171 11.2637 11.8199H9.6077V12.7932H11.2637C11.4942 12.7932 11.682 12.981 11.682 13.2115V14.8763H12.6522V13.2115C12.6522 12.981 12.8372 12.7903 13.0705 12.7903L14.7236 12.7875ZM15.5602 11.6492C15.5602 11.2906 15.2187 10.9776 14.8261 10.9776H13.4859V9.63153C13.4859 9.23881 13.1729 8.89447 12.8173 8.89447H11.5141C11.1584 8.89447 10.8454 9.23881 10.8454 9.63153V10.9804H9.50527C9.10692 10.9804 8.77117 11.2878 8.77117 11.652V12.9611C8.77117 13.3253 9.10692 13.6327 9.50527 13.6327H10.8454V14.9787C10.8454 15.3771 11.1527 15.7158 11.5141 15.7158H12.8173C13.1786 15.7158 13.4859 15.38 13.4859 14.9787V13.6298H14.8261C15.2159 13.6298 15.5602 13.3168 15.5602 12.9582V11.6492Z" fill="#313235"/>
</svg>
