<svg width="24" height="24" viewBox="0 0 24 24" fill="none" xmlns="http://www.w3.org/2000/svg">
<path fill-rule="evenodd" clip-rule="evenodd" d="M17.3165 9.47197C18.07 9.58402 19.9776 10.0462 21.084 11.9061C22.4818 14.2479 21.0196 15.5196 20.9552 15.5756C20.8459 15.6709 20.7031 15.7213 20.5546 15.7213H18.1737C17.944 16.9342 17.0084 17.6653 15.6078 17.6653C14.2073 17.6653 13.2661 16.9342 13.0392 15.7213H9.61904C9.38655 16.9286 8.45097 17.6568 7.05322 17.6568C5.65826 17.6568 4.71988 16.9286 4.49019 15.7213H2.7731C2.49299 15.7241 2.24929 15.5364 2.17646 15.2675C2.17606 15.2655 2.17512 15.2613 2.17371 15.255C2.14604 15.1321 1.93697 14.2038 2.0196 12.8417C2.0084 11.7801 2.68907 9.99858 4.22969 8.49718C5.31372 7.43836 7.19607 6.17786 10.0112 6.17786C14.4762 6.17786 16.7031 8.65405 17.3165 9.47197ZM18.1737 14.528H20.2689C20.4454 14.2563 20.6779 13.6036 20.0196 12.5C18.986 10.7661 17.014 10.6288 16.93 10.626C16.7283 10.6148 16.5434 10.5084 16.437 10.3375C16.3641 10.2199 14.521 7.36833 10.0084 7.36833C7.61624 7.36833 6.0168 8.43556 5.09803 9.33472C3.87114 10.5308 3.23809 12.0182 3.24369 12.8697C3.20167 13.5868 3.24369 14.161 3.29131 14.528H4.48179C4.70588 13.3067 5.64705 12.5672 7.05322 12.5672C8.45938 12.5672 9.40055 13.3067 9.62464 14.528H13.0364C13.2605 13.3095 14.2017 12.5756 15.605 12.5756C17.0084 12.5756 17.9468 13.3095 18.1737 14.528ZM14.2101 15.119C14.2101 16.0294 14.6639 16.472 15.605 16.472C16.5434 16.472 17 16.0294 17 15.119C17 14.2087 16.5434 13.7661 15.605 13.7661C14.6667 13.7661 14.2101 14.2087 14.2101 15.119ZM7.05322 16.4664C6.11204 16.4664 5.65826 16.0238 5.65826 15.1134C5.65826 14.2003 6.11484 13.7577 7.05322 13.7577C7.99159 13.7577 8.45097 14.2003 8.45097 15.1134C8.44817 16.0238 7.99159 16.4664 7.05322 16.4664Z" fill="#313235"/>
</svg>
