<svg width="24" height="24" viewBox="0 0 24 24" fill="none" xmlns="http://www.w3.org/2000/svg">
<path fill-rule="evenodd" clip-rule="evenodd" d="M11.052 3.34998C11.8727 3.34998 15.9623 3.54325 17.1388 7.27434C18.5534 7.38638 21.8363 8.12308 21.8363 12.4872C21.8363 17.4788 17.5253 17.7337 16.6626 17.7337L15.0828 17.7421V19.8233C15.0828 20.2379 14.7186 20.5768 14.2845 20.5768H9.69343C9.25645 20.5768 8.89511 20.2379 8.89511 19.8149V17.7757L6.37971 17.7925C4.32929 17.7925 2.15002 16.6497 2.15002 13.462C2.15002 10.8486 3.5982 9.83176 4.65142 9.4424C4.75786 3.64689 9.99035 3.34998 11.052 3.34998ZM16.2452 15.0082C16.3769 15.0054 16.4945 14.927 16.5478 14.8065C16.5954 14.6777 16.5702 14.5432 16.4805 14.4396L12.2761 9.98021C12.2088 9.92139 12.1276 9.87937 12.038 9.87937C11.9483 9.87937 11.8643 9.91579 11.8055 9.98021L7.50296 14.5236C7.40492 14.6189 7.37971 14.7645 7.43853 14.8878C7.48335 15.011 7.60099 15.0922 7.73265 15.0922L9.60099 15.1007C9.66822 15.0979 9.72424 15.1511 9.72424 15.2183V17.7393C9.72424 17.7429 9.72424 17.7449 9.72359 17.7468C9.72272 17.7492 9.72067 17.7513 9.71584 17.7561V19.7197L14.2592 19.7281V15.1343C14.2648 15.0586 14.3153 15.0082 14.3909 15.0082H16.2452Z" fill="#313235"/>
</svg>
