<svg width="24" height="24" viewBox="0 0 24 24" fill="none" xmlns="http://www.w3.org/2000/svg">
<path fill-rule="evenodd" clip-rule="evenodd" d="M11.4301 4.23126C11.4301 4.56739 11.7018 4.8391 12.0352 4.8391C12.3713 4.8363 12.6402 4.56459 12.6402 4.23126V2.75787C12.6402 2.42173 12.3685 2.15002 12.0352 2.15002C11.7018 2.15002 11.4301 2.42173 11.4301 2.75787V4.23126ZM18.545 17.4273C19.2845 17.4273 19.9287 17.9736 19.9287 18.5954V20.6654C19.9287 21.2901 19.2817 21.8363 18.545 21.8363H5.52537C4.77467 21.8363 4.14162 21.3013 4.14162 20.6654V18.5954C4.14162 17.9623 4.77467 17.4273 5.52537 17.4273H5.67664V11.7018C5.67664 7.5842 7.93434 5.31529 12.0324 5.31529C16.1332 5.31529 18.3909 7.5842 18.3909 11.7018V17.4273H18.545ZM6.88672 17.4049V11.7018C6.88672 8.22285 8.57019 6.53098 12.0324 6.53098C15.5002 6.53098 17.1836 8.22285 17.1836 11.7018V17.4049H6.88672ZM18.7187 18.6934V20.5674C18.6682 20.601 18.6066 20.6206 18.545 20.6206H5.52537C5.46375 20.6206 5.40493 20.6066 5.35171 20.5758V18.6878C5.40493 18.657 5.46375 18.6402 5.52537 18.6402H18.545C18.6066 18.6402 18.6654 18.6598 18.7187 18.6934ZM4.82509 9.56179C4.82509 9.89512 4.55619 10.1668 4.22005 10.1696H2.75507C2.41893 10.1668 2.15002 9.89512 2.15002 9.56179C2.15002 9.22565 2.42173 8.95395 2.75507 8.95395H4.22285C4.55619 8.95395 4.8279 9.22565 4.82509 9.56179ZM21.8363 9.5898C21.8363 9.25367 21.5646 8.98196 21.2313 8.98196H19.7635C19.4301 8.98196 19.1584 9.25367 19.1584 9.5898C19.1584 9.92593 19.4301 10.1976 19.7635 10.1976H21.2313C21.5674 10.1976 21.8363 9.92313 21.8363 9.5898ZM5.66543 5.95675L4.62902 4.91473C4.39092 4.67664 4.39092 4.29288 4.62902 4.05479C4.86431 3.81949 5.24526 3.81669 5.48056 4.05199L5.48336 4.05479L6.51977 5.0968C6.75507 5.3377 6.75507 5.72145 6.51417 5.95955C6.40213 6.07159 6.25086 6.13322 6.0912 6.13602C5.93154 6.13322 5.77748 6.06879 5.66543 5.95675ZM16.587 5.39932C16.5842 5.73546 16.8531 6.00997 17.1892 6.01277C17.3489 6.01277 17.503 5.94834 17.6178 5.8335L18.6542 4.79148C18.8895 4.55619 18.8895 4.17243 18.6542 3.93434L18.6514 3.93154C18.4161 3.69624 18.0352 3.69904 17.7999 3.93434L16.7635 4.97636C16.6514 5.0884 16.587 5.23966 16.587 5.39932ZM14.3545 12.489V11.7943H12.8755C12.587 11.7943 12.3517 11.5562 12.3517 11.2677V9.78588H11.6598V11.2677C11.6598 11.559 11.4245 11.7943 11.136 11.7943H9.65983V12.489H11.136C11.4245 12.489 11.6598 12.7243 11.6598 13.0156V14.4974H12.3517V13.0156C12.3517 12.7243 12.587 12.489 12.8755 12.489H14.3545ZM15.4049 11.5086C15.4049 11.094 15.024 10.7411 14.5758 10.7411C14.5758 10.7411 13.3993 10.7411 13.4021 10.7355V9.55899C13.4021 9.10801 13.0492 8.72706 12.6346 8.72706H11.3797C10.9652 8.72706 10.6122 9.11081 10.6122 9.56179V10.7411H9.44134C8.99316 10.7411 8.61221 11.0912 8.61221 11.5086V12.7719C8.61221 13.1892 8.99316 13.5422 9.44134 13.5422H10.615V14.7187C10.615 15.1696 10.968 15.5506 11.3825 15.5506H12.6374C13.0548 15.5506 13.4049 15.1696 13.4049 14.7187V13.5394H14.5758C15.024 13.5394 15.4049 13.1864 15.4049 12.7719V11.5086Z" fill="#313235"/>
</svg>
