<svg width="24" height="24" viewBox="0 0 24 24" fill="none" xmlns="http://www.w3.org/2000/svg">
<path fill-rule="evenodd" clip-rule="evenodd" d="M21.5979 13.1264V9.31734C21.6007 9.28988 21.6007 9.25967 21.5952 9.22946V6.71938C21.5952 6.39258 21.4606 6.08225 21.2272 5.85431C20.9938 5.62637 20.6779 5.4973 20.3511 5.50004H3.53855C2.86022 5.4973 2.30823 6.04106 2.29999 6.71938V17.9543C2.30823 18.6299 2.85473 19.1737 3.53031 19.1737H20.3511C20.6834 19.1737 20.9992 19.0446 21.2354 18.8139C21.4689 18.5805 21.6007 18.2646 21.5979 17.9378V13.2143C21.6007 13.1841 21.6007 13.1566 21.5979 13.1264ZM3.10464 12.7364V9.72378H20.796V12.7364H3.10464ZM3.53855 6.30744C3.42321 6.3047 3.31336 6.34864 3.23097 6.42828C3.14858 6.50792 3.10189 6.61502 3.10189 6.73037V8.93012H20.7795V6.73037C20.7795 6.49693 20.5873 6.30744 20.3539 6.30744H3.53855ZM20.6669 18.2509C20.5818 18.3306 20.4692 18.3745 20.3539 18.369H3.5413C3.42595 18.3717 3.3161 18.3278 3.23371 18.2482C3.15133 18.1685 3.10464 18.0587 3.10464 17.9461V13.5328H20.796V17.9461C20.796 18.0614 20.7493 18.1713 20.6669 18.2509Z" fill="#313235"/>
</svg>
