<svg width="24" height="24" viewBox="0 0 24 24" fill="none" xmlns="http://www.w3.org/2000/svg">
<path fill-rule="evenodd" clip-rule="evenodd" d="M21.6862 4.93001C21.6862 3.85158 20.8459 3.05046 19.1904 2.55467C18.0588 2.21573 16.577 2.02806 15.0224 2.01965C13.465 2.01965 11.9832 2.20733 10.8515 2.54626C9.4818 2.95802 8.66668 3.58547 8.42859 4.4118C8.38097 4.57707 8.35576 4.74793 8.35576 4.9244V7.48182H8.33615C6.80675 7.48182 5.92159 8.06445 5.14289 8.57985L5.14203 8.58042C4.40294 9.07034 3.82035 9.45653 2.74514 9.28853C2.56587 9.24651 2.37539 9.28573 2.22973 9.40057C2.08688 9.51262 2.00004 9.68629 2.00004 9.87116C2.00004 9.87519 2.00004 9.88115 2.00003 9.88896C1.99973 10.2504 1.99607 14.5903 2.33057 16.4986C2.78155 19.0868 7.54064 21.3949 8.08125 21.6498C8.16248 21.689 8.25212 21.7086 8.33895 21.7086C8.42859 21.7086 8.51542 21.6918 8.59665 21.6526C8.84035 21.5378 9.94399 21.0028 11.1233 20.2157C12.2213 20.5098 13.5826 20.675 15.0196 20.675C16.5714 20.675 18.0532 20.4874 19.1904 20.1484C20.8459 19.6526 21.6862 18.8515 21.6862 17.7731V4.93001ZM9.63867 4.6639C9.80953 4.29976 10.3445 3.96362 11.1989 3.70592C12.2213 3.4006 13.5798 3.23253 15.0196 3.23253C16.4622 3.23253 17.8207 3.4034 18.8431 3.70872C19.4818 3.8992 20.2157 4.21572 20.4201 4.67791C20.2521 5.04205 19.703 5.38098 18.8515 5.63588C17.8291 5.94121 16.4734 6.10927 15.0308 6.10927C13.5882 6.10927 12.2325 5.9384 11.2101 5.63308C10.3445 5.37258 9.80113 5.03085 9.63867 4.6639ZM9.56304 6.23812V7.63588C10.3894 7.84036 10.9888 8.22691 11.5322 8.58545C12.2717 9.07565 12.8599 9.4622 13.9552 9.28853C14.1316 9.26332 14.3165 9.31094 14.451 9.42298C14.5854 9.53783 14.6723 9.70029 14.6751 9.87676C14.6751 9.91878 14.6751 10.1793 14.6723 10.5658C14.7127 10.5668 14.7528 10.568 14.7928 10.5693L14.793 10.5693L14.7932 10.5693H14.7932H14.7933H14.7933C14.8723 10.5718 14.9509 10.5742 15.0308 10.5742C16.4734 10.5742 17.8291 10.4062 18.8515 10.0981C19.7927 9.81514 20.2997 9.39777 20.4762 9.09525V6.25213C20.126 6.45661 19.703 6.63588 19.196 6.78714C18.0644 7.12607 16.5854 7.31375 15.028 7.31375C13.4706 7.31375 11.9916 7.12607 10.8599 6.78714C10.3501 6.63308 9.91878 6.44821 9.56304 6.23812ZM13.1625 16.2969C12.888 17.8739 9.79833 19.7143 8.33895 20.4425C6.50142 19.535 3.76754 17.7199 3.52104 16.2941C3.27175 14.8739 3.22133 11.8599 3.21292 10.5322H3.22413C4.38036 10.5322 5.13366 10.0342 5.81125 9.58618L5.81235 9.58545L5.82139 9.57952C6.51833 9.12231 7.1787 8.68909 8.33895 8.68909H8.34175C9.50981 8.69189 10.1709 9.12607 10.8684 9.58825L10.8747 9.59244C11.5453 10.0339 12.2894 10.5238 13.4678 10.5238H13.4706C13.4691 10.6034 13.4684 10.69 13.4677 10.7819L13.4677 10.7822L13.4677 10.7824L13.4677 10.7826V10.7828C13.467 10.8653 13.4663 10.9521 13.465 11.042C13.4628 11.0518 13.4598 11.0612 13.4567 11.0707C13.4519 11.0855 13.4471 11.1005 13.4454 11.1177C13.4435 11.1441 13.4492 11.1693 13.4549 11.1941C13.4576 11.206 13.4604 11.2179 13.4622 11.2297C13.4454 12.4566 13.395 14.2465 13.2633 15.5266C13.2619 15.5378 13.2584 15.5476 13.2549 15.5574C13.2514 15.5672 13.2479 15.577 13.2465 15.5882C13.2449 15.5978 13.2469 15.6064 13.249 15.6151C13.2505 15.6218 13.2521 15.6286 13.2521 15.6358C13.2269 15.8767 13.1961 16.1036 13.1625 16.2969ZM11.3053 13.7395C11.549 13.7395 11.7479 13.9384 11.7479 14.1821V14.8151C11.7479 15.0588 11.549 15.2577 11.3053 15.2577C11.0616 15.2577 10.8628 15.0616 10.8628 14.8151V14.6246H10.7899C10.7843 15.0812 10.7423 15.5182 10.6359 15.9132L11.2241 16.0924C11.4202 16.1512 11.549 16.3361 11.5378 16.5378L11.4874 17.4902C11.4734 17.7255 11.2801 17.9075 11.0448 17.9075H11.0224C10.7787 17.8935 10.591 17.6863 10.605 17.4426L10.6359 16.8347L10.2493 16.7171C9.89077 17.1793 9.30814 17.4818 8.33615 17.4818C7.36136 17.4818 6.77873 17.1793 6.42019 16.7143L6.01963 16.8347L6.05045 17.4426C6.06445 17.6863 5.87678 17.8935 5.63308 17.9075H5.60787C5.37258 17.9075 5.1793 17.7255 5.1653 17.4902L5.11488 16.5378C5.10367 16.3361 5.23252 16.1512 5.4286 16.0924L6.03364 15.9104C5.93 15.5154 5.88798 15.0784 5.88238 14.6274H5.80955V14.8179C5.80955 15.0616 5.61067 15.2605 5.36698 15.2605C5.12328 15.2605 4.9244 15.0644 4.9244 14.8179V14.1849C4.9244 13.9412 5.12328 13.7423 5.36698 13.7423H5.90759C5.9412 13.3753 6.01403 13.0196 6.14848 12.7003L5.4286 12.4818C5.23252 12.423 5.10367 12.2381 5.11488 12.0364L5.1653 11.0812C5.1793 10.8375 5.38378 10.6527 5.63028 10.6639C5.87398 10.6779 6.06165 10.8852 6.04764 11.1289L6.01683 11.7367L6.41459 11.8571C6.40619 11.7843 6.39778 11.7115 6.39778 11.6331C6.39778 10.2381 7.75632 10.2381 8.33895 10.2381C8.92158 10.2381 10.2801 10.2381 10.2801 11.6331C10.2801 11.7087 10.2717 11.7787 10.2633 11.8487L10.6359 11.7367L10.605 11.1289C10.591 10.8852 10.7787 10.6779 11.0224 10.6639C11.2689 10.6527 11.4762 10.8375 11.4874 11.0812L11.5378 12.0364C11.549 12.2381 11.4202 12.423 11.2241 12.4818L10.5182 12.6947C10.6555 13.014 10.7255 13.3753 10.7619 13.7423H11.3053V13.7395ZM7.28573 11.6331C7.28573 11.3333 7.28573 11.1205 8.34175 11.1205C9.39497 11.1205 9.39497 11.3333 9.39497 11.6331V11.6527C9.09525 11.5518 8.75071 11.4958 8.33895 11.4958C7.92999 11.4958 7.58545 11.549 7.28854 11.6499C7.28573 11.6443 7.28573 11.6415 7.28573 11.6331ZM9.91037 14.4874C9.91037 16.1428 9.57144 16.5966 8.33895 16.5966C7.10366 16.5966 6.76753 16.1456 6.76753 14.4846C6.76753 13.451 6.91319 12.8992 7.26052 12.6331C7.48741 12.4594 7.84035 12.3754 8.33895 12.3754C8.83475 12.3754 9.18489 12.4594 9.41178 12.6303C9.76191 12.8936 9.91037 13.4482 9.91037 14.4874ZM8.75632 13.4762C8.75632 13.2297 8.55744 13.0336 8.31374 13.0336C8.06724 13.0336 7.86836 13.2325 7.87117 13.4762V15.8459C7.87117 16.0924 8.07004 16.2885 8.31374 16.2885C8.55744 16.2885 8.75632 16.0896 8.75632 15.8459V13.4762ZM18.8431 18.9972C19.5882 18.7731 20.479 18.3781 20.479 17.7731V15.1821C20.112 15.4034 19.6834 15.5938 19.2017 15.7395C18.07 16.0784 16.5882 16.2661 15.0336 16.2661C14.8965 16.2661 14.7627 16.2606 14.6294 16.2551C14.5504 16.2518 14.4714 16.2486 14.3921 16.2465C14.3859 16.285 14.3803 16.3241 14.3747 16.3628C14.3676 16.4112 14.3607 16.459 14.3529 16.5042C14.1793 17.4986 13.3669 18.451 12.4034 19.2633C13.2017 19.3977 14.0896 19.4734 15.0196 19.4734C16.4566 19.4734 17.8151 19.3053 18.8431 18.9972ZM14.6583 11.7675C14.6386 12.7647 14.5994 13.9888 14.5154 15.0448C14.5741 15.0467 14.6322 15.0492 14.69 15.0518H14.6901C14.8034 15.0567 14.9158 15.0616 15.0308 15.0616C16.4734 15.0616 17.8291 14.8935 18.8515 14.5854C19.7899 14.3025 20.2969 13.8851 20.4762 13.5854V10.6947C20.1092 10.916 19.6806 11.1065 19.1988 11.2521C18.0672 11.591 16.5854 11.7787 15.0308 11.7787C14.9099 11.7787 14.7942 11.7736 14.6738 11.7682L14.6737 11.7682L14.6583 11.7675Z" fill="#313235"/>
</svg>
