<svg width="24" height="24" viewBox="0 0 24 24" fill="none" xmlns="http://www.w3.org/2000/svg">
<path fill-rule="evenodd" clip-rule="evenodd" d="M18.9804 20.098H4.60225C3.17367 20.098 2.00841 18.9356 2.00841 17.5042V6.2745C2.00841 4.84593 3.17087 3.68066 4.60225 3.68066H19.0616C20.4902 3.68066 21.6555 4.84313 21.6555 6.2745V17.423C21.6555 18.8964 20.4538 20.098 18.9804 20.098ZM4.60225 4.75629C3.76471 4.75629 3.08404 5.43697 3.08404 6.2745V7.5322H20.5798V6.2745C20.5798 5.43697 19.8992 4.75629 19.0616 4.75629H4.60225ZM20.5798 8.60503V17.423C20.5798 18.3053 19.8627 19.0224 18.9804 19.0224H4.60225C3.76471 19.0224 3.08404 18.3417 3.08404 17.5042V8.60503H20.5798ZM9.88796 16.5378C9.88796 16.3585 9.91317 16.1989 9.96639 16.0588C10.0196 15.9188 10.1092 15.7759 10.2353 15.6246L11.3894 14.2185C11.7479 13.7843 11.9944 13.4538 12.1261 13.2241C12.2605 12.9944 12.3249 12.7647 12.3249 12.535C12.3249 12.2801 12.2465 12.0896 12.0896 11.9608C11.916 11.8095 11.6163 11.7339 11.1877 11.7339C10.8179 11.7339 10.4286 11.7703 10.0252 11.8459V10.9244C10.2101 10.8767 10.4286 10.8403 10.6807 10.8067C10.9328 10.7759 11.1737 10.7591 11.4062 10.7591C12.2213 10.7591 12.8151 10.944 13.1849 11.3137C13.4678 11.5966 13.6106 11.9832 13.6106 12.4678C13.6106 12.8319 13.5182 13.1821 13.3333 13.5154C13.1485 13.8487 12.8179 14.2745 12.3445 14.7955L11.3109 15.9244H13.7087V16.8095H9.92157C9.89916 16.7507 9.88796 16.6583 9.88796 16.5378ZM6.86835 6.74509C6.96919 6.84873 7.15687 6.97478 7.46219 6.97478C7.76751 6.97478 7.95519 6.84873 8.05603 6.74509C8.15687 6.64425 8.27451 6.45938 8.27451 6.16246C8.27451 5.67506 7.94678 5.34733 7.46219 5.34733C6.9776 5.34733 6.64986 5.67506 6.64986 6.16246C6.64986 6.45938 6.77031 6.64425 6.86835 6.74509ZM15.6219 6.74509C15.7227 6.84873 15.9104 6.97478 16.2157 6.97478C16.521 6.97478 16.7087 6.84873 16.8095 6.74229C16.9104 6.64145 17.028 6.45657 17.028 6.15966C17.028 5.84873 16.8992 5.66106 16.7899 5.55741C16.6891 5.46218 16.507 5.34733 16.2157 5.34733C15.7311 5.34733 15.4034 5.67506 15.4034 6.16246C15.4034 6.45938 15.5238 6.64425 15.6219 6.74509Z" fill="#313235"/>
</svg>
