<svg width="24" height="24" viewBox="0 0 24 24" fill="none" xmlns="http://www.w3.org/2000/svg">
<path fill-rule="evenodd" clip-rule="evenodd" d="M5.60255 17.9988L18.4065 18.0072C19.5241 18.0072 20.3925 17.6963 20.9863 17.0801C21.5577 16.489 21.8462 15.6431 21.8462 14.5675V8.29016C21.8462 6.09128 20.625 4.8784 18.4065 4.8784L5.59975 4.87C3.38126 4.87 2.15997 6.08008 2.15997 8.28176V14.5591C2.15997 15.6347 2.44849 16.4806 3.02272 17.0717C3.61375 17.6879 4.4821 17.9988 5.60255 17.9988ZM2.7202 20.2117L21.286 20.2201C21.5941 20.2201 21.8462 19.968 21.8462 19.6599C21.8462 19.3518 21.5941 19.0997 21.286 19.0997L2.7202 19.0913C2.41207 19.0913 2.15997 19.3434 2.15997 19.6515C2.15997 19.9596 2.41207 20.2117 2.7202 20.2117Z" fill="#313235"/>
</svg>
