<svg width="24" height="24" viewBox="0 0 24 24" fill="none" xmlns="http://www.w3.org/2000/svg">
<path fill-rule="evenodd" clip-rule="evenodd" d="M21.8433 7.07044L21.8293 16.8463C21.8573 17.062 21.8909 17.7343 21.4371 18.2833C21.1906 18.5774 20.7088 18.936 19.8181 18.95C19.2999 18.9612 17.3503 18.964 14.9833 18.964C11.4393 18.964 6.96048 18.9556 4.94295 18.9518C4.35645 18.9507 3.97796 18.95 3.8909 18.95C3.84328 18.964 3.22983 18.9472 2.73964 18.471C2.35588 18.0985 2.16261 17.5634 2.16261 16.8828V7.08445C2.157 7.01722 2.11779 6.10685 2.68922 5.50741C2.99174 5.18809 3.4091 5.02002 3.8909 5.02002L20.1374 5.02282C20.6192 4.99481 21.7985 5.35896 21.8433 7.07044ZM3.8881 6.2161L20.1514 6.2189C20.1654 6.2189 20.4931 6.2301 20.6024 6.77072L12.7761 11.4878C11.8097 12.1181 10.9413 11.527 10.8769 11.4794L3.38669 6.77072C3.4119 6.60825 3.46513 6.42898 3.56597 6.32254C3.61639 6.27492 3.69762 6.2161 3.8881 6.2161ZM20.5015 17.527C20.3475 17.7091 20.031 17.7511 19.7957 17.7567C18.6605 17.7756 10.3522 17.7646 6.21003 17.7591H6.20994L6.20741 17.7591C4.83155 17.7572 3.91601 17.756 3.87689 17.7567C3.76485 17.7427 3.6612 17.6951 3.57997 17.6195C3.4007 17.4458 3.36429 17.1237 3.36429 16.8856V8.17408L10.1962 12.4682C10.2382 12.499 10.9189 12.9808 11.8573 12.9808C12.3279 12.9808 12.8657 12.8576 13.4203 12.4962L20.636 8.14887L20.6248 16.8856L20.6332 16.9808C20.6329 16.9811 20.6332 16.9856 20.6338 16.9936C20.6382 17.0574 20.6584 17.3453 20.5015 17.527Z" fill="#313235"/>
</svg>
