<svg width="24" height="24" viewBox="0 0 24 24" fill="none" xmlns="http://www.w3.org/2000/svg">
<path d="M17.8711 11.9383C16.9439 11.9383 16.1064 12.2829 15.4481 12.8319L13.9243 11.4957C14.3641 10.8851 14.633 10.14 14.633 9.33049C14.633 9.23525 14.6106 9.14562 14.605 9.05318L17.0055 8.3445C17.4369 9.05038 18.21 9.52657 19.098 9.52657C20.4565 9.52657 21.5573 8.42293 21.5573 7.0672C21.5573 5.71146 20.4537 4.60782 19.098 4.60782C17.7422 4.60782 16.6358 5.71146 16.6358 7.0672C16.6358 7.08961 16.6414 7.10641 16.6414 7.12882L14.3025 7.81789C13.7198 6.52378 12.4229 5.61342 10.9131 5.61342C9.88233 5.61342 8.95236 6.03359 8.27729 6.71146L6.7871 5.43415C6.96917 5.10642 7.08402 4.73107 7.08402 4.32771C7.08402 3.05601 6.04761 2.0224 4.77591 2.0224C3.5042 2.0224 2.47059 3.05601 2.47059 4.32771C2.47059 5.59942 3.5042 6.63302 4.77591 6.63302C5.18207 6.63302 5.55741 6.52098 5.88795 6.33611L7.55461 7.76187C7.33052 8.24086 7.19606 8.76747 7.19606 9.32769C7.19606 10.1204 7.45096 10.8543 7.87673 11.4593L6.521 12.7871C6.04201 12.3977 5.44257 12.154 4.77871 12.154C3.2493 12.154 2.00281 13.3977 2.00281 14.9271C2.00281 16.4565 3.2465 17.7002 4.77871 17.7002C6.31091 17.7002 7.55461 16.4565 7.55461 14.9271C7.55461 14.5237 7.46217 14.14 7.30531 13.7927L8.77589 12.3557C9.38093 12.7843 10.1176 13.042 10.9159 13.042C11.6974 13.042 12.4229 12.7983 13.0224 12.3837L14.619 13.7843C14.2717 14.3585 14.0616 15.0223 14.0616 15.7422C14.0616 16.238 14.1624 16.7058 14.3361 17.14L12.675 17.9047C12.2521 17.4145 11.633 17.0952 10.9327 17.0952C9.66104 17.0952 8.62463 18.1288 8.62463 19.4005C8.62463 20.6694 9.66104 21.7058 10.9327 21.7058C12.2044 21.7058 13.2381 20.6722 13.2381 19.4005C13.2381 19.2828 13.2212 19.1708 13.2044 19.0587L15.0084 18.2296C15.7086 19.0335 16.7282 19.5545 17.8739 19.5545C19.9775 19.5545 21.689 17.8459 21.689 15.745C21.6862 13.6498 19.9747 11.9383 17.8711 11.9383Z" fill="#313235"/>
</svg>
