<svg width="24" height="24" viewBox="0 0 24 24" fill="none" xmlns="http://www.w3.org/2000/svg">
<path fill-rule="evenodd" clip-rule="evenodd" d="M21.7142 4.93C21.7142 3.85157 20.8739 3.05325 19.2184 2.55465C18.0868 2.21572 16.605 2.02804 15.0391 2.01404C13.4817 2.01404 11.9999 2.20171 10.8683 2.54065C9.49852 2.95241 8.6834 3.57986 8.4453 4.40619C8.39768 4.57146 8.37247 4.74233 8.37247 4.9188V7.47622H8.36127C6.83295 7.47622 5.95077 8.05802 5.16967 8.57316L5.16799 8.57426L5.16102 8.57891C4.42485 9.0697 3.84529 9.45608 2.77583 9.28575C2.59656 9.24093 2.40329 9.28014 2.25763 9.39499C2.11197 9.50984 2.02513 9.68351 2.02513 9.86838C2.02513 9.87308 2.02513 9.8804 2.02511 9.89023C2.02466 10.2788 2.01963 14.5944 2.35567 16.4958C2.80945 19.0869 7.56855 21.395 8.10917 21.6499C8.1904 21.6891 8.28004 21.7087 8.36687 21.7087C8.45371 21.7087 8.54334 21.6919 8.62457 21.6527C8.86827 21.5378 9.97191 21.0028 11.1512 20.2157C12.2492 20.5098 13.6106 20.6751 15.0447 20.6751C16.5994 20.6751 18.0812 20.4874 19.2184 20.1485C20.8739 19.6527 21.7142 18.8516 21.7142 17.7731V4.93ZM9.66379 4.6639C9.83466 4.29975 10.3697 3.96362 11.224 3.70591C12.2436 3.40059 13.6022 3.23253 15.0447 3.22972C16.4901 3.22972 17.8487 3.39779 18.8683 3.70311C19.5041 3.89639 20.2408 4.21292 20.4453 4.6751C20.2772 5.03925 19.7282 5.37818 18.8767 5.63309C17.8543 5.93841 16.4985 6.10647 15.0559 6.10647C13.6162 6.10647 12.2576 5.93841 11.2352 5.63309C10.3697 5.37538 9.82625 5.03084 9.66379 4.6639ZM9.58816 6.24093V7.63309C10.4201 7.83757 11.0223 8.22692 11.5658 8.58547C12.3052 9.07566 12.8907 9.46222 13.9915 9.28855C14.168 9.26334 14.3557 9.30816 14.4873 9.423C14.6218 9.53785 14.7086 9.70031 14.7114 9.87678C14.7114 9.9188 14.7114 10.1793 14.7086 10.5659C14.7481 10.5668 14.7873 10.5681 14.8264 10.5693L14.8266 10.5693L14.8268 10.5693L14.8268 10.5693C14.904 10.5718 14.9807 10.5743 15.0587 10.5743C16.5013 10.5743 17.8571 10.4062 18.8795 10.0981C19.8207 9.81516 20.3249 9.39779 20.5069 9.09527V6.24933C20.1568 6.45381 19.731 6.63309 19.2268 6.78435C18.0952 7.12328 16.6134 7.31096 15.0587 7.31096C13.5013 7.31096 12.0223 7.12608 10.8879 6.78715C10.3725 6.63309 9.9383 6.45101 9.58816 6.24093ZM13.1932 16.297C12.9159 17.874 9.82906 19.7143 8.36687 20.4426C6.90749 19.7143 3.82345 17.874 3.54614 16.2941C3.29684 14.874 3.24642 11.86 3.23802 10.5322C4.37808 10.5266 5.15959 10.0364 5.84026 9.58547L5.8493 9.57954C6.54624 9.12233 7.20662 8.68911 8.36687 8.68911H8.36967C9.53774 8.69191 10.196 9.12608 10.8963 9.58827L10.9027 9.59246C11.5733 10.034 12.3174 10.5238 13.4957 10.5238H13.4985C13.4901 11.8488 13.4397 14.8712 13.1932 16.297ZM10.5854 12.1989C10.8207 11.9636 11.2044 11.9636 11.4397 12.1989C11.675 12.4342 11.675 12.8152 11.4397 13.0505L7.79264 16.6835C7.6806 16.7956 7.52654 16.86 7.36687 16.86C7.20721 16.86 7.05315 16.7956 6.9411 16.6835L5.30244 15.0505C5.06715 14.8152 5.06715 14.4342 5.30244 14.1989C5.54054 13.9636 5.92149 13.9636 6.15679 14.1989L7.36687 15.4062L10.5854 12.1989ZM18.8711 18.9972C19.6162 18.7731 20.5041 18.3782 20.5041 17.7731V15.1821C20.1372 15.4034 19.7086 15.5939 19.224 15.7395C18.0952 16.0785 16.6134 16.2661 15.0559 16.2661C14.8838 16.2661 14.7169 16.259 14.5498 16.2518L14.5497 16.2518L14.4229 16.2465C14.4168 16.2844 14.4112 16.3222 14.4057 16.3596L14.4057 16.3597L14.4057 16.3597C14.3986 16.4081 14.3916 16.4556 14.3837 16.5014V16.5042C14.21 17.5014 13.3977 18.451 12.4341 19.2633C13.2296 19.3978 14.1148 19.4734 15.0447 19.4734C16.4845 19.4734 17.8431 19.3054 18.8711 18.9972ZM14.6918 11.7703C14.6722 12.7675 14.633 13.9916 14.5517 15.0477C14.5932 15.049 14.6347 15.0506 14.6762 15.0521L14.6766 15.0522L14.6767 15.0522C14.8032 15.0569 14.9302 15.0617 15.0587 15.0617C16.5041 15.0617 17.8599 14.8936 18.8795 14.5883C19.8179 14.3054 20.3249 13.888 20.5069 13.5855V10.6947C20.14 10.916 19.7114 11.1065 19.2268 11.2521C18.0952 11.5911 16.6134 11.7787 15.0587 11.7787C14.995 11.7787 14.9327 11.7766 14.8711 11.7745C14.8109 11.7724 14.7513 11.7703 14.6918 11.7703Z" fill="#313235"/>
</svg>
