<svg width="24" height="24" viewBox="0 0 24 24" fill="none" xmlns="http://www.w3.org/2000/svg">
<path fill-rule="evenodd" clip-rule="evenodd" d="M6.75071 21.6667H16.3698C17.5826 21.6667 18.5322 21.3137 19.1877 20.6219C19.8039 19.9692 20.1177 19.0588 20.1177 17.9188V14.8123C20.1177 14.7926 20.1166 14.7731 20.1146 14.7538C21.1591 13.8244 22.0479 13.0294 22.1793 12.8992C22.5546 12.5294 22.7535 12.07 22.7563 11.5714C22.7535 11.056 22.549 10.563 22.1877 10.1961C21.6761 9.68668 20.8545 9.46095 20.1177 9.7657V5.80673C20.1177 3.42578 18.7171 2.00281 16.3698 2.00281H6.75071C4.40337 2.00281 3.00281 3.42578 3.00281 5.80673V17.9188C3.00281 19.0588 3.31653 19.9692 3.93278 20.6219C4.58824 21.3165 5.53782 21.6667 6.75071 21.6667ZM18.9972 10.6378C18.4221 11.154 17.415 12.0483 16.337 13.0028H6.80673C6.49861 13.0028 6.24651 13.2549 6.24651 13.563C6.24651 13.8712 6.49861 14.1233 6.80673 14.1233H15.0705C14.6158 14.5252 14.1734 14.916 13.7703 15.2717C13.6975 15.3361 13.6415 15.4202 13.6107 15.5126L13.312 16.4034H6.80673C6.49861 16.4034 6.24651 16.6555 6.24651 16.9636C6.24651 17.2717 6.49861 17.5238 6.80673 17.5238H12.9363L12.6499 18.3782C12.6303 18.437 12.6219 18.4958 12.6219 18.5574C12.6219 18.8684 12.874 19.1177 13.1821 19.1177C13.2409 19.1177 13.2997 19.1064 13.3557 19.0896L16.2269 18.1401C16.2997 18.1177 16.367 18.0784 16.423 18.028C16.6731 17.807 17.8027 16.8073 18.9972 15.7468V17.9188C18.9972 19.6611 18.1121 20.5462 16.3698 20.5462H6.75071C5.00841 20.5462 4.12326 19.6611 4.12326 17.9188V5.80673C4.12326 4.95519 4.33614 4.29412 4.75351 3.84034C5.19048 3.36415 5.86275 3.12326 6.75071 3.12326H16.3698C17.2577 3.12326 17.93 3.36415 18.367 3.84034C18.7843 4.29412 18.9972 4.95519 18.9972 5.80673V10.6378ZM6.80673 7.32214H16.3698C16.6779 7.32214 16.93 7.07003 16.93 6.76191C16.93 6.45379 16.6779 6.20169 16.3698 6.20169H6.80673C6.49861 6.20169 6.24651 6.45379 6.24651 6.76191C6.24651 7.07003 6.49861 7.32214 6.80673 7.32214ZM6.80673 10.7227H16.3698C16.6779 10.7227 16.93 10.4706 16.93 10.1625C16.93 9.85435 16.6779 9.60225 16.3698 9.60225H6.80673C6.49861 9.60225 6.24651 9.85435 6.24651 10.1625C6.24651 10.4706 6.49861 10.7227 6.80673 10.7227ZM14.07 17.6751L14.6275 16.014L14.7752 15.8835L14.7755 15.8832L14.7757 15.8831C15.9408 14.8539 19.9835 11.2827 20.2801 10.9888C20.7395 10.5294 21.2437 10.8319 21.4006 10.9888C21.5518 11.1457 21.6387 11.3529 21.6415 11.5686C21.6415 11.7647 21.5574 11.944 21.3978 12.1036C21.1709 12.3277 17.9384 15.1933 15.7675 17.1149L14.07 17.6751Z" fill="#313235"/>
</svg>
