<svg width="24" height="24" viewBox="0 0 24 24" fill="none" xmlns="http://www.w3.org/2000/svg">
<path fill-rule="evenodd" clip-rule="evenodd" d="M21.6863 8.5546V11.5462C21.6863 11.5636 21.6818 11.5792 21.6774 11.5946L21.6774 11.5946C21.674 11.6064 21.6707 11.6181 21.6695 11.6302V17.9019C21.6695 18.6778 21.0308 19.3081 20.2409 19.3081H3.43978C2.65266 19.3081 2.0112 18.6778 2.0112 17.9019V11.5938C2.0102 11.5888 2.00847 11.5834 2.00667 11.5778C2.00345 11.5677 2 11.557 2 11.5462V8.5546C2 8.54452 2.00303 8.53443 2.00605 8.52435L2.00605 8.52435C2.00807 8.51762 2.01008 8.5109 2.0112 8.50418V6.76748C2.0112 5.99157 2.64986 5.35852 3.43978 5.35852H20.2409C21.028 5.35852 21.6695 5.98877 21.6695 6.76468V8.47057C21.6707 8.48273 21.674 8.49437 21.6774 8.50617L21.6774 8.5062C21.6818 8.52156 21.6863 8.53718 21.6863 8.5546ZM3.43978 6.5462C3.31653 6.5462 3.21569 6.64423 3.21569 6.76748V7.96076H20.465V6.76748C20.465 6.64423 20.3669 6.5462 20.2437 6.5462H3.43978ZM20.2409 18.1204C20.3613 18.1204 20.4622 18.0224 20.4622 17.9019V12.14H3.21569V17.9019C3.21569 18.0252 3.31653 18.1232 3.43978 18.1204H20.2409ZM20.465 10.9524H3.21569V9.14844H20.465V10.9524ZM18.479 15.2045C18.479 16.154 17.8683 16.3641 17.3557 16.3725H17.2185C17.1036 16.3725 16.7703 16.3445 16.5014 16.154C16.6078 15.8851 16.6751 15.5742 16.6751 15.2045C16.6751 14.8291 16.605 14.5126 16.493 14.2409C16.7563 14.0532 17.084 14.028 17.2045 14.028H17.3445C17.8627 14.0392 18.479 14.2549 18.479 15.2045ZM14.507 16.3725C15.0196 16.3641 15.6303 16.154 15.6303 15.2045C15.6303 14.2549 15.014 14.0392 14.4958 14.028H14.3501C13.8459 14.0308 13.2465 14.2353 13.2465 15.1961C13.2465 16.1568 13.8571 16.3669 14.3669 16.3753C14.3641 16.3725 14.507 16.3725 14.507 16.3725ZM19.5238 15.2073C19.5238 13.6162 18.3641 13.0252 17.3753 13.0028C17.3193 13 17.2521 12.9972 17.1905 13.0028C16.9748 13.0028 16.3613 13.0476 15.8403 13.4313C15.4538 13.1596 14.9944 13.0112 14.521 13.0028C14.4594 13 14.3978 13 14.3361 13C13.3501 13.0084 12.1961 13.5882 12.1961 15.1961C12.1961 16.8039 13.3557 17.3893 14.3473 17.4033H14.521C15 17.4005 15.465 17.2493 15.8543 16.9748C16.3529 17.3417 16.9328 17.4005 17.1989 17.4033H17.3725C18.3641 17.3865 19.5238 16.8011 19.5238 15.2073Z" fill="#313235"/>
</svg>
