<svg width="24" height="24" viewBox="0 0 24 24" fill="none" xmlns="http://www.w3.org/2000/svg">
<path fill-rule="evenodd" clip-rule="evenodd" d="M10.4762 17.042H16.7451C17.5742 17.042 18.2773 16.7591 18.8347 16.2017C19.3669 15.6723 19.7507 14.916 20.0168 13.8908C20.1345 13.4342 20.5238 11.8711 20.8992 10.3585C21.0448 9.77741 21.1861 9.21102 21.311 8.7103L21.3112 8.70971L21.3117 8.70772L21.3117 8.70765C21.4532 8.14033 21.5737 7.6575 21.6555 7.33333C21.6667 7.28852 21.6723 7.2437 21.6723 7.19608C21.6723 6.88796 21.4202 6.63585 21.112 6.63585H17.7227V5.45098C17.7227 5.33894 17.6779 5.23249 17.5994 5.15406L14.591 2.14566L14.5882 2.14286C14.5098 2.06443 14.4034 2.01961 14.2913 2.01961H10.2913C9.81233 2.01961 9.5042 2.32773 9.5042 2.80392V6.65025C9.46366 6.64083 9.42146 6.63585 9.37815 6.63585H7.09902C6.88714 5.40939 6.71575 4.42274 6.65827 4.10084C6.43978 2.88235 5.28852 2 3.92157 2H2.57423C2.26611 2 2.01401 2.2521 2.01401 2.56022C2.01401 2.86835 2.26611 3.12045 2.57423 3.12045H3.92437C4.7367 3.12045 5.43698 3.62465 5.55743 4.29692C5.7367 5.31373 7.05883 12.986 7.19048 13.8375C7.35294 14.8655 7.7367 15.6695 8.32773 16.2269C8.89636 16.7591 9.63866 17.042 10.4762 17.042ZM16.8852 5.87395V12.7787H15.7479H10.3529V2.86275H13.874V4.08123C13.8768 4.61345 13.9804 5.01681 14.1905 5.31653C14.3698 5.56863 14.7227 5.87115 15.3838 5.87395H15.7311H16.8852ZM20.395 7.7563H17.7227V12.8431C17.7227 13.3109 17.4202 13.6162 16.9496 13.6162L16.4482 13.619H10.2941C9.80673 13.619 9.5042 13.3165 9.5042 12.8263V7.74191C9.46366 7.75132 9.42146 7.7563 9.37815 7.7563H7.29234C7.72251 10.2523 8.22006 13.1577 8.29972 13.6639C8.42297 14.4398 8.68908 15.0252 9.09804 15.4118C9.45658 15.7507 9.92157 15.9216 10.4762 15.9216H16.7423C17.4258 15.9216 18.395 15.6835 18.93 13.6106C19.0068 13.3162 19.1982 12.5491 19.427 11.6319C19.5487 11.1441 19.681 10.6138 19.8123 10.0896C20.028 9.22129 20.2353 8.38936 20.395 7.7563ZM9.28292 21.2549C9.57423 21.535 9.97479 21.6779 10.4762 21.6779C10.9776 21.6779 11.381 21.535 11.6695 21.2549C11.9748 20.9608 12.1289 20.549 12.1289 20.0252C12.1289 19.5014 11.9748 19.0896 11.6695 18.7955C11.3782 18.5154 10.9748 18.3725 10.4762 18.3725C9.97759 18.3725 9.57423 18.5154 9.28292 18.7955C8.97759 19.0896 8.82353 19.5014 8.82353 20.0252C8.82353 20.549 8.97759 20.9608 9.28292 21.2549ZM10.4762 19.493C10.0672 19.493 9.94398 19.6162 9.94398 20.0252C9.94398 20.4342 10.0672 20.5574 10.4762 20.5574C10.8852 20.5574 11.0084 20.4342 11.0084 20.0252C11.0084 19.6162 10.8852 19.493 10.4762 19.493ZM14.7451 21.2549C15.0364 21.535 15.437 21.6779 15.9384 21.6779C16.4398 21.6779 16.8431 21.535 17.1317 21.2549C17.437 20.9608 17.591 20.549 17.591 20.0252C17.591 19.5014 17.4342 19.0896 17.1317 18.7955C16.8403 18.5154 16.437 18.3725 15.9384 18.3725C15.4398 18.3725 15.0364 18.5154 14.7451 18.7955C14.4398 19.0896 14.2857 19.5014 14.2857 20.0252C14.2857 20.549 14.4398 20.9608 14.7451 21.2549ZM15.9384 19.493C15.5294 19.493 15.4062 19.6162 15.4062 20.0252C15.4062 20.4342 15.5294 20.5574 15.9384 20.5574C16.3473 20.5574 16.4706 20.4342 16.4706 20.0252C16.4706 19.6162 16.3473 19.493 15.9384 19.493ZM11.3109 7.61625H15.6807C15.9104 7.61625 16.1008 7.42857 16.1008 7.19608C16.1008 6.96359 15.9132 6.77591 15.6807 6.77591H11.3109C11.0784 6.77591 10.8908 6.96359 10.8908 7.19608C10.8908 7.42857 11.0784 7.61625 11.3109 7.61625ZM11.3109 9.52941H15.6807C15.9104 9.52941 16.1008 9.34174 16.1008 9.10924C16.1008 8.87675 15.9132 8.68908 15.6807 8.68908H11.3109C11.0784 8.68908 10.8908 8.87675 10.8908 9.10924C10.8908 9.34174 11.0784 9.52941 11.3109 9.52941ZM15.6807 11.4398H11.3109C11.0784 11.4398 10.8908 11.2521 10.8908 11.0196C10.8908 10.7871 11.0784 10.5994 11.3109 10.5994H15.6807C15.9132 10.5994 16.1008 10.7871 16.1008 11.0196C16.1008 11.2521 15.9104 11.4398 15.6807 11.4398ZM14.7143 3.45658V4.07843C14.7171 4.95798 15.0336 5.03361 15.3866 5.03361H16.2885L14.7143 3.45658Z" fill="#313235"/>
</svg>
