<svg width="24" height="24" viewBox="0 0 24 24" fill="none" xmlns="http://www.w3.org/2000/svg">
<path d="M10.281 20.5881H10.2586C9.86361 20.5825 9.47986 20.392 9.11571 20.0278L4.0681 15.0026L4.05129 14.9858C3.73196 14.6385 3.61151 14.2771 3.68995 13.9074C3.76278 13.5713 3.99247 13.3024 4.21095 13.0839L4.22496 13.0699L9.34261 8.25754L6.76277 5.67771L6.75437 5.66931C6.43784 5.33877 6.34541 4.77575 6.53588 4.33037C6.71235 3.9158 7.10171 3.66931 7.5751 3.66931H19.6647C19.9448 3.6497 20.1969 3.73933 20.3818 3.92421C20.5667 4.10908 20.6563 4.36398 20.6339 4.64129L20.6283 16.7869C20.6395 17.2015 20.3958 17.5797 20.0149 17.7421C19.5583 17.9466 18.9645 17.8542 18.6087 17.5264L18.5919 17.5124L16.2166 15.1343L11.4266 20.039L11.421 20.0447C11.0625 20.406 10.6787 20.5881 10.281 20.5881Z" fill="#313235"/>
</svg>
