<svg width="24" height="24" viewBox="0 0 24 24" fill="none" xmlns="http://www.w3.org/2000/svg">
<path fill-rule="evenodd" clip-rule="evenodd" d="M20.7899 9.89672C20.8892 9.996 20.9607 10.1196 20.9972 10.2553C21.028 10.3337 21.0448 10.4177 21.0448 10.5018V20.583C21.0448 21.2693 20.4622 21.8463 19.7675 21.8463H9.82352C9.12884 21.8463 8.54341 21.2693 8.54341 20.583V17.9695H4.2521C3.58543 17.9695 3 17.3897 3 16.7314V3.40093C3 2.72866 3.57423 2.16003 4.2549 2.16003H13.8179C14.4986 2.16003 15.0728 2.72866 15.0728 3.40093V5.45695H15.8767C16.0952 5.45695 16.3081 5.54098 16.465 5.69504L20.7899 9.89672ZM13.8207 5.45695H9.82352C9.14005 5.45695 8.54341 6.04798 8.54341 6.72025V16.7146L4.2493 16.7314L4.2521 3.41774L13.8207 3.40093V5.45695ZM18.0364 10.09C17.5042 10.09 17.0588 9.93033 16.7479 9.62501C16.4398 9.32809 16.2801 8.90232 16.2801 8.40092V7.26367L19.1877 10.09H18.0364Z" fill="#313235"/>
</svg>
