<svg width="24" height="24" viewBox="0 0 24 24" fill="none" xmlns="http://www.w3.org/2000/svg">
<path fill-rule="evenodd" clip-rule="evenodd" d="M20.3053 16.2717H19.4525C19.2773 17.3338 18.5396 17.9104 17.3305 17.9104C16.1213 17.9104 15.3835 17.3336 15.2085 16.2713C15.2035 16.2716 15.1984 16.2717 15.1933 16.2717H9.62185L9.62053 16.2717C9.44542 17.3338 8.70771 17.9104 7.4986 17.9104C6.28949 17.9104 5.55178 17.3338 5.37667 16.2717H5.0112C4.30532 16.2717 3.63866 15.6051 3.63866 14.8992V13.5407H2.28011C2.12605 13.5407 2 13.4146 2 13.2605C2 13.1065 2.12605 12.9804 2.28011 12.9804H3.63866V10.8096H2.28011C2.12605 10.8096 2 10.6835 2 10.5295C2 10.3754 2.12605 10.2493 2.28011 10.2493H3.63866V8.07847H2.28011C2.12605 8.07847 2 7.95242 2 7.79836C2 7.6443 2.12605 7.51825 2.28011 7.51825H3.63866V6.70592C3.63866 6.00004 4.30532 5.33337 5.0112 5.33337H16.4818C16.986 5.33337 17.5154 5.59948 17.8011 5.99724C18.2353 6.59948 20.7451 9.93281 21.0728 10.3586C21.2997 10.6527 21.6779 11.1457 21.6779 11.6219V14.8992C21.6779 15.6051 21.0112 16.2717 20.3053 16.2717ZM4.19888 7.79836V6.70592C4.19888 6.31097 4.61625 5.8936 5.0112 5.8936H16.4818C16.8039 5.8936 17.1681 6.07287 17.3473 6.32217C17.7815 6.92721 20.3025 10.2717 20.6303 10.7003C20.8011 10.9216 21.1176 11.3362 21.1176 11.6219V14.8992C21.1176 15.2942 20.7003 15.7115 20.3053 15.7115H19.4928C19.4795 14.3396 18.7133 13.5855 17.3305 13.5855C15.9478 13.5855 15.1815 14.3396 15.1682 15.7115H9.66089C9.64761 14.3396 8.88137 13.5855 7.4986 13.5855C6.11583 13.5855 5.34959 14.3396 5.33631 15.7115H5.0112C4.61625 15.7115 4.19888 15.2942 4.19888 14.8992V13.2605V10.5295V7.79836ZM7.4986 14.1457C6.96919 14.1457 6.56583 14.2746 6.30532 14.5267C6.03361 14.7872 5.89636 15.1989 5.89636 15.7479C5.89636 16.297 6.03361 16.7087 6.30532 16.9692C6.56863 17.2213 6.96919 17.3502 7.4986 17.3502C8.02801 17.3502 8.43137 17.2213 8.69188 16.9692C8.96359 16.7087 9.10084 16.297 9.10084 15.7479C9.10084 15.1989 8.96359 14.7872 8.69188 14.5267C8.43137 14.2717 8.02801 14.1457 7.4986 14.1457ZM17.3305 14.1457C16.8011 14.1457 16.3978 14.2746 16.1373 14.5267C15.8655 14.7872 15.7283 15.1989 15.7283 15.7479C15.7283 16.297 15.8655 16.7087 16.1373 16.9692C16.4006 17.2213 16.8011 17.3502 17.3305 17.3502C17.8599 17.3502 18.2633 17.2213 18.5238 16.9692C18.7955 16.7087 18.9328 16.297 18.9328 15.7479C18.9328 15.1989 18.7955 14.7872 18.5238 14.5267C18.2633 14.2717 17.8599 14.1457 17.3305 14.1457Z" fill="#313235"/>
</svg>
