<svg width="24" height="24" viewBox="0 0 24 24" fill="none" xmlns="http://www.w3.org/2000/svg">
<path d="M2.01965 11.9132C2.01965 11.7619 2.04766 11.6135 2.10369 11.4734C2.28016 11.0392 2.70593 10.7731 3.21013 10.7787L6.85999 10.7759C6.8796 10.7647 6.8992 10.7535 6.91601 10.7367L6.93562 3.85435C6.92721 3.23811 7.08128 2.78432 7.4034 2.4706C7.72553 2.15687 8.18212 2.00841 8.79556 2.02802H14.8376C15.2577 2.01962 15.8628 2.05883 16.283 2.465C16.7031 2.87116 16.7647 3.4734 16.7703 3.89077V3.89917L16.7675 10.6107C16.776 10.6667 16.7928 10.7171 16.8208 10.7675L20.3838 10.7619H20.3894C21.2465 10.7675 21.5379 11.1765 21.6359 11.4202C21.804 11.8375 21.6499 12.3193 21.2157 12.7423L12.5042 21.4006C12.4202 21.4874 12.1737 21.7367 11.8152 21.7339C11.6639 21.7339 11.437 21.6835 11.2213 21.4594L2.51265 12.9804C2.19332 12.6751 2.01965 12.2885 2.01965 11.9132Z" fill="#313235"/>
</svg>
