<svg width="24" height="24" viewBox="0 0 24 24" fill="none" xmlns="http://www.w3.org/2000/svg">
<path fill-rule="evenodd" clip-rule="evenodd" d="M21.8463 14.4401C21.8463 12.9892 20.8015 12.4626 19.9051 12.4542C19.852 12.4576 19.8188 12.4579 19.7787 12.4582C19.7531 12.4584 19.7247 12.4587 19.6866 12.4598V11.048C19.611 8.19085 19.1152 4.36171 15.7595 3.92474C15.7035 3.91634 15.639 3.90793 15.583 3.90233L15.4009 3.89113C15.062 3.86872 14.6642 3.86872 14.3813 3.89113H12.8379C12.9836 3.71746 13.0704 3.49057 13.0704 3.19085C13.0704 2.85471 12.9752 2.59141 12.7875 2.41494C12.6054 2.24687 12.3449 2.16003 12.0144 2.16003C11.6838 2.16003 11.4233 2.24407 11.2441 2.41494C11.0564 2.59141 10.964 2.85191 10.964 3.19085C10.964 3.49057 11.0508 3.71746 11.1964 3.89113L9.61382 3.87712C9.53007 3.87712 9.44632 3.8751 9.36092 3.87304L9.36091 3.87304C9.27208 3.8709 9.18146 3.86872 9.0872 3.86872C5.39813 3.86872 4.45695 6.21045 4.29169 9.77628H2.5634C2.34211 9.77628 2.16003 9.95275 2.16003 10.1712C2.16003 10.3897 2.33931 10.5662 2.5634 10.5662H4.26648L4.26087 11.0564L4.26928 12.4626L4.22588 12.4605C4.1845 12.4586 4.15125 12.457 4.10681 12.457H4.10401C3.20765 12.4654 2.16284 12.9892 2.16284 14.4429C2.16284 15.8967 3.21326 16.4261 4.11242 16.4401H4.27488C4.3281 16.4373 4.55499 16.4233 4.67544 16.4093C5.19645 18.4682 6.38412 20.1992 9.0872 20.1992C9.26928 20.1992 9.44295 20.1908 9.5858 20.1796H14.3533C14.5214 20.1908 14.6922 20.1992 14.8743 20.1992C15.0564 20.1992 15.2301 20.1908 15.3729 20.1796H15.5942C15.6502 20.1796 15.7035 20.1684 15.7511 20.146C17.8799 19.8743 18.8491 18.2693 19.3029 16.3813C19.3277 16.3865 19.3503 16.3921 19.3721 16.3974C19.4093 16.4066 19.4443 16.4152 19.485 16.4205C19.5886 16.4317 19.6754 16.4373 19.7315 16.4373H19.8939C20.7959 16.4233 21.8463 15.8911 21.8463 14.4401ZM5.09841 9.77348C5.28328 6.01157 6.35611 4.66143 9.0844 4.66143C9.15628 4.66143 9.18512 4.66348 9.24279 4.66758L9.2428 4.66758L9.24281 4.66758L9.27488 4.66984L9.33931 4.67264C9.92194 4.67264 10.4598 4.72306 10.9612 4.8127C10.597 5.02278 10.2665 5.26928 9.96956 5.55219C8.90513 6.56059 8.30289 7.97796 8.16844 9.77348H5.09841ZM18.8827 12.9976V11.0508C18.8771 10.8827 18.8687 10.7231 18.8603 10.5634H5.0732L5.0676 11.0592L5.0788 13.0032C5.19925 17.4934 6.40093 19.4065 9.0872 19.4065C9.25247 19.4065 9.40653 19.3981 9.56059 19.3869H14.3841C14.7371 19.4065 15.0424 19.4093 15.3505 19.3869H15.4682C15.4934 19.3785 15.5186 19.3729 15.5466 19.3701C17.7119 19.1544 18.7707 17.1292 18.8827 12.9976ZM21.0396 14.4429C21.0396 15.4766 20.3141 15.6418 19.8827 15.6474L19.7455 15.6502C19.7366 15.6495 19.7267 15.649 19.7153 15.6484L19.7152 15.6484L19.7151 15.6484L19.715 15.6484L19.7149 15.6484C19.6796 15.6466 19.6296 15.644 19.5494 15.6334C19.5158 15.6334 19.4934 15.6306 19.4598 15.6194C19.5998 14.7875 19.6558 14.0368 19.681 13.2497C19.7623 13.2469 19.8155 13.2469 19.8967 13.2469C20.3225 13.2497 21.0396 13.4121 21.0396 14.4429ZM13.7679 16.7343C13.6082 16.5802 13.3533 16.5802 13.1964 16.7343C12.8099 17.1124 12.4205 17.3057 12.0424 17.3113C11.6642 17.3001 11.2441 17.1236 10.8435 16.7315C10.6838 16.5774 10.4289 16.5774 10.2721 16.7315C10.1152 16.8883 10.1152 17.1376 10.2721 17.2917C10.8211 17.8323 11.4093 18.104 12.02 18.104H12.0536C12.653 18.0956 13.2301 17.8211 13.7679 17.2945C13.9247 17.1376 13.9247 16.8883 13.7679 16.7343ZM12.1432 5.13482C11.5214 5.37292 10.9808 5.69785 10.5354 6.12082C9.63062 6.97796 9.11242 8.20765 8.98636 9.77348H15.3029C15.174 8.20485 14.6558 6.97796 13.7539 6.12082C13.3085 5.69785 12.7679 5.37012 12.1432 5.13482ZM13.3225 4.80989C13.8239 4.72026 14.3617 4.66984 14.9443 4.66984V4.66424H14.9948C15.0464 4.66529 15.0908 4.66515 15.1344 4.66502C15.2068 4.6648 15.2768 4.66459 15.3729 4.66984L15.4457 4.67824L15.4458 4.67824C15.4822 4.68104 15.5186 4.68384 15.5438 4.68664C17.471 4.88272 18.5214 6.51017 18.8099 9.77068H16.1152C15.9808 7.97516 15.3757 6.55779 14.3141 5.54939C14.0144 5.26648 13.6838 5.02278 13.3225 4.80989ZM4.26087 15.6474C4.29449 15.6474 4.43174 15.639 4.50737 15.6306C4.36732 14.8295 4.30849 14.0088 4.28328 13.2413C4.21326 13.2441 4.17404 13.2441 4.11242 13.2441C3.68664 13.2469 2.96956 13.4093 2.96956 14.4401C2.96956 15.4738 3.69505 15.639 4.12642 15.6446L4.26087 15.6474ZM9.5662 12.1628C9.78749 12.1628 9.96956 12.3393 9.96956 12.5578V14.4093C9.96956 14.6278 9.78749 14.8043 9.5662 14.8043C9.34211 14.8043 9.16284 14.6278 9.16284 14.4093V12.5578C9.16284 12.3421 9.34211 12.1628 9.5662 12.1628ZM14.7931 12.5578C14.7931 12.3393 14.611 12.1628 14.3897 12.1628C14.1656 12.1628 13.9864 12.3421 13.9864 12.5578V14.4093C13.9864 14.6278 14.1656 14.8043 14.3897 14.8043C14.611 14.8043 14.7931 14.6278 14.7931 14.4093V12.5578Z" fill="#313235"/>
</svg>
