<svg width="24" height="24" viewBox="0 0 24 24" fill="none" xmlns="http://www.w3.org/2000/svg">
<path fill-rule="evenodd" clip-rule="evenodd" d="M20.1661 12.2418C22.4773 14.71 22.3961 17.4415 19.9168 19.9209C18.6393 21.1985 17.2946 21.84 15.9527 21.84C14.6109 21.84 13.2718 21.2041 11.9971 19.9265L11.8318 19.7668C11.7114 19.652 11.5909 19.5371 11.49 19.4194L10.7813 18.7106C10.7765 18.7071 10.7713 18.704 10.7662 18.7011C10.7592 18.697 10.7525 18.6931 10.7477 18.6882L5.14757 13.0878C5.14367 13.0839 5.14098 13.0788 5.13809 13.0734C5.13476 13.067 5.13117 13.0602 5.12516 13.0542L4.55086 12.4799C4.45064 12.3964 4.33934 12.2796 4.22523 12.16L4.22309 12.1577L4.06621 11.9952C1.51129 9.44017 1.51129 6.62457 4.06621 4.06672C6.58471 1.54808 9.35814 1.51166 11.8794 3.95745L13.0589 5.13692C13.0617 5.13973 13.0652 5.14183 13.0687 5.14393C13.0722 5.14603 13.0757 5.14813 13.0785 5.15093L18.6842 10.7485C18.6847 10.749 18.6851 10.7496 18.6854 10.7503L18.6868 10.7532C18.6879 10.756 18.6893 10.7592 18.6926 10.7625L20.0008 12.0681L20.029 12.096C20.0762 12.1429 20.1241 12.1904 20.1661 12.2418ZM4.66012 11.4013L4.83101 11.5778C4.85003 11.5974 4.86894 11.6171 4.88783 11.6367L4.88789 11.6368L4.88795 11.6369L4.88802 11.6369L4.88814 11.6371L4.88815 11.6371L4.88815 11.6371L4.88816 11.6371L4.88816 11.6371L4.88817 11.6371L4.88817 11.6371L4.88818 11.6371C4.96375 11.7158 5.03897 11.7942 5.11956 11.8635L5.44733 12.1913L12.1932 5.4451L11.2967 4.54859C10.2154 3.50079 9.12282 2.97409 8.03306 2.97409C6.90688 2.97409 5.7779 3.53161 4.66012 4.65225C2.42176 6.89352 2.42176 9.16281 4.66012 11.4013ZM19.3285 19.3298C21.4996 17.1614 21.5696 14.9621 19.5442 12.7993C19.5118 12.7609 19.4824 12.7326 19.4548 12.7062L19.4392 12.6912L19.4237 12.676L19.3341 12.5892L18.3844 11.6394L11.6413 18.3857L12.1092 18.8507C12.2149 18.9731 12.3123 19.0652 12.4124 19.1597L12.4145 19.1617L12.5938 19.3354C14.8266 21.5683 17.0929 21.5655 19.3285 19.3298ZM11.0502 17.7917L6.04123 12.7825L12.7843 6.03624L17.7933 11.0455L11.0502 17.7917ZM12.3949 11.4629C12.1484 11.2136 11.745 11.2136 11.4956 11.4629C11.2491 11.7123 11.2491 12.1129 11.4956 12.365C11.7422 12.6144 12.1456 12.6144 12.3949 12.365C12.6442 12.1157 12.6442 11.7123 12.3949 11.4629ZM10.9326 14.371C11.1819 14.1216 11.5825 14.1216 11.8318 14.371C12.0812 14.6203 12.0812 15.0237 11.8318 15.2703C11.5825 15.5196 11.1791 15.5196 10.9326 15.2703C10.6832 15.0237 10.6832 14.6203 10.9326 14.371ZM15.3757 11.7291C15.625 11.4797 15.625 11.0763 15.3757 10.827C15.1263 10.5776 14.7257 10.5776 14.4764 10.827C14.2271 11.0763 14.2271 11.4797 14.4764 11.7291C14.7229 11.9784 15.1263 11.9784 15.3757 11.7291ZM8.64938 12.0653C8.89871 11.8159 9.30212 11.8159 9.54864 12.0653C9.79797 12.3146 9.79797 12.718 9.54864 12.9646C9.29931 13.2111 8.89591 13.2139 8.64938 12.9646C8.40285 12.718 8.40285 12.3146 8.64938 12.0653ZM13.0925 8.52125C12.8459 8.27191 12.4425 8.27191 12.1932 8.52125C11.9439 8.77059 11.9439 9.17402 12.1932 9.42056C12.4425 9.6699 12.8431 9.6699 13.0925 9.42056C13.3418 9.17402 13.3418 8.77059 13.0925 8.52125Z" fill="#313235"/>
</svg>
