<svg width="24" height="24" viewBox="0 0 24 24" fill="none" xmlns="http://www.w3.org/2000/svg">
<path fill-rule="evenodd" clip-rule="evenodd" d="M21.0707 10.0724V16.3749C21.8018 16.7755 21.9223 18.627 21.3901 19.0752C21.1464 19.3217 20.8999 19.3217 20.5721 19.3217H20.0847C19.757 19.3217 19.348 19.3217 19.0203 18.994C18.855 18.8287 18.7738 18.585 18.7738 18.2573C18.7738 17.6831 19.1015 16.7027 19.757 16.3749V11.2181L18.5301 11.7895V15.473C18.5301 16.2909 17.9587 16.9464 17.222 17.1088C15.9951 17.3553 14.194 17.8455 12.8859 18.9099C12.5581 19.1564 12.1492 19.3189 11.7402 19.3189C11.3312 19.3189 10.9223 19.1564 10.5945 18.9099C9.28641 17.8455 7.48529 17.3553 6.2584 17.1088C5.52451 16.9464 4.95028 16.2909 4.95028 15.473V11.8735L3.14916 11.0556C2.57773 10.8091 2.25 10.2349 2.25 9.66345C2.25 9.00798 2.57493 8.51779 3.14916 8.27129L11.0875 4.67185C11.4965 4.50938 11.9055 4.50938 12.3144 4.67185L20.2528 8.27129C21.0402 8.60793 21.0593 9.52489 21.0705 10.0615L21.0707 10.0724ZM3.47689 9.66345C3.47689 9.58221 3.53291 9.47857 3.63936 9.41695L11.5777 5.81751H11.7402L19.0231 9.09202H11.5749C11.2472 9.09202 11.0007 9.33852 11.0007 9.66345C11.0007 9.98838 11.2472 10.2349 11.5749 10.2349H18.8578L11.8186 13.4254H11.5721L3.63375 9.82591L3.61422 9.81506C3.53017 9.7685 3.47689 9.73898 3.47689 9.66345ZM17.0623 15.8819C17.2276 15.8007 17.3901 15.6354 17.3901 15.473L17.3452 12.2181L12.1548 14.5738L12.1493 14.5765C11.9859 14.6568 11.8243 14.7363 11.5805 14.7363C11.4153 14.7363 11.1688 14.655 11.0063 14.5738L6.09594 12.3637V15.473C6.09594 15.7195 6.2612 15.8819 6.42367 15.8819C7.89706 16.1256 9.86064 16.6186 11.334 17.8455C11.5777 18.008 11.9055 18.008 12.152 17.8455C13.7066 16.6999 15.6702 16.1284 17.0623 15.8819ZM20.0903 18.0108H20.5805C20.5805 17.7643 20.4993 17.5206 20.3368 17.4394C20.2528 17.5206 20.1716 17.7643 20.0903 18.0108Z" fill="#019DF4"/>
</svg>
