<svg width="24" height="24" viewBox="0 0 24 24" fill="none" xmlns="http://www.w3.org/2000/svg">
<path fill-rule="evenodd" clip-rule="evenodd" d="M21.2772 7.73388C21.5405 8.71146 21.6862 9.80389 21.6862 11.0224C21.6862 16.9215 18.4901 20.0447 12.4257 20.0447C11.5322 20.0447 10.6918 19.9719 9.91594 19.8375C9.91359 19.8363 9.91141 19.8351 9.90934 19.834C9.90745 19.8329 9.90565 19.8319 9.90392 19.8309C9.89403 19.8252 9.88623 19.8207 9.87392 19.8207V20.4173C9.87392 20.8067 9.45656 21.1288 8.63303 21.3613C7.91035 21.5686 6.94957 21.6862 5.93837 21.6862C4.93557 21.6862 3.97479 21.5686 3.2437 21.3613C2.42017 21.1288 2.00281 20.8067 2.00281 20.4173V18.4453C2.28292 18.6358 2.65827 18.8095 3.10925 18.9355C3.87395 19.1596 4.88515 19.2744 5.94957 19.2744C7.01959 19.2744 8.02519 19.1568 8.7983 18.9355C9.23247 18.8179 9.59661 18.6442 9.87672 18.4397V19.0363C9.93555 19.0195 10.0056 19.0111 10.0728 19.0195C10.6666 19.1288 11.3221 19.1792 12.0112 19.2016V15.126H9.88513C9.78429 15.126 9.68905 15.084 9.62182 15.028C9.40894 15.2016 9.09521 15.3753 8.64424 15.507C7.92155 15.7058 6.96077 15.8235 5.94957 15.8235C4.93837 15.8235 3.98599 15.7058 3.26331 15.507C2.61625 15.3165 2.14847 15.0364 2.00561 14.7535V12.5322C2.26891 12.7395 2.63586 12.9047 3.11205 13.0364C3.87675 13.2605 4.88795 13.3781 5.95237 13.3781C7.01399 13.3781 8.02799 13.2633 8.8011 13.0364C9.26048 12.9047 9.61622 12.7479 9.87953 12.549V14.2969H12.014V8.26609H8.08401C7.90474 9.07841 7.8039 9.93835 7.7955 10.8347L7.80756 10.8367L7.80757 10.8367C8.10289 10.8864 8.38439 10.9338 8.63863 11.0084C9.35292 11.2157 9.76188 11.4818 9.85432 11.8039L9.84591 11.8123C9.72546 12.1092 9.3193 12.3669 8.64704 12.5574C7.91595 12.7647 6.96357 12.8795 5.95237 12.8795C4.94117 12.8795 3.98879 12.7647 3.26611 12.5574C2.57703 12.3585 2.15967 12.0952 2.05043 11.7871L2.04202 11.7787C2.15127 11.4874 2.54342 11.2241 3.18207 11.0336V11.0252C3.18207 9.8067 3.32773 8.71426 3.59944 7.73668C3.60364 7.72827 3.60574 7.71777 3.60784 7.70727C3.60994 7.69676 3.61204 7.68626 3.61625 7.67785C4.66946 3.95798 7.66385 2.00281 12.4341 2.00281C17.2212 2.00281 20.2156 3.95798 21.2688 7.67785C21.2699 7.68313 21.2705 7.69 21.2713 7.69741C21.2724 7.70967 21.2737 7.7234 21.2772 7.73388ZM12.0112 7.43696H8.2941C9.00838 4.97478 10.4201 3.15126 12.0028 2.87115L12.0112 7.43696ZM16.3277 7.43696C15.6806 4.94117 14.3893 3.15406 12.8487 2.87115L12.8571 7.43696H16.3277ZM20.4033 14.2969C20.6918 13.3445 20.8375 12.2577 20.8375 11.0252C20.8375 10.014 20.745 9.09521 20.5489 8.26609H17.3949C17.549 9.12883 17.633 10.0476 17.633 11.0084C17.633 12.1764 17.5041 13.2801 17.2857 14.2997H20.4033V14.2969ZM14.8935 18.9943C17.4509 18.5125 19.196 17.2212 20.098 15.126H17.07C16.5938 16.7815 15.8347 18.1316 14.8935 18.9943ZM16.1848 15.126C15.4957 17.3445 14.2801 18.9103 12.8599 19.1764V15.126H16.1848ZM16.5154 8.26329C16.6862 9.11762 16.7787 10.0448 16.7787 11.0056C16.7787 12.1736 16.6442 13.2829 16.4117 14.2969H12.8571V8.26329H16.5154ZM20.2996 7.43696C19.4649 5.03361 17.6554 3.57703 14.8991 3.05322C15.9355 4.0056 16.7534 5.54621 17.2128 7.43696H20.2996ZM7.39214 7.43696C7.88514 5.57422 8.74508 4.03921 9.83191 3.07843C7.14564 3.61625 5.38375 5.07562 4.56022 7.43696H7.39214ZM7.19606 8.26609C7.042 9.0448 6.95797 9.87112 6.94116 10.7339C6.61623 10.7002 6.2857 10.6834 5.93837 10.6862C5.2577 10.6862 4.61344 10.7423 4.03361 10.8431C4.04201 9.89633 4.13445 9.03639 4.32213 8.26609H7.19606ZM2.00281 17.7086C2.14566 17.9943 2.61065 18.2688 3.2549 18.4565C3.98039 18.6638 4.92997 18.7786 5.95237 18.7758C6.96637 18.7758 7.92435 18.661 8.64424 18.4565C9.35572 18.2492 9.74787 17.9383 9.87953 17.703V15.4789C9.59941 15.6834 9.22967 15.8543 8.7955 15.9747C8.02799 16.196 7.01679 16.3165 5.94957 16.3165C4.88515 16.3165 3.87675 16.1932 3.10364 15.9747C2.65266 15.8487 2.28292 15.6806 2.00281 15.4845V17.7086Z" fill="#313235"/>
</svg>
