<svg width="24" height="24" viewBox="0 0 24 24" fill="none" xmlns="http://www.w3.org/2000/svg">
<path fill-rule="evenodd" clip-rule="evenodd" d="M21.1039 6.62124C21.6585 7.17866 21.9891 7.97418 21.9863 8.75569C21.9835 9.5344 21.6754 10.2515 21.0955 10.8257C20.9639 10.9546 20.3168 11.54 19.3868 12.3691C19.3868 12.3724 19.3878 12.3757 19.3886 12.3784C19.3892 12.3803 19.3896 12.382 19.3896 12.3831V17.8369C19.3896 19.0386 19.0535 20.005 18.3924 20.7109C17.6894 21.4616 16.6866 21.8425 15.4148 21.8425H6.27199C4.99748 21.8425 3.99748 21.4616 3.2944 20.7109C2.63614 20.005 2.3 19.0386 2.3 17.8369V6.21507C2.3 3.71087 3.82101 2.15625 6.27199 2.15625H15.412C17.7006 2.15625 19.1824 3.54 19.356 5.7753C20.0115 5.86213 20.6361 6.15345 21.1039 6.62124ZM18.5689 17.8397C18.5689 18.8257 18.3084 19.6044 17.7958 20.1535C17.2524 20.7333 16.4513 21.0274 15.4148 21.0274H6.27199C5.23558 21.0274 4.43446 20.7333 3.89384 20.1535C3.38124 19.6044 3.12073 18.8257 3.12073 17.8397V6.21787C3.12073 4.15905 4.26919 2.97978 6.27199 2.97978H15.4148C17.2608 2.97978 18.3784 4.00219 18.5381 5.7781C17.9275 5.87334 17.37 6.16185 16.9078 6.62404C16.6445 6.88734 12.7846 10.3131 9.286 13.4056C9.13474 13.54 9.01989 13.7109 8.95266 13.9069L7.66695 17.7445C7.52689 18.1647 7.63334 18.6184 7.94426 18.9322C8.16555 19.1506 8.45406 19.2739 8.76499 19.2739C8.88824 19.2739 9.01149 19.2543 9.12913 19.2151L12.9667 17.9462C13.1151 17.8957 13.2552 17.8173 13.37 17.7137L13.5437 17.5596C15.2328 16.0638 17.1039 14.4027 18.5661 13.1002V17.8397H18.5689ZM13.0031 16.9434L12.8294 17.0974C12.7958 17.1282 12.7538 17.1506 12.7118 17.1647L8.87423 18.4336C8.75659 18.4728 8.61653 18.442 8.52689 18.3495C8.43726 18.2571 8.40364 18.1226 8.44566 18.0022L9.73138 14.1675C9.75098 14.1086 9.7846 14.0582 9.82941 14.019C12.3336 11.8089 17.1543 7.5372 17.4877 7.20107C18.0087 6.68006 18.5717 6.55961 18.9807 6.55961C19.0143 6.55961 19.0479 6.55961 19.0787 6.56241C19.6165 6.58762 20.1459 6.82012 20.5269 7.20107C20.9303 7.60443 21.1712 8.18426 21.1684 8.75289C21.1655 9.30751 20.9415 9.82292 20.5185 10.2403C20.3672 10.3915 19.1936 11.4588 13.0031 16.9434Z" fill="#313235"/>
</svg>
