<svg width="24" height="24" viewBox="0 0 24 24" fill="none" xmlns="http://www.w3.org/2000/svg">
<path fill-rule="evenodd" clip-rule="evenodd" d="M21.7143 13.0953V9.32777C21.7143 9.31035 21.7098 9.29472 21.7054 9.27937C21.702 9.26756 21.6987 9.25591 21.6974 9.24373V6.79276C21.6974 5.98603 21.0308 5.33337 20.2129 5.33337H3.5238C2.70308 5.33337 2.03641 5.98603 2.03641 6.79276V9.28015C2.03526 9.28706 2.03316 9.29351 2.03108 9.29986C2.02812 9.30896 2.02521 9.31788 2.02521 9.32777V13.0953C2.02521 13.1052 2.02812 13.1141 2.03108 13.1232L2.03108 13.1232C2.03316 13.1295 2.03526 13.136 2.03641 13.1429V17.8208C2.03641 18.6247 2.70308 19.2801 3.5238 19.2801H20.2129C21.0308 19.2801 21.6974 18.6247 21.6974 17.8208V13.1793C21.6987 13.1653 21.7023 13.1531 21.7058 13.141C21.7101 13.1264 21.7143 13.1121 21.7143 13.0953ZM20.4453 17.818C20.4425 17.944 20.3389 18.0448 20.2129 18.0448C20.2129 18.0448 3.5238 18.0448 3.5238 18.0476C3.39775 18.0504 3.29131 17.9468 3.29131 17.8208V13.7115H20.4453V17.818ZM3.5238 6.56587C3.39775 6.56306 3.29131 6.66671 3.29131 6.79276V8.71152H20.4425V6.79276C20.4425 6.66671 20.3389 6.56587 20.2101 6.56587H3.5238ZM20.4425 12.479H3.29131V9.94401H20.4425V12.479Z" fill="#313235"/>
</svg>
