<svg width="24" height="24" viewBox="0 0 24 24" fill="none" xmlns="http://www.w3.org/2000/svg">
<path fill-rule="evenodd" clip-rule="evenodd" d="M20.2576 4.52234C21.0447 4.52234 21.6862 5.14138 21.6862 5.90048V17.9088C21.6862 18.6679 21.0447 19.287 20.2576 19.287H3.43137C2.64145 19.2898 2 18.6707 2 17.9116V5.90048C2 5.14138 2.64145 4.52234 3.43137 4.52234H20.2576ZM4.63024 6.1946C4.93276 6.189 5.18206 6.42989 5.18766 6.73241C5.18206 7.03493 4.93276 7.27583 4.62744 7.27023C4.31932 7.27023 4.07002 7.02933 4.07002 6.73241V6.72961C4.07842 6.42709 4.32772 6.189 4.63024 6.1946ZM20.4817 17.9116C20.4817 18.0293 20.3809 18.1273 20.2576 18.1273H3.42857C3.30532 18.1273 3.20448 18.0293 3.20448 17.9116V8.24781H20.4817V17.9116ZM6.86553 6.73241C6.85992 6.42989 6.61062 6.189 6.3081 6.1946H6.3053C6.00278 6.189 5.75349 6.42989 5.74788 6.73241C5.74788 7.02933 5.99718 7.27023 6.3053 7.27023C6.61062 7.27583 6.85992 7.03493 6.86553 6.73241ZM7.98597 6.1946C8.28849 6.189 8.53779 6.42989 8.54339 6.73241C8.53779 7.03493 8.28849 7.27583 7.98317 7.27023C7.67225 7.27023 7.42295 7.02933 7.42295 6.73241V6.72961C7.43135 6.42709 7.68065 6.189 7.98317 6.1946H7.98597ZM8.94115 11.9313C9.15403 11.7296 9.16244 11.3963 8.96076 11.1834C8.74787 10.9621 8.39773 10.9453 8.16524 11.147L5.87113 13.1526C5.75349 13.2534 5.68626 13.3991 5.68626 13.5531C5.68626 13.7072 5.75068 13.8528 5.86553 13.9537L8.15964 15.9901C8.26328 16.0853 8.40053 16.1357 8.54059 16.1357C8.69745 16.1357 8.84591 16.0741 8.95515 15.9621C8.96356 15.9565 8.96916 15.9509 8.97476 15.9425C9.16524 15.724 9.14283 15.3906 8.92434 15.1974L7.08121 13.5559L8.92154 11.9481C8.92434 11.9453 8.92784 11.9425 8.93134 11.9397C8.93485 11.9369 8.93835 11.9341 8.94115 11.9313ZM15.4789 11.147L17.773 13.1526C17.8879 13.2534 17.9551 13.3991 17.9579 13.5503C17.9579 13.7044 17.8907 13.85 17.7758 13.9509L15.4817 15.9929C15.3753 16.0853 15.2408 16.1385 15.098 16.1385C14.9439 16.1385 14.7927 16.0769 14.6862 15.9649C14.4817 15.7548 14.4873 15.4215 14.6946 15.217C14.7002 15.2114 14.7086 15.203 14.717 15.1974L16.5602 13.5559L14.7198 11.9509C14.4985 11.7604 14.4705 11.4271 14.661 11.2058C14.6638 11.2016 14.6673 11.1981 14.6708 11.1946L14.6708 11.1946L14.6708 11.1946C14.6743 11.1911 14.6778 11.1876 14.6806 11.1834C14.8963 10.9621 15.2436 10.9453 15.4789 11.147ZM13.2633 11.794C13.3921 11.5195 13.2633 11.2002 12.9803 11.0769C12.7002 10.9537 12.3725 11.0741 12.2381 11.3514L10.3781 15.3542C10.2493 15.6259 10.3781 15.9453 10.661 16.0685C10.7339 16.0993 10.8123 16.1161 10.8907 16.1161C11.1092 16.1189 11.3081 15.9929 11.4033 15.7968L13.2633 11.794Z" fill="#313235"/>
</svg>
