<svg width="24" height="24" viewBox="0 0 24 24" fill="none" xmlns="http://www.w3.org/2000/svg">
<path fill-rule="evenodd" clip-rule="evenodd" d="M12.1902 14.5157C12.6552 14.2944 16.7364 12.2916 17.1286 10.0199C17.4171 8.33366 17.4059 4.47092 17.4031 4.30566C17.4031 4.12919 17.3191 3.96112 17.1846 3.84628C17.0502 3.73423 16.8681 3.68381 16.6916 3.71182C15.7961 3.85366 15.3368 3.54815 14.7079 3.12978L14.6944 3.12079L14.6804 3.11147C14.0442 2.68726 13.2534 2.16 11.9381 2.16H11.9325C10.6048 2.16 9.80927 2.69222 9.17061 3.12079L9.14937 3.13492C8.52463 3.55058 8.07405 3.85038 7.21263 3.71742C7.03336 3.67541 6.84289 3.71462 6.69723 3.82947C6.55157 3.94712 6.46474 4.12079 6.46474 4.30846C6.46193 4.47092 6.45073 8.33927 6.74485 10.0199C7.1342 12.2916 11.2098 14.2944 11.6748 14.5157C11.756 14.5549 11.8429 14.5746 11.9325 14.5746C12.0193 14.5746 12.109 14.5549 12.1902 14.5157ZM14.7392 7.14039C14.9745 6.90229 14.9745 6.51574 14.7392 6.28045C14.5039 6.04235 14.1202 6.04235 13.8849 6.28045L11.0306 9.1628L9.98294 8.10397C9.74764 7.86588 9.36389 7.86588 9.1314 8.10397C8.8961 8.34207 8.8961 8.72862 9.1314 8.96392L10.6048 10.4513C10.7224 10.569 10.8765 10.6306 11.0334 10.6306C11.1874 10.6306 11.3415 10.569 11.4591 10.4513L14.7392 7.14039ZM21.616 15.5241C21.6272 15.3841 21.8737 12.1292 21.8429 10.9947C21.8233 10.1852 21.3667 9.69221 20.5179 9.63898C19.8709 9.64179 19.2826 10.0844 19.1482 10.7454L18.8429 12.2384C18.2686 12.0479 17.644 12.2524 17.3191 12.779L17.2182 12.9555L17.2171 12.9575C17.0012 13.3417 16.6007 14.0542 15.8597 14.4401C15.7504 14.4905 15.3527 14.7118 14.7308 15.5241C14.2574 16.1432 13.8597 16.8323 13.5516 17.5689L13.1286 18.583C12.8093 18.8491 12.602 19.2412 12.602 19.6894V20.4009C12.602 21.1964 13.2462 21.8406 14.0334 21.8406H17.4899C18.2798 21.8406 18.9213 21.1964 18.9213 20.4009V19.6894C18.9213 19.4065 18.8373 19.1404 18.6944 18.9191L20.1734 17.653C20.3107 17.5381 20.4507 17.4317 20.5964 17.3224C20.8401 17.1376 21.0614 16.8799 21.2518 16.5605C21.4563 16.216 21.5768 15.8743 21.616 15.5241ZM20.4217 15.3454L20.4171 15.4093C20.4003 15.5633 20.3331 15.7454 20.2154 15.9359C20.1062 16.1208 19.9913 16.2608 19.8709 16.3505C19.7084 16.4709 19.5459 16.597 19.3919 16.7286L17.5992 18.2608C17.5829 18.2597 17.5671 18.2575 17.5516 18.2554L17.5515 18.2554H17.5515C17.5297 18.2525 17.5084 18.2496 17.4871 18.2496H14.574L14.6608 18.0423C14.9297 17.4009 15.2714 16.8042 15.6804 16.2692C16.1314 15.6838 16.3835 15.5325 16.3835 15.5325C17.472 14.9701 18.007 14.0163 18.265 13.5564L18.2658 13.5549L18.3443 13.4205C18.3891 13.3449 18.5067 13.4121 18.5067 13.4121C18.5628 13.4485 18.5992 13.5914 18.5656 13.6474V13.6502L18.5628 13.653L17.0249 16.258C16.8541 16.5465 16.9493 16.9191 17.235 17.0928C17.3331 17.1516 17.4367 17.1796 17.5431 17.1796C17.7504 17.1796 17.9493 17.0731 18.0614 16.8799L19.5992 14.2776V14.2748L19.602 14.272C19.7252 14.0647 19.7756 13.8323 19.7784 13.597C19.7823 13.5842 19.7878 13.5738 19.7933 13.5635C19.7998 13.5513 19.8062 13.5394 19.8093 13.5241L20.3275 10.9975C20.3443 10.9163 20.4087 10.8659 20.5207 10.8631C20.5561 10.8631 20.5814 10.8671 20.5977 10.8697C20.6085 10.8715 20.6154 10.8726 20.6188 10.8715C20.6272 10.8939 20.6356 10.9387 20.6384 11.0283C20.6641 12.0147 20.4555 14.881 20.4217 15.3454ZM6.51516 18.2524H9.42832L9.34148 18.0451C9.07538 17.4037 8.73084 16.807 8.32188 16.272C7.89535 15.7183 7.64672 15.553 7.61864 15.5343L7.61599 15.5325C6.53196 14.9695 5.99415 14.0143 5.73925 13.5549L5.66081 13.4177C5.616 13.3421 5.49835 13.4093 5.49555 13.4121C5.43953 13.4457 5.40311 13.5886 5.43673 13.6446V13.6474L5.43953 13.6502L6.97734 16.2552C7.14821 16.5437 7.05577 16.9163 6.76726 17.0872C6.67202 17.146 6.56277 17.174 6.46193 17.174C6.25745 17.174 6.05577 17.0675 5.94373 16.8771L4.40591 14.272V14.2692L4.40311 14.2664C4.28267 14.0591 4.22664 13.8267 4.22664 13.5914C4.22311 13.5808 4.21808 13.5711 4.21303 13.5615C4.20608 13.5482 4.19908 13.5348 4.19583 13.5185L3.67762 10.9919C3.66082 10.9107 3.59359 10.8603 3.51796 10.8547C3.43393 10.8603 3.39471 10.8659 3.3779 10.8715C3.37907 10.8761 3.37782 10.8865 3.37576 10.9038C3.37286 10.928 3.36834 10.9658 3.3667 11.0199C3.33869 12.0928 3.58799 15.3897 3.59079 15.4233C3.6076 15.5577 3.67482 15.737 3.78967 15.9303C3.89891 16.1152 4.01656 16.2552 4.13701 16.3449C4.29667 16.4653 4.45914 16.5886 4.6132 16.7202L6.40591 18.2524C6.42988 18.2579 6.45264 18.2562 6.47659 18.2544C6.48901 18.2534 6.50176 18.2524 6.51516 18.2524ZM10.8765 18.5858L10.4507 17.5717C10.1454 16.8351 9.74764 16.146 9.27706 15.5297C8.65521 14.7174 8.25745 14.4933 8.17342 14.4541C7.40717 14.057 7.00667 13.3444 6.79073 12.9602L6.78966 12.9583L6.68882 12.7818C6.3667 12.258 5.73925 12.0507 5.16502 12.244L4.8597 10.751C4.72244 10.09 4.14821 9.65299 3.41712 9.64739C2.64121 9.6894 2.18183 10.1824 2.16222 10.9947C2.13599 12.0596 2.35044 14.9811 2.38704 15.4798L2.39191 15.5465C2.42833 15.8743 2.54877 16.216 2.75326 16.5633C2.94373 16.8827 3.16502 17.1376 3.41152 17.3252C3.44544 17.3517 3.47952 17.378 3.51365 17.4043L3.51368 17.4043L3.5137 17.4044C3.62047 17.4867 3.72769 17.5694 3.83169 17.6586L5.31068 18.9247C5.17062 19.146 5.08659 19.4093 5.08659 19.6922V20.4037C5.08659 21.1992 5.72804 21.8463 6.51516 21.8463H9.97173C10.7588 21.8463 11.4003 21.1992 11.4003 20.4037V19.6922C11.4003 19.2468 11.193 18.8491 10.8765 18.5858Z" fill="#313235"/>
</svg>
