<svg width="24" height="24" viewBox="0 0 24 24" fill="none" xmlns="http://www.w3.org/2000/svg">
<path fill-rule="evenodd" clip-rule="evenodd" d="M6.09805 12.3206L7.94959 6.26464C8.02802 5.99293 8.28572 5.81366 8.56303 5.83046C8.84314 5.84447 9.07844 6.04895 9.13166 6.32626L10.6947 14.2478L11.1176 12.8473C11.1933 12.5868 11.4314 12.4075 11.7031 12.4075H12.7255L13.7619 8.83886C13.8347 8.58116 14.0672 8.40189 14.3333 8.39348H14.3501C14.6106 8.39348 14.8431 8.56155 14.9272 8.80805L16.1737 12.4103H19.4118L18.7983 13.6456H21.0728C21.4145 13.6456 21.6891 13.3683 21.6863 13.0265C21.6863 12.6848 21.4117 12.4075 21.0728 12.4075C21.0728 12.4075 19.4889 12.4075 19.4171 12.4049C19.9537 11.2498 20.3701 10.1088 20.633 8.99012C21.1428 6.82766 20.7255 5.02935 19.4566 3.92851C18.7199 3.28985 17.7171 2.9061 16.633 2.85008C16.535 2.84448 16.4398 2.84167 16.3417 2.84167C15.2913 2.84167 14.2129 3.13859 13.2073 3.70162C12.8319 3.9145 12.4454 4.13859 12.0252 4.39069C11.9384 4.43551 11.8375 4.43551 11.7535 4.38789C11.3333 4.13579 10.9468 3.9117 10.5742 3.70162C9.56583 3.13579 8.4902 2.84167 7.43698 2.84167C7.34175 2.84167 7.24651 2.84448 7.14847 2.85008C6.06444 2.9061 5.06164 3.28985 4.32495 3.92851C3.05884 5.02935 2.63868 6.82766 3.14848 8.99012C3.40338 10.0826 3.80674 11.1946 4.32215 12.3206H2.61347C2.27453 12.3206 2.00002 12.598 2.00002 12.9397C1.99722 13.2814 2.27173 13.5587 2.61347 13.5615L4.92719 13.5615C5.2129 14.091 5.51822 14.612 5.84315 15.119C6.89637 16.7772 7.7395 17.8472 9.18208 19.3514C9.32213 19.4971 9.80953 19.9985 10.2241 20.2982C10.5686 20.5531 10.9636 20.7324 11.3838 20.8276C11.5042 20.8556 11.6247 20.8752 11.7479 20.8809H11.7647C11.7809 20.8809 11.797 20.8815 11.8138 20.8822C11.8319 20.8829 11.8508 20.8837 11.8711 20.8837H11.9048C11.9412 20.8837 11.9776 20.8837 12.014 20.8809H12.0308C12.1569 20.8724 12.2801 20.8556 12.395 20.8276C12.7955 20.7408 13.1989 20.5587 13.5546 20.2982C13.9692 19.9957 14.4566 19.4971 14.5966 19.3514L14.5967 19.3514C14.6079 19.3402 14.6191 19.329 14.6302 19.315C16.0504 17.8304 16.8879 16.766 17.9356 15.119C18.2381 14.64 18.5266 14.1498 18.7983 13.6484H15.7395C15.479 13.6484 15.2465 13.4803 15.1625 13.2338L14.3978 11.0349L13.7703 13.2002C13.6947 13.4635 13.4566 13.6456 13.1821 13.6456H12.1569L11.1569 16.9621C11.0812 17.2226 10.8431 17.4019 10.5714 17.4019C10.2801 17.3991 10.028 17.1918 9.97199 16.9033L8.40617 8.96211L7.13446 13.1246C7.05603 13.3823 6.81794 13.5615 6.54903 13.5615L4.92999 13.5615L4.32215 12.3206H6.09805ZM19.4171 12.4049C19.4154 12.4048 19.4146 12.4047 19.4146 12.4047L19.4118 12.4103H19.4146C19.4154 12.4085 19.4162 12.4067 19.4171 12.4049Z" fill="#313235"/>
</svg>
