<svg width="24" height="24" viewBox="0 0 24 24" fill="none" xmlns="http://www.w3.org/2000/svg">
<path fill-rule="evenodd" clip-rule="evenodd" d="M17.7725 3.59135C18.6268 3.59135 19.3747 4.20199 19.3747 4.89667V20.5409C19.3747 21.2496 18.6408 21.8462 17.7725 21.8462H6.21223C5.34388 21.8462 4.60999 21.2468 4.60999 20.5409V4.89387C4.60999 4.19919 5.36069 3.58854 6.21223 3.58854H9.16741C9.638 2.67538 10.61 2.15997 11.9937 2.15997C13.68 2.15997 14.4615 2.86866 14.8229 3.59135H17.7725ZM10.0358 4.90787C10.0694 4.17678 10.3215 3.33924 11.9937 3.33924C13.541 3.33924 13.7775 4.09104 13.8562 4.3412L13.8565 4.34205C13.9181 4.54653 13.9489 4.75661 13.9545 4.9695V5.08714L13.9545 5.08815C13.9461 5.31795 13.9321 5.70059 11.9937 5.70059C10.0573 5.70059 10.0414 5.31871 10.0302 5.04991L10.0302 5.04793L10.0358 4.90787ZM18.1982 20.4961C18.173 20.5409 18.0049 20.667 17.7725 20.667H6.21223C6.02263 20.667 5.87588 20.5831 5.81906 20.5507C5.80621 20.5434 5.79796 20.5386 5.79486 20.5381L5.78365 4.94989C5.81447 4.89667 5.99654 4.76502 6.21223 4.76502H8.86209C8.86105 4.77229 8.85962 4.77879 8.85824 4.78509L8.85824 4.7851C8.8559 4.79579 8.85368 4.8059 8.85368 4.81824L8.84808 4.91908L8.84528 5.04513V5.12636C8.9013 6.66137 10.3915 6.87426 11.9937 6.87426C13.596 6.87426 15.089 6.66137 15.1394 5.15157L15.1422 5.04513L15.1394 4.93028L15.1366 4.85185C15.1351 4.83548 15.1328 4.82069 15.1306 4.80623C15.1286 4.79346 15.1267 4.78095 15.1254 4.76782H17.7725C17.9392 4.76782 18.0889 4.84691 18.1546 4.88163C18.1772 4.89356 18.1898 4.90025 18.1898 4.89667L18.1982 20.4961ZM10.7444 4.74261C10.7444 5.04513 10.9909 5.29163 11.2963 5.29163H12.6884C12.9937 5.29163 13.243 5.04513 13.243 4.74261C13.243 4.44009 12.9937 4.19359 12.6884 4.19359H11.2963C10.9909 4.19359 10.7444 4.44009 10.7444 4.74261Z" fill="#313235"/>
</svg>
