<svg width="24" height="24" viewBox="0 0 24 24" fill="none" xmlns="http://www.w3.org/2000/svg">
<path fill-rule="evenodd" clip-rule="evenodd" d="M3.96502 2.22968L20.7325 20.6807C20.9538 20.9216 20.937 21.2969 20.6961 21.5182L20.6821 21.5322C20.4272 21.7535 20.0407 21.7311 19.8138 21.4818L17.3936 18.8207H14.9706C14.9342 19.3641 14.7773 20.1765 14.2003 20.8095C13.6513 21.4118 12.8642 21.7171 11.8642 21.7171C10.8614 21.7171 10.0743 21.4118 9.52525 20.8095C8.94822 20.1765 8.79416 19.3641 8.76054 18.8207H3.45802C3.20032 18.8235 2.96782 18.6611 2.87819 18.4202C2.79135 18.1793 2.86698 17.9104 3.06866 17.7535C5.11908 16.112 4.92581 12.6975 4.92301 12.6611L4.92021 8.82632C4.92021 8.47058 4.94261 8.13165 4.97903 7.80391C4.99023 7.71429 5.00143 7.62747 5.01264 7.54065L5.01264 7.54061C5.01717 7.50666 5.02078 7.47225 5.0244 7.43775L5.0244 7.43774C5.02975 7.38686 5.03511 7.33578 5.04345 7.28571L5.05746 7.30251C5.14149 6.7619 5.28715 6.23249 5.49163 5.72548L3.04626 3.028C2.82497 2.78711 2.84177 2.41176 3.08267 2.19047L3.09668 2.17646C3.35438 1.95798 3.73813 1.98319 3.96502 2.22968ZM11.8614 20.5098C12.5 20.5098 12.9622 20.3445 13.2731 20.0084C13.5981 19.6555 13.7017 19.1709 13.7325 18.8179H9.99303C10.021 19.1681 10.1219 19.6555 10.4468 20.0084C10.7577 20.3473 11.2199 20.5098 11.8614 20.5098ZM20.8502 18.4174C20.937 18.1765 20.8614 17.9076 20.6597 17.7479C18.6475 16.1414 18.7976 12.7914 18.8051 12.6244C18.8052 12.6219 18.8053 12.6201 18.8054 12.619V8.82352C18.8054 6.63305 18.1471 4.92436 16.8502 3.74509C14.9174 1.98599 12.2507 2.04761 11.8642 2.06722C11.4888 2.04761 8.97903 1.99439 7.06586 3.58543L20.7241 18.6134C20.7773 18.5574 20.8222 18.4902 20.8502 18.4174Z" fill="#313235"/>
</svg>
