<svg width="24" height="24" viewBox="0 0 24 24" fill="none" xmlns="http://www.w3.org/2000/svg">
<path fill-rule="evenodd" clip-rule="evenodd" d="M17.3165 9.47196C18.0728 9.58681 19.9775 10.0462 21.0839 11.9061C22.4646 14.2193 21.0548 15.4883 20.9608 15.573C20.9596 15.574 20.9587 15.5749 20.9579 15.5756C20.8487 15.668 20.7058 15.7212 20.5573 15.7212H18.1736C17.9439 16.9341 17.0083 17.6652 15.6078 17.6652C14.21 17.6652 13.2717 16.9341 13.042 15.7212H9.62181C9.38932 16.9313 8.45375 17.6596 7.056 17.6596C5.65824 17.6596 4.71987 16.9285 4.49018 15.7212H2.7731C2.49019 15.7212 2.24369 15.5336 2.17646 15.2675C2.17606 15.2654 2.17512 15.2613 2.17371 15.255C2.14603 15.1321 1.93697 14.2038 2.0196 12.8417C2.0112 11.7801 2.69187 9.99857 4.22968 8.49717C5.31371 7.43836 7.19605 6.17786 10.0112 6.17786C14.4761 6.17786 16.703 8.65404 17.3165 9.47196ZM7.05319 16.4663C6.11482 16.4663 5.65544 16.0238 5.65544 15.1134C5.65544 14.203 6.11202 13.7577 7.05319 13.7577C7.99437 13.7577 8.45095 14.2002 8.45095 15.1134C8.45095 16.0238 7.99437 16.4663 7.05319 16.4663ZM15.605 16.4719C14.6666 16.4719 14.2072 16.0294 14.2072 15.119C14.2072 14.2086 14.6638 13.7661 15.605 13.7661C16.5434 13.7661 16.9999 14.2086 16.9999 15.119C16.9999 16.0294 16.5434 16.4719 15.605 16.4719Z" fill="#313235"/>
</svg>
