<svg width="24" height="24" viewBox="0 0 24 24" fill="none" xmlns="http://www.w3.org/2000/svg">
<path fill-rule="evenodd" clip-rule="evenodd" d="M21.078 21.83C19.4479 21.83 17.5769 21.0712 15.8935 19.7242L15.8319 19.6682C14.4202 18.5369 13.3167 17.106 12.5716 15.5182C12.5464 16.3415 12.4344 17.1256 12.1683 17.7164C11.5493 19.1026 10.5941 19.9903 9.5466 20.1415C9.44577 20.1555 9.33653 20.1667 9.22169 20.1667C8.67551 20.1667 7.96687 19.9679 7.23863 19.2118C5.9446 19.0578 5.3648 18.4529 5.10712 17.9629C4.63096 17.0612 4.83543 15.8067 5.6673 14.5213C6.2555 13.6085 7.53833 12.7152 8.76234 12.0235C8.31419 12.0599 7.85203 12.0823 7.39268 12.0823C6.39835 12.0823 5.42922 11.9815 4.72339 11.6903C3.2641 11.1022 2.33419 10.1921 2.17454 9.19526C2.08771 8.65201 2.19134 7.83993 3.15206 6.99985C3.31452 5.76774 3.95033 5.21609 4.4657 4.96967C5.40962 4.51603 6.72886 4.71204 8.07891 5.50452C9.03683 6.06177 9.97514 7.28268 10.7006 8.44479C10.5829 7.09786 10.6082 5.58572 11.0507 4.60283C11.6697 3.2139 12.6248 2.32902 13.6724 2.17501C14.241 2.0882 15.0924 2.18901 15.9775 3.10469C17.2716 3.26151 17.8514 3.86637 18.1091 4.35641C18.5852 5.25809 18.3807 6.51261 17.5489 7.79793C16.9635 8.71081 15.6778 9.6041 14.4566 10.2958C15.8739 10.1865 17.462 10.209 18.4956 10.629C19.9521 11.2198 20.882 12.1299 21.0416 13.1268C21.1285 13.6701 21.0248 14.4821 20.0641 15.3222C19.9017 16.5543 19.2658 17.106 18.7505 17.3524C18.4144 17.512 18.0334 17.5904 17.6189 17.5904C16.8654 17.5904 16.0056 17.33 15.1345 16.8176C14.479 16.4367 13.8376 15.7451 13.2634 14.975C13.9553 16.5319 15.014 17.9321 16.3865 19.0326L16.4565 19.0886C18.0306 20.3515 19.7588 21.046 21.2069 20.9983C21.4422 20.9815 21.6326 20.9703 21.7559 21.144C21.8903 21.3316 21.8371 21.592 21.6354 21.718C21.5374 21.7796 21.4198 21.8188 21.2993 21.8244C21.2265 21.8272 21.1509 21.83 21.078 21.83ZM13.804 2.99268C13.073 3.09909 12.3447 3.82156 11.8518 4.92486C11.2104 6.35299 11.6193 9.38287 11.8938 10.6262C13.1206 10.1221 15.9523 8.68561 16.801 7.36389C17.462 6.34179 17.6581 5.3589 17.3276 4.72884C17.0811 4.2584 16.5405 3.98398 15.7227 3.91397L15.5462 3.89717L15.4314 3.76836C14.9608 3.24471 14.479 2.97868 13.9973 2.97868C13.9329 2.97868 13.8684 2.98148 13.804 2.99268ZM5.0595 10.923C3.89991 10.4554 3.14086 9.76091 3.03162 9.06365C2.9476 8.5428 3.22209 8.02195 3.8467 7.5151L3.98114 7.40589L3.99795 7.23788C4.07077 6.4594 4.35927 5.94416 4.85223 5.70894C5.0623 5.60813 5.31439 5.55772 5.59168 5.55772C6.17988 5.55772 6.89131 5.78174 7.61956 6.20738C9.00882 7.01666 10.5185 9.7133 11.0479 10.8782C9.73986 11.147 6.5552 11.5335 5.0595 10.923ZM11.3588 17.3916C10.8658 18.4949 10.1376 19.2146 9.40655 19.3238C8.85757 19.4022 8.31139 19.1446 7.77921 18.5481L7.66437 18.4193L7.48791 18.4053C6.67004 18.3353 6.12946 18.0609 5.88298 17.5904C5.55247 16.9604 5.74853 15.9775 6.40675 14.9554C7.25543 13.6337 10.09 12.1971 11.314 11.6931C11.5941 12.9364 12.0002 15.9663 11.3588 17.3916ZM18.1511 11.3935C19.3079 11.8639 20.0669 12.5584 20.1789 13.2528C20.263 13.7737 19.9885 14.2945 19.3667 14.8014L19.2294 14.9106L19.2126 15.0786C19.1398 15.8571 18.8513 16.3723 18.3555 16.6075C17.6945 16.924 16.661 16.7364 15.5882 16.1063C14.2886 15.353 12.8993 12.9672 12.2915 11.6987C12.2901 11.6973 12.2894 11.6959 12.2887 11.6945C12.288 11.6931 12.2873 11.6917 12.2859 11.6903L12.2744 11.6665C12.2354 11.586 12.1933 11.4989 12.1627 11.4327C13.4735 11.1694 16.6554 10.7802 18.1511 11.3935Z" fill="#313235"/>
</svg>
