<svg width="24" height="24" viewBox="0 0 24 24" fill="none" xmlns="http://www.w3.org/2000/svg">
<path fill-rule="evenodd" clip-rule="evenodd" d="M19.3389 6.78717H20.4341C21.14 6.78717 21.7142 7.38661 21.7142 8.1233V15.6723C21.7142 16.409 21.14 17.0084 20.4341 17.0084H19.3389V17.1205C19.3389 17.8572 18.7647 18.4566 18.0588 18.4566H16.9607C16.2521 18.4566 15.6806 17.86 15.6806 17.1205V14.3082H8.0672V17.1205C8.0672 17.8572 7.49297 18.4566 6.78709 18.4566H5.68905C4.98317 18.4566 4.40894 17.86 4.40894 17.1205V17.0056C4.40778 17.0056 4.40662 17.0061 4.40526 17.0067C4.40334 17.0075 4.40102 17.0084 4.39774 17.0084H3.2997C2.59102 17.0084 2.01959 16.4118 2.01959 15.6723V8.1233C2.01959 7.38661 2.59382 6.78717 3.2997 6.78717H4.39774C4.3989 6.78717 4.40006 6.78765 4.40142 6.78821C4.40334 6.78901 4.40566 6.78997 4.40894 6.78997V6.67512C4.40894 5.93843 4.98317 5.33899 5.68905 5.33899H6.78709C7.49297 5.33899 8.0672 5.93563 8.0672 6.67512V9.49024H15.6806V6.67512C15.6806 5.93843 16.2549 5.33899 16.9607 5.33899H18.0588C18.7647 5.33899 19.3389 5.93563 19.3389 6.67512V6.78717ZM20.4369 15.6723H19.3417V8.1233H20.4369V15.6723ZM16.9635 17.1233V12.9916C16.9635 12.9874 16.9642 12.9846 16.9649 12.9818C16.9656 12.979 16.9663 12.9762 16.9663 12.972V10.8264C16.9663 10.8222 16.9656 10.8194 16.9649 10.8166C16.9642 10.8138 16.9635 10.811 16.9635 10.8068V6.67512H18.0616V8.10089C18.0616 8.10478 18.061 8.10807 18.0603 8.1116L18.0603 8.11162V8.11163C18.0596 8.11571 18.0588 8.1201 18.0588 8.1261V15.6751C18.0588 15.6793 18.0595 15.6835 18.0602 15.6877L18.0602 15.6877C18.0609 15.6919 18.0616 15.6961 18.0616 15.7003V17.1261H16.9635V17.1233ZM15.6862 12.972H8.0728V10.8264H15.6862V12.972ZM5.69466 17.1205V6.67512H6.79269V10.6779C6.79121 10.6913 6.78953 10.7044 6.78786 10.7175L6.78786 10.7175C6.78323 10.7538 6.77869 10.7893 6.77869 10.8264V12.972C6.77869 13.0111 6.78374 13.0502 6.78861 13.088L6.79269 13.1205V17.1205H5.69466ZM4.40614 15.6723H3.30811V8.1233H4.40614V15.6723Z" fill="#313235"/>
</svg>
