<svg width="24" height="24" viewBox="0 0 24 24" fill="none" xmlns="http://www.w3.org/2000/svg">
<path fill-rule="evenodd" clip-rule="evenodd" d="M15.8262 12.2776L21.6301 19.9359C21.899 20.3504 21.9158 20.8154 21.6973 21.2104C21.4788 21.6081 21.0474 21.849 20.5852 21.849H3.33317C2.913 21.849 2.51525 21.6249 2.31357 21.2608C2.10068 20.9022 2.11189 20.4569 2.33037 20.1011L8.1679 12.2692L8.97742 11.1936V3.40367H8.22112C7.87378 3.40367 7.58807 3.12076 7.58807 2.78182C7.58807 2.44289 7.87658 2.15997 8.22112 2.15997H15.7925C16.1483 2.15997 16.4256 2.44289 16.4256 2.78182C16.4256 3.12076 16.1483 3.40367 15.7925 3.40367H15.0082V11.1936L15.8262 12.2776ZM10.1175 11.765L9.77854 12.2216C11.1427 12.4373 12.8346 12.4373 14.2183 12.23L13.8738 11.765C13.7897 11.6586 13.7477 11.5325 13.7477 11.3925V3.40367H10.2435V11.3925C10.2435 11.5241 10.2015 11.6586 10.1175 11.765ZM14.1931 19.6053H14.3192C15.0418 19.5885 15.885 19.1571 15.885 17.9835C15.885 16.8182 15.0446 16.3784 14.3192 16.3616H14.1847C13.4592 16.3616 12.6161 16.793 12.6161 17.9751C12.6161 18.5717 12.8262 18.9667 13.1315 19.2244C13.434 19.4821 13.8318 19.5969 14.1931 19.6053ZM9.96341 17.0479H9.88778C9.36678 17.0395 8.83456 16.7006 8.83456 15.9555C8.83456 15.2188 9.36398 14.8798 9.88778 14.8798H9.96341C10.4928 14.8882 11.025 15.2272 11.025 15.9639C11.025 16.7006 10.4928 17.0395 9.96341 17.0479Z" fill="#313235"/>
</svg>
