<svg width="24" height="24" viewBox="0 0 24 24" fill="none" xmlns="http://www.w3.org/2000/svg">
<path fill-rule="evenodd" clip-rule="evenodd" d="M15.0279 21.7338H15.0279C15.591 21.7338 16.0139 21.5882 16.3108 21.2857C16.633 20.9691 16.787 20.5182 16.7786 19.9019L16.7982 13.0196C16.815 13.0056 16.8375 12.9916 16.8543 12.9832L20.5041 12.9804C21.0111 12.9888 21.4341 12.7199 21.6106 12.2857C21.8122 11.7983 21.6498 11.2073 21.2044 10.7815L12.5013 2.29972C12.2856 2.07563 12.0588 2.02521 11.9075 2.02521H11.9019C11.5434 2.02521 11.2997 2.27171 11.2156 2.35854L2.50415 11.0168C2.06998 11.4398 1.91592 11.9215 2.08399 12.3389C2.18203 12.5826 2.47334 12.9916 3.33048 12.9972H3.33609L6.8991 12.9916C6.92711 13.0448 6.94952 13.1092 6.95232 13.1484L6.94952 19.8599V19.8683C6.95793 20.2857 7.01395 20.8851 7.43692 21.2941C7.85708 21.7002 8.46212 21.7395 8.88229 21.731H14.9271C14.9607 21.7338 14.9943 21.7338 15.0279 21.7338ZM14.9495 20.6414H14.9327H8.87109C8.52655 20.6498 8.29406 20.605 8.19882 20.5126C8.10358 20.4201 8.05036 20.1932 8.04476 19.8571L8.04756 13.1484C8.04756 12.7115 7.70582 11.9019 7.05316 11.9019L3.34169 11.9075C3.27446 11.9075 3.22124 11.9019 3.17922 11.8963C3.20163 11.8683 3.22964 11.8347 3.26886 11.7983L3.27446 11.7927L11.8935 3.22689L20.4481 11.563L20.4537 11.5686C20.619 11.7255 20.6162 11.8571 20.6022 11.8767C20.5966 11.8795 20.5713 11.8907 20.5181 11.8907H20.5097L16.8319 11.8963C16.3249 11.8963 15.7114 12.3669 15.7114 12.9524L15.6918 19.9075V19.9159C15.6946 20.1232 15.6722 20.3921 15.5517 20.5126C15.4285 20.6302 15.1568 20.647 14.9495 20.6414Z" fill="#313235"/>
</svg>
