<svg width="24" height="24" viewBox="0 0 24 24" fill="none" xmlns="http://www.w3.org/2000/svg">
<path fill-rule="evenodd" clip-rule="evenodd" d="M12.1485 13.0756H15.8992C17.1064 13.0756 17.7199 12.4538 17.7227 11.2297V7.75632H20.3866C20.2558 8.27249 20.0931 8.92583 19.92 9.62091L19.8039 10.0868C19.6859 10.559 19.567 11.0358 19.4558 11.4821L19.4556 11.4829L19.4548 11.4859C19.2101 12.4676 19.0024 13.3009 18.9216 13.6107C18.3866 15.6835 17.4174 15.9216 16.7339 15.9216H10.479C9.92437 15.9216 9.45938 15.7479 9.10084 15.409C8.69187 15.0224 8.42577 14.437 8.30252 13.6611C8.21875 13.1371 7.72082 10.2351 7.29275 7.75351H10.3249V11.2325C10.3249 12.4566 10.9384 13.0756 12.1485 13.0756ZM17.7227 3.84875V6.63587H21.1036C21.4118 6.63587 21.6639 6.88797 21.6639 7.19609C21.6639 7.24371 21.6583 7.28853 21.6471 7.33335C21.5483 7.72475 21.3932 8.34632 21.2126 9.06971L21.2117 9.07341L21.2113 9.07511C21.1105 9.47878 21.0019 9.91402 20.8908 10.3586C20.7736 10.8273 20.6556 11.3011 20.545 11.7454L20.5448 11.746L20.5447 11.7464C20.2984 12.7354 20.0887 13.5777 20.0056 13.8908C19.7395 14.916 19.3529 15.6695 18.8235 16.1989C18.2661 16.7563 17.563 17.0392 16.7339 17.0392H10.4762C9.63865 17.0392 8.89635 16.7563 8.32773 16.2241C7.73669 15.6667 7.35294 14.8628 7.19047 13.8347C7.06162 13.014 5.73949 5.34175 5.55462 4.30814C5.43417 3.63587 4.73389 3.13167 3.92156 3.13167H2.57142C2.2633 3.13167 2.0112 2.87956 2.0112 2.57144C2.0112 2.26332 2.2633 2.01122 2.57142 2.01122H3.92437C5.29131 2.01122 6.44257 2.89357 6.66106 4.11206C6.70978 4.38454 6.88259 5.37948 7.09928 6.63307H10.3249V3.84875C10.3249 2.64147 10.9552 2.00562 12.1485 2.00562H15.8992C17.1092 2.00562 17.7227 2.62466 17.7227 3.84875ZM11.1653 3.84875C11.1653 3.10926 11.423 2.84595 12.1485 2.84595H15.8992C16.6443 2.84595 16.8823 3.08965 16.8823 3.84875V11.2297C16.8823 11.9888 16.6415 12.2325 15.8992 12.2325H12.1485C11.4034 12.2325 11.1653 11.9888 11.1653 11.2297V3.84875ZM9.28291 21.2521C9.57423 21.5322 9.97479 21.6751 10.4762 21.6751C10.9776 21.6751 11.3809 21.5322 11.6695 21.2521C11.9748 20.958 12.1288 20.5462 12.1288 20.0224C12.1288 19.4986 11.9748 19.0868 11.6695 18.7927C11.3781 18.5126 10.9748 18.3698 10.4762 18.3698C9.97759 18.3698 9.57423 18.5126 9.28291 18.7927C8.97759 19.0868 8.82352 19.4986 8.82352 20.0224C8.82352 20.5462 8.97759 20.958 9.28291 21.2521ZM10.4762 19.4902C10.0672 19.4902 9.94397 19.6135 9.94397 20.0224C9.94397 20.4314 10.0672 20.5546 10.4762 20.5546C10.8851 20.5546 11.0084 20.4314 11.0084 20.0224C11.0084 19.6135 10.8851 19.4902 10.4762 19.4902ZM14.7451 21.2521C15.0364 21.5322 15.437 21.6751 15.9384 21.6751C16.4398 21.6751 16.8431 21.5322 17.1316 21.2521C17.437 20.958 17.591 20.5462 17.591 20.0224C17.591 19.4986 17.4342 19.0868 17.1316 18.7927C16.8403 18.5126 16.437 18.3698 15.9384 18.3698C15.4398 18.3698 15.0364 18.5126 14.7451 18.7927C14.4398 19.0868 14.2857 19.4986 14.2857 20.0224C14.2857 20.5462 14.4398 20.958 14.7451 21.2521ZM15.9384 19.4902C15.5294 19.4902 15.4062 19.6135 15.4062 20.0224C15.4062 20.4314 15.5294 20.5546 15.9384 20.5546C16.3473 20.5546 16.4706 20.4314 16.4706 20.0224C16.4706 19.6135 16.3473 19.4902 15.9384 19.4902ZM13.4342 10.7507C13.4342 10.3474 13.6639 10.1597 14.0224 10.1597C14.3809 10.1597 14.6134 10.3474 14.6106 10.7507C14.6106 10.9468 14.5574 11.0896 14.4622 11.1877C14.3585 11.2941 14.2073 11.3446 14.0224 11.3446C13.8375 11.3446 13.6863 11.2941 13.5826 11.1877C13.4874 11.0896 13.4342 10.944 13.4342 10.7507Z" fill="#313235"/>
</svg>
