<svg width="24" height="24" viewBox="0 0 24 24" fill="none" xmlns="http://www.w3.org/2000/svg">
<path fill-rule="evenodd" clip-rule="evenodd" d="M21.4139 5.67315C21.4251 5.57511 21.3887 5.46307 21.3131 5.38183C19.8593 3.81321 18.229 2.80481 16.4671 2.38184C14.9125 2.00929 13.257 2.08772 11.526 2.60313C13.7444 2.86643 16.6604 3.90845 19.5203 6.95886L21.2178 5.95606C21.3271 5.88883 21.3971 5.7936 21.4139 5.67315ZM18.2907 7.68435L13.1226 10.7376L9.06378 3.97007C10.7108 3.74878 14.526 3.7908 18.2907 7.68435ZM7.90692 4.7852C6.96854 6.26979 5.48675 9.63393 7.32429 14.1633L11.9069 11.4575L7.90692 4.7852ZM6.0974 14.886C4.44194 10.9981 4.97695 7.82721 5.82849 5.75158C4.18704 7.15774 3.14502 8.74037 2.74446 10.4827C2.34671 12.1745 2.55959 14.0177 3.38032 15.9588C3.42233 16.0569 3.51197 16.1353 3.63242 16.1745C3.83058 16.2286 3.88924 16.1928 3.96698 16.1453L3.98816 16.1325L6.0974 14.886ZM7.79768 4.64234L7.42513 4.02049C7.23185 3.69556 7.3495 3.2782 7.69123 3.09052C8.03297 2.90565 8.46994 3.01769 8.66602 3.34542L9.01616 3.93086L7.79768 4.64234ZM19.1534 20.816L13.1282 10.7628L11.9097 11.4771L17.9153 21.4938C18.047 21.7123 18.285 21.8356 18.5343 21.8356C18.6548 21.8356 18.7752 21.8048 18.8873 21.7459C19.229 21.5583 19.3495 21.1437 19.1534 20.816Z" fill="#313235"/>
</svg>
