<svg width="24" height="24" viewBox="0 0 24 24" fill="none" xmlns="http://www.w3.org/2000/svg">
<path fill-rule="evenodd" clip-rule="evenodd" d="M20.9373 10.0419V16.7192C21.5086 17.1309 21.7526 17.9236 21.7165 18.5313C21.686 18.9543 21.6167 19.0523 21.4309 19.1895C21.1758 19.3772 20.9401 19.436 20.6961 19.436H20.2052C19.878 19.436 19.5508 19.436 19.3068 19.1895C19.1432 19.0271 19.0628 18.7778 19.0628 18.5313C19.0628 17.9544 19.39 16.9657 20.0416 16.7192V10.9494L18.3279 11.6916V15.6464C18.3279 16.3887 17.8371 16.9657 17.1854 17.1309C15.8821 17.3802 14.0852 17.9544 12.6987 19.0271C12.3715 19.2736 12.0443 19.4388 11.6366 19.4388C11.2262 19.4388 10.9018 19.2736 10.5746 19.0271C9.27126 17.8731 7.39393 17.3774 6.08785 17.1309C5.43619 16.9657 4.94537 16.3887 4.94537 15.6464V11.7728L2.98485 10.8653C2.57722 10.6189 2.25 10.2071 2.25 9.63016C2.25 9.05318 2.49402 8.56023 2.98485 8.39498L11.0626 4.60539C11.4703 4.52137 11.7975 4.52137 12.2051 4.68662L20.2857 8.39498C20.9748 8.66459 20.9522 9.49359 20.9381 10.014C20.9378 10.0234 20.9376 10.0327 20.9373 10.0419ZM3.06804 9.63016C3.06804 9.38369 3.14846 9.21843 3.39525 9.13441L11.473 5.42605C11.6366 5.34482 11.7171 5.34482 11.8807 5.42605L19.9584 9.13441C20.0555 9.18482 20.0389 9.21563 20.0389 9.21563H11.5534C11.3094 9.21563 11.1458 9.38088 11.1458 9.62736C11.1458 9.87384 11.3094 10.0391 11.5534 10.0391H19.8753L11.7975 13.7502C11.6339 13.8315 11.5534 13.8315 11.3898 13.7502L3.31206 10.0419C3.14846 9.96067 3.06804 9.79541 3.06804 9.63016ZM17.1827 16.2234C17.4295 16.2234 17.6735 15.9769 17.6735 15.6464L17.5903 12.0193L12.1275 14.5765C11.8002 14.7418 11.3926 14.7418 11.0654 14.5765L5.76063 12.1033V15.6464C5.76063 15.8929 5.92424 16.1422 6.25145 16.2234C7.63796 16.4727 9.67612 17.0497 11.1458 18.2849C11.473 18.5313 11.9611 18.5313 12.2883 18.2849C13.8384 17.0469 15.7962 16.4699 17.1827 16.2234ZM19.9557 18.5313H21.0177C21.0177 18.0356 20.6101 17.4586 20.4465 17.4586C20.2829 17.4586 19.9557 18.1196 19.9557 18.5313Z" fill="#019DF4"/>
</svg>
