<svg width="24" height="24" viewBox="0 0 24 24" fill="none" xmlns="http://www.w3.org/2000/svg">
<path fill-rule="evenodd" clip-rule="evenodd" d="M21.6863 14.3123C21.6863 11.8838 21.0196 10.007 19.7059 8.7409C18.8319 7.89776 17.6863 7.34874 16.2913 7.08543C15.9608 6.12745 15.4622 5.31793 14.7899 4.66807C13.5266 3.45238 11.7059 2.83333 9.37255 2.83333C7.04202 2.83333 5.22409 3.45238 3.96639 4.67087C2.66106 5.93698 2 7.81093 2 10.2423C2 12.6681 2.66387 14.5392 3.96919 15.7997C4.84034 16.6429 5.9916 17.1891 7.38936 17.4496C7.71709 18.4132 8.21569 19.2255 8.88796 19.8725C10.1429 21.0854 11.9608 21.6989 14.2913 21.6989C16.6247 21.6989 18.4454 21.0854 19.7059 19.8725C21.0196 18.612 21.6863 16.7409 21.6863 14.3123ZM4.78431 5.05462C5.79552 4.19748 7.20168 3.73249 8.96919 3.67087V5.46919C7.80672 5.53081 6.86275 5.85014 6.14846 6.42157L4.78431 5.05462ZM4.19888 5.64006C3.35294 6.65686 2.89916 8.06583 2.83754 9.83333H4.63305C4.69188 8.67087 5.0084 7.72689 5.57143 7.0098L4.19888 5.64006ZM7.40336 8.13866C7.63585 7.93698 7.95238 7.81653 8.29132 7.79972C8.61625 7.78011 8.97479 7.86695 9.28852 8.04342C9.3091 8.05371 9.32864 8.06505 9.34776 8.07616L9.34777 8.07617C9.35988 8.0832 9.37182 8.09013 9.38375 8.09664C9.40056 8.08824 9.41667 8.07913 9.43277 8.07003C9.44888 8.06093 9.46498 8.05182 9.48179 8.04342C9.69188 7.92577 9.91877 7.86695 10.1457 7.83333L10.2003 7.82486C10.2947 7.81 10.3898 7.79503 10.479 7.79972C10.8151 7.81653 11.1317 7.93978 11.3669 8.14146C11.375 8.14793 11.3803 8.15534 11.3855 8.1626C11.3893 8.16791 11.393 8.17314 11.3978 8.17787C11.7731 8.52521 11.9104 9.06863 11.7675 9.68207C11.7431 9.78788 11.7024 9.89517 11.6616 10.0029L11.6616 10.0029L11.6616 10.0029L11.6616 10.0029L11.6616 10.0029L11.6616 10.0029L11.6616 10.0029L11.6616 10.0029L11.6616 10.0029L11.6616 10.0029L11.6616 10.0029L11.6616 10.003L11.6616 10.003L11.6615 10.003L11.6615 10.003L11.6615 10.003C11.6462 10.0435 11.6308 10.0841 11.6162 10.1247C11.5378 10.3347 11.4454 10.5448 11.3305 10.7605C11.3085 10.8021 11.2874 10.8435 11.2664 10.8848C11.2152 10.9852 11.1644 11.085 11.1008 11.1863C11.028 11.2983 10.9608 11.3964 10.8908 11.4916C10.7171 11.7325 10.5434 11.9398 10.2997 12.1891L10.29 12.1988L10.29 12.1988C10.2375 12.2516 10.1101 12.3793 10 12.458C9.92437 12.5112 9.84034 12.5532 9.7535 12.5896C9.69748 12.612 9.63866 12.6345 9.57983 12.6457C9.54342 12.6569 9.4902 12.6625 9.43417 12.6681L9.38375 12.6709H9.38095C9.26891 12.6653 9.21569 12.6569 9.16527 12.6457C9.03361 12.6148 8.88796 12.5504 8.7619 12.4608C8.64426 12.3768 8.507 12.2395 8.46779 12.1975C8.31653 12.0406 8.19048 11.9006 8.07563 11.7577C7.93277 11.584 7.80672 11.4048 7.66667 11.1919C7.62584 11.1289 7.59431 11.067 7.56267 11.0049C7.54221 10.9647 7.5217 10.9245 7.4986 10.8838C7.27451 10.4804 7.09244 10.0798 7.0028 9.68768C6.85154 9.04902 7 8.486 7.40336 8.13866ZM8.37535 8.62325H8.33053C8.17927 8.63165 8.03641 8.68207 7.94118 8.76611C7.71989 8.95658 7.7619 9.30112 7.80672 9.4888C7.84034 9.63165 7.89916 9.78011 7.95798 9.92857C8.06162 10.1919 8.18767 10.4608 8.36134 10.7325C8.37563 10.7549 8.38842 10.7729 8.4019 10.7919L8.41737 10.8137C8.61625 11.1162 8.78431 11.3263 9.06723 11.6148C9.09244 11.6429 9.17647 11.7269 9.2465 11.7773C9.28291 11.8025 9.31933 11.8221 9.35574 11.8277L9.38655 11.8305H9.38936C9.44538 11.8193 9.48459 11.8025 9.51821 11.7745C9.58824 11.7241 9.67227 11.6401 9.69468 11.6148C9.95238 11.3459 10.1176 11.1443 10.2941 10.8866C10.3305 10.8361 10.3641 10.7857 10.4033 10.7269L10.4034 10.7269C10.5294 10.528 10.6303 10.3347 10.7227 10.1415C10.8263 9.91457 10.9076 9.69608 10.9608 9.48039C11.014 9.2507 11.0364 8.93698 10.8263 8.7577C10.7311 8.67367 10.5882 8.62325 10.4342 8.61485C10.4286 8.61485 10.423 8.61555 10.4174 8.61625L10.4174 8.61625L10.4174 8.61625C10.4118 8.61695 10.4062 8.61765 10.4006 8.61765C10.2241 8.61205 10.0504 8.65966 9.88235 8.7549C9.85368 8.77171 9.82466 8.78817 9.79517 8.80489L9.7951 8.80493L9.79503 8.80497L9.79501 8.80499C9.74099 8.83562 9.68539 8.86715 9.62745 8.90336L9.54062 8.95378L9.52941 8.96219C9.52941 8.96219 9.46499 9.007 9.40336 9.0042C9.34174 9.0042 9.28011 8.96779 9.28011 8.96779L9.27171 8.96499L9.15686 8.90896C9.05322 8.84734 8.96919 8.79972 8.88796 8.7549C8.88582 8.75383 8.88368 8.75317 8.88185 8.75261C8.87889 8.75169 8.87675 8.75103 8.87675 8.7493C8.70868 8.67087 8.53782 8.62325 8.37535 8.62325ZM20.8459 14.7325C20.7815 16.4972 20.3193 17.9006 19.4678 18.9118L18.098 17.5392C18.6639 16.8277 18.9832 15.8894 19.0476 14.7325H20.8459ZM14.7143 20.8585C16.4706 20.7941 17.8683 20.3375 18.8796 19.4916L17.5154 18.1247C16.8039 18.6849 15.8683 18.9986 14.7143 19.0602V20.8585ZM14.0553 18.2457C14.0001 18.241 13.945 18.2362 13.888 18.2339C12.9748 18.1807 12.2325 17.9482 11.6751 17.5336L11.6382 17.5067L11.6382 17.5067L11.6382 17.5066C11.5965 17.4763 11.5543 17.4456 11.5154 17.4132C11.535 17.4076 11.5546 17.4048 11.5742 17.402L11.5742 17.402C12.423 17.2227 13.1737 16.9342 13.8235 16.5336C14.1737 16.3179 14.4986 16.0742 14.7871 15.7941C15.3725 15.2339 15.8235 14.5448 16.1485 13.7437C16.4846 12.9258 16.6835 11.9874 16.7423 10.9286C16.916 11.0378 17.0812 11.1555 17.2269 11.2955C17.8347 11.8838 18.1625 12.7689 18.2269 13.9034C18.2299 13.9523 18.2345 13.9997 18.239 14.0471C18.247 14.13 18.2549 14.213 18.2549 14.3039C18.2549 14.4089 18.2455 14.5044 18.2359 14.6007L18.2359 14.6008C18.2317 14.6433 18.2275 14.686 18.2241 14.7297C18.1541 15.8501 17.8319 16.7241 17.2269 17.3067C16.6471 17.8641 15.7927 18.1667 14.7143 18.2311C14.6637 18.2341 14.6141 18.2386 14.5645 18.2431C14.4768 18.2511 14.3889 18.2591 14.2941 18.2591C14.2106 18.2591 14.1329 18.2524 14.0553 18.2457L14.0553 18.2457ZM13.888 20.8585V19.0602C12.7367 18.9986 11.7983 18.6849 11.0868 18.1275L9.71709 19.4972C10.7311 20.3431 12.1289 20.7969 13.888 20.8585ZM9.12885 18.9146C8.80392 18.5252 8.53501 18.077 8.32493 17.5756C8.66387 17.6064 9.0112 17.6261 9.36975 17.6233C9.7535 17.6233 10.1204 17.6008 10.4734 17.5672L9.12885 18.9146ZM7.14846 16.556C7.43137 16.6233 7.72549 16.6765 8.03361 16.7157C8.33613 16.7549 8.64986 16.7773 8.97199 16.7885V14.9902C8.54062 14.9678 8.13445 14.9062 7.7619 14.8137C7.71985 14.8029 7.67696 14.7938 7.63436 14.7848L7.63433 14.7848L7.63429 14.7847C7.56627 14.7703 7.49897 14.756 7.43697 14.7353C7.29888 14.6908 7.17252 14.6327 7.04482 14.5739L6.96919 14.5392C6.95518 14.5308 6.94118 14.5252 6.92717 14.5196C6.65266 14.3908 6.39776 14.2367 6.17087 14.0574L4.80112 15.4272C5.43417 15.9538 6.21569 16.3347 7.14846 16.556ZM4.21008 14.8445C3.36134 13.8333 2.90196 12.43 2.83754 10.6625H4.63305C4.69468 11.8221 5.01401 12.7605 5.58263 13.472L4.21008 14.8445ZM9.10603 6.28506L9.10602 6.28506L9.10601 6.28506C9.06096 6.28886 9.01572 6.29267 8.96919 6.29552C7.88796 6.35714 7.03081 6.65966 6.45098 7.22549C5.84594 7.81373 5.52101 8.69888 5.45658 9.83333C5.45376 9.8785 5.44999 9.92239 5.44623 9.96619L5.44622 9.96621L5.44622 9.96623L5.44622 9.96625L5.44622 9.96627L5.44622 9.96628L5.44622 9.9663L5.44622 9.96632C5.43878 10.0529 5.43137 10.1391 5.43137 10.2339C5.43137 10.3302 5.43931 10.4185 5.44725 10.5068C5.45179 10.5573 5.45633 10.6077 5.45938 10.6597C5.51821 11.5812 5.7535 12.3235 6.16807 12.8838C6.18808 12.9106 6.20781 12.9379 6.22757 12.9653C6.29634 13.0605 6.3655 13.1562 6.44818 13.2367C6.5051 13.2884 6.56945 13.3338 6.63404 13.3793L6.63405 13.3793L6.63406 13.3793L6.63406 13.3794L6.63407 13.3794L6.63407 13.3794L6.63408 13.3794L6.63408 13.3794L6.63413 13.3794C6.67441 13.4078 6.71478 13.4363 6.7535 13.4664C6.7702 13.4793 6.78648 13.4924 6.80274 13.5055C6.84651 13.5407 6.89012 13.5758 6.94118 13.6064C7.13445 13.7241 7.34734 13.8249 7.57983 13.9062C7.63866 13.9286 7.69468 13.9482 7.7535 13.965C8.11485 14.0742 8.52661 14.1359 8.96919 14.1611C9.01568 14.1639 9.06088 14.1677 9.10589 14.1715L9.10595 14.1715L9.10603 14.1715L9.10606 14.1715C9.19387 14.1789 9.28094 14.1863 9.37535 14.1863C9.40336 14.1863 9.42927 14.1835 9.45518 14.1807C9.48109 14.1779 9.507 14.1751 9.53501 14.1751C9.59477 14.1732 9.65203 14.1688 9.7093 14.1645C9.73793 14.1623 9.76657 14.1601 9.79552 14.1583C9.83646 14.1553 9.87729 14.1527 9.91789 14.15C10.0717 14.1399 10.2223 14.13 10.3641 14.1078C10.3792 14.1062 10.3933 14.1025 10.4081 14.0986L10.4081 14.0986L10.4082 14.0986L10.4082 14.0986L10.4082 14.0986L10.4083 14.0986L10.4083 14.0986C10.4182 14.096 10.4286 14.0933 10.4398 14.091C11.2185 13.9566 11.8487 13.6765 12.3109 13.2339C12.916 12.6541 13.2381 11.7773 13.3081 10.6569C13.31 10.6302 13.3124 10.6038 13.3149 10.5773C13.3199 10.5232 13.3249 10.4687 13.3249 10.4104C13.3261 10.3855 13.3281 10.362 13.3301 10.3387C13.3331 10.304 13.3361 10.2695 13.3361 10.2311C13.3361 10.1402 13.3282 10.0572 13.3203 9.97424C13.3157 9.92683 13.3112 9.87942 13.3081 9.83053L13.3039 9.76717C13.2997 9.70361 13.2955 9.64006 13.2913 9.58123C13.2241 8.89496 13.0588 8.30672 12.7787 7.83053C12.6443 7.60364 12.4902 7.39916 12.3081 7.22269C12.2827 7.19729 12.2528 7.17639 12.2235 7.15591C12.2011 7.14025 12.1791 7.12484 12.1597 7.10784C11.5854 6.62325 10.7899 6.35154 9.79552 6.29272C9.74008 6.2905 9.68597 6.28653 9.6316 6.28253H9.6316H9.63159H9.63159H9.63159H9.63158H9.63158H9.63157L9.63156 6.28253C9.54859 6.27644 9.46504 6.27031 9.37535 6.27031C9.28093 6.27031 9.19385 6.27765 9.10603 6.28506ZM9.79552 5.47199V3.67087C11.5602 3.73529 12.9636 4.20308 13.9804 5.06303L12.6134 6.42717C11.902 5.85574 10.9552 5.53361 9.79552 5.47199ZM13.9608 15.4188L13.9496 15.4104L12.5938 14.0518C12.5655 14.0741 12.5373 14.0968 12.509 14.1196L12.509 14.1196L12.5089 14.1197L12.5089 14.1197L12.5088 14.1197C12.4058 14.2026 12.3019 14.2862 12.1877 14.3543C11.6779 14.6541 11.0784 14.8501 10.3922 14.9426C10.2442 14.9622 10.0862 14.9699 9.92846 14.9776H9.92844C9.88309 14.9799 9.83776 14.9821 9.79272 14.9846V16.7829C9.81863 16.782 9.84484 16.7814 9.87095 16.7808L9.87106 16.7807C9.92397 16.7795 9.97647 16.7783 10.0252 16.7745C10.3277 16.7577 10.6162 16.7297 10.8936 16.6877C11.8095 16.5532 12.6106 16.2899 13.2829 15.8978C13.5294 15.7577 13.7479 15.5952 13.9608 15.4188ZM14.549 14.8417L13.4958 13.7857L13.1793 13.472C13.5014 13.0686 13.7451 12.5924 13.9076 12.0434C14.0308 11.6261 14.1036 11.1667 14.1289 10.6653H15.9244C15.8936 11.5392 15.7675 12.3235 15.5406 13.0154C15.4426 13.3207 15.3221 13.6092 15.1849 13.8782C15.0028 14.2311 14.7927 14.5532 14.549 14.8417ZM15.3501 6.95658C15.1401 6.46639 14.8796 6.02661 14.563 5.64566L13.2577 6.95378L13.1933 7.01541C13.3697 7.2395 13.521 7.486 13.6471 7.7521C13.7395 7.94258 13.8235 8.13866 13.888 8.35154C14 8.71008 14.07 9.10784 14.1092 9.52801C14.1176 9.62885 14.126 9.72969 14.1317 9.83614H15.9272C15.9272 9.79692 15.9244 9.76051 15.9216 9.72409C15.8908 9.03221 15.8011 8.39636 15.6443 7.81933C15.563 7.51401 15.465 7.22549 15.3501 6.95658ZM16.5322 7.97619C17.4706 8.20588 18.2577 8.59244 18.8964 9.13305L17.5322 10.4972C17.2969 10.3123 17.042 10.1499 16.7591 10.0182C16.7451 9.28431 16.6695 8.60364 16.5322 7.97619ZM20.8459 13.9062C20.7843 12.1415 20.3305 10.7325 19.4818 9.71569L18.112 11.0882C18.6751 11.8025 18.9916 12.7465 19.0504 13.9062H20.8459Z" fill="#313235"/>
</svg>
