<svg width="24" height="24" viewBox="0 0 24 24" fill="none" xmlns="http://www.w3.org/2000/svg">
<path fill-rule="evenodd" clip-rule="evenodd" d="M11.8095 21.7338H11.8151C12.1709 21.7338 12.4137 21.4911 12.5049 21.3998L12.507 21.3977L21.2185 12.7395C21.6526 12.3165 21.8067 11.8347 21.6386 11.4173C21.5406 11.1736 21.2493 10.7647 20.3921 10.7591H20.3865L16.8235 10.7647C16.7955 10.7114 16.7731 10.647 16.7703 10.6078L16.7731 3.89633V3.88793C16.7647 3.47056 16.7087 2.87113 16.2857 2.46216C15.8655 2.056 15.2605 2.01679 14.8403 2.02519H8.79833C8.18208 2.00838 7.7283 2.15124 7.40617 2.46777C7.08404 2.78429 6.92998 3.23807 6.93839 3.85432L6.91878 10.7367C6.90197 10.7535 6.87956 10.7675 6.86276 10.7759L3.2129 10.7787H3.1961C2.6975 10.7787 2.28293 11.042 2.10646 11.4733C1.90478 11.9635 2.06445 12.5546 2.51263 12.9803L11.2157 21.4593C11.4314 21.6834 11.6583 21.7338 11.8095 21.7338ZM3.11486 11.8851C3.12047 11.8823 3.14288 11.8711 3.1933 11.8711C3.1961 11.8711 3.1989 11.8711 3.1989 11.8683H3.2073L6.88517 11.8655C7.39217 11.8655 8.00561 11.3949 8.00561 10.8095L8.02522 3.85432V3.84591C8.02242 3.63863 8.04483 3.36972 8.16527 3.24928C8.28852 3.13163 8.56023 3.11482 8.76751 3.12043H14.8515C15.1961 3.11202 15.4286 3.15684 15.5238 3.24928C15.619 3.34171 15.6723 3.5686 15.6779 3.90474L15.6751 10.6134C15.6751 11.0504 16.0168 11.8599 16.6695 11.8599L20.3809 11.8543C20.4454 11.8543 20.4986 11.8599 20.5406 11.8655C20.5182 11.8935 20.4902 11.9271 20.451 11.9635L20.4454 11.9691L11.8263 20.535L3.26893 12.1988L3.26332 12.1932C3.09806 12.0364 3.10086 11.9047 3.11486 11.8851Z" fill="#313235"/>
</svg>
