<svg width="24" height="24" viewBox="0 0 24 24" fill="none" xmlns="http://www.w3.org/2000/svg">
<path fill-rule="evenodd" clip-rule="evenodd" d="M21.7086 7.73387C21.7086 7.73387 21.9972 4.13444 18.07 4.13444C18.07 4.13444 16.9299 4.13444 16.9244 4.1372V2.61064C16.9244 2.27171 16.647 2 16.3081 2C15.9664 2 15.6919 2.27451 15.6919 2.61064V4.13725L8.06165 4.14005V2.61064C8.06165 2.27171 7.78434 2 7.44541 2C7.10367 2 6.82916 2.27451 6.82916 2.61064V4.14005H5.63869C5.63869 4.14005 5.56586 4.13444 5.43981 4.13444C4.68631 4.13444 2.03086 4.37254 2.03086 7.71426V18.0868C2.03086 18.0868 1.78437 21.6722 5.64989 21.6722H18.0728C18.0728 21.6722 18.1905 21.6862 18.3865 21.6862C19.2689 21.6862 21.7114 21.3865 21.7114 18.0672L21.7086 7.73387ZM18.3865 20.4677C20.4818 20.4677 20.4818 18.661 20.4818 18.0672L20.479 10.5602H3.26055V18.0868C3.26055 18.1148 3.26055 18.1428 3.25775 18.1708C3.25775 18.1708 3.21293 19.2072 3.83478 19.8543C4.21573 20.252 4.82917 20.4537 5.64709 20.4537H18.0672C18.1176 20.4537 18.168 20.4565 18.2185 20.4649C18.2254 20.4635 18.2442 20.4642 18.2726 20.4652H18.2726C18.3014 20.4663 18.3401 20.4677 18.3865 20.4677ZM14.7647 13.8851C15.2409 13.8851 15.6611 14.2661 15.6611 14.7002V16.1064C15.6611 16.549 15.2521 16.9215 14.7647 16.9215H13.4006L13.4034 18.2716C13.4034 18.7506 13.0252 19.154 12.5798 19.154H11.1597C10.7115 19.154 10.3361 18.7506 10.3361 18.2716V16.9187H8.97201C8.49022 16.9187 8.08126 16.5462 8.08126 16.1036V14.703C8.08126 14.2604 8.49022 13.8879 8.97201 13.8879H10.3361V12.5378C10.3361 12.056 10.7143 11.6498 11.1597 11.6498H12.5742C13.0224 11.6498 13.3978 12.056 13.3978 12.5378V13.8851H14.7647Z" fill="#313235"/>
</svg>
