<svg width="24" height="24" viewBox="0 0 24 24" fill="none" xmlns="http://www.w3.org/2000/svg">
<path fill-rule="evenodd" clip-rule="evenodd" d="M19.0578 6.06723H16.5115V5.47899C16.5115 5.31653 16.4499 5.15966 16.3435 5.04482L15.8701 4.53501C16.1278 4.06443 16.0886 3.45658 15.7104 3.05322L15.0634 2.35854C14.8477 2.12885 14.5564 2 14.2538 2C13.9513 2 13.66 2.12885 13.4443 2.35854L13.0662 2.76471C12.6208 3.2437 12.6208 4.02241 13.0662 4.5014L13.7132 5.19608C13.9289 5.42857 14.2202 5.55742 14.5227 5.55742C14.7132 5.55742 14.8953 5.5014 15.0606 5.40616L15.3631 5.73389V6.06723H8.62919V5.73389L8.93451 5.40616C9.09978 5.5014 9.28465 5.56022 9.47513 5.56022C9.77765 5.56022 10.069 5.43137 10.2847 5.19888L10.9317 4.5042C11.3799 4.02521 11.3799 3.2465 10.9317 2.76751L10.5536 2.36134C10.3379 2.13165 10.0466 2.0028 9.74404 2.0028C9.44152 2.0028 9.1502 2.13165 8.93451 2.36134L8.28745 3.05602C7.9121 3.45938 7.87009 4.06443 8.12779 4.53501L7.6516 5.04762C7.54516 5.16247 7.48353 5.31933 7.48353 5.48179V6.07003H4.93731C4.30426 6.07003 3.79166 6.62185 3.79166 7.29972V8.38655C3.79166 9.06723 4.30426 9.61625 4.93731 9.61625H5.31827V10.577C5.31827 11.2577 5.83087 11.8067 6.46393 11.8067H7.61799V18.381H6.48633C5.85328 18.381 5.34068 18.9328 5.34068 19.6106V20.4622C5.34068 21.1401 5.85328 21.6919 6.48633 21.6919H17.5087C18.1418 21.6919 18.6544 21.1401 18.6544 20.4622V19.6106C18.6544 18.9328 18.1418 18.381 17.5087 18.381H16.3771V11.8067H17.5312C18.1642 11.8067 18.6768 11.2577 18.6768 10.577V9.61625H19.0578C19.6908 9.61625 20.2034 9.06723 20.2034 8.38655V7.29972C20.2006 6.61905 19.688 6.06723 19.0578 6.06723ZM19.0578 8.38375H17.5788C17.5718 8.38375 17.5641 8.38235 17.5564 8.38095C17.5487 8.37955 17.541 8.37815 17.534 8.37815H6.46673C6.46004 8.37815 6.45336 8.37943 6.44638 8.38076L6.44637 8.38076C6.43872 8.38222 6.43069 8.38375 6.42191 8.38375H4.94012V7.29692H19.0578V8.38375ZM15.2791 10.5714H17.5312V9.61064H6.46393V10.5714H8.71883C8.72761 10.5714 8.73563 10.5699 8.74329 10.5684C8.75028 10.5671 8.75696 10.5658 8.76365 10.5658H15.2342C15.2409 10.5658 15.2476 10.5671 15.2546 10.5684C15.2622 10.5699 15.2703 10.5714 15.2791 10.5714ZM8.76365 18.3754H15.2342V11.8011H8.76365V18.3754ZM6.48633 20.4566H17.5059V19.605H15.3043C15.3004 19.6055 15.2964 19.6061 15.2924 19.6067C15.2895 19.6071 15.2866 19.6076 15.2837 19.608L15.2837 19.6081C15.2669 19.6107 15.2492 19.6134 15.2314 19.6134H8.76084C8.74443 19.6134 8.72921 19.6111 8.71362 19.6086C8.70527 19.6073 8.69681 19.606 8.68801 19.605H6.48633V20.4566ZM9.74964 3.22969L10.1278 3.63585L9.48073 4.33053L9.10258 3.92437L9.74964 3.22969ZM14.2538 3.22969L13.8757 3.63585L14.5227 4.33053L14.9009 3.92437L14.2538 3.22969Z" fill="#313235"/>
</svg>
