<svg width="24" height="24" viewBox="0 0 24 24" fill="none" xmlns="http://www.w3.org/2000/svg">
<path fill-rule="evenodd" clip-rule="evenodd" d="M21.6863 12.7227C21.6863 12.3894 21.4174 12.1176 21.0841 12.1176L17.4538 12.1148C17.3642 11.1008 17.0168 10.2689 16.3838 9.65826C15.2426 8.5553 13.6384 8.58321 13.5163 8.58534L13.5098 8.58543C13.4006 8.58543 12.4538 8.58543 11.2353 8.58263V4.28851C11.2353 3.95518 10.9664 3.68347 10.6331 3.68347H6.59107C6.25774 3.68347 5.98883 3.95518 5.98883 4.28851V8.57983C5.54065 8.57983 5.21012 8.57983 5.07847 8.58263C4.58827 8.58823 4.31936 8.79552 4.17931 8.96638C3.99443 9.19047 3.94681 9.46498 3.96642 9.66947L3.94681 12.0952L2.60228 12.0924C2.43981 12.0924 2.28295 12.1597 2.1681 12.2801C2.05606 12.4006 1.99443 12.563 2.00284 12.7283L2.27174 18.6162C2.29695 19.2045 2.68351 20.0812 3.63869 20.0812H16.0505L16.0635 20.0817C16.0814 20.0825 16.1152 20.084 16.1625 20.084C16.6079 20.084 18.2605 19.9888 19.6555 18.6611C21.0028 17.3809 21.6863 15.3838 21.6863 12.7227ZM10.028 5.56022H7.19051V4.89636H10.028V5.56022ZM5.1709 9.79552L5.1541 12.0252L16.2465 12.0112C16.1569 11.3894 15.9216 10.8936 15.5491 10.5322C14.8156 9.82713 13.7296 9.80073 13.556 9.79651H13.556H13.5559H13.5559H13.5559H13.5559C13.5413 9.79615 13.5331 9.79595 13.5322 9.79552C13.4762 9.78879 11.3113 9.78924 9.17949 9.78969L7.62749 9.78991C7.16765 9.79103 6.73805 9.7917 6.36616 9.79228H6.36582C5.80454 9.79316 5.37475 9.79383 5.1709 9.79552ZM18.8432 17.7703C19.832 16.8207 20.3782 15.3277 20.4678 13.3305L3.23253 13.3109L3.47342 18.5658C3.47342 18.5658 3.49863 18.8739 3.63869 18.8739H16.0841C16.0871 18.8736 16.0957 18.8735 16.1097 18.8734C16.319 18.8713 17.7115 18.8573 18.8432 17.7703ZM7.19051 8.57423H10.028V6.77031H7.19051V8.57423ZM6.47342 15.6723C6.24933 15.6723 6.07006 15.8543 6.07006 16.0784C6.07006 16.3025 6.25214 16.4846 6.47342 16.4846C6.69471 16.4846 6.87679 16.3025 6.87679 16.0784C6.87679 15.8543 6.69471 15.6723 6.47342 15.6723ZM5.26614 16.0812C5.26614 16.7507 5.80676 17.2969 6.47342 17.2969C7.13729 17.2969 7.68071 16.7507 7.68071 16.0812C7.68071 15.4118 7.14009 14.8655 6.47342 14.8655C5.80676 14.8655 5.26614 15.4118 5.26614 16.0812ZM10.507 15.6723C10.2829 15.6723 10.1009 15.8543 10.1009 16.0784C10.1009 16.3025 10.2829 16.4846 10.507 16.4846C10.7311 16.4846 10.9104 16.3025 10.9104 16.0784C10.9104 15.8543 10.7311 15.6723 10.507 15.6723ZM9.29975 16.0812C9.29975 16.7507 9.84037 17.2969 10.507 17.2969C11.1737 17.2969 11.7171 16.7507 11.7143 16.0812C11.7143 15.4118 11.1737 14.8655 10.507 14.8655C9.84317 14.8655 9.29975 15.4118 9.29975 16.0812ZM14.5435 15.6723C14.3194 15.6723 14.1401 15.8543 14.1401 16.0784C14.1401 16.3025 14.3222 16.4846 14.5435 16.4846C14.7675 16.4846 14.9468 16.3025 14.9468 16.0784C14.9468 15.8543 14.7675 15.6723 14.5435 15.6723ZM13.3362 16.0812C13.3362 16.7507 13.8768 17.2969 14.5435 17.2969C15.2101 17.2969 15.7507 16.7507 15.7507 16.0812C15.7507 15.4118 15.2101 14.8655 14.5435 14.8655C13.8768 14.8655 13.3362 15.4118 13.3362 16.0812Z" fill="#313235"/>
</svg>
