<svg width="24" height="24" viewBox="0 0 24 24" fill="none" xmlns="http://www.w3.org/2000/svg">
<path fill-rule="evenodd" clip-rule="evenodd" d="M2.01404 7.58396C2.01404 7.62051 2.01769 7.65621 2.02464 7.69072C2.14825 10.3743 3.73661 11.8473 6.53224 11.8473C7.76134 11.8473 8.75713 11.562 9.49746 11.0138C9.69378 11.4377 9.86888 11.8958 10.0224 12.3879C10.6975 14.5475 10.8291 16.8921 10.916 18.4411L10.9181 18.4778C10.9535 19.0822 10.9815 19.5597 11.0336 19.8837C11.0784 20.1498 11.3053 20.3374 11.5658 20.3374C11.5939 20.3374 11.6247 20.3346 11.6527 20.3262C11.9468 20.2786 12.1457 20.0013 12.0981 19.7072C12.0532 19.4327 12.0252 18.9453 11.9944 18.3795C11.9588 17.7409 11.9154 16.9652 11.8298 16.1171M10.2968 10.1807C10.7893 9.45611 11.0448 8.50487 11.0448 7.34587C11.0448 4.44111 9.44259 2.84167 6.53224 2.84167H6.53084H6.52943H3.65549C2.75353 2.84167 2.01684 3.57557 2.01404 4.48033V7.58396M10.2968 10.1807C10.1075 9.80922 9.89593 9.45085 9.65935 9.11083C9.86654 8.62869 9.9692 8.04003 9.9692 7.34307C9.9692 5.03775 8.84596 3.9173 6.53224 3.9173L6.53084 3.9173L6.52943 3.9173H3.65549C3.34457 3.9173 3.09247 4.1722 3.08967 4.48313V7.2879C3.09152 7.30603 3.09247 7.32443 3.09247 7.34307C3.09247 9.64838 4.21852 10.7688 6.53224 10.7688C7.59762 10.7688 8.4106 10.5313 8.97772 10.0498M17.1373 13.4215C15.9435 13.4215 15.066 13.1277 14.4957 12.5309C15.4843 10.9086 16.6696 9.9633 18.0308 9.71561C18.3249 9.66239 18.5182 9.38228 18.465 9.08816C18.4118 8.79404 18.1317 8.60077 17.8375 8.65399C16.6331 8.87247 15.5434 9.52233 14.5966 10.5812C14.3534 10.8543 14.1185 11.1555 13.893 11.4838C13.7605 11.0688 13.6947 10.5862 13.6947 10.0349C13.6947 7.75483 14.8207 6.64559 17.1373 6.64559H20.014C20.3277 6.64559 20.5826 6.89489 20.5826 7.20021V10.0349C20.5826 12.3122 19.4538 13.4215 17.1373 13.4215Z" fill="#313235"/>
</svg>
