<svg width="24" height="24" viewBox="0 0 24 24" fill="none" xmlns="http://www.w3.org/2000/svg">
<path fill-rule="evenodd" clip-rule="evenodd" d="M21.6176 7.33612L16.1554 2.15406C16.0518 2.05602 15.9145 2 15.7717 2H8.39075C7.82213 2 7.28431 2.53781 7.28431 3.10644V4.61344C6.86695 4.35294 6.43837 4.21848 6.007 4.21008C5.29552 4.19607 4.58404 4.52661 3.89216 5.18767C3.65782 5.41124 3.43643 5.7151 3.35253 5.83026L3.34314 5.84313L3.33474 5.85433C3.33194 5.85854 3.32914 5.86204 3.32634 5.86554C3.32354 5.86904 3.32073 5.87254 3.31793 5.87674C2.68208 6.79831 2.69328 8.21287 3.34875 9.85993C4.02381 11.5546 5.33754 13.4033 7.14426 15.2101L7.14986 15.2157L7.20308 15.2717L7.20868 15.2773C7.23109 15.2997 7.2542 15.3221 7.27731 15.3445C7.30042 15.3669 7.32353 15.3893 7.34594 15.4117C7.30672 15.4902 7.28431 15.577 7.28431 15.6638V20.5854C7.28431 21.1736 7.80252 21.6918 8.39075 21.6918H20.6876C21.2759 21.6918 21.7941 21.1736 21.7941 20.5854V7.74228C21.7941 7.58822 21.7297 7.44257 21.6176 7.33612ZM20.4047 7.72828H18.2227C17.57 7.72828 17.0238 7.5238 16.64 7.14005C16.2563 6.75629 16.0518 6.20727 16.0518 5.55742V3.59944L20.4047 7.72828ZM4.2367 6.5238C3.83054 7.12324 3.88656 8.18766 4.39076 9.44816C5.17227 11.4089 6.7493 13.2325 7.93417 14.4201L7.96498 14.4482L7.97619 14.4594L8.0042 14.4874C9.18907 15.6722 11.0126 17.2493 12.9734 18.0308C14.2339 18.535 15.2983 18.591 15.9005 18.1848L15.9257 18.168C16.2087 17.9636 16.3543 17.8291 16.4271 17.7535C17.3151 16.8235 17.3179 16.0868 16.4356 15.2045C16.2675 15.0308 16.0742 14.8795 15.8669 14.7535L15.8501 14.7451C15.4244 14.479 14.7493 14.2353 13.8221 15.1624C13.7157 15.2661 13.6176 15.3781 13.528 15.4958C13.5112 15.5182 13.4916 15.5406 13.4692 15.5602C13.2619 15.7507 12.8921 15.9467 12.3151 15.8011C12.0042 15.7227 11.6597 15.5518 11.2619 15.2773C10.6877 14.8823 10.0238 14.2997 9.10504 13.3809L9.04061 13.3165C8.12184 12.3977 7.53641 11.7339 7.14426 11.1596C6.86975 10.7619 6.69888 10.4173 6.62045 10.1064C6.47199 9.5294 6.67087 9.15965 6.86134 8.95237C6.88095 8.93276 6.90336 8.91315 6.92577 8.89354C7.04342 8.80671 7.15546 8.70867 7.2591 8.60223C8.18907 7.67506 7.94257 6.99999 7.67647 6.57422L7.66806 6.55741C7.54201 6.35013 7.39075 6.15966 7.21708 5.98879C6.33753 5.10644 5.59804 5.10924 4.66807 5.99719C4.58964 6.07002 4.45519 6.21848 4.25351 6.49859L4.2367 6.5238Z" fill="#313235"/>
</svg>
