<svg width="24" height="24" viewBox="0 0 24 24" fill="none" xmlns="http://www.w3.org/2000/svg">
<path fill-rule="evenodd" clip-rule="evenodd" d="M18.4621 9.95797C18.4621 8.32772 17.8179 7.14285 16.633 6.56022C16.6442 6.49019 16.6554 6.42016 16.6498 6.34733V3.42297C16.6498 2.63865 16.014 2 15.2325 2H8.49018C7.70867 2 7.07281 2.63865 7.07281 3.42297V6.34733C7.07281 6.43977 7.08402 6.5294 7.10082 6.61624C6.83752 6.75629 6.59102 6.91876 6.38094 7.12324C5.68626 7.79271 5.33612 8.74509 5.33612 9.95797V17.8823C5.33612 19.0952 5.68626 20.0476 6.37533 20.7171C7.0392 21.3613 7.96357 21.6862 9.12323 21.6862H14.689C17.0448 21.6862 18.4537 20.2633 18.4537 17.8823L18.4621 9.95797ZM8.27169 3.42297V6.34733C8.27169 6.47058 8.37253 6.56862 8.49298 6.56862H15.2353C15.3585 6.56862 15.4566 6.47058 15.4566 6.34733V3.42297C15.4566 3.29972 15.3557 3.20168 15.2353 3.20168H8.49298C8.37253 3.19888 8.27169 3.29972 8.27169 3.42297ZM14.689 20.4874C15.8935 20.4874 16.6694 20.0392 17.028 19.1736H6.77029C6.87954 19.4397 7.02239 19.6722 7.21007 19.8571C7.64424 20.2773 8.2857 20.4902 9.12603 20.4902H14.689V20.4874ZM15.9411 7.57422C16.6134 7.84313 17.0336 8.38094 17.1904 9.17646H6.61343C6.71427 8.68626 6.90755 8.2801 7.21007 7.98879C7.38374 7.82352 7.59942 7.70027 7.83472 7.59943C8.03079 7.70587 8.25488 7.7703 8.49298 7.7703H15.2353C15.4958 7.7703 15.7339 7.69467 15.9411 7.57422ZM6.5322 17.8823C6.5322 17.8977 6.5336 17.9124 6.535 17.9271C6.5364 17.9419 6.5378 17.9566 6.5378 17.972H17.2521C17.2521 17.9566 17.2535 17.9419 17.2549 17.9271C17.2563 17.9124 17.2577 17.8977 17.2577 17.8823L17.2661 10.3753H6.535V17.8823H6.5322ZM9.3053 6.03081C8.97477 6.03081 8.70866 5.7619 8.70866 5.43137V4.31372C8.70866 3.98319 8.97757 3.71428 9.3053 3.71428C9.63303 3.71428 9.90194 3.98319 9.90194 4.31372V5.43137C9.90474 5.7619 9.63583 6.03081 9.3053 6.03081ZM10.4173 5.43137C10.4173 5.7619 10.6835 6.03081 11.014 6.03081C11.3417 6.03081 11.6106 5.7619 11.6106 5.43137V4.31372C11.6106 3.98319 11.3417 3.71428 11.014 3.71428C10.6863 3.71428 10.4173 3.98319 10.4173 4.31372V5.43137ZM12.7199 6.03081C12.3893 6.03081 12.1232 5.7619 12.1232 5.43137V4.31372C12.1232 3.98319 12.3921 3.71428 12.7199 3.71428C13.0476 3.71428 13.3165 3.98319 13.3165 4.31372V5.43137C13.3165 5.7619 13.0504 6.03081 12.7199 6.03081ZM13.8291 5.43137C13.8291 5.7619 14.0952 6.03081 14.4257 6.03081C14.7563 6.03081 15.0252 5.7619 15.0224 5.43137V4.31372C15.0224 3.98319 14.7563 3.71428 14.4257 3.71428C14.098 3.71428 13.8291 3.98319 13.8291 4.31372V5.43137ZM14.1008 14.6162V13.7535H12.3025V11.9496H11.4398V13.7535L9.64424 13.7563V14.6218H11.4398L11.4426 16.4257H12.3053V14.6218L14.1008 14.6162ZM15.1372 13.6218C15.1372 13.1288 14.6974 12.7143 14.1764 12.7143L13.3361 12.7171V11.8767C13.3361 11.3557 12.9215 10.9132 12.4313 10.9132H11.3025C10.8123 10.9132 10.3977 11.3557 10.3977 11.8767V12.7171H9.563C9.03359 12.7171 8.60222 13.126 8.60222 13.6246V14.7563C8.60222 15.2577 9.03359 15.6638 9.563 15.6638H10.4005V16.5014C10.4005 17.0336 10.8067 17.465 11.3053 17.465H12.4341C12.9327 17.465 13.3389 17.0336 13.3389 16.5014V15.6582H14.1764C14.6974 15.6582 15.1372 15.2437 15.1372 14.7535V13.6218Z" fill="#313235"/>
</svg>
