<svg width="24" height="24" viewBox="0 0 24 24" fill="none" xmlns="http://www.w3.org/2000/svg">
<path fill-rule="evenodd" clip-rule="evenodd" d="M13.8179 6.21428C13.8179 5.27311 13.0644 4.5056 12.0644 4.5056C8.94679 4.5056 7.20169 5.81933 6.24091 7.09664L3.05884 7.09944C2.77872 7.09944 2.51262 7.21428 2.31374 7.41596C2.11486 7.61764 2.00562 7.88935 2.00562 8.17227L2.01402 15.7129C2.01402 16.3039 2.48741 16.7829 3.06724 16.7829L6.2269 16.7801C7.18489 18.0574 8.94119 19.3627 12.1485 19.3627C13.07 19.3627 13.8179 18.6008 13.8179 17.6625V6.21428ZM21.6835 12.0742C21.6387 7.95098 19.0476 5.53361 18.9384 5.43277C18.507 5.04061 17.846 5.07703 17.4566 5.5084C17.0644 5.94538 17.0981 6.62325 17.5238 7.02101C17.6079 7.09944 19.5406 8.94538 19.577 12.1331C19.5798 12.1639 19.6891 15.3431 17.5686 17.2703C17.1345 17.6653 17.0981 18.3431 17.4846 18.7857C17.6919 19.021 17.9804 19.1443 18.2717 19.1443C18.521 19.1443 18.7731 19.0518 18.9748 18.8697C21.8291 16.2731 21.6891 12.2115 21.6835 12.0742ZM18.1093 12.1107V12.1106C18.0784 9.33193 16.3193 7.69047 16.2409 7.61764C15.8095 7.22269 15.1401 7.2591 14.7535 7.69888C14.3642 8.14145 14.4006 8.81933 14.8319 9.21428C14.846 9.22549 15.9804 10.3151 16 12.1667C16.0028 12.1863 16.0448 14.0266 14.86 15.105C14.423 15.5028 14.3894 16.1807 14.7759 16.6204C14.9832 16.8585 15.2717 16.979 15.563 16.979C15.8123 16.979 16.0644 16.8866 16.2661 16.7045C18.2069 14.9429 18.1121 12.1929 18.1093 12.1107ZM11.7087 17.2087V6.65966C9.86556 6.7437 8.59385 7.37395 7.78433 8.57843C7.63027 8.96778 7.26612 9.24229 6.82354 9.24229C6.82026 9.24229 6.81698 9.24037 6.81426 9.23878C6.81234 9.23765 6.8107 9.23669 6.80954 9.23669C6.80534 9.23669 6.80183 9.23809 6.79833 9.23949C6.79483 9.24089 6.79133 9.24229 6.78713 9.24229H4.11206L4.12046 14.6373L6.77872 14.6345C7.17368 14.6345 7.50702 14.8669 7.68909 15.1947C7.69724 15.211 7.7113 15.2233 7.72524 15.2355C7.74005 15.2485 7.7547 15.2614 7.76192 15.2787C8.55183 16.4832 9.87957 17.1302 11.7087 17.2087Z" fill="#313235"/>
</svg>
