<svg width="24" height="24" viewBox="0 0 24 24" fill="none" xmlns="http://www.w3.org/2000/svg">
<path fill-rule="evenodd" clip-rule="evenodd" d="M24 12.0034C24 3.83153 19.5777 0 11.9966 0C4.41548 0 0 3.83153 0 12.0034C0 20.1787 4.41548 24 11.9966 24C19.5777 24 24 20.1787 24 12.0034ZM11.9966 22.5009C19.062 22.5009 22.5009 19.0655 22.5009 12.0034C22.5009 4.93796 19.0655 1.49915 12 1.49915C4.93455 1.49915 1.50256 4.93455 1.50256 12.0034C1.49915 19.0655 4.93455 22.5009 11.9966 22.5009ZM17.8497 6.14343C18.1434 6.43711 18.1434 6.91178 17.8497 7.20205L13.0518 12L17.8463 16.7945C18.1434 17.0814 18.1537 17.5561 17.8634 17.8566C17.5766 18.1537 17.1019 18.1639 16.8014 17.8736L16.7843 17.8566L11.9932 13.062L7.21229 17.8429C6.92203 18.1366 6.44735 18.1366 6.15367 17.8463L6.15026 17.8429C5.85657 17.5492 5.85657 17.0746 6.15026 16.7809L10.9311 12L6.15026 7.21912C5.84633 6.93569 5.82925 6.46101 6.11269 6.1605C6.39613 5.85657 6.8708 5.8395 7.17131 6.12294L7.20888 6.1605L11.9898 10.9414L16.7843 6.14684C17.0814 5.84974 17.5561 5.84974 17.8497 6.14343Z" fill="#313235"/>
</svg>
