<svg width="24" height="24" viewBox="0 0 24 24" fill="none" xmlns="http://www.w3.org/2000/svg">
<path fill-rule="evenodd" clip-rule="evenodd" d="M16.1163 21.6526H7.41597C7.10782 21.6526 6.81077 21.6046 6.5319 21.5156C5.61288 21.2649 4.88944 20.541 4.63933 19.6217C4.55066 19.3432 4.50281 19.0468 4.50281 18.7395V4.66384C4.50281 4.32723 4.56523 4.00018 4.68461 3.69574C4.92351 3.01968 5.44973 2.47992 6.11609 2.22367C6.43757 2.08784 6.78652 2.01678 7.14707 2.01678H16.1163C17.6233 2.01678 18.8529 3.24368 18.8529 4.75348V8.91875V18.9187C18.8529 20.4257 17.6261 21.6526 16.1163 21.6526ZM17.7129 8.34732V4.75348C17.7129 4.32629 17.5444 3.93809 17.2703 3.65178V8.34732H17.7129ZM17.2703 14.1821V9.49017H17.7129V14.1821H17.2703ZM17.2703 15.3249V20.0204C17.5444 19.7341 17.7129 19.3459 17.7129 18.9187V15.3249H17.2703ZM10.9314 6.91314C12.4776 6.91314 13.3656 7.8011 13.3656 9.34732C13.3656 10.8935 12.4776 11.7731 10.9314 11.7731C9.38516 11.7731 8.50561 10.8907 8.50561 9.34732C8.50561 7.8039 9.39076 6.91314 10.9314 6.91314ZM13.9986 16.3697C14.2591 16.3697 14.472 16.1232 14.472 15.8207L14.4692 14.9299C14.4692 14.2017 14.2647 13.577 13.8754 13.1232C13.458 12.6358 12.8501 12.3781 12.1163 12.3781H9.75211C9.01821 12.3781 8.41037 12.6358 7.993 13.1232C7.60645 13.5798 7.39917 14.2045 7.39917 14.9299V15.8207C7.39917 16.1232 7.61205 16.3697 7.87256 16.3697H13.9986Z" fill="#313235"/>
</svg>
