<svg width="24" height="24" viewBox="0 0 24 24" fill="none" xmlns="http://www.w3.org/2000/svg">
<path fill-rule="evenodd" clip-rule="evenodd" d="M19.9271 16.9579C21.2072 17.2156 21.6974 18.2744 21.7114 19.1988C21.7142 19.2464 21.7142 19.3164 21.7114 19.3837C21.6974 20.4481 21.0531 21.689 19.294 21.689C17.5321 21.689 16.8963 20.4537 16.8879 19.3949V19.21C16.9103 18.2828 17.4061 17.224 18.6778 16.9607V15.6666H5.0504L5.056 16.9579C6.33611 17.2128 6.8263 18.2744 6.84591 19.1988V19.3837C6.8319 20.4481 6.19045 21.689 4.42855 21.689C2.66946 21.689 2.0336 20.4537 2.0224 19.3949C2.0224 19.3304 2.0224 19.2604 2.0252 19.1988C2.04761 18.28 2.54061 17.224 3.80951 16.9607L3.8011 15.0503C3.8011 14.8851 3.86553 14.7282 3.98318 14.6106C4.10082 14.4929 4.26049 14.4285 4.42575 14.4285H11.2184C11.2172 14.4158 11.2142 14.4043 11.2113 14.3931C11.2078 14.3796 11.2044 14.3667 11.2044 14.3529V13.4229C10.5014 13.3837 9.8431 13.2828 9.31088 13.1232C7.94114 12.7142 7.65263 11.9999 7.65263 11.4761V3.95795C7.65263 3.8291 7.67224 3.70305 7.70585 3.5854C7.87392 3.00837 8.41173 2.5798 9.31088 2.3109C10.6918 1.89913 12.9831 1.89913 14.3641 2.3109C15.731 2.71986 16.0195 3.43414 16.0195 3.95795V11.4761C16.0195 11.9999 15.731 12.7142 14.3641 13.1232C13.8263 13.2828 13.1624 13.3837 12.4537 13.4229V14.3529C12.4537 14.3687 12.4492 14.3828 12.4448 14.3966C12.4415 14.4072 12.4381 14.4176 12.4369 14.4285H19.3052C19.647 14.4285 19.9271 14.7058 19.9271 15.0475V16.9579ZM9.66943 3.49577C10.2465 3.3221 11.014 3.22966 11.8347 3.22966C12.6554 3.22966 13.4285 3.3249 14.0027 3.49577C14.3417 3.59661 14.549 3.71145 14.6666 3.80949C14.5686 3.89072 14.3781 4.00277 14.0083 4.11201C12.8599 4.45655 10.8263 4.45655 9.67783 4.11201C9.31649 4.00557 9.12041 3.89072 9.01397 3.80109C9.12041 3.71425 9.31369 3.60221 9.66943 3.49577ZM8.89912 10.3809V11.4733C8.89912 11.5854 9.14002 11.7786 9.67223 11.9299C10.8263 12.2744 12.8487 12.2744 14.0055 11.9299C14.5322 11.773 14.773 11.5826 14.773 11.4705V10.3837L14.752 10.3927L14.752 10.3927C14.6276 10.4457 14.5048 10.498 14.3669 10.5378C13.6806 10.7422 12.7843 10.8571 11.8431 10.8571C10.9019 10.8571 10.0056 10.745 9.31649 10.5378C9.19463 10.4994 9.08549 10.4556 8.97737 10.4122L8.89912 10.3809ZM5.60502 19.2212V19.3668C5.59381 20.0867 5.20166 20.4509 4.43415 20.4509C3.66945 20.4509 3.2801 20.0923 3.2745 19.3837V19.3809L3.2773 19.2352C3.2885 18.7338 3.50139 18.1372 4.44536 18.1372C5.38653 18.1344 5.59381 18.7254 5.60502 19.2212ZM19.2968 20.4481C18.5349 20.4481 18.1456 20.0895 18.1372 19.3837V19.2296C18.1484 18.7366 18.3585 18.1568 19.2632 18.1372C19.2702 18.1372 19.2765 18.1393 19.2828 18.1414L19.2828 18.1414L19.2829 18.1414C19.2892 18.1435 19.2954 18.1456 19.3024 18.1456C19.3094 18.1456 19.3164 18.1435 19.3234 18.1414C19.3305 18.1393 19.3375 18.1372 19.3445 18.1372C20.252 18.154 20.4565 18.731 20.4649 19.2296V19.364C20.4565 20.0839 20.0643 20.4481 19.2968 20.4481ZM8.96784 7.78368L8.89912 7.75625V8.94952C8.98596 9.04476 9.20444 9.21003 9.67783 9.35288C10.8263 9.69742 12.8599 9.69742 14.0083 9.35288C14.4285 9.22683 14.6694 9.05317 14.773 8.93552V7.75625L14.752 7.76522L14.752 7.76523C14.6276 7.81822 14.5048 7.87054 14.3669 7.91031C13.6806 8.11479 12.7843 8.22964 11.8431 8.22964C10.9019 8.22964 10.0056 8.1176 9.31649 7.91031C9.19105 7.87315 9.07909 7.82827 8.96784 7.78368L8.96784 7.78368ZM9.31649 5.29688C10.0056 5.50416 10.9019 5.61621 11.8431 5.61621C12.7843 5.61621 13.6806 5.50136 14.3669 5.29688C14.5094 5.25466 14.6295 5.20498 14.7507 5.15487L14.773 5.14562V6.30808C14.6722 6.42573 14.4257 6.59939 14.0083 6.72544C12.8599 7.06998 10.8291 7.06998 9.67783 6.72544C9.20164 6.58539 8.98596 6.41732 8.90192 6.32489V5.14002L8.92227 5.14868C9.04693 5.20179 9.17037 5.25437 9.31649 5.29688Z" fill="#313235"/>
</svg>
