<svg width="24" height="24" viewBox="0 0 24 24" fill="none" xmlns="http://www.w3.org/2000/svg">
<path fill-rule="evenodd" clip-rule="evenodd" d="M4.22127 18.7479C4.5322 19.0812 4.96357 19.2745 5.40334 19.2745C5.58542 19.2745 5.76189 19.2437 5.92995 19.1793L10.3025 17.6219C10.5182 17.5462 10.7143 17.4258 10.8795 17.2633C10.9608 17.1877 19.126 9.40339 19.6778 8.81516C20.3893 8.07006 20.7871 7.08127 20.7843 6.05046C20.7843 5.00004 20.3949 3.98884 19.6918 3.20733C18.9915 2.45383 18.0196 2.01965 17.028 2.01965C16.056 2.01965 15.1316 2.44262 14.4201 3.21013C14.1288 3.52385 9.74227 7.71712 5.76749 11.5014C5.549 11.7059 5.38654 11.9692 5.2969 12.2605L3.83192 16.9636C3.63304 17.5854 3.7815 18.2661 4.22127 18.7479ZM6.84592 12.7451L5.36133 17.4818L5.40614 17.5967H5.41175L9.78429 16.0392C11.8963 14.0308 18.1148 8.08967 18.535 7.64429C18.9495 7.21852 19.182 6.64709 19.1792 6.05046C19.1764 5.43421 18.9495 4.84038 18.5406 4.37819C18.1512 3.95522 17.605 3.71153 17.0308 3.70032C16.493 3.70032 15.9888 3.93562 15.5798 4.37819C15.098 4.8936 7.18205 12.4258 6.84592 12.7451ZM20.0168 19.9328C20.4593 19.9328 20.8207 20.3081 20.8207 20.7703C20.8207 21.2353 20.4593 21.6106 20.0168 21.6106H4.48178C4.0392 21.6106 3.67786 21.2353 3.67786 20.7703C3.67786 20.3081 4.0392 19.9328 4.48178 19.9328H20.0168Z" fill="#313235"/>
</svg>
