<svg width="24" height="24" viewBox="0 0 24 24" fill="none" xmlns="http://www.w3.org/2000/svg">
<path fill-rule="evenodd" clip-rule="evenodd" d="M16.9331 7.18241H20.3925C21.1992 7.18241 21.8463 7.83507 21.8463 8.6446V20.3757C21.8463 21.188 21.1964 21.8463 20.3925 21.8463H3.61939C2.81547 21.8463 2.16 21.1852 2.16 20.3757V8.6446C2.16 7.83507 2.81547 7.18241 3.61939 7.18241H7.07317V6.82667C7.07317 4.25804 9.24684 2.16 11.9135 2.16H12.1012C14.7678 2.16 16.9331 4.25804 16.9331 6.82667V7.18241ZM8.30286 6.82667C8.30286 4.94432 9.92751 3.3981 11.9135 3.3981H12.1012C14.0872 3.3981 15.7034 4.94432 15.7034 6.82667V7.18241H8.30286V6.82667ZM20.6166 12.2889C18.9527 13.5101 16.3113 14.0648 12.0788 14.0648C7.73984 14.0648 5.04796 13.4793 3.3925 12.174V8.6474C3.3925 8.52415 3.49894 8.42331 3.62219 8.42331H20.3953C20.5185 8.42331 20.6166 8.52415 20.6166 8.6474V12.2889ZM11.4205 16.4345H12.5942V15.3029H11.4205V16.4345ZM20.3953 20.6054C20.5185 20.6054 20.6166 20.5073 20.6166 20.3757H20.6138V13.7538C19.0227 14.6642 16.8799 15.1432 13.8211 15.2664V16.6558C13.8211 17.0031 13.667 17.2917 13.3869 17.4737C13.1824 17.6054 12.9275 17.6726 12.5998 17.6726H11.4037C11.0844 17.6726 10.8211 17.6054 10.6166 17.4737C10.3449 17.2917 10.188 17.0031 10.188 16.6558V15.2608C7.11238 15.1208 4.97233 14.6166 3.3897 13.6754V20.3757C3.3897 20.5073 3.49614 20.6054 3.61939 20.6054H20.3953Z" fill="#313235"/>
</svg>
