<svg width="24" height="24" viewBox="0 0 24 24" fill="none" xmlns="http://www.w3.org/2000/svg">
<path fill-rule="evenodd" clip-rule="evenodd" d="M14.6825 21.17C15.7497 21.5957 16.7413 21.8086 17.6069 21.8086C18.4304 21.8086 19.1447 21.6154 19.7105 21.2316C19.7189 21.2232 19.7273 21.2176 19.7357 21.212L19.7525 21.2008C19.7584 21.1965 19.7648 21.1919 19.7717 21.1869C19.9222 21.0773 20.3059 20.7981 20.5845 20.5061C21.4164 19.6378 21.8282 18.7498 21.8114 17.8731C21.7946 17.0243 21.38 16.1896 20.5761 15.3857C20.2764 15.0803 19.9402 14.817 19.5761 14.5985C18.8814 14.1672 18.1643 14.0103 17.4444 14.1336C16.7245 14.2568 16.0214 14.6574 15.3492 15.3296C15.1895 15.4865 15.0439 15.6518 14.9066 15.8254C14.789 15.8899 14.4164 15.8506 13.6573 15.3296C12.7778 14.7246 11.7385 13.719 11.0327 13.0131L10.9486 12.9291C10.2427 12.2232 9.23433 11.184 8.63209 10.3044C8.11108 9.54253 8.07187 9.17278 8.13629 9.05513C8.30996 8.91788 8.47523 8.76942 8.63209 8.61256C9.30436 7.94029 9.70492 7.2372 9.82817 6.51732C9.95142 5.79743 9.79456 5.08034 9.36318 4.38566C9.1447 4.01872 8.87859 3.68258 8.57607 3.38566C7.77215 2.58174 6.93461 2.16718 6.08868 2.15037C5.21192 2.13636 4.32397 2.54813 3.45562 3.37726C3.16362 3.65587 2.88443 4.03952 2.77486 4.19008C2.76987 4.19695 2.76522 4.20333 2.76094 4.20919L2.74974 4.226L2.73293 4.25121C1.93741 5.40247 1.95702 7.18678 2.78615 9.27642C3.6573 11.4585 5.35198 13.8478 7.68812 16.184L7.69372 16.1896L7.76935 16.2624L7.77495 16.268C10.1111 18.6042 12.5004 20.2988 14.6825 21.17ZM15.0943 20.1308C13.0523 19.3156 10.7946 17.7078 8.56767 15.4809L8.52845 15.4417L8.51725 15.4305L8.47803 15.3913C6.25114 13.1644 4.6433 10.9067 3.82817 8.86466C3.1531 7.16718 3.08587 5.7218 3.6461 4.89827L3.67131 4.86466C3.8898 4.56213 4.07747 4.33524 4.22873 4.18959C5.50604 2.9683 6.57047 2.9655 7.78335 4.17838C8.02145 4.40807 8.22593 4.67138 8.3968 4.95429L8.4052 4.9711C8.69372 5.43608 8.79736 5.87866 8.72173 6.32964C8.6405 6.81424 8.34358 7.31564 7.83938 7.81984C7.69932 7.96269 7.55086 8.09435 7.3912 8.2148C7.36879 8.2316 7.34638 8.25121 7.32677 8.27362C7.10828 8.51171 6.88139 8.94029 7.05226 9.61816C7.1475 10.0019 7.36318 10.4333 7.70772 10.9347C8.36318 11.8927 9.41921 12.9823 10.1559 13.719L10.2399 13.803C10.9766 14.5397 12.0663 15.5957 13.0214 16.2512C13.5228 16.5957 13.9542 16.8086 14.338 16.9067C15.0158 17.0803 15.4444 16.8535 15.6825 16.6322C15.7021 16.6126 15.7217 16.5901 15.7413 16.5677C15.8618 16.4081 15.9934 16.2596 16.1363 16.1196C16.6405 15.6154 17.1419 15.3184 17.6265 15.2372C18.0747 15.1616 18.52 15.2652 18.985 15.5537L19.0018 15.5621C19.2848 15.733 19.5453 15.9375 19.7778 16.1756C20.9934 17.3885 20.9906 18.4529 19.7693 19.7302C19.6237 19.8815 19.3968 20.0691 19.0943 20.2876L19.0607 20.31C18.2371 20.8703 16.7918 20.8058 15.0943 20.1308Z" fill="#313235"/>
</svg>
