<svg width="24" height="24" viewBox="0 0 24 24" fill="none" xmlns="http://www.w3.org/2000/svg">
<path fill-rule="evenodd" clip-rule="evenodd" d="M21.6863 3.90756C21.6863 3.09524 21.028 2.43137 20.2241 2.43137V2.43417H18.986C18.2325 2.43417 17.6162 3.02241 17.5434 3.7619L14.6387 2.36134C14.2437 2.12885 13.7591 2.0028 13.1849 2.0028C12.7087 2.0028 12.2913 2.08683 11.9132 2.2605C11.8993 2.26771 11.8541 2.29067 11.7826 2.32695C11.1045 2.67139 8.06181 4.21667 7 4.89076C6.22129 5.38655 6.0084 6.13445 6.40896 6.91316C6.41737 6.92157 6.45098 6.98039 6.45098 6.98879C6.82073 7.66106 7.62465 7.96639 8.35574 7.70868L10.2577 7.03641C10.3585 7.79272 10.9468 8.37255 11.6947 8.38095H11.9412C11.9494 8.38083 11.9577 8.3807 11.9661 8.38057C12.5213 8.37193 13.5459 8.35599 14.451 8.92717C14.5882 9.01681 15.409 9.48179 17.8375 9.52381C18.1092 9.86274 18.5182 10.0952 18.986 10.0952H20.2241C21.0308 10.0952 21.6863 9.43137 21.6863 8.61905V3.90756ZM17.5294 8.26891V5.13165L14.2017 3.51541L14.0672 3.44818C13.8207 3.30812 13.5434 3.2409 13.1905 3.2409C12.9972 3.2409 12.8319 3.26891 12.6779 3.30812C12.5966 3.32773 12.5154 3.34734 12.4482 3.37815C12.4469 3.37893 12.4175 3.39382 12.3642 3.42084L12.364 3.42093C11.8397 3.68666 9.00742 5.12216 7.84313 5.82633C7.82144 5.83953 7.79975 5.85242 7.7786 5.86499C7.73692 5.88975 7.69731 5.91328 7.66386 5.93557C7.63866 5.95238 7.6229 5.96446 7.60715 5.97654L7.60714 5.97654L7.59103 5.98879C7.57861 5.99846 7.56346 6.00881 7.54927 6.01849L7.54926 6.0185L7.54926 6.0185C7.53468 6.02846 7.52112 6.03772 7.5126 6.04482C7.51099 6.04643 7.51031 6.04711 7.51002 6.04794C7.5098 6.04854 7.5098 6.04923 7.5098 6.05042C7.47899 6.07843 7.46218 6.10644 7.45378 6.13165C7.43697 6.18767 7.46778 6.2465 7.5182 6.34174C7.5207 6.34549 7.52432 6.34756 7.52806 6.34971C7.53269 6.35237 7.53751 6.35514 7.54061 6.36134C7.64145 6.52101 7.80672 6.57983 7.96078 6.52381L10.944 5.48179C10.9506 5.47846 10.9563 5.4781 10.9616 5.47777C10.9652 5.47754 10.9686 5.47732 10.972 5.47619C10.9944 5.47339 11.0196 5.47059 11.0364 5.47059C11.2745 5.32213 11.5378 5.23809 11.8235 5.23809H15.5574C15.8936 5.23809 16.1709 5.5098 16.1737 5.85994C16.1737 5.88284 16.1681 5.90352 16.1626 5.92408L16.1626 5.92409C16.1594 5.93622 16.1561 5.94831 16.1541 5.96078C16.1517 5.97411 16.1498 5.98743 16.1479 6.00069L16.1479 6.00071C16.143 6.03484 16.1381 6.06857 16.126 6.10084C16.1171 6.12416 16.1024 6.14289 16.0878 6.16143C16.0796 6.17184 16.0715 6.1822 16.0644 6.19328C16.0573 6.20401 16.0507 6.21531 16.044 6.22673C16.0299 6.25108 16.0154 6.27594 15.9944 6.29692C15.8824 6.40896 15.7311 6.47899 15.5602 6.47899H11.8291H11.8263C11.7283 6.47899 11.6218 6.55742 11.5518 6.65266C11.5126 6.70588 11.4818 6.7647 11.4818 6.82353V6.82633C11.4818 6.90756 11.507 6.98879 11.5546 7.04482C11.5938 7.09524 11.6471 7.12885 11.7227 7.13165L11.9216 7.12885H11.9244L11.9349 7.12864C12.4953 7.11735 13.5699 7.09571 14.6611 7.61625C14.8179 7.69188 14.9748 7.77591 15.1317 7.87395C15.1317 7.89076 15.7227 8.20448 17.5294 8.26891ZM20.1849 7.93837C20.1849 8.27171 19.9468 8.5126 19.619 8.5126C19.2941 8.5126 19.0532 8.26611 19.0532 7.93837C19.0532 7.60504 19.2913 7.36414 19.619 7.36414C19.9468 7.36414 20.1849 7.60784 20.1849 7.93837ZM11.0476 14.0056C10.6387 13.5798 10.4006 13.2773 10.1008 12.8067C9.72549 12.2185 9.46778 11.6359 9.33613 11.07C9.19047 10.4566 9.31092 9.94678 9.66947 9.63585C9.87955 9.45378 10.1625 9.34734 10.4706 9.33053C10.4986 9.32773 10.5238 9.32773 10.5518 9.32773C10.8515 9.32773 11.1569 9.41176 11.4398 9.57143C11.5462 9.63025 11.6555 9.69468 11.7731 9.76751C11.7843 9.77311 11.7983 9.77591 11.8123 9.77591C11.8263 9.77591 11.8375 9.77311 11.8487 9.76751C11.9028 9.73606 11.9546 9.70575 12.005 9.67631L12.0054 9.67607L12.0056 9.67596C12.0671 9.63996 12.1264 9.60527 12.1849 9.57143C12.4706 9.41176 12.7759 9.32773 13.0728 9.32773C13.1008 9.32773 13.1288 9.32773 13.1541 9.33053C13.4622 9.34734 13.7479 9.45378 13.9552 9.63585C14.3137 9.94678 14.4342 10.4566 14.2885 11.07C14.1569 11.6331 13.8992 12.2185 13.5238 12.8067C13.2269 13.2717 12.9888 13.5742 12.5882 13.9944L12.577 14.0056C12.5378 14.0476 12.3978 14.1877 12.2829 14.2745C12.1821 14.3473 12.0672 14.4006 11.9552 14.4258C11.9216 14.4342 11.888 14.437 11.8515 14.4398H11.8487H11.7787H11.7731C11.7367 14.437 11.7031 14.4342 11.6695 14.4258C11.5546 14.4006 11.4398 14.3501 11.3389 14.2745C11.2241 14.1877 11.0868 14.0476 11.0476 14.0056ZM16.1849 17.6303C16.2157 17.6022 16.2353 17.577 16.2409 17.549C16.2577 17.493 16.2269 17.4342 16.1765 17.3389C16.1737 17.3347 16.1702 17.3319 16.1667 17.3291C16.1632 17.3263 16.1597 17.3235 16.1569 17.3193C16.056 17.1597 15.8908 17.1008 15.7339 17.1569L12.7507 18.1989C12.7423 18.2017 12.7311 18.2017 12.7227 18.2017C12.7003 18.2045 12.6779 18.2073 12.6583 18.2073C12.4202 18.3557 12.1569 18.4398 11.8711 18.4398H8.13725C7.80112 18.4398 7.52101 18.1681 7.52101 17.8179C7.52101 17.795 7.52654 17.7743 7.53205 17.7538C7.5353 17.7417 7.53853 17.7296 7.54061 17.7171C7.54296 17.7038 7.54488 17.6904 7.54678 17.6772L7.54679 17.6772C7.55168 17.643 7.55652 17.6093 7.56862 17.577C7.57751 17.5557 7.59202 17.5366 7.60646 17.5177L7.60647 17.5177C7.61479 17.5067 7.62308 17.4959 7.63025 17.4846C7.6374 17.4739 7.64399 17.4626 7.65064 17.4511C7.66482 17.4268 7.6793 17.4019 7.70028 17.381C7.81232 17.2689 7.96638 17.1989 8.13445 17.1989H11.8683C11.9692 17.1989 12.0756 17.1204 12.1429 17.0252C12.1821 16.972 12.2129 16.9132 12.2129 16.8571V16.8543C12.2129 16.7731 12.1877 16.6947 12.1401 16.6359C12.1008 16.5854 12.0476 16.5518 11.9692 16.549L11.7703 16.5518L11.7682 16.5519H11.7682C11.2102 16.5631 10.1303 16.5848 9.03361 16.0644C8.87675 15.9888 8.71989 15.9048 8.56302 15.8067C8.55462 15.7983 7.96358 15.4846 6.15966 15.4174V15.4202H6.15686V18.5574L9.48739 20.1737L9.62185 20.2381C9.86835 20.3782 10.1485 20.4454 10.4986 20.4454C10.6919 20.4454 10.8571 20.4174 11.0112 20.3782L11.0215 20.3757C11.0995 20.3569 11.1793 20.3376 11.2437 20.3081C11.245 20.3073 11.2745 20.2924 11.3279 20.2653L11.3279 20.2653C11.8523 19.9995 14.6845 18.5641 15.8487 17.8599C15.9093 17.8257 15.9674 17.789 16.0184 17.7568L16.028 17.7507C16.047 17.7369 16.0606 17.7263 16.0735 17.7163L16.0736 17.7162L16.0737 17.7162L16.084 17.7081L16.098 17.6975L16.1198 17.6824L16.1198 17.6824C16.1418 17.6672 16.1639 17.652 16.1765 17.6415L16.1803 17.6357L16.182 17.6334L16.1834 17.6318L16.1849 17.6303ZM4.63585 15.7451C4.63585 16.0784 4.39496 16.3193 4.06722 16.3193C3.73949 16.3193 3.5014 16.0784 3.5014 15.7451C3.5014 15.4146 3.73949 15.1737 4.06722 15.1737C4.39215 15.1737 4.63585 15.4174 4.63585 15.7451ZM17.2353 16.7003C17.2353 16.7087 17.2689 16.7675 17.2773 16.7759C17.6807 17.5546 17.4678 18.3025 16.6863 18.8011C15.6259 19.4768 12.5903 21.0167 11.9065 21.3635L11.9052 21.3642L11.9038 21.3649L11.9016 21.366C11.8313 21.4017 11.7869 21.4242 11.7731 21.4314C11.395 21.605 10.9776 21.6891 10.5014 21.6891C9.92717 21.6891 9.44257 21.5658 9.05042 21.3333L6.14566 19.9328C6.07283 20.6723 5.45658 21.2605 4.70308 21.2605H3.46498C2.66106 21.2605 2.0056 20.5966 2.0056 19.7843V15.0728C2.0056 14.2605 2.66106 13.5966 3.46498 13.5966H4.70308C5.17087 13.5966 5.57983 13.8291 5.85154 14.1681C8.28011 14.2101 9.10084 14.6751 9.24089 14.7647C10.1459 15.3359 11.1706 15.3199 11.7258 15.3113L11.7507 15.3109H11.9972C12.7423 15.3193 13.3333 15.8992 13.4342 16.6555L15.3361 15.9832C16.0616 15.7227 16.8655 16.028 17.2353 16.7003Z" fill="#313235"/>
</svg>
