<svg width="24" height="24" viewBox="0 0 24 24" fill="none" xmlns="http://www.w3.org/2000/svg">
<path fill-rule="evenodd" clip-rule="evenodd" d="M21.7054 9.27937C21.7098 9.29472 21.7142 9.31035 21.7142 9.32776V13.0925C21.7142 13.1099 21.7098 13.1255 21.7054 13.1409C21.702 13.1527 21.6987 13.1643 21.6974 13.1765V17.8179C21.6974 18.6219 21.0308 19.2773 20.2128 19.2773H3.5238C2.70308 19.2773 2.03641 18.6219 2.03641 17.8179V13.1429C2.03526 13.136 2.03316 13.1295 2.03108 13.1232C2.02812 13.1141 2.02521 13.1052 2.02521 13.0953V9.32776C2.02521 9.31787 2.02812 9.30895 2.03108 9.29986C2.03316 9.2935 2.03526 9.28706 2.03641 9.28014V6.79275C2.03641 5.98603 2.70308 5.33337 3.5238 5.33337H20.2128C21.0308 5.33337 21.6974 5.98603 21.6974 6.79275V9.24373C21.6987 9.25591 21.702 9.26756 21.7054 9.27937ZM3.5238 6.56586H20.2128C20.3417 6.56586 20.4453 6.6667 20.4453 6.79275V8.71152H3.29131V6.79275C3.29131 6.6667 3.39495 6.56586 3.5238 6.56586ZM20.2128 18.0448H3.5238C3.39495 18.0448 3.29131 17.944 3.29131 17.8179V13.7115H20.4453V17.8179C20.4425 17.944 20.3389 18.0448 20.2128 18.0448Z" fill="#313235"/>
</svg>
