<svg width="24" height="24" viewBox="0 0 24 24" fill="none" xmlns="http://www.w3.org/2000/svg">
<path fill-rule="evenodd" clip-rule="evenodd" d="M16.084 7.60222H20.2268C21.0307 7.60222 21.6862 8.25768 21.6834 9.06159V20.2268C21.6834 21.0307 21.0279 21.6862 20.224 21.6862H9.06159C8.25768 21.6862 7.60222 21.0307 7.60222 20.2268V16.084H3.5126C2.68067 16.084 2.0028 15.4061 2.0028 14.5742V3.5098C2.0028 2.67787 2.68067 2 3.5126 2H14.5742C15.4061 2 16.084 2.67787 16.084 3.5098V7.60222ZM3.2745 3.507V14.5714C3.2745 14.703 3.37815 14.8067 3.5098 14.8067H14.5714C14.7002 14.8067 14.8067 14.7002 14.8067 14.5714V3.507C14.8067 3.37815 14.7002 3.2717 14.5714 3.2717H3.5098C3.38095 3.2717 3.2745 3.37815 3.2745 3.507Z" fill="#313235"/>
</svg>
