<svg width="24" height="24" viewBox="0 0 24 24" fill="none" xmlns="http://www.w3.org/2000/svg">
<path fill-rule="evenodd" clip-rule="evenodd" d="M17.9265 3.61936C18.6828 3.61936 19.3719 4.15997 19.3719 4.75101V20.7146C19.3719 21.328 18.7108 21.8462 17.9293 21.8462H6.05256C5.27105 21.8462 4.60999 21.328 4.60999 20.7146V4.75101C4.60999 4.15997 5.29906 3.61936 6.05256 3.61936H9.20382C9.62119 2.67258 10.5792 2.15997 11.9881 2.15997C13.7052 2.15997 14.4503 2.89947 14.7696 3.61936H17.9265ZM9.77525 4.75101C9.83127 3.52972 10.5344 2.96109 11.9881 2.96109C13.159 2.96109 13.8481 3.34205 14.1002 4.12356C14.1674 4.35045 14.2038 4.58294 14.2094 4.81824V4.94989C14.1982 5.29443 14.1814 5.76782 11.9909 5.76782C9.80046 5.76782 9.78365 5.29723 9.76965 4.90507L9.77525 4.75101ZM18.5596 4.75101V20.7146C18.5596 20.8238 18.2851 21.0451 17.9265 21.0451H6.04976C5.69402 21.0451 5.41951 20.8266 5.41951 20.7146V4.75101C5.41951 4.67258 5.68001 4.42048 6.04976 4.42048H8.99934C8.99558 4.44528 8.99142 4.46948 8.98729 4.49351C8.97602 4.55902 8.96498 4.62326 8.96293 4.69499L8.95732 4.78742V4.9807C9.00494 6.30003 10.2038 6.57174 11.9881 6.57174C13.7753 6.57174 14.9741 6.30003 15.0189 4.99751L15.0217 4.90507L15.0161 4.7146C15.0142 4.64282 15.0051 4.57389 14.996 4.50476L14.9959 4.50465C14.9923 4.47669 14.9886 4.4487 14.9853 4.42048H17.9293C18.2963 4.42048 18.5596 4.66978 18.5596 4.75101ZM10.68 4.69219C10.6828 4.91628 10.8649 5.09275 11.0862 5.09275H12.8873C13.1114 5.09275 13.2935 4.91347 13.2935 4.69219C13.2935 4.4709 13.1114 4.29163 12.8873 4.29163H11.0862C10.8621 4.29163 10.68 4.4709 10.68 4.69219Z" fill="#313235"/>
</svg>
