<svg width="24" height="24" viewBox="0 0 24 24" fill="none" xmlns="http://www.w3.org/2000/svg">
<path fill-rule="evenodd" clip-rule="evenodd" d="M21.3249 4.97202C21.4902 4.6723 21.3838 4.29415 21.084 4.12888L17.409 2.07846C17.2381 1.98322 17.0336 1.97482 16.8544 2.05325C16.6751 2.12888 16.5434 2.28575 16.4986 2.47622L15.8908 5.02244H6.45939C5.65267 5.02244 4.99721 5.6751 5.00001 6.55185L6.63026 20.2297C6.63306 21.0364 7.28572 21.6863 8.09245 21.6863H16.3193C17.1289 21.6863 17.7815 21.0336 17.7787 20.3026L19.4174 6.47902C19.4174 5.6751 18.7591 5.02244 17.9524 5.02244H17.1709L17.521 3.56586L20.4762 5.21292C20.4776 5.21292 20.4783 5.21362 20.479 5.21432C20.4797 5.21502 20.4804 5.21572 20.4818 5.21572C20.7815 5.38379 21.1597 5.27454 21.3249 4.97482V4.97202ZM6.45939 6.26614C6.34175 6.26614 6.24651 6.36138 6.24651 6.47902L6.50701 8.6667H15.0112L15.5882 6.26614H6.45939ZM16.874 6.26614H17.9552C18.0728 6.26614 18.1709 6.36138 18.1765 6.40619L17.9076 8.6667H16.2969L16.874 6.26614ZM17.7591 9.90759L16.535 20.2297C16.535 20.3474 16.4398 20.4426 16.3221 20.4398H8.09245C7.9748 20.4398 7.87676 20.3446 7.87396 20.1541L6.65267 9.90759H14.7115L12.5546 18.8992C12.4874 19.2269 12.6835 19.5491 13.0056 19.6331C13.3389 19.7227 13.6807 19.5238 13.7703 19.1905L15.9972 9.90759H17.7591ZM10.1793 13.4958C10.9608 12.7171 10.3978 12.0336 10.2325 11.8656L10.1569 11.7899C10.056 11.6947 9.75631 11.4426 9.35855 11.4426C9.10925 11.4426 8.82354 11.5406 8.52382 11.8376C7.74791 12.6107 8.31654 13.3054 8.4734 13.4734L8.55183 13.5519C8.65547 13.6527 8.94679 13.902 9.33894 13.902C9.58544 13.8992 9.87676 13.7984 10.1793 13.4958ZM10.7675 14.0813C11.7451 13.1065 11.5042 11.9748 10.8291 11.2857C10.8082 11.2629 10.7846 11.24 10.7629 11.2189C10.7527 11.209 10.7429 11.1995 10.7339 11.1905C10.5518 11.0168 10.056 10.6107 9.35855 10.6107C9.00281 10.6107 8.465 10.7227 7.93558 11.2493C6.9692 12.2129 7.20729 13.3446 7.87116 14.042L7.9692 14.1401C8.14847 14.3166 8.64147 14.7255 9.33894 14.7255C9.69469 14.7255 10.2325 14.6163 10.7675 14.0813ZM11.3698 17.4818C11.8039 17.0477 11.4902 16.6695 11.3978 16.5743L11.3558 16.5322C11.2997 16.479 11.1345 16.339 10.9132 16.339C10.7759 16.339 10.6163 16.395 10.4482 16.5603C10.0168 16.9888 10.3333 17.3754 10.4202 17.4678C10.4247 17.4724 10.4293 17.4772 10.434 17.4822L10.434 17.4822C10.4436 17.4925 10.4537 17.5032 10.465 17.5126C10.521 17.5687 10.6863 17.7087 10.902 17.7087C11.0392 17.7087 11.1989 17.6499 11.3698 17.4818ZM11.9972 16L11.9328 15.9356C11.7983 15.8096 11.4342 15.5098 10.9132 15.5126C10.6443 15.5126 10.2437 15.5939 9.85995 15.9748C9.14847 16.6835 9.34175 17.5406 9.81794 18.042L9.88236 18.1065C10.1625 18.3782 10.535 18.5378 10.902 18.5378C11.1709 18.5378 11.5686 18.4566 11.958 18.0701C12.6751 17.3558 12.4818 16.4958 11.9972 16Z" fill="#313235"/>
</svg>
