<svg width="24" height="24" viewBox="0 0 24 24" fill="none" xmlns="http://www.w3.org/2000/svg">
<path d="M20.6051 14.0476V14.07C20.5995 14.465 20.4091 14.8487 20.0449 15.2129L15.0197 20.2577L15.0029 20.2745C14.6556 20.5938 14.2942 20.7143 13.9245 20.6358C13.5883 20.563 13.3194 20.3333 13.1009 20.1148L13.0869 20.1008L8.27741 14.9888L5.69758 17.5686L5.68917 17.577C5.35864 17.8935 4.79562 17.986 4.35024 17.7955C3.93567 17.619 3.68917 17.2297 3.68917 16.7563V4.66385C3.66957 4.38374 3.7592 4.13164 3.94408 3.94676C4.12895 3.76189 4.38385 3.67225 4.66116 3.69466L16.8068 3.70026C17.2214 3.68906 17.5995 3.93276 17.762 4.31371C17.9665 4.77029 17.874 5.36133 17.5463 5.71987L17.5323 5.73668L15.1514 8.11483L20.0561 12.9047L20.0617 12.9103C20.4231 13.2661 20.6051 13.6498 20.6051 14.0476Z" fill="#313235"/>
</svg>
