<svg width="24" height="24" viewBox="0 0 24 24" fill="none" xmlns="http://www.w3.org/2000/svg">
<path fill-rule="evenodd" clip-rule="evenodd" d="M15.0475 2C16.6049 2 18.0867 2.18767 19.2183 2.52661C20.8738 3.02521 21.7141 3.82352 21.7085 4.91035V17.7534C21.7085 18.8319 20.871 19.6302 19.2155 20.1288C18.0755 20.4677 16.5965 20.6554 15.0447 20.6554C13.6105 20.6554 12.2492 20.4873 11.1483 20.196C9.96908 20.9831 8.86544 21.5181 8.62175 21.633C8.54051 21.6694 8.45368 21.689 8.36404 21.689C8.27721 21.689 8.18757 21.6694 8.10634 21.6302C7.56573 21.3753 2.80944 19.0672 2.35566 16.4789C2.01963 14.5775 2.02466 10.2619 2.02511 9.87336C2.02513 9.86353 2.02513 9.85621 2.02513 9.85151C2.02513 9.66663 2.11197 9.49297 2.25763 9.37812C2.40608 9.26327 2.59656 9.22406 2.77583 9.26888C3.83993 9.43791 4.41606 9.05593 5.14426 8.57312L5.16798 8.5574L5.16966 8.55629C5.95075 8.04116 6.83293 7.45936 8.36124 7.45936H8.38085V4.90475C8.38085 4.72828 8.40606 4.55461 8.45368 4.39215C8.69177 3.56582 9.5069 2.93837 10.8766 2.52661C12.0111 2.18767 13.4901 2 15.0475 2ZM15.0475 3.20168C13.6077 3.20168 12.2492 3.37254 11.2268 3.67786C10.3724 3.93557 9.83743 4.2745 9.66656 4.63584C9.82902 5.00279 10.3752 5.34732 11.238 5.60503C12.2604 5.91315 13.6161 6.08122 15.0587 6.08122C16.5013 6.08122 17.857 5.91315 18.8794 5.60783C19.7309 5.35013 20.28 5.01119 20.448 4.64985C20.2407 4.18486 19.5069 3.86834 18.871 3.67786C17.8486 3.36974 16.4901 3.20168 15.0475 3.20168ZM9.59093 6.20727L9.59373 6.20894V7.60502C10.4229 7.8095 11.0195 8.19605 11.5629 8.55459C12.3024 9.04479 12.8878 9.42854 13.9859 9.25767C14.1623 9.23526 14.3472 9.28008 14.4817 9.39213C14.6161 9.50697 14.7058 9.66944 14.7058 9.84591C14.7058 9.88792 14.7058 10.1484 14.703 10.5378C16.2352 10.5714 17.7758 10.4033 18.8822 10.07C19.8234 9.78708 20.3276 9.36972 20.5068 9.0672V6.22127C20.1595 6.42575 19.7337 6.60502 19.2267 6.75628C18.0951 7.09522 16.6133 7.28289 15.0587 7.28289C13.5013 7.28289 12.0223 7.09522 10.8906 6.75628C10.3794 6.60542 9.94893 6.42112 9.59373 6.20894V6.20727H9.59093ZM5.83633 9.56092C5.15875 10.0089 4.40545 10.507 3.24922 10.507V10.5042H3.23801C3.24362 11.2549 3.26322 12.5322 3.32205 13.7647H7.71699V8.71706C6.93268 8.84591 6.39486 9.19325 5.83744 9.56019L5.83633 9.56092ZM3.54614 16.2688C3.48451 15.9159 3.43409 15.4677 3.39488 14.9691H7.71699V20.0728C6.14557 19.2072 3.78703 17.6386 3.54614 16.2688ZM18.871 18.9691C17.843 19.2744 16.4845 19.4453 15.0475 19.4453C14.1175 19.4453 13.2296 19.3669 12.4313 19.2352C13.392 18.4229 14.2044 17.4733 14.378 16.4761C14.3863 16.4298 14.3936 16.3805 14.4011 16.33C14.4062 16.2951 14.4115 16.2596 14.4172 16.224L14.4173 16.224C14.6302 16.2324 14.843 16.2408 15.0587 16.2408C16.6133 16.2408 18.0951 16.0532 19.2267 15.7142C19.7113 15.5686 20.1399 15.3809 20.504 15.1568V17.7478C20.5068 18.3529 19.6161 18.745 18.871 18.9691ZM14.6861 11.7423C14.7268 11.7432 14.7675 11.7444 14.8083 11.7456C14.8911 11.7481 14.9742 11.7507 15.0587 11.7507C16.6133 11.7507 18.0951 11.563 19.2267 11.2241C19.7113 11.0784 20.1399 10.8879 20.504 10.6666V13.5574C20.3248 13.8571 19.8178 14.2773 18.8794 14.5602C17.857 14.8655 16.5013 15.0364 15.0587 15.0364C14.9281 15.0364 14.799 15.0316 14.6704 15.0269L14.6703 15.0269L14.6699 15.0268C14.6277 15.0253 14.5855 15.0237 14.5433 15.0224C14.6273 13.9663 14.6665 12.7395 14.6861 11.7423ZM10.8934 9.56019C10.3136 9.17924 9.759 8.8179 8.92426 8.70305H8.92146V13.7647H13.4088C13.4677 12.5294 13.4873 11.2409 13.4929 10.4958H13.4901C12.3108 10.4958 11.5629 10.0028 10.8934 9.56019ZM8.92426 20.1232V14.9691H13.3388C13.2996 15.4677 13.252 15.9159 13.1904 16.2688C12.9467 17.6666 10.4957 19.266 8.92426 20.1232Z" fill="#313235"/>
</svg>
