<svg width="24" height="24" viewBox="0 0 24 24" fill="none" xmlns="http://www.w3.org/2000/svg">
<path fill-rule="evenodd" clip-rule="evenodd" d="M15.2717 8.43977L20.1316 8.43697C20.9607 8.43697 21.7142 9.09523 21.7142 9.82072V13.8655C21.7142 14.5882 20.9579 15.2465 20.1316 15.2465L15.2745 15.2493L15.2773 20.1092C15.2773 20.9664 14.6442 21.6918 13.8963 21.6918H9.85152C9.10362 21.6918 8.47057 20.9664 8.47057 20.1092L8.46777 15.2521L3.60784 15.2549C2.7479 15.2549 2.02521 14.6218 2.02521 13.8739L2.02801 9.82912C2.02801 9.08122 2.7535 8.44817 3.61064 8.44817L8.46497 8.44537L8.46217 3.58544C8.46217 2.75631 9.12043 2.00281 9.84312 2.00281H13.8879C14.6106 2.00281 15.2689 2.75911 15.2689 3.58544L15.2717 8.43977ZM14.6722 14.0392L20.1316 14.0364C20.3193 14.0364 20.4902 13.8935 20.5154 13.8291L20.5126 9.81231C20.493 9.7759 20.3221 9.63584 20.1344 9.63584L14.6694 9.63865C14.5098 9.63865 14.3557 9.57422 14.2437 9.46218C14.1316 9.35013 14.0672 9.19607 14.0672 9.03641L14.0644 3.57984C14.0644 3.39216 13.9243 3.22129 13.8627 3.20168L9.84592 3.20449C9.8095 3.22409 9.66945 3.39496 9.66945 3.58264L9.67225 9.04481C9.67225 9.37814 9.40334 9.64705 9.07001 9.64705L3.61344 9.64985C3.40616 9.64985 3.2521 9.7843 3.23529 9.83752V13.8711C3.24929 13.9103 3.40336 14.0448 3.61064 14.0448L9.07281 14.042C9.23247 14.042 9.38654 14.1064 9.49858 14.2185C9.61063 14.3305 9.67505 14.4846 9.67505 14.6442L9.67785 20.1036C9.67785 20.3137 9.8095 20.465 9.86553 20.4818H13.8963C13.9383 20.465 14.0728 20.3137 14.0728 20.1036L14.07 14.6414C14.07 14.4818 14.1344 14.3277 14.2465 14.2157C14.3585 14.1036 14.5126 14.0392 14.6722 14.0392Z" fill="#313235"/>
</svg>
