<svg width="24" height="24" viewBox="0 0 24 24" fill="none" xmlns="http://www.w3.org/2000/svg">
<path fill-rule="evenodd" clip-rule="evenodd" d="M21.6962 21.2076C21.9147 20.8182 21.8979 20.3476 21.629 19.9247L15.0099 11.1852V3.40367H15.7915C16.136 3.40367 16.4133 3.12636 16.4133 2.78182C16.4133 2.43728 16.1332 2.15997 15.7915 2.15997H8.21724C7.8727 2.15997 7.58699 2.43168 7.58419 2.77902C7.58979 3.12356 7.8699 3.40087 8.21444 3.40087H8.98194V10.3728C8.97354 10.4149 8.97354 10.4597 8.98194 10.5045V11.1824L2.32929 20.0899C2.1108 20.4457 2.1024 20.8966 2.31248 21.258C2.52257 21.6137 2.90912 21.8462 3.33209 21.8462H20.5926C21.0576 21.8462 21.4777 21.5969 21.6962 21.2076ZM10.122 11.7566L9.77746 12.2104C11.1248 12.4429 12.8839 12.4345 14.1892 12.1852L13.8699 11.7566C13.7887 11.653 13.7438 11.5241 13.7438 11.3925V3.40087H10.248V10.3981C10.248 10.4015 10.2466 10.4079 10.2449 10.4153L10.2449 10.4154C10.2425 10.4259 10.2396 10.4386 10.2396 10.4485C10.2396 10.4569 10.2417 10.4653 10.2438 10.4737C10.2459 10.4821 10.248 10.4905 10.248 10.4989V11.3925C10.248 11.5213 10.2032 11.6502 10.122 11.7566ZM3.51977 20.6053H20.5926L15.0155 13.2608C14.1388 13.5017 13.0464 13.6333 11.8895 13.6333C10.8195 13.6333 9.79987 13.5157 8.95953 13.3112L3.51977 20.6053ZM15.4637 17.9779C15.4637 16.8658 14.5394 16.7734 14.3013 16.765C14.2859 16.765 14.2705 16.7643 14.255 16.7636L14.255 16.7636C14.2396 16.7629 14.2242 16.7622 14.2088 16.7622H14.1864C13.9427 16.765 13.0408 16.8462 13.0408 17.9667C13.0408 19.0871 13.9539 19.1768 14.1976 19.1796H14.3097C14.5394 19.1796 15.4637 19.0927 15.4637 17.9779ZM14.3237 15.9387L14.2116 15.9359L14.1808 15.9387C13.192 15.9471 12.1976 16.5801 12.1976 17.9723C12.1976 19.3616 13.1948 19.9975 14.1836 20.0115H14.3237C15.3097 19.9947 16.3069 19.356 16.3069 17.9779C16.3069 16.6025 15.3097 15.9639 14.3237 15.9387ZM9.95673 16.6277C10.0856 16.6249 10.601 16.5773 10.601 15.9555C10.601 15.3364 10.0856 15.286 9.95393 15.2832H9.8895C9.75505 15.2832 9.25085 15.3308 9.25085 15.9527C9.25085 16.5773 9.76065 16.6249 9.89511 16.6277H9.95673ZM11.4441 15.9583C11.4441 14.9499 10.6822 14.4737 9.97634 14.4569H9.8811C9.17242 14.4625 8.41051 14.9331 8.41051 15.9555C8.41051 16.9723 9.17242 17.4457 9.8839 17.4569H9.97074C10.6794 17.4429 11.4441 16.9695 11.4441 15.9583Z" fill="#313235"/>
</svg>
