<svg width="24" height="24" viewBox="0 0 24 24" fill="none" xmlns="http://www.w3.org/2000/svg">
<path fill-rule="evenodd" clip-rule="evenodd" d="M5.24321 12.8682L4.36821 13.7422L3.66121 13.0352L4.53521 12.1612C4.33921 11.8362 4.21821 11.4322 4.16621 10.9582H2.80021V9.95821H4.16621C4.21821 9.48421 4.33921 9.08021 4.53521 8.75521L3.66121 7.88121L4.36821 7.17421L5.24321 8.04921C5.57521 7.84721 5.98021 7.72721 6.44521 7.67721V6.31221H7.44521V7.67721C7.91021 7.72721 8.31521 7.84721 8.64821 8.04921L9.52221 7.17421L10.2292 7.88121L9.35521 8.75521C9.55221 9.08021 9.67321 9.48421 9.72421 9.95821H11.0912V10.9582H9.72421C9.67321 11.4322 9.55221 11.8362 9.35521 12.1612L10.2292 13.0352L9.52221 13.7422L8.64821 12.8682C8.31521 13.0682 7.91021 13.1892 7.44521 13.2402V14.6032H6.44521V13.2402C5.98021 13.1892 5.57521 13.0682 5.24321 12.8682ZM10.7952 12.4702L10.5532 12.2262C10.6072 12.0772 10.6552 11.9232 10.6932 11.7582H11.0912C11.5332 11.7582 11.8902 11.4002 11.8902 10.9582V9.95821C11.8902 9.51621 11.5332 9.15821 11.0912 9.15821H10.5912C10.5532 9.02721 10.5102 8.90121 10.4612 8.78121L10.7952 8.44621C11.1072 8.13521 11.1072 7.62821 10.7952 7.31521L10.0882 6.60821C9.93121 6.45221 9.72721 6.37421 9.52221 6.37421C9.31821 6.37421 9.11321 6.45221 8.95721 6.60821L8.52021 7.04521C8.43121 7.01721 8.34021 6.99121 8.24521 6.97021V6.31221C8.24521 6.01521 8.07821 5.76521 7.83821 5.62921V4.86121C7.83821 4.11021 8.44821 3.50021 9.19921 3.50021H17.6902C18.4412 3.50021 19.0522 4.11021 19.0522 4.86121V19.6392C19.0522 20.3892 18.4412 21.0002 17.6902 21.0002H9.19921C8.44821 21.0002 7.83821 20.3892 7.83821 19.6392V15.2882C8.07821 15.1502 8.24521 14.9002 8.24521 14.6032V14.1302C8.38921 14.0972 8.52821 14.0582 8.66121 14.0122L8.95721 14.3072C9.11321 14.4642 9.31821 14.5422 9.52221 14.5422C9.72721 14.5422 9.93121 14.4642 10.0882 14.3072L10.7952 13.6002C11.1072 13.2892 11.1072 12.7822 10.7952 12.4702ZM17.6902 2.00021H9.19921C7.62121 2.00021 6.33821 3.28321 6.33821 4.86121V5.53421C5.94921 5.58921 5.64521 5.90921 5.64521 6.31221V7.05621C5.62059 7.06393 5.5957 7.07124 5.57084 7.07855L5.57083 7.07855C5.52804 7.09112 5.48532 7.10367 5.44421 7.11821L4.93321 6.60821C4.77721 6.45221 4.57321 6.37421 4.36821 6.37421C4.16421 6.37421 3.95921 6.45221 3.80321 6.60821L3.09621 7.31521C2.78321 7.62821 2.78321 8.13521 3.09621 8.44621L3.60721 8.95921C3.58521 9.02421 3.56421 9.09121 3.54521 9.15821H2.80021C2.35821 9.15821 2.00021 9.51621 2.00021 9.95821V10.9582C2.00021 11.4002 2.35821 11.7582 2.80021 11.7582H3.49621C3.51521 11.8422 3.53721 11.9242 3.56121 12.0042L3.09621 12.4702C2.78321 12.7822 2.78321 13.2892 3.09621 13.6002L3.80321 14.3072C3.95921 14.4642 4.16421 14.5422 4.36821 14.5422C4.57321 14.5422 4.77721 14.4642 4.93321 14.3072L5.29821 13.9442C5.40921 13.9902 5.52521 14.0282 5.64521 14.0642V14.6032C5.64521 15.0082 5.94921 15.3272 6.33821 15.3822V19.6392C6.33821 21.2172 7.62121 22.5002 9.19921 22.5002H17.6902C19.2682 22.5002 20.5522 21.2172 20.5522 19.6392V4.86121C20.5522 3.28321 19.2682 2.00021 17.6902 2.00021ZM6.05961 10.458C6.05961 9.82901 6.31661 9.57201 6.94561 9.57201C7.57461 9.57201 7.83061 9.82901 7.83061 10.458C7.83061 11.087 7.57461 11.344 6.94561 11.344C6.31661 11.344 6.05961 11.087 6.05961 10.458ZM8.68861 10.458C8.68861 9.35101 8.05261 8.71501 6.94561 8.71501C5.83761 8.71501 5.20261 9.35101 5.20261 10.458C5.20261 11.565 5.83761 12.201 6.94561 12.201C8.05261 12.201 8.68861 11.565 8.68861 10.458ZM14.8155 18.501C14.8155 19.191 14.2555 19.751 13.5655 19.751C12.8755 19.751 12.3155 19.191 12.3155 18.501C12.3155 17.811 12.8755 17.251 13.5655 17.251C14.2555 17.251 14.8155 17.811 14.8155 18.501Z" fill="#313235"/>
</svg>
