<svg width="24" height="24" viewBox="0 0 24 24" fill="none" xmlns="http://www.w3.org/2000/svg">
<path fill-rule="evenodd" clip-rule="evenodd" d="M19.5405 12.4986H18.3669C18.3249 12.3949 18.2604 12.2997 18.182 12.2185L17.8263 11.8627C17.8515 11.7899 17.8767 11.7171 17.8963 11.6414H18.4201C18.8851 11.6414 19.2604 11.2661 19.2604 10.8011V9.7647C19.2604 9.29972 18.8851 8.92437 18.4201 8.92437H17.8963C17.8739 8.84874 17.8515 8.77591 17.8263 8.70308L18.182 8.34734C18.5097 8.01961 18.5097 7.4874 18.182 7.15967L17.4481 6.42578C17.1204 6.09805 16.5882 6.09805 16.2604 6.42578L15.9047 6.78152C15.8319 6.75631 15.759 6.7311 15.6834 6.71149V6.18768C15.6834 5.7227 15.3081 5.34735 14.8431 5.34735H13.8067C13.3417 5.34735 12.9663 5.7227 12.9663 6.18768V6.71149C12.8907 6.7339 12.8179 6.75631 12.7451 6.78152L12.3893 6.42578C12.0616 6.09805 11.5294 6.09805 11.2016 6.42578L10.4706 7.15967C10.1428 7.4874 10.1428 8.01961 10.4706 8.34734L10.8263 8.70308C10.8011 8.77591 10.7759 8.84874 10.7563 8.92437H10.2325C9.76747 8.92437 9.39213 9.29972 9.39213 9.7647V10.8011C9.39213 11.2661 9.76747 11.6414 10.2325 11.6414H10.7563C10.7787 11.7171 10.8011 11.7899 10.8263 11.8627L10.4706 12.2185C10.3893 12.2997 10.3277 12.3949 10.2857 12.4986H4.15125C2.96358 12.4986 2 13.4594 2 14.647V16.6666C2 17.8543 2.96358 18.8151 4.14845 18.8151H19.5405C20.7282 18.8151 21.689 17.8515 21.689 16.6666V14.647C21.689 13.4622 20.7282 12.4986 19.5405 12.4986ZM4.94397 17.0168C4.69187 17.0168 4.48738 16.8123 4.48738 16.5602C4.48738 16.3081 4.69187 16.1036 4.94397 16.1036C5.19606 16.1036 5.40055 16.3081 5.40055 16.5602C5.40055 16.8151 5.19606 17.0168 4.94397 17.0168ZM6.18205 16.5602C6.18205 16.8123 6.38654 17.0168 6.63864 17.0168C6.89074 17.0168 7.09522 16.8151 7.09522 16.5602C7.09522 16.3081 6.89074 16.1036 6.63864 16.1036C6.38654 16.1036 6.18205 16.3081 6.18205 16.5602ZM8.27728 17.0168C8.02518 17.0168 7.8207 16.8123 7.8207 16.5602C7.8207 16.3081 8.02518 16.1036 8.27728 16.1036C8.52938 16.1036 8.73386 16.3081 8.73386 16.5602C8.73386 16.8151 8.52938 17.0168 8.27728 17.0168ZM13.8067 13.1624V14.3781H14.8431L14.8403 13.1624C15.3249 13.112 15.7394 12.9832 16.084 12.7759L16.8543 13.5462L17.5882 12.8151L16.8179 12.0448C17.0195 11.7087 17.1512 11.2941 17.2044 10.8011H18.4201V9.7647H17.2044C17.154 9.2717 17.0223 8.85714 16.8179 8.52101L17.591 7.7479L16.8571 7.01681L16.0868 7.78712C15.7422 7.57983 15.3249 7.45378 14.8431 7.40056V6.18488H13.8067V7.40056C13.3221 7.45098 12.9075 7.57983 12.563 7.78712L11.7927 7.01681L11.0616 7.7479L11.8319 8.51821C11.6302 8.85434 11.4986 9.2689 11.4453 9.7619H10.2297V10.7983H11.4453C11.4958 11.2913 11.6274 11.7059 11.8319 12.042L11.0616 12.8123L11.7927 13.5462L12.563 12.7759C12.9075 12.9832 13.3249 13.1092 13.8067 13.1624ZM18.3445 17.1568H15.689C15.3613 17.1568 15.0952 16.8907 15.0952 16.563C15.0952 16.2353 15.3613 15.9692 15.689 15.9692H18.3445C18.6722 15.9692 18.9383 16.2353 18.9383 16.563C18.9383 16.8907 18.6722 17.1568 18.3445 17.1568ZM15.7787 10.2801C15.7787 9.28571 15.2464 8.82633 14.3249 8.82633C13.4033 8.82633 12.8711 9.28571 12.8711 10.2801C12.8711 11.2745 13.4033 11.7339 14.3249 11.7339C15.2464 11.7339 15.7787 11.2745 15.7787 10.2801Z" fill="#313235"/>
</svg>
