<svg width="24" height="24" viewBox="0 0 24 24" fill="none" xmlns="http://www.w3.org/2000/svg">
<path fill-rule="evenodd" clip-rule="evenodd" d="M20.9047 10.3529C21.2128 9.11202 21.5041 7.94115 21.6582 7.33331L21.647 7.33051C21.6582 7.28569 21.6638 7.24087 21.6638 7.19326C21.6638 6.88513 21.4117 6.63303 21.1036 6.63303H17.7142V5.40055C17.7142 5.38934 17.7114 5.37534 17.7086 5.36413V5.36133L17.7002 5.32772L17.6974 5.31651L17.689 5.2913L17.6862 5.2829L17.6694 5.24929V5.24648C17.6638 5.23528 17.6582 5.22408 17.6526 5.21567L17.647 5.20727C17.6442 5.20307 17.6414 5.19957 17.6386 5.19606C17.6358 5.19256 17.633 5.18906 17.6302 5.18486L17.6246 5.17646C17.6204 5.17226 17.6162 5.16735 17.612 5.16245C17.6078 5.15755 17.6036 5.15265 17.5994 5.14845L14.5882 2.13445C14.584 2.13025 14.5791 2.12605 14.5742 2.12185C14.5693 2.11765 14.5644 2.11344 14.5602 2.10924L14.5518 2.10364C14.5476 2.10084 14.5441 2.09805 14.5406 2.09525L14.5406 2.09524L14.5406 2.09523C14.5371 2.09243 14.5336 2.08963 14.5294 2.08683L14.521 2.08123C14.5098 2.07283 14.5014 2.06723 14.4901 2.06162H14.4873L14.4537 2.04482L14.4453 2.04202L14.4201 2.03361L14.4089 2.03081L14.3753 2.02241C14.3641 2.01961 14.3501 2.01681 14.3389 2.01681H14.3277C14.3193 2.01401 14.3081 2.01401 14.2997 2.01401H10.2941C9.81509 2.01401 9.50697 2.32213 9.50697 2.79832V6.63583H7.09802C6.88794 5.40895 6.71707 4.42296 6.65825 4.10083C6.43976 2.88235 5.2885 2 3.92156 2H2.57423C2.26611 2 2.01401 2.2521 2.01401 2.56022C2.01401 2.86834 2.26611 3.12044 2.57423 3.12044H3.92436C4.73669 3.12044 5.43696 3.62464 5.55741 4.29691C5.73668 5.31371 7.0588 12.9859 7.19046 13.8375C7.35292 14.8655 7.73667 15.6694 8.32771 16.2268C8.89633 16.759 9.63863 17.042 10.4762 17.042H16.745C17.5742 17.042 18.2772 16.759 18.8375 16.2016C19.3697 15.6694 19.7534 14.9159 20.0195 13.8907C20.1114 13.5342 20.3689 12.5016 20.6573 11.3447L20.6574 11.3444L20.6576 11.3437L20.9047 10.3529ZM17.6802 5.23204L17.6802 5.23206L17.6802 5.23208L17.6872 5.24082C17.6923 5.24926 17.6974 5.25741 17.7025 5.26555L17.7025 5.26555L17.7026 5.26567L17.7037 5.2675L17.6972 5.26228L17.6894 5.24932C17.6919 5.25341 17.6942 5.2575 17.6964 5.26159C17.6927 5.25842 17.6892 5.2551 17.6859 5.25165C17.6821 5.24348 17.6787 5.23515 17.676 5.22677L17.6802 5.23204ZM17.7141 5.29622C17.7027 5.28249 17.6933 5.26737 17.6859 5.25165C17.6691 5.23408 17.6572 5.21307 17.6502 5.19206C17.6588 5.20495 17.6674 5.21599 17.676 5.22677C17.6747 5.22308 17.6736 5.21938 17.6726 5.21567C17.6775 5.2245 17.6823 5.2328 17.6872 5.24082C17.6948 5.25051 17.7025 5.26055 17.7102 5.27206L17.7037 5.2675C17.7134 5.2828 17.723 5.29819 17.7326 5.31567C17.7299 5.31318 17.7272 5.3106 17.7246 5.30796L17.6972 5.26228L17.6964 5.26159C17.7002 5.2686 17.7037 5.27561 17.7072 5.28262L17.7072 5.28263L17.7141 5.29622ZM17.7338 5.32966C17.726 5.31851 17.7198 5.30736 17.7141 5.29622C17.7174 5.30026 17.7209 5.30418 17.7246 5.30796L17.7494 5.34929C17.7439 5.34322 17.7391 5.33715 17.7348 5.33107L17.7338 5.32772L17.7338 5.32966ZM17.7338 5.32966L17.7348 5.33107L17.7638 5.42772C17.7441 5.40311 17.7341 5.37042 17.7338 5.32966ZM16.8823 5.86833H15.3837C14.7226 5.86553 14.3697 5.56301 14.1904 5.31091C13.9803 5.01119 13.8767 4.60783 13.8739 4.07562V2.85714H10.3473V12.7731H16.8851C16.8823 12.1736 16.8823 8.33611 16.8823 5.86833ZM14.7142 3.45097L16.2885 5.028H15.3865C15.0336 5.028 14.717 4.95237 14.7142 4.07282V3.45097Z" fill="#313235"/>
</svg>
