<svg width="24" height="24" viewBox="0 0 24 24" fill="none" xmlns="http://www.w3.org/2000/svg">
<path fill-rule="evenodd" clip-rule="evenodd" d="M18.4621 9.96357C18.4621 8.33333 17.8179 7.14845 16.6358 6.56582C16.6388 6.54041 16.6424 6.51534 16.646 6.49049C16.6526 6.44412 16.6592 6.39853 16.661 6.35294V3.42577C16.661 2.64146 16.0224 2.00281 15.2409 2.00281H8.49578C7.71427 2.00281 7.07562 2.64146 7.07562 3.42577V6.35294C7.07562 6.43977 7.08682 6.52941 7.10083 6.61624C6.83752 6.7619 6.59103 6.92156 6.38374 7.12885C5.69187 7.79831 5.33893 8.75069 5.33893 9.96638V17.8823C5.33893 19.0952 5.68907 20.0476 6.37534 20.7199C7.0364 21.3585 7.96077 21.6862 9.12603 21.6862H14.6918C17.0504 21.6862 18.4537 20.2633 18.4537 17.8795L18.4621 9.96357ZM8.2717 3.42297V6.35014C8.2717 6.47059 8.36693 6.57423 8.49578 6.57423H15.2409C15.3613 6.57423 15.465 6.47059 15.465 6.35014V3.42297C15.465 3.30252 15.3613 3.19888 15.2409 3.19888H8.49578C8.36693 3.19888 8.2717 3.30252 8.2717 3.42297ZM9.30531 6.03641C8.97477 6.03641 8.70587 5.76751 8.70587 5.43697V4.42017C8.70587 4.08964 8.97477 3.82073 9.30531 3.82073C9.63584 3.82073 9.90194 4.08964 9.90194 4.42017V5.43697C9.90474 5.76751 9.63584 6.03641 9.30531 6.03641ZM11.014 6.03641C10.6835 6.03641 10.4173 5.76751 10.4173 5.43697V4.42017C10.4173 4.08964 10.6863 3.82073 11.014 3.82073C11.3445 3.82073 11.6134 4.08964 11.6134 4.42017V5.43697C11.6106 5.76751 11.3445 6.03641 11.014 6.03641ZM12.1232 5.43697C12.1232 5.76751 12.3893 6.03641 12.7199 6.03641C13.0504 6.03641 13.3193 5.76751 13.3165 5.43697V4.42017C13.3165 4.08964 13.0504 3.82073 12.7199 3.82073C12.3921 3.82073 12.1232 4.08964 12.1232 4.42017V5.43697ZM14.4285 6.03641C14.098 6.03641 13.8319 5.76751 13.8319 5.43697V4.42017C13.8319 4.08964 14.1008 3.82073 14.4285 3.82073C14.7591 3.82073 15.0252 4.08964 15.0252 4.42017V5.43697C15.0252 5.76751 14.7591 6.03641 14.4285 6.03641ZM17.2269 9.35573H6.57422C6.66105 8.7731 6.86834 8.31652 7.21287 7.98599C7.38094 7.81792 7.60223 7.69747 7.83472 7.59383C8.0336 7.69747 8.25769 7.7703 8.49578 7.7703H15.2409C15.4986 7.7703 15.7367 7.69187 15.9439 7.57142C16.6694 7.85994 17.098 8.45938 17.2269 9.35573ZM14.2997 12.986H12.8347V11.5126C12.8347 11.2577 12.6358 11.0336 12.4201 11.0336H11.1989C10.9776 11.0336 10.7759 11.2577 10.7759 11.5126V12.986H9.30811C9.05321 12.986 8.82912 13.1765 8.82912 13.4005V14.6246C8.82912 14.8571 9.05321 15.0476 9.30811 15.0476H10.7759L10.7843 16.521C10.7843 16.7759 10.9776 17 11.1989 17H12.4201C12.6526 17 12.8347 16.7759 12.8347 16.521V15.042H14.2997C14.5546 15.042 14.7787 14.8431 14.7787 14.6274V13.4033C14.7787 13.1877 14.5546 12.986 14.2997 12.986ZM17.1148 18.9439C16.8123 19.9664 16 20.4874 14.6918 20.4874H9.12603C8.2885 20.4874 7.64425 20.2689 7.20447 19.8543C6.96357 19.6162 6.78991 19.3109 6.67786 18.9439H17.1148Z" fill="#313235"/>
</svg>
