<svg width="24" height="24" viewBox="0 0 24 24" fill="none" xmlns="http://www.w3.org/2000/svg">
<path fill-rule="evenodd" clip-rule="evenodd" d="M21.2467 15.6344C20.9526 15.0742 20.5997 14.6288 20.2327 14.2759C21.3055 13.0826 21.8518 11.3851 21.8546 9.23107C21.8546 4.67926 19.3616 2.16666 14.835 2.16666C10.3168 2.16666 7.82377 4.67926 7.82377 9.23107C7.82377 9.32911 7.82377 9.43555 7.83218 9.53359C6.40081 9.98737 5.33918 10.8109 4.6277 11.5364C2.93583 13.2479 2.17673 15.4047 2.18513 16.6484C2.10138 18.2396 2.32922 19.3022 2.3391 19.3483L2.33919 19.3487C2.40362 19.6316 2.65011 19.8361 2.93583 19.8361H4.65011C4.8798 21.0882 5.81818 21.8445 7.21593 21.8445C8.61369 21.8445 9.55206 21.0882 9.78175 19.8361H13.1963C13.4176 21.0966 14.356 21.8529 15.7537 21.8529C17.1515 21.8529 18.0899 21.0966 18.3196 19.8361H20.6977C20.863 19.8361 21.0086 19.7689 21.1235 19.6624L21.1247 19.6612C21.1997 19.5864 22.5941 18.1956 21.2467 15.6344ZM9.04786 9.22827V9.25908C9.398 9.20306 9.77615 9.17785 10.1655 9.17785C14.6529 9.17785 16.8826 11.9762 17.4876 12.8893C17.8714 12.9566 18.524 13.1218 19.2355 13.5252C20.1599 12.5532 20.6249 11.1106 20.6249 9.22827C20.6249 5.35993 18.6725 3.39915 14.8322 3.39915C11.0002 3.39915 9.04786 5.35713 9.04786 9.22827ZM16.0675 10.2227C16.1879 10.3459 16.3448 10.4047 16.5016 10.4047C16.6585 10.4047 16.8154 10.3431 16.9358 10.2227C17.1739 9.97897 17.1739 9.58961 16.9358 9.34872L15.3868 7.7885V5.68766C15.3868 5.34872 15.1123 5.07141 14.7733 5.07141C14.4344 5.07141 14.1599 5.34592 14.1599 5.68766V8.0462C14.1599 8.21146 14.2243 8.36833 14.3392 8.48317L16.0675 10.2227ZM20.1599 16.2115C20.8406 17.4944 20.5857 18.2759 20.398 18.598H18.3196C18.1067 17.3291 17.1599 16.5728 15.7537 16.5728C14.3504 16.5728 13.4092 17.3291 13.1963 18.598H9.79016C9.56887 17.3291 8.62209 16.5644 7.21593 16.5644C5.80977 16.5644 4.86299 17.3291 4.64171 18.598H3.46524C3.40922 18.1778 3.3672 17.5112 3.40922 16.6708C3.40081 15.6344 4.1291 13.7829 5.49325 12.3991C6.3924 11.4944 7.92742 10.4159 10.1655 10.4159C14.6669 10.4159 16.5072 13.6344 16.5801 13.7661C16.6865 13.9566 16.8742 14.0798 17.0871 14.0882C17.1039 14.0882 19.1151 14.2283 20.1599 16.2115ZM17.1543 19.2142V19.2058C17.1543 18.2591 16.6977 17.8081 15.7565 17.8081C14.8154 17.8081 14.3672 18.2619 14.3672 19.2058V19.2142C14.3672 20.1526 14.8154 20.6148 15.7565 20.6148C16.6977 20.6148 17.1543 20.1526 17.1543 19.2142ZM8.61369 19.1974V19.2142C8.60529 20.1526 8.1487 20.6064 7.21593 20.6064C6.27476 20.6064 5.81818 20.1442 5.81818 19.1974C5.81818 18.2535 6.27756 17.7997 7.21593 17.7997C8.15711 17.7997 8.61369 18.2507 8.61369 19.1974Z" fill="#313235"/>
</svg>
