<svg width="24" height="24" viewBox="0 0 24 24" fill="none" xmlns="http://www.w3.org/2000/svg">
<path fill-rule="evenodd" clip-rule="evenodd" d="M18.219 3.50043H6.302C4.20198 3.50043 2.5 5.20202 2.5 7.30143V13.1984C2.5 15.2979 4.20209 17.0004 6.302 17.0004H18.219C20.3189 17.0004 22.021 15.2979 22.021 13.1984V7.30143C22.021 5.20202 20.319 3.50043 18.219 3.50043ZM6.302 5.00043H18.219C19.4907 5.00043 20.521 6.03052 20.521 7.30143V13.1984C20.521 14.4696 19.4904 15.5004 18.219 15.5004H6.302C5.0306 15.5004 4 14.4696 4 13.1984V7.30143C4 6.03052 5.03033 5.00043 6.302 5.00043ZM21.9934 19.2543C21.9934 18.8401 21.6576 18.5043 21.2434 18.5043H3.3004L3.19863 18.5112C2.83255 18.5608 2.5504 18.8746 2.5504 19.2543C2.5504 19.6685 2.88619 20.0043 3.3004 20.0043H21.2434L21.3452 19.9975C21.7112 19.9478 21.9934 19.634 21.9934 19.2543Z" fill="#313235"/>
</svg>
