<svg width="24" height="24" viewBox="0 0 24 24" fill="none" xmlns="http://www.w3.org/2000/svg">
<path fill-rule="evenodd" clip-rule="evenodd" d="M6.97763 11.6666L8.23532 9.10359L7.37819 7.27727H6.56586C6.27175 7.27727 6.03646 7.03077 6.03646 6.72545C6.03646 6.42013 6.27455 6.17364 6.56586 6.17364H9.30255C9.59666 6.17364 9.83196 6.42013 9.83196 6.72545C9.83196 7.03077 9.59386 7.27727 9.30255 7.27727H8.55745L9.15969 8.56018H14.3165V5.99436C14.3165 5.73386 14.4902 5.50977 14.7339 5.45375C14.888 5.41734 16.2717 5.12322 17.0868 5.80669C17.3417 6.01957 17.647 6.42013 17.647 7.11201C17.647 7.41733 17.409 7.66383 17.1176 7.66383C16.8235 7.66383 16.5854 7.41733 16.5854 7.11201C16.5854 6.8403 16.4986 6.73386 16.4202 6.66943C16.1905 6.47616 15.7395 6.44814 15.3781 6.47616V8.98035L16.7143 11.6806C16.7143 11.6806 16.3641 11.8151 16.2381 11.8683C16.1176 11.9187 15.7283 12.098 15.7283 12.098L14.8459 10.3165L12.8768 14.2716C13.1821 14.5574 13.3558 14.9859 13.3558 15.5349C13.3558 16.266 13.0532 16.7842 12.5294 17.0279L12.8459 17.6862H13.3277C13.6219 17.6862 13.8571 17.9355 13.8571 18.2408C13.8571 18.5461 13.6191 18.7926 13.3277 18.7926H12.5182C12.3165 18.7926 12.1317 18.675 12.0448 18.4873L11.4062 17.1568C10.7535 17.0447 10.3334 16.6106 10.2129 15.9411H9.47061C9.47061 15.9411 9.48462 15.731 9.48462 15.3893C9.48201 15.0531 9.47213 14.8624 9.47077 14.8375H9.47341L9.47315 14.8347H10.2885C10.3698 14.605 10.4986 14.4173 10.6611 14.266L8.81515 10.3417L7.96922 12.07C7.96922 12.07 7.57986 11.8907 7.44821 11.8375C7.36202 11.803 7.14323 11.7254 7.03665 11.6876L6.97763 11.6666ZM6.97763 11.6666L5.27735 15.14C5.19332 15.3109 5.20172 15.5153 5.29696 15.6806C5.3922 15.8431 5.56587 15.9439 5.75074 15.9439H9.47341C9.28294 18.0811 7.96642 19.3052 5.76755 19.3052C3.38941 19.3052 2.02527 17.8851 2.02527 15.4061C2.02527 12.9271 3.38941 11.5069 5.76755 11.5069C6.21292 11.5069 6.60788 11.5714 6.97763 11.6666ZM9.47315 14.8347C9.35221 13.57 8.83972 12.6214 7.97202 12.0728L6.61909 14.8375H9.47077L9.47061 14.8347H9.47315ZM11.8371 13.8871L11.8371 13.8871C11.8141 13.8847 11.7914 13.8823 11.7675 13.8823C11.744 13.8823 11.7229 13.8846 11.701 13.887H11.701H11.701L11.701 13.887L11.701 13.887C11.689 13.8884 11.6768 13.8897 11.6639 13.8907L9.6779 9.66662H13.9748L11.874 13.8907C11.8614 13.8897 11.8492 13.8884 11.8371 13.8871ZM11.7675 14.9887C11.3642 14.9887 11.2409 15.1176 11.2409 15.5377C11.2409 15.9551 11.3698 16.0868 11.7675 16.0868C12.1737 16.0868 12.2941 15.9579 12.2941 15.5377C12.2941 15.1148 12.1737 14.9887 11.7675 14.9887ZM21.7143 15.4061C21.7143 12.9299 20.3501 11.5069 17.972 11.5069C17.5098 11.5069 17.098 11.577 16.7199 11.6778L18.4286 15.1372C18.563 15.4089 18.4594 15.7422 18.1989 15.8823C18.1204 15.9243 18.0364 15.9439 17.9552 15.9439C17.7619 15.9439 17.577 15.8347 17.4818 15.6442L15.7283 12.098C14.7563 12.7338 14.2297 13.8655 14.2297 15.4061C14.2297 17.8851 15.5938 19.3052 17.972 19.3052C20.3501 19.3052 21.7143 17.8851 21.7143 15.4061Z" fill="#313235"/>
</svg>
