<svg width="24" height="24" viewBox="0 0 24 24" fill="none" xmlns="http://www.w3.org/2000/svg">
<path fill-rule="evenodd" clip-rule="evenodd" d="M19.6162 20.6442C19.6442 20.647 19.6694 20.647 19.6946 20.647C19.9439 20.647 20.168 20.5574 20.3333 20.3893C20.5182 20.2044 20.6078 19.9523 20.5882 19.6722V7.5854C20.591 7.10921 20.3445 6.71986 19.9299 6.54058C19.4846 6.35011 18.9215 6.44255 18.591 6.75907L18.5826 6.76747L16.0028 9.3473L11.1905 4.23247L11.1765 4.21846C10.958 3.99997 10.6891 3.77028 10.3529 3.69745C9.98318 3.61902 9.62184 3.73947 9.2745 4.0588L9.25769 4.0756L4.2325 9.12321C3.4958 9.85991 3.4874 10.7002 4.21569 11.4285L4.22129 11.4341L9.12324 16.224L6.7451 18.6022C6.74229 18.6078 6.73669 18.6134 6.73109 18.619C6.40336 18.9775 6.31092 19.5686 6.5154 20.0252C6.68907 20.4089 7.03921 20.6386 7.45938 20.6386H7.47058L19.6162 20.6442ZM19.5126 19.5686L7.49019 19.563C7.47619 19.5013 7.49019 19.3921 7.521 19.3529L9.96918 16.9047C10.3445 16.5294 10.3361 15.9131 9.95237 15.5294L9.94677 15.5238L4.97479 10.6666C4.86835 10.563 4.7451 10.4117 4.7479 10.2857C4.7507 10.1848 4.83754 10.042 4.9944 9.88512L10.0112 4.84871C10.0812 4.78709 10.1232 4.76468 10.14 4.75627C10.1681 4.76748 10.2437 4.8095 10.4146 4.97756L15.2941 10.1624L15.3053 10.1736C15.6891 10.5602 16.3053 10.5686 16.6806 10.1932L19.3305 7.54338C19.3697 7.51817 19.4706 7.51537 19.507 7.53498C19.5098 7.54338 19.5126 7.56019 19.5126 7.5854V7.5882V19.5686Z" fill="#313235"/>
</svg>
