<svg width="24" height="24" viewBox="0 0 24 24" fill="none" xmlns="http://www.w3.org/2000/svg">
<path fill-rule="evenodd" clip-rule="evenodd" d="M17.8193 9.91873C18.4103 10.4846 18.7157 11.3193 18.7297 12.3949C18.7297 12.3977 18.7297 12.4005 18.7325 12.4005V18.3361C18.7213 19.4117 18.4131 20.2436 17.8221 20.8122C17.2507 21.3585 16.4384 21.6358 15.4048 21.6358H7.82776C6.79135 21.6358 5.97903 21.3585 5.41041 20.8094C4.81937 20.2408 4.51965 19.4061 4.51965 18.3277L4.52245 12.675C4.51965 12.5266 4.51965 12.4677 4.51965 12.4425V12.4061C4.51965 11.3277 4.81937 10.493 5.41041 9.92433C5.79136 9.55739 6.27875 9.31369 6.86698 9.19044V6.46497C6.86698 4.00279 8.95941 2 11.5336 2H11.7185C14.2927 2 16.3851 4.00279 16.3851 6.46216V6.49578C16.3767 6.78149 16.1358 7.00558 15.8501 6.99718C15.5644 6.98877 15.3403 6.74788 15.3487 6.46216C15.3487 4.57422 13.7185 3.03641 11.7185 3.03641H11.5336C9.53084 3.03641 7.90339 4.57422 7.90339 6.46216V9.09521H15.402C16.4356 9.09521 17.2479 9.37252 17.8193 9.91873ZM11.6233 19.3221C11.8361 19.3221 12.007 19.2632 12.1247 19.1456C12.2339 19.0363 12.2955 18.8739 12.2927 18.6554C12.2927 18.2016 12.0294 17.9915 11.6233 17.9915C11.2171 17.9915 10.9538 18.2016 10.9538 18.6554C10.9538 18.8739 11.0126 19.0363 11.1219 19.1456C11.2395 19.266 11.4104 19.3221 11.6233 19.3221ZM14.7521 17.5041C14.5476 17.703 14.2171 17.6974 14.0182 17.4929C13.5056 16.9635 12.7017 16.6946 11.6289 16.6946C10.556 16.6946 9.74652 16.9635 9.23392 17.4957C9.03504 17.703 8.70731 17.7086 8.50003 17.5097C8.29275 17.3109 8.28714 16.9831 8.48602 16.7758C9.20311 16.0336 10.2591 15.6554 11.6261 15.6554C12.9902 15.6554 14.0434 16.0307 14.7605 16.7674C14.9622 16.9747 14.9594 17.3025 14.7521 17.5041ZM15.4496 15.2296C15.6485 15.4341 15.979 15.4397 16.1835 15.2408C16.3879 15.042 16.3935 14.7114 16.1919 14.5069C15.1583 13.4425 13.6233 12.9019 11.6289 12.9019C9.62887 12.9019 8.08826 13.4453 7.05466 14.5182C6.85578 14.7254 6.86138 15.0532 7.06866 15.252C7.27594 15.4509 7.60367 15.4453 7.80255 15.238C8.63168 14.3753 9.92019 13.9383 11.6289 13.9383C13.3319 13.9383 14.6176 14.3725 15.4496 15.2296Z" fill="#313235"/>
</svg>
