<svg width="24" height="24" viewBox="0 0 24 24" fill="none" xmlns="http://www.w3.org/2000/svg">
<path fill-rule="evenodd" clip-rule="evenodd" d="M16.8178 2C17.2996 2 17.9775 2.10644 18.4649 2.62185C18.8262 3.0056 19.0167 3.54901 19.0167 4.19887V19.4761C19.0167 20.126 18.8262 20.6694 18.4649 21.0531C18.196 21.336 17.6918 21.675 16.8178 21.675H7.54054C7.05595 21.675 6.37808 21.5685 5.89349 21.0531C5.53215 20.6694 5.34167 20.126 5.34167 19.4761V6.10362C5.34167 5.94676 5.4061 5.7983 5.52095 5.69186L9.34446 2.14846C9.4481 2.05322 9.58535 2 9.72541 2H16.8178ZM11.647 10.6162C11.4929 10.6162 11.3669 10.7423 11.3669 10.8963V11.9467C11.3669 12.1008 11.4929 12.2268 11.647 12.2268H12.6974C12.8514 12.2268 12.9775 12.1008 12.9775 11.9467V10.8963C12.9775 10.7423 12.8514 10.6162 12.6974 10.6162H11.647ZM8.64138 10.8963C8.64138 10.7423 8.76743 10.6162 8.92149 10.6162H9.9663C10.1204 10.6162 10.2464 10.7423 10.2464 10.8963V11.9467C10.2464 12.1008 10.1204 12.2268 9.9663 12.2268H8.92149C8.76743 12.2268 8.64138 12.1008 8.64138 11.9467V10.8963ZM9.9663 18.1064C10.1204 18.1064 10.2464 17.9803 10.2464 17.8263V16.7758C10.2464 16.6218 10.1204 16.4957 9.9663 16.4957H8.92149C8.76743 16.4957 8.64138 16.6218 8.64138 16.7758V17.8263C8.64138 17.9803 8.76743 18.1064 8.92149 18.1064H9.9663ZM12.9775 17.8263C12.9775 17.9803 12.8514 18.1064 12.6974 18.1064H11.647C11.4929 18.1064 11.3669 17.9803 11.3669 17.8263V16.7758C11.3669 16.6218 11.4929 16.4957 11.647 16.4957H12.6974C12.8514 16.4957 12.9775 16.6218 12.9775 16.7758V17.8263ZM15.4341 18.1064C15.5881 18.1064 15.7142 17.9803 15.7142 17.8263V16.7758C15.7142 16.6218 15.5881 16.4957 15.4341 16.4957H14.3752C14.2212 16.4957 14.0951 16.6218 14.0951 16.7758V17.8263C14.0951 17.9803 14.2212 18.1064 14.3752 18.1064H15.4341ZM15.7142 15.0952C15.7142 15.2492 15.5881 15.3753 15.4341 15.3753H8.92149C8.76743 15.3753 8.64138 15.2492 8.64138 15.0952V13.6274C8.64138 13.4733 8.76743 13.3473 8.92149 13.3473H15.4341C15.5881 13.3473 15.7142 13.4733 15.7142 13.6274V15.0952ZM15.4341 12.2268C15.5881 12.2268 15.7142 12.1008 15.7142 11.9467V10.8963C15.7142 10.7423 15.5881 10.6162 15.4341 10.6162H14.3752C14.2212 10.6162 14.0951 10.7423 14.0951 10.8963V11.9467C14.0951 12.1008 14.2212 12.2268 14.3752 12.2268H15.4341Z" fill="#313235"/>
</svg>
