<svg width="24" height="24" viewBox="0 0 24 24" fill="none" xmlns="http://www.w3.org/2000/svg">
<path fill-rule="evenodd" clip-rule="evenodd" d="M3.61375 21.4156H16.1824C16.9807 21.4156 17.6305 20.7461 17.6305 19.9226V17.7069C17.8182 17.7293 17.9667 17.7349 18.0507 17.7377C18.1684 17.7377 18.2888 17.7349 18.3336 17.7293C19.9527 17.7069 21.8462 16.7153 21.8462 13.9954C21.8462 11.3063 20.0311 10.2951 18.3336 10.2447H18.0339C17.9387 10.2447 17.7986 10.2475 17.6305 10.2671V8.35956C17.6305 7.53884 16.9835 6.86937 16.1852 6.86937H13.5213C13.5409 6.6873 13.5521 6.49682 13.5521 6.30074C13.5521 3.60607 11.7342 2.59767 10.0199 2.55005H9.72859C8.04232 2.57246 6.2384 3.56405 6.2384 6.28394C6.2384 6.48562 6.2496 6.6817 6.26921 6.87217H3.61375C2.81263 6.87217 2.15997 7.53884 2.15997 8.36237V10.903C2.15997 11.0851 2.2328 11.2559 2.36445 11.3764C2.49331 11.494 2.66137 11.5528 2.84345 11.5332C2.94141 11.5213 3.02511 11.5175 3.08237 11.5149C3.09223 11.5144 3.10132 11.514 3.10955 11.5136H3.37566L3.38401 11.514C3.50392 11.52 3.8386 11.5365 4.21599 11.6705C5.19918 11.9786 5.69498 12.7629 5.69498 13.9982C5.69498 15.2307 5.19638 16.0122 4.20479 16.3287C3.84344 16.452 3.52692 16.466 3.34765 16.4688C3.29723 16.4744 3.2384 16.4744 3.18518 16.4744H3.14877C3.07594 16.4716 2.9723 16.4632 2.85185 16.4492C2.67258 16.424 2.49891 16.4828 2.36726 16.6032C2.2356 16.7265 2.15997 16.8974 2.15997 17.0794V19.9254C2.15997 20.7461 2.81263 21.4156 3.61375 21.4156ZM3.39807 19.9226V17.7321C3.40367 17.7321 3.40647 17.7321 3.41487 17.7377C3.63616 17.7377 4.08434 17.7125 4.58574 17.5416C5.46249 17.2615 6.93588 16.4296 6.93588 14.001C6.93588 11.564 5.46249 10.7377 4.60535 10.466C4.06753 10.2755 3.58854 10.2531 3.40647 10.2475L3.40087 8.36237C3.40087 8.23912 3.49611 8.13828 3.61655 8.13828H7.03111C7.22719 8.13828 7.41207 8.04024 7.52971 7.87777C7.64456 7.71531 7.67817 7.50522 7.61935 7.31195C7.52411 7.00663 7.47649 6.66209 7.47649 6.28114C7.47649 4.16349 8.89666 3.82736 9.73699 3.81615H10.0031C10.8658 3.83856 12.314 4.1943 12.314 6.30074C12.314 6.67329 12.2664 7.00382 12.1712 7.31195C12.1095 7.50522 12.1432 7.71531 12.2608 7.87777C12.3756 8.04304 12.5605 8.13828 12.7594 8.13828H16.1824C16.2972 8.13828 16.3896 8.23912 16.3896 8.36237V11.0486C16.3896 11.2531 16.4821 11.4436 16.6417 11.5612C16.8042 11.6817 17.0115 11.7153 17.1964 11.6537C17.5717 11.5304 17.905 11.5164 18.0311 11.5164H18.3056C19.1684 11.5416 20.6081 11.903 20.6081 13.9982C20.6081 16.1943 19.0031 16.4548 18.2608 16.4688C18.1992 16.4744 18.1235 16.4744 18.0703 16.4744C17.8602 16.466 17.5437 16.4408 17.2076 16.3231C17.0171 16.2587 16.8098 16.2867 16.6473 16.4072C16.4849 16.5248 16.3896 16.7181 16.3896 16.9226V19.9226C16.3896 20.043 16.2972 20.1439 16.1824 20.1439H3.61375C3.4933 20.1439 3.39807 20.0458 3.39807 19.9226Z" fill="#313235"/>
</svg>
