<svg width="24" height="24" viewBox="0 0 24 24" fill="none" xmlns="http://www.w3.org/2000/svg">
<path fill-rule="evenodd" clip-rule="evenodd" d="M21.8363 12.0182C21.8363 2.85578 13.9764 2.20032 12.3937 2.15831C12.206 2.1499 11.9764 2.1499 11.7635 2.1499H11.4918C2.601 2.23113 2.15002 10.3376 2.15002 11.9594C2.15002 13.5813 2.60941 21.7045 11.559 21.8278C11.6486 21.8362 11.7466 21.8362 11.8446 21.8362H11.8447C11.9502 21.8362 12.0565 21.8339 12.1593 21.8318H12.1594H12.1595C12.2558 21.8297 12.3491 21.8278 12.4357 21.8278C14.0016 21.797 21.8363 21.1891 21.8363 12.0182ZM21.0156 12.0182C21.0156 20.2143 14.4357 20.965 12.4189 21.007C12.337 21.007 12.2495 21.0079 12.159 21.0088H12.159H12.1589C11.9679 21.0107 11.7631 21.0127 11.5674 21.007C9.55058 20.9846 2.97075 20.2451 2.97075 11.9594C2.97075 3.69052 9.50297 2.98744 11.503 2.97063C11.7887 2.97063 12.108 2.97063 12.3797 2.97903C14.4049 3.02665 21.0156 3.82217 21.0156 12.0182ZM11.5842 16.8446C11.9792 16.8446 12.2313 17.0995 12.2313 17.5V17.5645C12.2313 17.9482 11.9764 18.2031 11.5842 18.2031C11.15 18.2031 10.8951 17.9482 10.8951 17.5645V17.5C10.8951 17.0995 11.15 16.8446 11.5422 16.8446H11.5842ZM15.0856 8.6485C15.0856 7.67371 14.7803 7.01825 14.1164 6.53366C13.601 6.1415 12.8783 5.94262 11.9652 5.93702C11.1024 5.93702 10.178 6.11629 9.81669 6.28156C9.72706 6.32357 9.67664 6.41321 9.69344 6.51125L9.75787 6.86419C9.77467 6.91461 9.80549 6.96223 9.8475 6.99584C9.89792 7.02945 9.95675 7.03786 10.0128 7.02105C10.6682 6.86419 11.192 6.79136 11.7663 6.79136C12.8727 6.79136 13.3069 7.02105 13.5534 7.21713C13.9876 7.56167 14.1752 7.99024 14.1752 8.62889C14.1752 9.48884 13.8811 10.0154 12.4301 11.7269L12.2593 11.9314C11.3181 13.0547 11.0464 13.6625 11.0464 14.6121C11.0464 14.8502 11.0632 15.0407 11.0968 15.2199C11.122 15.3208 11.2032 15.3852 11.3013 15.3852H11.7495C11.8643 15.3852 11.9539 15.2928 11.9539 15.1807C11.9539 13.6233 12.0604 13.4916 13.4217 11.9258C14.601 10.5253 15.0856 9.83618 15.0856 8.6485Z" fill="#313235"/>
</svg>
