<svg width="24" height="24" viewBox="0 0 24 24" fill="none" xmlns="http://www.w3.org/2000/svg">
<path fill-rule="evenodd" clip-rule="evenodd" d="M21.8363 12.0177C21.8363 2.84964 13.9708 2.19698 12.3937 2.16056C12.1192 2.15216 11.7915 2.14656 11.5002 2.15216C9.93714 2.16616 2.15002 2.69838 2.15002 11.9645C2.15002 21.2306 9.99036 21.8132 11.5618 21.8328C11.6542 21.8356 11.7493 21.8356 11.8445 21.8356H11.8447C12.0464 21.8356 12.2509 21.8328 12.4245 21.83C13.9988 21.802 21.8363 21.1942 21.8363 12.0177ZM20.6318 12.0177C20.6318 19.8664 14.3349 20.5891 12.4049 20.6255C12.1584 20.6311 11.8559 20.6368 11.5786 20.6311C9.64862 20.6031 3.35451 19.8973 3.35451 11.9645C3.35451 4.04011 9.5954 3.37345 11.5086 3.35384C11.7915 3.35104 12.1024 3.35664 12.3657 3.36224C14.3041 3.40986 20.6318 4.17177 20.6318 12.0177ZM11.5534 16.5443C12.0828 16.5443 12.4273 16.8917 12.4273 17.3903C12.4273 17.9477 12.0884 18.281 11.5842 18.281C11.0464 18.281 10.7102 17.9477 10.7102 17.4547V17.3903C10.713 16.8917 11.0576 16.5443 11.5534 16.5443ZM15.2229 8.71798C15.2229 7.70958 14.8951 7.0009 14.1976 6.48549C13.6542 6.07373 12.9035 5.86644 11.9623 5.86924C11.0688 5.86924 10.1416 6.05412 9.76347 6.23339C9.5982 6.31182 9.50857 6.49109 9.54218 6.67036L9.60661 7.0121C9.60801 7.0163 9.60871 7.02051 9.60941 7.02471C9.61011 7.02891 9.61081 7.03311 9.61221 7.03731C9.66823 7.2502 9.88392 7.37905 10.0996 7.32583C10.7074 7.17177 11.2032 7.10734 11.7663 7.10734C12.7999 7.10734 13.178 7.30622 13.3937 7.47709C13.7691 7.77681 13.9287 8.14095 13.9287 8.69838C13.9287 9.48269 13.6626 9.94768 12.2565 11.6115L12.094 11.8076C11.2397 12.8356 10.8587 13.4771 10.8587 14.5611C10.8559 14.774 10.8755 14.9869 10.9147 15.1942C10.9539 15.3847 11.1192 15.5191 11.3097 15.5191H11.7523C11.9736 15.5191 12.1528 15.3398 12.1528 15.1185C12.1528 13.6732 12.206 13.6115 13.545 12.0625C14.713 10.6844 15.2229 9.95048 15.2229 8.71798Z" fill="#313235"/>
</svg>
