<svg width="24" height="24" viewBox="0 0 24 24" fill="none" xmlns="http://www.w3.org/2000/svg">
<path d="M21.4963 2.19624C21.2778 2.10661 21.0229 2.14862 20.8492 2.30829L18.0313 4.98056C16.303 3.65843 14.1601 2.94694 11.9556 2.96375C6.99765 2.95535 2.81838 6.52117 2.22174 11.2663C1.6251 16.0114 4.80718 20.4371 9.6223 21.566C14.4374 22.6948 19.3702 20.1738 21.1041 15.6948C21.2133 15.4091 21.0649 15.0898 20.768 14.9806C20.6251 14.9273 20.4626 14.9301 20.3226 14.9918C20.1825 15.0534 20.0705 15.1654 20.0173 15.3055C18.7091 18.664 15.3142 20.8349 11.5971 20.6892C7.88 20.5436 4.67832 18.1122 3.66152 14.664C2.64191 11.213 4.03407 7.52117 7.1125 5.50997C10.1909 3.49876 14.2638 3.61641 17.2105 5.80689L14.6111 8.28028C14.4402 8.43714 14.387 8.68084 14.4766 8.89092C14.5663 9.101 14.7792 9.23826 15.0145 9.23826L20.9304 8.88252C21.2217 8.86571 21.457 8.64162 21.4738 8.35871L21.8324 2.79008C21.8632 2.54078 21.7287 2.30268 21.4963 2.19624Z" fill="#313235"/>
</svg>
