<svg width="24" height="24" viewBox="0 0 24 24" fill="none" xmlns="http://www.w3.org/2000/svg">
<path fill-rule="evenodd" clip-rule="evenodd" d="M18.8855 20.7318H12.7454C11.8239 20.7318 11.0984 20.4825 10.5858 19.9895C10.0535 19.4769 9.78464 18.729 9.78464 17.771V6.21078C9.78464 5.2528 10.0535 4.5049 10.5858 3.9923C11.0956 3.4993 11.8239 3.25 12.7454 3.25H18.8883C19.8098 3.25 20.5353 3.4993 21.0479 3.9923C21.5801 4.5049 21.8491 5.25 21.8491 6.21078V17.771C21.8491 18.729 21.5801 19.4769 21.0479 19.9895C20.5353 20.4825 19.807 20.7318 18.8855 20.7318ZM12.7454 4.37045C11.4737 4.37045 10.9051 4.93907 10.9051 6.21078V17.771C10.9051 19.0427 11.4737 19.6113 12.7454 19.6113H18.8883C20.16 19.6113 20.7286 19.0427 20.7286 17.771V6.21078C20.7286 4.93907 20.16 4.37045 18.8883 4.37045H12.7454ZM3.93031 20.7066H6.94991C8.05635 20.7066 8.71742 20.0427 8.72022 18.9363V12.9447C8.72022 11.8354 8.05915 11.1744 6.94991 11.1744H3.93031C2.82107 11.1744 2.16 11.8354 2.16 12.9447V18.9363C2.16 20.0455 2.82107 20.7066 3.93031 20.7066ZM15.1684 18.0287C15.1684 17.6001 15.4177 17.4012 15.8014 17.4012C16.1852 17.4012 16.4345 17.6001 16.4345 18.0287C16.4345 18.236 16.3757 18.3872 16.2748 18.4909C16.1628 18.6029 16.0003 18.6561 15.8014 18.6561C15.6026 18.6561 15.4401 18.6029 15.3281 18.4909C15.2244 18.3872 15.1684 18.2332 15.1684 18.0287ZM3.93031 12.2948C3.44572 12.2948 3.28045 12.4601 3.28045 12.9447V18.9363C3.28045 19.4208 3.44291 19.5861 3.93031 19.5861H6.94991C7.43451 19.5861 7.59977 19.4208 7.59977 18.9363V12.9447C7.59977 12.4573 7.43451 12.2948 6.94991 12.2948H3.93031ZM6.61938 7.59173C6.61938 7.86344 6.83787 8.08193 7.10958 8.08193C7.22722 8.08193 7.33927 8.03991 7.4261 7.95868C7.56336 7.84103 8.25523 7.24719 8.38128 7.12114C8.78184 6.72058 8.77904 6.22198 8.37568 5.81582C8.16443 5.60457 7.64948 5.16203 7.48016 5.01652C7.44966 4.99031 7.43038 4.97373 7.4261 4.96989C7.21882 4.79342 6.9107 4.81863 6.73423 5.02591C6.55776 5.23319 6.58297 5.54131 6.79025 5.71778C6.86018 5.77756 6.97825 5.87912 7.10807 5.99229H7.01154C6.07877 5.99229 5.34487 6.24159 4.83227 6.73739C4.30006 7.2528 4.02835 8.00349 4.02835 8.97548V9.61414C4.02835 9.88584 4.24684 10.1043 4.51854 10.1043C4.79025 10.1043 5.00874 9.88584 5.00874 9.61414V8.97548C5.00874 7.60854 5.64459 6.97268 7.01154 6.97268H7.07624C6.9819 7.05425 6.88456 7.13813 6.79025 7.21918C6.68101 7.31162 6.61938 7.44887 6.61938 7.59173ZM5.17961 18.5749C5.17961 18.32 5.32527 18.2024 5.55496 18.2024C5.78465 18.2024 5.93311 18.32 5.93311 18.5749C5.93311 18.6954 5.89949 18.7878 5.83787 18.8494C5.77344 18.9138 5.67821 18.9475 5.55776 18.9475C5.43731 18.9475 5.33927 18.9166 5.27485 18.8494C5.21322 18.7878 5.17961 18.6982 5.17961 18.5749Z" fill="#313235"/>
</svg>
