<svg width="24" height="24" viewBox="0 0 24 24" fill="none" xmlns="http://www.w3.org/2000/svg">
<path fill-rule="evenodd" clip-rule="evenodd" d="M21.0451 3.9923C20.5353 3.4993 19.807 3.25 18.8855 3.25H12.7454C11.8239 3.25 11.0984 3.4993 10.5858 3.9923C10.0535 4.5049 9.78464 5.25 9.78464 6.21078V17.771C9.78464 18.729 10.0535 19.4769 10.5858 19.9895C11.0956 20.4825 11.8239 20.7318 12.7454 20.7318H18.8883C19.8098 20.7318 20.5353 20.4825 21.0479 19.9895C21.5801 19.4769 21.8491 18.7318 21.8491 17.771V6.21078C21.8463 5.2528 21.5773 4.5077 21.0451 3.9923ZM4.51854 10.1043C4.79025 10.1043 5.00874 9.88584 5.00874 9.61414V8.97548C5.00874 7.60854 5.64459 6.97268 7.01154 6.97268H7.07596C6.98072 7.05392 6.88269 7.13795 6.79025 7.21918C6.58297 7.39285 6.55496 7.70097 6.72862 7.91106C6.90229 8.11834 7.21042 8.14635 7.4205 7.97268L7.4289 7.96428C7.56616 7.84663 8.25523 7.2528 8.38408 7.12675C8.78464 6.72619 8.78184 6.22479 8.37848 5.82142C8.12918 5.57213 7.45691 4.9979 7.4289 4.97549C7.22162 4.79902 6.9135 4.82423 6.73703 5.03151C6.56056 5.23879 6.58577 5.54692 6.79305 5.72339C6.86308 5.78221 6.98072 5.88305 7.10958 5.9979H7.01434C6.08157 5.9979 5.34767 6.25 4.83507 6.74299C4.30006 7.2584 4.03115 8.0119 4.03115 8.98108V9.61974C4.02835 9.88584 4.24684 10.1043 4.51854 10.1043ZM15.8014 18.6561C16.0003 18.6561 16.1628 18.6029 16.2748 18.4909C16.3757 18.3872 16.4345 18.2332 16.4345 18.0287C16.4345 17.6001 16.1852 17.4012 15.8014 17.4012C15.4177 17.4012 15.1684 17.6001 15.1684 18.0287C15.1684 18.236 15.2272 18.3872 15.3281 18.4909C15.4401 18.6029 15.6026 18.6561 15.8014 18.6561ZM6.94991 11.1744H3.93031C2.82107 11.1744 2.16 11.8354 2.16 12.9447V18.9363C2.16 20.0455 2.82107 20.7066 3.93031 20.7066H6.94991C8.05915 20.7066 8.72022 20.0455 8.72022 18.9363V12.9447C8.71742 11.8354 8.05635 11.1744 6.94991 11.1744ZM5.55496 18.9503C5.6754 18.9503 5.77064 18.9194 5.83787 18.8522C5.89669 18.7906 5.93311 18.6982 5.93031 18.5777C5.93031 18.3228 5.77905 18.2052 5.55216 18.2052C5.32527 18.2052 5.17681 18.3228 5.17681 18.5777C5.17681 18.6982 5.21042 18.7906 5.27204 18.8522C5.33927 18.9166 5.43451 18.9503 5.55496 18.9503Z" fill="#313235"/>
</svg>
