<svg width="24" height="24" viewBox="0 0 24 24" fill="none" xmlns="http://www.w3.org/2000/svg">
<path fill-rule="evenodd" clip-rule="evenodd" d="M10.7137 2.75494C10.7137 2.42161 10.4476 2.1527 10.1199 2.1527C9.79214 2.1527 9.52604 2.42161 9.52324 2.75494L9.51763 7.28715H8.59607V2.75214C8.59607 2.41881 8.32996 2.1499 8.00223 2.1499C7.6745 2.1499 7.40839 2.42161 7.40839 2.75214V7.28715H6.58767V2.75214C6.58767 2.41881 6.32156 2.16951 5.99383 2.16951C5.6661 2.16951 5.39999 2.45803 5.39999 2.78856V10.1471C5.39999 10.7605 5.75854 11.2199 6.23473 11.2199L6.62128 11.2171C6.20391 14.1891 5.60448 19.2059 5.59327 19.3263C5.59327 21.1527 6.87618 21.8221 7.96582 21.8361H8.1647C9.26273 21.8165 10.54 21.1499 10.5372 19.2787C10.5368 19.2753 10.5338 19.2462 10.5285 19.1938C10.4646 18.5668 10.0601 14.5989 9.57926 11.2227H9.87898C10.3552 11.2227 10.7137 10.7633 10.7137 10.1499V2.75494ZM18.5257 19.32C18.5142 19.2042 18.2426 16.4659 17.8762 13.5813C17.9854 13.472 18.0498 13.3236 18.047 13.1583V2.77455C18.047 2.44122 17.7809 2.17231 17.4532 2.17231C15.3243 2.17231 13.5905 3.92581 13.5905 6.08267V13.1583C13.5905 13.4916 13.8566 13.7605 14.1843 13.7605H14.3692C14.0218 16.416 13.6801 19.3067 13.6745 19.374C13.6745 21.1695 14.9322 21.8221 16.0106 21.8361H16.1983C17.2739 21.8137 18.5288 21.1583 18.526 19.3235L18.5257 19.32Z" fill="#313235"/>
</svg>
