<svg width="24" height="24" viewBox="0 0 24 24" fill="none" xmlns="http://www.w3.org/2000/svg">
<path fill-rule="evenodd" clip-rule="evenodd" d="M10.4588 2.57618C10.4588 2.34929 10.274 2.16721 10.0499 2.16721C9.82299 2.17002 9.64092 2.35209 9.64652 2.57618V7.40531H8.28518V2.53976C8.27397 2.31567 8.0835 2.1392 7.85941 2.15041C7.63532 2.16161 7.45885 2.35209 7.47005 2.57618V7.40251H6.21515V2.57618C6.21795 2.35489 6.04428 2.17282 5.82299 2.16441H5.81459C5.5961 2.15601 5.41123 2.32968 5.40283 2.54817C5.40002 2.56497 5.40002 2.57338 5.40002 10.1168C5.40002 10.6238 5.68294 11.0076 6.05549 11.0076H6.68854C6.25717 13.9963 5.61011 19.3745 5.5989 19.4781C5.5989 21.1924 6.81179 21.8171 7.8482 21.8339H8.03868C9.07509 21.8143 10.2852 21.1896 10.2824 19.4501L10.2761 19.3898C10.2188 18.8322 9.77774 14.5441 9.26277 11.0076H9.80619C10.1759 11.0076 10.4588 10.6238 10.4588 10.1168V2.57618ZM9.64092 10.1196C9.64092 10.1448 9.64092 10.17 9.63532 10.1924H8.77818C8.74176 10.1924 8.70535 10.198 8.67173 10.2064C8.45605 10.2653 8.33 10.4893 8.38882 10.705C8.91573 14.1939 9.3749 18.6286 9.45283 19.3813L9.45284 19.3813L9.45284 19.3814C9.46025 19.4529 9.46421 19.4912 9.46445 19.4921C9.46445 20.7975 8.55969 21.0075 8.01907 21.0188H7.85381C7.31319 21.0104 6.40843 20.8003 6.40563 19.5286L6.42679 19.3554C6.54916 18.3506 7.17203 13.2357 7.55689 10.6658C7.5905 10.4473 7.44204 10.2428 7.22635 10.2036C7.20114 10.198 7.14232 10.1896 7.11711 10.1896H6.21515C6.21235 10.1672 6.20955 10.142 6.20955 10.1168V8.22044H9.64092V10.1196ZM16.2936 21.0188C16.8174 21.0075 17.6941 20.8031 17.6941 19.5398C17.6937 19.5398 17.6854 19.4609 17.6701 19.3158L17.67 19.3153C17.589 18.5472 17.3125 15.9254 16.9687 13.2877C16.9602 13.2569 16.9574 13.2232 16.9574 13.1896V13.1728C16.9574 13.0076 17.0555 12.8647 17.1983 12.7975V3.03556C15.7362 3.24284 14.6465 4.49495 14.6465 5.97394V12.7807H15.1227C15.3468 12.7807 15.5317 12.9655 15.5317 13.1896C15.5317 13.198 15.531 13.2148 15.5303 13.2316L15.5303 13.2318C15.5296 13.2485 15.5289 13.2653 15.5289 13.2737C15.1479 16.1364 14.7334 19.5734 14.7334 19.5762C14.7362 20.8087 15.6129 21.0132 16.1339 21.0188H16.2936ZM18.5065 19.5005C18.5037 19.4697 18.2123 16.5678 17.823 13.537C17.9434 13.4613 18.0135 13.3297 18.0135 13.1924V2.60139C18.0135 2.3745 17.8314 2.19242 17.6073 2.19242C15.5205 2.19523 13.8314 3.8871 13.8314 5.97394V13.1896C13.8314 13.4165 14.0135 13.5986 14.2376 13.5986H14.6577C14.2936 16.3689 13.9182 19.4809 13.9154 19.5286C13.9154 21.212 15.1031 21.8227 16.1199 21.8367H16.3076C17.3216 21.8171 18.5093 21.2064 18.5065 19.5005Z" fill="#313235"/>
</svg>
