<svg width="24" height="24" viewBox="0 0 24 24" fill="none" xmlns="http://www.w3.org/2000/svg">
<path fill-rule="evenodd" clip-rule="evenodd" d="M10.7109 2.75494C10.7109 2.42161 10.4448 2.1527 10.1171 2.1527C9.78937 2.1527 9.52327 2.42161 9.52327 2.75494L9.51767 7.28715H8.5961V2.75214C8.5961 2.41881 8.32999 2.1499 8.00226 2.1499C7.67453 2.1499 7.40842 2.42161 7.40842 2.75214V7.28715H6.5877V2.75214C6.5877 2.42161 6.32159 2.16951 5.99386 2.16951C5.66613 2.16951 5.40002 2.46083 5.40002 2.79136V10.1499C5.40002 10.7633 5.75857 11.2227 6.23476 11.2227L6.62131 11.2199C6.20394 14.1891 5.60451 19.2059 5.5933 19.3263C5.5933 21.1527 6.87621 21.8221 7.96585 21.8361H8.16473C9.25996 21.8165 10.5401 21.1499 10.5373 19.2787L10.5285 19.1938C10.4646 18.5668 10.0601 14.5989 9.57929 11.2227H9.87901C10.3524 11.2227 10.7109 10.7633 10.7109 10.1499V2.75494ZM8.32999 10.4272C8.29078 10.5364 8.28798 10.6513 8.31319 10.7577C8.77642 13.8764 9.18885 17.7708 9.31545 18.9663L9.31546 18.9663L9.31547 18.9665C9.34043 19.2022 9.35428 19.3329 9.3552 19.332C9.3552 20.3852 8.69694 20.6177 8.14792 20.6289H7.99386C7.44204 20.6205 6.78378 20.388 6.78097 19.3936C6.78195 19.3867 6.7922 19.3021 6.81021 19.1535C6.9474 18.0211 7.53464 13.1738 7.89862 10.7101C7.94624 10.3908 7.69974 10.0827 7.38321 10.0238C7.3468 10.0182 7.31039 10.0154 7.27677 10.0154H6.5905V8.48603H9.51767V10.0182H8.88741C8.63251 10.0182 8.41122 10.1835 8.32999 10.4272ZM16.1759 20.6345C16.7053 20.6233 17.3412 20.3992 17.3412 19.3824C17.3407 19.3824 17.3325 19.3032 17.3172 19.1576L17.3172 19.1571C17.2381 18.4006 16.972 15.8542 16.6409 13.2899C16.6325 13.2479 16.6269 13.2031 16.6269 13.1583V13.1387C16.6269 12.9426 16.7193 12.7689 16.8622 12.6597V3.44122C15.6717 3.71573 14.781 4.79416 14.781 6.08267V12.5561H15.0443C15.372 12.5561 15.6381 12.825 15.6381 13.1583C15.6381 13.1835 15.6353 13.2423 15.6325 13.2703C15.26 16.0743 14.8594 19.4468 14.8594 19.4468C14.865 20.4048 15.498 20.6289 16.0275 20.6345H16.1759ZM18.5232 19.3227C18.5169 19.2596 18.2408 16.4951 17.8734 13.5813C17.9798 13.472 18.0471 13.3236 18.0471 13.1583V2.77455C18.0471 2.44122 17.781 2.17231 17.4532 2.17231C15.3244 2.17231 13.5905 3.92581 13.5905 6.08267V13.1583C13.5905 13.4916 13.8566 13.7605 14.1843 13.7605H14.3692C14.0219 16.4188 13.6773 19.3067 13.6745 19.374C13.6745 21.1695 14.9322 21.8221 16.0079 21.8361H16.1955C17.2712 21.8137 18.5261 21.1583 18.5233 19.3235L18.5232 19.3227Z" fill="#313235"/>
</svg>
