<svg width="24" height="24" viewBox="0 0 24 24" fill="none" xmlns="http://www.w3.org/2000/svg">
<path fill-rule="evenodd" clip-rule="evenodd" d="M4.76347 19.4244C6.43573 21.035 8.8699 21.853 11.9987 21.853C15.1276 21.853 17.5618 21.0378 19.2368 19.4272C20.9735 17.7549 21.8531 15.2563 21.8531 12.0042C21.8531 8.74933 20.9735 6.25354 19.2368 4.57847C17.5618 2.96783 15.1276 2.1499 11.9987 2.1499C8.8699 2.1499 6.43573 2.96783 4.76347 4.57567C3.02958 6.25074 2.15002 8.74933 2.15002 12.0014C2.15002 15.2563 3.02958 17.7521 4.76347 19.4244ZM3.23966 12.0042C3.23966 6.18911 6.18643 3.23954 11.9987 3.23954C17.8139 3.23954 20.7606 6.18911 20.7634 12.0042C20.7634 17.8165 17.8139 20.7633 11.9987 20.7633C6.18643 20.7633 3.23966 17.8165 3.23966 12.0042ZM10.727 15.1583C10.8139 15.2115 10.9147 15.2367 11.0128 15.2367C11.108 15.2367 11.2032 15.2143 11.2901 15.1639C11.4637 15.063 11.573 14.8782 11.573 14.6765V12.0827C11.6113 12.1262 11.6566 12.1642 11.7074 12.1947L16.6962 15.1639C16.7831 15.2171 16.8839 15.2423 16.9819 15.2423C17.0772 15.2423 17.1724 15.2171 17.2592 15.1695C17.4329 15.0687 17.5422 14.8838 17.5422 14.6821V8.71572C17.5422 8.51404 17.4329 8.32636 17.2564 8.22832C17.0828 8.13029 16.8671 8.13309 16.6934 8.23673L11.7046 11.2339C11.6547 11.2639 11.6105 11.3012 11.573 11.3441V8.71012C11.573 8.50844 11.4637 8.32076 11.2873 8.22272C11.1136 8.12468 10.8979 8.12748 10.7242 8.23113L5.73545 11.2283C5.56739 11.3292 5.46375 11.514 5.46375 11.7101C5.46375 11.9062 5.57019 12.0883 5.73825 12.1891L10.727 15.1583ZM10.4525 13.6933L7.1164 11.7045L10.4525 9.70171V13.6933ZM13.0828 11.7101L16.4217 13.6961V9.70451L13.0828 11.7101Z" fill="#313235"/>
</svg>
