<svg width="24" height="24" viewBox="0 0 24 24" fill="none" xmlns="http://www.w3.org/2000/svg">
<path fill-rule="evenodd" clip-rule="evenodd" d="M2.15002 11.9902C2.15002 18.4272 5.55339 21.8278 11.9876 21.8278C18.4273 21.8278 21.8307 18.4244 21.8279 11.9902C21.8279 8.72973 20.9511 6.23113 19.2257 4.56727C17.5618 2.96223 15.1276 2.1499 11.9876 2.1499C5.55058 2.1499 2.15002 5.55326 2.15002 11.9902ZM2.71025 11.9902C2.71025 5.83338 5.8335 2.71013 11.9876 2.71013C18.1472 2.71013 21.2705 5.83057 21.2677 11.9902C21.2677 18.1471 18.1472 21.2675 11.9876 21.2675C5.8307 21.2675 2.71025 18.1443 2.71025 11.9902ZM10.9736 15.2059C11.0184 15.2311 11.066 15.2451 11.1164 15.2451C11.164 15.2451 11.2116 15.2311 11.2509 15.2059C11.3405 15.1555 11.3937 15.0631 11.3937 14.9622V11.8276C11.4176 11.8698 11.4521 11.906 11.4946 11.9314L17.0016 15.2087C17.0464 15.2339 17.094 15.2479 17.1444 15.2479C17.192 15.2479 17.2397 15.2367 17.2817 15.2115C17.3713 15.1611 17.4245 15.0687 17.4245 14.9678V8.3824C17.4245 8.28156 17.3685 8.18912 17.2817 8.1387C17.192 8.08828 17.0856 8.08828 16.9988 8.1415L11.4918 11.4496C11.4502 11.4746 11.4168 11.5098 11.3937 11.551V8.37679C11.3937 8.27595 11.3377 8.18352 11.2509 8.1331C11.1612 8.08268 11.0548 8.08268 10.968 8.1359L5.46095 11.444C5.37692 11.4944 5.32649 11.5869 5.32649 11.6849C5.32649 11.783 5.37972 11.8754 5.46375 11.9258L10.9736 15.2059ZM10.8335 14.472L6.15283 11.6849L10.8335 8.87259V14.472ZM12.1836 11.6905L16.8643 14.4776V8.87819L12.1836 11.6905Z" fill="#313235"/>
</svg>
