<svg width="24" height="24" viewBox="0 0 24 24" fill="none" xmlns="http://www.w3.org/2000/svg">
<path fill-rule="evenodd" clip-rule="evenodd" d="M11.9987 2.1499C15.1304 2.1499 17.5646 2.96783 19.2368 4.57847C20.9735 6.25354 21.8531 8.75213 21.8531 12.0042C21.8531 15.2563 20.9735 17.7549 19.2368 19.4272C17.5646 21.0378 15.1276 21.8558 11.9987 21.8558C8.8699 21.8558 6.43573 21.0378 4.76347 19.4272C3.02958 17.7549 2.15002 15.2591 2.15002 12.0042C2.15002 8.74933 3.02957 6.25354 4.76627 4.57847C6.43573 2.96783 8.8671 2.1499 11.9987 2.1499ZM17.0408 15.2423C17.3517 15.2423 17.601 14.9902 17.601 14.6821V8.71572C17.601 8.61488 17.573 8.51404 17.5197 8.4272C17.3629 8.1639 17.0183 8.07706 16.7522 8.23673L11.7635 11.2339C11.6738 11.2899 11.5982 11.3684 11.5506 11.4664V8.71012C11.5506 8.60928 11.5226 8.50844 11.4693 8.4216C11.3125 8.1583 10.9679 8.07146 10.7018 8.23113L5.71304 11.2283C5.63461 11.2759 5.56739 11.3432 5.51977 11.4216C5.3629 11.6877 5.44974 12.0322 5.71585 12.1891L10.7046 15.1583C10.7915 15.2087 10.8895 15.2367 10.9903 15.2367C11.3013 15.2367 11.5506 14.9846 11.5506 14.6765V11.9594C11.5982 12.0575 11.6738 12.1387 11.7663 12.1947L16.755 15.1639C16.8419 15.2143 16.9399 15.2423 17.0408 15.2423Z" fill="#313235"/>
</svg>
