<svg width="24" height="24" viewBox="0 0 24 24" fill="none" xmlns="http://www.w3.org/2000/svg">
<path fill-rule="evenodd" clip-rule="evenodd" d="M21.8363 11.9958C21.8363 5.55606 18.4301 2.1499 11.9903 2.1499C5.55338 2.1499 2.15002 5.55606 2.15002 11.9958C2.15002 18.4328 5.55338 21.8361 11.9903 21.8361C18.4301 21.8361 21.8363 18.4328 21.8363 11.9958ZM13.2088 6.14149C13.4413 6.02945 13.713 6.06306 13.9119 6.22553L17.0352 9.25073C17.1668 9.37118 17.2452 9.54205 17.2424 9.72132C17.2396 9.9118 17.1556 10.0911 17.0099 10.2143L13.9427 13.1835C13.7102 13.374 13.4413 13.4048 13.2088 13.2955C12.9847 13.1891 12.8391 12.9622 12.8391 12.7129V11.7017H11.9707V17.1499C11.9707 17.374 11.7887 17.5588 11.5618 17.5588H8.601C8.37691 17.5588 8.19203 17.3768 8.19203 17.1499V8.70451C8.18923 8.44961 8.29007 8.20311 8.47214 8.02384C8.65422 7.84457 8.89511 7.74373 9.15282 7.74373H12.8363V6.72413C12.8363 6.47202 12.9819 6.24513 13.2088 6.14149Z" fill="#313235"/>
</svg>
