<svg width="24" height="24" viewBox="0 0 24 24" fill="none" xmlns="http://www.w3.org/2000/svg">
<path fill-rule="evenodd" clip-rule="evenodd" d="M21.8363 11.9958C21.8363 5.55607 18.4329 2.1499 11.9904 2.1499C5.55339 2.1499 2.15002 5.55607 2.15002 11.9958C2.15002 18.4328 5.55339 21.8362 11.9904 21.8362C18.4329 21.8362 21.8363 18.4328 21.8363 11.9958ZM21.0128 11.9958C21.0128 17.9818 17.9792 21.0154 11.9904 21.0154C6.00717 21.0154 2.97075 17.9818 2.97075 11.9958C2.97075 6.00985 6.00437 2.97343 11.9904 2.97343C17.9764 2.97343 21.0128 6.00705 21.0128 11.9958ZM13.7579 12.4944L16.4469 9.895L13.7579 7.28716V8.27035C13.7579 8.49724 13.5114 8.73254 13.2873 8.73254H9.24806C9.21165 8.73254 9.17523 8.74654 9.14722 8.77455C9.11921 8.79976 9.10521 8.83618 9.10521 8.87539V16.923H11.2425V11.4664C11.2425 11.2395 11.4273 11.0575 11.6514 11.0575H13.2817C13.4021 11.0659 13.517 11.1191 13.601 11.2031C13.6794 11.2816 13.7523 11.4104 13.7523 11.5196C13.7579 11.5196 13.7579 12.4944 13.7579 12.4944ZM17.136 9.42161L14.0128 6.3936C13.8111 6.23113 13.5394 6.19752 13.3097 6.30957C13.08 6.41881 12.9371 6.6401 12.9371 6.8922V7.91181L9.24806 7.90901C8.99036 7.90901 8.74946 8.00985 8.56739 8.19192C8.38532 8.37399 8.28448 8.61489 8.28448 8.87259V17.332C8.28448 17.5561 8.46655 17.7409 8.69344 17.7409H11.657C11.8811 17.7409 12.066 17.5589 12.066 17.332V11.8782H12.9343V12.8894C12.9343 13.1415 13.0828 13.3684 13.3097 13.4748C13.5394 13.5813 13.8083 13.5505 14.0408 13.36L17.1136 10.3852C17.136 10.3684 17.1556 10.3488 17.1724 10.3292C17.4133 10.0687 17.3965 9.66251 17.136 9.42161Z" fill="#313235"/>
</svg>
