<svg width="24" height="24" viewBox="0 0 24 24" fill="none" xmlns="http://www.w3.org/2000/svg">
<path fill-rule="evenodd" clip-rule="evenodd" d="M21.8363 11.9958C21.8363 5.55326 18.4301 2.1499 11.9903 2.1499C5.55338 2.1499 2.15002 5.55326 2.15002 11.9958C2.15002 18.4328 5.55338 21.8361 11.9903 21.8361C18.4329 21.8361 21.8363 18.4328 21.8363 11.9958ZM20.629 11.9958C20.629 17.7241 17.7214 20.6289 11.9903 20.6289C6.26206 20.6289 3.35731 17.7241 3.35731 11.9958C3.35731 6.26474 6.26206 3.35718 11.9903 3.35718C17.7242 3.35718 20.629 6.26474 20.629 11.9958ZM13.9231 12.0098L16.066 9.93701L13.9231 7.86138V8.34877C13.9231 8.68211 13.5926 9.00423 13.2593 9.00423H9.3657V16.6233H11.0576V11.4776C11.0576 11.1443 11.3293 10.8754 11.6598 10.8754H13.2565C13.4161 10.8754 13.601 10.965 13.713 11.0771C13.8279 11.1891 13.9203 11.3684 13.9203 11.528V12.0098H13.9231ZM17.1752 9.32916L14.0968 6.34878C13.8391 6.14149 13.4945 6.09948 13.2004 6.24233C12.9035 6.38239 12.7186 6.6709 12.7186 6.99583V7.78855H9.30688C9.00156 7.78855 8.71304 7.9062 8.50016 8.12188C8.28447 8.33757 8.16402 8.62608 8.16402 8.93421V17.2199C8.16402 17.5532 8.43293 17.8221 8.76626 17.8221H11.6654C11.9959 17.8221 12.2677 17.5532 12.2677 17.2199V12.0771H12.7186V12.867C12.7186 13.1919 12.9007 13.4804 13.1948 13.6205C13.4917 13.7633 13.8475 13.7185 14.052 13.5476C14.0744 13.5336 14.0996 13.5168 14.1192 13.4972C14.1234 13.493 14.1276 13.4895 14.1318 13.486C14.136 13.4825 14.1402 13.479 14.1444 13.4748L17.1472 10.5701C17.3349 10.4132 17.4413 10.1807 17.4413 9.93701C17.4413 9.69331 17.3321 9.46082 17.1752 9.32916Z" fill="#313235"/>
</svg>
