<svg width="24" height="24" viewBox="0 0 24 24" fill="none" xmlns="http://www.w3.org/2000/svg">
<path fill-rule="evenodd" clip-rule="evenodd" d="M18.7047 2.1499C20.671 2.1555 21.8419 3.33478 21.8363 5.30677C21.8307 7.31237 19.3321 10.3068 18.9792 10.6625C18.8167 10.825 18.5562 10.825 18.3937 10.6625C18.0408 10.3068 15.5506 7.30957 15.559 5.28996C15.5618 4.32357 15.8531 3.52525 16.3993 2.97903C16.94 2.43842 17.7355 2.1499 18.6879 2.1499H18.7047ZM21.0072 5.30677C21.0016 6.60368 19.4778 8.80536 18.6851 9.74934C17.8951 8.80256 16.3797 6.60088 16.3825 5.29276C16.3853 4.54206 16.5842 3.96503 16.9792 3.57007C17.3713 3.18071 17.9456 2.98184 18.6879 2.98184H18.7019C20.2145 2.98744 21.01 3.79136 21.0072 5.30677ZM6.68505 9.25354C9.51418 9.26195 11.2005 10.9622 11.1921 13.7998C11.1837 16.7409 7.47777 21.1863 6.94836 21.7157C6.78869 21.8782 6.52539 21.8782 6.36292 21.7185L6.36012 21.7157C5.50298 20.853 2.14444 16.514 2.15004 13.7718C2.15284 12.374 2.57301 11.2227 3.35452 10.4412C4.13603 9.66251 5.27889 9.25074 6.66264 9.25074L6.68505 9.25354ZM6.65424 20.8054C7.70746 19.5841 10.3545 16.0042 10.3629 13.7942C10.3685 12.6093 10.0492 11.6821 9.41895 11.0463C8.78869 10.4104 7.86713 10.0855 6.68225 10.0827H6.66264C5.48897 10.0827 4.57301 10.3992 3.94276 11.0295C3.3097 11.6597 2.98477 12.5841 2.98197 13.7718C2.97357 15.8838 5.50298 19.4776 6.65424 20.8054ZM7.5534 13.5225C7.5534 14.1163 7.26488 14.4076 6.67105 14.4076C6.07721 14.4076 5.78869 14.1163 5.78869 13.5225C5.78869 12.9286 6.07721 12.6373 6.67105 12.6373C7.26488 12.6373 7.5534 12.9258 7.5534 13.5225ZM6.67105 11.8054C7.72707 11.8054 8.38253 12.4636 8.38253 13.5225C8.38253 14.5813 7.72707 15.2395 6.67105 15.2395C5.61502 15.2395 4.95956 14.5813 4.95956 13.5225C4.95956 12.4636 5.61502 11.8054 6.67105 11.8054ZM19.1444 5.12469C19.1444 5.44402 19.0128 5.57287 18.6963 5.57287C18.3769 5.57287 18.2481 5.44402 18.2481 5.12469C18.2481 4.80536 18.3797 4.67651 18.6963 4.67651C19.0156 4.67651 19.1444 4.80536 19.1444 5.12469ZM18.6963 3.84458C19.4722 3.84458 19.9736 4.34598 19.9736 5.12469C19.9736 5.9034 19.4722 6.4048 18.6963 6.4048C17.9203 6.4048 17.4189 5.9034 17.4189 5.12469C17.4189 4.34598 17.9203 3.84458 18.6963 3.84458ZM14.4386 11.1807C14.4386 11.4104 14.6234 11.5953 14.8531 11.5981C14.8979 11.5981 14.9428 11.5925 14.9848 11.5785C15.2397 11.4916 15.4946 11.416 15.7383 11.3516C15.9484 11.29 16.0716 11.0743 16.024 10.8614C15.9708 10.6373 15.7495 10.4972 15.5254 10.5477C15.2621 10.6177 14.9932 10.6961 14.7215 10.7886C14.5534 10.8474 14.4386 11.0042 14.4386 11.1807ZM15.7775 19.3572C15.982 19.2507 16.2313 19.332 16.3377 19.5337C16.4442 19.7381 16.3629 19.9874 16.1612 20.0939C16.1584 20.0953 16.1549 20.0967 16.1514 20.0981C16.1479 20.0995 16.1444 20.1009 16.1416 20.1023C15.8951 20.2227 15.6318 20.3348 15.3573 20.4356C15.1444 20.5168 14.9035 20.4076 14.8251 20.1919C14.7439 19.9762 14.8531 19.7381 15.066 19.6569C15.3153 19.5673 15.5534 19.4664 15.7775 19.3572ZM17.1108 16.9566C17.1865 17.0295 17.2873 17.0687 17.3937 17.0687C17.5058 17.0687 17.615 17.0211 17.6963 16.9398C17.8531 16.7718 17.8475 16.5084 17.6795 16.3516C17.4834 16.1667 17.2341 15.9958 16.9175 15.8306C16.7131 15.7241 16.4638 15.8026 16.3573 16.007C16.2509 16.2115 16.3293 16.4608 16.5338 16.5673C16.7439 16.6709 16.9372 16.7998 17.1108 16.9566ZM17.2257 11.0407C16.996 11.0379 16.8139 10.8474 16.8167 10.6177C16.8195 10.416 16.968 10.2451 17.1696 10.2115C17.3349 10.1891 17.4442 10.1751 17.475 10.1751C17.7019 10.1611 17.8979 10.332 17.9119 10.5589V10.5673C17.9259 10.797 17.7523 10.993 17.5226 11.007C17.4442 11.0154 17.3629 11.0267 17.2845 11.0379C17.2649 11.0407 17.2453 11.0407 17.2257 11.0407ZM18.1052 18.276C18.1865 18.0603 18.08 17.8222 17.8643 17.7409C17.8615 17.7409 17.8587 17.7409 17.8531 17.7381C17.6402 17.6625 17.4077 17.7718 17.3293 17.9846C17.2593 18.1695 17.1416 18.3516 16.982 18.5253C16.9708 18.5365 16.9596 18.5477 16.9512 18.5589C16.8055 18.7353 16.8279 18.9958 17.0044 19.1443C17.1809 19.29 17.4414 19.2675 17.5898 19.0911C17.8111 18.8558 17.9876 18.5785 18.1052 18.276ZM15.2201 15.9958C15.1724 15.9958 15.1248 15.9874 15.08 15.9706L14.9266 15.9148L14.9265 15.9147C14.7174 15.8387 14.5095 15.7631 14.3069 15.6821C14.0968 15.5869 14.0016 15.3404 14.0968 15.1303C14.1837 14.9342 14.4077 14.8362 14.6094 14.9062C14.8559 15.0042 15.108 15.0967 15.3629 15.1863C15.5926 15.1835 15.7803 15.3684 15.7831 15.5981C15.7859 15.8278 15.601 16.0154 15.3713 16.0183C15.3181 16.0239 15.2677 16.0154 15.2201 15.9958ZM11.6682 20.923C11.6346 20.6989 11.4245 20.5449 11.2005 20.5813C10.9387 20.6213 10.6846 20.6538 10.4333 20.6858L10.3965 20.6905H10.3937C10.1696 20.7185 10.01 20.9258 10.038 21.1527C10.0688 21.3796 10.2733 21.5421 10.5002 21.514C10.7635 21.4832 11.038 21.444 11.3181 21.402H11.3209C11.5478 21.3684 11.7019 21.1583 11.6682 20.9314V20.923ZM13.5562 20.1247C13.7803 20.0687 14.0044 20.2059 14.0604 20.4272C14.1164 20.6513 13.9792 20.8754 13.7579 20.9314C13.4918 20.9986 13.2201 21.0603 12.9484 21.1163C12.7243 21.1639 12.503 21.0182 12.4582 20.7942C12.4105 20.5701 12.5562 20.3488 12.7803 20.304C13.038 20.2479 13.2985 20.1891 13.5562 20.1247ZM12.3517 12.388C12.3517 12.6177 12.5366 12.8054 12.7663 12.8082C12.8895 12.8082 13.0072 12.7549 13.0828 12.6597C13.2341 12.486 13.4105 12.3348 13.6066 12.2115C13.7803 12.0855 13.8279 11.8502 13.7215 11.6653C13.6066 11.4692 13.3517 11.402 13.1528 11.5168C12.8615 11.7073 12.6262 11.9118 12.447 12.1247C12.3853 12.1975 12.3517 12.2928 12.3517 12.388ZM8.8027 20.8502C9.02959 20.8306 9.22847 21.0014 9.24808 21.2283V21.2311C9.26769 21.458 9.09682 21.6597 8.86993 21.6765H8.86713C8.61502 21.6961 8.36292 21.7129 8.11082 21.7269H8.08561C7.86993 21.7269 7.65704 21.5617 7.64023 21.346C7.62063 21.1191 7.74948 20.9258 7.97357 20.9006L8.0632 20.895C8.17805 20.8922 8.43855 20.8782 8.8027 20.8502ZM12.7663 14.853C12.8419 14.9146 12.9344 14.9482 13.0296 14.9482C13.1556 14.9482 13.2733 14.8922 13.3489 14.7914C13.4946 14.6149 13.4666 14.3544 13.2901 14.2087C13.108 14.0575 12.9792 13.9006 12.9035 13.7325C12.8083 13.5365 12.5758 13.4496 12.3741 13.5337C12.164 13.6233 12.0632 13.8642 12.15 14.0771C12.2929 14.3796 12.503 14.6457 12.7663 14.853Z" fill="#313235"/>
</svg>
