<svg width="24" height="24" viewBox="0 0 24 24" fill="none" xmlns="http://www.w3.org/2000/svg">
<path fill-rule="evenodd" clip-rule="evenodd" d="M18.5674 2.1499C20.5898 2.1555 21.8447 3.41881 21.8363 5.44962C21.8307 7.50564 19.3517 10.4608 18.9764 10.8362C18.7411 11.0743 18.3545 11.0743 18.1192 10.839L18.1164 10.8362C18.0688 10.7885 18.024 10.7381 17.982 10.6849C17.9568 10.979 17.7187 11.2115 17.4217 11.2311C17.3965 11.2339 17.3209 11.2423 17.2089 11.2591C16.8755 11.3068 16.5674 11.0743 16.5198 10.7437C16.4722 10.4104 16.7019 10.1023 17.0352 10.0519C17.1416 10.035 17.2453 10.0238 17.3517 10.0126C17.3703 10.0111 17.3871 10.0147 17.4037 10.0182C17.4171 10.021 17.4303 10.0238 17.4441 10.0238C16.5898 8.9118 15.2761 6.9174 15.2789 5.42721C15.2817 4.42721 15.587 3.59528 16.164 3.02105C16.7355 2.44962 17.5618 2.1499 18.5562 2.1499H18.5674ZM20.6178 5.44682C20.615 6.58407 19.3349 8.49443 18.5506 9.47202C17.7859 8.50564 16.4918 6.57287 16.4974 5.43281C16.4974 4.75214 16.6738 4.23393 17.0212 3.8894C17.3657 3.54766 17.8811 3.37399 18.5534 3.37399H18.5646C19.9315 3.37959 20.6234 4.07427 20.6178 5.44682ZM6.7803 11.6037C7.92315 11.6037 8.65985 12.3432 8.65985 13.4888C8.65985 14.6345 7.92035 15.374 6.7803 15.374C5.63744 15.374 4.90075 14.6345 4.90075 13.4888C4.90075 12.3432 5.64024 11.6037 6.7803 11.6037ZM6.7803 14.1555C7.25089 14.1555 7.44136 13.9622 7.44136 13.4916C7.44136 13.0182 7.24809 12.8278 6.7803 12.8278C6.31251 12.8278 6.11924 13.021 6.11924 13.4916C6.11924 13.9622 6.30971 14.1555 6.7803 14.1555ZM18.996 5.26754C18.996 5.58127 18.8671 5.70732 18.5562 5.70732C18.2453 5.70732 18.1192 5.57847 18.1192 5.26754C18.1192 4.95382 18.2453 4.82777 18.5562 4.82777C18.8699 4.82777 18.996 4.95662 18.996 5.26754ZM18.5562 4.01264C19.3153 4.01264 19.8083 4.50564 19.8083 5.26474C19.8083 6.02665 19.3181 6.51684 18.5562 6.51684C17.7971 6.51684 17.3069 6.02385 17.3069 5.26474C17.3069 4.50564 17.7971 4.01264 18.5562 4.01264ZM18.1696 18.2199C18.2873 17.9034 18.1304 17.5532 17.8139 17.4328C17.5002 17.3151 17.15 17.4748 17.0324 17.7885C16.9736 17.9454 16.8727 18.1023 16.7327 18.2535C16.503 18.5 16.517 18.8866 16.7635 19.1163L16.7663 19.1191C17.0128 19.346 17.3965 19.3319 17.6234 19.0855C17.8699 18.8165 18.0548 18.5252 18.1696 18.2199ZM15.6094 19.021C15.9119 18.8726 16.2789 19.0014 16.4245 19.3039C16.573 19.6065 16.4441 19.9734 16.1416 20.1191C15.8951 20.2395 15.6318 20.3516 15.3545 20.4524C15.0436 20.57 14.6935 20.416 14.5758 20.1023C14.5758 20.1009 14.5751 20.0995 14.5744 20.0981C14.5737 20.0967 14.573 20.0953 14.573 20.0939C14.4554 19.7801 14.6122 19.4272 14.9287 19.3095C15.1612 19.2255 15.3881 19.1303 15.6094 19.021ZM13.8671 14.993C13.7327 15.3011 13.8755 15.6625 14.1836 15.7969C14.3731 15.8714 14.569 15.9427 14.7628 16.0132C14.824 16.0355 14.885 16.0577 14.9456 16.0799C15.2621 16.1947 15.6122 16.0294 15.7271 15.7129C15.8419 15.3964 15.6766 15.0462 15.3601 14.9314C15.1136 14.8446 14.8671 14.7549 14.629 14.6597C14.3265 14.556 13.996 14.6989 13.8671 14.993ZM14.7943 11.811C14.4582 11.8082 14.1836 11.5336 14.1865 11.1975C14.1865 10.937 14.3545 10.7073 14.601 10.6233C14.8727 10.5336 15.1416 10.4524 15.4021 10.3852C15.7271 10.2983 16.0632 10.4916 16.1472 10.8194C16.2313 11.1471 16.0408 11.4804 15.7131 11.5645C15.4778 11.6289 15.2313 11.6989 14.9876 11.7829C14.9259 11.7997 14.8615 11.811 14.7943 11.811ZM12.1444 12.3852C12.1416 12.7213 12.4161 12.9958 12.7523 12.9958C12.9316 12.9958 13.1024 12.9174 13.2201 12.7801C13.3321 12.6457 13.4918 12.5112 13.6907 12.3796C13.9736 12.1947 14.052 11.8166 13.8671 11.5336C13.6822 11.2507 13.3041 11.1723 13.0212 11.3572C12.7215 11.5533 12.475 11.7661 12.2873 11.993C12.1949 12.1023 12.1444 12.2423 12.1444 12.3852ZM13.01 15.0911C12.8699 15.0911 12.7327 15.0406 12.6234 14.951C12.3433 14.7269 12.1164 14.444 11.9652 14.1191C11.8279 13.8109 11.9624 13.4496 12.2677 13.3095C12.5758 13.1723 12.9344 13.3095 13.0744 13.6149C13.136 13.7521 13.2425 13.881 13.3993 14.0098C13.6598 14.2255 13.6963 14.6121 13.4806 14.8726C13.3629 15.0098 13.1893 15.0911 13.01 15.0911ZM16.0856 15.8278C15.9315 16.1275 16.0464 16.4972 16.3461 16.6513C16.5338 16.7465 16.7075 16.8614 16.8643 17.0014C16.9764 17.1079 17.1276 17.1667 17.2817 17.1667C17.4498 17.1639 17.6066 17.0967 17.7215 16.9762C17.9568 16.7325 17.9455 16.3432 17.7019 16.1107C17.4946 15.9146 17.2369 15.7381 16.9091 15.5673C16.6094 15.4132 16.2397 15.528 16.0856 15.8278ZM11.1865 20.2031C11.5366 20.1639 11.8307 20.3824 11.8783 20.7157C11.9288 21.049 11.6991 21.36 11.3657 21.4104C11.0856 21.4524 10.8167 21.4888 10.559 21.5196C10.2257 21.5616 9.92315 21.3263 9.88113 20.993V20.9874C9.83912 20.6541 10.0772 20.3488 10.4105 20.3067C10.6598 20.2787 10.9203 20.2423 11.1865 20.2031ZM14.2117 20.1975C14.1304 19.8726 13.7999 19.6765 13.475 19.7577C13.2257 19.8193 12.9736 19.8782 12.7215 19.9314C12.3909 20.0014 12.1781 20.3235 12.2481 20.6541C12.3153 20.9846 12.6374 21.1947 12.968 21.1275C13.2369 21.0714 13.503 21.0098 13.7691 20.9426C14.094 20.8614 14.2929 20.5308 14.2117 20.2031V20.1975ZM6.76629 20.3123C7.93436 18.9202 10.1865 15.6681 10.1921 13.7577C10.1949 12.6513 9.90354 11.7941 9.32371 11.2087C8.74668 10.6261 7.89514 10.3292 6.7887 10.3264H6.7719C4.55341 10.3264 3.37694 11.5056 3.36854 13.7381C3.36294 15.6653 5.60103 18.9202 6.76629 20.3123ZM9.50859 21.0266C9.47497 20.6933 9.18646 20.444 8.85312 20.4636C8.51699 20.4916 8.27329 20.5056 8.15565 20.5112C9.41615 18.8866 11.4021 15.9314 11.4105 13.7605C11.4133 12.3376 10.9932 11.1583 10.1893 10.3488C9.38814 9.53925 8.21447 9.10788 6.7943 9.10507H6.7719C3.88675 9.10507 2.15846 10.8334 2.15005 13.7325C2.14165 16.7129 5.81111 21.1331 6.33212 21.6569L6.33772 21.6625C6.57582 21.8978 6.95957 21.895 7.19486 21.6569C7.26489 21.5897 7.39094 21.4496 7.55061 21.2591C7.62624 21.5392 7.87834 21.7325 8.16685 21.7353C8.18086 21.7353 8.19206 21.7353 8.20327 21.7325C8.24002 21.7299 8.29071 21.7267 8.35423 21.7227C8.49405 21.714 8.69604 21.7013 8.94836 21.6821C9.2845 21.6569 9.5338 21.3628 9.50859 21.0266Z" fill="#313235"/>
</svg>
