<svg width="24" height="24" viewBox="0 0 24 24" fill="none" xmlns="http://www.w3.org/2000/svg">
<path fill-rule="evenodd" clip-rule="evenodd" d="M13.4581 6.74294C13.4334 4.3626 11.9237 2.92523 11.8606 2.86524L11.8587 2.86339C11.6906 2.70933 11.6794 2.45162 11.8307 2.28356C11.982 2.11829 12.2397 2.10428 12.4077 2.25274C12.4834 2.31997 14.2481 3.94182 14.2789 6.71773C14.2845 6.82137 14.3797 9.54686 12.4357 11.2836C12.2677 11.4348 12.0072 11.4208 11.8559 11.2499C11.7046 11.0819 11.7187 10.8214 11.8895 10.6701C13.545 9.19672 13.4609 6.76815 13.4581 6.74294ZM21.8363 17.1883C21.8363 16.2359 21.5842 15.4936 21.0912 14.981C20.5758 14.4488 19.8139 14.1799 18.8195 14.1799H7.86991V6.77095C7.86991 6.54686 7.68504 6.36199 7.46095 6.36199C7.23686 6.36199 7.05199 6.54406 7.05199 6.77095V14.1771H5.16403C4.17243 14.1771 3.41053 14.4488 2.89512 14.981C2.39932 15.4936 2.15002 16.2359 2.15002 17.1883V18.827C2.15002 19.7794 2.39932 20.5217 2.89512 21.0343C3.41053 21.5693 4.17243 21.8382 5.16403 21.8382H18.8223C19.8139 21.8382 20.5758 21.5693 21.0912 21.0343C21.5842 20.5217 21.8363 19.7794 21.8363 18.827V17.1883ZM21.0156 18.827V17.1883C21.0156 16.4544 20.8419 15.9054 20.5002 15.5497C20.1472 15.1827 19.5842 14.9978 18.8251 14.9978H5.16403C4.40493 14.9978 3.8391 15.1827 3.48896 15.5497C3.14722 15.9054 2.97355 16.4544 2.97355 17.1883V18.827C2.97355 19.5609 3.14722 20.1099 3.48896 20.4656C3.8419 20.8326 4.40493 21.0174 5.16403 21.0174H18.8251C19.5842 21.0174 20.1472 20.8326 20.5002 20.4656C20.8419 20.1099 21.0156 19.5609 21.0156 18.827ZM5.5786 18.009C5.5786 17.5553 5.31529 17.3452 4.90913 17.3452C4.50297 17.3452 4.23966 17.5553 4.23966 18.009C4.23966 18.2275 4.29848 18.39 4.40773 18.4992C4.52537 18.6197 4.69904 18.6757 4.90913 18.6757C5.12201 18.6757 5.29288 18.6169 5.41053 18.4992C5.51697 18.3872 5.5786 18.2275 5.5786 18.009ZM8.01557 18.009C8.01557 17.5553 7.75227 17.3452 7.3461 17.3452C6.93994 17.3452 6.67664 17.5553 6.67944 18.009C6.67944 18.2275 6.73826 18.39 6.8475 18.4992C6.96515 18.6197 7.13602 18.6757 7.3489 18.6757C7.55899 18.6757 7.72986 18.6169 7.8475 18.4992C7.95395 18.3872 8.01557 18.2275 8.01557 18.009ZM9.91042 4.42484C9.95013 4.46233 10.8534 5.3152 10.8699 6.77095C10.8699 6.7712 10.8699 6.77191 10.87 6.77306C10.8715 6.83689 10.9054 8.26574 9.92874 9.1379C9.75787 9.28916 9.74386 9.54966 9.89512 9.71773L9.89792 9.72053C10.0492 9.8886 10.3069 9.9026 10.475 9.75134C11.7551 8.60288 11.6934 6.81017 11.6906 6.74854C11.671 4.92781 10.5086 3.86059 10.4581 3.81577C10.2957 3.68972 10.066 3.70092 9.91753 3.84378C9.75507 4.00064 9.75227 4.26115 9.90913 4.42361C9.90928 4.42376 9.90971 4.42417 9.91042 4.42484Z" fill="#313235"/>
</svg>
