<svg width="24" height="24" viewBox="0 0 24 24" fill="none" xmlns="http://www.w3.org/2000/svg">
<path fill-rule="evenodd" clip-rule="evenodd" d="M21.8363 5.44682C21.8419 3.41881 20.5898 2.1555 18.5674 2.1499H18.5478C17.5562 2.1499 16.727 2.44962 16.1556 3.02105C15.5786 3.59528 15.2733 4.42721 15.2705 5.42721C15.2677 6.9174 16.5814 8.909 17.4357 10.0238C17.4219 10.0238 17.4087 10.021 17.3952 10.0182C17.3787 10.0147 17.3618 10.0111 17.3433 10.0126C17.3097 10.0154 17.1976 10.0266 17.0268 10.0519C16.6934 10.0967 16.4637 10.4076 16.5113 10.7409C16.5562 11.0462 16.8167 11.2647 17.1136 11.2647C17.1416 11.2647 17.1724 11.2647 17.2004 11.2591C17.3062 11.2433 17.382 11.2349 17.4114 11.2316L17.4161 11.2311C17.7186 11.2143 17.9455 10.9762 17.9763 10.6849C17.9893 10.6991 18.0018 10.7128 18.0136 10.7258C18.0554 10.7718 18.0896 10.8094 18.1136 10.8334C18.234 10.9538 18.3881 11.0126 18.545 11.0126C18.7018 11.0126 18.8587 10.951 18.9763 10.8334C19.3517 10.458 21.8307 7.50284 21.8363 5.44682ZM18.6094 5.93981C19.1192 5.93981 19.3265 5.72973 19.3265 5.21712C19.3265 4.70452 19.1164 4.49724 18.6094 4.49724C18.0996 4.49724 17.8923 4.70452 17.8923 5.21712C17.8923 5.72973 18.0996 5.93981 18.6094 5.93981ZM9.50856 21.0294C9.48054 20.6933 9.18082 20.4496 8.85309 20.4664C8.62632 20.4834 8.44162 20.4953 8.30931 20.5038L8.30924 20.5038L8.309 20.5039L8.30851 20.5039C8.24508 20.508 8.19373 20.5113 8.15562 20.514C9.41612 18.8894 11.4049 15.9342 11.4105 13.7633C11.4161 12.3404 10.9959 11.1611 10.192 10.3516C9.38811 9.54205 8.21444 9.11068 6.79427 9.10788H6.77186C3.88671 9.10788 2.15843 10.8362 2.15002 13.7353C2.14162 16.7157 5.81108 21.1359 6.33489 21.6597C6.45534 21.7801 6.6094 21.8389 6.76626 21.8389C6.92313 21.8389 7.07999 21.7773 7.19763 21.6597C7.26486 21.5896 7.39091 21.4496 7.55338 21.2591C7.6206 21.5336 7.88111 21.7353 8.16682 21.7353H8.20324C8.23958 21.7327 8.28981 21.7296 8.35263 21.7257L8.3529 21.7257L8.35332 21.7256C8.49384 21.7169 8.69708 21.7042 8.94833 21.6849C9.28167 21.6597 9.53377 21.3656 9.50856 21.0294ZM14.7943 11.811C14.5394 11.811 14.3041 11.6513 14.2172 11.3936C14.1108 11.0743 14.2817 10.7269 14.601 10.6205C14.8699 10.5308 15.1416 10.4496 15.4021 10.3824C15.7298 10.2983 16.0604 10.4888 16.1472 10.8166C16.234 11.1443 16.0408 11.4776 15.7158 11.5645C15.4805 11.6261 15.234 11.6989 14.9903 11.7829C14.9231 11.8025 14.8587 11.811 14.7943 11.811ZM13.8391 15.0042C13.7158 15.318 13.8699 15.6737 14.1836 15.7969C14.4357 15.895 14.6906 15.9902 14.9455 16.0799C15.0127 16.1051 15.0828 16.1163 15.1528 16.1163C15.4021 16.1163 15.6346 15.9622 15.7242 15.7129C15.8391 15.3964 15.6766 15.0462 15.3601 14.9314L15.2147 14.8787C15.0169 14.8073 14.8203 14.7362 14.629 14.6597C14.3181 14.5364 13.9623 14.6905 13.8391 15.0042ZM17.8167 17.4356C18.1304 17.5532 18.2901 17.9062 18.1724 18.2227C18.0576 18.528 17.8727 18.8193 17.6262 19.0883C17.5057 19.2171 17.3433 19.2843 17.1808 19.2843C17.0324 19.2843 16.8839 19.2311 16.7662 19.1191C16.5197 18.8894 16.5057 18.5056 16.7354 18.2563C16.8755 18.1051 16.9763 17.9482 17.0352 17.7913C17.15 17.4776 17.5001 17.3179 17.8167 17.4356ZM15.6094 19.0238C15.9119 18.8754 16.2761 19.0042 16.4245 19.3067C16.5702 19.6093 16.4441 19.9762 16.1416 20.1247C15.8951 20.2451 15.6318 20.3572 15.3573 20.458C15.2873 20.4832 15.2172 20.4972 15.1444 20.4972C14.8979 20.4972 14.6654 20.346 14.573 20.0995C14.4553 19.7857 14.615 19.4328 14.9287 19.3123C15.1696 19.2227 15.3965 19.1275 15.6094 19.0238ZM12.3601 12.8558C12.4749 12.951 12.6122 12.9986 12.7522 12.9986C12.9259 12.9986 13.0968 12.923 13.2172 12.7801C13.3293 12.6457 13.4889 12.5112 13.6878 12.3796C13.9679 12.1947 14.0464 11.8166 13.8615 11.5336C13.6766 11.2535 13.2985 11.1779 13.0184 11.36C12.7186 11.5561 12.4721 11.7689 12.2845 11.9958C12.0688 12.2535 12.1024 12.6401 12.3601 12.8558ZM13.01 15.0911C12.8727 15.0911 12.7354 15.0462 12.6234 14.951C12.3237 14.7045 12.1024 14.4244 11.9651 14.1191C11.8251 13.8109 11.9623 13.4496 12.2677 13.3095C12.5758 13.1723 12.9343 13.3067 13.0744 13.6149C13.136 13.7521 13.2424 13.881 13.3965 14.0098C13.657 14.2255 13.6934 14.6093 13.4805 14.8698C13.3601 15.0154 13.1836 15.0911 13.01 15.0911ZM16.0884 15.8306C15.9315 16.1303 16.0464 16.5 16.3461 16.6541C16.5674 16.7689 16.7438 16.8866 16.8671 17.0042C16.9847 17.1135 17.136 17.1695 17.2845 17.1695C17.4469 17.1695 17.6066 17.1051 17.727 16.9762C17.9567 16.7325 17.9455 16.346 17.7018 16.1135C17.4945 15.9174 17.2368 15.7409 16.9091 15.5701C16.6094 15.4132 16.2424 15.5336 16.0884 15.8306ZM11.1864 20.2031C11.5366 20.1639 11.8307 20.3852 11.8783 20.7185C11.9259 21.0518 11.6962 21.3628 11.3657 21.4132C11.0884 21.4552 10.8167 21.4916 10.559 21.5224C10.5338 21.5252 10.5086 21.528 10.4833 21.528C10.1808 21.528 9.91752 21.3011 9.8811 20.9902C9.83909 20.6569 10.0772 20.3516 10.4105 20.3095C10.6598 20.2787 10.9203 20.2451 11.1864 20.2031ZM14.2144 20.2059C14.1332 19.8782 13.7971 19.6765 13.4749 19.7605C13.2256 19.8221 12.9735 19.8782 12.7242 19.9314C12.3937 20.0014 12.1836 20.3235 12.2508 20.6541C12.3097 20.9426 12.5646 21.1415 12.8475 21.1415C12.8867 21.1415 12.9287 21.1387 12.9707 21.1303C13.2396 21.0742 13.5057 21.0126 13.7719 20.9454C14.0996 20.8642 14.2957 20.5336 14.2144 20.2059ZM6.79147 14.2843C7.53657 14.2843 7.83909 13.9818 7.83909 13.2339C7.83909 12.486 7.53657 12.1835 6.79147 12.1835C6.04918 12.1835 5.74666 12.4888 5.74666 13.2339C5.74385 13.9818 6.04918 14.2843 6.79147 14.2843Z" fill="#313235"/>
</svg>
