<svg width="24" height="24" viewBox="0 0 24 24" fill="none" xmlns="http://www.w3.org/2000/svg">
<path fill-rule="evenodd" clip-rule="evenodd" d="M13.2565 6.90527C13.2312 4.57474 11.7382 3.2218 11.7214 3.2106C11.4721 2.98931 11.4497 2.60836 11.671 2.35906C11.6738 2.35626 11.6766 2.35345 11.6766 2.35065C11.9063 2.10135 12.2929 2.08175 12.545 2.30584C12.6234 2.37586 14.4525 4.03693 14.4833 6.87446C14.4889 6.9725 14.587 9.76521 12.5702 11.5467C12.4581 11.6476 12.3097 11.7008 12.1612 11.7008C11.9875 11.7008 11.8195 11.628 11.7018 11.4963C11.4777 11.2498 11.4974 10.866 11.7466 10.642L11.7523 10.6364C13.3012 9.26927 13.2583 7.00179 13.2565 6.9081L13.2565 6.90527ZM10.6654 6.93048C10.6489 5.59033 9.80709 4.78223 9.77287 4.74939L9.77186 4.74841C9.52256 4.52712 9.50015 4.14617 9.72144 3.89407L9.72704 3.88847C9.95674 3.63917 10.3433 3.61956 10.5954 3.84365C10.6486 3.89127 11.8783 5.00611 11.8979 6.89687C11.9007 6.95569 11.9679 8.82403 10.6122 10.0201C10.5002 10.121 10.3545 10.1742 10.2032 10.1742C10.0268 10.1742 9.8615 10.1013 9.74385 9.96969C9.51976 9.72319 9.53937 9.34224 9.78587 9.11815C9.78867 9.11535 9.79147 9.11255 9.79427 9.11255C10.6857 8.32321 10.6662 6.98457 10.6654 6.93197L10.6654 6.93048ZM8.01836 18.0453C8.01836 18.261 7.95674 18.4207 7.8475 18.5299C7.72985 18.6447 7.55618 18.7036 7.3489 18.7036C7.13881 18.7036 6.96514 18.6475 6.8475 18.5299C6.74105 18.4207 6.67943 18.261 6.67943 18.0453C6.67943 17.5943 6.94273 17.387 7.3489 17.387C7.75506 17.387 8.01836 17.5971 8.01836 18.0453ZM5.41052 18.5299C5.51697 18.4207 5.57859 18.261 5.57859 18.0453C5.57859 17.5971 5.31529 17.387 4.90912 17.387C4.50296 17.387 4.23966 17.5943 4.23966 18.0453C4.23966 18.261 4.30128 18.4207 4.40772 18.5299C4.52537 18.6475 4.69904 18.7036 4.90912 18.7036C5.11921 18.7036 5.29288 18.6447 5.41052 18.5299ZM21.8363 17.2358C21.8363 16.2918 21.5842 15.5607 21.0912 15.0509C20.5786 14.5215 19.8139 14.2554 18.8279 14.2526H8.08279V6.92208C8.08279 6.58594 7.80548 6.31423 7.46654 6.31423C7.12481 6.31423 6.8503 6.58594 6.8503 6.92208V14.2526H5.16403C4.17243 14.2526 3.41053 14.5215 2.89512 15.0481C2.39932 15.5579 2.15002 16.2918 2.15002 17.233V18.8548C2.15002 19.796 2.39932 20.5327 2.89512 21.0425C3.41053 21.5691 4.17243 21.838 5.16403 21.838H18.8223C19.8139 21.838 20.5758 21.5691 21.0912 21.0425C21.5842 20.5355 21.8363 19.7988 21.8363 18.8576V17.2358Z" fill="#313235"/>
</svg>
