<svg width="24" height="24" viewBox="0 0 24 24" fill="none" xmlns="http://www.w3.org/2000/svg">
<path fill-rule="evenodd" clip-rule="evenodd" d="M21.8426 17.3432C21.8426 16.9931 21.7054 16.6626 21.4589 16.4161L7.5765 2.5281C7.0835 2.0323 6.21796 2.0323 5.72496 2.5281L2.54008 5.71577C2.29079 5.96507 2.15633 6.2928 2.15633 6.64294C2.15353 6.99028 2.29359 7.32362 2.54008 7.56731L16.4224 21.4581C16.6689 21.7074 16.9967 21.8418 17.3468 21.8418C17.6969 21.8418 18.0275 21.7046 18.274 21.4581L21.4589 18.2704C21.7082 18.0239 21.8426 17.6934 21.8426 17.3432ZM20.8538 17.0267C21.0303 17.2032 21.0303 17.4889 20.8538 17.6654L17.6661 20.853C17.4897 21.0267 17.2039 21.0267 17.0275 20.853L3.14513 6.96227C2.96866 6.7858 2.96866 6.49729 3.14513 6.32082L6.33 3.13314L6.3328 3.13034C6.50927 2.95667 6.79499 2.95667 6.97146 3.13314L8.33 4.49168L7.0835 5.71577C6.91543 5.88384 6.91263 6.15555 7.0779 6.32362C7.24597 6.49168 7.51768 6.49449 7.68574 6.32922L8.93504 5.09953L10.442 6.60933L7.93504 9.11633C7.76698 9.2816 7.76698 9.55331 7.93504 9.72138C8.10031 9.88944 8.37202 9.88944 8.54008 9.72138L11.0471 7.21157L12.5541 8.71857L11.2264 10.0239L11.2236 10.0267C11.0555 10.1948 11.0555 10.4637 11.2208 10.6317C11.386 10.7998 11.6577 10.8026 11.8258 10.6373L13.1591 9.32362L14.6633 10.8278L12.4028 13.0911C12.2348 13.2564 12.2348 13.5281 12.4028 13.6962C12.5681 13.8642 12.8398 13.8642 13.0079 13.6962L15.2712 11.4357L16.7782 12.9455L15.2824 14.4161C15.1143 14.5813 15.1115 14.853 15.2768 15.0211L15.2796 15.0239C15.4448 15.192 15.7138 15.192 15.8818 15.0267L17.3832 13.5533L20.8538 17.0267ZM17.9883 17.6962C18.1311 17.4441 18.0471 17.1219 17.795 16.9763C17.5457 16.8306 17.2236 16.9175 17.0807 17.1668C17.0807 17.1668 17.0807 17.1696 17.0779 17.1696C16.9322 17.4217 17.0191 17.741 17.2684 17.8866C17.5233 18.0351 17.8426 17.9455 17.9883 17.6962ZM18.5513 18.0155C18.8706 17.4553 18.6773 16.741 18.1171 16.4189C18.1156 16.4189 18.1149 16.4189 18.1146 16.4184C18.1143 16.418 18.1143 16.4173 18.1143 16.4161C17.5569 16.0967 16.8454 16.29 16.5233 16.8474C16.3664 17.1163 16.3244 17.4357 16.4056 17.7354C16.4869 18.0379 16.6829 18.2956 16.9547 18.4497C17.5149 18.769 18.2292 18.5757 18.5513 18.0155Z" fill="#313235"/>
</svg>
