<svg width="24" height="24" viewBox="0 0 24 24" fill="none" xmlns="http://www.w3.org/2000/svg">
<path fill-rule="evenodd" clip-rule="evenodd" d="M21.4071 18.2915C21.987 17.7089 21.987 16.7649 21.4071 16.1823L7.82173 2.59689C7.2391 2.01425 6.29512 2.01425 5.71249 2.59689L2.59485 5.71453C2.01502 6.29716 2.01502 7.24114 2.59485 7.82377L16.1803 21.4092C16.4744 21.7005 16.8553 21.8462 17.2363 21.8462C17.6172 21.8462 17.9982 21.7005 18.2895 21.4092L21.4071 18.2915ZM20.5192 17.0703C20.6088 17.1627 20.6088 17.3112 20.5192 17.4008C20.5192 17.4008 17.3987 20.5212 17.3987 20.5184C17.3119 20.6081 17.1607 20.6081 17.071 20.5184L3.4828 6.93301C3.39316 6.84338 3.39316 6.69492 3.4828 6.60528L6.60324 3.48484C6.69288 3.3952 6.83854 3.3952 6.93097 3.48484L8.11305 4.66411L7.04582 5.71453C6.79652 5.95823 6.79372 6.35879 7.03742 6.60528L7.04022 6.60809C7.28111 6.85458 7.67887 6.85738 7.92537 6.61369L9.0066 5.55487L10.1831 6.73133L7.87775 9.03945C7.63125 9.28595 7.63125 9.68371 7.87775 9.93021L7.88055 9.93301C8.12705 10.1767 8.52201 10.1767 8.76571 9.93021L11.071 7.62209L12.2475 8.79856L11.099 9.93021C10.8497 10.1739 10.8469 10.5717 11.0906 10.8182L11.0934 10.821C11.3371 11.0647 11.7321 11.0675 11.9786 10.8238L13.1354 9.68651L14.3147 10.863L12.2503 12.9274C12.0038 13.1739 12.0038 13.5717 12.2503 13.8182L12.2531 13.821C12.4968 14.0647 12.8946 14.0647 13.1382 13.8182L15.2055 11.7565L16.3819 12.933L15.0682 14.2243C14.8217 14.4652 14.8161 14.8658 15.0598 15.1123C15.3035 15.3588 15.7013 15.3644 15.9506 15.1207L17.2699 13.821L20.5192 17.0703ZM17.7685 17.5296C17.8805 17.3364 17.8161 17.0871 17.6228 16.9722C17.6228 16.9722 17.62 16.9722 17.62 16.9694C17.424 16.8546 17.1747 16.9218 17.0598 17.1179C16.945 17.314 17.0122 17.5633 17.2083 17.6781C17.3035 17.7341 17.4184 17.7481 17.5248 17.7201C17.6256 17.6921 17.7153 17.6249 17.7685 17.5296ZM18.5024 17.9386C18.8413 17.342 18.6368 16.5857 18.0402 16.2439C17.7517 16.0759 17.4156 16.0338 17.0934 16.1179C16.7713 16.2047 16.5024 16.412 16.3343 16.7005C15.9898 17.2971 16.1943 18.0618 16.7909 18.4064C16.7937 18.4064 16.7937 18.4092 16.7965 18.4092C17.3931 18.7537 18.155 18.5464 18.4968 17.9498C18.4979 17.9477 18.4985 17.9459 18.4991 17.9445C18.5 17.9421 18.5007 17.9403 18.5024 17.9386Z" fill="#313235"/>
</svg>
