<svg width="24" height="24" viewBox="0 0 24 24" fill="none" xmlns="http://www.w3.org/2000/svg">
<path fill-rule="evenodd" clip-rule="evenodd" d="M20.0442 21.7793H9.55121C8.98818 21.7793 8.67726 21.4656 8.67726 20.8998V16.1267C8.67726 16.1012 8.68071 16.0764 8.68717 16.0529C7.91501 15.8133 7.21558 15.4088 6.62995 14.8806L2.63804 19.0034C2.58482 19.0594 2.51199 19.0902 2.43636 19.0902C2.2823 19.0902 2.15625 18.967 2.15625 18.8101C2.15625 18.7373 2.18426 18.6645 2.23748 18.6141L6.2332 14.4846C5.34623 13.5051 4.80611 12.2056 4.80611 10.7793C4.80611 8.30365 6.4334 6.2099 8.67726 5.50879V4.76811V3.02582C8.67726 2.4768 8.99659 2.16027 9.54841 2.15747L10.2343 2.15717C11.4453 2.15654 13.8649 2.15526 16.0582 2.15747C16.115 2.15747 16.1719 2.17453 16.2181 2.20732C16.2319 2.21667 16.2449 2.22717 16.2571 2.2387L21.7193 7.70089C21.7725 7.75411 21.8005 7.82414 21.8005 7.89977V20.9278C21.8005 21.4684 21.4896 21.7793 20.9518 21.7793H20.0442ZM10.3271 16.3003C9.95408 16.3003 9.58972 16.2634 9.23748 16.1929V20.8998C9.23748 21.1575 9.29911 21.2191 9.55401 21.2191H20.9518C21.1759 21.2191 21.2403 21.1519 21.2431 20.9278V8.17988H18.7893C17.9098 8.17988 17.1562 7.89136 16.61 7.34795C16.0638 6.80453 15.7781 6.05103 15.7781 5.16868V3.66447V2.71769H9.54841C9.30751 2.71769 9.23748 2.78772 9.23748 3.02582V5.36569C9.58972 5.29526 9.95408 5.25831 10.3271 5.25831C13.3775 5.25831 15.8481 7.7289 15.8481 10.7793C15.8481 12.2443 15.2655 13.6477 14.2319 14.6841C13.1983 15.7205 11.7921 16.3031 10.3271 16.3003ZM20.8451 7.61966L16.3383 3.11525V5.16868C16.3383 6.65607 17.2991 7.61966 18.7893 7.61966H20.8451ZM5.36633 10.7793C5.36633 8.03982 7.58762 5.81854 10.3271 5.81854C11.6436 5.81573 12.9069 6.33674 13.8341 7.26952C14.7641 8.20229 15.2879 9.46279 15.2879 10.7793C15.2879 13.5188 13.0666 15.7401 10.3271 15.7401C7.58762 15.7401 5.36633 13.5188 5.36633 10.7793Z" fill="#313235"/>
</svg>
