<svg width="24" height="24" viewBox="0 0 24 24" fill="none" xmlns="http://www.w3.org/2000/svg">
<path fill-rule="evenodd" clip-rule="evenodd" d="M9.87115 17.6051C5.53781 17.6051 2.02521 14.0925 2.02521 9.75916C2.02521 7.67792 2.85154 5.68353 4.32213 4.21014C7.43697 1.19613 12.4034 1.27736 15.4174 4.38941C18.2325 7.2955 18.3583 11.8351 15.7947 14.8872L21.4986 20.5911C21.7171 20.8096 21.7171 21.1653 21.4986 21.3838C21.3894 21.4902 21.2493 21.5491 21.1008 21.5491C20.9524 21.5491 20.8095 21.4902 20.7059 21.3838L15.0094 15.6873C13.5902 16.9238 11.7655 17.6102 9.87115 17.6051ZM9.87115 3.03367C6.15686 3.03367 3.14566 6.04487 3.14566 9.75916C3.14566 11.5435 3.85434 13.2522 5.11484 14.5155C7.7507 17.1317 12.0112 17.1149 14.6274 14.479C17.2297 11.8572 17.2297 7.6275 14.6274 5.00565C13.3669 3.73675 11.6555 3.02806 9.87115 3.03367Z" fill="#313235"/>
</svg>
