<svg width="24" height="24" viewBox="0 0 24 24" fill="none" xmlns="http://www.w3.org/2000/svg">
<path fill-rule="evenodd" clip-rule="evenodd" d="M2.02521 9.75916C2.02521 14.0925 5.53781 17.6051 9.87115 17.6051C11.7655 17.6102 13.5902 16.9238 15.0094 15.6873L20.7059 21.3838C20.8095 21.4902 20.9524 21.5491 21.1008 21.5491C21.2493 21.5491 21.3894 21.4902 21.4986 21.3838C21.7171 21.1653 21.7171 20.8096 21.4986 20.5911L15.7947 14.8872C18.3583 11.8351 18.2325 7.2955 15.4174 4.38941C12.4034 1.27736 7.43697 1.19613 4.32213 4.21014C2.85154 5.68353 2.02521 7.67792 2.02521 9.75916ZM3.14566 9.75916C3.14566 6.04487 6.15686 3.03367 9.87115 3.03367C11.6555 3.02806 13.3669 3.73675 14.6274 5.00565C17.2297 7.6275 17.2297 11.8572 14.6274 14.479C12.0112 17.1149 7.7507 17.1317 5.11484 14.5155C3.85434 13.2522 3.14566 11.5435 3.14566 9.75916ZM9.64706 13.6555C9.64706 13.8628 9.81512 14.0337 10.0252 14.0337C10.2353 14.0337 10.4034 13.8656 10.4062 13.6555V13.1083C10.9636 13.0372 11.4317 12.8479 11.7731 12.5519C12.2129 12.1709 12.4454 11.6331 12.4454 11.0001C12.4454 10.2218 12.089 9.25187 10.4062 9.00733V6.98935C10.6824 7.04263 10.9538 7.14373 11.2353 7.29697L11.2437 7.29977C11.3389 7.35019 11.4426 7.381 11.549 7.38381C11.8319 7.38381 12.0616 7.15411 12.0616 6.8712C12.0616 6.75916 12.0224 6.54907 11.7591 6.38661C11.3816 6.15362 10.9127 6.00039 10.4062 5.94225V5.66672C10.4062 5.45663 10.2353 5.28577 10.0252 5.28577C9.81792 5.28577 9.64706 5.45663 9.64706 5.66672V5.92889C8.41943 6.03772 7.64145 6.82881 7.64145 8.00285C7.64145 8.76753 7.99259 9.72398 9.64706 9.96775V12.0976C9.21787 12.0418 8.78498 11.8701 8.35574 11.5855C8.2549 11.5183 8.13725 11.479 8.014 11.4762C7.72269 11.4734 7.48459 11.7059 7.48179 11.9973C7.48179 12.1877 7.56582 12.3446 7.73389 12.4622C8.30075 12.8535 8.96193 13.0831 9.64706 13.1308V13.6555ZM10.4062 12.0773C11.0261 11.9581 11.395 11.5815 11.395 11.0365C11.395 10.6481 11.2666 10.2663 10.4062 10.08V12.0773ZM9.64706 8.89194V6.96197C9.04511 7.04391 8.69468 7.40268 8.69468 7.95804C8.69468 8.31932 8.81709 8.70464 9.64706 8.89194Z" fill="#313235"/>
</svg>
