<svg width="24" height="24" viewBox="0 0 24 24" fill="none" xmlns="http://www.w3.org/2000/svg">
<path fill-rule="evenodd" clip-rule="evenodd" d="M14.8379 2.15991C16.4821 2.15991 18.0424 2.35599 19.2328 2.71453C20.9639 3.23554 21.8435 4.07028 21.8435 5.19353V18.8014C21.8435 19.9274 20.9639 20.765 19.2328 21.286C18.0312 21.6445 16.4709 21.8406 14.8379 21.8406C13.2048 21.8406 11.6446 21.6445 10.4457 21.286C8.71463 20.7622 7.83507 19.9274 7.83507 18.8014V17.5101C7.34208 17.3476 6.88269 17.1095 6.47093 16.807L3.18801 20.0955C3.07037 20.2131 2.91631 20.272 2.76224 20.272C2.60818 20.272 2.45412 20.2131 2.33647 20.0955C2.10118 19.8602 2.10118 19.4792 2.33647 19.2439L5.58858 15.9918C4.86028 15.1263 4.42051 14.0143 4.42051 12.7986C4.42051 10.6025 5.85748 8.73694 7.83787 8.08428V5.19633C7.83787 5.01986 7.86309 4.84058 7.9107 4.66972V4.66691C8.1572 3.80417 9.01154 3.14591 10.4457 2.71453C11.6362 2.35879 13.1936 2.15991 14.8379 2.15991ZM14.8379 3.36159C13.3085 3.36159 11.8715 3.54086 10.7931 3.86579C9.87709 4.14311 9.29166 4.51005 9.10958 4.89941C9.26925 5.30837 9.86308 5.68652 10.8043 5.97224C11.8855 6.29717 13.3225 6.47644 14.8491 6.47644C16.3729 6.47644 17.8099 6.29717 18.8939 5.97224C19.8127 5.69493 20.4065 5.32518 20.5802 4.92742C20.3673 4.41481 19.5718 4.07308 18.8855 3.86579C17.8043 3.54086 16.3673 3.36159 14.8379 3.36159ZM9.03956 6.51565C9.42331 6.75375 9.8939 6.96103 10.4569 7.1291C11.6502 7.48764 13.2104 7.68372 14.8491 7.68372C16.4877 7.68372 18.048 7.48764 19.2412 7.1291C19.8015 6.96103 20.2608 6.76215 20.639 6.53246V9.6361C20.4401 9.96103 19.8883 10.4092 18.8967 10.7089C17.8155 11.0339 16.3785 11.2131 14.8519 11.2131C14.751 11.2187 14.3897 11.2131 14.0816 11.1991C13.4149 9.24395 11.5634 7.83218 9.38409 7.83218C9.26913 7.83218 9.15952 7.84021 9.04742 7.84841L9.0474 7.84841L9.03956 7.84899V6.51565ZM13.146 12.7958C13.146 10.7229 11.4569 9.03666 9.38409 9.03666C7.31126 9.03666 5.62219 10.7257 5.62219 12.7958C5.62219 14.8686 7.31126 16.5549 9.38409 16.5549C11.4597 16.5549 13.146 14.8686 13.146 12.7958ZM14.8379 20.6361C16.3589 20.6361 17.7959 20.4568 18.8855 20.1319C19.6838 19.8938 20.639 19.4652 20.639 18.8014V15.9918C20.2412 16.2383 19.7734 16.4512 19.2412 16.6109C18.0536 16.9694 16.4933 17.1655 14.8519 17.1655C13.9219 17.1655 13.0312 17.1039 12.1992 16.9834C12.1738 16.9798 12.152 16.9703 12.1306 16.961C12.1189 16.956 12.1074 16.951 12.0956 16.947C11.3141 17.4596 10.3841 17.7594 9.38409 17.7594C9.26911 17.7594 9.15948 17.7513 9.04735 17.7431L9.03956 17.7425V18.8014C9.03956 19.4652 9.99474 19.891 10.7931 20.1319C11.8827 20.4568 13.3197 20.6361 14.8379 20.6361ZM14.3505 12.7986C14.3505 12.6697 14.3421 12.5409 14.3309 12.412C14.5634 12.4176 14.7762 12.4176 14.8519 12.4176C16.4905 12.4176 18.0508 12.2187 19.2412 11.8602C19.7734 11.7005 20.2412 11.4876 20.639 11.2411V14.3896C20.4401 14.7145 19.8883 15.1627 18.8967 15.4624C17.8155 15.7874 16.3813 15.9666 14.8519 15.9666C14.3029 15.9666 13.7762 15.9358 13.2636 15.891C13.9415 15.0395 14.3505 13.9666 14.3505 12.7986Z" fill="#313235"/>
</svg>
