<svg width="24" height="24" viewBox="0 0 24 24" fill="none" xmlns="http://www.w3.org/2000/svg">
<path fill-rule="evenodd" clip-rule="evenodd" d="M14.8943 2.15991C16.5554 2.15991 18.1296 2.35879 19.3229 2.71734C20.9951 3.22154 21.8411 4.00865 21.8439 5.05907V18.947C21.8439 19.9946 20.9979 20.7818 19.3257 21.286C18.1184 21.6473 16.547 21.8462 14.8971 21.8462C13.25 21.8462 11.6786 21.6473 10.4713 21.2888C8.79907 20.7846 7.95313 19.9974 7.95313 18.947V17.4792C7.36489 17.3056 6.81587 17.0199 6.33408 16.6417L2.85509 20.1179C2.69823 20.272 2.44613 20.272 2.28646 20.1179C2.1212 19.961 2.11839 19.7005 2.27526 19.5381L5.73744 16.0787C4.95033 15.2159 4.46573 14.0731 4.46573 12.8154C4.46573 10.6137 5.93912 8.75095 7.95313 8.15431V5.05627C7.95313 4.89381 7.97554 4.72854 8.02035 4.57168V4.56888C8.25285 3.75935 9.07638 3.1375 10.4685 2.71734C11.6646 2.35879 13.236 2.15991 14.8943 2.15991ZM14.8943 2.98064C13.3173 2.98064 11.8271 3.16551 10.7066 3.50445C9.6366 3.82658 8.98674 4.26355 8.81587 4.76776C8.81727 4.77196 8.81937 4.77546 8.82148 4.77896C8.82358 4.78246 8.82568 4.78596 8.82708 4.79016C8.99514 5.29156 9.64781 5.72854 10.715 6.05067C11.8383 6.3896 13.3257 6.57448 14.9027 6.57448C16.4797 6.57448 17.9671 6.3868 19.0904 6.05067C20.1296 5.73694 20.7795 5.31397 20.9643 4.82938C20.967 4.82396 20.9704 4.81986 20.9735 4.81611C20.9768 4.8121 20.9797 4.80851 20.9811 4.80417C20.8299 4.27476 20.194 3.83778 19.0848 3.50445C17.9643 3.16551 16.4769 2.98064 14.8943 2.98064ZM8.77106 6.00865C9.18562 6.33638 9.75425 6.61369 10.4825 6.83498C11.6814 7.19353 13.2528 7.39241 14.9055 7.39241C16.561 7.39241 18.1324 7.19353 19.3313 6.83498C20.0568 6.61649 20.6114 6.35039 21.0204 6.03106V9.6417C20.8131 10.0283 20.2108 10.5437 19.096 10.8798C17.9727 11.2187 16.4853 11.4036 14.8971 11.4036C14.866 11.4029 14.8129 11.4026 14.7455 11.4021L14.7452 11.4021H14.7452H14.7452H14.7452C14.5453 11.4008 14.2205 11.3987 13.9755 11.384C13.3425 9.34759 11.4601 7.95823 9.32848 7.95543C9.1408 7.95543 8.95313 7.96944 8.77106 7.98904V6.00865ZM13.3733 12.8182C13.3705 10.5857 11.561 8.77616 9.32848 8.77336C7.09599 8.77616 5.28646 10.5857 5.28366 12.8182C5.28646 15.0507 7.09599 16.8602 9.32848 16.863C11.561 16.8602 13.3705 15.0507 13.3733 12.8182ZM14.8971 21.0255C16.4685 21.0255 17.9559 20.8406 19.0876 20.5016C20.3705 20.1151 21.0204 19.5941 21.0232 18.947V15.6921C20.5834 16.0283 20.012 16.3168 19.3341 16.5185C18.138 16.8798 16.5666 17.0759 14.9083 17.0759C13.9699 17.0759 13.0708 17.0143 12.2304 16.8938C12.1744 16.8854 12.1184 16.863 12.0708 16.8322C11.11 17.4988 9.93632 17.7874 8.77386 17.6473V18.947C8.77386 19.5913 9.42652 20.1151 10.7094 20.5016C11.8383 20.8406 13.3285 21.0255 14.8971 21.0255ZM14.194 12.8154C14.194 12.6109 14.1772 12.4092 14.152 12.2103C14.4489 12.2187 14.7683 12.2215 14.8999 12.2215H14.9111C16.5694 12.2215 18.138 12.0227 19.3369 11.6641C20.0148 11.4596 20.589 11.1739 21.026 10.8378V14.496C20.8187 14.8798 20.2136 15.398 19.1016 15.7313C17.9811 16.0675 16.4937 16.2551 14.9139 16.2551C14.2052 16.2551 13.5302 16.2075 12.8803 16.1375C13.7206 15.2383 14.1912 14.0507 14.194 12.8154Z" fill="#313235"/>
</svg>
