<svg width="24" height="24" viewBox="0 0 24 24" fill="none" xmlns="http://www.w3.org/2000/svg">
<path fill-rule="evenodd" clip-rule="evenodd" d="M12.5938 21.675H11.0896C10.549 21.675 10.1092 21.2352 10.1092 20.6946V18.8402C9.32772 18.7142 8.61904 18.4957 7.99999 18.1876L6.63024 19.5573C6.24089 19.9439 5.61343 19.9439 5.22408 19.5573L4.12604 18.4565C3.73948 18.0671 3.73948 17.4397 4.12604 17.0503L5.49299 15.6834C5.17646 15.1231 4.94957 14.2184 4.84313 13.5713H2.98878C2.44817 13.5713 2.00839 13.1315 2.00839 12.5909V11.0867C2.00839 10.5461 2.44817 10.1063 2.98878 10.1063H4.84313C4.94957 9.45648 5.17646 8.55452 5.49299 7.9943L4.12604 6.62735C3.73948 6.23799 3.73948 5.61054 4.12604 5.22119L5.22408 4.12315C5.61343 3.73659 6.24089 3.73659 6.63024 4.12315L7.99999 5.49289C8.61904 5.18477 9.32772 4.96628 10.1092 4.84023V2.98869C10.1092 2.44808 10.549 2.0083 11.0896 2.0083H12.5938C13.1344 2.0083 13.5742 2.44808 13.5742 2.98869V4.84303C14.3585 4.96909 15.0308 5.17637 15.6835 5.4957L17.0532 4.12595C17.4426 3.73939 18.07 3.73939 18.4594 4.12595L19.5574 5.22399C19.944 5.61334 19.944 6.24079 19.5574 6.63015L18.1905 7.9999C18.4986 8.61895 18.7171 9.32763 18.8431 10.1091H20.6975C21.2381 10.1091 21.6779 10.5489 21.6779 11.0895V12.5937C21.6779 13.1344 21.2381 13.5741 20.6975 13.5741H18.8431C18.7171 14.3556 18.4986 15.0643 18.1905 15.6834L19.5602 17.0531C19.9468 17.4425 19.9468 18.0699 19.5602 18.4593L18.4622 19.5573C18.0728 19.9439 17.4454 19.9439 17.056 19.5573L15.6835 18.1876C15.0308 18.5069 14.3585 18.7142 13.5742 18.8402V20.6946C13.5742 21.238 13.1372 21.675 12.5938 21.675ZM11.2297 20.5545H12.4538V18.7422V18.731C12.4538 18.238 12.8291 17.8206 13.3473 17.7422H13.3501C14.056 17.633 14.6498 17.4509 15.2213 17.168C15.6386 16.9607 16.1064 17.0251 16.4146 17.3332L16.423 17.3416L17.7591 18.6778L18.6807 17.7562L17.3445 16.4201L17.3361 16.4117C17.028 16.1035 16.9636 15.6217 17.1737 15.2128C17.4454 14.675 17.6358 14.0475 17.7451 13.3444C17.8235 12.8262 18.2409 12.4509 18.7339 12.4509H20.5574V11.2268H18.7339C18.2409 11.2268 17.8235 10.8514 17.7451 10.3332C17.6358 9.63015 17.4454 9.0027 17.1737 8.46768C16.9636 8.05872 17.028 7.57693 17.3361 7.26881L17.3445 7.2604L18.6807 5.92427L17.7591 5.0027L16.423 6.34163L16.4146 6.35004C16.1064 6.65816 15.6386 6.72259 15.2213 6.5153C14.6498 6.23239 14.056 6.05032 13.3501 5.94107H13.3473C12.8291 5.86264 12.4538 5.44528 12.4538 4.95228V3.12875H11.2297V4.95228C11.2297 5.44528 10.8543 5.86264 10.3361 5.94107C9.63304 6.05032 9.00559 6.24079 8.47058 6.5125C8.06161 6.72539 7.57982 6.65816 7.2717 6.35004L7.26329 6.34163L5.92716 5.0055L5.00559 5.92707L6.34173 7.2632L6.35013 7.27161C6.71708 7.63855 6.69747 8.17357 6.49019 8.5097C6.2857 8.84303 6.05321 9.61334 5.94117 10.3388C5.86273 10.8458 5.43696 11.2296 4.95237 11.2296H3.12884V12.4537H4.95237C5.43696 12.4537 5.86273 12.8374 5.94117 13.3444C6.05321 14.0699 6.2857 14.8402 6.49019 15.1736C6.69747 15.5125 6.71708 16.0447 6.35013 16.4117L6.34173 16.4201L5.00559 17.7562L5.92716 18.6778L7.26329 17.3416L7.2717 17.3332C7.57982 17.0251 8.06161 16.9607 8.47058 17.1708C9.00839 17.4425 9.63584 17.633 10.3389 17.7422C10.8571 17.8206 11.2325 18.238 11.2325 18.731L11.2297 20.5545ZM11.8431 15.6946C9.35853 15.6946 7.99159 14.3276 7.99159 11.843C7.99159 9.35844 9.35853 7.99149 11.8431 7.99149C14.3277 7.99149 15.6947 9.35844 15.6947 11.843C15.6947 14.3276 14.3249 15.6946 11.8431 15.6946ZM11.8431 9.11194C9.98038 9.11194 9.11203 9.98029 9.11203 11.843C9.11203 13.7058 9.98038 14.5741 11.8431 14.5741C13.7059 14.5741 14.5742 13.7058 14.5742 11.843C14.5742 9.98029 13.7059 9.11194 11.8431 9.11194Z" fill="#313235"/>
</svg>
