<svg width="24" height="24" viewBox="0 0 24 24" fill="none" xmlns="http://www.w3.org/2000/svg">
<path fill-rule="evenodd" clip-rule="evenodd" d="M18.8431 10.1091H20.6947C21.2381 10.1091 21.6751 10.5489 21.6779 11.0923V12.5965C21.6779 13.1372 21.2381 13.5769 20.6975 13.5769H18.8431C18.7171 14.3584 18.4986 15.0671 18.1905 15.6862L19.5574 17.0531C19.944 17.4425 19.944 18.0699 19.5574 18.4593L18.4594 19.5573C18.07 19.9439 17.4426 19.9439 17.0532 19.5573L15.6835 18.1876C15.0308 18.5069 14.3585 18.7142 13.5742 18.8402V20.6946C13.5742 21.2352 13.1345 21.675 12.5938 21.675H11.0896C10.549 21.675 10.1092 21.2352 10.1092 20.6946V18.8402C9.32774 18.7142 8.61905 18.4957 8 18.1876L6.63026 19.5573C6.2409 19.9439 5.61345 19.9439 5.22409 19.5573L4.12605 18.4593C3.7395 18.0699 3.7395 17.4425 4.12605 17.0531L5.493 15.6862C5.17647 15.1259 4.94958 14.224 4.84314 13.5741H2.9888C2.44818 13.5741 2.00841 13.1344 2.00841 12.5937V11.0895C2.00841 10.5489 2.44818 10.1091 2.9888 10.1091H4.84314C4.94958 9.46208 5.17647 8.55732 5.493 7.9971L4.12605 6.63015C3.7395 6.24079 3.7395 5.61334 4.12605 5.22399L5.22409 4.12595C5.61345 3.73939 6.2409 3.73939 6.63026 4.12595L8 5.4957C8.61905 5.18757 9.32774 4.96909 10.1092 4.84303V2.98869C10.1092 2.44808 10.549 2.0083 11.0896 2.0083H12.5938C13.1345 2.0083 13.5742 2.44808 13.5742 2.98869V4.84303C14.3585 4.96909 15.0308 5.17637 15.6835 5.4957L17.0532 4.12595C17.4426 3.73939 18.07 3.73939 18.4594 4.12595L19.5602 5.22399C19.9468 5.61334 19.9468 6.24079 19.5602 6.63015L18.1905 7.9999C18.4986 8.61895 18.7171 9.32763 18.8431 10.1091ZM14.5742 11.843C14.5742 9.98029 13.7059 9.11194 11.8431 9.11194C9.9804 9.11194 9.11205 9.98029 9.11205 11.843C9.11205 13.7058 9.9804 14.5741 11.8431 14.5741C13.7059 14.5741 14.5742 13.7058 14.5742 11.843Z" fill="#313235"/>
</svg>
