<svg width="24" height="24" viewBox="0 0 24 24" fill="none" xmlns="http://www.w3.org/2000/svg">
<path fill-rule="evenodd" clip-rule="evenodd" d="M8.77866 9.44108C8.77586 9.30943 8.82908 9.17777 8.92432 9.07974C9.03356 8.96769 9.18202 8.91447 9.33328 8.92848L10.7058 8.92567C10.7338 8.85845 10.7506 8.78282 10.7506 8.70439V6.68479C10.7506 5.28984 9.98314 4.51953 8.58538 4.51953H4.18204C2.76468 4.51953 2.01678 5.26743 2.01678 6.68479V14.8948C2.01678 15.6147 2.19886 16.1441 2.5714 16.5139C2.94115 16.8808 3.46776 17.0573 4.18204 17.0573H8.58538C9.42572 17.0573 10.0083 16.8108 10.3725 16.3066C10.4789 16.1581 10.5013 15.9733 10.4509 15.8108L8.84029 14.6119C8.73104 14.5307 8.66942 14.4102 8.66942 14.2814C8.66942 14.1525 8.73104 14.0321 8.84029 13.9509L10.028 13.0601L10.0308 12.9593C10.0644 12.9705 10.1008 12.9761 10.1344 12.9789L10.7394 12.5251L10.7394 12.5251C10.745 12.4915 10.7506 12.4579 10.7506 12.4215V11.0937L9.29406 11.0881C9.14561 11.0965 8.99995 11.0349 8.89911 10.9201C8.80667 10.8164 8.76185 10.6764 8.77306 10.5363L8.77866 9.44108ZM6.77867 15.3206C6.69464 15.4074 6.56859 15.4495 6.41453 15.4495C6.26046 15.4495 6.13441 15.4074 6.05038 15.3206C5.97195 15.2394 5.92713 15.1217 5.92713 14.9593C5.92713 14.6231 6.12041 14.4691 6.41453 14.4691C6.71144 14.4691 6.90192 14.6259 6.90192 14.9593C6.90192 15.1217 6.8599 15.2394 6.77867 15.3206ZM19.5013 7.25621C20.2156 7.25621 20.7422 7.43549 21.1119 7.80243C21.4845 8.17218 21.6666 8.70159 21.6638 9.42147V17.6287C21.6638 19.0461 20.9159 19.794 19.4985 19.794H15.0952C13.6974 19.794 12.9299 19.0237 12.9299 17.6287V15.3654L14.4257 15.3598C14.5742 15.3682 14.7198 15.3038 14.8207 15.1918C14.9131 15.0881 14.9579 14.9481 14.9467 14.808L14.9439 13.71C14.9467 13.5783 14.8935 13.4467 14.7982 13.3486C14.6918 13.2366 14.5433 13.1834 14.3893 13.1974L12.9327 13.1946V11.8276C12.9327 11.8206 12.9334 11.8136 12.9341 11.8066C12.9348 11.7996 12.9355 11.7926 12.9355 11.7856L13.6134 11.2814C13.6162 11.2842 13.619 11.2842 13.6218 11.2842V11.2786L14.8851 10.3374C14.9943 10.2562 15.0559 10.1358 15.0559 10.0069C15.0559 9.87805 14.9943 9.7576 14.8851 9.67637L13.1568 8.38226C13.1624 8.29543 13.1876 8.20579 13.2352 8.12456C13.5798 7.54753 14.2072 7.25621 15.098 7.25621H19.5013ZM17.6638 18.0405C17.5797 18.1273 17.4537 18.1693 17.2996 18.1693C17.1456 18.1693 17.0195 18.1273 16.9355 18.0405C16.8571 17.9593 16.8122 17.8416 16.8122 17.6791C16.8122 17.343 17.0055 17.1889 17.2996 17.1889C17.5966 17.1889 17.787 17.3458 17.787 17.6791C17.787 17.8416 17.745 17.9621 17.6638 18.0405ZM9.49855 10.5391L12.3557 10.5475C12.4257 10.5475 12.4817 10.6063 12.4845 10.6736L12.4929 11.2646C12.4929 11.3346 12.5406 11.357 12.5966 11.315L14.2716 10.0685C14.3277 10.0265 14.3277 9.95928 14.2716 9.91727L12.6078 8.67077C12.5518 8.62876 12.5069 8.65117 12.5097 8.72119L12.5181 9.35705C12.5181 9.42707 12.4621 9.4831 12.3949 9.4831L9.52376 9.4859C9.41731 9.46909 9.33608 9.56153 9.33888 9.64836L9.33608 10.3514C9.32208 10.4691 9.40891 10.5475 9.49855 10.5391ZM14.2268 14.8136L11.3697 14.822C11.2997 14.822 11.2436 14.8808 11.2408 14.9481L11.2324 15.5391C11.2324 15.6091 11.1848 15.6315 11.1288 15.5895L9.45373 14.343C9.39771 14.301 9.39771 14.2338 9.45373 14.1918L11.1176 12.9453C11.1736 12.9032 11.2184 12.9257 11.2156 12.9957L11.2072 13.6315C11.2072 13.7016 11.2632 13.7576 11.3305 13.7576L14.2016 13.7604C14.308 13.7436 14.3893 13.836 14.3865 13.9229L14.3893 14.6259C14.4033 14.7408 14.3137 14.8192 14.2268 14.8136Z" fill="#313235"/>
</svg>
