<svg width="24" height="24" viewBox="0 0 24 24" fill="none" xmlns="http://www.w3.org/2000/svg">
<path fill-rule="evenodd" clip-rule="evenodd" d="M12.4208 11.5343C12.2183 11.5343 12.0642 11.3747 12.0613 11.1657L12.0499 10.4725L9.37334 10.4615H9.34766C9.20498 10.4615 9.06802 10.401 8.971 10.2964C8.87683 10.1947 8.83118 10.0571 8.84259 9.91957L8.84545 8.84127C8.84259 8.71198 8.89681 8.58269 8.99383 8.48642C9.10511 8.37639 9.25635 8.32412 9.41043 8.33788L12.0898 8.33512L12.0813 7.64468C12.0784 7.50439 12.1384 7.41636 12.1897 7.36685C12.2553 7.30358 12.3409 7.26782 12.4351 7.26782C12.5207 7.26782 12.6035 7.29808 12.6805 7.35035L15.066 9.07508C15.1773 9.15486 15.2401 9.27314 15.2401 9.39968C15.2401 9.52621 15.1773 9.6445 15.066 9.72427L12.6605 11.449C12.5892 11.504 12.5036 11.5343 12.4208 11.5343ZM6.93933 14.2603C6.93933 13.933 6.74529 13.7789 6.44282 13.7789C6.14036 13.7789 5.94347 13.933 5.94632 14.2603C5.94632 14.4198 5.99198 14.5354 6.07187 14.6152C6.15748 14.7004 6.28588 14.7417 6.44282 14.7417C6.59976 14.7417 6.72817 14.7004 6.81378 14.6152C6.89367 14.5354 6.93933 14.4171 6.93933 14.2603ZM18.0593 16.9341C18.0593 16.6067 17.8653 16.4527 17.5628 16.4527C17.2603 16.4527 17.0634 16.604 17.0663 16.9341C17.0663 17.0936 17.112 17.2091 17.1919 17.2889C17.2775 17.3742 17.4059 17.4154 17.5628 17.4154C17.7197 17.4154 17.8481 17.3742 17.9338 17.2889C18.0137 17.2091 18.0593 17.0909 18.0593 16.9341ZM12.1526 9.92232L9.41614 9.91132L9.41899 8.88803L12.2011 8.88528C12.3267 8.88253 12.4437 8.83577 12.5321 8.75049C12.6206 8.66522 12.6691 8.55244 12.6662 8.4314L12.6605 8.02154L14.5667 9.40243L12.6263 10.7943L12.6206 10.3707C12.6177 10.1259 12.4066 9.92508 12.1526 9.92232ZM11.562 15.7292C11.4763 15.7292 11.3936 15.7017 11.3166 15.6467L8.91108 13.922C8.79979 13.8422 8.73701 13.7239 8.73701 13.5974C8.73701 13.4708 8.79979 13.3525 8.91108 13.2728L11.2966 11.548C11.3736 11.493 11.4564 11.4655 11.542 11.4655C11.6361 11.4655 11.7217 11.5013 11.7874 11.5645C11.8387 11.6141 11.8987 11.7021 11.8958 11.8424L11.8872 12.5328L14.5667 12.5356C14.7236 12.5218 14.8748 12.5741 14.9833 12.6841C15.0803 12.7804 15.1345 12.9097 15.1316 13.039L15.1345 14.1173C15.1459 14.2548 15.1003 14.3923 15.0061 14.4941C14.9034 14.6042 14.755 14.6674 14.6038 14.6592L11.9272 14.6702L11.9158 15.3634C11.9186 15.5724 11.7645 15.7292 11.562 15.7292ZM11.3565 14.9893L9.41614 13.5974L11.3194 12.222L11.3137 12.6318C11.3137 12.7501 11.3594 12.8657 11.4478 12.9509C11.5363 13.0362 11.6533 13.083 11.7788 13.083L14.561 13.0857L14.5638 14.1063L11.8273 14.1173C11.5762 14.12 11.3651 14.3208 11.3622 14.5656L11.3565 14.9893Z" fill="#313235"/>
<path d="M8.78841 16.3125H4.09159C2.68483 16.3125 2 15.6523 2 14.2962V6.01632C2 4.66019 2.68483 4 4.09159 4H8.79126C10.1809 4 10.8829 4.67944 10.8829 6.01632V8.61306C10.8829 8.76435 10.7545 8.88813 10.5975 8.88813C10.4406 8.88813 10.3122 8.76435 10.3122 8.61306V6.01632C10.3122 4.98753 9.85846 4.55016 8.79126 4.55016H4.09159C3.54087 4.55016 3.15851 4.66294 2.92167 4.89125C2.68483 5.11957 2.57069 5.48817 2.57069 6.01632V14.2934C2.57069 15.3497 2.99872 15.7596 4.09159 15.7596H8.79126C9.73576 15.7596 10.1695 15.457 10.2836 14.7198C10.3065 14.5685 10.452 14.4667 10.6089 14.4887C10.7659 14.5107 10.8714 14.651 10.8486 14.8023C10.6888 15.8201 10.0154 16.3125 8.78841 16.3125Z" fill="#313235"/>
<path d="M10.5975 12.6731C10.4405 12.6731 10.3121 12.5493 10.3121 12.398V10.1891C10.3121 10.0378 10.4405 9.91406 10.5975 9.91406C10.7544 9.91406 10.8828 10.0378 10.8828 10.1891V12.398C10.8828 12.5521 10.7544 12.6731 10.5975 12.6731Z" fill="#313235"/>
<path d="M19.9113 19H15.2116C13.8048 19 13.12 18.3398 13.12 16.9837V14.3869C13.12 14.2356 13.2484 14.1119 13.4053 14.1119C13.5623 14.1119 13.6907 14.2356 13.6907 14.3869V16.9837C13.6907 18.04 14.1187 18.4498 15.2116 18.4498H19.9113C21.007 18.4498 21.4322 18.0372 21.4322 16.9837V8.70382C21.4322 7.67503 20.9785 7.23766 19.9113 7.23766H15.2116C14.0388 7.23766 13.7991 7.76581 13.7192 8.28295C13.6964 8.43424 13.5509 8.53602 13.3939 8.51402C13.237 8.49201 13.1314 8.35172 13.1542 8.20043C13.2341 7.69153 13.451 7.30367 13.7991 7.05335C14.1415 6.80853 14.6009 6.6875 15.2087 6.6875H19.9084C21.298 6.6875 22 7.36694 22 8.70382V16.9809C22.0029 18.3398 21.318 19 19.9113 19Z" fill="#313235"/>
<path d="M13.4053 13.0831C13.2484 13.0831 13.12 12.9593 13.12 12.808V10.5744C13.12 10.4231 13.2484 10.2993 13.4053 10.2993C13.5623 10.2993 13.6907 10.4231 13.6907 10.5744V12.808C13.6907 12.9621 13.5623 13.0831 13.4053 13.0831Z" fill="#313235"/>
</svg>
