<svg width="24" height="24" viewBox="0 0 24 24" fill="none" xmlns="http://www.w3.org/2000/svg">
<path fill-rule="evenodd" clip-rule="evenodd" d="M11.8431 21.6722C8.71146 21.6722 6.28008 20.8599 4.61622 19.2576C2.89073 17.5937 2.01398 15.1008 2.01398 11.843C2.01398 8.58815 2.88793 6.09235 4.61622 4.42848C6.27728 2.82624 8.70866 2.01392 11.8431 2.01392C14.9776 2.01392 17.4061 2.82624 19.07 4.42848C20.7955 6.09235 21.6722 8.58535 21.6722 11.843C21.6722 15.1008 20.7955 17.5937 19.07 19.2576C17.4061 20.8599 14.9748 21.6722 11.8431 21.6722ZM11.8431 3.13717C9.01118 3.13717 6.84031 3.84305 5.39493 5.23801C3.89633 6.68058 3.13723 8.90467 3.13723 11.8458C3.13723 14.787 3.89633 17.0083 5.39493 18.4537C6.84031 19.8486 9.01118 20.5545 11.8431 20.5545C14.675 20.5545 16.8459 19.8486 18.2913 18.4537C19.7899 17.0111 20.549 14.787 20.549 11.8458C20.549 8.90467 19.7899 6.68338 18.2913 5.23801C16.8459 3.84305 14.675 3.13717 11.8431 3.13717ZM15.0476 12.9075C14.3361 12.9075 13.7395 13.1176 13.3249 13.5125C13.2409 13.5937 13.1624 13.6806 13.0952 13.773L10.451 12.4509C10.4874 12.2604 10.5042 12.0587 10.5042 11.843C10.5042 11.6302 10.4874 11.4285 10.451 11.2408L13.098 9.91588C13.1512 9.98871 13.2101 10.0559 13.2717 10.1204C13.6918 10.5517 14.3053 10.7786 15.0476 10.7786C15.7899 10.7786 16.4033 10.5517 16.8235 10.1204C17.2381 9.69739 17.4482 9.10635 17.4482 8.36966C17.4482 7.59935 17.2213 6.99151 16.7731 6.56574C16.3557 6.17078 15.7591 5.96069 15.0504 5.96069C14.3389 5.96069 13.7423 6.17078 13.3277 6.56574C12.8795 6.99151 12.6526 7.59935 12.6526 8.36966C12.6526 8.54613 12.6638 8.7114 12.689 8.87106L9.99717 10.2156C9.94675 10.154 9.89073 10.0923 9.8319 10.0363C9.41454 9.64137 8.8179 9.43128 8.10922 9.43128C7.40053 9.43128 6.80109 9.64137 6.38653 10.0363C5.93835 10.4621 5.71146 11.0699 5.71146 11.8402C5.71146 12.5797 5.92154 13.168 6.33611 13.5909C6.75627 14.0223 7.36972 14.2492 8.11202 14.2492C8.85431 14.2492 9.46776 14.0223 9.88793 13.5909C9.91695 13.5619 9.94291 13.5314 9.96921 13.5004L9.99717 13.4677L12.6918 14.815C12.6694 14.9719 12.6554 15.1372 12.6554 15.3108C12.6554 16.0503 12.8655 16.6386 13.2801 17.0615C13.7003 17.4929 14.3137 17.7198 15.056 17.7198C15.7983 17.7198 16.4117 17.4929 16.8319 17.0615C17.2465 16.6386 17.4566 16.0475 17.4566 15.3108C17.4566 14.5405 17.2297 13.9327 16.7815 13.5069C16.3557 13.1176 15.7591 12.9075 15.0476 12.9075ZM15.0476 7.08394C15.9215 7.08394 16.3277 7.49291 16.3277 8.37246C16.3277 8.80663 16.2241 9.13436 16.0224 9.34165C15.8151 9.55453 15.4874 9.66097 15.0476 9.66097C14.6078 9.66097 14.2801 9.55453 14.0728 9.34165C13.8711 9.13436 13.7675 8.80943 13.7675 8.37246C13.7675 7.49291 14.1736 7.08394 15.0476 7.08394ZM7.12602 12.8122C7.3333 13.0251 7.66104 13.1316 8.10081 13.1316C8.54059 13.1316 8.86832 13.0251 9.0756 12.8122C9.14843 12.7394 9.20445 12.6498 9.25207 12.5489C9.25767 12.5321 9.26608 12.5153 9.27448 12.4985C9.34451 12.3192 9.38092 12.1008 9.38092 11.843C9.38092 11.5965 9.35011 11.3893 9.28569 11.2156C9.28288 11.2128 9.28008 11.2072 9.27728 11.2016C9.26328 11.1764 9.25487 11.1512 9.24647 11.126C9.0616 10.7394 8.68625 10.5545 8.10081 10.5545C7.22686 10.5545 6.8207 10.9635 6.8207 11.843C6.8207 12.28 6.92434 12.605 7.12602 12.8122ZM16.0224 16.2856C15.8151 16.4985 15.4874 16.605 15.0476 16.605C14.6078 16.605 14.2801 16.4985 14.0728 16.2856C13.8711 16.0783 13.7675 15.7534 13.7675 15.3164C13.7675 14.4369 14.1736 14.0279 15.0476 14.0279C15.9215 14.0279 16.3277 14.4369 16.3277 15.3164C16.3277 15.7534 16.2241 16.0783 16.0224 16.2856Z" fill="#313235"/>
</svg>
