<svg width="24" height="24" viewBox="0 0 24 24" fill="none" xmlns="http://www.w3.org/2000/svg">
<path fill-rule="evenodd" clip-rule="evenodd" d="M20.8915 5.03048L20.8915 5.0028C20.8831 4.88235 20.8243 4.77031 20.729 4.69468C20.6338 4.61625 20.5077 4.58543 20.3873 4.60504C18.6401 4.88091 17.6996 4.25308 16.6116 3.52679L16.5946 3.51541C15.5358 2.80672 14.3313 2.0028 12.2809 2H12.2753C10.2248 2 9.02316 2.80392 7.96153 3.51541C6.86629 4.2465 5.91671 4.87395 4.16321 4.60504C4.04276 4.57703 3.91671 4.60784 3.82147 4.68347C3.72344 4.7619 3.66741 4.87955 3.66741 5.0028C3.66461 5.27731 3.64781 11.7367 4.1324 14.521C4.74865 18.1008 11.8047 21.5042 12.1072 21.6471C12.2169 21.7003 12.3449 21.7003 12.4545 21.6471C12.7542 21.5042 19.8187 18.1036 20.4349 14.521C20.8977 11.7991 20.892 5.56511 20.8915 5.03048ZM20.0764 5.46499C20.0708 7.01401 20.0232 12.084 19.631 14.3782C19.1352 17.2605 13.3621 20.2773 12.2753 20.8207C11.194 20.2773 5.42652 17.2633 4.93072 14.381C4.53016 12.0868 4.48254 7.02801 4.47694 5.47059C6.27526 5.61345 7.35649 4.89916 8.40691 4.19888L8.41145 4.19584C9.42404 3.51892 10.4684 2.82073 12.2753 2.82073H12.2809C14.0876 2.82353 15.1352 3.52101 16.1464 4.19888C17.1884 4.89636 18.2697 5.61345 20.0764 5.46499ZM12.2781 15.0056C13.8159 15.0056 14.2584 14.4118 14.2584 12.3557C14.2584 11.0672 14.0652 10.3725 13.6198 10.0336C13.3285 9.81513 12.8887 9.70588 12.2781 9.70588C11.6618 9.70588 11.2192 9.81513 10.9279 10.0392C10.4853 10.381 10.2977 11.0756 10.2977 12.3557C10.2977 14.4118 10.7402 15.0056 12.2781 15.0056ZM10.9111 8.93277C10.9111 8.53782 10.9111 8.19888 12.2809 8.19888C13.6506 8.19888 13.6506 8.53782 13.6506 8.92997C13.6506 9.0028 13.645 9.06443 13.6366 9.11765C13.2669 8.96639 12.8215 8.88515 12.2781 8.88515C11.7374 8.88515 11.2949 8.96639 10.9251 9.11765C10.9167 9.06443 10.9111 9.0056 10.9111 8.93277ZM15.7963 11.5798C16.0204 11.5798 16.2024 11.7647 16.2024 11.9888V12.7479C16.2024 12.9748 16.0204 13.1569 15.7963 13.1569C15.5694 13.1569 15.3873 12.972 15.3901 12.7479V12.3978H15.0736C15.0708 13.0616 15.0091 13.6471 14.8635 14.1429L15.6702 14.3894C15.8495 14.4454 15.9671 14.6162 15.9559 14.8039L15.8971 15.9468C15.8859 16.1653 15.7094 16.3361 15.4909 16.3361H15.4685C15.2444 16.3221 15.0708 16.1289 15.082 15.9048L15.1268 15.0812L14.5218 14.8964C14.11 15.4846 13.4181 15.8235 12.2781 15.8235C11.1352 15.8235 10.4405 15.4818 10.0316 14.8908L9.40971 15.0812L9.45173 15.9048C9.46293 16.1289 9.29206 16.3221 9.06797 16.3361H9.04556C8.82708 16.3361 8.65061 16.1653 8.6394 15.9468L8.58058 14.8039C8.56937 14.6162 8.68982 14.4454 8.86909 14.3894L9.69542 14.1373C9.54977 13.6415 9.49094 13.0616 9.48814 12.3978H9.17162V12.7479C9.17162 12.9748 8.98954 13.1569 8.76545 13.1569C8.53856 13.1569 8.35649 12.972 8.35929 12.7479V11.9888C8.35929 11.7619 8.54136 11.5798 8.76545 11.5798H9.51615C9.55257 11.0644 9.65341 10.563 9.85789 10.1345L8.8719 9.83193C8.69262 9.77591 8.57218 9.60504 8.58338 9.41737L8.6394 8.27451C8.65061 8.04762 8.84668 7.86555 9.06797 7.88515C9.29206 7.89636 9.46293 8.08964 9.45173 8.31653L9.40971 9.13725L10.1492 9.36415C10.1156 9.22129 10.0988 9.07563 10.0988 8.92717C10.0988 7.95238 10.6758 7.59104 11.2837 7.45378L11.2136 7.38095C11.054 7.22129 11.054 6.96078 11.2136 6.80112C11.3705 6.64146 11.6254 6.64146 11.7823 6.79552L11.7879 6.80112L12.1604 7.17367C12.2108 7.22969 12.2472 7.29692 12.2613 7.36975H12.2697C12.2837 7.29692 12.3201 7.22689 12.3705 7.17367L12.7402 6.80112C12.8971 6.64146 13.152 6.63866 13.3089 6.79552C13.3099 6.79659 13.311 6.79725 13.3119 6.79781C13.3134 6.79873 13.3145 6.79939 13.3145 6.80112C13.4741 6.96078 13.4741 7.22129 13.3145 7.38095L13.2472 7.44818C13.8635 7.57703 14.4629 7.93557 14.4629 8.92717C14.4629 9.08403 14.4433 9.22129 14.4125 9.35294L15.124 9.13445L15.082 8.31373C15.0708 8.08964 15.2416 7.89636 15.4657 7.88235C15.687 7.86835 15.8775 8.03641 15.8915 8.2577V8.26891L15.9531 9.41176C15.9643 9.59944 15.8467 9.77031 15.6674 9.82633L14.6982 10.1232C14.9055 10.5518 15.0035 11.056 15.0428 11.5714C15.0456 11.5798 15.7963 11.5798 15.7963 11.5798ZM12.6534 11.1401C12.6534 10.916 12.4713 10.7311 12.2472 10.7311C12.0232 10.7339 11.8411 10.916 11.8411 11.1429V13.9832C11.8383 14.2073 12.0204 14.3922 12.2472 14.3922C12.4713 14.3922 12.6534 14.2101 12.6534 13.9832V11.1401Z" fill="#313235"/>
</svg>
