<svg width="24" height="24" viewBox="0 0 24 24" fill="none" xmlns="http://www.w3.org/2000/svg">
<path fill-rule="evenodd" clip-rule="evenodd" d="M20.9047 5.18021L20.9047 5.14845C20.9019 4.96918 20.8094 4.80392 20.6806 4.68907C20.5433 4.57142 20.35 4.5238 20.1764 4.55182C18.5535 4.80923 17.7021 4.23938 16.6282 3.52063L16.6246 3.5182C15.5657 2.80672 14.3641 2.0028 12.2996 2H12.294C10.2296 2 9.02513 2.80392 7.96631 3.5154L7.95228 3.52482C6.8833 4.24307 6.03775 4.8112 4.4369 4.55462C4.25483 4.5098 4.06435 4.55182 3.91589 4.66666C3.76744 4.78151 3.6806 4.96078 3.6806 5.14845L3.68058 5.17557C3.68009 5.69967 3.6744 11.8177 4.13718 14.4986C4.74783 18.0504 11.2884 21.2717 12.0335 21.6274C12.1176 21.6666 12.2044 21.6862 12.294 21.6862C12.3809 21.6862 12.4705 21.6666 12.5517 21.6274C13.2968 21.2717 19.8458 18.0504 20.4565 14.4986C20.9125 11.8255 20.9053 5.73522 20.9047 5.18028V5.18026V5.18021ZM19.6862 5.83753C19.6806 7.57422 19.6189 12.1624 19.2576 14.2885C18.8514 16.661 14.3164 19.3781 12.2884 20.3921C10.2632 19.3809 5.73662 16.661 5.32766 14.2885C4.96071 12.1652 4.89909 7.57422 4.89068 5.83753C6.55773 5.93137 7.5857 5.24199 8.58285 4.57327L8.62737 4.54341C9.63577 3.86554 10.5853 3.22969 12.2856 3.22969H12.2912C13.9915 3.23249 14.9411 3.86834 15.9467 4.54341C16.9607 5.22128 18.0111 5.91876 19.6862 5.83753ZM12.2912 14.8011C13.8542 14.8011 14.28 14.2185 14.28 12.0896C14.28 10.7563 14.0923 10.042 13.647 9.70306C13.3585 9.48458 12.9159 9.37814 12.2884 9.37814C11.6582 9.37814 11.21 9.48738 10.9243 9.70867C10.4873 10.0476 10.2996 10.7591 10.2996 12.0896C10.3024 14.2185 10.7282 14.8011 12.2912 14.8011ZM10.9607 8.41455C10.9607 8.0336 10.9607 7.75909 12.294 7.75909C13.6253 7.75909 13.6274 8.03277 13.6301 8.41283L13.6302 8.41455C13.6302 8.41875 13.6295 8.42155 13.6288 8.42436L13.6288 8.42436C13.6281 8.42716 13.6274 8.42996 13.6274 8.43416C13.2492 8.30531 12.8122 8.23528 12.2912 8.23528C11.7758 8.23528 11.3416 8.30251 10.9635 8.43136C10.9635 8.42856 10.9628 8.42576 10.9621 8.42296L10.9621 8.42296L10.9621 8.42295C10.9614 8.42015 10.9607 8.41735 10.9607 8.41455ZM15.1624 7.76189C15.1456 7.44537 15.3837 7.17646 15.6974 7.15965C16.0167 7.16245 16.2772 7.38374 16.294 7.70307L16.3584 8.92996C16.3725 9.19326 16.2072 9.43136 15.9579 9.50979L15.0699 9.7843C15.2408 10.1933 15.3304 10.6554 15.3753 11.126H16.0559C16.3696 11.126 16.6246 11.3837 16.6246 11.7003V12.5154C16.6246 12.8319 16.3696 13.0896 16.0559 13.0896C15.7422 13.0896 15.4901 12.8319 15.4901 12.5154V12.2745H15.4117C15.4061 12.8571 15.3612 13.4229 15.2268 13.9299L15.9579 14.154C16.2072 14.2325 16.3725 14.4706 16.3584 14.7339L16.294 15.9608C16.2772 16.2661 16.0279 16.5042 15.7282 16.5042H15.6974C15.3837 16.4874 15.1456 16.2185 15.1624 15.9019L15.2044 15.1232L14.7394 14.9804C14.2828 15.577 13.5265 15.9552 12.2912 15.9552C11.0503 15.9552 10.2968 15.5742 9.84025 14.9748L9.35566 15.1232L9.39768 15.9019C9.41448 16.2185 9.17359 16.4874 8.86266 16.5042H8.83185C8.53213 16.5042 8.28283 16.2661 8.26603 15.9608L8.2016 14.7339C8.18759 14.4706 8.35286 14.2325 8.60216 14.154L9.35286 13.9243C9.22121 13.4201 9.17639 12.8571 9.17078 12.2773H9.09235V12.5182C9.09235 12.8347 8.83745 13.0924 8.52653 13.0924C8.2128 13.0924 7.9579 12.8347 7.9579 12.5182V11.7031C7.9579 11.3865 8.2128 11.1288 8.52653 11.1288H9.2072C9.25202 10.6582 9.33885 10.2017 9.50972 9.7927L8.60216 9.51259C8.35286 9.43416 8.18759 9.19606 8.2016 8.93276L8.26603 7.70587C8.28283 7.38934 8.55454 7.17086 8.86266 7.16245C9.17639 7.17926 9.41448 7.45097 9.39768 7.76469L9.35566 8.5434L9.85146 8.69746C9.84922 8.67363 9.84659 8.64959 9.84393 8.62531C9.83659 8.55827 9.82905 8.48932 9.82905 8.41735C9.82905 7.39495 10.3865 6.96357 11.0055 6.7703C10.8515 6.54901 10.8627 6.24089 11.0587 6.04201C11.28 5.81792 11.6386 5.81792 11.8599 6.04201L12.2576 6.44257C12.2618 6.44677 12.2646 6.45237 12.2674 6.45797C12.2702 6.46358 12.273 6.46918 12.2772 6.47338C12.2802 6.46936 12.2825 6.46533 12.2848 6.46144C12.2887 6.45449 12.2924 6.44795 12.2996 6.44257L12.6974 6.04201C12.9187 5.81792 13.2772 5.81792 13.4985 6.04201C13.6946 6.23809 13.7058 6.53781 13.5601 6.76189C14.1904 6.94677 14.7674 7.37814 14.7674 8.41735C14.7674 8.50994 14.7568 8.59459 14.7459 8.68159L14.745 8.68906L15.21 8.5462L15.1624 7.76189ZM12.8234 10.7871C12.8234 10.4706 12.5713 10.2129 12.2576 10.2129C11.9467 10.2129 11.6918 10.4706 11.6918 10.7871V13.8403C11.6918 14.1568 11.9439 14.4145 12.2576 14.4145C12.5713 14.4145 12.8234 14.1568 12.8234 13.8403V10.7871Z" fill="#313235"/>
</svg>
