<svg width="24" height="24" viewBox="0 0 24 24" fill="none" xmlns="http://www.w3.org/2000/svg">
<path fill-rule="evenodd" clip-rule="evenodd" d="M20.5993 5.15905L20.5993 5.18673C20.5998 5.72136 20.6055 11.9554 20.1427 14.6773C19.5265 18.2599 12.4621 21.6605 12.1623 21.8033C12.0527 21.8565 11.9247 21.8565 11.815 21.8033C11.5125 21.6605 4.45645 18.2599 3.8402 14.6773C3.36753 11.9615 3.37456 5.74922 3.37519 5.1904L3.37522 5.15905C3.37802 4.93216 3.56289 4.75009 3.78698 4.75289C3.8178 4.75289 3.84861 4.75569 3.87942 4.76409C5.62421 5.03855 6.57096 4.40578 7.66875 3.67205L7.66934 3.67166C8.72816 2.96017 9.92984 2.15625 11.9831 2.15625H11.9887C14.0393 2.15905 15.2405 2.96093 16.3011 3.66895L16.3052 3.67166L16.3139 3.67749C17.4055 4.40613 18.3519 5.03787 20.0979 4.76409C20.2184 4.74729 20.3416 4.7781 20.4396 4.85373C20.5321 4.92656 20.5909 5.0386 20.5993 5.15905ZM19.3416 14.5372C19.7338 12.2431 19.7814 7.17026 19.7842 5.62124C17.9829 5.77715 16.9093 5.0614 15.8732 4.3706L15.8542 4.35793C14.843 3.68006 13.7954 2.97978 11.9887 2.97978H11.9831C10.1763 2.97978 9.12872 3.68006 8.11471 4.35793C7.06429 5.05541 5.96625 5.7697 4.18754 5.62684C4.19315 7.18426 4.24357 12.2459 4.63852 14.5344C5.13432 17.4196 10.9046 20.4308 11.9859 20.9742C13.0671 20.4336 18.843 17.4196 19.3416 14.5372ZM16.2772 8.91535C16.1203 8.75849 15.8626 8.75849 15.7058 8.91815L10.4593 14.2095L8.26317 11.9938L8.26037 11.991C8.10351 11.8341 7.84581 11.8341 7.68894 11.9938C7.52928 12.1534 7.52928 12.414 7.68894 12.5736L10.1735 15.0806L10.1763 15.0834C10.336 15.2403 10.5909 15.2403 10.7478 15.0806L16.28 9.49799C16.4396 9.33832 16.4396 9.07782 16.28 8.91815L16.2772 8.91535Z" fill="#313235"/>
</svg>
