<svg width="24" height="24" viewBox="0 0 24 24" fill="none" xmlns="http://www.w3.org/2000/svg">
<path fill-rule="evenodd" clip-rule="evenodd" d="M20.9048 5.14846L20.9048 5.17604V5.17607C20.9053 5.70353 20.911 11.8186 20.4566 14.4986C19.8459 18.0504 13.2941 21.2717 12.5518 21.6274C12.3866 21.7059 12.1961 21.7059 12.0336 21.6274C11.2885 21.2717 4.7451 18.0504 4.13445 14.4986C3.67167 11.8178 3.67736 5.69968 3.67785 5.17557L3.67787 5.14846C3.67787 4.81232 3.94958 4.53781 4.28851 4.53781C4.33613 4.53781 4.38655 4.54342 4.43417 4.55462C6.02913 4.81304 6.87434 4.24729 7.93776 3.53549L7.96358 3.51821C9.02241 2.80392 10.2241 2 12.2885 2H12.2941C14.3585 2.0028 15.5602 2.80672 16.619 3.51821L16.6227 3.52064C17.6966 4.23938 18.548 4.80923 20.1709 4.55182C20.3501 4.52381 20.5322 4.57423 20.6751 4.68907C20.8151 4.80112 20.8964 4.96919 20.9048 5.14846ZM12.2913 14.8011C10.7283 14.8011 10.3025 14.2185 10.3025 12.0896C10.3025 10.7619 10.4874 10.0476 10.9272 9.70868C11.2129 9.48739 11.6611 9.37815 12.2941 9.37815C12.9188 9.37815 13.3641 9.48459 13.6527 9.70308C14.0952 10.042 14.2829 10.7563 14.2829 12.0896C14.2801 14.2185 13.8543 14.8011 12.2913 14.8011ZM13.6274 8.41456C13.6274 8.03361 13.6274 7.7591 12.2941 7.7591C10.9628 7.7591 10.9608 8.03278 10.958 8.41284L10.958 8.41456L10.9608 8.43137C11.3361 8.30532 11.7731 8.23529 12.2885 8.23529C12.8095 8.23529 13.2465 8.30532 13.6246 8.43417C13.6274 8.42577 13.6274 8.42297 13.6274 8.41456ZM15.1625 7.7619L15.2045 8.54061L14.7423 8.68347L14.7432 8.67598V8.67597C14.7541 8.58898 14.7647 8.50434 14.7647 8.41176C14.7647 7.37255 14.1877 6.94117 13.5574 6.7535C13.7115 6.52941 13.6863 6.22969 13.4958 6.03361C13.2801 5.81232 12.9244 5.80952 12.7031 6.02521L12.6947 6.03361L12.2997 6.43417C12.2958 6.43807 12.2931 6.44257 12.2902 6.4474C12.2869 6.45298 12.2833 6.45898 12.2773 6.46498C12.2736 6.46004 12.271 6.45509 12.2685 6.45038C12.2653 6.44443 12.2624 6.43886 12.2577 6.43417L11.8599 6.03361C11.6443 5.81232 11.2885 5.80952 11.0672 6.02521L11.0588 6.03361C10.8655 6.23249 10.8431 6.53781 11.0056 6.7619C10.3894 6.95518 9.83193 7.38655 9.83193 8.40896C9.83193 8.507 9.84313 8.59944 9.85434 8.68907L9.35854 8.53501L9.40056 7.7563C9.41736 7.44257 9.17927 7.17367 8.86554 7.15406C8.55742 7.15966 8.28571 7.38095 8.26891 7.69748L8.20448 8.92437C8.19047 9.18767 8.35574 9.42577 8.60504 9.5042L9.5126 9.78431C9.34173 10.1933 9.2521 10.6527 9.21008 11.1204H8.52941C8.21568 11.1204 7.96078 11.3781 7.96078 11.6919V12.507C7.96078 12.8235 8.21568 13.0812 8.52941 13.0812C8.84033 13.0812 9.09524 12.8235 9.09524 12.507V12.2661H9.17367C9.17927 12.8459 9.22689 13.409 9.35574 13.9132L8.60504 14.1457C8.35574 14.2241 8.19047 14.4622 8.20448 14.7227L8.26891 15.9496C8.28571 16.2549 8.53501 16.493 8.83473 16.493H8.86554C9.17647 16.4762 9.41736 16.2073 9.40056 15.8908L9.35854 15.112L9.84313 14.9636C10.2997 15.563 11.0532 15.944 12.2941 15.944C13.5294 15.944 14.2829 15.5658 14.7423 14.9692L15.2073 15.112L15.1653 15.8908C15.1485 16.2045 15.3865 16.4734 15.7003 16.493H15.7311C16.0336 16.4902 16.2829 16.2521 16.2969 15.9496L16.3613 14.7227C16.3753 14.4594 16.2101 14.2213 15.9608 14.1457L15.2297 13.9216C15.3613 13.4174 15.409 12.8515 15.4146 12.2661H15.493V12.507C15.493 12.8235 15.7479 13.0812 16.0588 13.0812C16.3725 13.0812 16.6274 12.8235 16.6274 12.5098V11.6919C16.6302 11.3781 16.3753 11.1204 16.0616 11.1176H15.3753C15.3305 10.6471 15.2437 10.1849 15.07 9.77591L15.958 9.5014C16.2101 9.42297 16.3753 9.18487 16.3585 8.92157L16.2941 7.69468C16.2773 7.37815 16.0168 7.15406 15.6975 7.15126C15.3837 7.17647 15.1457 7.44818 15.1625 7.7619ZM11.6947 10.7843C11.6919 10.4706 11.9468 10.2129 12.2605 10.2129C12.5742 10.2157 12.8263 10.4734 12.8263 10.7843V13.8375C12.8263 14.1513 12.5742 14.409 12.2605 14.409C11.9468 14.409 11.6947 14.1541 11.6947 13.8375V10.7843Z" fill="#313235"/>
</svg>
