<svg width="24" height="24" viewBox="0 0 24 24" fill="none" xmlns="http://www.w3.org/2000/svg">
<path fill-rule="evenodd" clip-rule="evenodd" d="M20.9047 5.14005L20.9047 5.17181V5.17185C20.9054 5.72694 20.9125 11.8255 20.4565 14.5014C19.8347 18.112 12.8459 21.4874 12.549 21.6302C12.4678 21.6694 12.3809 21.6862 12.2941 21.6862C12.2073 21.6862 12.1204 21.6666 12.0392 21.6274C11.7423 21.4874 4.75909 18.1092 4.13724 14.5014C3.66105 11.7563 3.67786 5.40896 3.68066 5.14005C3.68066 4.95518 3.76749 4.78151 3.91035 4.66666C4.05601 4.55182 4.24368 4.5154 4.42015 4.55742C6.02929 4.81164 6.88058 4.24115 7.95493 3.52119L7.96356 3.5154C9.02519 2.80392 10.2269 2 12.2913 2H12.2997C14.3634 2.0028 15.5622 2.8062 16.6236 3.51751L16.6246 3.5182C17.703 4.24089 18.5574 4.81232 20.1904 4.55742C20.3613 4.52941 20.5518 4.57703 20.6834 4.69187C20.8123 4.80111 20.9019 4.96638 20.9047 5.14005ZM19.2801 14.2941C19.6442 12.1596 19.703 7.54341 19.7114 5.81512C18.0308 5.89635 16.9776 5.20167 15.9607 4.521L15.9579 4.51907C14.9505 3.84472 13.9983 3.20728 12.2941 3.20448H12.2885C10.5829 3.20448 9.63059 3.84289 8.6196 4.52062L8.61903 4.521C7.60502 5.19887 6.56301 5.89355 4.87113 5.81512C4.87954 7.54341 4.93836 12.1596 5.30811 14.2941C5.71987 16.6806 10.2661 19.4033 12.2913 20.4145C14.3193 19.4033 18.8711 16.675 19.2801 14.2941ZM15.7871 8.68346L10.8039 13.7255L8.8039 11.6947C8.57141 11.4594 8.19326 11.4594 7.96076 11.6947C7.72827 11.93 7.72827 12.3109 7.96076 12.5462L10.3865 15.0028C10.4958 15.1148 10.6498 15.1792 10.8067 15.1792C10.9636 15.1792 11.1148 15.1148 11.2269 15.0028L16.6302 9.535C16.8627 9.2997 16.8627 8.91875 16.6302 8.68346C16.3977 8.44817 16.0196 8.44817 15.7871 8.68346Z" fill="#313235"/>
</svg>
