<svg width="24" height="24" viewBox="0 0 24 24" fill="none" xmlns="http://www.w3.org/2000/svg">
<path fill-rule="evenodd" clip-rule="evenodd" d="M20.4708 4.85373C20.5661 4.92936 20.6249 5.0414 20.6333 5.16465C20.6333 5.1707 20.6333 5.17982 20.6333 5.1919C20.6338 5.72211 20.6395 11.9549 20.1739 14.6773C19.5577 18.2599 12.496 21.6605 12.1935 21.8033C12.1921 21.8047 12.1914 21.8047 12.1907 21.8047C12.19 21.8047 12.1893 21.8047 12.1879 21.8061C12.1347 21.8313 12.0759 21.8453 12.017 21.8453C11.9582 21.8453 11.9022 21.8313 11.849 21.8061C11.8476 21.8047 11.8462 21.8047 11.8448 21.8047C11.8434 21.8047 11.842 21.8047 11.8406 21.8033C11.5408 21.6605 4.48762 18.2599 3.87138 14.6773C3.40025 11.9573 3.40589 5.72328 3.40637 5.19187C3.40638 5.17984 3.40639 5.17073 3.40639 5.16465C3.40919 5.0386 3.46522 4.91815 3.56325 4.83972C3.66129 4.76129 3.79015 4.73048 3.91339 4.75849C5.65112 5.03976 6.59425 4.41015 7.6814 3.68441L7.70051 3.67166C8.76213 2.96017 9.96382 2.15625 12.017 2.15625H12.0226C14.0759 2.15905 15.2803 2.96297 16.3392 3.67166L16.3484 3.67787C17.437 4.40634 18.3805 5.03782 20.1207 4.76129C20.2467 4.74168 20.3728 4.7753 20.4708 4.85373ZM11.6053 3.01059C10.0535 3.11143 9.08706 3.74449 8.15709 4.36633C7.10947 5.06942 6.01984 5.79491 4.23552 5.64084C4.24113 6.64645 4.26353 9.08062 4.38118 11.3019H11.6053V3.01059ZM4.68931 14.5316C4.58006 13.9013 4.49883 13.0582 4.4344 12.1394H11.6053V20.7445C9.9218 19.8621 5.14029 17.145 4.68931 14.5316ZM12.4344 20.7445V12.1394H19.6081C19.5464 13.0582 19.4652 13.9041 19.356 14.5316C18.9078 17.145 14.1179 19.8621 12.4344 20.7445ZM19.8042 5.63524C19.8013 6.63524 19.7789 9.07782 19.6613 11.3019H12.4344V3.01339C13.9862 3.11143 14.9526 3.74729 15.8798 4.36914C16.9218 5.06381 18.0002 5.7809 19.8042 5.63524Z" fill="#313235"/>
</svg>
