<svg width="24" height="24" viewBox="0 0 24 24" fill="none" xmlns="http://www.w3.org/2000/svg">
<path fill-rule="evenodd" clip-rule="evenodd" d="M12.1011 21.6471C12.1571 21.6723 12.2187 21.6863 12.2803 21.6863C12.342 21.6863 12.4008 21.6723 12.4596 21.6471C12.7593 21.5042 19.821 18.1064 20.4372 14.521C20.9 11.8019 20.8943 5.57061 20.8938 5.03608C20.8938 5.02382 20.8938 5.01456 20.8938 5.0084C20.8854 4.88796 20.8266 4.77311 20.7313 4.69748C20.6333 4.61905 20.5072 4.58543 20.384 4.60504C18.6338 4.87668 17.6926 4.24684 16.6006 3.516L16.5997 3.51541C15.5409 2.80672 14.3392 2.0028 12.286 2H12.2775C10.2243 2 9.02265 2.80392 7.96102 3.51541L7.95436 3.51986C6.86195 4.24906 5.91828 4.87899 4.18231 4.60224C4.1487 4.59384 4.11228 4.59104 4.07867 4.59104C3.84898 4.59384 3.6641 4.77871 3.66691 5.0084C3.66691 5.01516 3.66689 5.02566 3.66688 5.03975C3.66625 5.59847 3.65922 11.8079 4.13189 14.521C4.75094 18.1036 11.8042 21.5042 12.1011 21.6471ZM4.94982 14.3753C4.55206 12.0924 4.50444 7.05042 4.49884 5.48459C6.28315 5.63305 7.36719 4.91317 8.41761 4.21289C9.42881 3.53501 10.4736 2.83754 12.2775 2.83754H12.2832C14.0843 2.84034 15.1319 3.53782 16.1403 4.21289L16.1531 4.22144C17.1883 4.91064 18.2514 5.61846 20.0619 5.47619C20.0563 7.03361 20.0086 12.0868 19.6193 14.3753C19.1235 17.2493 13.37 20.2549 12.2804 20.8011C11.1907 20.2577 5.44562 17.2521 4.94982 14.3753Z" fill="#313235"/>
</svg>
