<svg width="24" height="24" viewBox="0 0 24 24" fill="none" xmlns="http://www.w3.org/2000/svg">
<path fill-rule="evenodd" clip-rule="evenodd" d="M20.9047 5.14846L20.9047 5.17604V5.17607C20.9052 5.70353 20.9109 11.8186 20.4565 14.4986C19.8459 18.0504 13.294 21.2717 12.5517 21.6274C12.3865 21.7059 12.196 21.7059 12.0335 21.6274C11.2884 21.2717 4.74502 18.0504 4.13438 14.4986C3.6716 11.8178 3.67729 5.69968 3.67778 5.17557L3.6778 5.14846C3.6778 4.81232 3.94951 4.53781 4.28844 4.53781C4.33606 4.53781 4.38648 4.54342 4.4341 4.55462C6.02906 4.81304 6.87427 4.24729 7.93769 3.53549L7.96351 3.51821C9.02233 2.80392 10.224 2 12.2884 2H12.294C14.3585 2.0028 15.5601 2.80672 16.619 3.51821L16.6226 3.52064C17.6965 4.23938 18.548 4.80923 20.1708 4.55182C20.3501 4.52381 20.5321 4.57423 20.675 4.68907C20.815 4.80112 20.8963 4.96919 20.9047 5.14846ZM12.2912 14.8011C10.7282 14.8011 10.3024 14.2185 10.3024 12.0896C10.3024 10.7619 10.4873 10.0476 10.9271 9.70868C11.2128 9.48739 11.661 9.37815 12.294 9.37815C12.9187 9.37815 13.3641 9.48459 13.6526 9.70308C14.0952 10.042 14.2828 10.7563 14.2828 12.0896C14.28 14.2185 13.8543 14.8011 12.2912 14.8011ZM13.6274 8.41456C13.6274 8.03361 13.6274 7.7591 12.294 7.7591C10.9627 7.7591 10.9607 8.03278 10.9579 8.41284L10.9579 8.41456L10.9607 8.43137C11.3361 8.30532 11.773 8.23529 12.2884 8.23529C12.8094 8.23529 13.2464 8.30532 13.6246 8.43417C13.6274 8.42577 13.6274 8.42297 13.6274 8.41456ZM15.1624 7.7619L15.2044 8.54061L14.7422 8.68347L14.7432 8.67598V8.67597C14.754 8.58898 14.7646 8.50434 14.7646 8.41176C14.7646 7.37255 14.1876 6.94117 13.5573 6.7535C13.7114 6.52941 13.6862 6.22969 13.4957 6.03361C13.28 5.81232 12.9243 5.80952 12.703 6.02521L12.6946 6.03361L12.2996 6.43417C12.2957 6.43807 12.2931 6.44257 12.2902 6.4474C12.2868 6.45298 12.2832 6.45898 12.2772 6.46498C12.2735 6.46004 12.2709 6.45509 12.2684 6.45038C12.2653 6.44443 12.2623 6.43886 12.2576 6.43417L11.8599 6.03361C11.6442 5.81232 11.2884 5.80952 11.0672 6.02521L11.0587 6.03361C10.8655 6.23249 10.8431 6.53781 11.0055 6.7619C10.3893 6.95518 9.83186 7.38655 9.83186 8.40896C9.83186 8.507 9.84306 8.59944 9.85427 8.68907L9.35847 8.53501L9.40048 7.7563C9.41729 7.44257 9.1792 7.17367 8.86547 7.15406C8.55735 7.15966 8.28564 7.38095 8.26883 7.69748L8.20441 8.92437C8.1904 9.18767 8.35567 9.42577 8.60497 9.5042L9.51253 9.78431C9.34166 10.1933 9.25203 10.6527 9.21001 11.1204H8.52934C8.21561 11.1204 7.96071 11.3781 7.96071 11.6919V12.507C7.96071 12.8235 8.21561 13.0812 8.52934 13.0812C8.84026 13.0812 9.09516 12.8235 9.09516 12.507V12.2661H9.17359C9.1792 12.8459 9.22682 13.409 9.35567 13.9132L8.60497 14.1457C8.35567 14.2241 8.1904 14.4622 8.20441 14.7227L8.26883 15.9496C8.28564 16.2549 8.53494 16.493 8.83466 16.493H8.86547C9.1764 16.4762 9.41729 16.2073 9.40048 15.8908L9.35847 15.112L9.84306 14.9636C10.2996 15.563 11.0531 15.944 12.294 15.944C13.5293 15.944 14.2828 15.5658 14.7422 14.9692L15.2072 15.112L15.1652 15.8908C15.1484 16.2045 15.3865 16.4734 15.7002 16.493H15.731C16.0335 16.4902 16.2828 16.2521 16.2968 15.9496L16.3613 14.7227C16.3753 14.4594 16.21 14.2213 15.9607 14.1457L15.2296 13.9216C15.3613 13.4174 15.4089 12.8515 15.4145 12.2661H15.4929V12.507C15.4929 12.8235 15.7478 13.0812 16.0587 13.0812C16.3725 13.0812 16.6274 12.8235 16.6274 12.5098V11.6919C16.6302 11.3781 16.3753 11.1204 16.0615 11.1176H15.3753C15.3305 10.6471 15.2436 10.1849 15.07 9.77591L15.9579 9.5014C16.21 9.42297 16.3753 9.18487 16.3585 8.92157L16.294 7.69468C16.2772 7.37815 16.0167 7.15406 15.6974 7.15126C15.3837 7.17647 15.1456 7.44818 15.1624 7.7619ZM11.6946 10.7843C11.6918 10.4706 11.9467 10.2129 12.2604 10.2129C12.5742 10.2157 12.8263 10.4734 12.8263 10.7843V13.8375C12.8263 14.1513 12.5742 14.409 12.2604 14.409C11.9467 14.409 11.6946 14.1541 11.6946 13.8375V10.7843Z" fill="#313235"/>
</svg>
