<svg width="24" height="24" viewBox="0 0 24 24" fill="none" xmlns="http://www.w3.org/2000/svg">
<path fill-rule="evenodd" clip-rule="evenodd" d="M20.675 4.68907C20.8094 4.80392 20.9047 4.96918 20.9047 5.14845C20.9047 5.15448 20.9047 5.16355 20.9047 5.17557C20.9052 5.69968 20.9109 11.8177 20.4481 14.4958C19.8374 18.0476 13.2884 21.2689 12.5433 21.6246C12.5419 21.626 12.5398 21.626 12.5377 21.626C12.5356 21.626 12.5335 21.626 12.5321 21.6274C12.4565 21.661 12.3725 21.6834 12.2856 21.6834C12.196 21.6834 12.112 21.6638 12.0363 21.6274C12.0349 21.626 12.0335 21.626 12.0321 21.626C12.0307 21.626 12.0293 21.626 12.0279 21.6246C11.2828 21.2689 4.74223 18.0476 4.13158 14.4958C3.6688 11.8177 3.67449 5.69696 3.67498 5.17277C3.67499 5.16075 3.675 5.15168 3.675 5.14565C3.6778 4.95798 3.76464 4.78151 3.91029 4.66386C4.05875 4.54901 4.25203 4.5098 4.4313 4.55462C6.03354 4.80672 6.88228 4.23809 7.9579 3.5154C9.01953 2.80392 10.2212 2 12.2856 2H12.294C14.3585 2 15.5601 2.80392 16.619 3.5154C17.6946 4.23809 18.5489 4.80672 20.1708 4.55182C20.3444 4.5238 20.5405 4.57422 20.675 4.68907ZM11.6862 3.2577C10.3501 3.38935 9.51252 3.94958 8.63297 4.54061C7.62177 5.21848 6.57135 5.92156 4.89349 5.83473C4.90189 6.88795 4.9243 8.98878 5.02514 10.9552H11.6862V3.2577ZM5.33046 14.2885C5.23242 13.7283 5.15679 12.9916 5.09797 12.1849H11.6834V20.0728C9.48171 18.8879 5.70301 16.4481 5.33046 14.2885ZM12.8991 20.0728V12.1849H19.4873C19.4285 12.9916 19.3556 13.7283 19.2604 14.2885C18.8879 16.4481 15.1035 18.8879 12.8991 20.0728ZM19.689 5.83473C19.6834 6.88795 19.661 8.98878 19.5601 10.9552H12.8991V3.2577C14.2243 3.38855 15.0597 3.94553 15.9362 4.52986L15.9523 4.54061L15.9656 4.54953C16.9698 5.22466 18.0101 5.92397 19.689 5.83473Z" fill="#313235"/>
</svg>
