<svg width="24" height="24" viewBox="0 0 24 24" fill="none" xmlns="http://www.w3.org/2000/svg">
<path fill-rule="evenodd" clip-rule="evenodd" d="M11.7281 21.6274C11.8093 21.6666 11.8989 21.6862 11.9858 21.6862C12.0726 21.6862 12.1622 21.6666 12.2435 21.6302C12.9886 21.2745 19.5376 18.0532 20.1482 14.5014C20.6026 11.8213 20.5969 5.70609 20.5964 5.17884C20.5964 5.16659 20.5964 5.15736 20.5964 5.15125C20.5964 4.97198 20.504 4.80672 20.3695 4.68907C20.2351 4.57142 20.0418 4.5238 19.8681 4.55182C18.2435 4.80672 17.3919 4.24089 16.3163 3.5182C15.2575 2.80672 14.0558 2.0028 11.9914 2H11.983C9.91855 2 8.71687 2.80392 7.65525 3.5154L7.64119 3.52485C6.57223 4.24308 5.7267 4.8112 4.13145 4.55462C3.95218 4.5098 3.7589 4.54901 3.61044 4.66386C3.46198 4.78151 3.37515 4.95798 3.37515 5.14845C3.37515 5.15448 3.37514 5.16355 3.37513 5.17557C3.37464 5.69967 3.36895 11.8177 3.83173 14.4986C4.44237 18.0504 10.983 21.2717 11.7281 21.6274ZM5.025 14.2857C4.65806 12.1624 4.59643 7.57142 4.58803 5.83473C6.24953 5.93475 7.29921 5.23004 8.30567 4.55435L8.33032 4.53781C9.33592 3.86274 10.2883 3.22409 11.9858 3.22409H11.9914C13.6917 3.22689 14.6412 3.86274 15.6468 4.53781C16.658 5.21568 17.7113 5.91596 19.3835 5.83192C19.3751 7.56862 19.3163 12.1596 18.9549 14.2857C18.546 16.6582 14.011 19.3753 11.9858 20.3865C9.96057 19.3781 5.43397 16.661 5.025 14.2857Z" fill="#313235"/>
</svg>
