<svg width="24" height="24" viewBox="0 0 24 24" fill="none" xmlns="http://www.w3.org/2000/svg">
<path fill-rule="evenodd" clip-rule="evenodd" d="M20.9048 5.18021L20.9047 5.14845C20.9019 4.96918 20.8095 4.80392 20.6806 4.68907C20.5434 4.57142 20.3501 4.5238 20.1764 4.55182C18.5536 4.80923 17.7022 4.23938 16.6283 3.52063L16.6246 3.5182C15.5658 2.80672 14.3641 2.0028 12.2997 2H12.2941C10.2297 2 9.0252 2.80392 7.96638 3.5154L7.95236 3.52482C6.88338 4.24307 6.03782 4.8112 4.43697 4.55462C4.2549 4.5098 4.06443 4.55182 3.91597 4.66666C3.76751 4.78151 3.68067 4.96078 3.68067 5.14845L3.68065 5.17557C3.68017 5.69967 3.67448 11.8177 4.13726 14.4986C4.7479 18.0504 11.2885 21.2717 12.0336 21.6274C12.1176 21.6666 12.2045 21.6862 12.2941 21.6862C12.3809 21.6862 12.4706 21.6666 12.5518 21.6274C13.2969 21.2717 19.8459 18.0504 20.4565 14.4986C20.9125 11.8255 20.9054 5.73522 20.9048 5.18028V5.18026V5.18021ZM19.6862 5.83753C19.6806 7.57422 19.619 12.1624 19.2577 14.2885C18.8515 16.661 14.3165 19.3781 12.2885 20.3921C10.2633 19.3809 5.73669 16.661 5.32773 14.2885C4.96078 12.1652 4.89916 7.57422 4.89076 5.83753C6.55781 5.93137 7.58577 5.24199 8.58292 4.57327L8.62744 4.54341C9.63584 3.86554 10.5854 3.22969 12.2857 3.22969H12.2913C13.9916 3.23249 14.9412 3.86834 15.9468 4.54341C16.9608 5.22128 18.0112 5.91876 19.6862 5.83753ZM12.2913 14.8011C13.8543 14.8011 14.2801 14.2185 14.2801 12.0896C14.2801 10.7563 14.0924 10.042 13.647 9.70306C13.3585 9.48458 12.9159 9.37814 12.2885 9.37814C11.6582 9.37814 11.2101 9.48738 10.9244 9.70867C10.4874 10.0476 10.2997 10.7591 10.2997 12.0896C10.3025 14.2185 10.7283 14.8011 12.2913 14.8011ZM10.9608 8.41455C10.9608 8.0336 10.9608 7.75909 12.2941 7.75909C13.6254 7.75909 13.6274 8.03277 13.6302 8.41283L13.6302 8.41455C13.6302 8.41875 13.6295 8.42155 13.6288 8.42436L13.6288 8.42436C13.6281 8.42716 13.6274 8.42996 13.6274 8.43416C13.2493 8.30531 12.8123 8.23528 12.2913 8.23528C11.7759 8.23528 11.3417 8.30251 10.9636 8.43136C10.9636 8.42856 10.9629 8.42576 10.9622 8.42296L10.9622 8.42296L10.9622 8.42295C10.9615 8.42015 10.9608 8.41735 10.9608 8.41455ZM15.1624 7.76189C15.1456 7.44537 15.3837 7.17646 15.6975 7.15965C16.0168 7.16245 16.2773 7.38374 16.2941 7.70307L16.3585 8.92996C16.3725 9.19326 16.2073 9.43136 15.958 9.50979L15.07 9.7843C15.2409 10.1933 15.3305 10.6554 15.3753 11.126H16.056C16.3697 11.126 16.6246 11.3837 16.6246 11.7003V12.5154C16.6246 12.8319 16.3697 13.0896 16.056 13.0896C15.7423 13.0896 15.4902 12.8319 15.4902 12.5154V12.2745H15.4117C15.4061 12.8571 15.3613 13.4229 15.2269 13.9299L15.958 14.154C16.2073 14.2325 16.3725 14.4706 16.3585 14.7339L16.2941 15.9608C16.2773 16.2661 16.028 16.5042 15.7283 16.5042H15.6975C15.3837 16.4874 15.1456 16.2185 15.1624 15.9019L15.2045 15.1232L14.7395 14.9804C14.2829 15.577 13.5266 15.9552 12.2913 15.9552C11.0504 15.9552 10.2969 15.5742 9.84032 14.9748L9.35573 15.1232L9.39775 15.9019C9.41456 16.2185 9.17366 16.4874 8.86274 16.5042H8.83192C8.5322 16.5042 8.2829 16.2661 8.2661 15.9608L8.20167 14.7339C8.18767 14.4706 8.35293 14.2325 8.60223 14.154L9.35293 13.9243C9.22128 13.4201 9.17646 12.8571 9.17086 12.2773H9.09243V12.5182C9.09243 12.8347 8.83753 13.0924 8.5266 13.0924C8.21288 13.0924 7.95798 12.8347 7.95798 12.5182V11.7031C7.95798 11.3865 8.21288 11.1288 8.5266 11.1288H9.20727C9.25209 10.6582 9.33892 10.2017 9.50979 9.7927L8.60223 9.51259C8.35293 9.43416 8.18767 9.19606 8.20167 8.93276L8.2661 7.70587C8.2829 7.38934 8.55461 7.17086 8.86274 7.16245C9.17646 7.17926 9.41456 7.45097 9.39775 7.76469L9.35573 8.5434L9.85153 8.69746C9.84929 8.67363 9.84666 8.64959 9.84401 8.62531C9.83667 8.55827 9.82912 8.48932 9.82912 8.41735C9.82912 7.39495 10.3865 6.96357 11.0056 6.7703C10.8515 6.54901 10.8627 6.24089 11.0588 6.04201C11.2801 5.81792 11.6386 5.81792 11.8599 6.04201L12.2577 6.44257C12.2619 6.44677 12.2647 6.45237 12.2675 6.45797C12.2703 6.46358 12.2731 6.46918 12.2773 6.47338C12.2803 6.46936 12.2826 6.46533 12.2848 6.46144C12.2888 6.45449 12.2925 6.44795 12.2997 6.44257L12.6975 6.04201C12.9187 5.81792 13.2773 5.81792 13.4986 6.04201C13.6947 6.23809 13.7059 6.53781 13.5602 6.76189C14.1905 6.94677 14.7675 7.37814 14.7675 8.41735C14.7675 8.50994 14.7569 8.59459 14.746 8.68159L14.7451 8.68906L15.2101 8.5462L15.1624 7.76189ZM12.8235 10.7871C12.8235 10.4706 12.5714 10.2129 12.2577 10.2129C11.9468 10.2129 11.6919 10.4706 11.6919 10.7871V13.8403C11.6919 14.1568 11.944 14.4145 12.2577 14.4145C12.5714 14.4145 12.8235 14.1568 12.8235 13.8403V10.7871Z" fill="#313235"/>
</svg>
