<svg width="24" height="24" viewBox="0 0 24 24" fill="none" xmlns="http://www.w3.org/2000/svg">
<path fill-rule="evenodd" clip-rule="evenodd" d="M20.675 4.68907C20.8095 4.80392 20.9047 4.96918 20.9047 5.14845C20.9047 5.15448 20.9047 5.16355 20.9047 5.17557C20.9052 5.69968 20.9109 11.8177 20.4481 14.4958C19.8375 18.0476 13.2885 21.2689 12.5434 21.6246C12.542 21.626 12.5399 21.626 12.5378 21.626C12.5357 21.626 12.5336 21.626 12.5322 21.6274C12.4566 21.661 12.3725 21.6834 12.2857 21.6834C12.1961 21.6834 12.112 21.6638 12.0364 21.6274C12.035 21.626 12.0336 21.626 12.0322 21.626C12.0308 21.626 12.0294 21.626 12.028 21.6246C11.2829 21.2689 4.7423 18.0476 4.13166 14.4958C3.66887 11.8177 3.67457 5.69696 3.67505 5.17277C3.67507 5.16075 3.67507 5.15168 3.67507 5.14565C3.67787 4.95798 3.76471 4.78151 3.91037 4.66386C4.05883 4.54901 4.2521 4.5098 4.43137 4.55462C6.03361 4.80672 6.88235 4.23809 7.95798 3.5154C9.0196 2.80392 10.2213 2 12.2857 2H12.2941C14.3585 2 15.5602 2.80392 16.619 3.5154C17.6947 4.23809 18.549 4.80672 20.1708 4.55182C20.3445 4.5238 20.5406 4.57422 20.675 4.68907ZM11.6863 3.2577C10.3501 3.38935 9.5126 3.94958 8.63305 4.54061C7.62184 5.21848 6.57143 5.92156 4.89356 5.83473C4.90196 6.88795 4.92437 8.98878 5.02521 10.9552H11.6863V3.2577ZM5.33053 14.2885C5.23249 13.7283 5.15686 12.9916 5.09804 12.1849H11.6835V20.0728C9.48178 18.8879 5.70308 16.4481 5.33053 14.2885ZM12.8991 20.0728V12.1849H19.4874C19.4285 12.9916 19.3557 13.7283 19.2605 14.2885C18.8879 16.4481 15.1036 18.8879 12.8991 20.0728ZM19.689 5.83473C19.6834 6.88795 19.661 8.98878 19.5602 10.9552H12.8991V3.2577C14.2244 3.38855 15.0598 3.94553 15.9362 4.52986L15.9524 4.54061L15.9656 4.54953C16.9699 5.22466 18.0102 5.92397 19.689 5.83473Z" fill="#313235"/>
</svg>
