<svg width="24" height="24" viewBox="0 0 24 24" fill="none" xmlns="http://www.w3.org/2000/svg">
<path fill-rule="evenodd" clip-rule="evenodd" d="M21.3883 12.8021C22.1861 12.4193 22.7 11.8033 22.7 11.0874C22.7 10.6546 22.5088 10.244 22.1442 9.8916C22.0054 9.66863 21.662 8.51715 21.4803 7.90776L21.463 7.8495C21.3673 7.51932 21.2837 7.23909 21.2299 7.08371L19.8853 3.11882C19.7598 2.74703 19.3743 2.49454 18.9679 2.50009L5.42013 2.53616C5.00479 2.53893 4.64025 2.7831 4.50878 3.14934C4.32352 3.69594 4.05161 4.50889 3.75878 5.38844C3.16714 7.16695 2.35439 9.60027 2.24981 9.82501C2.20402 9.92507 2.14365 10.0138 2.08404 10.1015C2.07753 10.1111 2.07103 10.1207 2.06455 10.1302L2.06049 10.1362C1.89981 10.3738 1.70001 10.6692 1.70001 11.0874C1.70001 11.8033 2.21396 12.422 3.00878 12.8021V20.5488C3.00878 21.3479 3.73487 21.9999 4.6283 21.9999H19.7717C20.6622 21.9999 21.3883 21.3479 21.3883 20.5488V12.8021ZM21.8275 11.0902C21.8275 11.7977 20.7608 12.3971 19.4968 12.3971C18.6572 12.3943 17.8743 12.1307 17.453 11.6979C17.3544 11.598 17.214 11.5425 17.0705 11.5425H17.0675L16.8136 11.5702L16.6851 11.7006C16.2667 12.1279 15.4839 12.3915 14.6442 12.3915C13.8046 12.3915 13.0217 12.1279 12.6034 11.7006C12.5048 11.6007 12.3673 11.5425 12.2209 11.5425L11.964 11.5675L11.8325 11.7006C11.4142 12.1279 10.6313 12.3915 9.79165 12.3915C8.94304 12.3915 8.15718 12.1251 7.74185 11.6923C7.64025 11.5869 7.49981 11.5286 7.35041 11.5286L7.09045 11.5564L6.95898 11.6923C6.54364 12.1224 5.75778 12.3915 4.90918 12.3915C3.64523 12.3915 2.5785 11.795 2.5785 11.0847C2.5785 10.9071 2.66216 10.7795 2.80858 10.5631C2.9042 10.4299 2.98786 10.2911 3.05957 10.1441C3.17312 9.89715 3.77073 8.11586 4.60141 5.62705L4.86505 4.83938C5.05385 4.27505 5.22252 3.77086 5.34842 3.39906C5.36037 3.36854 5.39324 3.34911 5.4291 3.34911L18.9739 3.31304C19.0098 3.31304 19.0426 3.33524 19.0546 3.36576L20.3992 7.32788C20.45 7.47493 20.5307 7.74684 20.6233 8.06314C21.1283 9.76119 21.3076 10.2495 21.5018 10.4382L21.5048 10.441C21.6512 10.5825 21.8275 10.8072 21.8275 11.0902ZM20.5128 13.0907V20.5488C20.5157 20.9012 20.1811 21.187 19.7717 21.187H15.0058V16.2399C15.0058 15.66 14.4799 15.1883 13.8315 15.1883H10.5865C9.94105 15.1883 9.41515 15.66 9.41515 16.2399V21.187H4.62531C4.21595 21.187 3.88129 20.8984 3.88129 20.546V13.0907C4.204 13.1601 4.54165 13.2072 4.90021 13.2072C5.85639 13.2072 6.74085 12.9353 7.34145 12.4692C7.94204 12.9353 8.82949 13.2072 9.78268 13.2072C10.7329 13.2072 11.6144 12.9409 12.212 12.4803C12.8126 12.9409 13.691 13.2072 14.6383 13.2072C15.5855 13.2072 16.4669 12.9409 17.0675 12.4803C17.6681 12.9381 18.5466 13.2072 19.4938 13.2072C19.8375 13.2045 20.1781 13.1656 20.5128 13.0907ZM14.1303 21.187V16.2399C14.1303 16.1067 13.9958 15.9985 13.8315 15.9985H10.5924C10.4281 15.9985 10.2936 16.1067 10.2936 16.2399V21.187H14.1303Z" fill="#313235"/>
</svg>
