<svg width="24" height="24" viewBox="0 0 24 24" fill="none" xmlns="http://www.w3.org/2000/svg">
<path fill-rule="evenodd" clip-rule="evenodd" d="M21.3883 12.8022C22.1861 12.4193 22.7 11.8034 22.7 11.0875C22.7 10.6547 22.5088 10.2441 22.1442 9.89169C22.0054 9.66872 21.662 8.51724 21.4803 7.90784L21.463 7.84959C21.3673 7.51941 21.2837 7.23918 21.2299 7.0838L19.8853 3.11891C19.7598 2.74712 19.3743 2.49463 18.9679 2.50018L5.42013 2.53625C5.00479 2.53902 4.64025 2.78318 4.50878 3.14943C4.32352 3.69603 4.05161 4.50898 3.75878 5.38853C3.16714 7.16704 2.35439 9.60035 2.24981 9.8251C2.20402 9.92515 2.14365 10.0139 2.08404 10.1016C2.07753 10.1112 2.07103 10.1207 2.06455 10.1303L2.06049 10.1363C1.89981 10.3739 1.70001 10.6693 1.70001 11.0875C1.70001 11.8034 2.21396 12.4221 3.00878 12.8022V20.5489C3.00878 21.348 3.73487 22 4.6283 22H19.7717C20.6622 22 21.3883 21.348 21.3883 20.5489V12.8022ZM21.8275 11.0903C21.8275 11.7978 20.7608 12.3971 19.4968 12.3971C18.6572 12.3944 17.8743 12.1308 17.453 11.6979C17.3544 11.5981 17.214 11.5426 17.0705 11.5426H17.0675L16.8136 11.5703L16.6851 11.7007C16.2667 12.128 15.4839 12.3916 14.6442 12.3916C13.8046 12.3916 13.0217 12.128 12.6034 11.7007C12.5048 11.6008 12.3673 11.5426 12.2209 11.5426L11.964 11.5675L11.8325 11.7007C11.4142 12.128 10.6313 12.3916 9.79165 12.3916C8.94304 12.3916 8.15718 12.1252 7.74185 11.6924C7.64025 11.587 7.49981 11.5287 7.35041 11.5287L7.09045 11.5564L6.95898 11.6924C6.54364 12.1225 5.75778 12.3916 4.90918 12.3916C3.64523 12.3916 2.5785 11.7951 2.5785 11.0848C2.5785 10.9072 2.66216 10.7796 2.80858 10.5631C2.9042 10.43 2.98786 10.2912 3.05957 10.1442C3.17312 9.89724 3.77073 8.11595 4.60141 5.62714L4.86505 4.83946C5.05385 4.27514 5.22252 3.77095 5.34842 3.39914C5.36037 3.36862 5.39324 3.3492 5.4291 3.3492L18.9739 3.31313C19.0098 3.31313 19.0426 3.33533 19.0546 3.36585L20.3992 7.32796C20.45 7.47502 20.5307 7.74693 20.6233 8.06323C21.1283 9.76128 21.3076 10.2496 21.5018 10.4383L21.5048 10.4411C21.6512 10.5826 21.8275 10.8073 21.8275 11.0903ZM20.5128 13.0908V20.5489C20.5157 20.9013 20.1811 21.187 19.7717 21.187H15.0058V16.24C15.0058 15.6601 14.4799 15.1884 13.8315 15.1884H10.5865C9.94105 15.1884 9.41515 15.6601 9.41515 16.24V21.187H4.62531C4.21595 21.187 3.88129 20.8985 3.88129 20.5461V13.0908C4.204 13.1602 4.54165 13.2073 4.90021 13.2073C5.85639 13.2073 6.74085 12.9354 7.34145 12.4693C7.94204 12.9354 8.82949 13.2073 9.78268 13.2073C10.7329 13.2073 11.6144 12.941 12.212 12.4804C12.8126 12.941 13.691 13.2073 14.6383 13.2073C15.5855 13.2073 16.4669 12.941 17.0675 12.4804C17.6681 12.9382 18.5466 13.2073 19.4938 13.2073C19.8375 13.2045 20.1781 13.1657 20.5128 13.0908ZM14.1303 21.187V16.2399C14.1303 16.1068 13.9958 15.9986 13.8315 15.9986H10.5924C10.4281 15.9986 10.2936 16.1068 10.2936 16.2399V21.187H14.1303Z" fill="#313235"/>
</svg>
