<svg width="24" height="24" viewBox="0 0 24 24" fill="none" xmlns="http://www.w3.org/2000/svg">
<path fill-rule="evenodd" clip-rule="evenodd" d="M5.078 2.49976L4.96513 2.50827C4.70628 2.54761 4.48322 2.72043 4.38286 2.96818L2.12593 8.53877C0.917275 10.0014 1.53436 11.6125 3.21965 12.3837L3.3229 12.4279V20.2394L3.3288 20.3853C3.40302 21.3 4.16854 22.0194 5.1019 22.0194H9.346V22.0508L14.1713 22.0194H19.0719L19.2179 22.0135C20.1328 21.9392 20.8519 21.1734 20.8519 20.2394V12.4334L20.9299 12.3991C22.575 11.6349 23.2232 10.095 22.0865 8.60976L22.047 8.56106L19.7717 2.9671C19.6567 2.68453 19.3821 2.49976 19.077 2.49976H5.078ZM19.3519 12.8272C18.3984 12.921 17.4548 12.7274 16.7523 12.2269L16.702 12.1881L16.6093 12.2437C15.2179 13.0393 13.8254 13.0036 12.5784 12.423L12.3924 12.3319C12.3307 12.3001 12.2718 12.2682 12.2155 12.2365L12.115 12.1771L11.9925 12.2557C10.6446 13.052 8.60665 12.9879 7.4359 12.2411L7.381 12.2041L7.24625 12.2857C6.52636 12.69 5.6698 12.8546 4.8229 12.7921V20.2394C4.8229 20.372 4.91486 20.483 5.03801 20.512L5.1019 20.5194H9.346V16.2729C9.346 15.3156 10.1214 14.5109 11.081 14.5109H13.107C14.0652 14.5109 14.842 15.2876 14.842 16.2459V20.5194H19.0719C19.2046 20.5194 19.3155 20.4274 19.3445 20.3036L19.3519 20.2394V12.8272ZM5.583 3.99906H18.572L20.7003 9.22941C20.7303 9.30305 20.7717 9.37145 20.8232 9.43206C21.4103 10.1238 21.1717 10.678 20.1861 11.0879C19.1759 11.5081 17.9989 11.4053 17.4609 10.868L17.3728 10.7687C17.1203 10.446 16.6556 10.3855 16.3291 10.633C15.1681 11.5126 14.0815 11.5144 13.079 10.9982C12.831 10.8706 12.6587 10.7473 12.5833 10.6803C12.2825 10.4128 11.8242 10.4305 11.5449 10.7203C10.7491 11.5462 8.67794 11.4623 8.10826 10.8811L8.04269 10.8025C7.78096 10.4262 7.24592 10.3706 6.91245 10.6851C6.17978 11.376 4.86887 11.4889 3.84385 11.0198C3.00196 10.6345 2.78282 10.1377 3.24691 9.53855L3.38922 9.36457C3.42211 9.31786 3.44962 9.26746 3.47114 9.21433L5.583 3.99906ZM10.846 16.2729V20.5194H13.342V16.2459C13.342 16.1377 13.2689 16.0466 13.1695 16.0192L13.107 16.0109H11.081C10.9625 16.0109 10.846 16.1318 10.846 16.2729Z" fill="#313235"/>
</svg>
