<svg width="24" height="24" viewBox="0 0 24 24" fill="none" xmlns="http://www.w3.org/2000/svg">
<path fill-rule="evenodd" clip-rule="evenodd" d="M20.8866 10.9971C20.8866 2.77305 14.007 2.07557 12.2451 2.03635C12.0459 2.03012 11.8236 2.02851 11.6089 2.02695C11.5339 2.02641 11.4598 2.02587 11.388 2.02515C9.57563 2.03355 2.84174 2.6526 2.84174 10.9467C2.84174 15.1344 4.57563 17.3781 6.52241 18.563V19.21C6.52241 20.0307 6.7633 20.6722 7.2451 21.0924C7.69888 21.5013 8.36274 21.7114 9.21148 21.7114H14.5476C15.3936 21.7114 16.049 21.5013 16.5028 21.0924C16.9734 20.6722 17.2059 20.0307 17.2059 19.21V18.5546C19.1527 17.3613 20.8866 15.1344 20.8866 10.9971ZM16.5196 17.4565C18.5532 16.21 19.5812 14.0364 19.5812 10.9999C19.5812 7.97473 18.556 5.80386 16.5336 4.54615C14.8501 3.49854 12.9538 3.35008 12.2143 3.33047C11.9594 3.32207 11.6849 3.32207 11.4328 3.32207H11.3908C9.20868 3.33327 4.14426 4.10078 4.14426 10.9523C4.14426 14.0392 5.17227 16.2296 7.20308 17.4649L7.82493 17.8431V19.2156C7.82493 19.5209 7.87255 19.9243 8.10504 20.126C8.32353 20.3249 8.71008 20.4229 9.20868 20.4229H14.5448C14.895 20.4229 15.3627 20.3753 15.6204 20.1428C15.8529 19.9355 15.9006 19.5237 15.9006 19.2156V17.8347L16.5196 17.4565ZM8.12185 13.9775C9.44958 13.9551 11.0042 13.1596 11.0042 11.0083C11.0042 10.8431 10.993 10.6862 10.979 10.5434C10.7689 8.73383 9.36274 8.05876 8.11625 8.02795C8.04342 8.02515 7.95378 8.02235 7.87255 8.02515C6.66246 8.03635 5.18627 8.72263 5.01821 10.6162C5.007 10.7366 5.0014 10.8627 5.0014 10.9943C5.0014 13.168 6.55602 13.9607 7.88935 13.9803H7.98739C8.01236 13.9803 8.03732 13.9796 8.06108 13.9788C8.08263 13.9782 8.10319 13.9775 8.12185 13.9775ZM9.69888 11.0083C9.69888 12.4425 8.69328 12.675 8.09104 12.6862H7.90056C7.17227 12.675 6.30112 12.3753 6.30112 10.9943C6.30112 10.9019 6.30392 10.8123 6.31232 10.7282C6.42157 9.51254 7.34314 9.32207 7.88095 9.31646H7.88375L8.08263 9.31926C8.62045 9.33047 9.54482 9.52655 9.67927 10.689C9.69328 10.7899 9.69888 10.8963 9.69888 11.0083ZM15.8866 12.6862C16.4888 12.675 17.4944 12.4425 17.4944 11.0083C17.4944 10.8963 17.4888 10.7899 17.4748 10.689C17.3403 9.52655 16.416 9.33047 15.8781 9.31926L15.6793 9.31646H15.6765C15.1387 9.32207 14.2171 9.51254 14.1078 10.7282C14.0994 10.8123 14.0966 10.9019 14.0966 10.9943C14.0966 12.3753 14.9678 12.675 15.6961 12.6862H15.8866ZM18.7997 11.0083C18.7997 10.8431 18.7885 10.6862 18.7717 10.5406C18.5616 8.73103 17.1555 8.05596 15.9118 8.02795C15.8361 8.02515 15.7409 8.02515 15.6681 8.02515C14.458 8.03635 12.9818 8.72263 12.8137 10.6162C12.8025 10.7366 12.7969 10.8627 12.7969 10.9943C12.7969 13.168 14.3515 13.9607 15.6849 13.9803H15.7829C15.8079 13.9803 15.8328 13.9796 15.8566 13.9788H15.8566H15.8566C15.8782 13.9782 15.8987 13.9775 15.9174 13.9775C17.2451 13.9551 18.7997 13.1596 18.7997 11.0083ZM11.2983 14.591C11.6317 14.731 11.7857 15.1092 11.6457 15.4369L11.2815 16.2941C11.1751 16.5406 10.9342 16.689 10.6821 16.689C10.598 16.689 10.5112 16.6722 10.43 16.6386C10.0966 16.4985 9.94258 16.1204 10.0826 15.7927L10.4468 14.9355C10.5868 14.6078 10.9706 14.4565 11.2983 14.591ZM13.3852 15.7899L13.021 14.9355C12.881 14.605 12.4972 14.4537 12.1667 14.591C11.8361 14.7282 11.6793 15.1064 11.8193 15.4369L12.1835 16.2913C12.2899 16.5378 12.5308 16.6862 12.7857 16.6862C12.8697 16.6862 12.9566 16.6694 13.0378 16.6358C13.3683 16.4985 13.5252 16.1204 13.3852 15.7899Z" fill="#313235"/>
</svg>
