<svg width="24" height="24" viewBox="0 0 24 24" fill="none" xmlns="http://www.w3.org/2000/svg">
<path fill-rule="evenodd" clip-rule="evenodd" d="M21.8365 6.12403C21.8365 4.38453 20.3687 2.96997 18.5648 2.96997H5.42475C3.61803 2.96997 2.15025 4.38453 2.15025 6.12403V14.8887C2.13904 16.2108 2.96257 17.3957 4.20347 17.8439V19.5302C4.20347 20.3341 4.92055 21.0148 5.77209 21.0148C6.43315 21.0148 6.84212 20.6618 7.0634 20.3761L8.95135 18.0428H18.5648C20.3687 18.0428 21.8365 16.6282 21.8365 14.8887V6.12403ZM5.86733 9.082C5.86733 9.52178 6.15304 9.67584 6.85052 9.94475L6.8512 9.94501C7.54022 10.2111 8.48357 10.5754 8.48357 11.7795C8.48357 12.8439 7.73287 13.4545 6.42755 13.4545C5.87013 13.4545 5.32111 13.3425 5.02139 13.2333C4.83652 13.1688 4.72727 12.9728 4.77489 12.7795L4.82811 12.5694C4.85613 12.4629 4.92615 12.3733 5.02139 12.3229C5.11943 12.2669 5.23428 12.2557 5.34072 12.2893C5.69646 12.3985 6.0578 12.4545 6.42195 12.4545C6.88693 12.4545 7.11662 12.3677 7.22587 12.2949C7.32951 12.2305 7.44716 12.0876 7.44716 11.7879C7.44716 11.3089 7.15304 11.1492 6.43035 10.8691L6.42534 10.8672C5.75629 10.6068 4.83932 10.25 4.83932 9.11282C4.83932 8.62262 5.01299 8.21366 5.34352 7.93355C5.89254 7.46296 6.87293 7.38733 7.93175 7.68705C8.13623 7.74027 8.25948 7.94755 8.20906 8.15203L8.15584 8.35651C8.12783 8.46016 8.0578 8.54699 7.96536 8.60021C7.87012 8.65343 7.75808 8.66744 7.65444 8.63663C7.42195 8.5694 7.13623 8.50497 6.77209 8.50497C5.86733 8.50497 5.86733 8.89433 5.86733 9.082ZM14.1838 7.60301H13.9738C13.8253 7.60301 13.6908 7.68145 13.618 7.8103L11.9878 10.7963L10.3995 7.8103C10.3295 7.67864 10.1922 7.60021 10.0438 7.60021H9.8169C9.59561 7.60021 9.41634 7.77388 9.41634 7.98957V12.9615C9.41634 13.1744 9.59561 13.3509 9.8169 13.3509H10.0298C10.2511 13.3509 10.4303 13.1772 10.4303 12.9615V10.0176L11.506 12.0428C11.576 12.1744 11.7133 12.2529 11.8617 12.2529H12.0886C12.2371 12.2529 12.3715 12.1744 12.4443 12.0456L13.5732 9.97836V12.9615C13.5732 13.1772 13.7525 13.3509 13.9738 13.3509H14.1838C14.4051 13.3509 14.5844 13.1772 14.5844 12.9615V7.99237C14.5816 7.77388 14.4023 7.60021 14.1838 7.60301ZM16.6068 9.082C16.6068 9.52178 16.8897 9.67584 17.5872 9.94475L17.5879 9.94501C18.2769 10.2111 19.2202 10.5754 19.2202 11.7795C19.2202 12.8439 18.4695 13.4545 17.1642 13.4545C16.6068 13.4545 16.0578 13.3425 15.7581 13.2333C15.5732 13.1688 15.4639 12.9728 15.5116 12.7795L15.5648 12.5694C15.5928 12.4629 15.6628 12.3733 15.7581 12.3229C15.8561 12.2669 15.9709 12.2557 16.0774 12.2893C16.4331 12.3985 16.7973 12.4545 17.1586 12.4545C17.6236 12.4545 17.8533 12.3677 17.9625 12.2949C18.069 12.2305 18.1866 12.0876 18.1866 11.7879C18.1866 11.3089 17.8925 11.1492 17.1698 10.8691L17.1648 10.8672C16.4958 10.6068 15.5788 10.25 15.5788 9.11282C15.5788 8.62262 15.7525 8.21366 16.083 7.93355C16.632 7.46296 17.6124 7.38733 18.6712 7.68705C18.8757 7.74027 18.999 7.94755 18.9485 8.15203L18.8953 8.35651C18.8701 8.46016 18.8001 8.54699 18.7076 8.60021C18.6124 8.65343 18.4976 8.66744 18.3939 8.63663C18.1614 8.5694 17.8757 8.50497 17.5116 8.50497C16.6068 8.50497 16.6068 8.89433 16.6068 9.082Z" fill="#313235"/>
</svg>
