<svg width="24" height="24" viewBox="0 0 24 24" fill="none" xmlns="http://www.w3.org/2000/svg">
<path fill-rule="evenodd" clip-rule="evenodd" d="M21.8364 6.12403C21.8364 4.38453 20.3687 2.96997 18.5647 2.96997H5.4247C3.61798 2.96997 2.1502 4.38453 2.1502 6.12403V14.8887C2.13899 16.2108 2.96252 17.3957 4.20342 17.8439V19.5302C4.20342 20.3341 4.9205 21.0148 5.77204 21.0148C6.4331 21.0148 6.84207 20.6618 7.06335 20.3761L8.95131 18.0428H18.5647C20.3687 18.0428 21.8364 16.6282 21.8364 14.8887V6.12403ZM5.86728 9.082C5.86728 9.52178 6.15299 9.67584 6.85047 9.94475L6.85115 9.94501C7.54017 10.2111 8.48352 10.5754 8.48352 11.7795C8.48352 12.8439 7.73282 13.4545 6.4275 13.4545C5.87008 13.4545 5.32106 13.3425 5.02134 13.2333C4.83647 13.1688 4.72722 12.9728 4.77484 12.7795L4.82806 12.5694C4.85608 12.4629 4.9261 12.3733 5.02134 12.3229C5.11938 12.2669 5.23423 12.2557 5.34067 12.2893C5.69641 12.3985 6.05775 12.4545 6.4219 12.4545C6.88688 12.4545 7.11658 12.3677 7.22582 12.2949C7.32946 12.2305 7.44711 12.0876 7.44711 11.7879C7.44711 11.3089 7.15299 11.1492 6.4303 10.8691L6.42529 10.8672C5.75625 10.6068 4.83927 10.25 4.83927 9.11282C4.83927 8.62262 5.01294 8.21366 5.34347 7.93355C5.89249 7.46296 6.87288 7.38733 7.9317 7.68705C8.13618 7.74027 8.25943 7.94755 8.20901 8.15203L8.15579 8.35651C8.12778 8.46016 8.05775 8.54699 7.96531 8.60021C7.87008 8.65343 7.75803 8.66744 7.65439 8.63663C7.4219 8.5694 7.13618 8.50497 6.77204 8.50497C5.86728 8.50497 5.86728 8.89433 5.86728 9.082ZM14.1838 7.60301H13.9737C13.8252 7.60301 13.6908 7.68145 13.618 7.8103L11.9877 10.7963L10.3995 7.8103C10.3295 7.67864 10.1922 7.60021 10.0437 7.60021H9.81685C9.59556 7.60021 9.41629 7.77388 9.41629 7.98957V12.9615C9.41629 13.1744 9.59556 13.3509 9.81685 13.3509H10.0297C10.251 13.3509 10.4303 13.1772 10.4303 12.9615V10.0176L11.5059 12.0428C11.576 12.1744 11.7132 12.2529 11.8617 12.2529H12.0886C12.237 12.2529 12.3715 12.1744 12.4443 12.0456L13.5731 9.97836V12.9615C13.5731 13.1772 13.7524 13.3509 13.9737 13.3509H14.1838C14.4051 13.3509 14.5843 13.1772 14.5843 12.9615V7.99237C14.5815 7.77388 14.4023 7.60021 14.1838 7.60301ZM16.6068 9.082C16.6068 9.52178 16.8897 9.67584 17.5871 9.94475L17.5878 9.94501C18.2768 10.2111 19.2202 10.5754 19.2202 11.7795C19.2202 12.8439 18.4695 13.4545 17.1642 13.4545C16.6068 13.4545 16.0577 13.3425 15.758 13.2333C15.5731 13.1688 15.4639 12.9728 15.5115 12.7795L15.5647 12.5694C15.5927 12.4629 15.6628 12.3733 15.758 12.3229C15.8561 12.2669 15.9709 12.2557 16.0773 12.2893C16.4331 12.3985 16.7972 12.4545 17.1586 12.4545C17.6236 12.4545 17.8532 12.3677 17.9625 12.2949C18.0689 12.2305 18.1866 12.0876 18.1866 11.7879C18.1866 11.3089 17.8925 11.1492 17.1698 10.8691L17.1648 10.8672C16.4957 10.6068 15.5787 10.25 15.5787 9.11282C15.5787 8.62262 15.7524 8.21366 16.0829 7.93355C16.632 7.46296 17.6124 7.38733 18.6712 7.68705C18.8757 7.74027 18.9989 7.94755 18.9485 8.15203L18.8953 8.35651C18.8701 8.46016 18.8 8.54699 18.7076 8.60021C18.6124 8.65343 18.4975 8.66744 18.3939 8.63663C18.1614 8.5694 17.8757 8.50497 17.5115 8.50497C16.6068 8.50497 16.6068 8.89433 16.6068 9.082Z" fill="#313235"/>
</svg>
