<svg width="24" height="24" viewBox="0 0 24 24" fill="none" xmlns="http://www.w3.org/2000/svg">
<path fill-rule="evenodd" clip-rule="evenodd" d="M19.7619 11.4594H21.1092C21.4453 11.4594 21.7143 11.7283 21.7143 12.0616C21.7143 12.3949 21.4425 12.6638 21.1092 12.6638H19.7339C19.2885 18.7507 14.1372 19.521 12.5266 19.6078V21.084C12.5266 21.4173 12.2549 21.6862 11.9216 21.6862C11.5882 21.6862 11.3165 21.4173 11.3165 21.084V19.6106C9.70587 19.5322 4.57142 18.7759 4.10924 12.6638H2.63025C2.29692 12.6638 2.02521 12.3949 2.02521 12.0616C2.02521 11.7283 2.29692 11.4594 2.63025 11.4594H4.07843C4.2521 4.74509 9.73668 4.04201 11.3165 3.98039V2.60224C11.3165 2.26891 11.5882 2 11.9216 2C12.2549 2 12.5266 2.26891 12.5266 2.60224V3.99439C14.2185 4.10084 19.563 4.96638 19.7619 11.4594ZM12.5266 16.2689V18.4033C14.168 18.3109 18.1176 17.5658 18.5322 12.6638H16.2745C15.9412 12.6638 15.6694 12.3949 15.6694 12.0616C15.6694 11.7283 15.9412 11.4594 16.2745 11.4594H18.5546C18.3725 6.15686 14.2549 5.31372 12.5294 5.19887V7.41736C12.5294 7.75069 12.2577 8.0196 11.9244 8.0196C11.591 8.0196 11.3193 7.75069 11.3193 7.41736V5.18487C9.67506 5.24929 5.45097 5.96358 5.28851 11.4594H7.46778C7.80111 11.4594 8.07282 11.7283 8.07282 12.0616C8.07282 12.3949 7.80111 12.6638 7.46778 12.6638H5.31652C5.74229 17.591 9.68066 18.3221 11.3165 18.4061V16.2689C11.3165 15.9356 11.5882 15.6666 11.9216 15.6666C12.2549 15.6666 12.5266 15.9356 12.5266 16.2689Z" fill="#313235"/>
</svg>
