<svg width="24" height="24" viewBox="0 0 24 24" fill="none" xmlns="http://www.w3.org/2000/svg">
<path d="M20.4891 12.3805H20.7945C21.0382 12.3805 21.2342 12.1844 21.2342 11.9407C21.2342 11.697 21.0382 11.5009 20.7945 11.5009H20.6068L21.7188 10.3889C21.8925 10.218 21.8925 9.93792 21.7188 9.76706C21.548 9.59619 21.2678 9.59619 21.097 9.76706L19.3603 11.5037H18.195L18.7805 10.9183C18.9513 10.7474 18.9513 10.4673 18.7805 10.2965C18.6068 10.1256 18.3295 10.1256 18.1586 10.2965L16.9513 11.5037H13.1138L16.7917 7.82588H19.0578C19.3015 7.82588 19.4975 7.6298 19.4975 7.3861C19.4975 7.14241 19.3015 6.94633 19.0578 6.94633H17.674L17.7664 6.85389C17.9401 6.68022 17.9401 6.40291 17.7664 6.23204C17.5956 6.05837 17.3155 6.05837 17.1446 6.23204L17.125 6.25165V5.01355C17.125 4.76986 16.9289 4.57378 16.6852 4.57378C16.4415 4.57378 16.2454 4.76986 16.2454 5.01355V7.134L12.4443 10.9239V7.15921L13.7328 5.8707C13.9037 5.69983 13.9037 5.41972 13.7328 5.24885C13.562 5.07798 13.2819 5.07798 13.111 5.24885L12.4443 5.91551V4.70543L14.2398 2.90991C14.4135 2.73904 14.4135 2.45893 14.2398 2.28806C14.069 2.1172 13.7889 2.1172 13.618 2.28806L12.4471 3.45893V3.15361C12.4471 2.90991 12.251 2.71383 12.0073 2.71383C11.7636 2.71383 11.5676 2.90991 11.5676 3.15361V3.45893L10.3967 2.28806C10.2258 2.1172 9.94572 2.1172 9.77485 2.28806C9.60398 2.45893 9.60398 2.73904 9.77485 2.90991L11.5704 4.70543V5.79787L11.0213 5.24885C10.8505 5.07798 10.5704 5.07798 10.3995 5.24885C10.2286 5.42252 10.2286 5.69983 10.3995 5.8707L11.5704 7.04437V10.8819L7.8925 7.20403V5.01075C7.8925 4.76706 7.69642 4.57098 7.45272 4.57098C7.20902 4.57098 7.01294 4.76706 7.01294 5.01075V6.32168L6.92051 6.22924C6.74964 6.05557 6.46953 6.05557 6.29866 6.22924C6.12779 6.40011 6.12779 6.68022 6.29866 6.85109L6.3911 6.94353H5.08017C4.83647 6.94353 4.6404 7.1396 4.6404 7.3833C4.6404 7.627 4.83647 7.82308 5.08017 7.82308H7.27345L10.9513 11.5009H7.17821L5.97093 10.2937C5.79726 10.1228 5.51995 10.1228 5.34908 10.2937C5.17541 10.4645 5.17541 10.7446 5.34908 10.9155L5.93451 11.5009H4.6516L2.91491 9.76425C2.74404 9.59339 2.46393 9.59339 2.29306 9.76425C2.11939 9.93792 2.11939 10.2152 2.29306 10.3861L3.4051 11.4981H3.21743C2.97373 11.4981 2.77765 11.6942 2.77765 11.9379C2.77765 12.1816 2.97373 12.3777 3.21743 12.3777H3.51995L2.29026 13.6074C2.11659 13.7811 2.11659 14.0584 2.29026 14.232C2.37709 14.3189 2.48914 14.3609 2.60118 14.3609C2.71322 14.3609 2.82807 14.3189 2.9121 14.232L4.76645 12.3805H5.97653L5.34628 13.0108C5.17261 13.1816 5.17261 13.4617 5.34628 13.6326C5.43311 13.7194 5.54516 13.7615 5.6572 13.7615C5.76925 13.7615 5.88409 13.7194 5.96813 13.6326L7.22023 12.3805H10.9849L7.18942 16.176H5.06897C4.82527 16.176 4.62919 16.3721 4.62919 16.6158C4.62919 16.8595 4.82527 17.0556 5.06897 17.0556H6.30706L6.28745 17.0752C6.11659 17.246 6.11659 17.5262 6.28745 17.697C6.37429 17.7839 6.48633 17.8259 6.59838 17.8259C6.71042 17.8259 6.82527 17.7839 6.9093 17.697L7.00174 17.6046V18.9883C7.00174 19.232 7.19782 19.4281 7.44152 19.4281C7.68521 19.4281 7.88129 19.232 7.88129 18.9883V16.7222L11.5592 13.0444V16.8819L10.3883 18.0528C10.2174 18.2264 10.2174 18.5037 10.3883 18.6746C10.5592 18.8483 10.8393 18.8483 11.0101 18.6746L11.5592 18.1256V19.2909L9.76365 21.0864C9.59278 21.2572 9.59278 21.5374 9.76365 21.7082C9.93451 21.8791 10.2146 21.8791 10.3855 21.7082L11.5564 20.5374V20.725C11.5564 20.9687 11.7524 21.1648 11.9961 21.1648C12.2398 21.1648 12.4359 20.9687 12.4359 20.725V20.5374L13.6068 21.7082C13.6936 21.7923 13.8057 21.8371 13.9177 21.8371C14.0298 21.8371 14.1446 21.7951 14.2286 21.7082C14.4023 21.5346 14.4023 21.2572 14.2286 21.0864L12.4331 19.2909V18.008L13.0998 18.6718C13.1866 18.7587 13.2987 18.8007 13.4107 18.8007C13.5227 18.8007 13.6348 18.7587 13.7216 18.6718C13.8925 18.5009 13.8925 18.2208 13.7216 18.05L12.4331 16.7615V12.9967L16.2286 16.7923V18.9827C16.2286 19.2264 16.4247 19.4225 16.6684 19.4225C16.9121 19.4225 17.1082 19.2264 17.1082 18.9827V17.6718L17.1278 17.6914C17.2146 17.7783 17.3267 17.8203 17.4387 17.8203C17.5508 17.8203 17.6656 17.7783 17.7496 17.6914C17.9233 17.5206 17.9233 17.2404 17.7496 17.0696L17.73 17.05H19.041C19.2847 17.05 19.4807 16.8539 19.4807 16.6102C19.4807 16.3665 19.2847 16.1704 19.041 16.1704H16.8505L13.069 12.3805H16.9065L18.1586 13.6326C18.2454 13.7194 18.3575 13.7615 18.4695 13.7615C18.5816 13.7615 18.6964 13.7194 18.7805 13.6326C18.9513 13.4617 18.9513 13.1816 18.7805 13.0108L18.1502 12.3805H19.2426L21.0942 14.2348C21.181 14.3217 21.2931 14.3637 21.4051 14.3637C21.5171 14.3637 21.632 14.3217 21.716 14.2348C21.8897 14.0612 21.8897 13.7839 21.716 13.6102L20.4891 12.3805Z" fill="#313235"/>
</svg>
