<svg width="24" height="24" viewBox="0 0 24 24" fill="none" xmlns="http://www.w3.org/2000/svg">
<path d="M20.7833 12.5535C21.0466 12.4722 21.2454 12.2369 21.2454 11.9456C21.2454 11.6879 21.0914 11.4666 20.8729 11.363L21.6572 10.5787C21.9093 10.3266 21.9093 9.91762 21.6572 9.66551C21.4051 9.41341 20.9961 9.41341 20.744 9.66551L19.1082 11.3014H18.5788L18.7833 11.0969C19.0354 10.8448 19.0354 10.4358 18.7833 10.1837C18.5312 9.93162 18.1222 9.93162 17.8701 10.1837L16.7524 11.3014H13.6096L16.7748 8.1361H18.9009C19.2594 8.1361 19.548 7.84759 19.548 7.48904C19.548 7.1333 19.2594 6.84198 18.9009 6.84198H17.9457C18.0101 6.6235 17.9653 6.377 17.7917 6.20613C17.6376 6.05207 17.4275 6.00445 17.2258 6.03806V5.16691C17.2258 4.81117 16.9373 4.51986 16.5788 4.51986C16.2202 4.51986 15.9317 4.80837 15.9317 5.16691V7.15011L12.6516 10.4302V7.35739L13.8477 6.15851C14.0998 5.90641 14.0998 5.49745 13.8477 5.24535C13.5956 4.99325 13.1866 4.99325 12.9345 5.24535L12.6516 5.52826V4.95403L14.3435 3.26215C14.5956 3.01005 14.5956 2.60109 14.3435 2.34899C14.0914 2.09689 13.6824 2.09689 13.4303 2.34899L12.6152 3.16691C12.534 2.90081 12.2959 2.70473 12.0073 2.70473C11.716 2.70473 11.4779 2.90081 11.3995 3.16691L10.5844 2.34899C10.3323 2.09689 9.92331 2.09689 9.67121 2.34899C9.41911 2.60109 9.41911 3.01005 9.67121 3.26215L11.3631 4.95403V5.41341L11.1922 5.24535C10.9401 4.99325 10.5312 4.99325 10.2791 5.24535C10.0269 5.49745 10.0269 5.90641 10.2791 6.15851L11.3631 7.24255V10.3854L8.19782 7.22014V5.16411C8.19782 4.80837 7.9093 4.51706 7.55076 4.51706C7.19222 4.51706 6.9037 4.80557 6.9037 5.16411V6.04927C6.68521 5.98484 6.44152 6.03246 6.26785 6.20333C6.09418 6.377 6.04936 6.6207 6.11379 6.83918H5.22863C4.87009 6.83918 4.58157 7.1277 4.58157 7.48624C4.58157 7.84199 4.87009 8.1333 5.22863 8.1333H7.28465L10.4499 11.2986H7.36869L6.25104 10.1809C5.99894 9.92882 5.58998 9.92882 5.33787 10.1809C5.08577 10.433 5.08577 10.842 5.33787 11.0941L5.54236 11.2986H4.8981L3.26224 9.66271C3.01014 9.41061 2.60118 9.41061 2.34908 9.66271C2.09698 9.91481 2.09698 10.3238 2.34908 10.5759L3.13619 11.3602C2.91771 11.4638 2.76084 11.6823 2.76084 11.9428C2.76084 12.2341 2.95692 12.4722 3.22303 12.5507L2.34908 13.4246C2.09698 13.6767 2.09698 14.0857 2.34908 14.3378C2.47513 14.4638 2.6404 14.5283 2.80566 14.5283C2.97093 14.5283 3.13619 14.4638 3.26224 14.3378L5.01014 12.5899H5.58437L5.33507 12.8392C5.08297 13.0913 5.08297 13.5002 5.33507 13.7523C5.46112 13.8784 5.62639 13.94 5.79166 13.94C5.95692 13.94 6.12219 13.8784 6.24824 13.7523L7.4107 12.5899H10.4835L7.20062 15.8728H5.21743C4.85888 15.8728 4.57037 16.1613 4.57037 16.5199C4.57037 16.8756 4.85888 17.1669 5.21743 17.1669H6.08858C6.05496 17.3658 6.10258 17.5787 6.25664 17.7327C6.38269 17.8588 6.54796 17.9232 6.71322 17.9232C6.77485 17.9232 6.83367 17.9064 6.8925 17.8868V18.8448C6.8925 19.2005 7.18101 19.4918 7.53956 19.4918C7.8981 19.4918 8.18661 19.2033 8.18661 18.8448V16.7187L11.3519 13.5535V16.6963L10.2678 17.7804C10.0157 18.0325 10.0157 18.4414 10.2678 18.6935C10.5199 18.9456 10.9289 18.9456 11.181 18.6935L11.3519 18.5255V19.0549L9.66 20.7467C9.4079 20.9988 9.4079 21.4078 9.66 21.6599C9.9121 21.912 10.3211 21.912 10.5732 21.6599L11.4163 20.8168C11.5199 21.0353 11.7384 21.1893 11.9989 21.1893C12.2566 21.1893 12.4751 21.0353 12.5788 20.8168L13.4219 21.6599C13.548 21.786 13.7132 21.8504 13.8785 21.8504C14.0438 21.8504 14.209 21.7888 14.3351 21.6599C14.5872 21.4078 14.5872 20.9988 14.3351 20.7467L12.6432 19.0549V18.4106L12.9261 18.6935C13.0522 18.8196 13.2174 18.884 13.3827 18.884C13.548 18.884 13.7132 18.8224 13.8393 18.6935C14.0914 18.4414 14.0914 18.0325 13.8393 17.7804L12.6432 16.5815V13.503L15.9233 16.786V18.842C15.9233 19.1977 16.2118 19.489 16.5704 19.489C16.9289 19.489 17.2174 19.2005 17.2174 18.842V17.898C17.2538 17.9036 17.2903 17.9204 17.3267 17.9204C17.4919 17.9204 17.6572 17.856 17.7833 17.7299C17.9373 17.5759 17.9877 17.363 17.9513 17.1641H18.8925C19.251 17.1641 19.5396 16.8756 19.5396 16.5171C19.5396 16.1585 19.251 15.87 18.8925 15.87H16.8393L13.5564 12.5871H16.6992L17.8617 13.7495C17.9877 13.8756 18.153 13.9372 18.3183 13.9372C18.4835 13.9372 18.6488 13.8756 18.7748 13.7495C19.0269 13.4974 19.0269 13.0885 18.7748 12.8364L18.5255 12.5871H18.9849L20.7328 14.335C20.8589 14.461 21.0241 14.5255 21.1894 14.5255C21.3547 14.5255 21.5199 14.461 21.646 14.335C21.8981 14.0829 21.8981 13.6739 21.646 13.4218L20.7833 12.5535Z" fill="#313235"/>
</svg>
