<svg width="24" height="24" viewBox="0 0 24 24" fill="none" xmlns="http://www.w3.org/2000/svg">
<path fill-rule="evenodd" clip-rule="evenodd" d="M15.577 21.3976C15.8935 21.5713 16.2381 21.6581 16.5826 21.6581C17.0084 21.6581 17.4314 21.5293 17.7955 21.2716C18.4902 20.7786 18.8347 19.9382 18.6947 19.0811L17.9832 14.7534C17.9776 14.7197 17.986 14.6889 18.0084 14.6665L21.0224 11.6049C21.6162 11.0027 21.8151 10.1259 21.5462 9.31359C21.2857 8.52928 20.6274 7.96626 19.8319 7.84581L15.6667 7.21556C15.647 7.21276 15.6302 7.19875 15.6218 7.18195C15.619 7.17915 15.619 7.17914 15.619 7.17634L13.7563 3.24078C13.3949 2.47607 12.6555 2.00269 11.8319 2.00269C11.0084 2.00269 10.2689 2.47607 9.91036 3.24358L8.04762 7.17915C8.04601 7.18076 8.04532 7.18144 8.04503 7.18226C8.04482 7.18287 8.04482 7.18356 8.04482 7.18475C8.03642 7.20155 8.01961 7.21556 8 7.21836L3.83474 7.84861C3.03923 7.96906 2.38096 8.52928 2.12046 9.31359C1.84875 10.1259 2.04763 11.0027 2.64147 11.6049L5.65547 14.6665C5.67508 14.6889 5.68628 14.7197 5.68068 14.7534L4.96919 19.0783C4.82634 19.9354 5.17087 20.7758 5.86835 21.2688C6.52661 21.7365 7.37815 21.7842 8.08403 21.3976L11.8123 19.3556C11.8235 19.35 11.8375 19.35 11.8487 19.3556L15.577 21.3976ZM12.3753 18.4032C12.2045 18.3108 12.0196 18.2632 11.8319 18.2632C11.6442 18.2632 11.4594 18.3108 11.2913 18.4032L7.56303 20.4452C7.06443 20.7169 6.65266 20.4928 6.4986 20.3836C6.22129 20.1875 5.95799 19.787 6.04482 19.2576L6.75631 14.9326C6.81793 14.5601 6.70028 14.1763 6.43698 13.9074L6.43418 13.9046L3.42018 10.8402C3.05603 10.4705 3.04483 9.98586 3.15407 9.65533C3.28572 9.25477 3.60225 8.98026 3.99721 8.92144L8.16527 8.29119H8.17087C8.54902 8.22956 8.86835 7.98867 9.03081 7.64133L10.8936 3.70856C11.0756 3.32201 11.4258 3.09232 11.8319 3.09232C12.2381 3.09232 12.591 3.32201 12.7731 3.70856L14.6358 7.64133C14.7955 7.98867 15.1176 8.22956 15.4958 8.29119H15.5014L19.6694 8.92424C20.0644 8.98306 20.3781 9.25757 20.5126 9.65813C20.6218 9.98866 20.6106 10.4733 20.2465 10.843L17.2297 13.9074L17.2269 13.9102C16.9636 14.1791 16.8459 14.5629 16.9075 14.9326L17.619 19.2576C17.7059 19.7898 17.4426 20.1875 17.1652 20.3836C17.0112 20.4928 16.5966 20.7169 16.1008 20.4452L12.3753 18.4032Z" fill="#313235"/>
</svg>
