<svg width="24" height="24" viewBox="0 0 24 24" fill="none" xmlns="http://www.w3.org/2000/svg">
<path d="M16.6134 21.6637C16.2605 21.6637 15.916 21.5741 15.6078 21.4032L12.0476 19.4509C11.9104 19.3864 11.7955 19.3696 11.6583 19.4593L8.11204 21.4032C7.40896 21.7898 6.54902 21.7422 5.89636 21.2744C5.19888 20.7814 4.85714 19.9411 4.9972 19.0839L5.66106 15.0559C5.72549 14.7394 5.67227 14.6637 5.48179 14.4649L2.66947 11.6077C2.07563 11.0027 1.87395 10.1175 2.14846 9.31641C2.40896 8.53209 3.06722 7.96907 3.86274 7.84862L7.7591 7.25759C7.9972 7.21277 8.06722 7.17915 8.21568 6.87663L9.93837 3.24078C10.2969 2.47607 11.0336 2.00269 11.8599 2.00269C12.6863 2.00269 13.423 2.47888 13.7843 3.24078L15.5154 6.89624C15.6555 7.15955 15.7003 7.21837 16.0056 7.26319L19.8627 7.84862C20.6583 7.96907 21.3137 8.53209 21.577 9.31641C21.8487 10.1175 21.6471 11.0055 21.056 11.6077L18.3445 14.3388C18.0336 14.6497 18.0224 14.6778 18.0728 15.0531L18.7227 19.0839C18.8627 19.9411 18.5182 20.7814 17.8235 21.2744C17.4706 21.5265 17.0476 21.6637 16.6134 21.6637Z" fill="#313235"/>
</svg>
