<svg width="24" height="24" viewBox="0 0 24 24" fill="none" xmlns="http://www.w3.org/2000/svg">
<path fill-rule="evenodd" clip-rule="evenodd" d="M18.3318 3.91519C18.3318 2.94288 19.1192 2.1499 20.0859 2.1499C21.0554 2.1499 21.8428 2.94288 21.84 3.91519C21.84 4.8875 21.0554 5.67768 20.0859 5.67768C19.8982 5.67768 19.7217 5.64125 19.5507 5.58521L16.9168 10.0321C17.2306 10.3571 17.4072 10.7914 17.41 11.2453C17.4156 12.2177 16.6282 13.0106 15.6559 13.0134C14.6892 13.0134 13.9018 12.2205 13.9018 11.2481C13.9018 11.1445 13.913 11.0408 13.9326 10.9399L9.39332 8.93646C9.07388 9.35677 8.57232 9.63417 8.0063 9.63417C7.84098 9.63417 7.68127 9.60895 7.52435 9.56412L5.09778 13.8765C5.45084 14.2071 5.65258 14.6666 5.65539 15.1514C5.66099 16.1237 4.87642 16.9167 3.90411 16.9223C2.9374 16.9223 2.15002 16.1293 2.15002 15.157C2.15002 14.1847 2.9374 13.3945 3.90411 13.3945C4.06662 13.3973 4.22914 13.4225 4.38326 13.4702L6.80983 9.15502C6.45957 8.82438 6.24942 8.36484 6.24942 7.87168C6.24942 6.89937 7.03399 6.10639 8.0035 6.10639C8.97021 6.10639 9.75758 6.89657 9.75758 7.86888C9.75758 7.97256 9.74637 8.07623 9.72676 8.17711L14.2661 10.1806C14.5883 9.76026 15.0871 9.48286 15.6559 9.48286C15.8492 9.48286 16.0398 9.51648 16.2219 9.58373L18.8446 5.1621C18.528 4.83987 18.3318 4.39995 18.3318 3.91519ZM20.0887 4.85388C19.5732 4.85388 19.1556 4.43357 19.1556 3.91799C19.1556 3.40242 19.5732 2.97931 20.0887 2.97931C20.6043 2.97931 21.0218 3.39962 21.0218 3.91799C21.0218 4.43637 20.6015 4.85388 20.0887 4.85388ZM15.6587 12.184C15.1431 12.1812 14.7256 11.7637 14.7256 11.2453C14.7256 10.7298 15.1431 10.3095 15.6587 10.3095C16.1743 10.3095 16.5946 10.7298 16.5918 11.2453C16.5918 11.7609 16.1743 12.184 15.6587 12.184ZM7.07602 7.87448C7.07602 8.39006 7.49353 8.80757 8.0091 8.80757C8.52468 8.80476 8.94219 8.38446 8.93938 7.86888C8.94219 7.3533 8.52468 6.9358 8.0091 6.933C7.49353 6.933 7.07602 7.3533 7.07602 7.86888V7.87448ZM3.90691 16.0957C3.39133 16.0957 2.97383 15.6754 2.97383 15.1598C2.97383 14.6442 3.39133 14.2239 3.90691 14.2239C4.42248 14.2267 4.83999 14.6442 4.83999 15.1598C4.83719 15.6754 4.41968 16.0957 3.90691 16.0957Z" fill="#313235"/>
</svg>
