<svg width="24" height="24" viewBox="0 0 24 24" fill="none" xmlns="http://www.w3.org/2000/svg">
<path fill-rule="evenodd" clip-rule="evenodd" d="M17.8347 6.45803C17.8375 5.38801 18.7059 4.52246 19.7759 4.52246C20.8459 4.52246 21.7143 5.39081 21.7171 6.45803C21.7143 7.52806 20.8487 8.3936 19.7787 8.3936C19.6302 8.3936 19.493 8.374 19.3557 8.34318L16.958 12.3572C17.2241 12.6905 17.3893 13.1051 17.3893 13.5617V13.5645C17.3893 14.6345 16.5182 15.5028 15.4482 15.5028C14.3781 15.5028 13.5098 14.6317 13.5098 13.5617C13.5098 13.5302 13.5142 13.5006 13.5186 13.4712C13.522 13.4482 13.5254 13.4254 13.5266 13.402L9.40055 11.5953C9.04481 11.9818 8.5406 12.2255 7.97758 12.2255C7.85981 12.2255 7.74739 12.2041 7.63248 12.1822L7.62464 12.1807L5.41456 16.0771C5.71988 16.4188 5.91036 16.8614 5.91036 17.3544C5.90755 18.4244 5.03921 19.2899 3.96918 19.2899C2.89635 19.2899 2.02801 18.4216 2.02521 17.3544C2.02801 16.2843 2.89635 15.4188 3.96638 15.4188C4.08683 15.4188 4.20728 15.4328 4.32492 15.4552L6.5322 11.5645C6.22408 11.2171 6.03641 10.769 6.03641 10.29C6.03921 9.21993 6.90755 8.35439 7.97758 8.35439C9.04761 8.35439 9.91595 9.22273 9.91595 10.29C9.91595 10.3273 9.91097 10.3622 9.90599 10.397C9.9035 10.4145 9.90101 10.4319 9.89915 10.4496L14.0252 12.2563C14.3809 11.8698 14.8851 11.6261 15.4482 11.6261C15.5994 11.6261 15.7479 11.6457 15.8963 11.6821L18.2857 7.68212C18.0084 7.34879 17.8347 6.92582 17.8347 6.45803ZM19.7759 7.1415C19.3977 7.1415 19.0896 6.83618 19.0896 6.45803C19.0896 6.07988 19.3949 5.77176 19.7731 5.77176C20.1512 5.77176 20.4594 6.07708 20.4594 6.45523C20.4594 6.83618 20.154 7.1415 19.7759 7.1415ZM7.97478 10.9734C7.59663 10.9594 7.30251 10.6429 7.31372 10.2647C7.32492 9.90621 7.61343 9.61769 7.97478 9.60369C8.35293 9.58968 8.66946 9.8866 8.68346 10.2647C8.69747 10.6429 8.40055 10.9594 8.0224 10.9734C8.00839 10.9762 7.99159 10.9762 7.97478 10.9734Z" fill="#313235"/>
</svg>
