<svg width="24" height="24" viewBox="0 0 24 24" fill="none" xmlns="http://www.w3.org/2000/svg">
<path fill-rule="evenodd" clip-rule="evenodd" d="M11.0716 2.1499C11.8951 2.1499 15.9343 2.34038 17.1808 5.94262C19.5085 6.16111 21.8363 7.61769 21.8363 11.1443C21.8363 15.0239 19.0015 16.3992 16.5702 16.3992L14.8419 16.4076L9.85027 21.6457C9.73543 21.7689 9.57576 21.8334 9.4161 21.8334C9.30406 21.8334 9.19201 21.8026 9.09397 21.7381C8.85027 21.5841 8.74943 21.2788 8.85027 21.007L10.5253 16.5084L10.2032 16.4356C10.1997 16.4365 10.1967 16.4374 10.1941 16.4382C10.1882 16.4399 10.1838 16.4412 10.178 16.4412L6.49453 16.458C4.39369 16.458 2.14999 15.3096 2.14999 12.0855C2.14999 9.55046 3.53375 8.50284 4.60378 8.07147C4.79705 2.44122 10.0099 2.1499 11.0716 2.1499ZM16.5646 15.1807L16.0099 15.1835L16.0379 15.1527C16.1892 14.993 16.2452 14.7633 16.1808 14.5533C16.1192 14.3432 15.9483 14.1807 15.7354 14.1331L12.9035 13.4916L14.5926 9.08828C14.6962 8.81377 14.5954 8.50564 14.3489 8.34878C14.1052 8.19472 13.783 8.23674 13.587 8.44962L7.64579 14.9118C7.56176 15.0014 7.51974 15.1107 7.50013 15.2283L6.49173 15.2311C5.55055 15.2311 3.36008 14.923 3.36008 12.0799C3.36008 10.4804 4.03795 9.47483 5.37408 9.09108C5.63459 9.01545 5.81386 8.77735 5.81386 8.50284L5.80826 8.3908C5.80826 3.72973 9.83907 3.36559 11.0744 3.36559C11.7746 3.36559 15.3097 3.52525 16.1472 6.67651C16.2172 6.93702 16.4469 7.12189 16.713 7.13029C17.8923 7.16391 20.629 7.62049 20.629 11.1415C20.629 14.8894 17.5225 15.1807 16.5646 15.1807ZM11.8643 15.7774C11.7802 15.6233 11.6346 15.5112 11.4637 15.472L9.24523 14.9678L12.3265 11.6177L11.5225 13.7129C11.4581 13.8782 11.4693 14.0659 11.5534 14.2227C11.6374 14.3796 11.783 14.4916 11.9539 14.5309L14.4245 15.0883L11.0099 18.6681L11.8979 16.2816C11.9595 16.1163 11.9483 15.9342 11.8643 15.7774Z" fill="#313235"/>
</svg>
