<svg width="24" height="24" viewBox="0 0 24 24" fill="none" xmlns="http://www.w3.org/2000/svg">
<path fill-rule="evenodd" clip-rule="evenodd" d="M11.0577 2.1499C11.8815 2.1499 15.9669 2.33764 17.1438 6.01113C18.5616 6.12041 21.8428 6.84053 21.84 11.1277C21.84 16.0397 17.5304 16.289 16.6674 16.289L14.8153 16.3003L9.65669 21.7138C9.57543 21.7951 9.46895 21.8399 9.35967 21.8399C9.28402 21.8399 9.20836 21.8175 9.14111 21.7755C8.97579 21.669 8.90574 21.4616 8.97579 21.2767L10.7691 16.4572L10.1751 16.3227C10.1717 16.3235 10.1683 16.3246 10.1649 16.3257C10.1569 16.3283 10.1484 16.3311 10.1386 16.3311L6.37829 16.3479C4.3356 16.3479 2.15 15.2299 2.15 12.0888C2.15 9.52209 3.60146 8.52176 4.65223 8.13508C4.76431 2.44132 9.99854 2.1499 11.0577 2.1499ZM16.6674 15.4596L15.6138 15.4652L15.9809 15.0786C16.0846 14.9693 16.121 14.8152 16.079 14.6723C16.037 14.5266 15.9193 14.4173 15.7764 14.3865L12.6493 13.6803L14.4594 8.95888C14.5323 8.77395 14.4622 8.56099 14.2941 8.45451C14.1288 8.35084 13.9102 8.37606 13.7729 8.52456L7.70646 15.1234C7.61119 15.2271 7.57757 15.3728 7.614 15.5129L6.37829 15.5185C5.35555 15.5185 2.9738 15.185 2.9738 12.0916C2.9738 10.3543 3.71635 9.2587 5.18182 8.83839C5.35835 8.78796 5.48164 8.62264 5.48164 8.4377L5.47603 8.32282C5.47603 3.36879 9.74916 2.98211 11.0577 2.98211C11.8003 2.98211 15.5438 3.15304 16.4348 6.5183C16.4825 6.69763 16.6394 6.82092 16.8215 6.82652C18.0825 6.86295 21.0218 7.35331 21.0218 11.1305C21.019 15.1486 17.6902 15.4596 16.6674 15.4596ZM11.7078 16.3059C11.7498 16.1938 11.7414 16.0677 11.6854 15.9612C11.6293 15.8547 11.5285 15.7791 11.4136 15.7539L8.79646 15.1598L12.9155 10.6765L11.7078 13.8288C11.663 13.9409 11.6714 14.0698 11.7274 14.1735C11.7834 14.28 11.8843 14.3584 11.9992 14.3836L14.8769 15.0337L10.4441 19.6851L11.7078 16.3059Z" fill="#313235"/>
</svg>
