<svg width="24" height="24" viewBox="0 0 24 24" fill="none" xmlns="http://www.w3.org/2000/svg">
<path d="M21.2144 11.3348H18.7466C18.6962 11.3348 18.657 11.3516 18.6149 11.36C18.4805 9.6849 17.9567 8.47762 17.2452 7.61208C17.2704 7.59527 17.2872 7.58687 17.304 7.57006L19.0771 5.80536C19.318 5.57287 19.3264 5.18911 19.0939 4.94822L19.0771 4.93141C18.8418 4.68771 18.4553 4.68211 18.2116 4.9174L18.1976 4.93141L16.4245 6.69611C16.4077 6.71292 16.3993 6.73813 16.3825 6.76054C15.0491 5.72132 13.4581 5.46642 12.6122 5.4076V2.76895C12.6094 2.42721 12.332 2.1527 11.9903 2.1499C11.6486 2.1499 11.3713 2.42441 11.3685 2.76615V5.402C10.5085 5.45242 8.9399 5.69051 7.62337 6.71292C7.60657 6.69611 7.59816 6.6653 7.57295 6.64849L5.85027 4.93141C5.61497 4.68771 5.22562 4.68211 4.98472 4.9174L4.97072 4.93141C4.73262 5.17511 4.73262 5.56446 4.97072 5.80536L6.6934 7.51964C6.71861 7.53645 6.74382 7.54485 6.76903 7.57006C6.07436 8.43841 5.55895 9.65969 5.44411 11.3572C5.40209 11.3488 5.37128 11.3348 5.32926 11.3348H2.77184C2.43011 11.3348 2.1528 11.6121 2.14999 11.9538C2.14999 12.2899 2.43291 12.5701 2.77184 12.5701H5.33206C5.36567 12.5701 5.39649 12.5532 5.4301 12.5532C5.50573 14.2619 5.95391 15.514 6.60657 16.4244C6.58976 16.4412 6.56455 16.4468 6.54214 16.472L4.83346 18.1723C4.59257 18.4048 4.58416 18.7913 4.81946 19.0322C4.82506 19.0378 4.82786 19.0434 4.83346 19.0462C4.95111 19.1695 5.10797 19.2255 5.27324 19.2255C5.38808 19.2255 5.50573 19.1863 5.60377 19.1191C5.69901 19.091 5.78304 19.0406 5.85307 18.9706L7.41889 17.4188C7.4357 17.3936 7.4441 17.3684 7.46931 17.346C8.80264 18.4916 10.4609 18.7661 11.3713 18.8221V21.2143C11.3713 21.5616 11.6458 21.8333 11.9931 21.8333C12.3348 21.8333 12.6122 21.5588 12.615 21.2143V18.8389C12.615 18.8305 12.6066 18.8305 12.6066 18.8221C13.4833 18.7717 15.2088 18.5084 16.5925 17.3375C16.6093 17.3628 16.6178 17.3964 16.643 17.4188L18.2004 18.9706C18.3236 19.0938 18.4805 19.1499 18.6402 19.1499C18.8054 19.1499 18.9623 19.0938 19.0799 18.9706C19.3208 18.7381 19.3292 18.3544 19.0967 18.1135L19.0799 18.0967L17.5197 16.5476C17.4861 16.514 17.4469 16.4972 17.4021 16.472C18.0827 15.556 18.5617 14.2843 18.629 12.5448C18.671 12.5532 18.7046 12.5701 18.7438 12.5701H21.2116C21.5533 12.5672 21.8306 12.2927 21.8334 11.951C21.8334 11.6121 21.5561 11.3348 21.2144 11.3348Z" fill="#313235"/>
</svg>
