<svg width="24" height="24" viewBox="0 0 24 24" fill="none" xmlns="http://www.w3.org/2000/svg">
<path fill-rule="evenodd" clip-rule="evenodd" d="M18.7466 11.3348H21.2144C21.5533 11.3348 21.8362 11.6149 21.8362 11.9482C21.8362 12.2871 21.5533 12.5673 21.2144 12.5673H18.7466C18.7219 12.5673 18.6995 12.5606 18.6758 12.5536C18.6618 12.5494 18.6474 12.5452 18.6318 12.542C18.5645 14.2815 18.0855 15.5532 17.4049 16.4692C17.4173 16.4772 17.43 16.4843 17.4426 16.4914C17.4699 16.5068 17.4968 16.5219 17.5197 16.5448L19.0771 18.0967C19.3264 18.3348 19.3264 18.7325 19.0771 18.9706C18.9623 19.0967 18.8054 19.1527 18.6402 19.1527C18.4833 19.1527 18.3236 19.0939 18.2004 18.9706L16.643 17.4188C16.6269 17.4028 16.6177 17.3844 16.6088 17.3668C16.6037 17.3566 16.5987 17.3467 16.5926 17.3376C15.2088 18.5084 13.4861 18.7745 12.6066 18.8221C12.6066 18.8263 12.6087 18.8284 12.6108 18.8306C12.6129 18.8327 12.615 18.8348 12.615 18.839V21.2143C12.615 21.5616 12.3321 21.8333 11.9931 21.8333C11.6458 21.8333 11.3713 21.5616 11.3713 21.2143V18.8221C10.4609 18.7661 8.80265 18.4916 7.46931 17.346C7.45251 17.3646 7.44317 17.3808 7.43383 17.397C7.42916 17.4051 7.4245 17.4132 7.41889 17.4216L5.85307 18.9734C5.78584 19.0462 5.69621 19.0883 5.60377 19.1219C5.50573 19.1863 5.38808 19.2283 5.27324 19.2283C5.10797 19.2283 4.94831 19.1695 4.83346 19.0462C4.58416 18.8081 4.58416 18.4188 4.83346 18.1723L6.53934 16.472C6.55322 16.4581 6.5671 16.4493 6.57958 16.4414C6.58976 16.435 6.59902 16.4291 6.60657 16.4216C5.95111 15.5168 5.50573 14.2619 5.4301 12.5532C5.41503 12.5532 5.39929 12.5573 5.38321 12.5614C5.36641 12.5657 5.34923 12.5701 5.33206 12.5701H2.77184C2.43291 12.5701 2.14999 12.2899 2.14999 11.951C2.14999 11.6121 2.43291 11.332 2.77184 11.332H5.33206C5.35673 11.332 5.37918 11.3386 5.4029 11.3456C5.41689 11.3498 5.43132 11.3541 5.44691 11.3572C5.56175 9.65689 6.07716 8.43561 6.77184 7.57006C6.75503 7.55326 6.73822 7.54392 6.72142 7.53458C6.71301 7.52991 6.70461 7.52524 6.69621 7.51964L4.97352 5.80256C4.73262 5.55606 4.73262 5.1667 4.97352 4.92861C5.21442 4.68211 5.61217 4.68211 5.85307 4.92861L7.57576 6.64569C7.59109 6.65421 7.60021 6.66999 7.60878 6.68483C7.6143 6.69438 7.61959 6.70354 7.62618 6.71012C8.9427 5.68771 10.5085 5.44962 11.3713 5.3992V2.76895C11.3713 2.43001 11.6458 2.1499 11.9931 2.1499C12.3321 2.1499 12.615 2.43001 12.615 2.76895V5.4104C13.4609 5.46923 15.0519 5.72413 16.3853 6.76334C16.3919 6.7534 16.3972 6.74345 16.4023 6.73402C16.41 6.71955 16.4171 6.70629 16.4273 6.69611L18.2004 4.93141C18.4497 4.68491 18.839 4.68491 19.0799 4.93141C19.3292 5.17231 19.3292 5.55886 19.0799 5.80536L17.3068 7.57286C17.2945 7.58517 17.2822 7.59297 17.2666 7.60286C17.2609 7.60648 17.2548 7.61038 17.248 7.61488C17.9595 8.48043 18.4833 9.68491 18.615 11.36C18.6262 11.3576 18.6376 11.3545 18.6494 11.3513C18.6789 11.3433 18.7106 11.3348 18.7466 11.3348ZM11.7438 17.6065H12.3068C13.8419 17.5728 17.4105 16.9874 17.4105 12.1359C17.4105 7.28435 13.8138 6.67371 12.2732 6.63169H11.685C7.13878 6.67371 6.64859 10.4692 6.64859 12.0939C6.64859 13.7297 7.14438 17.542 11.7438 17.6065Z" fill="#313235"/>
</svg>
