<svg width="24" height="24" viewBox="0 0 24 24" fill="none" xmlns="http://www.w3.org/2000/svg">
<path fill-rule="evenodd" clip-rule="evenodd" d="M18.9084 11.524H21.4222C21.6604 11.524 21.8454 11.7201 21.8398 11.9443C21.8398 12.1797 21.6548 12.3647 21.4166 12.3647H18.9028C18.8608 12.3647 18.8272 12.3563 18.7935 12.3479C18.7515 14.346 18.191 15.7444 17.3951 16.7225C17.44 16.7393 17.4736 16.7561 17.4988 16.7897L19.099 18.3759C19.2587 18.5468 19.2587 18.8074 19.099 18.9756C19.0149 19.0597 18.9028 19.0933 18.7935 19.0933C18.6842 19.0933 18.5833 19.0597 18.4965 18.9756L16.9047 17.3894C16.8864 17.3711 16.8725 17.3484 16.8599 17.3277C16.8551 17.3199 16.8505 17.3123 16.8458 17.3054C15.2961 18.7318 13.256 18.9588 12.4236 18.984V21.4221C12.4236 21.6491 12.2303 21.8425 12.0005 21.8425C11.7651 21.8425 11.5773 21.6491 11.5773 21.4221V18.984C10.6889 18.9504 8.72446 18.7066 7.21676 17.3166C7.21012 17.3265 7.2048 17.3365 7.19975 17.3459C7.192 17.3604 7.1849 17.3736 7.17472 17.3838L5.57454 18.9756C5.5241 19.026 5.46525 19.0513 5.39799 19.0765C5.32233 19.1353 5.22704 19.1774 5.12616 19.1774C5.02247 19.1774 4.91317 19.1353 4.8291 19.0513C4.66656 18.8915 4.66656 18.6197 4.8291 18.4515L6.58341 16.7168C6.60023 16.7 6.61704 16.6916 6.63386 16.6832C5.8688 15.7052 5.32793 14.3236 5.27749 12.3507C5.27548 12.3513 5.27348 12.3519 5.27149 12.3525C5.2458 12.3603 5.22183 12.3675 5.19061 12.3675H2.57316C2.33776 12.3675 2.14999 12.1853 2.14999 11.9471C2.14999 11.7201 2.33495 11.5268 2.57316 11.5268H5.19061C5.21303 11.5268 5.23545 11.5343 5.25787 11.5417C5.26908 11.5455 5.28029 11.5492 5.2915 11.552C5.39239 9.59311 5.9865 8.23674 6.79079 7.30915C6.77398 7.29233 6.75716 7.28392 6.74035 7.27552L4.97763 5.52121C4.80948 5.35026 4.80948 5.08123 4.97763 4.92149C5.14017 4.75334 5.412 4.75334 5.57174 4.92149L7.33446 6.6758C7.34287 6.68421 7.34917 6.69262 7.35548 6.70102C7.36178 6.70943 7.36809 6.71784 7.37649 6.72624C8.86738 5.46236 10.7394 5.26899 11.5773 5.25217V2.57026C11.5773 2.33486 11.7651 2.1499 12.0005 2.1499C12.2303 2.1499 12.4236 2.33486 12.4236 2.57026V5.25217C13.2391 5.2858 15.1364 5.50439 16.6525 6.76828C16.6609 6.75987 16.6693 6.74306 16.6777 6.72625L16.6777 6.72624L18.4993 4.92149C18.6618 4.75334 18.9336 4.75334 19.1018 4.92149C19.2615 5.08403 19.2615 5.35306 19.1018 5.52121L17.2802 7.32596C17.2718 7.33437 17.255 7.34277 17.2382 7.35118C18.0677 8.27878 18.6702 9.62674 18.7795 11.5492C18.7953 11.5462 18.8107 11.5422 18.8259 11.5383C18.8539 11.531 18.8812 11.524 18.9084 11.524ZM11.7399 18.1433H12.334C14.0266 18.1096 17.9584 17.4595 17.9556 12.1321C17.9556 6.80471 14.0014 6.13774 12.2975 6.0957C12.1462 6.08729 11.9753 6.08729 11.8071 6.08729H11.6894C10.0108 6.10411 6.11541 6.72064 6.11541 12.0985C6.11541 17.4875 10.0444 18.1181 11.7399 18.1433Z" fill="#313235"/>
</svg>
