<svg width="24" height="24" viewBox="0 0 24 24" fill="none" xmlns="http://www.w3.org/2000/svg">
<path fill-rule="evenodd" clip-rule="evenodd" d="M9.52256 2.99304C9.30127 2.99024 9.1248 2.79976 9.12761 2.56447C9.13041 2.33478 9.30968 2.1499 9.52816 2.1499H9.89791C10.3069 2.1499 10.6542 2.43842 10.7663 2.86979C10.8027 3.01265 10.8531 3.26755 10.9091 3.56447H13.7775C13.9035 3.56447 14.0212 3.62609 14.0968 3.73253C14.1724 3.83898 14.1976 3.97343 14.1612 4.10228C14.1612 4.10228 13.8811 5.13589 13.727 5.67651C13.5814 6.20592 13.2256 6.52525 12.7831 6.52525H11.4105C10.8279 6.52525 10.4889 5.97343 10.4189 5.46642L10.3976 5.33543C10.3466 5.0227 10.2665 4.53096 10.1864 4.07707C10.1849 4.07253 10.1842 4.06799 10.1835 4.06301L10.1835 4.06299L10.1835 4.06298C10.1828 4.05875 10.1821 4.0542 10.1808 4.04906C10.108 3.63169 10.0352 3.25634 9.99315 3.09108C9.96794 2.99864 9.90912 2.99304 9.89511 2.99304C9.69623 2.99584 9.52256 2.99304 9.52256 2.99304ZM11.0576 4.4104H13.2452C13.1528 4.74374 13.038 5.1611 12.9623 5.44121C12.9287 5.55326 12.8755 5.68491 12.7859 5.68491H11.4133C11.2901 5.68491 11.22 5.3992 11.2116 5.33757C11.206 5.30116 11.1388 4.8922 11.0576 4.4104ZM12.1332 14.1331C11.5394 14.1331 11.0716 13.9706 10.7523 13.6429C10.4189 13.3067 10.2509 12.8053 10.2509 12.1527C10.2509 11.5028 10.4189 10.9986 10.7523 10.6625C11.0716 10.3348 11.5394 10.1695 12.1332 10.1695C12.727 10.1695 13.192 10.3348 13.5142 10.6625C13.8503 11.0014 14.0184 11.5028 14.0184 12.1527C14.0184 12.8053 13.8475 13.3067 13.5142 13.6429C13.192 13.9678 12.727 14.1331 12.1332 14.1331ZM11.587 11.5673C11.5002 11.6541 11.4525 11.867 11.4525 12.1499C11.4525 12.4328 11.5002 12.6429 11.587 12.7325C11.671 12.8166 11.8699 12.867 12.1332 12.867C12.3965 12.867 12.5954 12.8166 12.6822 12.7297C12.7691 12.6429 12.8167 12.4328 12.8167 12.1499C12.8167 11.867 12.7663 11.6569 12.6794 11.5701C12.5926 11.4804 12.3937 11.4328 12.1332 11.4328C11.8727 11.4328 11.671 11.4804 11.587 11.5673ZM11.4945 6.89499H11.4665V6.89219H11.4609C11.3853 6.89499 11.0968 6.923 11.0968 7.29835C11.0968 7.67651 11.3853 7.70452 11.4637 7.70732H11.4973C11.5702 7.70732 11.8643 7.67651 11.8643 7.30116C11.8643 6.92861 11.5702 6.89779 11.4945 6.89499ZM12.699 6.89499H12.727C12.8027 6.89779 13.0968 6.92861 13.0968 7.30116C13.0968 7.67651 12.8027 7.70732 12.7298 7.70732H12.6934C12.615 7.70452 12.3265 7.67651 12.3265 7.29835C12.3265 6.923 12.615 6.89499 12.6934 6.89219H12.699V6.89499ZM20.6346 20.5224H18.6458V12.7829H20.6346V20.5224ZM9.74945 20.5532L14.4833 20.5364V16.3572H9.74945V20.5532ZM6.76066 20.5644V9.27034C6.78587 9.25914 6.81668 9.24793 6.8503 9.24793H17.3573C17.3881 9.24793 17.4217 9.25914 17.4469 9.27034V19.8249V20.5252L15.685 20.5308V15.7241C15.685 15.374 15.4133 15.0911 15.0828 15.0911H9.14721C8.81388 15.0911 8.54497 15.374 8.54497 15.7241V20.5588L6.76066 20.5644ZM3.3517 20.5224H5.3405V12.7829H3.3517V20.5224ZM21.8363 12.1499C21.8363 11.7997 21.5674 11.5168 21.234 11.5168V11.5196H18.6486V9.14709C18.6486 8.52804 18.0464 7.98463 17.3573 7.98463H6.8503C6.16402 7.98463 5.55898 8.52524 5.55898 9.14429V11.5168H2.75226C2.41893 11.5168 2.15002 11.7997 2.15002 12.1499V21.1555C2.15002 21.5028 2.42453 21.8361 2.75507 21.8361H21.2312C21.5618 21.8361 21.8363 21.5028 21.8363 21.1555V12.1499Z" fill="#313235"/>
</svg>
