<svg width="24" height="24" viewBox="0 0 24 24" fill="none" xmlns="http://www.w3.org/2000/svg">
<path fill-rule="evenodd" clip-rule="evenodd" d="M9.47351 3.0016C9.24657 2.9988 9.06727 2.80549 9.07007 2.57015C9.07287 2.33481 9.22136 2.15831 9.48471 2.1499H9.85453C10.272 2.1499 10.6278 2.44127 10.7427 2.87833C10.7791 3.02122 10.8323 3.28177 10.8883 3.58155H13.8133C13.9421 3.58155 14.0626 3.64318 14.1411 3.74964C14.2195 3.85611 14.2447 3.99339 14.2083 4.12507C14.2083 4.12507 13.9225 5.17008 13.7684 5.7136C13.62 6.24872 13.2557 6.57091 12.8047 6.57091H11.4038C10.8099 6.57091 10.4625 6.01618 10.3896 5.50068C10.342 5.2065 10.2468 4.62656 10.1515 4.09705C10.15 4.0925 10.1493 4.08795 10.1485 4.08295C10.1479 4.07872 10.1472 4.07417 10.1459 4.06903C10.0703 3.64879 9.99742 3.26776 9.95259 3.09966C9.929 3.00531 9.85638 2.99922 9.85169 2.99883L9.85147 2.99881C9.65266 3.0044 9.47351 3.0016 9.47351 3.0016ZM11.0396 4.43605H13.2725C13.1801 4.77225 13.0624 5.19249 12.9812 5.47826C12.9504 5.59033 12.8915 5.72201 12.8019 5.72201H11.401C11.2778 5.72201 11.2077 5.43344 11.1965 5.3718C11.193 5.35658 11.1797 5.27528 11.1593 5.15042C11.1308 4.97654 11.0886 4.71816 11.0396 4.43605ZM12.1351 10.2551C12.743 10.2551 13.2165 10.4232 13.5443 10.7538C13.8861 11.0956 14.0598 11.6055 14.0598 12.2611C14.0598 12.9194 13.8861 13.4265 13.5415 13.7683C13.2137 14.0961 12.7402 14.2614 12.1323 14.2614C11.5243 14.2614 11.0508 14.0933 10.723 13.7683C10.384 13.4237 10.2103 12.9194 10.2103 12.2611C10.2103 11.6055 10.3812 11.0956 10.723 10.7538C11.0536 10.4232 11.5299 10.2551 12.1351 10.2551ZM12.9812 13.1548C13.1577 12.9811 13.2445 12.6785 13.2445 12.2611C13.2445 11.8436 13.1549 11.541 12.9784 11.3645C12.8075 11.1936 12.5245 11.1068 12.1351 11.1068C11.7484 11.1068 11.4627 11.1908 11.2946 11.3645C11.1209 11.541 11.0312 11.8436 11.0312 12.2611C11.0312 12.6785 11.1209 12.9783 11.2918 13.1548C11.4599 13.3257 11.7456 13.4125 12.1351 13.4125C12.5245 13.4125 12.8103 13.3257 12.9812 13.1548ZM11.4725 6.95053L11.4725 6.95053C11.4676 6.94983 11.4627 6.94913 11.4571 6.94913H11.4487C11.3702 6.95193 11.0761 6.97995 11.0761 7.35817C11.0761 7.73919 11.373 7.76721 11.4515 7.77001H11.4907C11.5663 7.77001 11.8661 7.73919 11.8661 7.36097C11.8661 6.98555 11.5635 6.95473 11.4879 6.95193C11.4823 6.95193 11.4774 6.95123 11.4725 6.95053ZM12.715 6.94913C12.7206 6.94913 12.7255 6.94983 12.7304 6.95053C12.7353 6.95123 12.7402 6.95193 12.7458 6.95193C12.8215 6.95473 13.1241 6.98555 13.1241 7.36097C13.1241 7.73919 12.8243 7.77001 12.7486 7.77001H12.715C12.6338 7.76721 12.3396 7.73919 12.3396 7.35817C12.3396 6.97995 12.6338 6.95193 12.7122 6.94913H12.715ZM21.0191 20.9378H18.5817V12.6869H21.0191V20.9378ZM17.7664 20.9378V20.0188V9.22127C17.7642 9.22037 17.759 9.21697 17.7512 9.21188C17.7106 9.18516 17.5993 9.112 17.4722 9.112H6.7419C6.59061 9.112 6.45893 9.21286 6.43932 9.25489L6.44492 20.9798L8.67784 20.9714V15.8724C8.67784 15.637 8.85995 15.4465 9.08688 15.4465H15.1497C15.3766 15.4465 15.5587 15.637 15.5587 15.8724V20.949L17.7664 20.9378ZM14.7378 16.301V20.9518L9.49872 20.9686V16.301H14.7378ZM2.96808 20.9378H5.40551V12.6869H2.96808V20.9378ZM21.84 12.2611C21.84 12.0257 21.6579 11.8352 21.431 11.8352V11.8324H18.5873V9.22127C18.5873 8.70857 18.0662 8.2603 17.4722 8.2603H6.7447C6.15075 8.2603 5.62964 8.70857 5.62964 9.22127V11.8352H2.55903C2.3321 11.8352 2.14999 12.0229 2.14999 12.2611V21.3636C2.14999 21.599 2.3321 21.8399 2.55903 21.8399H21.4282C21.6551 21.8399 21.84 21.599 21.84 21.3636V12.2611Z" fill="#313235"/>
</svg>
