<svg width="24" height="24" viewBox="0 0 24 24" fill="none" xmlns="http://www.w3.org/2000/svg">
<path fill-rule="evenodd" clip-rule="evenodd" d="M18.8431 2.20728L21.5013 4.88515C21.7478 5.12605 21.7478 5.521 21.5041 5.7535C21.3893 5.87674 21.2324 5.93557 21.0672 5.93557C20.9691 5.93557 20.8711 5.90476 20.7815 5.85434L18.5322 8.12044L19.7366 9.33612C19.9747 9.57702 19.9747 9.96357 19.7366 10.2129C19.6134 10.3277 19.4565 10.3949 19.3025 10.3949C19.1484 10.3949 18.9915 10.3277 18.8683 10.2129L18.689 10.0308L10.4846 18.2969C10.3697 18.4117 10.2072 18.479 10.0504 18.479C9.89352 18.479 9.73665 18.4117 9.6134 18.2969L8.68623 17.3641C8.68203 17.3683 8.67993 17.3725 8.67783 17.3767C8.67573 17.3809 8.67363 17.3851 8.66943 17.3893L7.61061 18.4566C7.48736 18.5798 7.3333 18.6386 7.17643 18.6386C7.01957 18.6386 6.8543 18.5798 6.73946 18.4566L6.42013 18.1344L3.04759 21.5322C2.93274 21.6554 2.77588 21.7143 2.61342 21.7143C2.45935 21.7143 2.30249 21.6554 2.17924 21.5322C1.94115 21.2913 1.94115 20.8963 2.17924 20.6554L5.54898 17.2661L5.30249 17.0168C5.05599 16.7759 5.05599 16.3809 5.30249 16.14L6.36131 15.0644C6.36551 15.0602 6.36971 15.0581 6.37391 15.056C6.37812 15.0539 6.38232 15.0518 6.38652 15.0476L5.60781 14.2633C5.36131 14.0224 5.36131 13.6274 5.60781 13.3865L13.8039 5.12044L13.647 4.96358C13.4089 4.72269 13.4089 4.32773 13.647 4.08683C13.8851 3.83753 14.2801 3.83753 14.5182 4.08683L15.619 5.19327L17.8683 2.91877C17.7534 2.68627 17.7843 2.39776 17.9747 2.20728C18.2212 1.96639 18.605 1.96639 18.8431 2.20728ZM16.4873 6.06722L17.661 7.24929L19.8851 5.0084L18.7114 3.82633L16.4873 6.06722ZM6.91313 13.8207L10.0476 16.986L17.8179 9.16245L14.675 5.99719L14.0672 6.61624L15.1932 7.72268C15.3977 7.92996 15.4061 8.2689 15.1932 8.48458C15.0952 8.59103 14.9551 8.64145 14.8151 8.64145C14.6834 8.64145 14.5434 8.59103 14.4369 8.49299L13.3137 7.36974L12.042 8.64985L14.0868 10.7087C14.2997 10.9132 14.2997 11.2521 14.0868 11.4678C13.9887 11.5658 13.8487 11.6246 13.7086 11.6246C13.577 11.6246 13.4369 11.5658 13.3305 11.4678L11.2969 9.40895L10.0252 10.6807L11.2324 11.8711C11.4369 12.084 11.4453 12.423 11.2324 12.6302C11.1344 12.7367 10.9944 12.7955 10.8543 12.7955C10.7254 12.7955 10.5854 12.7367 10.4789 12.6386L9.27167 11.4398L8.28568 12.4398L10.1176 14.2829C10.3221 14.4902 10.3221 14.8291 10.1176 15.0364C10.0112 15.1428 9.87951 15.1933 9.73945 15.1933C9.5994 15.1933 9.46775 15.1428 9.3613 15.0364L7.52937 13.1933L6.91313 13.8207ZM7.79828 16.5154L7.17643 17.1428L6.61061 16.5714L7.23526 15.9356C7.23946 15.9314 7.24156 15.9271 7.24366 15.9229C7.24576 15.9187 7.24786 15.9145 7.25206 15.9103L7.82629 16.4958C7.82029 16.5018 7.81509 16.5046 7.81026 16.5072C7.80608 16.5094 7.80218 16.5115 7.79828 16.5154Z" fill="#313235"/>
</svg>
