<svg width="24" height="24" viewBox="0 0 24 24" fill="none" xmlns="http://www.w3.org/2000/svg">
<path fill-rule="evenodd" clip-rule="evenodd" d="M11.9735 5.34448C18.4049 5.34448 21.8027 8.67782 21.8027 14.9831C21.8027 16.4005 21.6262 17.6862 21.2732 18.8067C21.2648 18.8375 21.2508 18.8655 21.2368 18.8935L21.2172 18.9355C21.1136 19.14 20.9063 19.2661 20.6766 19.2661H3.26484C3.00434 19.2689 2.76904 19.1008 2.68781 18.8515C2.33207 17.7198 2.14999 16.4201 2.14999 14.9831C2.14999 8.67782 5.54775 5.34448 11.9735 5.34448ZM20.2312 18.084C20.4749 17.1652 20.5982 16.1232 20.5982 14.9831C20.5982 9.37249 17.6962 6.52656 11.9763 6.52656C6.25644 6.52656 3.35728 9.36969 3.35728 14.9831C3.35728 16.126 3.48053 17.168 3.72142 18.084H20.2312ZM12.8559 15.14C12.629 14.9215 12.3209 14.7843 11.9763 14.7843C11.2844 14.7871 10.7242 15.3361 10.727 16.014C10.727 16.6946 11.2872 17.2436 11.9791 17.2436C12.5646 17.2464 13.0744 16.8431 13.2032 16.2717L19.5674 14.4425C19.5688 14.4425 19.5702 14.4418 19.5716 14.4411L19.5737 14.4401C19.5744 14.4399 19.5751 14.4397 19.5758 14.4397C19.8867 14.3473 20.066 14.0196 19.9763 13.7086C19.8839 13.3949 19.5506 13.2156 19.2284 13.3081L12.8559 15.14ZM11.9623 9.79266C11.6318 9.79546 11.3629 9.53216 11.3601 9.20163V8.40331C11.3601 8.07838 11.629 7.81227 11.9623 7.81227C12.2957 7.81227 12.5646 8.07838 12.5646 8.40331V9.20163C12.5646 9.52936 12.2957 9.79266 11.9623 9.79266ZM7.96232 10.154L7.38529 9.58818C7.14719 9.35849 6.76904 9.35849 6.53095 9.58818L6.51974 9.59938C6.29565 9.82908 6.30125 10.1988 6.53095 10.4229L7.11078 10.9915C7.22562 11.1036 7.37688 11.1652 7.53655 11.1652C7.69621 11.1652 7.84747 11.1036 7.96232 10.9915L7.97632 10.9775C8.19761 10.745 8.19201 10.3781 7.96232 10.154ZM5.94551 13.745C6.27885 13.745 6.54775 14.0083 6.54775 14.3361C6.54775 14.661 6.27885 14.9271 5.94551 14.9271H5.13039C4.80265 14.9299 4.53095 14.6666 4.52815 14.3361C4.52815 14.0083 4.79705 13.745 5.13039 13.745H5.94551ZM15.9567 10.9887C16.0688 11.1008 16.2228 11.1624 16.3825 11.1624C16.5422 11.1624 16.6962 11.1008 16.8083 10.9859L17.3853 10.4201L17.3965 10.4089C17.6206 10.1792 17.615 9.80947 17.3853 9.58538C17.15 9.35569 16.7718 9.35569 16.5337 9.58538L15.9567 10.1512L15.9427 10.1652C15.7214 10.3977 15.727 10.7647 15.9567 10.9887Z" fill="#313235"/>
</svg>
