<svg width="24" height="24" viewBox="0 0 24 24" fill="none" xmlns="http://www.w3.org/2000/svg">
<path fill-rule="evenodd" clip-rule="evenodd" d="M14.5994 11.5826C14.563 11.5826 14.5238 11.5798 14.4874 11.5742C14.0728 11.5126 13.7367 11.112 13.7367 10.6863V9.12604H13.6274C12.7563 9.12604 12.098 8.43136 12.098 7.5126V3.61344C12.098 2.72269 12.8207 2 13.7115 2H20.0784C20.9692 2 21.6918 2.72269 21.6918 3.61344V7.5154C21.6918 8.40615 20.9692 9.12884 20.0784 9.12884H16.7899C16.4762 9.62464 15.8123 10.6695 15.6806 10.8683C15.3893 11.3137 14.9748 11.5826 14.5994 11.5826ZM13.7115 3.12045C13.4398 3.12045 13.2185 3.34173 13.2185 3.61344V7.5154C13.2185 7.7619 13.3445 8.00839 13.6274 8.00839H14.2969C14.605 8.00839 14.8571 8.26049 14.8571 8.56862V10.0784C15.1849 9.56861 16 8.2829 16.0084 8.2689C16.112 8.10643 16.2885 8.00839 16.4818 8.00839H20.0784C20.3501 8.00839 20.5714 7.78711 20.5714 7.5154V3.61344C20.5714 3.34173 20.3501 3.12045 20.0784 3.12045H13.7115ZM5.7535 14.084C6.40896 14.7787 7.35573 15.1288 8.57142 15.1288C9.7843 15.1288 10.7339 14.7787 11.3893 14.0812C12.0056 13.4286 12.3193 12.5182 12.3193 11.3781C12.3193 10.2381 12.0056 9.32772 11.3893 8.67506C10.7339 7.98318 9.7871 7.63024 8.57142 7.63024C7.35573 7.63024 6.40896 7.98318 5.7535 8.67786C5.13725 9.33052 4.82352 10.2409 4.82352 11.3809C4.82352 12.521 5.13445 13.4314 5.7535 14.084ZM8.57142 8.75069C6.82632 8.75069 5.94397 9.63584 5.94397 11.3781C5.94397 13.1204 6.82912 14.0056 8.57142 14.0056C10.3137 14.0056 11.1989 13.1204 11.1989 11.3781C11.1989 9.63584 10.3137 8.75069 8.57142 8.75069ZM2.56022 21.6834H14.5798C14.8907 21.6834 15.14 21.4341 15.14 21.1232V20.084C15.14 18.7395 14.7843 17.7031 14.0812 16.9944C13.3781 16.2857 12.3445 15.9271 11.0056 15.9271H6.13445C4.79831 15.9271 3.7619 16.2885 3.05882 16.9944C2.35574 17.7003 2 18.7395 2 20.084V21.1232C2 21.4313 2.2521 21.6834 2.56022 21.6834ZM3.12045 20.563H14.0196V20.084C14.0196 19.0476 13.7731 18.2717 13.2885 17.7843C12.8039 17.2969 12.0364 17.0476 11.0084 17.0476H6.13445C5.10644 17.0476 4.33893 17.2941 3.85434 17.7843C3.36975 18.2745 3.12045 19.0476 3.12045 20.084V20.563ZM13.8823 5.55742C13.8823 6.014 14.2521 6.38375 14.7087 6.38375C15.1652 6.38375 15.535 6.014 15.535 5.55742C15.535 5.10084 15.1652 4.73109 14.7087 4.73109C14.2521 4.73109 13.8823 5.10084 13.8823 5.55742ZM16.0672 5.55742C16.0672 6.014 16.437 6.38375 16.8935 6.38375C17.3501 6.38375 17.7199 6.014 17.7199 5.55742C17.7199 5.10084 17.3501 4.73109 16.8935 4.73109C16.437 4.73109 16.0672 5.10084 16.0672 5.55742ZM18.2521 5.55742C18.2521 6.014 18.6218 6.38375 19.0784 6.38375C19.535 6.38375 19.9047 6.014 19.9047 5.55742C19.9047 5.10084 19.535 4.73109 19.0784 4.73109C18.6218 4.73109 18.2521 5.10084 18.2521 5.55742Z" fill="#313235"/>
</svg>
