<svg width="24" height="24" viewBox="0 0 24 24" fill="none" xmlns="http://www.w3.org/2000/svg">
<path fill-rule="evenodd" clip-rule="evenodd" d="M21.7226 11.8655C21.7338 11.5322 21.4761 11.2521 21.1428 11.2409L19.5966 11.2437C19.3025 5.00276 14.1988 4.0952 12.4705 3.97475V2.5714C12.4565 2.26607 12.21 2.01958 11.9019 2.00277C11.5686 1.98316 11.2857 2.23806 11.2689 2.5714V3.95235C9.80948 3.99436 4.28568 4.60781 4.00837 11.2409H2.59941C2.28288 11.2521 2.03078 11.5042 2.01958 11.8207C2.00837 12.154 2.26608 12.4341 2.59941 12.4453H4.02238C4.39492 18.8291 9.74506 19.5238 11.2717 19.5854V21.1148C11.2857 21.4201 11.5322 21.6666 11.8403 21.6834C12.1736 21.703 12.4565 21.4481 12.4733 21.1148V19.577C14.1624 19.4733 19.2464 18.6218 19.591 12.4453H21.1428C21.4593 12.4341 21.7114 12.182 21.7226 11.8655ZM18.3921 12.4453C18.07 17.4509 14.1652 18.2633 12.4733 18.3725V17.9075C12.4593 17.6022 12.2128 17.3557 11.9047 17.3389C11.5714 17.3193 11.2885 17.5742 11.2717 17.9075V18.3837C9.66943 18.3165 5.56859 17.619 5.22125 12.4481H5.80949C6.12601 12.4369 6.37812 12.1848 6.38932 11.8683C6.40052 11.535 6.14282 11.2549 5.80949 11.2437H5.21285C5.47055 5.8487 9.70584 5.20444 11.2717 5.15683V5.78147C11.2857 6.0868 11.5322 6.33329 11.8403 6.3501C12.1736 6.36971 12.4565 6.11481 12.4733 5.78147V5.17923C14.2044 5.30528 18.1232 6.17363 18.3977 11.2409H17.9355C17.619 11.2521 17.3669 11.5042 17.3557 11.8207C17.3445 12.154 17.6022 12.4341 17.9355 12.4453H18.3921ZM10.9691 8.79828C10.7647 8.99716 10.7198 9.37251 10.7198 9.64982C10.7198 9.92993 10.7619 10.3025 10.9663 10.4986C11.168 10.6918 11.5322 10.7338 11.8011 10.7338C12.0728 10.7338 12.4369 10.6918 12.6414 10.4986C12.8067 10.3389 12.8907 10.0532 12.8907 9.64982C12.8907 9.24365 12.8067 8.95794 12.6386 8.79828C12.4369 8.6022 12.07 8.56018 11.8011 8.56018C11.5322 8.56018 11.1708 8.6022 10.9691 8.79828ZM10.2437 11.2521C10.605 11.5994 11.1288 11.7759 11.8011 11.7759C12.4733 11.7759 13 11.5994 13.3641 11.2521C13.7451 10.8879 13.9355 10.3501 13.9355 9.64982C13.9355 8.95234 13.7423 8.41172 13.3641 8.04758C12.9972 7.69744 12.4733 7.51817 11.8011 7.51817C11.1316 7.51817 10.605 7.69744 10.2437 8.04758C9.86551 8.41172 9.67503 8.94954 9.67503 9.64982C9.67503 10.3501 9.86551 10.8879 10.2437 11.2521ZM9.06999 14.9803H14.5406C14.5294 14.7114 14.4593 14.3725 14.2212 14.126C13.9243 13.8179 13.4481 13.7507 13.1008 13.7507H10.507C10.1596 13.7507 9.68623 13.8151 9.38932 14.1232C9.15122 14.3697 9.08119 14.7114 9.06999 14.9803ZM14.9719 13.4005C14.535 12.9467 13.8879 12.7086 13.098 12.7086L10.5042 12.7058C9.71705 12.7058 9.06999 12.9467 8.63301 13.4005C8.23526 13.8179 8.02517 14.3949 8.02517 15.0728V15.7815C8.02517 15.9131 8.13161 16.0224 8.26607 16.0224H15.3445C15.4789 16.0224 15.5854 15.9159 15.5854 15.7815V15.0728C15.5854 14.3949 15.3725 13.8179 14.9719 13.4005Z" fill="#313235"/>
</svg>
