<svg width="24" height="24" viewBox="0 0 24 24" fill="none" xmlns="http://www.w3.org/2000/svg">
<path fill-rule="evenodd" clip-rule="evenodd" d="M21.84 12.0045C21.84 11.7773 21.6549 11.595 21.4306 11.595H19.6638C19.4619 4.95708 13.884 4.24757 12.3949 4.18027V2.55934C12.3949 2.33219 12.2126 2.1499 11.9855 2.1499C11.7583 2.1499 11.576 2.33219 11.576 2.55934V4.16905H11.5255C10.3084 4.17746 4.34635 4.60373 4.16687 11.5978H2.54034C2.33001 11.6062 2.15894 11.7773 2.15053 11.9876C2.13931 12.212 2.31599 12.4027 2.54034 12.4139H4.1809C4.46975 19.2229 10.3645 19.68 11.5704 19.6941H11.5732V21.4496C11.5732 21.6767 11.7555 21.859 11.9827 21.859C12.2098 21.859 12.3921 21.6767 12.3921 21.4496V19.6884C13.8307 19.6352 19.3946 18.9902 19.6554 12.4139H21.4306C21.6577 12.4139 21.84 12.2288 21.84 12.0045ZM18.8393 12.4139C18.5982 18.1068 14.0411 18.8079 12.3949 18.8696V18.1797C12.3949 17.9525 12.2126 17.7703 11.9855 17.7703C11.7583 17.7703 11.576 17.9525 11.576 18.1797V18.878C10.0589 18.8555 5.26338 18.2947 4.99416 12.4139H5.80743C6.03459 12.4139 6.21687 12.2288 6.21687 12.0045C6.21687 11.7773 6.03178 11.595 5.80743 11.595H4.98575C5.15401 5.52917 10.0196 4.99634 11.5312 4.98232H11.576V5.82924C11.576 6.05639 11.7583 6.23868 11.9855 6.23868C12.2126 6.23868 12.3949 6.05639 12.3949 5.82924V4.99914C14.0859 5.07486 18.6571 5.83485 18.845 11.595H18.1607C17.9335 11.595 17.7513 11.7801 17.7513 12.0045C17.7513 12.2316 17.9363 12.4139 18.1607 12.4139H18.8393ZM10.8946 8.72335C10.6758 8.93648 10.5665 9.28703 10.5665 9.76938C10.5665 10.2517 10.6758 10.6023 10.8946 10.8126C11.1049 11.0173 11.4498 11.1183 11.9125 11.1183C12.3809 11.1183 12.7258 11.0145 12.9389 10.8098C13.1577 10.5995 13.2671 10.2489 13.2671 9.76938C13.2671 9.28703 13.1577 8.93648 12.9389 8.72615C12.7258 8.52143 12.3809 8.41487 11.9154 8.41487C11.4498 8.41487 11.1049 8.52143 10.8946 8.72335ZM10.3253 11.4015C10.6955 11.7577 11.2283 11.9372 11.9125 11.9372C12.5996 11.9372 13.1353 11.7577 13.5054 11.4015C13.8896 11.0285 14.0859 10.4789 14.0859 9.76938C14.0859 9.05987 13.8896 8.51022 13.5054 8.13724C13.1325 7.77828 12.5996 7.5988 11.9125 7.5988C11.2283 7.5988 10.6955 7.78108 10.3253 8.13724C9.94107 8.51022 9.74757 9.05987 9.74757 9.77218C9.74757 10.4845 9.94107 11.0313 10.3253 11.4015ZM14.9525 15.4454V15.294C14.9525 14.9631 14.8824 14.4976 14.5571 14.1582C14.1925 13.7824 13.6372 13.7039 13.2362 13.7039H10.5945C10.1935 13.7039 9.6382 13.7824 9.27924 14.1582C8.95394 14.4976 8.88383 14.9659 8.88383 15.294V15.4454H14.9525ZM15.146 13.5917C14.7001 13.129 14.0411 12.885 13.2362 12.885L10.5917 12.8822C9.78964 12.8822 9.13061 13.1262 8.68752 13.5889C8.28089 14.0152 8.06495 14.6041 8.06495 15.2912V16.0147C8.06495 16.1521 8.17432 16.2615 8.31174 16.2615H15.5246C15.662 16.2615 15.7714 16.1521 15.7714 16.0147V15.294C15.7714 14.6069 15.5554 14.018 15.146 13.5917Z" fill="#313235"/>
</svg>
