<svg width="24" height="24" viewBox="0 0 24 24" fill="none" xmlns="http://www.w3.org/2000/svg">
<path fill-rule="evenodd" clip-rule="evenodd" d="M6.00859 14.3835C4.37791 12.4578 3.20738 10.5367 2.60466 8.79184C2.28814 7.87307 2.13688 7.02153 2.15088 6.26243C2.16769 5.46972 2.36377 4.79465 2.73352 4.25683L2.75032 4.23162L2.76153 4.21482L2.76773 4.20631C2.87149 4.06396 3.15987 3.6683 3.45901 3.38288C4.33295 2.54815 5.22371 2.13359 6.10326 2.15039C6.952 2.1672 7.79233 2.58177 8.59905 3.38849C8.90438 3.68821 9.16768 4.02434 9.38897 4.39129C9.82034 5.08876 9.9772 5.80865 9.85676 6.52854C9.73631 7.24843 9.33015 7.95711 8.65788 8.62938C8.50101 8.78904 8.33575 8.9347 8.15928 9.07195C8.08645 9.1952 8.17609 9.51453 8.38897 9.90108C8.59159 10.2654 8.90125 10.692 9.32738 11.1952L13.7559 6.76663C13.7671 6.45011 13.8007 6.13918 13.8567 5.82826C14.0136 4.97112 14.3245 4.30445 14.7783 3.85067C15.2293 3.39969 15.882 3.09157 16.7251 2.93471C17.0836 2.86748 17.4478 2.83106 17.8119 2.82546H17.8175C18.3637 2.82826 18.8259 3.12238 19.0192 3.59297C19.2125 4.06356 19.092 4.59857 18.7055 4.98512L18.1789 5.51173L18.2181 5.78064L18.4898 5.81986L19.0164 5.28764C19.2769 5.02434 19.6102 4.88148 19.9492 4.88148C20.3693 4.88148 20.7615 5.10277 20.98 5.46411C21.1088 5.6798 21.1761 5.9263 21.1733 6.1756C21.1677 6.53134 21.1341 6.88988 21.0696 7.24002C20.9156 8.09716 20.6046 8.76383 20.1509 9.21761C19.6999 9.66579 19.0472 9.97391 18.2041 10.1308C17.8848 10.1896 17.5626 10.226 17.2377 10.2372L12.8004 14.6745C13.3332 15.1281 13.7816 15.4519 14.1593 15.6574C14.529 15.8591 14.8371 15.9403 14.9576 15.8703C15.0948 15.6938 15.2405 15.5285 15.4002 15.3717C16.0724 14.6994 16.7811 14.2932 17.501 14.1728C18.2209 14.0523 18.9408 14.2064 19.6383 14.6406C20.0052 14.8591 20.3413 15.1252 20.6411 15.4277C21.4478 16.2344 21.8651 17.0719 21.8791 17.9235C21.896 18.803 21.4814 19.6938 20.6495 20.5649C20.3631 20.8651 19.9631 21.1544 19.8245 21.2546L19.8175 21.2596L19.8007 21.2708C19.7923 21.2764 19.7839 21.282 19.7755 21.2904C19.2349 21.663 18.557 21.859 17.7615 21.8731C17.7251 21.8759 17.6943 21.8759 17.6607 21.8759C16.9212 21.8759 16.0976 21.7218 15.2125 21.4137C13.4648 20.8084 11.5446 19.6333 9.61737 17.9986C9.60201 18.2643 9.57069 18.5267 9.52342 18.789C9.36656 19.6434 9.05564 20.31 8.60186 20.7638C8.15088 21.2148 7.49822 21.5229 6.65508 21.6798C6.29654 21.747 5.93239 21.7834 5.56544 21.789H5.55984C5.01362 21.789 4.55144 21.4949 4.35816 21.0243C4.16489 20.5537 4.28533 20.0215 4.67189 19.635L5.2041 19.1084L5.16489 18.8366L4.89318 18.7974L4.36657 19.324C4.10606 19.5873 3.77273 19.7302 3.4338 19.7302C3.01105 19.7302 2.61905 19.5092 2.40018 19.1476C2.27133 18.9347 2.20411 18.6882 2.20691 18.4389C2.21251 18.0831 2.24612 17.7246 2.31055 17.3745C2.46461 16.5173 2.77553 15.8507 3.22931 15.3969C3.68029 14.9487 4.33575 14.6406 5.17609 14.4837C5.45064 14.4331 5.72933 14.3991 6.00859 14.3835ZM6.86231 13.6602L8.53341 11.9891C8.02709 11.3965 7.65642 10.8872 7.41138 10.4445C7.19009 10.0467 7.06404 9.6966 7.02483 9.37727C6.9604 8.83946 7.16768 8.48932 7.34976 8.29044C7.36936 8.26803 7.39177 8.24842 7.41418 8.23162C7.57385 8.11117 7.7223 7.97952 7.86516 7.83666C8.37216 7.32966 8.66908 6.82826 8.75312 6.34086C8.82875 5.88988 8.7251 5.44171 8.43379 4.97392L8.42538 4.95711C8.25452 4.6714 8.04723 4.41089 7.80914 4.1784C7.2041 3.57896 6.64107 3.28204 6.08365 3.27084C5.50942 3.25964 4.88757 3.57056 4.23772 4.19241C4.08365 4.33807 3.89598 4.56776 3.67749 4.87028L3.65228 4.90389C3.13968 5.66019 3.14248 6.90949 3.66629 8.4305C4.22238 10.0457 5.32134 11.8411 6.86231 13.6602ZM10.3356 17.1393C12.158 18.6881 13.9583 19.7926 15.5794 20.3548C17.106 20.8843 18.3637 20.8927 19.1228 20.3745L19.1565 20.352C19.459 20.1336 19.6887 19.9459 19.8343 19.7918C20.4562 19.142 20.7643 18.5201 20.7559 17.9459C20.7447 17.3885 20.4478 16.8254 19.8455 16.2232C19.613 15.9851 19.3525 15.7778 19.0668 15.607L19.05 15.5986C18.5822 15.3072 18.1369 15.2036 17.6831 15.2792C17.1957 15.3633 16.6943 15.6602 16.1873 16.1672C16.0444 16.3072 15.9128 16.4585 15.7923 16.6154C15.7727 16.6378 15.7531 16.6602 15.7335 16.6798C15.5374 16.8591 15.1957 17.0635 14.6691 17.0075C14.3553 16.9739 14.0108 16.8535 13.6215 16.6434C13.1613 16.3926 12.6281 16.0059 12.0047 15.4702L10.3356 17.1393ZM17.8147 3.94591C18.0024 3.94591 18.05 4.05515 17.9156 4.18961L17.2349 4.87028C17.1004 5.00473 17.0136 5.26523 17.0416 5.45291L17.1817 6.4305C17.2097 6.61817 17.3834 6.79184 17.571 6.81985L18.5486 6.95991C18.571 6.96271 18.5962 6.96551 18.6186 6.96551C18.7951 6.96551 19.0136 6.88428 19.1313 6.76663L19.8119 6.08596C19.8623 6.03274 19.9128 6.01033 19.952 6.01033C20.0136 6.01033 20.0556 6.07196 20.0556 6.1868C20.0556 6.1868 20.0612 7.73022 19.3609 8.4305C18.6719 9.11957 17.1705 9.12517 17.1201 9.12517H17.1172C16.9296 9.12517 16.6663 9.23442 16.5346 9.36607L8.74471 17.1476C8.61026 17.282 8.50382 17.5453 8.50382 17.733C8.50382 17.733 8.50942 19.2764 7.80914 19.9767C7.12006 20.6658 5.61867 20.6714 5.56825 20.6714C5.38057 20.6714 5.33295 20.5593 5.46741 20.4277L6.14808 19.747C6.28253 19.6126 6.36937 19.352 6.34135 19.1644L6.2013 18.1868C6.17329 17.9991 5.99962 17.8254 5.81194 17.7974L4.83435 17.6574C4.81194 17.6546 4.78673 17.6518 4.76433 17.6518C4.58786 17.6518 4.36937 17.733 4.25172 17.8507L3.56825 18.5341C3.51783 18.5845 3.46741 18.6098 3.42819 18.6098C3.36657 18.6098 3.32455 18.5481 3.32455 18.4333C3.32455 18.4333 3.31895 16.8899 4.01923 16.1896C4.7083 15.5005 6.2097 15.4949 6.26012 15.4949H6.26572C6.4534 15.4949 6.7167 15.3857 6.85116 15.254L14.6327 7.46971C14.7671 7.33526 14.8736 7.07195 14.8736 6.88428C14.8736 6.88428 14.868 5.34087 15.5682 4.64059C16.2601 3.95151 17.7615 3.94591 17.8147 3.94591Z" fill="#313235"/>
</svg>
