<svg width="24" height="24" viewBox="0 0 24 24" fill="none" xmlns="http://www.w3.org/2000/svg">
<path fill-rule="evenodd" clip-rule="evenodd" d="M5.16963 16.3845H18.8251C19.8391 16.3845 20.6094 16.0904 21.1164 15.5077C21.5954 14.9615 21.8363 14.1548 21.8363 13.11V8.17161C21.8363 7.12679 21.5926 6.32007 21.1164 5.77385C20.6094 5.19402 19.8391 4.8999 18.8251 4.8999H5.16963C4.15563 4.8999 3.38532 5.19402 2.87832 5.77385C2.39932 6.32007 2.15843 7.12679 2.15843 8.17161V13.11C2.15843 14.1548 2.39932 14.9615 2.87832 15.5105C3.38532 16.0904 4.15563 16.3845 5.16963 16.3845ZM2.71865 8.17441C2.71865 6.32287 3.49736 5.46013 5.16963 5.46013H18.8251C20.4974 5.46013 21.2761 6.32007 21.2761 8.17161V13.1128C21.2761 14.9643 20.4974 15.8271 18.8251 15.8271H5.16963C3.49736 15.8271 2.71865 14.9643 2.71865 13.1128V8.17441ZM21.5478 18.603H2.43014C2.27607 18.603 2.15002 18.4769 2.15002 18.3229C2.15002 18.1688 2.27607 18.0428 2.43014 18.0428H21.5478C21.7018 18.0428 21.8279 18.1688 21.8279 18.3229C21.8279 18.4769 21.7018 18.603 21.5478 18.603ZM15.2509 6.86069C14.9567 6.86069 14.699 6.91391 14.4806 7.01475C14.1388 7.17441 13.8335 7.48254 13.5702 7.93071C13.4638 8.10999 13.3741 8.29766 13.2985 8.49374L13.2901 8.50214L9.51137 10.264H9.50016C9.38252 10.222 8.89792 10.0652 8.38252 10.0652C8.0912 10.0652 7.8307 10.1184 7.61221 10.2192C7.27047 10.3789 6.96515 10.687 6.70465 11.1352C6.5954 11.3229 6.50016 11.5161 6.42453 11.7206C6.3461 11.9419 6.36851 12.1688 6.49176 12.3425C6.60941 12.5077 6.79988 12.6058 7.00156 12.603C7.10801 12.603 7.21445 12.5778 7.31249 12.5302L7.80549 12.3005L8.11921 12.4685L8.04638 12.8187L7.55339 13.0484C7.29568 13.1688 7.14162 13.4069 7.15002 13.6674C7.15843 13.9279 7.3349 14.152 7.60101 14.25C7.65983 14.2725 8.18364 14.4573 8.74106 14.4573C9.03238 14.4573 9.29288 14.4041 9.51137 14.3033C9.85311 14.1436 10.1584 13.8355 10.4189 13.3873C10.5254 13.208 10.615 13.0204 10.6906 12.8243L10.699 12.8159L14.4806 11.054H14.4918C14.6094 11.096 15.094 11.2528 15.6094 11.2528C15.9035 11.2528 16.1612 11.1996 16.3797 11.0988C16.7215 10.9391 17.0268 10.631 17.2873 10.1828C17.3965 9.99514 17.4918 9.80186 17.5674 9.59738C17.6458 9.37609 17.6234 9.1492 17.5002 8.97553C17.3825 8.81027 17.192 8.71503 16.9904 8.71503C16.8839 8.71503 16.7775 8.74024 16.6794 8.78786L16.1864 9.01755L15.8727 8.84948L15.9455 8.49934L16.4385 8.26965C16.6962 8.1492 16.8503 7.91111 16.8391 7.6506C16.8279 7.3901 16.6542 7.16601 16.3881 7.06797L16.3845 7.06671C16.3127 7.04148 15.798 6.86069 15.2509 6.86069ZM15.2509 7.42091C15.7271 7.42091 16.1976 7.59458 16.1976 7.59458C16.3097 7.6366 16.3125 7.70943 16.206 7.75985L15.6542 8.01755C15.5366 8.08198 15.4469 8.19122 15.4133 8.32287L15.2845 8.93352C15.2649 9.05957 15.3237 9.18282 15.4301 9.24724L15.9792 9.54136C16.0436 9.57217 16.1164 9.58898 16.1864 9.58618C16.2481 9.58618 16.3097 9.57497 16.3657 9.54976L16.9175 9.29206C16.9399 9.28085 16.9652 9.27245 16.9904 9.27245C17.0464 9.27245 17.0688 9.32287 17.0408 9.4041C17.0408 9.4041 16.7102 10.3201 16.1444 10.5862C15.9848 10.6618 15.7971 10.687 15.6094 10.687C15.1332 10.687 14.6626 10.5133 14.6626 10.5133C14.6066 10.4937 14.5478 10.4853 14.489 10.4853C14.4105 10.4853 14.3349 10.4993 14.2621 10.5274L10.4413 12.3145C10.3209 12.3789 10.2257 12.4825 10.1724 12.6086C10.1724 12.6086 9.8419 13.5246 9.27607 13.7907C9.11641 13.8663 8.92874 13.8915 8.74106 13.8915C8.26487 13.8915 7.79428 13.7178 7.79428 13.7178C7.68224 13.6758 7.67944 13.603 7.78588 13.5498L8.3377 13.2921C8.45535 13.2276 8.54498 13.1184 8.5786 12.9895L8.70745 12.3789C8.72706 12.2528 8.67103 12.1296 8.56179 12.0652L8.01277 11.7711C7.94834 11.7402 7.87551 11.7234 7.80549 11.7262C7.74386 11.7262 7.68224 11.7374 7.62621 11.7626L7.07439 12.0204C7.05199 12.0316 7.02678 12.04 7.00156 12.04C6.94554 12.04 6.92313 11.9895 6.95115 11.9083C6.95115 11.9083 7.28168 10.9923 7.8475 10.7262C8.00717 10.6506 8.19484 10.6254 8.38252 10.6254C8.85871 10.6254 9.3293 10.7991 9.3293 10.7991C9.38532 10.8187 9.44414 10.8271 9.50297 10.8271C9.5814 10.8271 9.65703 10.8131 9.72986 10.7851L13.5506 9.00074C13.671 8.93632 13.7663 8.83268 13.8195 8.70382C13.8195 8.70382 14.15 7.78786 14.7159 7.52175C14.8755 7.44892 15.0632 7.42091 15.2509 7.42091Z" fill="#313235"/>
</svg>
