<svg width="24" height="24" viewBox="0 0 24 24" fill="none" xmlns="http://www.w3.org/2000/svg">
<path fill-rule="evenodd" clip-rule="evenodd" d="M7.04891 14.38C5.21151 12.3134 3.90528 10.251 3.27044 8.40691C2.69901 6.75144 2.70742 5.36769 3.29285 4.51055C3.29845 4.49934 3.30686 4.48814 3.31806 4.47413C3.55055 4.1464 3.75784 3.8999 3.93151 3.73184C4.6682 3.02595 5.35728 2.68982 6.03795 2.70382C6.69061 2.71503 7.33767 3.05116 8.01274 3.72623C8.27604 3.98394 8.50574 4.27245 8.69341 4.58898L8.69901 4.59738C9.03235 5.1352 9.1556 5.67581 9.06596 6.20803C8.97072 6.77105 8.63459 7.34248 8.07156 7.90551C7.9203 8.05957 7.75784 8.20242 7.58417 8.33408C7.57372 8.34035 7.56639 8.34817 7.55869 8.3564L7.55055 8.36489C7.1752 8.77385 7.19481 9.37609 7.61498 10.1604C7.91708 10.7262 8.4319 11.4077 9.18848 12.242L7.04891 14.38ZM9.5844 11.8463C7.78098 9.85416 7.6907 9.06732 7.94831 8.75985C8.13319 8.61979 8.30406 8.46853 8.46652 8.30326C9.36568 7.40691 10.2172 5.98394 9.1752 4.30887C8.96232 3.95312 8.70462 3.62539 8.4077 3.33408C6.82787 1.75705 5.19201 1.75424 3.54215 3.33128C3.34607 3.51895 3.11638 3.79346 2.86148 4.1492L2.84467 4.17161L2.84467 4.17161C2.84187 4.17442 2.83627 4.18002 2.83347 4.18562C2.13879 5.19122 2.10518 6.75424 2.73823 8.58898C3.40042 10.5093 4.75293 12.6471 6.65119 14.7774L5.83907 15.589C5.78305 15.6282 5.71862 15.6562 5.64859 15.6674H5.64579C5.31526 15.673 4.98473 15.7066 4.6598 15.7654C3.93151 15.9027 3.37408 16.1576 3.00714 16.5246C2.63459 16.8971 2.37688 17.4629 2.24243 18.2052C2.18361 18.5218 2.1528 18.8439 2.14999 19.166C2.1528 19.6506 2.48613 19.9055 2.81386 19.9055C2.94831 19.9055 3.14999 19.8635 3.34887 19.6646L4.02674 18.9867C4.06316 18.9643 4.10237 18.9531 4.14439 18.9475L5.03795 19.0764L5.1668 19.9727C5.164 20.0147 5.14999 20.054 5.12758 20.0904L4.45251 20.7654C4.22562 20.9923 4.15279 21.2865 4.25924 21.547C4.36568 21.8075 4.62338 21.9643 4.94551 21.9671H4.94831C5.27885 21.9615 5.60938 21.9279 5.93431 21.8691C6.6626 21.7318 7.22002 21.4769 7.58697 21.11C7.95952 20.7374 8.21722 20.1716 8.35167 19.4293C8.4105 19.1128 8.44131 18.7907 8.44411 18.4685C8.45532 18.4013 8.48053 18.3341 8.52254 18.2781L9.33754 17.4631C11.4722 19.3666 13.6189 20.723 15.545 21.3817C16.4105 21.6786 17.2144 21.8271 17.9287 21.8271C18.7214 21.8271 19.4021 21.645 19.9315 21.2865L19.9455 21.2753L19.9679 21.2584C20.3209 21.0007 20.5954 20.7739 20.783 20.5778C22.3601 18.9279 22.3573 17.2921 20.7802 15.7122C20.4889 15.4153 20.1612 15.1576 19.8055 14.9447C18.1304 13.9055 16.7074 14.757 15.8111 15.6534C15.6458 15.8159 15.4917 15.9895 15.3517 16.1716C15.0446 16.4289 14.2596 16.3392 12.2655 14.5351L16.3069 10.4937C16.3629 10.4545 16.4273 10.4265 16.4973 10.4153H16.5001C16.8307 10.4097 17.1612 10.3761 17.4861 10.3173C18.2144 10.18 18.7718 9.92511 19.1388 9.55817C19.5113 9.18562 19.769 8.61979 19.9035 7.87749C19.9623 7.56097 19.9931 7.23884 19.9959 6.91671C19.9931 6.43492 19.6598 6.18282 19.3321 6.18282C19.1976 6.18282 18.9959 6.22483 18.7971 6.42371L18.1164 7.09878C18.08 7.12119 18.0408 7.1324 17.9987 7.138L17.1024 7.00915L16.9735 6.11279C16.9791 6.07077 16.9903 6.03156 17.0127 5.99514L17.6906 5.31727C17.9175 5.09038 17.9903 4.79626 17.8839 4.53576C17.7774 4.27525 17.5197 4.11839 17.1976 4.11559L17.1948 4.11839C16.8643 4.12399 16.5365 4.15761 16.2116 4.21923C15.4833 4.35649 14.9259 4.61139 14.559 4.97833C14.1864 5.35088 13.9287 5.91671 13.7943 6.65901C13.7354 6.97553 13.7046 7.29766 13.7018 7.61979C13.6906 7.68702 13.6654 7.75424 13.6234 7.81027L9.5844 11.8463ZM11.8682 14.9324L9.73384 17.0668C11.8072 18.9088 13.8779 20.2184 15.727 20.8523C17.3769 21.4181 18.755 21.4069 19.6066 20.8243L19.643 20.7991C19.9707 20.5638 20.2172 20.3565 20.3797 20.1884C21.0828 19.4517 21.4189 18.7626 21.4077 18.082C21.3965 17.4293 21.0604 16.7823 20.3853 16.1072C20.1276 15.8439 19.8391 15.6142 19.5225 15.4265L19.5141 15.4209C18.9791 15.0876 18.4357 14.9643 17.9035 15.054C17.3405 15.1492 16.7718 15.4825 16.206 16.0484C16.052 16.1996 15.9091 16.3649 15.7774 16.5358C15.769 16.547 15.7579 16.5582 15.7467 16.5693L15.7466 16.5694C15.3377 16.9475 14.7326 16.9251 13.9455 16.5049C13.3814 16.201 12.6994 15.6881 11.8682 14.9324ZM17.1948 4.67861C17.3825 4.67861 17.4301 4.78786 17.2957 4.92231L16.615 5.60298C16.4805 5.73744 16.3937 5.99794 16.4217 6.18562L16.5618 7.16321C16.5898 7.35088 16.7634 7.52455 16.9511 7.55256L17.9287 7.69262C17.9511 7.69542 17.9763 7.69822 17.9987 7.69822C18.1752 7.69822 18.3937 7.61699 18.5113 7.49934L19.192 6.81867C19.2424 6.76545 19.2929 6.74304 19.3321 6.74304C19.3937 6.74304 19.4357 6.80467 19.4357 6.91951C19.4357 6.91951 19.4413 8.46293 18.741 9.16321C18.052 9.85228 16.5506 9.85789 16.5001 9.85789H16.4973C16.3097 9.85789 16.0464 9.96713 15.9119 10.0988L8.12758 17.8803C7.99313 18.0147 7.88669 18.2781 7.88669 18.4657C7.88669 18.4657 7.89229 20.0091 7.19201 20.7094C6.50293 21.3985 5.00153 21.4041 4.95111 21.4041C4.76344 21.4041 4.71582 21.2921 4.85027 21.1604L5.53095 20.4797C5.6654 20.3453 5.75223 20.0848 5.72422 19.8971L5.58417 18.9195C5.55616 18.7318 5.38249 18.5582 5.19481 18.5302L4.21722 18.3901C4.19481 18.3873 4.1696 18.3845 4.14719 18.3845C3.97072 18.3845 3.75223 18.4657 3.63459 18.5834L2.95111 19.264C2.89789 19.3145 2.85027 19.3397 2.81106 19.3397C2.74943 19.3397 2.70742 19.2781 2.70742 19.1632C2.70742 19.1632 2.70181 17.6198 3.40209 16.9195C4.09117 16.2304 5.59257 16.2248 5.64299 16.2248H5.64859C5.83627 16.2248 6.09957 16.1156 6.23403 15.9839L14.0155 8.19962C14.15 8.06517 14.2564 7.80186 14.2564 7.61419C14.2564 7.61419 14.2508 6.07077 14.9511 5.37049C15.643 4.68702 17.1444 4.67861 17.1948 4.67861Z" fill="#313235"/>
</svg>
