<svg width="24" height="24" viewBox="0 0 24 24" fill="none" xmlns="http://www.w3.org/2000/svg">
<path fill-rule="evenodd" clip-rule="evenodd" d="M11.4196 21.8418H18.6045C20.7921 21.8418 21.8538 20.7661 21.8538 18.5504V9.28145C21.9367 9.10788 22.0039 8.92439 22.0534 8.73253C22.1822 8.22832 22.1822 7.69611 22.0478 7.19191C22.0111 7.05566 21.9432 6.93624 21.8538 6.83939V5.44121C21.8538 3.25634 20.7613 2.1499 18.6045 2.1499H11.4196C10.3132 2.1499 9.50925 2.42161 8.96584 2.98183C8.43082 3.53085 8.17032 4.33477 8.17032 5.44121V10.2395H9.29077V5.44121C9.29077 4.6429 9.44483 4.09388 9.76696 3.76335C10.0891 3.43281 10.6297 3.27035 11.4196 3.27035H18.6045C20.1367 3.27035 20.7333 3.87819 20.7333 5.44121V6.73712C20.7012 6.76111 20.6706 6.78759 20.6416 6.81656L19.9861 7.47202L19.6752 7.42721L19.6304 7.11628L20.2859 6.46082C20.6136 6.13309 20.6164 5.60088 20.2887 5.27315C20.185 5.1667 20.0534 5.09107 19.9077 5.05466C19.6528 4.98183 19.3895 4.94822 19.1262 4.94822C17.748 4.94822 16.5436 5.88099 16.1962 7.21432C16.1094 7.55326 16.0814 7.9034 16.1122 8.25073L11.4763 12.8894C11.3839 12.881 11.2887 12.8754 11.1962 12.8754C10.0716 12.8754 9.06265 13.4965 8.54073 14.4496H8.17032V15.9034C8.17032 15.9035 8.17032 15.9036 8.17032 15.9037V18.5504C8.17032 20.7661 9.23194 21.8418 11.4196 21.8418ZM9.29077 17.2783V18.5504C9.29077 19.3572 9.44763 19.909 9.76976 20.2367C10.0919 20.5644 10.6297 20.7213 11.4196 20.7213H18.6045C19.3944 20.7213 19.9322 20.5616 20.2543 20.2367C20.5765 19.9118 20.7333 19.3572 20.7333 18.5504V10.5369C20.2637 10.8314 19.7106 10.9986 19.1262 10.9986C19.0338 10.9986 18.9385 10.993 18.8461 10.9846L14.2074 15.6233C14.241 15.979 14.2102 16.3376 14.1178 16.6849C13.6836 18.2983 12.0254 19.2563 10.4119 18.8249C10.2691 18.7857 10.1374 18.7101 10.0338 18.6065C9.70604 18.2787 9.70604 17.7465 10.0338 17.4188L10.6892 16.7633L10.6444 16.4524L10.3335 16.4076L9.67803 17.0574C9.57159 17.1639 9.44274 17.2367 9.29988 17.2759C9.29684 17.2767 9.2938 17.2775 9.29077 17.2783ZM9.29077 16.2654L10.0394 15.5168L11.3923 15.7101L11.5856 17.063L10.6332 18.0154C11.003 18.1163 11.3951 18.1163 11.7649 18.0154C12.9301 17.7017 13.622 16.5028 13.3083 15.3376L18.5632 10.0827C18.9329 10.1835 19.3251 10.1835 19.6948 10.0827C20.1086 9.97225 20.4627 9.74985 20.7333 9.45674V7.91251L20.2859 8.35998L18.9329 8.1667L18.7396 6.81376L19.692 5.86138C19.5071 5.81376 19.3167 5.78855 19.1262 5.78855C18.9357 5.78855 18.7452 5.81376 18.5576 5.86418C17.3923 6.17511 16.7004 7.37398 17.0142 8.53925L11.7621 13.7941C11.3923 13.6933 11.0002 13.6933 10.6304 13.7941C10.0384 13.9521 9.56861 14.3392 9.29077 14.8347V16.2654ZM15.0218 17.458C15.5989 17.458 15.977 17.7633 15.977 18.416C15.977 18.7297 15.8902 18.9622 15.7361 19.1219C15.5681 19.2927 15.3244 19.374 15.0218 19.374C14.7193 19.374 14.4756 19.2927 14.3076 19.1219C14.1535 18.965 14.0667 18.7297 14.0667 18.416C14.0695 17.7605 14.4448 17.458 15.0218 17.458Z" fill="#313235"/>
</svg>
