<svg width="24" height="24" viewBox="0 0 24 24" fill="none" xmlns="http://www.w3.org/2000/svg">
<path fill-rule="evenodd" clip-rule="evenodd" d="M6.00859 14.3835C4.3779 12.4578 3.20738 10.5367 2.60466 8.79184C2.28814 7.87307 2.13688 7.02153 2.15088 6.26243C2.16769 5.46972 2.36377 4.79465 2.73352 4.25683L2.75032 4.23162L2.76153 4.21482L2.76773 4.20631C2.87149 4.06396 3.15987 3.6683 3.45901 3.38288C4.33295 2.54815 5.22371 2.13359 6.10326 2.15039C6.952 2.1672 7.79233 2.58177 8.59905 3.38849C8.90438 3.68821 9.16768 4.02434 9.38897 4.39129C9.82034 5.08876 9.9772 5.80865 9.85676 6.52854C9.73631 7.24843 9.33015 7.95711 8.65788 8.62938C8.50101 8.78904 8.33575 8.9347 8.15928 9.07195C8.08645 9.1952 8.17609 9.51453 8.38897 9.90108C8.59158 10.2654 8.90123 10.692 9.32734 11.1951L13.7558 6.76663C13.767 6.45011 13.8006 6.13918 13.8567 5.82826C14.0135 4.97112 14.3245 4.30445 14.7782 3.85067C15.2292 3.39969 15.8819 3.09157 16.725 2.93471C17.0836 2.86748 17.4477 2.83106 17.8118 2.82546H17.8174C18.3637 2.82826 18.8259 3.12238 19.0191 3.59297C19.2124 4.06356 19.092 4.59857 18.7054 4.98512L18.1788 5.51173L18.218 5.78064L18.4897 5.81986L19.0163 5.28764C19.2768 5.02434 19.6102 4.88148 19.9491 4.88148C20.3693 4.88148 20.7614 5.10277 20.9799 5.46411C21.1088 5.6798 21.176 5.9263 21.1732 6.1756C21.1676 6.53134 21.134 6.88988 21.0695 7.24002C20.9155 8.09716 20.6046 8.76383 20.1508 9.21761C19.6998 9.66579 19.0471 9.97391 18.204 10.1308C17.8847 10.1896 17.5625 10.226 17.2376 10.2372L12.8003 14.6745C13.3332 15.1281 13.7816 15.4519 14.1593 15.6574C14.529 15.8591 14.8371 15.9403 14.9576 15.8703C15.0948 15.6938 15.2405 15.5285 15.4002 15.3717C16.0724 14.6994 16.7811 14.2932 17.501 14.1728C18.2209 14.0523 18.9408 14.2064 19.6383 14.6406C20.0052 14.8591 20.3413 15.1252 20.6411 15.4277C21.4478 16.2344 21.8651 17.0719 21.8791 17.9235C21.896 18.803 21.4814 19.6938 20.6495 20.5649C20.3631 20.8651 19.9631 21.1544 19.8245 21.2546L19.8175 21.2596L19.8007 21.2708C19.7923 21.2764 19.7839 21.282 19.7755 21.2904C19.2349 21.663 18.557 21.859 17.7615 21.8731C17.7251 21.8759 17.6943 21.8759 17.6607 21.8759C16.9212 21.8759 16.0976 21.7218 15.2125 21.4137C13.4648 20.8084 11.5445 19.6332 9.6173 17.9985C9.60194 18.2643 9.57062 18.5267 9.52334 18.789C9.36648 19.6434 9.05556 20.31 8.60178 20.7638C8.1508 21.2148 7.49814 21.5229 6.655 21.6798C6.29646 21.747 5.93231 21.7834 5.56537 21.789H5.55976C5.01355 21.789 4.55136 21.4949 4.35808 21.0243C4.16481 20.5537 4.28526 20.0215 4.67181 19.635L5.20402 19.1084L5.16481 18.8366L4.8931 18.7974L4.36649 19.324C4.10598 19.5873 3.77265 19.7302 3.43372 19.7302C3.01097 19.7302 2.61897 19.5092 2.4001 19.1476C2.27125 18.9347 2.20403 18.6882 2.20683 18.4389C2.21243 18.0831 2.24604 17.7246 2.31047 17.3745C2.46453 16.5173 2.77545 15.8507 3.22923 15.3969C3.68021 14.9487 4.33568 14.6406 5.17601 14.4837C5.45058 14.4331 5.7293 14.3991 6.00859 14.3835ZM6.86227 13.6602L8.53337 11.9891C8.02707 11.3965 7.65641 10.8872 7.41138 10.4445C7.19009 10.0467 7.06404 9.6966 7.02483 9.37727C6.9604 8.83946 7.16768 8.48932 7.34976 8.29044C7.36936 8.26803 7.39177 8.24842 7.41418 8.23162C7.57385 8.11117 7.7223 7.97952 7.86516 7.83666C8.37216 7.32966 8.66908 6.82826 8.75312 6.34086C8.82875 5.88988 8.7251 5.44171 8.43379 4.97392L8.42538 4.95711C8.25452 4.6714 8.04723 4.41089 7.80914 4.1784C7.2041 3.57896 6.64107 3.28204 6.08365 3.27084C5.50942 3.25964 4.88757 3.57056 4.23772 4.19241C4.08365 4.33807 3.89598 4.56776 3.67749 4.87028L3.65228 4.90389C3.13968 5.66019 3.14248 6.90949 3.66629 8.4305C4.22238 10.0457 5.32132 11.8411 6.86227 13.6602ZM10.3356 17.1392C12.158 18.6881 13.9583 19.7926 15.5794 20.3548C17.106 20.8843 18.3637 20.8927 19.1228 20.3745L19.1565 20.352C19.459 20.1336 19.6887 19.9459 19.8343 19.7918C20.4562 19.142 20.7643 18.5201 20.7559 17.9459C20.7447 17.3885 20.4478 16.8254 19.8455 16.2232C19.613 15.9851 19.3525 15.7778 19.0668 15.607L19.05 15.5986C18.5822 15.3072 18.1369 15.2036 17.6831 15.2792C17.1957 15.3633 16.6943 15.6602 16.1873 16.1672C16.0444 16.3072 15.9128 16.4585 15.7923 16.6154C15.7727 16.6378 15.7531 16.6602 15.7335 16.6798C15.5374 16.8591 15.1957 17.0635 14.6691 17.0075C14.3553 16.9739 14.0108 16.8535 13.6215 16.6434C13.1613 16.3926 12.6281 16.0059 12.0047 15.4702L10.3356 17.1392ZM17.8146 3.94591C18.0023 3.94591 18.0499 4.05515 17.9155 4.18961L17.2348 4.87028C17.1004 5.00473 17.0135 5.26523 17.0415 5.45291L17.1816 6.4305C17.2096 6.61817 17.3833 6.79184 17.571 6.81985L18.5485 6.95991C18.5709 6.96271 18.5962 6.96551 18.6186 6.96551C18.795 6.96551 19.0135 6.88428 19.1312 6.76663L19.8118 6.08596C19.8623 6.03274 19.9127 6.01033 19.9519 6.01033C20.0135 6.01033 20.0555 6.07196 20.0555 6.1868C20.0555 6.1868 20.0611 7.73022 19.3609 8.4305C18.6718 9.11957 17.1704 9.12517 17.12 9.12517H17.1172C16.9295 9.12517 16.6662 9.23442 16.5345 9.36607L8.74463 17.1476C8.61018 17.282 8.50374 17.5453 8.50374 17.733C8.50374 17.733 8.50934 19.2764 7.80906 19.9767C7.11999 20.6658 5.61859 20.6714 5.56817 20.6714C5.38049 20.6714 5.33287 20.5593 5.46733 20.4277L6.148 19.747C6.28245 19.6126 6.36929 19.352 6.34128 19.1644L6.20122 18.1868C6.17321 17.9991 5.99954 17.8254 5.81186 17.7974L4.83427 17.6574C4.81187 17.6546 4.78666 17.6518 4.76425 17.6518C4.58778 17.6518 4.36929 17.733 4.25164 17.8507L3.56817 18.5341C3.51775 18.5845 3.46733 18.6098 3.42811 18.6098C3.36649 18.6098 3.32447 18.5481 3.32447 18.4333C3.32447 18.4333 3.31887 16.8899 4.01915 16.1896C4.70822 15.5005 6.20962 15.4949 6.26004 15.4949H6.26565C6.45332 15.4949 6.71662 15.3857 6.85108 15.254L14.6326 7.46971C14.767 7.33526 14.8735 7.07195 14.8735 6.88428C14.8735 6.88428 14.8679 5.34087 15.5682 4.64059C16.26 3.95151 17.7614 3.94591 17.8146 3.94591Z" fill="#313235"/>
</svg>
