<svg width="24" height="24" viewBox="0 0 24 24" fill="none" xmlns="http://www.w3.org/2000/svg">
<path fill-rule="evenodd" clip-rule="evenodd" d="M10.8706 21.8278H18.0555C19.0807 21.8278 19.8146 21.5869 20.302 21.0939C20.7894 20.6009 21.0247 19.8558 21.0247 18.8166V5.16111C21.0247 3.1359 20.0527 2.1499 18.0555 2.1499H10.8706C8.84538 2.1499 7.90141 3.10789 7.90141 5.16111V10.5561L5.27676 13.1807C5.15071 13.1639 5.02185 13.1555 4.8958 13.1527C3.6437 13.1527 2.55127 13.9986 2.23754 15.2087C2.11989 15.6681 2.11989 16.1499 2.24314 16.6065C2.32157 16.9062 2.6297 17.0827 2.92942 17.0042C3.02466 16.979 3.11149 16.9286 3.18152 16.8586L3.93502 16.1051L4.59328 16.2003L4.68572 16.8586L3.93222 17.6121C3.71373 17.8306 3.71373 18.1863 3.93222 18.4048C4.00225 18.4748 4.08908 18.5253 4.18432 18.5505C4.41681 18.6121 4.65491 18.6429 4.8958 18.6429C6.14791 18.6429 7.24034 17.797 7.55407 16.5869C7.6437 16.2367 7.66331 15.8754 7.61569 15.5168L7.89861 15.2339V18.8166C7.89861 19.8558 8.1339 20.6009 8.62129 21.0939C9.10869 21.5869 9.84538 21.8278 10.8706 21.8278ZM8.45883 14.6737L12.4448 10.6877C12.5709 10.7045 12.6997 10.7129 12.8258 10.7157C14.0779 10.7157 15.1703 9.86979 15.484 8.65971C15.6017 8.20032 15.6017 7.71853 15.4784 7.26195C15.4 6.96223 15.0919 6.78576 14.7922 6.86419C14.6969 6.8894 14.6101 6.93982 14.5401 7.00985L13.7866 7.76335L13.1283 7.67091L13.0359 7.01265L13.7894 6.25915C14.0078 6.04066 14.0078 5.68492 13.7894 5.46643C13.7193 5.3964 13.6325 5.34598 13.5373 5.32077C13.302 5.25634 13.0639 5.22553 12.8258 5.22553C11.5737 5.22553 10.4812 6.07147 10.1675 7.28156C10.0779 7.63169 10.0583 7.99304 10.1059 8.35158L8.46163 9.99584V5.16111C8.46163 3.41881 9.15911 2.71013 10.8706 2.71013H18.0527C19.7417 2.71013 20.4616 3.44402 20.4616 5.16111V18.8166C20.4616 19.7017 20.2768 20.318 19.9014 20.7017C19.5261 21.0855 18.921 21.2704 18.0527 21.2704H10.8678C9.99945 21.2704 9.3972 21.0855 9.01905 20.7017C8.6409 20.318 8.45883 19.7017 8.45883 18.8166V14.6737ZM13.3916 5.85859C13.2067 5.81097 13.0163 5.78576 12.8258 5.78576C12.6325 5.78576 12.442 5.81097 12.2571 5.86139C11.0919 6.17231 10.4 7.37119 10.7137 8.53646L5.45883 13.7914C5.08908 13.6905 4.69692 13.6905 4.32718 13.7914C3.16191 14.1051 2.47003 15.304 2.78376 16.4692L3.73614 15.5168L5.08908 15.7101L5.28236 17.0603L4.32998 18.0126C4.69973 18.1135 5.09188 18.1135 5.46163 18.0126C6.6269 17.6989 7.31877 16.5 7.00505 15.3348L12.2628 10.0827C12.6325 10.1835 13.0247 10.1835 13.3944 10.0827C14.5597 9.76895 15.2515 8.57007 14.9378 7.4048L13.9854 8.35719L12.6325 8.16391L12.4392 6.81097L13.3916 5.85859ZM15.2936 18.6541C15.2936 18.0855 14.9658 17.8194 14.4616 17.8194C13.9602 17.8194 13.6325 18.0855 13.6297 18.6541C13.6297 18.9258 13.7053 19.1303 13.8398 19.2675C13.9854 19.416 14.1983 19.4888 14.4616 19.4888C14.7249 19.4888 14.9378 19.416 15.0835 19.2675C15.2179 19.1303 15.2936 18.9286 15.2936 18.6541Z" fill="#313235"/>
</svg>
