<svg width="24" height="24" viewBox="0 0 24 24" fill="none" xmlns="http://www.w3.org/2000/svg">
<path fill-rule="evenodd" clip-rule="evenodd" d="M6.00705 14.3653C4.53315 12.6254 3.43716 10.8936 2.79111 9.27594C1.95638 7.18631 1.93677 5.402 2.73229 4.24794L2.74909 4.22273L2.7631 4.20592C2.85834 4.07147 3.15245 3.66531 3.45778 3.37399C4.30651 2.56167 5.17486 2.1499 6.0348 2.1499C6.89475 2.1499 7.75189 2.56447 8.56981 3.38519C8.87514 3.68211 9.13844 4.01825 9.35693 4.38519C9.7883 5.07987 9.94236 5.79415 9.82191 6.51124C9.70146 7.22833 9.2981 7.93141 8.62864 8.60367C8.47177 8.76334 8.30651 8.9118 8.13004 9.04905C8.0404 9.20031 8.15525 9.64009 8.62584 10.3236C8.81606 10.6018 9.04725 10.8956 9.29644 11.1896L13.7379 6.74653C13.7491 6.43001 13.7827 6.11908 13.8387 5.80816C13.9956 4.95102 14.3065 4.28435 14.7603 3.83057C15.2113 3.38239 15.8667 3.07427 16.7071 2.91741C17.0656 2.85018 17.4297 2.81377 17.7939 2.80816L17.7995 2.80536C18.3457 2.80816 18.8079 3.10228 19.0012 3.57287C19.1944 4.04346 19.074 4.57847 18.6874 4.96502L18.1608 5.49163L18.2001 5.76334L18.469 5.79976L18.9984 5.27315C19.2589 5.00984 19.5922 4.86699 19.9311 4.86699C20.3513 4.86699 20.7435 5.08827 20.962 5.44962C21.0908 5.6653 21.158 5.9118 21.1552 6.1611C21.1496 6.51684 21.116 6.87539 21.0516 7.22553C20.8975 8.08267 20.5866 8.74933 20.1328 9.20311C19.6818 9.65409 19.0292 9.96222 18.186 10.1191C17.8667 10.1779 17.5446 10.2143 17.2197 10.2255L12.7731 14.6753C12.9467 14.8227 13.1112 14.956 13.2673 15.0771C14.1917 15.7913 14.637 15.8978 14.8219 15.8978C14.8639 15.9006 14.9059 15.8922 14.9424 15.8698C15.0796 15.6933 15.2281 15.5252 15.3877 15.3684C16.2057 14.5504 17.0684 14.1331 17.948 14.1331C18.5082 14.1331 19.0656 14.3039 19.6062 14.6373C19.9732 14.8558 20.3093 15.1191 20.6062 15.4244C21.4101 16.2283 21.8247 17.063 21.8387 17.909C21.8555 18.7857 21.4437 19.6709 20.6118 20.5392C20.3332 20.8312 19.9496 21.1104 19.799 21.22L19.7799 21.2339L19.7631 21.2479L19.7379 21.2647C19.1776 21.6513 18.4718 21.8474 17.637 21.8474C16.3569 21.8474 14.8163 21.374 13.1805 20.4804C12.003 19.8369 10.8074 18.9987 9.60555 17.9761C9.59042 18.2455 9.5589 18.5114 9.51099 18.7773C9.35413 19.6317 9.0432 20.2983 8.58942 20.7521C8.13844 21.2031 7.48578 21.5112 6.64265 21.6681C6.2841 21.7353 5.91996 21.7717 5.55301 21.7773H5.54741C5.00119 21.7773 4.53901 21.4832 4.34573 21.0126C4.15245 20.542 4.2729 20.007 4.65946 19.6205L5.18607 19.0911L5.14685 18.8193L4.87514 18.7801L4.34853 19.3067C4.08803 19.57 3.75469 19.7129 3.41576 19.7129C2.99302 19.7129 2.60102 19.4919 2.38215 19.1303C2.2533 18.9174 2.18887 18.6709 2.19167 18.4216C2.19727 18.0658 2.23089 17.7073 2.29531 17.3572C2.44937 16.5 2.7603 15.8334 3.21408 15.3796C3.66226 14.9314 4.31772 14.6233 5.15805 14.4664C5.44042 14.4148 5.72279 14.3805 6.00705 14.3653ZM17.7967 3.92861C17.9844 3.92861 18.032 4.03785 17.8975 4.17231L17.2169 4.85298C17.0824 4.98743 16.9956 5.24794 17.0236 5.43561L17.1636 6.4132C17.1917 6.60088 17.3653 6.77455 17.553 6.80256L18.5306 6.94261C18.553 6.94541 18.5782 6.94822 18.6006 6.94822C18.7771 6.94822 18.9956 6.86698 19.1132 6.74934L19.7939 6.06866C19.8443 6.01544 19.8947 5.99303 19.9339 5.99303C19.9956 5.99303 20.0376 6.05466 20.0376 6.1695C20.0376 6.1695 20.0432 7.71292 19.3429 8.4132C18.6538 9.10227 17.1524 9.10788 17.102 9.10788H17.0992C16.9115 9.10788 16.6482 9.21712 16.5166 9.34877L8.72948 17.1303C8.59502 17.2647 8.48858 17.528 8.48858 17.7157C8.48858 17.7157 8.49418 19.2591 7.7939 19.9594C7.10483 20.6485 5.60343 20.6541 5.55301 20.6541C5.36534 20.6541 5.31772 20.542 5.45217 20.4104L6.13284 19.7297C6.2673 19.5953 6.35413 19.3348 6.32612 19.1471L6.18606 18.1695C6.15805 17.9818 5.98438 17.8081 5.79671 17.7801L4.81912 17.6401C4.79671 17.6373 4.7715 17.6345 4.74909 17.6345C4.57262 17.6345 4.35413 17.7157 4.23649 17.8334L3.55301 18.514C3.50259 18.5644 3.45217 18.5897 3.41296 18.5897C3.35133 18.5897 3.30932 18.528 3.30932 18.4132C3.30932 18.4132 3.30371 16.8698 4.00399 16.1695C4.69307 15.4804 6.19447 15.4748 6.24489 15.4748H6.24769C6.43536 15.4748 6.69867 15.3656 6.83312 15.2339L14.6174 7.45242C14.7519 7.31796 14.8583 7.05466 14.8583 6.86698C14.8583 6.86698 14.8527 5.32357 15.553 4.62329C16.2421 3.93701 17.7435 3.92861 17.7967 3.92861Z" fill="#313235"/>
</svg>
