<svg width="24" height="24" viewBox="0 0 24 24" fill="none" xmlns="http://www.w3.org/2000/svg">
<path fill-rule="evenodd" clip-rule="evenodd" d="M17.2958 2.26195C17.6656 2.19192 18.0437 2.1555 18.4247 2.1499H18.4303C18.9821 2.1527 19.4415 2.44682 19.6376 2.91741C19.8336 3.388 19.7104 3.92581 19.321 4.31517L18.7496 4.88379L18.8 5.23113L19.1474 5.28155L19.716 4.71292C19.9793 4.44962 20.3126 4.30396 20.6544 4.30396C21.0801 4.30396 21.4723 4.52525 21.6908 4.88939C21.8196 5.10788 21.8869 5.35438 21.8841 5.60648C21.8785 5.97623 21.8448 6.34597 21.7776 6.71012C21.6179 7.59527 21.2986 8.28155 20.8308 8.74933C20.3686 9.21152 19.6936 9.52804 18.8224 9.69051C18.4835 9.75493 18.1418 9.79135 17.7972 9.80255L9.80564 17.7941C9.79724 18.1275 9.76082 18.4608 9.702 18.7885C9.53953 19.6737 9.22021 20.36 8.75242 20.8277C8.29024 21.2927 7.61517 21.6093 6.74402 21.7717C6.37147 21.8418 5.99332 21.8782 5.61517 21.8838H5.60957C5.05775 21.881 4.59556 21.5868 4.39948 21.1135C4.20341 20.6401 4.32666 20.1051 4.71601 19.7185L5.28744 19.1471L5.23702 18.7997L4.88968 18.7493L4.31825 19.3207C4.05495 19.5841 3.72161 19.7297 3.37988 19.7297C2.95411 19.7297 2.56195 19.5084 2.34346 19.1443C2.21461 18.9258 2.14739 18.6793 2.15019 18.4272C2.15579 18.0574 2.1894 17.6877 2.25663 17.3236C2.41909 16.4384 2.73842 15.7521 3.20621 15.2843C3.66839 14.8222 4.34346 14.5056 5.21461 14.3432C5.55354 14.2787 5.89528 14.2423 6.23982 14.2311L14.2342 6.23953C14.2426 5.9062 14.279 5.57287 14.3378 5.24514C14.5003 4.35998 14.8196 3.67371 15.2874 3.20592C15.7496 2.74094 16.4247 2.42441 17.2958 2.26195ZM18.5283 3.52525C18.6684 3.38519 18.618 3.27035 18.4219 3.27035C18.3687 3.27035 16.7972 3.27595 16.0745 3.99584C15.3434 4.72973 15.349 6.34317 15.349 6.34317C15.349 6.54205 15.237 6.81656 15.0969 6.95662L6.9569 15.0967C6.81685 15.2367 6.54234 15.3488 6.34626 15.3488H6.34346C6.29024 15.3488 4.71881 15.3544 3.99892 16.0743C3.26783 16.8081 3.27344 18.4216 3.27344 18.4216C3.27344 18.542 3.31825 18.6065 3.38268 18.6065C3.4247 18.6065 3.47512 18.5784 3.52834 18.5252L4.23982 17.8137C4.36307 17.6905 4.58996 17.6065 4.77483 17.6065C4.80004 17.6065 4.82525 17.6093 4.85046 17.6121L5.87287 17.7577C6.06895 17.7857 6.25102 17.9678 6.27903 18.1639L6.42469 19.1863C6.4527 19.3824 6.36027 19.6569 6.22021 19.7969L5.50873 20.5084C5.37147 20.6485 5.41909 20.7633 5.61517 20.7633H5.61797C5.67119 20.7633 7.24262 20.7577 7.9625 20.0378C8.6936 19.3039 8.68799 17.6905 8.68799 17.6905C8.68799 17.4916 8.80004 17.2171 8.94009 17.0771L17.0801 8.93701C17.2202 8.79695 17.4947 8.68491 17.6908 8.68491H17.6936C17.7468 8.68491 19.3182 8.6793 20.0381 7.95942C20.7692 7.22553 20.7636 5.61208 20.7636 5.61208C20.7636 5.49163 20.7188 5.42721 20.6544 5.42721C20.6123 5.42721 20.5619 5.45522 20.5087 5.50844L19.7972 6.21992C19.674 6.34317 19.4471 6.42721 19.2622 6.42721C19.237 6.42721 19.2118 6.42441 19.1866 6.42161L18.1642 6.27595C17.9681 6.24794 17.786 6.06586 17.758 5.86978L17.6124 4.84738C17.5843 4.6513 17.6768 4.37679 17.8168 4.23673L18.5283 3.52525Z" fill="#313235"/>
</svg>
