<svg width="24" height="24" viewBox="0 0 24 24" fill="none" xmlns="http://www.w3.org/2000/svg">
<path fill-rule="evenodd" clip-rule="evenodd" d="M6.00705 14.3653C4.53315 12.6254 3.43716 10.8936 2.79111 9.27594C1.95638 7.18631 1.93677 5.402 2.73229 4.24794L2.74909 4.22273L2.7631 4.20592C2.85834 4.07147 3.15245 3.66531 3.45778 3.37399C4.30651 2.56167 5.17486 2.1499 6.0348 2.1499C6.89475 2.1499 7.75189 2.56447 8.56981 3.38519C8.87514 3.68211 9.13844 4.01825 9.35693 4.38519C9.7883 5.07987 9.94236 5.79415 9.82191 6.51124C9.70146 7.22833 9.2981 7.93141 8.62864 8.60367C8.47177 8.76334 8.30651 8.9118 8.13004 9.04905C8.0404 9.20031 8.15525 9.64009 8.62584 10.3236C8.81605 10.6018 9.04723 10.8956 9.2964 11.1896L13.7378 6.74653C13.749 6.43001 13.7826 6.11908 13.8386 5.80816C13.9955 4.95102 14.3064 4.28435 14.7602 3.83057C15.2112 3.38239 15.8666 3.07427 16.707 2.91741C17.0655 2.85018 17.4297 2.81377 17.7938 2.80816L17.7994 2.80536C18.3456 2.80816 18.8078 3.10228 19.0011 3.57287C19.1944 4.04346 19.0739 4.57847 18.6874 4.96502L18.1608 5.49163L18.2 5.76334L18.4689 5.79976L18.9983 5.27315C19.2588 5.00984 19.5921 4.86699 19.9311 4.86699C20.3512 4.86699 20.7434 5.08827 20.9619 5.44962C21.0907 5.6653 21.1579 5.9118 21.1551 6.1611C21.1495 6.51684 21.1159 6.87539 21.0515 7.22553C20.8974 8.08267 20.5865 8.74933 20.1327 9.20311C19.6818 9.65409 19.0291 9.96222 18.186 10.1191C17.8666 10.1779 17.5445 10.2143 17.2196 10.2255L12.7731 14.6753C12.9467 14.8227 13.1112 14.956 13.2673 15.0771C14.1917 15.7913 14.637 15.8978 14.8219 15.8978C14.8639 15.9006 14.9059 15.8922 14.9424 15.8698C15.0796 15.6933 15.2281 15.5252 15.3877 15.3684C16.2057 14.5504 17.0684 14.1331 17.948 14.1331C18.5082 14.1331 19.0656 14.3039 19.6062 14.6373C19.9732 14.8558 20.3093 15.1191 20.6062 15.4244C21.4101 16.2283 21.8247 17.063 21.8387 17.909C21.8555 18.7857 21.4437 19.6709 20.6118 20.5392C20.3332 20.8312 19.9496 21.1104 19.799 21.22L19.7799 21.2339L19.7631 21.2479L19.7379 21.2647C19.1776 21.6513 18.4718 21.8474 17.637 21.8474C16.3569 21.8474 14.8163 21.374 13.1805 20.4804C12.003 19.8369 10.8073 18.9986 9.60547 17.9761C9.59034 18.2455 9.55882 18.5114 9.51091 18.7773C9.35404 19.6317 9.04312 20.2983 8.58934 20.7521C8.13836 21.2031 7.4857 21.5112 6.64256 21.6681C6.28402 21.7353 5.91988 21.7717 5.55293 21.7773H5.54733C5.00111 21.7773 4.53893 21.4832 4.34565 21.0126C4.15237 20.542 4.27282 20.007 4.65937 19.6205L5.18598 19.0911L5.14677 18.8193L4.87506 18.7801L4.34845 19.3067C4.08795 19.57 3.75461 19.7129 3.41568 19.7129C2.99293 19.7129 2.60094 19.4919 2.38207 19.1303C2.25321 18.9174 2.18879 18.6709 2.19159 18.4216C2.19719 18.0658 2.23081 17.7073 2.29523 17.3572C2.44929 16.5 2.76022 15.8334 3.214 15.3796C3.66218 14.9314 4.31764 14.6233 5.15797 14.4664C5.44037 14.4148 5.72276 14.3805 6.00705 14.3653ZM17.7966 3.92861C17.9843 3.92861 18.0319 4.03785 17.8974 4.17231L17.2168 4.85298C17.0823 4.98743 16.9955 5.24794 17.0235 5.43561L17.1636 6.4132C17.1916 6.60088 17.3652 6.77455 17.5529 6.80256L18.5305 6.94261C18.5529 6.94541 18.5781 6.94822 18.6005 6.94822C18.777 6.94822 18.9955 6.86698 19.1131 6.74934L19.7938 6.06866C19.8442 6.01544 19.8946 5.99303 19.9339 5.99303C19.9955 5.99303 20.0375 6.05466 20.0375 6.1695C20.0375 6.1695 20.0431 7.71292 19.3428 8.4132C18.6538 9.10227 17.1524 9.10788 17.1019 9.10788H17.0991C16.9115 9.10788 16.6482 9.21712 16.5165 9.34877L8.7294 17.1303C8.59494 17.2647 8.4885 17.528 8.4885 17.7157C8.4885 17.7157 8.4941 19.2591 7.79382 19.9594C7.10475 20.6485 5.60335 20.6541 5.55293 20.6541C5.36525 20.6541 5.31764 20.542 5.45209 20.4104L6.13276 19.7297C6.26721 19.5953 6.35405 19.3348 6.32604 19.1471L6.18598 18.1695C6.15797 17.9818 5.9843 17.8081 5.79663 17.7801L4.81904 17.6401C4.79663 17.6373 4.77142 17.6345 4.74901 17.6345C4.57254 17.6345 4.35405 17.7157 4.2364 17.8334L3.55293 18.514C3.50251 18.5644 3.45209 18.5897 3.41288 18.5897C3.35125 18.5897 3.30923 18.528 3.30923 18.4132C3.30923 18.4132 3.30363 16.8698 4.00391 16.1695C4.69299 15.4804 6.19439 15.4748 6.2448 15.4748H6.24761C6.43528 15.4748 6.69859 15.3656 6.83304 15.2339L14.6173 7.45242C14.7518 7.31796 14.8582 7.05466 14.8582 6.86698C14.8582 6.86698 14.8526 5.32357 15.5529 4.62329C16.242 3.93701 17.7434 3.92861 17.7966 3.92861Z" fill="#313235"/>
</svg>
