<svg width="24" height="24" viewBox="0 0 24 24" fill="none" xmlns="http://www.w3.org/2000/svg">
<path fill-rule="evenodd" clip-rule="evenodd" d="M21.8419 8.45452V13.3929C21.8419 14.5077 21.5758 15.3761 21.0548 15.9755C20.4917 16.6198 19.6514 16.9475 18.5506 16.9475H5.44134C4.3433 16.9475 3.50016 16.6198 2.93714 15.9783C2.41613 15.3761 2.15002 14.5077 2.15002 13.3929V8.45452C2.15002 7.33967 2.41613 6.47133 2.93714 5.87189C3.50016 5.22763 4.3405 4.8999 5.44134 4.8999H18.5506C19.6486 4.8999 20.4917 5.22763 21.0548 5.87189C21.5758 6.47133 21.8419 7.33967 21.8419 8.45452ZM21.248 19.1324H2.74386C2.43574 19.1324 2.18364 18.8803 2.18364 18.5722C2.18364 18.264 2.43574 18.0119 2.74386 18.0119H21.248C21.5562 18.0119 21.8083 18.264 21.8083 18.5722C21.8083 18.8803 21.5562 19.1324 21.248 19.1324ZM10.4413 12.561C10.3209 12.6282 10.2256 12.7318 10.1724 12.8579C10.1724 12.8579 9.83909 13.7766 9.27046 14.0399C8.70184 14.3033 7.78867 13.9671 7.78867 13.9671C7.67383 13.9251 7.67102 13.8495 7.78027 13.799L8.33209 13.5413C8.44974 13.4797 8.53657 13.3677 8.57298 13.2388L8.70184 12.6282C8.72424 12.5049 8.66542 12.3789 8.55618 12.3145L8.00716 12.0203C7.88671 11.9643 7.74665 11.9587 7.6206 12.0091L7.06879 12.2668C6.95954 12.3173 6.90632 12.2668 6.94554 12.1548C6.94554 12.1548 7.27327 11.236 7.84189 10.9727C8.41052 10.7094 9.32368 11.0456 9.32368 11.0456C9.45534 11.0848 9.59539 11.0792 9.72424 11.0287L13.5478 9.24724C13.6682 9.18281 13.7635 9.07917 13.8167 8.95312C13.8167 8.95312 14.1444 8.03435 14.713 7.77105C15.2817 7.50774 16.1948 7.84388 16.1948 7.84388C16.3097 7.88309 16.3125 7.95872 16.2032 8.00914L15.6514 8.26684C15.5338 8.32847 15.4469 8.44051 15.4105 8.56937L15.2817 9.18001C15.2592 9.30326 15.3181 9.42931 15.4273 9.49373L15.9791 9.78785C16.0996 9.84387 16.2396 9.84948 16.3657 9.79906L16.9175 9.54135C17.0268 9.49093 17.08 9.54135 17.0408 9.6534C17.0408 9.6534 16.7102 10.5722 16.1444 10.8355C15.5758 11.0988 14.6626 10.7626 14.6626 10.7626C14.531 10.7234 14.3909 10.729 14.2621 10.7794L10.4413 12.561Z" fill="#313235"/>
</svg>
