<svg width="24" height="24" viewBox="0 0 24 24" fill="none" xmlns="http://www.w3.org/2000/svg">
<path d="M18.1389 2.1499C17.7748 2.1555 17.4162 2.19192 17.0605 2.25915C16.2481 2.41041 15.6207 2.70172 15.1977 3.12469C14.772 3.55046 14.4778 4.18912 14.3266 5.01544C14.265 5.35438 14.2313 5.69892 14.2257 6.04345C14.2201 6.06306 14.2117 6.08267 14.2033 6.09948L6.0969 14.2059C6.0801 14.2143 6.06049 14.2227 6.04088 14.2283C5.68514 14.2339 5.3322 14.2703 4.98486 14.3348C4.16973 14.486 3.54509 14.7773 3.12212 15.2003C2.69635 15.6261 2.40223 16.2647 2.25097 17.0911C2.18654 17.4384 2.15293 17.7913 2.15013 18.1443C2.14733 18.346 2.20055 18.542 2.30139 18.7157C2.46946 18.9958 2.77198 19.1667 3.09691 19.1667C3.28458 19.1667 3.56749 19.1107 3.8364 18.839L4.50587 18.1695L5.19774 18.2675L5.29578 18.9594L4.62912 19.6289C4.51707 19.7381 4.43024 19.867 4.37141 20.0098C4.17534 20.4832 4.39943 21.0266 4.87281 21.2283C5.01567 21.2899 5.16973 21.3207 5.32379 21.3179H5.3294C5.69074 21.3123 6.05208 21.2759 6.40503 21.2115C7.22015 21.0602 7.8448 20.7689 8.26777 20.346C8.69354 19.9202 8.98765 19.2815 9.13892 18.4552C9.20054 18.1163 9.23415 17.7717 9.23976 17.4272C9.24536 17.4076 9.25376 17.388 9.26216 17.3712L17.3686 9.26474C17.3854 9.25633 17.405 9.24793 17.4246 9.24233C17.7804 9.23673 18.1333 9.20031 18.4806 9.13589C19.293 8.98463 19.9204 8.69331 20.3434 8.27034C20.7691 7.84457 21.0633 7.20592 21.2145 6.37959C21.279 6.03225 21.3126 5.67931 21.3154 5.32637C21.3182 5.12469 21.2649 4.92861 21.1613 4.75494C20.9932 4.47483 20.6907 4.30396 20.3658 4.30396C20.1781 4.30396 19.8952 4.35998 19.6263 4.63169L18.9568 5.30116L18.265 5.20312L18.1669 4.51124L18.8392 3.84178C18.9512 3.73253 19.0381 3.60368 19.0969 3.46082C19.293 2.98744 19.0689 2.44402 18.5955 2.24234C18.4526 2.18071 18.2986 2.1499 18.1445 2.1527L18.1389 2.1499V2.1499Z" fill="#313235"/>
</svg>
