<svg width="24" height="24" viewBox="0 0 24 24" fill="none" xmlns="http://www.w3.org/2000/svg">
<path fill-rule="evenodd" clip-rule="evenodd" d="M5.16123 16.3845H18.8167C19.8307 16.3845 20.6038 16.0904 21.108 15.5077C21.587 14.9615 21.8279 14.1548 21.8279 13.11V8.17161C21.8279 7.12679 21.5842 6.32007 21.108 5.77385C20.601 5.19402 19.8307 4.8999 18.8167 4.8999H5.16123C4.14722 4.8999 3.37692 5.19402 2.86991 5.77385C2.39092 6.32007 2.15002 7.12679 2.15002 8.17161V13.11C2.15002 14.1548 2.39372 14.9615 2.86991 15.5105C3.37692 16.0904 4.14722 16.3845 5.16123 16.3845ZM2.71025 8.17441C2.71025 6.32287 3.48896 5.46013 5.16123 5.46013H18.8167C20.489 5.46013 21.2677 6.32007 21.2677 8.17161V13.1128C21.2677 14.9643 20.489 15.8271 18.8167 15.8271H5.16123C3.48896 15.8271 2.71025 14.9643 2.71025 13.1128V8.17441ZM14.9932 18.603H8.98476C8.8307 18.603 8.70465 18.4769 8.70465 18.3229C8.70465 18.1688 8.8307 18.0428 8.98476 18.0428H14.9932C15.1472 18.0428 15.2733 18.1688 15.2733 18.3229C15.2733 18.4769 15.15 18.603 14.9932 18.603ZM15.2425 6.86349C14.9483 6.86349 14.6906 6.91671 14.4722 7.01755C14.1332 7.17441 13.8279 7.48254 13.5646 7.93071C13.4581 8.10999 13.3685 8.29766 13.2929 8.49374L13.2845 8.50214L9.50577 10.264H9.49456C9.37691 10.222 8.89232 10.0652 8.37691 10.0652C8.0856 10.0652 7.82509 10.1184 7.60661 10.2192C7.26487 10.3789 6.95955 10.687 6.69904 11.1352C6.5898 11.3229 6.49456 11.5161 6.41893 11.7206C6.3405 11.9419 6.36291 12.1688 6.48616 12.3425C6.60381 12.5077 6.79428 12.6058 6.99596 12.603C7.10241 12.603 7.20885 12.5778 7.30689 12.5302L7.79988 12.3005L8.11361 12.4685L8.04078 12.8187L7.54778 13.0484C7.29008 13.1688 7.13602 13.4069 7.14442 13.6646C7.15283 13.9223 7.3293 14.1492 7.5954 14.2472C7.65423 14.2697 8.17804 14.4545 8.73546 14.4545C9.02678 14.4545 9.28728 14.4013 9.50577 14.3005C9.8475 14.1408 10.1528 13.8327 10.4133 13.3845C10.5198 13.2052 10.6094 13.0175 10.685 12.8215L10.6934 12.8131L14.475 11.0512H14.4862C14.6038 11.0932 15.0884 11.25 15.6038 11.25C15.8979 11.25 16.1556 11.1968 16.3741 11.096C16.7159 10.9363 17.0212 10.6282 17.2817 10.18C17.3909 9.99234 17.4862 9.79906 17.5618 9.59458C17.6402 9.37329 17.6178 9.1464 17.4946 8.97273C17.3769 8.80747 17.1864 8.70943 16.9848 8.71223C16.8783 8.71223 16.7719 8.73744 16.6738 8.78506L16.178 9.01475L15.8643 8.84668L15.9371 8.49654L16.4301 8.26685C16.6878 8.1464 16.8419 7.90831 16.8307 7.6478C16.8195 7.3873 16.6458 7.16321 16.3797 7.06517L16.3634 7.05981C16.2581 7.02471 15.7662 6.86087 15.2425 6.86349ZM15.2425 7.42091C15.7187 7.42091 16.1892 7.59458 16.1892 7.59458C16.3013 7.6366 16.3041 7.70943 16.1976 7.75985L15.6458 8.01755C15.5282 8.08198 15.4385 8.19122 15.4049 8.32287L15.2761 8.93352C15.2565 9.05957 15.3153 9.18282 15.4245 9.24724L15.9736 9.54136C16.038 9.57217 16.108 9.58898 16.1808 9.58618C16.2425 9.58618 16.3041 9.57497 16.3601 9.54976L16.9119 9.29206C16.9343 9.28085 16.9595 9.27245 16.9848 9.27245C17.0408 9.27245 17.0632 9.32287 17.0352 9.4041C17.0352 9.4041 16.7046 10.3201 16.1388 10.5862C15.9792 10.6618 15.7915 10.687 15.6038 10.687C15.1276 10.687 14.657 10.5133 14.657 10.5133C14.601 10.4937 14.5422 10.4853 14.4834 10.4853C14.4049 10.4853 14.3293 10.4993 14.2565 10.5274L10.4357 12.3117C10.3153 12.3761 10.2201 12.4797 10.1668 12.6058C10.1668 12.6058 9.8363 13.5218 9.27047 13.7879C9.11081 13.8635 8.92313 13.8887 8.73546 13.8887C8.25927 13.8887 7.78868 13.715 7.78868 13.715C7.67663 13.673 7.67383 13.6002 7.78028 13.547L8.3321 13.2893C8.44974 13.2248 8.53938 13.1156 8.57299 12.9867L8.70185 12.3789C8.72145 12.2528 8.66543 12.1296 8.55619 12.0652L8.00717 11.7711C7.94274 11.7402 7.86991 11.7234 7.79988 11.7262C7.73826 11.7262 7.67664 11.7374 7.62061 11.7626L7.06879 12.0204C7.04638 12.0316 7.02117 12.04 6.99596 12.04C6.93994 12.04 6.91753 11.9895 6.94554 11.9083C6.94554 11.9083 7.27607 10.9923 7.8419 10.7262C8.00156 10.6506 8.18924 10.6254 8.37691 10.6254C8.85311 10.6254 9.32369 10.7991 9.32369 10.7991C9.37972 10.8187 9.43854 10.8271 9.49736 10.8271C9.5758 10.8271 9.65143 10.8131 9.72425 10.7851L13.545 9.00354C13.6654 8.93912 13.7607 8.83548 13.8139 8.70662C13.8139 8.70662 14.1444 7.79066 14.7102 7.52455C14.8671 7.45172 15.0548 7.42371 15.2425 7.42091Z" fill="#313235"/>
</svg>
