<svg width="24" height="24" viewBox="0 0 24 24" fill="none" xmlns="http://www.w3.org/2000/svg">
<path fill-rule="evenodd" clip-rule="evenodd" d="M5.44131 16.9475H18.5505C19.6486 16.9475 20.4917 16.6198 21.0547 15.9755C21.5757 15.3761 21.8418 14.5077 21.8418 13.3929V8.45452C21.8418 7.33967 21.5785 6.47133 21.0547 5.87189C20.4917 5.22763 19.6486 4.8999 18.5505 4.8999H5.44131C4.34047 4.8999 3.50014 5.22763 2.93711 5.87189C2.41611 6.47133 2.15 7.33967 2.15 8.45452V13.3929C2.15 14.5077 2.41611 15.3761 2.93711 15.9783C3.50014 16.6198 4.34327 16.9475 5.44131 16.9475ZM3.78305 6.61138C4.12759 6.21643 4.6682 6.02315 5.44131 6.02315L18.5505 6.02035C19.3208 6.02035 19.8643 6.21363 20.2088 6.60858C20.5477 6.99794 20.7214 7.61979 20.7214 8.45452V13.3929C20.7214 14.2276 20.5477 14.8495 20.2088 15.2388C19.8643 15.6338 19.3208 15.8271 18.5505 15.8271H5.44131C4.67101 15.8271 4.12759 15.6338 3.78305 15.2388C3.44412 14.8495 3.27045 14.2276 3.27045 13.3929V8.45452C3.27045 7.61979 3.44412 6.99794 3.78305 6.61138ZM21.248 19.1324H2.74384C2.43571 19.1324 2.18361 18.8803 2.18361 18.5722C2.18361 18.264 2.43571 18.0119 2.74384 18.0119H21.248C21.5561 18.0119 21.8082 18.264 21.8082 18.5722C21.8082 18.8803 21.5561 19.1324 21.248 19.1324ZM15.2508 7.10998C14.9567 7.10998 14.699 7.1632 14.4805 7.26404C14.1388 7.42371 13.8335 7.73183 13.573 8.18001C13.4665 8.35928 13.3769 8.54696 13.3012 8.74303L13.2928 8.75144L9.51413 10.5133H9.50293C9.38528 10.4713 8.90069 10.3145 8.38528 10.3145C8.09397 10.3145 7.83347 10.3677 7.61498 10.4685C7.27324 10.6282 6.96792 10.9363 6.70742 11.3845C6.59817 11.5722 6.50293 11.7654 6.4273 11.9699C6.34887 12.1912 6.37128 12.4181 6.49453 12.5918C6.61218 12.757 6.80265 12.8551 7.00433 12.8523C7.11078 12.8523 7.21722 12.8271 7.31526 12.7794L7.80826 12.5498L8.12198 12.7178L8.04915 13.068L7.55615 13.2976C7.29845 13.4181 7.14439 13.6562 7.15279 13.9167C7.1612 14.1772 7.33767 14.4013 7.60377 14.4993C7.6626 14.5217 8.18641 14.7066 8.74383 14.7066C9.03514 14.7066 9.29565 14.6534 9.51413 14.5525C9.85307 14.3873 10.1584 14.0792 10.4217 13.631C10.5281 13.4517 10.6178 13.264 10.6934 13.068L10.7018 13.0596L14.4833 11.2977H14.4945C14.6122 11.3397 15.0968 11.4965 15.6122 11.4965C15.9063 11.4965 16.164 11.4433 16.3825 11.3425C16.7242 11.1828 17.0295 10.8747 17.29 10.4265C17.3993 10.2388 17.4945 10.0456 17.5701 9.84107C17.6486 9.61978 17.6262 9.39289 17.5029 9.21922C17.3853 9.05396 17.1948 8.95592 16.9931 8.95872C16.8867 8.95872 16.7802 8.98393 16.6822 9.03155L16.1892 9.26124L15.8755 9.09317L15.9483 8.74303L16.4413 8.51334C16.699 8.39289 16.8531 8.1548 16.8419 7.8943C16.8307 7.63379 16.6598 7.4125 16.3909 7.31166C16.3853 7.31007 16.3756 7.30697 16.3621 7.30267C16.233 7.2615 15.758 7.10998 15.2508 7.10998ZM15.2508 7.67021C15.727 7.67021 16.1976 7.84388 16.1976 7.84388C16.3096 7.88589 16.3124 7.95872 16.206 8.00914L15.6542 8.26684C15.5365 8.33127 15.4469 8.44051 15.4133 8.56936L15.2844 9.18001C15.2648 9.30606 15.3208 9.42931 15.4301 9.49373L15.9791 9.78785C16.0435 9.81866 16.1164 9.83547 16.1864 9.83267C16.248 9.83267 16.3096 9.82146 16.3657 9.79625L16.9175 9.53855C16.9399 9.52735 16.9651 9.51894 16.9903 9.51894C17.0463 9.51894 17.0687 9.56936 17.0407 9.6506C17.0407 9.6506 16.7102 10.5666 16.1444 10.8327C15.9847 10.9083 15.797 10.9335 15.6094 10.9335C15.1332 10.9335 14.6626 10.7598 14.6626 10.7598C14.6066 10.7402 14.5477 10.7318 14.4889 10.7318C14.4105 10.7318 14.3349 10.7458 14.262 10.7738L10.4413 12.561C10.3209 12.6254 10.2256 12.729 10.1724 12.8551C10.1724 12.8551 9.84187 13.771 9.27604 14.0371C9.11638 14.1128 8.9287 14.138 8.74103 14.138C8.26484 14.138 7.79425 13.9643 7.79425 13.9643C7.6822 13.9223 7.6794 13.8495 7.78585 13.7962L8.33767 13.5385C8.45531 13.4741 8.54495 13.3649 8.57856 13.236L8.70741 12.6254C8.72702 12.4993 8.6682 12.3761 8.56176 12.3117L8.01274 12.0175C7.94831 11.9867 7.87548 11.9699 7.80545 11.9727C7.74383 11.9727 7.6822 11.9839 7.62618 12.0091L7.07436 12.2668C7.05195 12.278 7.02674 12.2864 7.00153 12.2864C6.94551 12.2864 6.9231 12.236 6.95111 12.1548C6.95111 12.1548 7.28165 11.2388 7.84747 10.9727C8.00713 10.8971 8.19481 10.8719 8.38248 10.8719C8.85867 10.8719 9.32926 11.0456 9.32926 11.0456C9.38528 11.0652 9.44411 11.0736 9.50293 11.0736C9.58136 11.0736 9.65699 11.0596 9.72982 11.0315L13.5505 9.24724C13.671 9.18281 13.7662 9.07917 13.8195 8.95312C13.8195 8.95312 14.15 8.03715 14.7158 7.77105C14.8755 7.69822 15.0631 7.67021 15.2508 7.67021Z" fill="#313235"/>
</svg>
