<svg width="24" height="24" viewBox="0 0 24 24" fill="none" xmlns="http://www.w3.org/2000/svg">
<path fill-rule="evenodd" clip-rule="evenodd" d="M17.2844 2.25634C17.6318 2.19192 17.9847 2.1555 18.3405 2.1499H18.3461C18.6822 2.1499 18.9511 2.31797 19.0632 2.58688C19.1752 2.85578 19.0996 3.16111 18.8615 3.3992L18.1304 4.13029C18.1024 4.17511 18.0856 4.22553 18.0828 4.27595L18.2228 5.26195L19.2088 5.402C19.2592 5.3964 19.3097 5.3824 19.3517 5.35438L20.0828 4.62329C20.2929 4.41601 20.5029 4.37119 20.643 4.37119C20.9847 4.37119 21.3293 4.6345 21.3321 5.1387C21.3265 5.48324 21.2929 5.82777 21.2312 6.16951C21.0856 6.96503 20.8111 7.57007 20.4133 7.96783C20.0211 8.35999 19.4273 8.6345 18.6458 8.78015C18.2985 8.84458 17.9455 8.88099 17.5898 8.8866H17.587C17.5085 8.9006 17.4301 8.93142 17.3657 8.97903L8.97632 17.3684C8.92871 17.4328 8.89509 17.5084 8.88389 17.5897C8.87828 17.9342 8.84467 18.2788 8.78305 18.6205C8.63739 19.416 8.36288 20.0211 7.96512 20.4188C7.57296 20.811 6.97913 21.0855 6.19761 21.2311C5.85027 21.2956 5.49733 21.332 5.14159 21.3376H5.13879C4.80265 21.3376 4.53375 21.1723 4.4217 20.9034C4.30966 20.6345 4.38529 20.3292 4.62338 20.0911L5.35448 19.36C5.38249 19.3152 5.39929 19.2647 5.40209 19.2143L5.26204 18.2255L4.27604 18.0855C4.22282 18.0883 4.1752 18.1051 4.13039 18.1331L3.39929 18.8642C3.18921 19.0715 2.97913 19.1163 2.83907 19.1163C2.49733 19.1163 2.1528 18.853 2.14999 18.3488C2.1556 18.0042 2.18921 17.6597 2.25083 17.318C2.39649 16.5225 2.671 15.9174 3.06876 15.5197C3.46092 15.1275 4.05476 14.853 4.83627 14.7073C5.18361 14.6429 5.53655 14.6065 5.89229 14.6009H5.89509C5.97352 14.5869 6.05195 14.5561 6.11638 14.5084L14.5057 6.11909C14.5534 6.05466 14.587 5.97903 14.5982 5.8978C14.6038 5.55326 14.6374 5.20873 14.699 4.86699C14.8447 4.07147 15.1192 3.46643 15.5169 3.06867C15.9091 2.67651 16.5029 2.402 17.2844 2.25634ZM18.4497 2.99024C18.5926 2.84738 18.545 2.72693 18.3405 2.72693C18.2872 2.72693 16.6682 2.73254 15.9231 3.47763C15.1696 4.23113 15.1752 5.895 15.1752 5.895C15.1752 6.09948 15.0576 6.3824 14.9147 6.52805L6.52254 14.9174C6.37969 15.0603 6.09677 15.1779 5.89229 15.1779H5.88949C5.83347 15.1779 4.21442 15.1835 3.47212 15.9286C2.71862 16.6849 2.72422 18.3488 2.72422 18.3488C2.72422 18.472 2.76904 18.5393 2.83627 18.5393C2.88109 18.5393 2.93151 18.5112 2.98753 18.4552L3.72422 17.7185C3.85027 17.5897 4.08557 17.5028 4.27604 17.5028C4.30125 17.5028 4.32646 17.5056 4.35167 17.5084L5.4049 17.6597C5.60378 17.6905 5.79425 17.8782 5.82226 18.0799L5.97352 19.1331C6.00153 19.3348 5.9063 19.6177 5.76344 19.7605L5.02674 20.4944C4.88389 20.6373 4.93151 20.7577 5.13599 20.7577H5.13879C5.19481 20.7577 6.81386 20.7521 7.55616 20.0098C8.30966 19.2563 8.30406 17.5925 8.30406 17.5925C8.30406 17.388 8.4217 17.1023 8.56456 16.9594L16.9567 8.56447C17.0996 8.42161 17.3825 8.30396 17.587 8.30396H17.5898C17.6458 8.30396 19.2648 8.29836 20.0071 7.55606C20.7606 6.80256 20.755 5.1387 20.755 5.1387C20.755 5.01545 20.7102 4.94822 20.643 4.94822C20.5982 4.94822 20.5478 4.97623 20.4917 5.03226L19.7578 5.76615C19.6318 5.895 19.3965 5.98184 19.206 5.98184C19.1808 5.98184 19.1556 5.97903 19.1304 5.97623L18.0772 5.82497C17.8755 5.79416 17.685 5.60649 17.657 5.4048L17.5057 4.35158C17.4777 4.1499 17.573 3.86699 17.7158 3.72413L18.4497 2.99024Z" fill="#313235"/>
</svg>
