<svg width="24" height="24" viewBox="0 0 24 24" fill="none" xmlns="http://www.w3.org/2000/svg">
<path fill-rule="evenodd" clip-rule="evenodd" d="M21.84 9.88991C21.84 9.72743 21.7504 9.58177 21.6075 9.50894C21.4647 9.43891 21.2938 9.45291 21.1621 9.55096C20.0977 10.3661 18.1536 10.2709 17.1591 9.88991C16.1983 9.52014 14.5848 8.09431 14.4111 6.957C14.3859 6.79173 14.2599 6.65447 14.0974 6.61245C13.9321 6.57604 13.7612 6.63206 13.6604 6.76932C13.638 6.79733 13.2206 7.36038 12.6968 8.19515C11.9068 6.0438 11.0076 4.79164 10.9572 4.72441C10.8648 4.59556 10.7079 4.52833 10.5538 4.55634C10.3997 4.58155 10.2681 4.6908 10.2205 4.83926C9.72465 6.33793 8.28761 7.11948 7.16991 7.50885C6.51162 7.73855 4.57036 7.88142 2.78037 6.84776C2.64871 6.77492 2.48904 6.77492 2.36018 6.84776C2.23132 6.92339 2.15289 7.06065 2.15009 7.21192L2.15008 7.22093C2.14972 7.46932 2.14466 10.9727 3.0829 13.4839C4.08014 16.1535 5.63203 17.4701 7.80299 17.4701C8.38285 17.4701 9.00753 17.3776 9.67422 17.1899C10.2037 17.0415 10.6827 16.8762 11.1197 16.6885C11.6603 17.5541 12.5287 18.2236 13.7977 18.711C14.7613 19.0836 15.6269 19.3161 16.4168 19.3161C17.9939 19.3161 19.2657 18.3861 20.4058 15.7669C21.8092 12.5483 21.84 9.99635 21.84 9.88991ZM12.5875 10.7667C13.4503 14.5484 12.2626 15.5904 9.45013 16.3776C6.70211 17.1423 4.98214 16.1619 3.87005 13.1898C3.21456 11.4306 3.04928 9.06354 3.00727 7.90943C4.79166 8.69938 6.62927 8.59853 7.45004 8.31001C8.97111 7.77777 10.072 6.9402 10.6855 5.86172C11.1925 6.7301 12.0581 8.44727 12.5875 10.7667ZM19.6382 15.428C20.5262 13.3887 20.8372 11.6099 20.9436 10.6462C19.5906 11.2261 17.8398 11.058 16.8622 10.6799C15.9014 10.3101 14.4896 9.16719 13.8705 7.93744C13.6492 8.26519 13.3691 8.69938 13.0777 9.1924C13.073 9.20036 13.0664 9.20651 13.0595 9.21292C13.0543 9.21777 13.049 9.22277 13.0441 9.22881C13.1478 9.56496 13.243 9.92072 13.3326 10.2905L13.3657 10.2816C13.4497 10.259 13.5343 10.2363 13.6408 10.2289L13.6565 10.2278H13.6566H13.6566H13.6566H13.6566H13.6566C13.7375 10.2226 13.8138 10.2177 13.8901 10.2177C15.4168 10.2177 15.9686 11.2597 16.0583 11.8676C16.1507 12.3018 15.9882 12.6043 15.879 12.7472C15.6857 13.0021 15.3748 13.1478 15.0302 13.1478C14.9154 13.1478 14.8341 13.1337 14.8341 13.1337C14.8166 13.1302 14.7924 13.1245 14.7706 13.1194L14.7705 13.1193L14.7705 13.1193L14.7361 13.1113C14.68 13.0945 14.1814 12.9405 13.7024 12.6687C13.6996 12.6673 13.6982 12.6652 13.6968 12.6631C13.6954 12.661 13.694 12.6589 13.6912 12.6575C13.708 13.2486 13.6492 13.7584 13.5231 14.2038C14.0638 14.0694 14.7249 14.0862 15.5148 14.3887C16.3776 14.7192 16.9603 15.2179 17.246 15.8706C17.6095 16.7035 17.3346 17.4786 17.3067 17.5571L17.3048 17.5625C17.2488 17.7082 17.1171 17.8062 16.9659 17.8258C16.9491 17.8286 16.9322 17.8286 16.9154 17.8286C16.781 17.8286 16.6521 17.7642 16.5737 17.6522C16.5233 17.5793 15.2431 15.8594 12.3018 16.0779C12.2885 16.0795 12.2762 16.0753 12.2637 16.0709C12.2551 16.068 12.2465 16.065 12.2374 16.0638C12.1225 16.1507 12.0021 16.2291 11.8732 16.3076C12.3214 16.9827 13.0385 17.5177 14.0974 17.9239C16.6829 18.9183 18.1704 18.7951 19.6382 15.428ZM9.1756 11.114C8.55373 11.114 8.2736 10.7499 8.18396 10.593C8.0411 10.3465 7.93745 9.93473 8.25399 9.37728C8.84786 8.32681 9.64901 8.16994 10.0748 8.16994C10.5734 8.16994 10.9544 8.37163 11.1085 8.46407C11.5483 8.70218 11.6659 9.06074 11.6967 9.25683C11.7808 9.76665 11.4754 10.1196 11.3774 10.2149C11.3494 10.2428 11.3186 10.268 11.2878 10.2932L11.2878 10.2932L11.2878 10.2932L11.2878 10.2932L11.2878 10.2933L11.2878 10.2933L11.2878 10.2933L11.2877 10.2933L11.2877 10.2933C11.2401 10.3297 10.8087 10.649 10.2849 10.8591C9.99077 10.974 9.56218 11.114 9.1756 11.114ZM9.1756 10.2709C8.91509 10.2709 8.78343 10.1448 8.98232 9.79466C9.33247 9.17559 9.74426 9.01312 10.072 9.01312C10.425 9.01312 10.6855 9.1952 10.6855 9.1952C11.0328 9.36888 10.7835 9.61819 10.7835 9.61819C10.7835 9.61819 10.411 9.90111 9.97396 10.0748C9.69103 10.1868 9.3885 10.2709 9.1756 10.2709ZM6.99063 11.8452C6.93741 11.8648 6.44719 12.0413 5.90375 12.1029C5.72727 12.1225 5.5564 12.1337 5.39673 12.1337C4.6572 12.1337 4.19219 11.8928 4.01011 11.4166C3.93448 11.2177 3.81963 10.6939 4.40789 10.1616C4.90371 9.71623 5.43034 9.48933 5.97378 9.48933C6.57325 9.48933 7.06347 9.78626 7.32678 10.0608C7.5901 10.3073 7.72176 10.6322 7.68534 10.96C7.64052 11.3746 7.34919 11.6659 7.09428 11.8004C7.05787 11.8172 7.02426 11.8312 6.99065 11.8452L6.99063 11.8452ZM5.80851 11.2625C5.66845 11.2793 5.52558 11.2877 5.39393 11.2877C4.90651 11.2877 4.55635 11.1617 4.96534 10.7919C5.35191 10.4418 5.69086 10.3325 5.96818 10.3325C6.44719 10.3325 6.73292 10.663 6.73292 10.663C7.00464 10.89 6.6993 11.0524 6.6993 11.0524C6.6993 11.0524 6.26791 11.2093 5.80851 11.2625ZM11.6799 11.8816C11.8256 11.918 11.9432 12.0301 11.9853 12.1729C11.9965 12.2065 12.2234 13.0189 11.7527 13.8649C11.3606 14.5708 10.621 15.0806 9.55657 15.3775C9.07476 15.512 8.64617 15.5708 8.2652 15.5708C6.27695 15.5708 5.62378 14.0183 5.60438 13.9722L5.60402 13.9713C5.54799 13.8313 5.5732 13.6744 5.66284 13.5567C5.75248 13.4391 5.90095 13.3747 6.04942 13.3971C9.46403 13.8468 11.2279 12.0488 11.2757 12.0001L11.2765 11.9992C11.3802 11.8928 11.5343 11.848 11.6799 11.8816ZM11.0188 13.4559C11.072 13.3634 11.1085 13.271 11.1393 13.1814C10.3493 13.7024 8.9515 14.3859 6.92621 14.3131C7.3632 14.6436 8.11673 14.9069 9.33247 14.568C10.1728 14.3327 10.7415 13.9573 11.0188 13.4559ZM16.5653 16.4616C15.9294 15.9462 14.8369 15.3215 13.229 15.2263C13.6352 14.9714 14.2739 14.8117 15.2151 15.1759C16.1339 15.5288 16.4644 16.0358 16.5653 16.4616ZM13.5119 11.1028C13.5427 11.2597 13.568 11.4138 13.5904 11.5622C13.7332 11.6883 13.9209 11.8172 14.1226 11.932C14.5316 12.1645 14.9798 12.3018 14.9798 12.3018C14.9798 12.3018 15.0022 12.3046 15.0358 12.3046C15.131 12.3046 15.3019 12.2738 15.2375 12.0217C15.2375 12.0217 15.1423 11.0636 13.8957 11.0636C13.8369 11.0636 13.7724 11.0664 13.708 11.072C13.6212 11.0748 13.5624 11.0888 13.5119 11.1028ZM18.9211 13.1113C18.9211 13.1113 18.6998 12.5959 18.0219 12.5959C17.8511 12.5959 17.6522 12.6267 17.4197 12.708C16.8454 12.9096 17.4085 13.1618 17.9771 13.2934C18.3749 13.3831 18.7783 13.3887 18.7783 13.3887C18.7783 13.3887 19.078 13.3578 18.9211 13.1113ZM18.0191 11.7527C17.7418 11.7527 17.4477 11.806 17.1423 11.9124C16.3608 12.1841 16.33 12.7724 16.3384 12.9489C16.3829 13.7892 17.3894 14.0242 17.7789 14.1152L17.7866 14.117C18.2572 14.2262 18.7166 14.2346 18.7671 14.2346H18.7755C18.8039 14.2346 18.8299 14.2323 18.858 14.2297L18.8651 14.229C19.2433 14.187 19.5598 13.9741 19.7111 13.6548C19.8539 13.3578 19.8343 13.0161 19.6607 12.7108C19.4674 12.327 18.9379 11.7527 18.0191 11.7527Z" fill="#313235"/>
</svg>
