<svg width="24" height="24" viewBox="0 0 24 24" fill="none" xmlns="http://www.w3.org/2000/svg">
<path fill-rule="evenodd" clip-rule="evenodd" d="M21.8363 9.89156C21.8363 9.7291 21.7467 9.58344 21.6038 9.51061C21.4609 9.44058 21.2901 9.45459 21.1612 9.55263C20.094 10.3678 18.15 10.2725 17.1584 9.89156C16.1977 9.52182 14.5842 8.09605 14.4105 6.9588C14.3853 6.79073 14.2621 6.65628 14.0968 6.61426C13.9372 6.56664 13.7607 6.63387 13.6598 6.76832C13.6374 6.79633 13.2201 7.35935 12.6963 8.19409C11.9063 6.04283 11.0072 4.79073 10.9568 4.72351C10.8643 4.59465 10.7075 4.53023 10.5534 4.55544C10.3993 4.57785 10.2705 4.68709 10.2201 4.83835C9.72428 6.33695 8.28731 7.11846 7.16966 7.50781C6.5086 7.73751 4.56743 7.88036 2.77751 6.84675C2.64866 6.77112 2.489 6.77112 2.36015 6.84675C2.2313 6.92238 2.15286 7.05964 2.15006 7.2109C2.15006 7.2129 2.15006 7.2155 2.15006 7.21868C2.14979 7.45651 2.14581 10.9701 3.08283 13.4854C4.08003 16.1549 5.63185 17.4714 7.80271 17.4714C8.37974 17.4714 9.00439 17.3789 9.67106 17.1913C10.1977 17.0428 10.6795 16.8775 11.1164 16.6899C11.657 17.5554 12.5254 18.2249 13.7943 18.7123C14.7579 19.0848 15.6234 19.3173 16.4133 19.3173C17.9904 19.3173 19.2621 18.3873 20.4021 15.7683C21.8055 12.5498 21.8363 9.99801 21.8363 9.89156ZM12.5842 10.7655C13.447 14.5498 12.2593 15.5918 9.44697 16.3789C6.69907 17.1436 4.97919 16.1633 3.86715 13.1885C3.21169 11.4294 3.04642 9.06243 3.0044 7.90837C4.78591 8.69549 6.62344 8.59465 7.44697 8.30893C8.96798 7.77672 10.0688 6.93919 10.6823 5.86076C11.1893 6.7291 12.0548 8.44619 12.5842 10.7655ZM9.17246 11.1157C8.55061 11.1157 8.2705 10.7515 8.18086 10.5946C8.03801 10.3481 7.93437 9.93918 8.25089 9.37896C8.84473 8.32854 9.64865 8.17168 10.0716 8.17168C10.5702 8.17168 10.9512 8.37336 11.1052 8.4658C11.5422 8.70389 11.6627 9.06243 11.6935 9.25851C11.7775 9.76831 11.4694 10.1213 11.3741 10.2165C11.3461 10.2445 11.3153 10.2697 11.2846 10.2949L11.2845 10.2949L11.2845 10.2949L11.2845 10.2949L11.2845 10.2949L11.2845 10.2949L11.2845 10.2949C11.2369 10.3313 10.8055 10.6507 10.2817 10.8607C9.98758 10.9756 9.55901 11.1157 9.17246 11.1157ZM9.17246 10.2725C8.90915 10.2725 8.7803 10.1465 8.97918 9.79632C9.33212 9.17448 9.74109 9.01481 10.0688 9.01481C10.419 9.01481 10.6795 9.19689 10.6795 9.19689C11.0268 9.37056 10.7775 9.61985 10.7775 9.61985C10.7775 9.61985 10.4049 9.90277 9.96798 10.0764C9.68786 10.1913 9.38534 10.2725 9.17246 10.2725ZM6.98759 11.8467C6.93437 11.8663 6.44417 12.0428 5.90076 12.1044C5.72429 12.1241 5.55342 12.1353 5.39375 12.1353C4.65426 12.1353 4.18647 11.8944 4.0072 11.421C3.92877 11.2193 3.81673 10.6983 4.40496 10.1661C4.90356 9.71789 5.43017 9.491 5.97078 9.491C6.57022 9.491 7.06042 9.78792 7.32372 10.0624C7.58703 10.3089 7.71588 10.6339 7.68227 10.9644C7.63745 11.379 7.34613 11.6703 7.08843 11.8047L6.98759 11.8467ZM5.80552 11.2641C5.66826 11.2809 5.52541 11.2893 5.39375 11.2893C4.90076 11.2893 4.55062 11.1633 4.96518 10.7935C5.35454 10.4434 5.69347 10.3341 5.97078 10.3341C6.44697 10.3341 6.73269 10.6647 6.73269 10.6647C7.0044 10.8916 6.69907 11.054 6.69907 11.054C6.69907 11.054 6.2649 11.2137 5.80552 11.2641ZM11.6767 11.8832C11.8223 11.9196 11.94 12.0316 11.982 12.1745C11.9932 12.2081 12.2201 13.0204 11.7495 13.8663C11.3573 14.5722 10.6178 15.082 9.55341 15.3817C9.07162 15.5162 8.64305 15.575 8.2621 15.575C6.27392 15.575 5.62078 14.0225 5.6014 13.9764L5.60104 13.9756C5.54501 13.8355 5.57023 13.6787 5.65986 13.561C5.7523 13.4434 5.89796 13.379 6.04641 13.4014C9.49459 13.8523 11.2565 12.0232 11.2733 12.0036C11.3797 11.8916 11.531 11.8495 11.6767 11.8832ZM11.0156 13.4574C11.0688 13.3649 11.1052 13.2725 11.1332 13.1829C10.3433 13.7039 8.93156 14.3818 6.92036 14.3145C7.35734 14.6423 8.11084 14.9056 9.32652 14.5694C10.1697 14.3341 10.7383 13.9588 11.0156 13.4574ZM19.7719 12.6927C19.9315 12.9336 19.9483 13.2025 19.8195 13.4378C19.6794 13.6899 19.3909 13.8607 19.052 13.8916C19.024 13.8944 18.9988 13.8944 18.9708 13.8944H18.9624C18.9175 13.8944 18.4974 13.886 18.0688 13.8019L18.0679 13.8017C17.7171 13.7316 16.7915 13.5465 16.7495 12.8776C16.7411 12.7403 16.7663 12.2753 17.4806 12.0596C17.7579 11.9756 18.0268 11.9336 18.2789 11.9336C19.1136 11.9336 19.5954 12.3902 19.7719 12.6927ZM17.2117 17.5694C17.2285 17.5442 17.6066 16.9364 17.3321 16.1913C17.1276 15.6282 16.6178 15.1521 15.8195 14.7767C14.8615 14.3229 14.0604 14.2977 13.447 14.4546C13.2649 14.97 12.9792 15.393 12.6066 15.7487C15.4077 15.9588 16.4526 17.4882 16.4946 17.5498C16.559 17.6507 16.6738 17.7179 16.8055 17.7375C16.8223 17.7403 16.8391 17.7431 16.8559 17.7431C17.0044 17.7431 17.1416 17.6787 17.2117 17.5694ZM13.6346 10.4826C13.5653 10.4806 13.5086 10.4884 13.4526 10.4962C13.4294 10.4994 13.4063 10.5025 13.3825 10.505C13.3844 10.5134 13.3866 10.5215 13.3888 10.5296C13.3931 10.5458 13.3975 10.562 13.3993 10.5806C13.5562 11.2641 13.6402 11.8635 13.6739 12.4098C14.0996 12.6198 14.5226 12.7543 14.573 12.7683C14.5982 12.7767 14.643 12.7879 14.671 12.7935C14.671 12.7935 14.7495 12.8103 14.8643 12.8187C15.2033 12.8411 15.5142 12.7459 15.7187 12.5638C15.8335 12.4602 16.01 12.2389 15.9372 11.8972C15.8755 11.4238 15.3825 10.589 13.8755 10.4938C13.8027 10.4854 13.7215 10.4826 13.6346 10.4826Z" fill="#313235"/>
</svg>
