<svg width="24" height="24" viewBox="0 0 24 24" fill="none" xmlns="http://www.w3.org/2000/svg">
<path fill-rule="evenodd" clip-rule="evenodd" d="M21.8463 10.1655C21.8463 10.7706 21.6782 11.2243 21.4653 11.5577C21.6754 11.905 21.8463 12.3896 21.8491 13.0591C21.8491 14.5885 20.6698 15.342 19.4653 15.4064H16.0536L13.9835 15.468C13.9863 16.2944 13.9891 17.8238 13.9891 19.0815L13.9947 19.2131L13.9975 19.3112C13.9975 20.8994 13.062 21.8462 11.4989 21.8462C10.681 21.8462 10.0143 21.5941 9.57177 21.1179C9.27765 20.7986 8.93591 20.2187 9.00314 19.2692L9.02275 19.0395L9.02436 19.0239C9.03221 18.9484 9.03973 18.876 9.04236 18.779L9.04516 18.7369C9.07037 17.6249 9.08437 16.2215 8.97513 15.0983C8.85748 13.8658 7.639 13.1039 7.08998 12.8238C6.84348 13.0143 6.53816 13.1319 6.20482 13.1319H3.61379C2.81266 13.1319 2.16 12.4792 2.16 11.6753V4.08148C2.16 3.27756 2.81266 2.6249 3.61379 2.6249H6.20482C6.54376 2.6277 6.87149 2.74815 7.13199 2.96663C7.15191 2.9623 7.17157 2.9569 7.1912 2.9515C7.23507 2.93945 7.27883 2.92742 7.32527 2.92742L10.1292 2.891C10.2889 2.891 10.5438 2.81818 10.8603 2.72574L11.0676 2.66691C11.8379 2.44002 12.7959 2.15991 15.0536 2.15991C18.667 2.15991 19.5662 2.49044 20.1292 4.01425C20.1432 4.04787 20.1544 4.08708 20.16 4.1235C20.2356 4.58008 20.2412 4.97224 20.1712 5.31958C20.9079 5.78176 21.3197 6.46243 21.3197 7.24955C21.3197 7.73974 21.2244 8.1235 21.0984 8.41762C21.583 8.90221 21.8463 9.51005 21.8463 10.1655ZM20.2244 11.9778C19.9919 11.7285 20.0059 11.3364 20.2552 11.1039C20.4961 10.8798 20.6194 10.5661 20.6138 10.1683C20.6138 9.73974 20.3897 9.3672 19.9499 9.06467C19.8071 8.96383 19.7118 8.80697 19.6894 8.6361C19.667 8.46523 19.7202 8.28876 19.8323 8.15711C19.9975 7.96103 20.0872 7.65011 20.0872 7.25515C20.0872 6.69212 19.5914 6.36439 19.1768 6.19353C19.1572 6.18512 19.1404 6.17672 19.1208 6.16551C18.8239 6.00305 18.7118 5.6305 18.8743 5.33078C18.9583 5.17952 19.0396 4.93582 18.9555 4.3896C18.709 3.72574 18.4933 3.39241 15.0536 3.39241C12.9828 3.39241 12.1543 3.63366 11.4259 3.84577L11.4149 3.84899L11.1992 3.91061C10.7903 4.02826 10.4653 4.1207 10.1376 4.1207L7.6614 4.15431V11.6753C7.6614 11.6837 7.66 11.6914 7.6586 11.6991C7.6572 11.7068 7.6558 11.7145 7.6558 11.7229V11.7313C8.41491 12.1207 10.0227 13.1599 10.1964 14.9806C10.3113 16.1907 10.2945 17.6753 10.2692 18.8322C10.2692 18.8546 10.2664 18.877 10.2636 18.8994C10.2584 18.9917 10.2506 19.069 10.2427 19.1479L10.2427 19.1479L10.2412 19.1627L10.2244 19.3532C10.1964 19.765 10.2777 20.0759 10.4681 20.2804C10.7258 20.5605 11.1684 20.6165 11.4961 20.6165C12.3869 20.6165 12.7678 20.2271 12.765 19.2523L12.7594 19.1319C12.7538 17.7145 12.751 16.2944 12.751 14.877C12.7482 14.5409 13.0143 14.2664 13.3477 14.258L16.034 14.1795H19.4261C19.7847 14.1599 20.6166 14.0115 20.6166 13.0619C20.6166 12.5885 20.4905 12.2243 20.258 12.0115L20.2244 11.9778ZM5.6502 10.2944C5.6502 10.7425 5.33647 11.0563 4.88829 11.0563C4.43731 11.0563 4.12639 10.7453 4.12639 10.2944C4.12639 9.84619 4.44012 9.53246 4.88829 9.53246C5.33647 9.53246 5.6502 9.84619 5.6502 10.2944ZM6.20482 3.85459C6.32527 3.85459 6.42051 3.95263 6.42891 4.07028V11.6893C6.42331 11.8098 6.32527 11.905 6.20482 11.905H3.61379C3.48773 11.905 3.38689 11.8014 3.38689 11.6753V4.08428C3.38689 3.95823 3.49054 3.85739 3.61379 3.85739L6.20482 3.85459Z" fill="#313235"/>
</svg>
