<svg width="24" height="24" viewBox="0 0 24 24" fill="none" xmlns="http://www.w3.org/2000/svg">
<path fill-rule="evenodd" clip-rule="evenodd" d="M21.8463 13.0619C21.8463 12.3896 21.6782 11.9022 21.4653 11.5577C21.6782 11.2243 21.8463 10.7706 21.8491 10.1683C21.8491 9.51005 21.5886 8.90501 21.1012 8.42042C21.2272 8.1263 21.3225 7.74255 21.3225 7.25235C21.3225 6.46523 20.9107 5.78456 20.174 5.32238C20.244 4.97504 20.2384 4.58288 20.1628 4.1263C20.1544 4.08988 20.146 4.05347 20.132 4.01705C19.569 2.49044 18.667 2.15991 15.0564 2.15991C12.8158 2.15991 11.8557 2.43924 11.0879 2.66264L11.0732 2.66691L10.8631 2.72574C10.5466 2.82098 10.2945 2.891 10.132 2.891L7.32527 2.92742C7.27933 2.92742 7.23732 2.93919 7.19476 2.95111C7.17504 2.95664 7.1552 2.9622 7.13479 2.96663C6.88269 2.75655 6.56056 2.6249 6.20762 2.6249H3.61659C2.81266 2.6249 2.16 3.27756 2.16 4.08148V11.6781C2.16 12.4848 2.81266 13.1375 3.61659 13.1375H6.20202C6.53535 13.1375 6.84068 13.0199 7.08717 12.8294C7.63619 13.1123 8.85468 13.8714 8.97233 15.1039C9.08157 16.2271 9.06757 17.6305 9.04236 18.7425C9.04236 18.7495 9.04166 18.7566 9.04096 18.7636C9.04026 18.7706 9.03956 18.7776 9.03956 18.7846C9.03694 18.8787 9.02944 18.9509 9.02161 19.0262L9.01995 19.0423L9.00034 19.272C8.93311 20.2215 9.27485 20.8014 9.56897 21.1207C10.0115 21.5969 10.6782 21.849 11.4961 21.849C13.062 21.849 13.9947 20.8994 13.9947 19.314L13.9919 19.2159L13.9863 19.0843C13.9863 17.8238 13.9835 16.2972 13.9807 15.4708L16.0508 15.4092H19.4625C20.667 15.342 21.8463 14.5913 21.8463 13.0619ZM20.2552 11.1039C20.4961 10.8826 20.6166 10.5661 20.6166 10.1655C20.6166 9.73414 20.3925 9.36159 19.9527 9.06187C19.8099 8.96383 19.7146 8.80697 19.6922 8.6333C19.6698 8.45963 19.7202 8.28596 19.8351 8.15431C20.0031 7.95823 20.09 7.64731 20.09 7.25235C20.09 6.68932 19.5942 6.36439 19.1796 6.19072C19.0171 6.1235 18.8939 5.99184 18.8379 5.82938C18.7791 5.66411 18.7931 5.48484 18.8771 5.33078C18.9611 5.17952 19.0424 4.93582 18.9583 4.3896C18.709 3.72574 18.4961 3.39241 15.0564 3.39241C12.9856 3.39241 12.1571 3.63366 11.4287 3.84577L11.4177 3.84899L11.202 3.91061C10.7931 4.02826 10.4681 4.1207 10.1404 4.1207L7.66421 4.15431V11.6781C7.66421 11.6928 7.66207 11.7053 7.65967 11.7194L7.65967 11.7195L7.6586 11.7257V11.7341C8.41771 12.1263 10.0255 13.1655 10.1992 14.9834C10.3169 16.1935 10.3001 17.6781 10.2748 18.835C10.2748 18.8574 10.272 18.8798 10.2692 18.9022C10.264 18.9945 10.2562 19.0719 10.2483 19.1507L10.2483 19.1507L10.2468 19.1655L10.23 19.356C10.202 19.765 10.2833 20.0759 10.4737 20.2804C10.7342 20.5577 11.1768 20.6165 11.5017 20.6165C12.3925 20.6165 12.7706 20.2271 12.7706 19.2523L12.765 19.1319V19.0983C12.765 17.2748 12.7566 14.877 12.7566 14.877C12.7566 14.5437 13.0199 14.2692 13.3533 14.2608L16.0396 14.1795H19.4345C19.7931 14.1599 20.625 14.0115 20.625 13.0619C20.625 12.5857 20.5017 12.2215 20.2664 12.0115C20.1376 11.8966 20.0648 11.7313 20.0648 11.5577C20.0564 11.3868 20.1292 11.2215 20.2552 11.1039ZM4.88829 9.53246C4.44012 9.53246 4.12639 9.84619 4.12639 10.2944C4.12639 10.7425 4.44012 11.0563 4.88829 11.0563C5.33647 11.0563 5.6474 10.7453 5.6474 10.2944C5.6474 9.84619 5.33647 9.53246 4.88829 9.53246Z" fill="#313235"/>
</svg>
