<svg width="24" height="24" viewBox="0 0 24 24" fill="none" xmlns="http://www.w3.org/2000/svg">
<path fill-rule="evenodd" clip-rule="evenodd" d="M21.7142 4.06163C21.7114 2.92158 20.7843 2.00001 19.6442 2.00001H17.4537C16.8599 1.99721 16.3557 2.43419 16.2745 3.02242C16.224 3.35295 15.9383 3.59945 15.6022 3.59945C15.2661 3.59945 14.9803 3.35015 14.9299 3.02242C14.8459 2.42858 14.3501 2.00001 13.7535 2.00001H11.5602C10.5714 2.00001 9.71986 2.70309 9.53498 3.67788C9.50522 3.68979 9.47476 3.69993 9.44434 3.71007C9.38886 3.72855 9.33354 3.74698 9.28288 3.77592L7.57981 4.7283C7.08961 5.00001 6.87673 5.59384 7.08401 6.11485C7.17364 6.36135 7.0728 6.64146 6.84311 6.77311C6.61622 6.90196 6.3137 6.84034 6.15404 6.63586C5.8151 6.18488 5.19606 6.05603 4.70586 6.33614L3.00278 7.28852C2.56021 7.53502 2.23528 7.94678 2.10083 8.43417C1.96077 8.91877 2.02239 9.43977 2.27169 9.87955L8.38373 20.7115C8.63022 21.154 9.04479 21.479 9.53218 21.6134C10.0196 21.7507 10.5406 21.689 10.9832 21.4397L12.7002 20.479C12.8739 20.3837 13.0084 20.2437 13.1064 20.0784H13.7703C14.3389 20.0756 14.8291 19.6722 14.9383 19.1148C14.9916 18.8515 15.1988 18.6442 15.4649 18.5882C15.8319 18.5126 16.1904 18.7479 16.2661 19.1148C16.3753 19.675 16.8683 20.0784 17.4341 20.0784H19.6442C20.7843 20.0784 21.7114 19.1568 21.7142 18.0168V4.06163ZM20.4929 4.06163V18.0168C20.4929 18.4846 20.112 18.8627 19.6442 18.8599L17.4649 18.8795C17.2885 17.9944 16.507 17.3529 15.6022 17.3529C14.6974 17.3529 13.9159 17.9972 13.7703 18.8599H11.5602C11.0924 18.8599 10.7115 18.4818 10.7115 18.014V8.04482C10.7115 8.03351 10.7118 8.02252 10.7121 8.01163C10.7127 7.99015 10.7133 7.96908 10.7115 7.94678V4.06163C10.7115 3.59665 11.0924 3.2157 11.5602 3.2157L13.7226 3.19609C13.8655 4.12606 14.6638 4.81233 15.6022 4.81513C16.5406 4.81513 17.3473 4.11766 17.4537 3.2157H19.6442C20.112 3.2157 20.4929 3.59665 20.4929 4.06163ZM11.0532 20.0056L10.3865 20.3809C10.0532 20.5658 9.63582 20.4482 9.44535 20.1204L3.33332 9.28291V9.28011C3.14844 8.94958 3.26889 8.53221 3.59942 8.34734L5.23247 7.43418C5.77029 8.07003 6.70586 8.2409 7.43975 7.83193C8.17364 7.41737 8.50978 6.54342 8.24647 5.7451L9.49297 5.04482V7.68628L5.5602 9.88795H5.5574C5.26608 10.0532 5.16244 10.423 5.32771 10.7143L9.30529 17.7647C9.35291 17.8431 9.41734 17.9075 9.49297 17.9552V18.014C9.49577 18.958 10.14 19.7787 11.0532 20.0056ZM9.49297 15.619V9.08123L6.69185 10.6527L9.49297 15.619ZM12.7731 15.3389H18.5462V6.78712H12.7731V15.3389ZM19.7675 6.17928C19.7675 5.84314 19.4929 5.57143 19.1568 5.57143H12.1652C11.8291 5.57143 11.5546 5.84314 11.5546 6.17928V15.9468C11.5546 16.2829 11.8291 16.5546 12.1652 16.5546H19.1568C19.4929 16.5546 19.7675 16.2829 19.7675 15.9468V6.17928Z" fill="#313235"/>
</svg>
