<svg width="24" height="24" viewBox="0 0 24 24" fill="none" xmlns="http://www.w3.org/2000/svg">
<path fill-rule="evenodd" clip-rule="evenodd" d="M17.5434 2H19.7815C20.8319 2 21.6862 2.85154 21.6862 3.89916V18.1484C21.6862 19.196 20.8319 20.0476 19.7815 20.0476H17.5266C17.0448 20.0476 16.6302 19.703 16.5378 19.2325C16.4566 18.8123 16.084 18.5098 15.6554 18.5098C15.2269 18.5098 14.8543 18.8123 14.7731 19.2325C14.6806 19.7058 14.2633 20.0476 13.7843 20.0476H12.9636C12.8823 20.2269 12.7647 20.3837 12.591 20.4818L10.8375 21.4649C10.5742 21.6134 10.2829 21.6862 9.98878 21.6862C9.83192 21.6862 9.67225 21.6666 9.51539 21.6218C9.06721 21.4958 8.69467 21.2044 8.46778 20.8011L2.22969 9.73668C2.0028 9.33332 1.94678 8.86273 2.07003 8.41735C2.19608 7.97198 2.4874 7.59943 2.89356 7.37254L4.63025 6.40055C5.04201 6.17086 5.55182 6.2745 5.84313 6.64985C6.07002 6.94397 6.48739 7.0308 6.81232 6.84593C7.13725 6.66386 7.2829 6.2633 7.14845 5.91876C6.97758 5.47618 7.15125 4.98599 7.56582 4.7563L9.30251 3.78431C9.41175 3.72269 9.5322 3.68627 9.65265 3.64986C9.7759 2.72269 10.5686 2.0028 11.5322 2.0028H13.7703C14.2745 2.0028 14.6947 2.36695 14.7675 2.86835C14.8319 3.30532 15.2157 3.63585 15.6582 3.63585C16.1036 3.63585 16.4874 3.30532 16.5518 2.86835C16.619 2.36414 17.0392 2 17.5434 2ZM5.28011 10.4482L9.65265 17.9692L9.64704 8.0364L5.28011 10.4482ZM11.7283 6.06162C11.7283 5.83192 11.9131 5.64705 12.1428 5.64705V5.64425H19.2857C19.5154 5.64425 19.7002 5.82912 19.7002 6.05882V16.0336C19.7002 16.2633 19.5154 16.4481 19.2857 16.4481H12.1428C11.9131 16.4481 11.7283 16.2633 11.7283 16.0336V6.06162Z" fill="#313235"/>
</svg>
