<svg width="24" height="24" viewBox="0 0 24 24" fill="none" xmlns="http://www.w3.org/2000/svg">
<path fill-rule="evenodd" clip-rule="evenodd" d="M21.7142 4.06165C21.7114 2.92159 20.7843 2.00003 19.6442 2.00003H17.4537C16.8599 1.99723 16.3557 2.4342 16.2745 3.02243C16.224 3.35296 15.9383 3.59946 15.6022 3.59946C15.2661 3.59946 14.9803 3.35016 14.9299 3.02243C14.8459 2.4286 14.3501 2.00003 13.7535 2.00003H11.5602C10.5714 2.00003 9.71986 2.70311 9.53498 3.67789C9.50522 3.6898 9.47476 3.69995 9.44434 3.71008C9.38886 3.72856 9.33354 3.74699 9.28288 3.77593L7.57981 4.72831C7.08961 5.00002 6.87673 5.59386 7.08401 6.11486C7.17364 6.36136 7.0728 6.64147 6.84311 6.77313C6.61622 6.90198 6.3137 6.84035 6.15404 6.63587C5.8151 6.18489 5.19606 6.05604 4.70586 6.33615L3.00278 7.28853C2.56021 7.53503 2.23528 7.94679 2.10083 8.43419C1.96077 8.91878 2.02239 9.43979 2.27169 9.87956L8.38373 20.7115C8.63022 21.154 9.04479 21.479 9.53218 21.6134C10.0196 21.7507 10.5406 21.6891 10.9832 21.4398L12.7002 20.479C12.8739 20.3837 13.0084 20.2437 13.1064 20.0784H13.7703C14.3389 20.0756 14.8291 19.6723 14.9383 19.1148C14.9916 18.8515 15.1988 18.6442 15.4649 18.5882C15.8319 18.5126 16.1904 18.7479 16.2661 19.1148C16.3753 19.6751 16.8683 20.0784 17.4341 20.0784H19.6442C20.7843 20.0784 21.7114 19.1569 21.7142 18.0168V4.06165ZM20.4929 4.06165V18.0168C20.4929 18.4846 20.112 18.8627 19.6442 18.8599L17.4649 18.8795C17.2885 17.9944 16.507 17.3529 15.6022 17.3529C14.6974 17.3529 13.9159 17.9972 13.7703 18.8599H11.5602C11.0924 18.8599 10.7115 18.4818 10.7115 18.014V8.04483C10.7115 8.03352 10.7118 8.02253 10.7121 8.01164C10.7127 7.99017 10.7133 7.9691 10.7115 7.94679V4.06165C10.7115 3.59666 11.0924 3.21571 11.5602 3.21571L13.7226 3.1961C13.8655 4.12607 14.6638 4.81235 15.6022 4.81515C16.5406 4.81515 17.3473 4.11767 17.4537 3.21571H19.6442C20.112 3.21571 20.4929 3.59666 20.4929 4.06165ZM11.0532 20.0056L10.3865 20.3809C10.0532 20.5658 9.63582 20.4482 9.44535 20.1204L3.33332 9.28292V9.28012C3.14844 8.94959 3.26889 8.53223 3.59942 8.34735L5.23247 7.43419C5.77029 8.07004 6.70586 8.24091 7.43975 7.83195C8.17364 7.41738 8.50978 6.54343 8.24647 5.74512L9.49297 5.04484V7.68629L5.5602 9.88797H5.5574C5.26608 10.0532 5.16244 10.423 5.32771 10.7143L9.30529 17.7647C9.35291 17.8431 9.41734 17.9076 9.49297 17.9552V18.014C9.49577 18.958 10.14 19.7787 11.0532 20.0056ZM9.49297 15.619V9.08124L6.69185 10.6527L9.49297 15.619ZM12.7731 15.3389H18.5462V6.78713H12.7731V15.3389ZM19.7675 6.17929C19.7675 5.84316 19.4929 5.57145 19.1568 5.57145H12.1652C11.8291 5.57145 11.5546 5.84316 11.5546 6.17929V15.9468C11.5546 16.2829 11.8291 16.5546 12.1652 16.5546H19.1568C19.4929 16.5546 19.7675 16.2829 19.7675 15.9468V6.17929Z" fill="#313235"/>
</svg>
