<svg width="24" height="24" viewBox="0 0 24 24" fill="none" xmlns="http://www.w3.org/2000/svg">
<path fill-rule="evenodd" clip-rule="evenodd" d="M11.9922 2.1499C18.2119 2.1499 21.84 5.29055 21.84 11.9977C21.84 18.7049 18.2119 21.8399 11.9922 21.8399C5.77256 21.8399 2.15002 18.7049 2.15002 11.9977C2.15002 5.29055 5.77256 2.1499 11.9922 2.1499ZM11.9922 21.019C17.9822 21.019 21.0191 17.9848 21.0191 11.9977C21.0191 6.00778 17.9822 2.97079 11.9922 2.97079C6.0051 2.97079 2.97091 6.00778 2.97091 11.9977C2.97091 17.9848 6.0051 21.019 11.9922 21.019ZM15.315 15.0067L12.4069 12.0958L12.4013 8.16505C12.4013 7.94091 12.2164 7.75601 11.9922 7.75601C11.7681 7.75601 11.5832 7.93811 11.5832 8.16505V12.2667C11.5832 12.3759 11.628 12.4796 11.7037 12.558L14.735 15.5866C14.8919 15.7407 15.1441 15.7407 15.3038 15.5866C15.4691 15.4297 15.4719 15.1692 15.315 15.0067Z" fill="#313235"/>
</svg>
