<svg width="24" height="24" viewBox="0 0 24 24" fill="none" xmlns="http://www.w3.org/2000/svg">
<path fill-rule="evenodd" clip-rule="evenodd" d="M11.9904 2.1499C18.2088 2.1499 21.8363 5.28996 21.8363 11.9958C21.8363 18.7017 18.2088 21.8362 11.9904 21.8362C5.77187 21.8362 2.15002 18.7017 2.15002 11.9958C2.15002 5.28996 5.77187 2.1499 11.9904 2.1499ZM11.9904 20.6065C17.7887 20.6065 20.6066 17.7886 20.6066 11.9958C20.6066 6.19752 17.7887 3.37959 11.9904 3.37959C6.19764 3.37959 3.37972 6.19752 3.37972 11.9958C3.37972 17.7886 6.19764 20.6065 11.9904 20.6065ZM15.4581 14.8614L12.6094 12.0098L12.6122 8.16391C12.6122 7.82217 12.3377 7.54766 11.996 7.54766C11.6542 7.54766 11.3797 7.82497 11.3797 8.16391V12.2647C11.3797 12.4272 11.4441 12.5841 11.559 12.6989L14.5898 15.7297L14.6206 15.7605C14.8671 15.993 15.2565 15.979 15.489 15.7297C15.7215 15.4832 15.7074 15.0939 15.4581 14.8614Z" fill="#313235"/>
</svg>
