<svg width="24" height="24" viewBox="0 0 24 24" fill="none" xmlns="http://www.w3.org/2000/svg">
<path fill-rule="evenodd" clip-rule="evenodd" d="M2.15002 11.9958C2.15002 5.55326 5.55338 2.1499 11.9903 2.1499C18.4329 2.1499 21.8363 5.55326 21.8363 11.9958C21.8363 18.4328 18.4329 21.8361 11.9903 21.8361C5.55338 21.8361 2.15002 18.4328 2.15002 11.9958ZM18.727 16.5532C18.6542 16.6793 18.5225 16.7577 18.3769 16.7577H17.9427C17.8027 16.7577 17.671 16.6821 17.5982 16.5616L15.0127 12.2367L13.9847 13.5224V16.3544C13.9847 16.5756 13.8055 16.7577 13.5814 16.7577H13.1976C12.9763 16.7577 12.7943 16.5784 12.7943 16.3544V7.62608C12.7943 7.40479 12.9735 7.22272 13.1976 7.22272H13.5814C13.8027 7.22272 13.9847 7.40199 13.9847 7.62608V11.6905L17.4133 7.37398C17.4889 7.27874 17.6066 7.22272 17.7298 7.22272H18.1752C18.3293 7.22272 18.4693 7.31236 18.5365 7.44961C18.6038 7.58967 18.5842 7.75493 18.4889 7.87538L15.7943 11.2787L18.7242 16.1443C18.7971 16.2731 18.7999 16.4272 18.727 16.5532ZM11.9987 8.06306C11.9567 8.24793 11.7943 8.37678 11.6066 8.37678H9.22844V16.3572C9.22844 16.5784 9.04917 16.7605 8.82508 16.7605H8.44413C8.22004 16.7605 8.04077 16.5812 8.04077 16.3572V8.37678H5.6094C5.38811 8.37678 5.20604 8.19751 5.20604 7.97342V7.62888C5.20604 7.4076 5.38531 7.22552 5.6094 7.22552H11.6822C11.8027 7.22552 11.9203 7.28154 11.9959 7.37678C12.0716 7.47202 12.1024 7.59527 12.0744 7.71572L11.9987 8.06306Z" fill="#313235"/>
</svg>
