<svg width="24" height="24" viewBox="0 0 24 24" fill="none" xmlns="http://www.w3.org/2000/svg">
<path fill-rule="evenodd" clip-rule="evenodd" d="M21.84 11.9977C21.84 5.55671 18.436 2.1499 11.9922 2.1499C5.55403 2.1499 2.15002 5.55671 2.15002 11.9977C2.15002 18.4359 5.55403 21.8399 11.9922 21.8399C18.436 21.8399 21.84 18.4359 21.84 11.9977ZM21.0163 11.9977C21.0163 17.9848 17.9822 21.019 11.9922 21.019C6.0079 21.019 2.97091 17.982 2.97091 11.9977C2.97091 6.00778 6.0051 2.97359 11.9922 2.97359C17.9794 2.97359 21.0163 6.00778 21.0163 11.9977ZM11.6644 7.09482C11.8353 7.09482 11.9726 7.2349 11.9726 7.4058C11.9726 7.42541 11.9698 7.44502 11.967 7.46183L11.8942 7.83165C11.8661 7.97734 11.7373 8.081 11.5916 8.081H8.97765V16.5812C8.97765 16.7521 8.84037 16.8894 8.66947 16.8894H8.26323C8.09233 16.8894 7.95504 16.7521 7.95504 16.5812V8.081H5.27947C5.10857 8.081 4.97129 7.94372 4.97129 7.77282V7.403C4.97129 7.2321 5.10857 7.09482 5.27947 7.09482H11.6644ZM18.8675 16.8502C19.0132 16.7633 19.0608 16.5728 18.9739 16.4271L15.8529 11.2441L18.7386 7.60191C18.7806 7.54588 18.803 7.48144 18.803 7.4142C18.8058 7.2433 18.6686 7.10322 18.4977 7.10042H18.027C17.9345 7.10042 17.8449 7.14244 17.786 7.21529L13.9758 12.0117V7.4086C13.9758 7.2377 13.8385 7.10042 13.6676 7.10042H13.267C13.0961 7.10042 12.9588 7.2377 12.9588 7.4086V16.584C12.9588 16.7549 13.0961 16.8922 13.267 16.8922H13.6676C13.8385 16.8922 13.9758 16.7549 13.9758 16.584V13.5666L15.1861 12.0509L17.9878 16.7437C18.0438 16.8362 18.1446 16.895 18.2539 16.895H18.7106C18.7666 16.8922 18.8198 16.8782 18.8675 16.8502Z" fill="#313235"/>
</svg>
