<svg width="24" height="24" viewBox="0 0 24 24" fill="none" xmlns="http://www.w3.org/2000/svg">
<path fill-rule="evenodd" clip-rule="evenodd" d="M2.15002 11.9958C2.15002 18.4328 5.55339 21.8362 11.9904 21.8362C18.4329 21.8362 21.8363 18.4328 21.8363 11.9958C21.8363 5.55326 18.4329 2.1499 11.9904 2.1499C5.55339 2.1499 2.15002 5.55326 2.15002 11.9958ZM3.35731 11.9958C3.35731 6.26475 6.26207 3.35719 11.9904 3.35719C17.7215 3.35719 20.629 6.26475 20.629 11.9958C20.629 17.7241 17.7215 20.6289 11.9904 20.6289C6.26207 20.6289 3.35731 17.7241 3.35731 11.9958ZM11.6822 7.22833C11.8027 7.22833 11.9203 7.28436 11.996 7.37959C12.0716 7.47483 12.0996 7.60088 12.0744 7.71853L11.9988 8.06307C11.9567 8.24794 11.7943 8.37679 11.6066 8.37679H9.22846V16.3572C9.22846 16.5785 9.04918 16.7605 8.82509 16.7605H8.44414C8.22005 16.7605 8.04078 16.5813 8.04078 16.3572V8.37679H5.60941C5.38812 8.37679 5.20605 8.19752 5.20605 7.97343V7.62889C5.20605 7.40761 5.38532 7.22553 5.60941 7.22553H11.6822V7.22833ZM18.7271 16.5533C18.7999 16.4272 18.7971 16.2704 18.7215 16.1471L15.7915 11.2816L18.489 7.87819C18.5842 7.75775 18.6038 7.59248 18.5366 7.45242C18.4666 7.31237 18.3265 7.22553 18.1724 7.22553H17.7271C17.6038 7.22553 17.4862 7.28156 17.4105 7.37679L13.982 11.6933V7.62889C13.982 7.4048 13.8027 7.22553 13.5786 7.22553H13.1976C12.9736 7.22553 12.7943 7.40761 12.7943 7.62889V16.3544C12.7943 16.5785 12.9736 16.7577 13.1976 16.7577H13.5786C13.8027 16.7577 13.982 16.5757 13.982 16.3544V13.5225L15.0128 12.2367L17.5982 16.5617C17.671 16.6821 17.7999 16.7577 17.9427 16.7577H18.3769C18.5226 16.7577 18.6542 16.6793 18.7271 16.5533Z" fill="#313235"/>
</svg>
