<svg width="24" height="24" viewBox="0 0 24 24" fill="none" xmlns="http://www.w3.org/2000/svg">
<path fill-rule="evenodd" clip-rule="evenodd" d="M21.8478 4.39875C21.8507 4.5192 21.831 4.63965 21.7582 4.74609L21.7526 4.7573C21.5313 5.08503 21.2876 5.39035 21.0299 5.68166C20.9795 5.73713 20.9261 5.78956 20.8726 5.842C20.837 5.87696 20.8014 5.91192 20.7666 5.94777C20.5817 6.13825 20.3913 6.32312 20.1896 6.49679C20.0719 6.59483 19.9487 6.69007 19.8254 6.7825C19.6434 6.92256 19.4557 7.05981 19.2596 7.18586C19.1028 7.2867 18.9403 7.38194 18.7778 7.47438C18.7386 7.49539 18.7015 7.5185 18.6644 7.5416C18.6273 7.56471 18.5902 7.58782 18.5509 7.60883C18.5593 7.62284 18.5593 7.63124 18.5593 7.64805C18.6238 8.44917 18.6574 9.32872 18.6574 10.3539C18.6574 15.5276 17.7918 19.1914 13.8871 20.0262C13.6462 20.0766 13.3913 20.1102 13.128 20.141C13.1112 20.1433 13.0953 20.1464 13.0793 20.1495C13.0555 20.1542 13.0316 20.1589 13.0047 20.1606C12.691 20.1886 12.3633 20.2054 12.0187 20.2054C9.95432 20.2054 8.50334 19.6536 7.49774 18.648C5.81987 16.973 5.3801 14.0486 5.3801 10.3539C5.3801 9.32872 5.41091 8.42956 5.47814 7.61443C5.39235 7.56892 5.31204 7.51793 5.23173 7.46694C5.18354 7.43634 5.13535 7.40575 5.08598 7.37634C5.04173 7.34944 4.99721 7.32308 4.95276 7.29676C4.8537 7.23811 4.75495 7.17964 4.66021 7.11584C4.49903 7.01006 4.34918 6.89297 4.20047 6.77677C4.18377 6.76373 4.16709 6.75069 4.15041 6.73768C4.13149 6.7234 4.11258 6.70917 4.09369 6.69496C3.97548 6.60604 3.85814 6.51776 3.74705 6.42116C3.56217 6.25869 3.39131 6.08222 3.22044 5.90575C3.18787 5.87214 3.15413 5.83971 3.12038 5.80728C3.06414 5.75322 3.0079 5.69917 2.95713 5.63965C2.70503 5.35674 2.46974 5.05702 2.25405 4.74049C2.1112 4.5164 2.13641 4.23349 2.29327 4.03741C2.33529 3.98419 2.3773 3.93657 2.43613 3.89735C2.66582 3.7489 2.95153 3.77691 3.15601 3.93657C3.20643 3.97579 3.25405 4.015 3.29327 4.06822C3.40505 4.2359 3.5316 4.39093 3.65827 4.54612C3.6776 4.56981 3.69694 4.5935 3.71623 4.61724C4.42772 5.48839 5.31567 6.19707 6.3913 6.70687C7.9039 7.42396 9.79465 7.7881 12.0131 7.7881C14.7834 7.7881 17.0019 7.21107 18.6714 6.09623C19.4865 5.55001 20.1812 4.88615 20.7246 4.07663C20.7431 4.04994 20.7676 4.02927 20.7915 4.0091C20.8002 4.00175 20.8088 3.99447 20.817 3.98699C21.0215 3.79091 21.3352 3.74609 21.5817 3.90576C21.6518 3.95338 21.7106 4.0094 21.7554 4.07663C21.8226 4.17186 21.845 4.28391 21.8478 4.39875ZM12.0467 16.634C12.3857 16.634 12.663 16.3595 12.6602 16.0262L12.6238 8.97578C12.5387 8.97811 12.4556 8.98286 12.3724 8.98762C12.2556 8.9943 12.1386 9.00099 12.0159 9.00099C11.8904 9.00099 11.7714 8.99359 11.653 8.98624C11.5653 8.98079 11.4779 8.97536 11.3885 8.97297L11.4277 16.0318C11.4277 16.3651 11.705 16.634 12.0439 16.634H12.0467Z" fill="#313235"/>
</svg>
