<svg width="24" height="24" viewBox="0 0 24 24" fill="none" xmlns="http://www.w3.org/2000/svg">
<path fill-rule="evenodd" clip-rule="evenodd" d="M20.713 4.08109C20.8979 3.80377 21.2817 3.72534 21.5674 3.91022C21.8503 4.09509 21.9315 4.47044 21.7438 4.74495C20.9287 5.95503 19.8447 6.89621 18.531 7.59089C18.533 7.59805 18.5354 7.60484 18.5378 7.61153C18.542 7.62315 18.546 7.63447 18.5478 7.64691C18.615 8.45363 18.6486 9.33599 18.6486 10.35C18.6486 16.2632 17.5226 20.2015 12.0183 20.2015C6.51415 20.2015 5.3853 16.2632 5.3853 10.35C5.3853 9.31358 5.42171 8.41162 5.49174 7.59649C4.16961 6.89901 3.07997 5.95503 2.26205 4.73655C2.07437 4.45924 2.1528 4.08109 2.43852 3.89901C2.72423 3.71694 3.10518 3.79257 3.29286 4.07268C4.94552 6.54047 7.87829 7.79257 12.0071 7.79257C16.1304 7.79257 19.0604 6.54327 20.713 4.08109ZM12.0155 18.9971C16.052 18.9971 17.4133 16.815 17.4133 10.3556C17.4133 9.53207 17.3909 8.80097 17.3433 8.13151C15.9791 8.64691 14.4021 8.92982 12.6122 8.98305L12.6514 16.0307C12.6542 16.364 12.3797 16.6357 12.038 16.6385H12.0352C11.6962 16.6385 11.4217 16.3696 11.4189 16.0363L11.3797 8.98025C9.60659 8.92702 8.04076 8.64411 6.68502 8.13711C6.6402 8.80377 6.61779 9.53207 6.61779 10.3556C6.61779 16.815 7.97913 18.9971 12.0155 18.9971Z" fill="#313235"/>
</svg>
