<svg width="24" height="24" viewBox="0 0 24 24" fill="none" xmlns="http://www.w3.org/2000/svg">
<path fill-rule="evenodd" clip-rule="evenodd" d="M15.3165 21.7143H15.4313C15.5798 21.7143 15.7002 21.6751 15.8039 21.6302C16.0784 21.521 16.3221 21.3333 16.5209 21.0784C16.6862 20.8739 16.8515 20.5966 16.9495 20.4286L17.0083 20.3277C17.6106 19.2381 17.9607 18.4706 18.3977 17.2885C18.6778 16.549 18.9103 15.8011 19.112 15.0056C19.1544 14.8532 19.1991 14.6675 19.248 14.4641C19.254 14.4395 19.26 14.4145 19.266 14.3894L19.2912 14.2913C20.3136 12.5042 21.0419 10.7367 21.4509 9.03085C22.0335 6.59109 21.5293 4.54628 20.0335 3.27458C19.1736 2.53508 18.0083 2.09531 16.7534 2.03088C15.4565 1.96086 14.1092 2.28578 12.8739 2.97206C12.549 3.15413 12.2156 3.3418 11.8431 3.56029C11.4818 3.3474 11.1456 3.15693 10.8123 2.96925C9.577 2.28298 8.23247 1.96086 6.93835 2.03088C5.68066 2.09531 4.5154 2.53508 3.65826 3.27177C2.15966 4.54348 1.65546 6.59109 2.23809 9.03085C2.64706 10.7367 3.37254 12.507 4.39775 14.2913L4.42576 14.4062C4.44233 14.4724 4.4584 14.5372 4.47392 14.5998C4.51087 14.7487 4.54463 14.8848 4.57422 14.9972C4.7787 15.8067 5.01399 16.5546 5.2885 17.2857C5.72828 18.4734 6.07841 19.2409 6.69466 20.3557L6.73948 20.4314C6.83751 20.5994 7.00278 20.8795 7.16244 21.0756C7.36692 21.3389 7.61062 21.5266 7.91594 21.647C7.98877 21.6723 8.10642 21.7115 8.26328 21.7115H8.37532C8.52378 21.7115 8.64143 21.6723 8.74507 21.6358C9.01958 21.5266 9.26327 21.3389 9.46215 21.084C9.66663 20.8347 9.89072 20.4454 9.95235 20.3305L10.0252 20.1961L10.0336 20.1569C10.1064 19.9944 10.2016 19.7479 10.3473 19.3613L10.3607 19.3261C10.6354 18.604 11.3747 16.6609 11.8403 16.1485C12.3137 16.6695 13.0728 18.6667 13.3361 19.3613C13.4845 19.7535 13.5798 20.0028 13.6526 20.1653L13.7282 20.3305C13.7899 20.4454 14.014 20.8347 14.2128 21.0784C14.4201 21.3417 14.6638 21.5294 14.9691 21.6498C15.042 21.6751 15.1596 21.7143 15.3165 21.7143ZM15.168 20.3249C15.0728 20.2073 14.9467 20.0056 14.8627 19.8655L14.7899 19.7283C14.749 19.6562 14.6401 19.3697 14.5304 19.081C14.5122 19.0332 14.494 18.9853 14.4761 18.9384C13.4285 16.1793 12.7675 14.8656 11.8431 14.8656C10.9215 14.8656 10.2605 16.1793 9.21285 18.9384C9.19495 18.9853 9.17676 19.0332 9.15859 19.081C9.04888 19.3697 8.93998 19.6562 8.89913 19.7283L8.8235 19.8655V19.8739C8.73947 20.014 8.61342 20.2129 8.51538 20.3361C8.48212 20.3787 8.44696 20.4156 8.41951 20.4444C8.38917 20.4762 8.36825 20.4982 8.36972 20.507L8.33611 20.5182C8.26608 20.4902 8.19045 20.4258 8.11482 20.3277C7.99717 20.1793 7.86272 19.9524 7.78709 19.8235L7.74507 19.7535C7.17645 18.7255 6.84592 17.9972 6.42855 16.8712C6.16805 16.1793 5.94676 15.4706 5.75068 14.7003C5.71656 14.5706 5.67875 14.417 5.63724 14.2483C5.62763 14.2092 5.61783 14.1694 5.60783 14.1289L5.56021 13.93L5.49578 13.7703C4.50699 12.0589 3.80952 10.3726 3.42016 8.75915C2.94958 6.78156 3.31372 5.16532 4.45097 4.19894C5.10643 3.63592 6.01119 3.29698 7.00278 3.24656C8.0756 3.18214 9.18764 3.45945 10.2213 4.03368C10.605 4.24936 10.9972 4.47345 11.4285 4.72835C11.4303 4.72938 11.4321 4.73044 11.434 4.73154C11.5033 4.77207 11.6441 4.8544 11.8487 4.8544C12.0504 4.8544 12.1904 4.77037 12.2605 4.72835C12.6918 4.47065 13.084 4.24936 13.4677 4.03368C14.5013 3.45945 15.6134 3.18774 16.689 3.24656C17.6778 3.29698 18.5826 3.63592 19.2408 4.20174C20.3753 5.16532 20.7394 6.78436 20.2688 8.75915C19.8795 10.3754 19.182 12.0617 18.1932 13.7703L18.084 14.1121C18.0782 14.1359 18.0725 14.1596 18.0669 14.183C18.0205 14.3765 17.978 14.5535 17.9355 14.7059C17.7422 15.4678 17.5209 16.1737 17.2576 16.874C16.8431 17.9972 16.5097 18.7255 15.9579 19.7283L15.9019 19.8207L15.8926 19.8366C15.8158 19.9676 15.6896 20.1827 15.5686 20.3333C15.5353 20.3759 15.5002 20.4128 15.4727 20.4416C15.4424 20.4734 15.4214 20.4954 15.4229 20.5042L15.3893 20.5154C15.3193 20.4874 15.2436 20.423 15.168 20.3249Z" fill="#313235"/>
</svg>
