<svg width="24" height="24" viewBox="0 0 24 24" fill="none" xmlns="http://www.w3.org/2000/svg">
<path fill-rule="evenodd" clip-rule="evenodd" d="M17.5518 6.55314C17.9888 7.15818 20.549 10.5447 20.8852 10.9789L20.8982 10.996C21.1785 11.3639 21.6863 12.0303 21.6863 12.808V16.1442C21.6863 16.7184 21.4342 17.2982 20.9916 17.738C20.549 18.1778 19.9664 18.4299 19.3922 18.4299H19.1681C18.7143 19.4831 17.7227 20.1021 16.3473 20.1021C14.972 20.1021 13.9804 19.4831 13.5266 18.4299H9.66388C9.2101 19.4831 8.21851 20.1021 6.84316 20.1021C5.45101 20.1021 4.44821 19.4691 4.00283 18.3935C3.49863 18.3122 3.05325 18.0937 2.69751 17.7408C2.25493 17.301 2.00283 16.7212 2.00283 16.147V11.7464C2.00283 11.4159 2.27174 11.147 2.60507 11.147H6.75632L4.99162 7.59516L4.98882 9.28703C4.99442 9.31504 5.03084 9.9761 4.58826 10.4523C4.40339 10.6512 4.06725 10.8921 3.51263 10.8949H3.49863C2.916 10.8949 2.57146 10.6456 2.38378 10.4383C1.9328 9.93689 2.00003 9.23661 2.00843 9.15538C2.04765 8.82485 2.34737 8.58675 2.6779 8.62597C3.00843 8.66518 3.24653 8.9649 3.20731 9.29543C3.19891 9.39067 3.21852 9.56714 3.28294 9.63717C3.30924 9.66511 3.34808 9.66894 3.39493 9.67356C3.42792 9.67682 3.46488 9.68046 3.50423 9.69319C3.60227 9.69039 3.6695 9.67358 3.70311 9.63717C3.77594 9.55594 3.78994 9.36826 3.78714 9.32625L3.79274 5.13017C3.79274 4.90328 3.9272 4.696 4.13448 4.59796C4.13662 4.59689 4.13835 4.59582 4.13983 4.59491C4.14222 4.59343 4.14395 4.59236 4.14568 4.59236C4.1809 4.57593 4.21808 4.56933 4.25558 4.56268C4.26283 4.56139 4.27008 4.56011 4.27734 4.55875C4.29428 4.55429 4.31066 4.54869 4.32692 4.54314C4.36174 4.53124 4.39602 4.51953 4.4342 4.51953H4.4398L5.88238 4.53074C6.08126 4.53074 6.26333 4.62877 6.37537 4.79124L10.5742 10.8697V6.10776C10.5742 5.77723 10.8432 5.50833 11.1765 5.50833H15.479C16.2801 5.50833 17.0924 5.91729 17.5518 6.55314ZM5.55745 5.72961L9.29133 11.1386L8.09246 11.1358L5.40619 5.72681L5.55745 5.72961ZM20.4818 16.1498C20.4818 16.4075 20.3585 16.6792 20.1401 16.8949C19.9328 17.0993 19.6779 17.217 19.4314 17.2282C19.4326 17.196 19.436 17.165 19.4395 17.1338L19.4395 17.1337C19.4438 17.0943 19.4482 17.0547 19.4482 17.0125C19.4482 15.1049 18.2577 13.9229 16.3445 13.9229C14.4314 13.9229 13.2409 15.1077 13.2409 17.0125C13.2409 17.0567 13.2453 17.0973 13.2497 17.1373L13.2497 17.1373C13.2531 17.1684 13.2565 17.1992 13.2577 17.231H9.92719C9.92842 17.1989 9.93183 17.1674 9.93526 17.1356C9.93961 17.0954 9.94399 17.0548 9.94399 17.0125C9.94399 15.1049 8.75352 13.9229 6.84036 13.9229C4.9272 13.9229 3.73672 15.1077 3.73672 17.0125V17.0181C3.71525 17.0041 3.69284 16.9917 3.67043 16.9792C3.62561 16.9543 3.58079 16.9294 3.54345 16.8921C3.32496 16.6764 3.20171 16.4047 3.20171 16.147V12.3486H11.1709C11.5042 12.3486 11.7731 12.0797 11.7731 11.7492V6.71H15.4734C15.8852 6.71 16.3361 6.93409 16.5686 7.25622C17.014 7.86686 19.591 11.2758 19.93 11.71C20.1373 11.9789 20.4818 12.4271 20.4818 12.8052V16.1498ZM16.3473 18.9061C15.0896 18.9061 14.451 18.2702 14.451 17.0153C14.451 15.7604 15.0896 15.1246 16.3473 15.1246C17.605 15.1246 18.2465 15.7604 18.2465 17.0153C18.2465 18.2702 17.605 18.9061 16.3473 18.9061ZM4.9468 17.0153C4.9468 18.2702 5.58546 18.9061 6.84316 18.9061C8.10366 18.9061 8.74232 18.2702 8.73951 17.0153C8.73951 15.7604 8.10086 15.1246 6.84316 15.1246C5.58546 15.1246 4.9468 15.7604 4.9468 17.0153Z" fill="#313235"/>
</svg>
