<svg width="24" height="24" viewBox="0 0 24 24" fill="none" xmlns="http://www.w3.org/2000/svg">
<path fill-rule="evenodd" clip-rule="evenodd" d="M17.577 6.55595C18.014 7.16099 20.5742 10.5475 20.9104 10.9817C21.1905 11.3431 21.7143 12.0209 21.7059 12.8108V16.1526C21.7059 16.724 21.4538 17.3066 21.0112 17.7464C20.5714 18.1862 19.986 18.4383 19.4118 18.4383H19.1877C18.7339 19.4887 17.7423 20.1078 16.3669 20.1078C14.9916 20.1078 14 19.4915 13.5462 18.4383H9.68628C9.2325 19.4887 8.2409 20.1078 6.86555 20.1078C5.47339 20.1078 4.47059 19.4775 4.02522 18.3991C3.51821 18.3178 3.07003 18.0994 2.71709 17.7464C2.27452 17.3066 2.02242 16.7268 2.02242 16.1526V11.752C2.02242 11.4215 2.29132 11.1526 2.62466 11.1526H6.77872L5.01401 7.60076L5.01121 9.28984C5.01681 9.31785 5.05043 9.97891 4.61065 10.4551C4.42858 10.654 4.08964 10.8949 3.53502 10.8977H3.52101C2.93838 10.8977 2.59384 10.6512 2.40617 10.4411C1.95519 9.9397 2.02242 9.23942 2.03082 9.16099C2.07003 8.83045 2.36695 8.60076 2.70029 8.63438C3.03082 8.67359 3.26611 8.97331 3.2297 9.30104C3.22129 9.39348 3.2409 9.56995 3.30533 9.63998C3.33248 9.66883 3.373 9.673 3.4219 9.67804C3.45372 9.68132 3.48908 9.68496 3.52662 9.696C3.62466 9.696 3.69188 9.67919 3.7255 9.64278C3.80113 9.56155 3.81233 9.37387 3.80953 9.33185L3.81793 5.13578C3.81793 4.89768 3.96079 4.6988 4.15967 4.60076C4.16527 4.59796 4.16807 4.59516 4.17087 4.59236C4.21289 4.57555 4.25771 4.56715 4.30253 4.55875C4.31947 4.55429 4.33585 4.54869 4.35211 4.54314C4.38692 4.53124 4.42121 4.51953 4.45939 4.51953H4.46499L5.90757 4.53074C6.10645 4.53354 6.28852 4.62877 6.40056 4.79124L10.5994 10.8697V6.11057C10.5994 5.78004 10.8684 5.51113 11.2017 5.51113H15.5042C16.3053 5.51113 17.1204 5.92009 17.577 6.55595ZM6.87115 18.9033C5.61345 18.9033 4.9748 18.2674 4.9748 17.0125C4.9748 15.7576 5.61345 15.1218 6.87115 15.1218C8.12886 15.1218 8.76751 15.7576 8.76751 17.0125C8.76751 18.2674 8.12886 18.9033 6.87115 18.9033ZM16.3754 18.9033C15.1176 18.9033 14.479 18.2674 14.479 17.0125C14.479 15.7576 15.1176 15.1218 16.3754 15.1218C17.6331 15.1218 18.2717 15.7576 18.2717 17.0125C18.2717 18.2674 17.6331 18.9033 16.3754 18.9033Z" fill="#313235"/>
</svg>
