<svg width="24" height="24" viewBox="0 0 24 24" fill="none" xmlns="http://www.w3.org/2000/svg">
<path fill-rule="evenodd" clip-rule="evenodd" d="M17.5518 6.55314C17.9888 7.15818 20.549 10.5447 20.8851 10.9789L20.8981 10.996C21.1785 11.3639 21.6862 12.0303 21.6862 12.808V16.1442C21.6862 16.7184 21.4341 17.2982 20.9916 17.738C20.549 18.1778 19.9664 18.4299 19.3921 18.4299H19.168C18.7143 19.4831 17.7227 20.1021 16.3473 20.1021C14.972 20.1021 13.9804 19.4831 13.5266 18.4299H9.66386C9.21008 19.4831 8.21848 20.1021 6.84313 20.1021C5.45098 20.1021 4.44818 19.4691 4.0028 18.3935C3.4986 18.3122 3.05322 18.0937 2.69748 17.7408C2.25491 17.301 2.00281 16.7212 2.00281 16.147V11.7464C2.00281 11.4159 2.27171 11.147 2.60505 11.147H6.7563L4.9916 7.59516L4.98879 9.28703C4.9944 9.31504 5.03081 9.9761 4.58824 10.4523C4.40336 10.6512 4.06723 10.8921 3.51261 10.8949H3.4986C2.91597 10.8949 2.57143 10.6456 2.38376 10.4383C1.93278 9.93689 2 9.23661 2.00841 9.15538C2.04762 8.82485 2.34734 8.58675 2.67787 8.62597C3.00841 8.66518 3.2465 8.9649 3.20729 9.29543C3.19888 9.39067 3.21849 9.56714 3.28292 9.63717C3.30921 9.66511 3.34805 9.66894 3.3949 9.67356C3.42789 9.67682 3.46485 9.68046 3.5042 9.69319C3.60224 9.69039 3.66947 9.67358 3.70308 9.63717C3.77591 9.55594 3.78992 9.36826 3.78712 9.32625L3.79272 5.13017C3.79272 4.90328 3.92717 4.696 4.13445 4.59796C4.13659 4.59689 4.13833 4.59582 4.1398 4.59491C4.1422 4.59343 4.14393 4.59236 4.14566 4.59236C4.18087 4.57593 4.21806 4.56933 4.25556 4.56268C4.2628 4.56139 4.27006 4.56011 4.27731 4.55875C4.29426 4.55429 4.31064 4.54869 4.3269 4.54314C4.36171 4.53124 4.39599 4.51953 4.43417 4.51953H4.43978L5.88235 4.53074C6.08123 4.53074 6.2633 4.62877 6.37535 4.79124L10.5742 10.8697V6.10776C10.5742 5.77723 10.8431 5.50833 11.1765 5.50833H15.479C16.2801 5.50833 17.0924 5.91729 17.5518 6.55314ZM5.55742 5.72961L9.29131 11.1386L8.09243 11.1358L5.40616 5.72681L5.55742 5.72961ZM20.4818 16.1498C20.4818 16.4075 20.3585 16.6792 20.14 16.8949C19.9327 17.0993 19.6778 17.217 19.4313 17.2282C19.4326 17.196 19.436 17.165 19.4394 17.1338L19.4394 17.1337C19.4438 17.0943 19.4482 17.0547 19.4482 17.0125C19.4482 15.1049 18.2577 13.9229 16.3445 13.9229C14.4314 13.9229 13.2409 15.1077 13.2409 17.0125C13.2409 17.0567 13.2453 17.0973 13.2497 17.1373L13.2497 17.1373C13.2531 17.1684 13.2565 17.1992 13.2577 17.231H9.92716C9.9284 17.1989 9.93181 17.1674 9.93523 17.1356C9.93959 17.0954 9.94397 17.0548 9.94397 17.0125C9.94397 15.1049 8.75349 13.9229 6.84033 13.9229C4.92717 13.9229 3.7367 15.1077 3.7367 17.0125V17.0181C3.71522 17.0041 3.69281 16.9917 3.6704 16.9792C3.62558 16.9543 3.58077 16.9294 3.54342 16.8921C3.32493 16.6764 3.20168 16.4047 3.20168 16.147V12.3486H11.1709C11.5042 12.3486 11.7731 12.0797 11.7731 11.7492V6.71H15.4734C15.8851 6.71 16.3361 6.93409 16.5686 7.25622C17.014 7.86686 19.591 11.2758 19.9299 11.71C20.1372 11.9789 20.4818 12.4271 20.4818 12.8052V16.1498ZM16.3473 18.9061C15.0896 18.9061 14.451 18.2702 14.451 17.0153C14.451 15.7604 15.0896 15.1246 16.3473 15.1246C17.605 15.1246 18.2465 15.7604 18.2465 17.0153C18.2465 18.2702 17.605 18.9061 16.3473 18.9061ZM4.94678 17.0153C4.94678 18.2702 5.58543 18.9061 6.84313 18.9061C8.10364 18.9061 8.74229 18.2702 8.73949 17.0153C8.73949 15.7604 8.10083 15.1246 6.84313 15.1246C5.58543 15.1246 4.94678 15.7604 4.94678 17.0153Z" fill="#313235"/>
</svg>
