<svg width="24" height="24" viewBox="0 0 24 24" fill="none" xmlns="http://www.w3.org/2000/svg">
<path fill-rule="evenodd" clip-rule="evenodd" d="M2.34651 16.9742C2.23443 16.8443 2.16998 16.6669 2.16998 16.4831V7.48223V5.26764C2.16998 4.88429 2.43898 4.57064 2.77241 4.57064H13.109L13.1091 4.57063C13.2261 4.56741 16.5007 4.47709 20.313 8.88258C21.4478 10.1942 21.9633 11.5502 21.8429 12.9094C21.6719 14.8452 20.2597 16.1853 19.4359 16.8126C19.0969 17.0693 18.7046 17.2055 18.3039 17.2055H18.2871C17.2784 17.196 13.7479 17.177 2.77241 17.177C2.6127 17.177 2.46139 17.1041 2.34651 16.9742ZM3.37484 5.96148H12.9549V11.3665C12.9549 11.753 13.2239 12.0635 13.5573 12.0635H20.6156C20.6576 12.3011 20.666 12.5387 20.6464 12.77C20.6268 12.9886 20.5763 13.1945 20.5091 13.3973H3.37484V11.9843H11.6548C11.9882 11.9843 12.2572 11.6706 12.2572 11.2873V7.48223C12.2572 7.09571 11.9882 6.78522 11.6548 6.78522H3.37484V5.96148ZM19.4639 9.8679C19.6965 10.1372 19.8899 10.4033 20.0552 10.6695H14.1626V6.1294C15.2974 6.43672 17.2588 7.32382 19.4639 9.8679ZM18.7747 15.6499C18.9988 15.482 19.3519 15.181 19.6909 14.785H3.37484V15.7861C13.8824 15.7861 17.3064 15.8051 18.2955 15.8146H18.3039C18.472 15.8146 18.6318 15.7608 18.7747 15.6499ZM5.11769 8.17924V10.5934H3.37484V8.17924H5.11769ZM6.32255 10.5934H8.19429V8.17924H6.32255V10.5934ZM11.0523 10.5934H9.39915V8.17924H11.0523V10.5934ZM21.8597 18.7231C21.8597 18.3365 21.5907 18.0261 21.2572 18.0261H2.77241C2.43898 18.0261 2.16998 18.3365 2.16998 18.7231C2.16998 19.1096 2.43898 19.4201 2.77241 19.4201H21.2572C21.5907 19.4201 21.8597 19.1096 21.8597 18.7231Z" fill="#313235"/>
</svg>
