<svg width="24" height="24" viewBox="0 0 24 24" fill="none" xmlns="http://www.w3.org/2000/svg">
<path fill-rule="evenodd" clip-rule="evenodd" d="M2.34654 16.9742C2.23446 16.8443 2.17001 16.6669 2.17001 16.4831V5.26764C2.17001 4.88429 2.43901 4.57064 2.77244 4.57064H13.109L13.1092 4.57063C13.2261 4.56741 16.5008 4.47709 20.313 8.88258C21.4478 10.1942 21.9634 11.5502 21.8429 12.9094C21.672 14.8452 20.2598 16.1853 19.436 16.8126C19.0969 17.0693 18.7046 17.2055 18.304 17.2055H18.2871C17.2784 17.196 13.7479 17.177 2.77244 17.177C2.61273 17.177 2.46142 17.1041 2.34654 16.9742ZM20.0552 10.6695C19.8899 10.4033 19.6965 10.1372 19.464 9.8679C17.2588 7.32382 15.2974 6.43672 14.1626 6.12623V10.6695H20.0552ZM18.7747 15.6499C18.9988 15.4788 19.3519 15.1778 19.6937 14.785H3.37488V15.7861C13.8824 15.7861 17.3064 15.8051 18.2955 15.8146H18.304C18.4721 15.8146 18.6318 15.7608 18.7747 15.6499ZM5.37831 10.5934H3.37488V7.37134H5.37831V10.5934ZM6.7681 10.5934H8.92284V7.37134H6.7681V10.5934ZM12.3413 10.5934H10.1837V7.37134H12.3413V10.5934ZM21.8597 18.7231C21.8597 18.3365 21.5907 18.0261 21.2573 18.0261H2.77244C2.43901 18.0261 2.17001 18.3365 2.17001 18.7231C2.17001 19.1096 2.43901 19.4201 2.77244 19.4201H21.2573C21.5907 19.4201 21.8597 19.1096 21.8597 18.7231Z" fill="#313235"/>
</svg>
