<svg width="24" height="24" viewBox="0 0 24 24" fill="none" xmlns="http://www.w3.org/2000/svg">
<path fill-rule="evenodd" clip-rule="evenodd" d="M2.17001 14.4442C2.17001 14.4428 2.17071 14.4407 2.17141 14.4386C2.17211 14.4365 2.17281 14.4344 2.17281 14.433V11.4722C2.17281 11.4708 2.17211 11.4694 2.17141 11.468L2.17141 11.468C2.17071 11.4666 2.17001 11.4652 2.17001 11.4638V7.01839V5.0632C2.17001 4.93155 2.21203 4.8055 2.29046 4.71306C2.36609 4.62063 2.46973 4.57021 2.57898 4.57021H13.1084L13.1149 4.57017C13.3114 4.56854 16.5342 4.54191 20.3017 9.08001C21.4137 10.4189 21.9179 11.7915 21.8031 13.1612C21.6378 15.1164 20.2512 16.489 19.4417 17.1304C19.1308 17.3769 18.7723 17.5086 18.3997 17.5086H18.3857C17.3241 17.4974 13.6602 17.4778 2.58178 17.4778C2.35489 17.4778 2.17281 17.2565 2.17281 16.9848V14.4526C2.17281 14.4526 2.17001 14.447 2.17001 14.4442ZM2.98794 5.5562H13.1224C13.1252 5.559 13.1392 5.559 13.156 5.5562V11.545C13.156 11.8195 13.3381 12.038 13.565 12.038H20.9151C20.9907 12.3825 21.0216 12.7243 20.9907 13.0604C20.9627 13.3769 20.8843 13.671 20.7807 13.954C20.7779 13.954 20.7751 13.9533 20.7723 13.9526C20.7695 13.9519 20.7667 13.9512 20.7638 13.9512H2.99074V11.9568H11.9179C12.1448 11.9568 12.3269 11.7383 12.3269 11.4638V7.01839C12.3269 6.74668 12.1448 6.52539 11.9179 6.52539H2.98794V5.5562ZM20.5636 11.0492L20.565 11.052V11.0492H20.5636ZM20.5636 11.0492C20.3564 10.6299 20.0768 10.2051 19.7218 9.77749C17.2821 6.83911 15.1168 5.94836 13.9739 5.67665V11.0492H20.5636ZM18.9879 16.3069C19.2961 16.0632 19.8283 15.5814 20.2709 14.9344H2.99074V16.489C13.7554 16.489 17.3409 16.5114 18.3913 16.5198C18.5958 16.531 18.8087 16.4554 18.9879 16.3069ZM5.3745 10.9708H2.99074V7.51138H5.3745V10.9708ZM6.19242 10.9708H8.47253V7.51138H6.19242V10.9708ZM11.5089 10.9708H9.29046V7.51138H11.5089V10.9708ZM21.8563 18.9288C21.8563 18.657 21.6742 18.4358 21.4473 18.4358H2.57898C2.35209 18.4358 2.17001 18.657 2.17001 18.9288C2.17001 19.2005 2.35209 19.4217 2.57898 19.4217H21.4473C21.6742 19.4217 21.8563 19.2005 21.8563 18.9288Z" fill="#313235"/>
</svg>
