<svg width="24" height="24" viewBox="0 0 24 24" fill="none" xmlns="http://www.w3.org/2000/svg">
<path fill-rule="evenodd" clip-rule="evenodd" d="M15.0375 8.10545C15.228 8.11362 19.2091 8.34229 21.0469 12.0446C23.0865 16.1497 20.6827 17.7178 19.5257 18.4691L19.45 18.5181C19.1334 18.725 18.7832 18.8312 18.4078 18.8312H18.391L17.5561 18.8257C17.4973 19.7595 16.8809 20.3366 15.9088 20.3366C14.9338 20.3366 14.3147 19.754 14.2614 18.8148L11.2413 18.8094C11.1909 19.7513 10.5717 20.3366 9.59393 20.3366C8.61336 20.3366 7.9942 19.7513 7.94377 18.8067H7.08368C7.03325 19.7513 6.41409 20.3366 5.43352 20.3366C4.45296 20.3366 3.8338 19.7486 3.78337 18.804H2.56186C2.33773 18.804 2.15283 18.6216 2.15283 18.3956V15.6734C2.15283 15.672 2.15213 15.6706 2.15143 15.6693C2.15072 15.6679 2.15002 15.6665 2.15002 15.6652C2.15002 15.6638 2.15072 15.6625 2.15143 15.6611C2.15213 15.6597 2.15283 15.6584 2.15283 15.657V13.8249C2.15002 13.8249 2.15002 13.8222 2.15002 13.8195V8.51379C2.15002 8.4049 2.19205 8.30145 2.27049 8.22523C2.34614 8.14901 2.4498 8.10545 2.55906 8.10545H8.04743L9.46785 6.68987H9.24092C9.01679 6.68987 8.83189 6.50748 8.83189 6.28153V4.41678H2.55906C2.33493 4.41678 2.15002 4.23439 2.15002 4.00844C2.15002 3.78249 2.33213 3.6001 2.55906 3.6001H21.2851C21.512 3.6001 21.6941 3.78249 21.6941 4.00844C21.6941 4.23439 21.512 4.41678 21.2851 4.41678H15.0123V6.28153C15.0123 6.50748 14.8302 6.68987 14.6032 6.68987H13.0903C13.0875 6.69259 13.0861 6.696 13.0847 6.6994C13.0833 6.7028 13.0819 6.7062 13.0791 6.70893L11.6755 8.10545H15.0375ZM19.0046 17.8376L19.0802 17.7886C19.6405 17.4238 20.3914 16.9283 20.7752 16.0762H2.9765V17.99H3.89823C4.12797 17.3857 4.67428 17.0318 5.43913 17.0318C6.20397 17.0318 6.75309 17.3884 6.98002 17.9927H8.05584C8.28277 17.3857 8.82909 17.0318 9.59673 17.0318C10.3644 17.0318 10.9135 17.3884 11.1404 17.9954L14.3707 18.0009C14.5948 17.3911 15.1467 17.0318 15.9144 17.0318C16.6848 17.0318 17.2367 17.3938 17.4609 18.0091L18.4022 18.0145C18.5983 18.0172 18.8197 17.9573 19.0046 17.8376ZM15.9116 19.5226C15.3457 19.5226 15.0739 19.2477 15.0739 18.6869C15.0739 18.1234 15.3485 17.8484 15.9116 17.8484C16.4747 17.8484 16.7493 18.1234 16.7493 18.6869C16.7493 19.2504 16.4747 19.5226 15.9116 19.5226ZM8.75344 18.6869C8.75344 19.2477 9.028 19.5226 9.59393 19.5226C10.1571 19.5226 10.4344 19.2504 10.4316 18.6869C10.4316 18.1234 10.1571 17.8484 9.59393 17.8484C9.028 17.8484 8.75344 18.1234 8.75344 18.6869ZM5.43352 19.5226C4.8704 19.5226 4.59584 19.2477 4.59584 18.6869C4.59584 18.1234 4.8704 17.8484 5.43352 17.8484C5.99945 17.8484 6.27401 18.1234 6.27401 18.6869C6.27401 19.2504 5.99945 19.5226 5.43352 19.5226ZM5.76972 13.4139H2.9709V10.5473H5.76972V13.4139ZM6.59059 13.4139H8.92434V10.5473H6.59059V13.4139ZM12.3255 13.4139H9.74521V10.5473H12.3255V13.4139ZM13.9785 8.92213V13.8875C13.9785 14.1135 14.1634 14.2959 14.3875 14.2959H20.9545C21.0133 14.6743 21.0189 15.0146 20.9797 15.3167C20.9181 15.2813 20.8536 15.2568 20.778 15.2568H2.9709V14.2278H12.7345C12.9615 14.2278 13.1436 14.0454 13.1436 13.8195V10.1363C13.1436 9.91031 12.9587 9.72792 12.7345 9.72792H2.9709V8.92485L13.9785 8.92213ZM11.9389 6.68987H10.6277L9.2073 8.10545H10.5185L11.9389 6.68987ZM9.65276 5.87319H14.197V4.41678H9.65276V5.87319ZM20.7556 13.4792C20.6463 13.1471 20.5034 12.7932 20.3129 12.4066C18.7043 9.16459 15.1297 8.92931 15.0228 8.92228C15.0218 8.92221 15.021 8.92216 15.0207 8.92213H14.7965V13.4792H20.7556Z" fill="#313235"/>
</svg>
