<svg width="24" height="24" viewBox="0 0 24 24" fill="none" xmlns="http://www.w3.org/2000/svg">
<path fill-rule="evenodd" clip-rule="evenodd" d="M21.0491 11.9349C19.1976 8.13659 15.1808 7.90129 14.9819 7.89289H12.1724L13.1612 6.88729H14.5534C14.8867 6.88729 15.1556 6.61278 15.1556 6.27665V4.62119H21.0996C21.4329 4.62119 21.7018 4.34668 21.7018 4.01055C21.7018 3.67161 21.4329 3.3999 21.0996 3.3999H2.75226C2.41893 3.3999 2.15002 3.67441 2.15002 4.01055C2.15002 4.34948 2.41893 4.62119 2.75226 4.62119H8.69623V6.27665C8.69623 6.53715 8.85589 6.75564 9.07998 6.84527L8.04637 7.89289H2.75226C2.5926 7.89289 2.43854 7.95732 2.32649 8.07216C2.21445 8.18701 2.15002 8.34107 2.15002 8.50353V18.3663C2.15002 18.7052 2.41893 18.9769 2.75226 18.9769H3.75786C3.8419 19.9797 4.53097 20.624 5.56738 20.624C6.6066 20.624 7.29007 19.9825 7.3769 18.9797H7.83349C7.92032 19.9825 8.60659 20.624 9.64301 20.624C10.6794 20.624 11.3657 19.9825 11.4525 18.9825L14.024 18.9881C14.1136 19.9881 14.7971 20.6268 15.8335 20.6268C16.8643 20.6268 17.5478 19.9937 17.6402 19.0021L18.2648 19.0049H18.2816C18.6822 19.0049 19.0744 18.8845 19.4133 18.6604L19.4861 18.61C20.5786 17.8845 23.1248 16.1898 21.0491 11.9349ZM15.0324 13.2542V9.12258C15.559 9.1674 18.545 9.55675 19.9707 12.4783C20.1052 12.7528 20.2088 13.0077 20.2984 13.2542H15.0324ZM18.755 17.6324L18.8307 17.5847L18.8377 17.5801C19.3154 17.2616 19.9025 16.8702 20.2676 16.2486H3.3545V17.75H3.99316C4.29288 17.2234 4.8447 16.9125 5.56738 16.9125C6.29007 16.9125 6.84189 17.2262 7.14161 17.7528H8.06878C8.3685 17.2262 8.92032 16.9125 9.64301 16.9125C10.3685 16.9125 10.9203 17.2262 11.22 17.7528L14.2564 17.7584C14.5562 17.229 15.1108 16.9125 15.8363 16.9125C16.5674 16.9125 17.122 17.2346 17.4189 17.7724L18.276 17.778C18.4441 17.8088 18.6094 17.7304 18.755 17.6324ZM15.8363 19.3999C15.3881 19.3999 15.2144 19.2234 15.2144 18.7696C15.2144 18.3158 15.3881 18.1394 15.8363 18.1394C16.2844 18.1394 16.4581 18.3158 16.4581 18.7696C16.4581 19.2234 16.2844 19.3999 15.8363 19.3999ZM9.02396 18.7696C9.02396 19.2234 9.19763 19.3999 9.64581 19.3999C10.094 19.3999 10.2677 19.2234 10.2677 18.7696C10.2677 18.3158 10.094 18.1394 9.64581 18.1394C9.19763 18.1394 9.02396 18.3158 9.02396 18.7696ZM5.57299 19.3999C5.12481 19.3999 4.95114 19.2234 4.95114 18.7696C4.95114 18.3158 5.12481 18.1394 5.57299 18.1394C6.01836 18.1394 6.19483 18.3158 6.19483 18.7696C6.19203 19.2234 6.01836 19.3999 5.57299 19.3999ZM5.87271 9.80045H3.3573V13.1842H5.87271V9.80045ZM7.27887 13.187H9.53656V9.80045H7.27887V13.187ZM11.4581 6.88729H10.741L9.75225 7.89289H10.4693L11.4581 6.88729ZM9.90351 5.666H13.9539V4.62119H9.90351V5.666ZM13.2424 13.187H10.9399V9.80045H13.2424V13.187Z" fill="#313235"/>
</svg>
