<svg width="24" height="24" viewBox="0 0 24 24" fill="none" xmlns="http://www.w3.org/2000/svg">
<path fill-rule="evenodd" clip-rule="evenodd" d="M15.0742 5.99159H16.4495C17.0966 5.99159 17.6624 6.62184 17.6624 7.34173V19.7311C17.6624 20.465 17.1078 21.084 16.4495 21.084H15.4047C15.3235 21.633 14.8473 21.6834 14.7184 21.6862H14.6512C14.5168 21.6834 14.0462 21.633 13.9649 21.084H9.90894C9.8277 21.633 9.35151 21.6834 9.22266 21.6862H9.15544C9.02098 21.6862 8.55039 21.633 8.46916 21.084H7.38793C6.72967 21.084 6.17505 20.465 6.17505 19.7311V7.34173C6.17505 6.62184 6.74368 5.99159 7.38793 5.99159H8.76328V2.88235C8.76328 2.40336 9.17784 2 9.67364 2H14.1638C14.6484 2 15.0742 2.41176 15.0742 2.88235V5.99159ZM8.65964 11.437H15.1806C15.1806 11.437 15.1806 9.73108 15.1834 9.73108C15.1834 9.13164 14.8361 8.50979 14.2591 8.50979H9.58401C9.00698 8.50979 8.65964 9.13164 8.65964 9.73108V11.437ZM15.1806 17.4481C15.1806 18.1456 14.7829 18.6694 14.2591 18.6694H9.58401C9.0574 18.6694 8.65964 18.1456 8.65964 17.4481V12.521H15.1834V17.4481H15.1806ZM13.8445 5.98319H9.99577V3.21848H13.8445V5.98319Z" fill="#313235"/>
</svg>
