<svg width="24" height="24" viewBox="0 0 24 24" fill="none" xmlns="http://www.w3.org/2000/svg">
<path d="M21.8417 14.7785L21.4131 18.2603C21.3627 18.6552 21.0238 18.9493 20.626 18.9465H17.1358C16.7016 18.9493 16.3487 18.602 16.3431 18.1678C16.3431 17.7393 16.7016 17.3891 17.1358 17.3891H19.0182L14.0322 10.4395L7.23944 13.3667C6.86409 13.5236 6.42992 13.3807 6.22264 13.0334L2.26185 6.16783C2.04897 5.79248 2.18062 5.31909 2.55597 5.10621C2.55877 5.10341 2.56157 5.10341 2.56437 5.10061C2.94533 4.89052 3.42432 5.01937 3.64281 5.39472L7.25345 11.6496L13.9845 8.75607C14.3291 8.60481 14.7324 8.71405 14.9537 9.01937L20.0714 16.165L20.2619 14.5908C20.3235 14.1594 20.7156 13.8541 21.1498 13.9045C21.5784 13.9521 21.8893 14.3415 21.8417 14.7701V14.7785Z" fill="#313235"/>
</svg>
