<svg width="24" height="24" viewBox="0 0 24 24" fill="none" xmlns="http://www.w3.org/2000/svg">
<path d="M21.8461 5.59944V9.17647C21.8461 9.5042 21.566 9.77591 21.2242 9.77591C20.8881 9.78151 20.608 9.51261 20.6024 9.17647V7.35294L15.1318 14.8936C14.9609 15.1317 14.6472 15.2185 14.3783 15.1008L7.17943 12.0392L3.31948 18.6415C3.20744 18.8319 3.00296 18.9468 2.78167 18.944C2.67523 18.944 2.57158 18.9188 2.47354 18.8711C2.18503 18.7171 2.07579 18.3585 2.22985 18.07C2.23545 18.0616 2.23825 18.0532 2.24385 18.0476L6.3755 10.9832C6.53797 10.7115 6.8741 10.6022 7.16262 10.7283L14.4091 13.8067L19.9329 6.20448H17.58C17.2439 6.21008 16.9637 5.94118 16.9581 5.60504V5.60224C16.9581 5.26611 17.2326 5 17.58 5H21.2242C21.5632 5 21.8461 5.26331 21.8461 5.59944Z" fill="#313235"/>
</svg>
