<svg width="24" height="24" viewBox="0 0 24 24" fill="none" xmlns="http://www.w3.org/2000/svg">
<path fill-rule="evenodd" clip-rule="evenodd" d="M5.58977 17.3738H18.3965C19.5141 17.3738 20.3825 17.0629 20.9763 16.4467C21.5477 15.8584 21.8362 15.0125 21.8362 13.9369V7.93969C21.8362 5.74082 20.615 4.52793 18.3965 4.52793L5.58977 4.51953C3.37129 4.51953 2.15 5.72961 2.15 7.93129V13.9285C2.15 15.0041 2.43852 15.85 3.00714 16.4439C3.60098 17.0601 4.46932 17.3738 5.58977 17.3738ZM9.53094 19.5727H14.4469C14.755 19.5727 15.0071 19.3206 15.0071 19.0125C15.0071 18.7044 14.755 18.4523 14.4469 18.4523H9.53094C9.22282 18.4523 8.97072 18.7044 8.97072 19.0125C8.97072 19.3206 9.22282 19.5727 9.53094 19.5727Z" fill="#313235"/>
</svg>
