<svg width="24" height="24" viewBox="0 0 24 24" fill="none" xmlns="http://www.w3.org/2000/svg">
<path fill-rule="evenodd" clip-rule="evenodd" d="M18.3965 17.3684L5.59257 17.36C4.47212 17.36 3.60378 17.049 3.01274 16.4328C2.43851 15.8418 2.14999 14.9958 2.14999 13.9202V7.923C2.14999 5.72131 3.37128 4.51123 5.58977 4.51123L18.3965 4.51963C20.615 4.51963 21.8363 5.73252 21.8363 7.9314V13.9286C21.8363 15.0042 21.5478 15.8502 20.9763 16.4412C20.3825 17.0574 19.5141 17.3684 18.3965 17.3684ZM5.58977 5.63168C4.78305 5.63168 4.18361 5.82496 3.81106 6.20591C3.45252 6.57286 3.27044 7.14989 3.27044 7.923V13.9202C3.27044 15.5028 4.00714 16.2395 5.58977 16.2395L18.3937 16.2479C19.9763 16.2479 20.713 15.5112 20.713 13.9286V7.9314C20.713 7.15829 20.5309 6.58126 20.1696 6.21431C19.7971 5.83336 19.2004 5.64008 18.3909 5.64008L5.58977 5.63168ZM9.53095 19.5729L14.4469 19.5813C14.755 19.5813 15.0071 19.3292 15.0071 19.021C15.0071 18.7129 14.755 18.4608 14.4469 18.4608L9.53095 18.4524C9.22282 18.4524 8.97072 18.7045 8.97072 19.0126C8.97072 19.3208 9.22282 19.5729 9.53095 19.5729Z" fill="#313235"/>
</svg>
