<svg width="24" height="24" viewBox="0 0 24 24" fill="none" xmlns="http://www.w3.org/2000/svg">
<path fill-rule="evenodd" clip-rule="evenodd" d="M5.31486 17.2967C4.27205 17.2967 3.47313 17.0224 2.9321 16.4818C2.4135 15.9603 2.14999 15.2024 2.14999 14.2326V8.14518C2.14999 7.17543 2.4135 6.42298 2.9321 5.90958C3.46752 5.37717 4.26925 5.10825 5.31206 5.10825L18.6779 5.1001C19.7207 5.1001 20.5225 5.36902 21.0579 5.90143C21.5765 6.41755 21.84 7.16999 21.84 8.13703V14.2245C21.84 15.1942 21.5765 15.9521 21.0579 16.4737C20.5197 17.0142 19.7179 17.2886 18.6751 17.2886L5.31486 17.2967ZM18.6807 5.64338L5.31486 5.65153C3.56283 5.65153 2.71064 6.46645 2.71064 8.14518V14.2326C2.71064 15.0584 2.92089 15.6859 3.33577 16.1042C3.76466 16.5361 4.42903 16.7534 5.31486 16.7534L18.6807 16.7453C19.5638 16.7453 20.2309 16.528 20.6598 16.0961C21.0747 15.6805 21.285 15.0503 21.285 14.2245V8.13703C21.2821 6.4583 20.4328 5.64338 18.6807 5.64338ZM9.25903 18.8831H14.7282C14.8823 18.8831 15.0085 18.7609 15.0085 18.6115C15.0085 18.4621 14.8823 18.3398 14.7282 18.3398H9.25903C9.10485 18.3398 8.9787 18.4621 8.9787 18.6115C8.9787 18.7609 9.10485 18.8831 9.25903 18.8831Z" fill="#313235"/>
</svg>
