<svg width="24" height="24" viewBox="0 0 24 24" fill="none" xmlns="http://www.w3.org/2000/svg">
<path fill-rule="evenodd" clip-rule="evenodd" d="M19.3361 5.85714C20.5406 7.08683 21.3249 8.71989 21.6639 10.7031C21.7395 11.1204 21.6247 11.5602 21.3501 11.9076C21.0476 12.2661 20.6135 12.4622 20.1541 12.465L12.549 12.4454V19.4482C12.549 20.0084 13.014 20.465 13.5826 20.465C14.1513 20.465 14.6163 20.0084 14.6163 19.4482C14.6163 19.112 14.8936 18.8375 15.2353 18.8375C15.577 18.8375 15.8544 19.112 15.8544 19.4482C15.8544 20.6835 14.8347 21.6891 13.5826 21.6891C12.3473 21.6891 11.3361 20.7115 11.3109 19.4986C11.3081 19.4846 11.3081 19.4706 11.3081 19.4566V12.4426L3.54623 12.4202C3.25491 12.4174 2.9692 12.3333 2.7311 12.1877C2.60505 12.112 2.4874 12.0112 2.36976 11.8796C2.06724 11.5098 1.94959 11.0672 2.02522 10.6415C2.37816 8.65826 3.17648 7.03361 4.39497 5.81233C6.02522 4.16527 8.35575 3.29132 11.3081 3.20448V2.61064C11.3081 2.27451 11.5854 2 11.9272 2C12.2689 2 12.5462 2.27451 12.5462 2.61064V3.20448C15.451 3.33333 17.7311 4.21849 19.3361 5.85714ZM3.38376 11.1513L3.38019 11.1486C3.3673 11.1391 3.34167 11.1201 3.31373 11.0896C3.25491 11.0168 3.2297 10.9328 3.24371 10.8543C3.55183 9.11765 4.2353 7.70868 5.27732 6.66667C6.25491 5.68067 7.54903 5.01961 9.12606 4.68067C7.63306 5.83753 5.94399 7.85154 5.34735 11.2017L3.55183 11.1961C3.49581 11.1961 3.42858 11.1793 3.38376 11.1513ZM20.3866 11.1345C20.3109 11.2213 20.2157 11.2409 20.1513 11.2409L18.3389 11.2353C17.7367 7.85994 16.2045 5.87395 14.7899 4.73389C16.2829 5.09524 17.5126 5.7479 18.4482 6.70308C19.4762 7.7535 20.1485 9.16807 20.4454 10.9104C20.4566 10.9888 20.4314 11.0784 20.3866 11.1345ZM12.5462 4.7619C13.8375 5.36134 16.2577 7.02801 17.0812 11.2353L12.5462 11.2241V4.7619ZM11.3053 4.7535C10.0084 5.38655 7.40057 7.14286 6.60225 11.2073L11.3053 11.2213V4.7535Z" fill="#313235"/>
</svg>
