<svg width="24" height="24" viewBox="0 0 24 24" fill="none" xmlns="http://www.w3.org/2000/svg">
<path fill-rule="evenodd" clip-rule="evenodd" d="M20.0084 2.00002H13.4258C12.507 1.99721 11.7591 2.73951 11.7563 3.65828V7.69469C11.7563 8.64707 12.437 9.36416 13.3389 9.36416H13.8964V10.7479C13.8964 10.8102 13.8943 10.8721 13.8922 10.9324V10.9324V10.9324V10.9325C13.8813 11.2543 13.872 11.5307 14.1905 11.5826C14.5425 11.64 14.8242 11.2992 15.0445 11.0326L15.0924 10.9748C15.1906 10.8572 15.366 10.6688 15.5816 10.437C15.8643 10.1332 16.2162 9.755 16.5546 9.36416L20.0084 9.37256C20.93 9.37256 21.6751 8.62467 21.6779 7.7031V3.66948C21.6751 2.74791 20.93 2.00002 20.0084 2.00002ZM16.888 8.28013C16.5966 8.28013 16.3613 8.04483 16.3613 7.75352C16.3613 7.4622 16.5966 7.22691 16.888 7.22691C17.1793 7.22691 17.4146 7.4622 17.4146 7.75352C17.4146 8.04483 17.1765 8.28013 16.888 8.28013ZM17.6921 5.56364C17.7227 5.53707 17.7499 5.51341 17.7703 5.49301C17.8047 5.4586 17.8403 5.42517 17.8761 5.39157L17.8761 5.39156L17.8762 5.39155C18.0967 5.18449 18.3241 4.97103 18.3193 4.48181C18.3193 3.81234 17.7423 3.09525 16.8824 3.09525C15.9636 3.09525 15.381 3.63867 15.381 4.47621V4.49862C15.3866 4.77312 15.6162 4.99161 15.8936 4.98601C16.1681 4.98041 16.3866 4.75072 16.381 4.47341C16.381 4.31374 16.549 4.04483 16.8824 4.04483C17.2157 4.04483 17.2941 4.34175 17.2941 4.47901C17.2941 4.65477 17.1397 4.78589 17.0326 4.87691C17.0082 4.89759 16.9863 4.9162 16.9692 4.93279L16.9403 4.96056C16.7063 5.18525 16.3838 5.49501 16.3838 6.01122V6.2185C16.3838 6.50142 16.6022 6.73111 16.8852 6.73111C17.1681 6.73111 17.3866 6.50142 17.3866 6.2185V6.01122C17.3866 5.82899 17.5672 5.67206 17.6921 5.56364ZM8.46499 15.507C9.59944 15.507 10.479 15.1849 11.0784 14.549C11.6443 13.9496 11.9328 13.1037 11.9328 12.0364C11.9328 10.9692 11.6443 10.1261 11.0784 9.52383C10.479 8.88797 9.59944 8.56584 8.46499 8.56584C7.33053 8.56584 6.45098 8.88797 5.85154 9.52383C5.28571 10.1233 4.9972 10.9692 4.9972 12.0364C4.9972 13.1037 5.28571 13.9468 5.85154 14.549C6.45098 15.1849 7.33053 15.507 8.46499 15.507ZM2.97759 17.479C3.62465 16.8235 4.59384 16.493 5.85434 16.493H11.0756C12.3361 16.493 13.3025 16.8235 13.9524 17.4762C14.6022 18.1289 14.93 19.1037 14.93 20.3698V21.4118C14.93 21.5658 14.8039 21.6919 14.6499 21.6919H2.28011C2.12605 21.6919 2 21.5658 2 21.4118V20.3698C2 19.1037 2.33053 18.1345 2.97759 17.479Z" fill="#313235"/>
</svg>
