<svg width="24" height="24" viewBox="0 0 24 24" fill="none" xmlns="http://www.w3.org/2000/svg">
<path fill-rule="evenodd" clip-rule="evenodd" d="M7.97619 10.6414C8.81652 11.451 10.0294 11.8599 11.5868 11.8599C13.1442 11.8599 14.3599 11.451 15.2003 10.6414C16.077 9.80111 16.5224 8.55461 16.5224 6.93556C16.5224 5.31652 16.0798 4.06722 15.2031 3.22409C14.3599 2.41176 13.1442 2 11.5868 2C10.0294 2 8.81652 2.41176 7.97619 3.22409C7.10504 4.06722 6.66247 5.31652 6.66247 6.93556C6.66247 8.55461 7.10504 9.80111 7.97619 10.6414ZM3.39357 21.6918H19.7801C20.0882 21.6918 20.3403 21.4397 20.3403 21.1316V19.493C20.3403 17.9243 19.8501 16.5882 18.9201 15.6218C17.9117 14.5714 16.4103 14.0168 14.584 14.0168H8.57563C6.7493 14.0168 5.25351 14.5742 4.24511 15.6246C3.32074 16.5882 2.83334 17.9243 2.83334 19.493V21.1316C2.83334 21.4397 3.08544 21.6918 3.39357 21.6918Z" fill="#313235"/>
</svg>
