<svg width="24" height="24" viewBox="0 0 24 24" fill="none" xmlns="http://www.w3.org/2000/svg">
<path fill-rule="evenodd" clip-rule="evenodd" d="M19.8282 8.21316C19.7366 8.00258 19.6551 7.81535 19.5882 7.65539C19.566 7.60254 19.545 7.55168 19.5252 7.50372C19.4925 7.42459 19.4631 7.35335 19.437 7.29405C19.4121 7.23888 19.3962 7.20745 19.385 7.18541C19.3787 7.17275 19.3738 7.16319 19.3697 7.15399L19.3109 7.04475C19.1597 6.77584 18.986 6.52374 18.7647 6.31366C18.084 5.6666 17.1204 5.33887 15.8992 5.33887C15.3978 5.33887 14.9524 5.40609 14.5378 5.51814C14.2941 5.58256 13.7535 5.82066 13.7423 5.82626C13.7423 5.82626 13.3277 6.05876 13.1961 6.14559C12.7983 6.4145 12.3333 6.54895 11.8711 6.54895C11.4062 6.54895 10.944 6.4145 10.5434 6.14559C10.4118 6.05876 9.99719 5.82626 9.99719 5.82626C9.98879 5.82066 9.44817 5.58256 9.20447 5.51814C8.79271 5.4089 8.34733 5.33887 7.84313 5.33887C6.62464 5.33887 5.65826 5.6666 4.98039 6.31366C4.7563 6.52374 4.58543 6.77584 4.43137 7.04475L4.37534 7.15399C4.37126 7.16319 4.36643 7.17275 4.36004 7.1854C4.3489 7.20745 4.33303 7.23888 4.30812 7.29405C4.27517 7.36406 4.23919 7.45073 4.19907 7.54738C4.18462 7.58219 4.16963 7.6183 4.15405 7.65539C4.08551 7.82025 4.00132 8.01407 3.90642 8.23257C3.22568 9.79988 1.99359 12.6366 2.028 15.154C2.03641 15.5686 2.19047 16.3921 2.31372 16.7898C2.56022 17.5826 3.12604 18.0924 3.75069 18.2969C4.0056 18.3781 4.35013 18.4369 4.59943 18.4565C4.62184 18.4593 4.64985 18.4593 4.67786 18.4593C5.03081 18.4593 5.62744 18.3137 5.93837 18.1736C6.12884 18.0896 6.39495 17.9439 6.70868 17.6778C6.8694 17.5411 6.95205 17.4393 7.16776 17.1736C7.20393 17.129 7.24385 17.0799 7.28851 17.0251C7.35236 16.9457 7.41406 16.8647 7.4757 16.7837C7.62499 16.5875 7.77395 16.3917 7.95237 16.2212C8.53501 15.6666 9.2717 15.2716 10.1485 15.0279C10.7087 14.8683 11.2885 14.7926 11.8711 14.7926C12.4538 14.7926 13.0364 14.8711 13.5938 15.0279C14.4706 15.2716 15.2101 15.6694 15.7899 16.2212C15.9608 16.3845 16.1047 16.5723 16.2486 16.7601C16.3169 16.8493 16.3853 16.9385 16.4566 17.0251C16.4868 17.0625 16.5148 17.0972 16.541 17.1296C16.7822 17.4285 16.8671 17.5338 17.0364 17.6778C17.3501 17.9439 17.6302 18.0896 17.8207 18.1736C18.1569 18.3249 18.8123 18.4565 19.1457 18.4565C19.395 18.4565 19.7395 18.3781 19.9944 18.2969C20.619 18.0924 21.1877 17.5826 21.4314 16.7898C21.5546 16.3921 21.7087 15.5686 21.7143 15.154C21.7488 12.6262 20.5085 9.77637 19.8282 8.21316ZM20.2521 16.4369C20.3529 16.1064 20.479 15.4033 20.4818 15.14C20.5125 12.8808 19.3376 10.1723 18.7038 8.71105L18.7003 8.70301C18.6665 8.62457 18.6338 8.5493 18.6025 8.47732L18.6024 8.47706L18.6022 8.47666C18.5454 8.34583 18.4933 8.22589 18.4482 8.11758L18.4118 8.02794L18.3671 7.92313C18.3452 7.87191 18.3251 7.82499 18.3081 7.78425L18.2829 7.72822L18.2689 7.70021L18.2633 7.68901L18.2241 7.61618C18.112 7.4229 18.0112 7.28565 17.9076 7.18481C17.465 6.76464 16.7899 6.55175 15.8992 6.55175C15.5462 6.55175 15.2045 6.59657 14.8599 6.68901C14.7675 6.71422 14.4818 6.83186 14.3025 6.9103C14.2017 6.96632 13.9832 7.08957 13.8964 7.14839C13.2969 7.55175 12.5994 7.76464 11.8739 7.76464C11.1485 7.76464 10.4482 7.55175 9.85153 7.14839C9.77023 7.09419 9.59139 6.9923 9.48279 6.93043L9.44257 6.90749C9.2773 6.83747 8.98039 6.71422 8.88515 6.68621C8.53781 6.59657 8.19887 6.54895 7.84593 6.54895C6.95517 6.54895 6.2801 6.76464 5.84033 7.182C5.73669 7.28284 5.63025 7.4229 5.5238 7.61338L5.49299 7.675L5.46778 7.72542L5.43977 7.78425C5.41484 7.84034 5.38683 7.90722 5.35573 7.98146L5.32212 8.06156L5.29971 8.11758C5.23255 8.27877 5.14993 8.4683 5.05926 8.67629L5.05925 8.67631L5.04761 8.70301L5.04413 8.71105C4.41024 10.1723 3.23534 12.8808 3.2661 15.14C3.2689 15.4033 3.39215 16.1092 3.49579 16.4369C3.64985 16.9355 3.99999 17.098 4.14565 17.1456C4.2773 17.1904 4.521 17.2324 4.70027 17.2492C4.82352 17.2464 5.24929 17.154 5.43417 17.07C5.59103 16.9999 5.74509 16.8991 5.90475 16.7646C5.98039 16.7002 6.0084 16.6694 6.23529 16.3893L6.33053 16.2716C6.35992 16.2339 6.38861 16.1961 6.4173 16.1583L6.41736 16.1582L6.41742 16.1581C6.44611 16.1203 6.4748 16.0825 6.50419 16.0447L6.53501 16.0045C6.69218 15.799 6.86658 15.571 7.09523 15.3529C7.81512 14.6666 8.73109 14.1652 9.81232 13.8627C10.479 13.6778 11.1737 13.5826 11.8711 13.5826C12.5686 13.5826 13.2633 13.6778 13.93 13.8627C15.014 14.1652 15.9272 14.6666 16.6471 15.3529C16.8907 15.5854 17.0784 15.8291 17.2409 16.0447L17.3278 16.1569L17.4146 16.2688L17.507 16.3837C17.7339 16.6638 17.7647 16.6946 17.8375 16.7618C18.0364 16.9327 18.2101 17.0195 18.3221 17.0672C18.493 17.1428 18.9776 17.2408 19.14 17.2408C19.2045 17.2408 19.4062 17.2044 19.5994 17.1428C19.7479 17.098 20.098 16.9355 20.2521 16.4369ZM15.9272 8.35007C16.1793 8.35007 16.3753 8.4145 16.5126 8.54335C16.6555 8.6778 16.7283 8.87668 16.7283 9.13719C16.7283 9.39489 16.6555 9.59377 16.5126 9.72822C16.3753 9.85707 16.1793 9.9215 15.9272 9.9215C15.6751 9.9215 15.479 9.85707 15.3417 9.72822C15.1989 9.59377 15.1288 9.39769 15.1288 9.13719C15.1288 8.87668 15.2017 8.6778 15.3417 8.54335C15.4762 8.4145 15.6723 8.35007 15.9272 8.35007ZM14.3081 9.9187C14.5602 9.9187 14.7563 9.98313 14.8935 10.1148C15.0364 10.2492 15.1092 10.4481 15.1092 10.7086C15.1092 10.9663 15.0364 11.1652 14.8935 11.2997C14.7563 11.4285 14.5602 11.4929 14.3081 11.4929C14.056 11.4929 13.8599 11.4285 13.7227 11.2997C13.5826 11.1652 13.507 10.9691 13.507 10.7086C13.507 10.4481 13.5798 10.2492 13.7227 10.1148C13.8599 9.98313 14.056 9.9187 14.3081 9.9187ZM16.5126 11.6806C16.3753 11.5518 16.1793 11.4873 15.9272 11.4873C15.6723 11.4873 15.4762 11.5518 15.3417 11.6806C15.2017 11.8151 15.1288 12.0139 15.1288 12.2744C15.1288 12.5349 15.1989 12.731 15.3417 12.8655C15.479 12.9943 15.6751 13.0588 15.9272 13.0588C16.1793 13.0588 16.3753 12.9943 16.5126 12.8655C16.6555 12.731 16.7283 12.5321 16.7283 12.2744C16.7283 12.0139 16.6555 11.8151 16.5126 11.6806ZM17.5434 9.9187C17.7955 9.9187 17.9916 9.98313 18.1288 10.1148C18.2717 10.2492 18.3445 10.4481 18.3445 10.7086C18.3445 10.9663 18.2717 11.1652 18.1288 11.2997C17.9916 11.4285 17.7955 11.4929 17.5434 11.4929C17.2885 11.4929 17.0952 11.4285 16.958 11.2997C16.8179 11.1652 16.7451 10.9691 16.7451 10.7086C16.7451 10.4481 16.8179 10.2492 16.958 10.1148C17.0952 9.98313 17.2913 9.9187 17.5434 9.9187ZM9.98319 9.83186C9.79831 9.65539 9.5238 9.56856 9.16526 9.56856C9.14669 9.56856 9.13067 9.56898 9.11738 9.56934C9.09659 9.56989 9.08246 9.57027 9.07562 9.56856C9.08123 9.53214 9.08403 9.47892 9.08403 9.46212C9.08403 9.09797 8.98319 8.81786 8.79271 8.63579C8.60784 8.45932 8.33333 8.36968 7.97478 8.36968C7.61624 8.36968 7.34173 8.46212 7.15966 8.63579C6.96358 8.81786 6.86834 9.09517 6.86834 9.46212C6.86834 9.52094 6.87394 9.57136 6.87954 9.62178H6.85994C6.82912 9.61618 6.74509 9.61058 6.71428 9.61058C6.35574 9.61058 6.08123 9.70301 5.89915 9.87668C5.70868 10.056 5.61064 10.3333 5.61064 10.7002C5.61064 11.0672 5.70868 11.3473 5.89635 11.5237C6.08123 11.7002 6.35574 11.7898 6.71428 11.7898C6.80036 11.7898 6.83381 11.7876 6.87047 11.7851L6.88235 11.7842C6.87674 11.8207 6.86554 11.9075 6.86554 11.9411C6.86554 12.3081 6.96078 12.5854 7.15125 12.7618C7.33333 12.9411 7.61064 13.0279 7.96918 13.0279C8.32492 13.0279 8.59943 12.9411 8.78711 12.7646C8.98038 12.5826 9.07842 12.3081 9.07842 11.9439C9.07842 11.8935 9.07002 11.8291 9.05602 11.7674L9.05321 11.745H9.16526C9.521 11.745 9.79831 11.6554 9.98319 11.4789C10.1765 11.2969 10.2745 11.0223 10.2745 10.6582C10.2745 10.294 10.1765 10.0195 9.98319 9.83186Z" fill="#313235"/>
</svg>
