<svg width="24" height="24" viewBox="0 0 24 24" fill="none" xmlns="http://www.w3.org/2000/svg">
<path fill-rule="evenodd" clip-rule="evenodd" d="M19.5434 7.6147L19.5602 7.65539C19.6288 7.82029 19.713 8.01423 19.8079 8.23288C20.4888 9.80072 21.7213 12.6392 21.6918 15.154C21.6862 15.5685 21.5294 16.3949 21.4089 16.7898C21.1652 17.5825 20.5938 18.0923 19.972 18.2968C19.7171 18.3809 19.3725 18.4593 19.1232 18.4593C18.7899 18.4593 18.1344 18.3276 17.7983 18.1792C17.6078 18.0923 17.3277 17.9523 17.014 17.6834C16.849 17.5405 16.7662 17.4388 16.5374 17.1575C16.5059 17.1188 16.4717 17.0767 16.4341 17.0307C16.3679 16.9492 16.3041 16.8654 16.2401 16.7815C16.0929 16.5885 15.9451 16.3947 15.7675 16.2268C15.1876 15.6722 14.451 15.28 13.5714 15.0335C13.0112 14.8767 12.4314 14.7982 11.8487 14.7982C11.2661 14.7982 10.6835 14.8795 10.1232 15.0335C9.24648 15.2772 8.50699 15.6722 7.92716 16.2268C7.75293 16.3933 7.6068 16.5852 7.46103 16.7766C7.39587 16.8622 7.33079 16.9477 7.26329 17.0307C7.23841 17.0614 7.215 17.0904 7.19288 17.1177C6.93869 17.4319 6.85612 17.5339 6.68346 17.6834C6.36974 17.9523 6.10363 18.0923 5.91316 18.1792C5.60223 18.3192 5.0028 18.4621 4.65266 18.4621C4.63828 18.4621 4.62464 18.4614 4.61137 18.4606C4.59877 18.46 4.5865 18.4593 4.57422 18.4593C4.32493 18.4397 3.98039 18.3809 3.72549 18.2968C3.10084 18.0923 2.53221 17.5825 2.28851 16.7898C2.16527 16.3921 2.0084 15.5685 2.0028 15.154C1.96832 12.6321 3.20489 9.78754 3.88487 8.22337C3.97828 8.0085 4.06118 7.81778 4.12885 7.65539C4.18767 7.51253 4.24089 7.38928 4.28291 7.29405C4.31385 7.22333 4.33084 7.19097 4.34214 7.16945C4.34516 7.1637 4.34777 7.15872 4.35014 7.15399L4.40616 7.04195C4.56022 6.77304 4.73389 6.52374 4.95518 6.31366C5.63305 5.6666 6.59663 5.33887 7.81792 5.33887C8.31932 5.33887 8.76749 5.40609 9.17926 5.51534C9.42295 5.57976 9.96357 5.81786 9.97197 5.82346C9.97197 5.82346 10.3837 6.05595 10.5182 6.14559C10.9159 6.4145 11.3781 6.54895 11.8431 6.54895C12.3053 6.54895 12.7675 6.4145 13.168 6.14559C13.2997 6.05595 13.7143 5.82346 13.7143 5.82346C13.7255 5.81786 14.2661 5.57976 14.5098 5.51534C14.9215 5.4089 15.3697 5.33887 15.8711 5.33887C17.0924 5.33887 18.056 5.6666 18.7367 6.31366C18.958 6.52374 19.1316 6.77304 19.2829 7.04195L19.3417 7.15399C19.3442 7.15906 19.3471 7.16427 19.3504 7.17038C19.3617 7.19125 19.3786 7.22252 19.4089 7.29405C19.4469 7.38012 19.4917 7.48907 19.5434 7.6147ZM15.8991 9.91869C16.1512 9.91869 16.3501 9.85426 16.4846 9.72541C16.6274 9.59096 16.6974 9.39208 16.6974 9.13438C16.6974 8.87668 16.6274 8.6778 16.4846 8.54334C16.3473 8.41169 16.1512 8.34726 15.8991 8.34726C15.647 8.34726 15.451 8.41169 15.3137 8.54334C15.1764 8.6778 15.1036 8.87668 15.1036 9.13438C15.1036 9.38928 15.1736 9.59096 15.3137 9.72541C15.451 9.85426 15.6498 9.91869 15.8991 9.91869ZM17.5182 11.4873C17.7703 11.4873 17.9664 11.4229 18.1036 11.294C18.2437 11.1624 18.3165 10.9635 18.3193 10.703C18.3193 10.4425 18.2465 10.2436 18.1036 10.1092C17.9664 9.98031 17.7703 9.91309 17.5182 9.91309C17.2661 9.91309 17.07 9.98031 16.9327 10.1092C16.7927 10.2436 16.7199 10.4425 16.7199 10.703C16.7199 10.9635 16.7899 11.1596 16.9327 11.294C17.07 11.4229 17.2661 11.4873 17.5182 11.4873ZM16.4846 12.8655C16.3501 12.9971 16.1512 13.0615 15.8991 13.0615C15.6498 13.0615 15.451 12.9971 15.3137 12.8655C15.1736 12.731 15.1036 12.5321 15.1036 12.2744C15.1036 12.0167 15.1764 11.8178 15.3137 11.6834C15.451 11.5517 15.647 11.4873 15.8991 11.4873C16.1512 11.4873 16.3473 11.5545 16.4846 11.6834C16.6274 11.8178 16.6974 12.0167 16.6974 12.2744C16.6974 12.5321 16.6274 12.731 16.4846 12.8655ZM14.2801 11.4873C14.5322 11.4873 14.7283 11.4229 14.8655 11.294C15.0084 11.1624 15.0812 10.9635 15.0784 10.703C15.0784 10.4425 15.0056 10.2436 14.8655 10.1092C14.7283 9.98031 14.5322 9.91309 14.2801 9.91309C14.028 9.91309 13.8319 9.98031 13.6947 10.1092C13.5546 10.2436 13.4818 10.4425 13.4818 10.703C13.4818 10.9635 13.5546 11.1596 13.6947 11.294C13.8319 11.4229 14.028 11.4873 14.2801 11.4873ZM9.95517 11.4817C9.76749 11.6582 9.49298 11.7478 9.13724 11.7478H9.0252L9.028 11.7702C9.042 11.8319 9.04761 11.8963 9.04761 11.9467C9.04761 12.3108 8.94957 12.5882 8.75909 12.7674C8.57422 12.9439 8.29691 13.0335 7.94116 13.0335C7.58262 13.0335 7.30811 12.9439 7.12324 12.7674C6.93556 12.5938 6.83753 12.3136 6.83753 11.9467C6.83753 11.9131 6.84873 11.8262 6.85433 11.7898C6.81232 11.7954 6.78151 11.7954 6.68629 11.7954H6.68627C6.32772 11.7954 6.05321 11.7058 5.86554 11.5293C5.67786 11.3529 5.57982 11.0756 5.57982 10.7086C5.57982 10.3417 5.67786 10.0671 5.86834 9.88228C6.05041 9.70861 6.32772 9.61897 6.68346 9.61897C6.71428 9.61897 6.80111 9.62737 6.82912 9.63018H6.84873L6.84873 9.63016C6.84313 9.57975 6.83753 9.52933 6.83753 9.47051C6.83753 9.10357 6.93556 8.82626 7.12884 8.64698C7.31091 8.47331 7.58542 8.38368 7.94397 8.38368C8.29971 8.38368 8.57422 8.47331 8.76189 8.64979C8.95517 8.83186 9.05041 9.10917 9.05041 9.47331C9.05041 9.49292 9.04761 9.54334 9.0448 9.57976C9.06161 9.57695 9.09522 9.57415 9.14004 9.57415C9.49578 9.57415 9.77029 9.66379 9.95797 9.84026C10.1512 10.0279 10.2465 10.3052 10.2465 10.6666C10.2437 11.0223 10.1456 11.2996 9.95517 11.4817Z" fill="#313235"/>
</svg>
