<svg width="24" height="24" viewBox="0 0 24 24" fill="none" xmlns="http://www.w3.org/2000/svg">
<path fill-rule="evenodd" clip-rule="evenodd" d="M21.7087 6.54208C21.7087 6.54208 21.9972 2.8418 18.07 2.8418C14.1428 2.8418 5.63304 2.8474 5.63304 2.8474C5.63304 2.8474 5.56302 2.8418 5.43696 2.8418C4.68346 2.8418 2.028 3.08549 2.028 6.52247C2.028 10.5253 2.0308 17.1863 2.0308 17.1863C2.0308 17.1863 1.7843 20.8726 5.64985 20.8726H18.0728C18.0728 20.8726 18.1933 20.8894 18.3865 20.8894C19.2689 20.8894 21.7115 20.5785 21.7115 17.1667C21.7115 13.0015 21.7087 6.54208 21.7087 6.54208ZM6.33332 19.6177V4.0995C7.18507 4.0995 8.738 4.09845 10.5005 4.09726H10.5006H10.5008L10.5012 4.09726H10.5013H10.5015C12.8135 4.0957 15.4859 4.0939 17.409 4.0939V19.6177H6.33332ZM4.11204 4.44964C3.91316 4.57569 3.34733 4.96224 3.2745 6.25636H5.10363V4.11911C4.81792 4.15272 4.44537 4.23395 4.11204 4.44964ZM20.4734 17.5169C20.4342 18.2564 20.1849 19.4945 18.6386 19.6177V17.5169H20.4734ZM3.83753 19.0015C3.40615 18.5393 3.29691 17.8894 3.2689 17.5337H5.10363V19.5813C4.55461 19.5057 4.13164 19.3152 3.83753 19.0015ZM19.9216 4.72415C20.3753 5.21154 20.4622 5.90622 20.479 6.24236H18.6358V4.13311C19.1961 4.21154 19.6274 4.40762 19.9216 4.72415ZM18.6386 16.2648H20.4818V14.1779H18.6386V16.2648ZM20.479 9.58409H18.6386V7.49446H20.479V9.58409ZM18.6386 12.923H20.479V10.8334H18.6386V12.923ZM3.26049 16.2816H5.10363V14.1947H3.26049V16.2816ZM5.10363 9.5925H3.26049V7.51126H5.10363V9.5925ZM3.26049 10.8446V12.9398H5.10363V10.8446H3.26049ZM9.61904 14.4468L14.0112 11.8642L9.61904 9.28157V14.4468ZM15.8571 11.8642C15.8571 11.6401 15.7395 11.4328 15.549 11.3208L9.31091 7.65412C9.12044 7.54208 8.88514 7.54208 8.69467 7.65412C8.50419 7.76617 8.38654 7.97345 8.38654 8.19754V15.5309C8.38654 15.755 8.50419 15.9622 8.69467 16.0743C8.78991 16.1303 8.89635 16.1583 9.00279 16.1583C9.10923 16.1583 9.21568 16.1303 9.31091 16.0743L15.549 12.4076C15.7395 12.2956 15.8571 12.0883 15.8571 11.8642Z" fill="#313235"/>
</svg>
