<svg width="24" height="24" viewBox="0 0 24 24" fill="none" xmlns="http://www.w3.org/2000/svg">
<path fill-rule="evenodd" clip-rule="evenodd" d="M21.6583 14.7984C21.7591 14.4763 21.577 14.1317 21.2465 14.0253L20.2885 13.734C20.2717 13.3306 20.1737 12.9048 19.9916 12.4426L20.6274 12.3614C20.9636 12.3194 21.2129 12.0057 21.1625 11.6695C21.1232 11.3306 20.8179 11.1009 20.479 11.1345L19.3837 11.2746C19.1681 10.9216 18.8963 10.5519 18.591 10.1569L19.4482 9.73116C19.7535 9.58271 19.8767 9.21016 19.7283 8.90764C19.5714 8.60231 19.2017 8.47906 18.8963 8.62752L17.7843 9.18495C17.4286 8.78999 17.042 8.36982 16.6134 7.93565L17.4538 7.09531C17.7003 6.85721 17.7003 6.47066 17.4538 6.22416C17.2157 5.98607 16.8263 5.98607 16.5798 6.22416L15.7395 7.0701C15.3053 6.63593 14.8823 6.24657 14.4874 5.90203L15.0476 4.79279C15.1961 4.48747 15.0812 4.11772 14.7759 3.96086C14.4622 3.80399 14.0924 3.92724 13.944 4.23256L13.507 5.09531C13.1204 4.79279 12.7507 4.52668 12.3949 4.3138L12.535 3.21296C12.577 2.87402 12.3389 2.5687 12 2.52108C11.6639 2.47906 11.3585 2.71996 11.3081 3.05609L11.2269 3.70595C11.112 3.66394 11.0028 3.62472 10.8963 3.59111C10.5518 3.48467 10.2381 3.43425 9.94117 3.42584L9.63584 2.43705C9.53781 2.11492 9.18206 1.93285 8.85993 2.03369C8.5294 2.14013 8.35013 2.48467 8.45657 2.80679L8.71988 3.65553C8.43977 3.77038 8.19887 3.92724 7.98598 4.09251L7.33332 3.44265C7.09523 3.20455 6.69747 3.20455 6.45937 3.44265C6.22128 3.68074 6.22128 4.0757 6.45937 4.3138L7.10363 4.96366C6.93836 5.16814 6.7731 5.41464 6.65825 5.69475L5.82632 5.43985C5.49579 5.33341 5.14845 5.52108 5.05041 5.84321C4.94957 6.17094 5.12324 6.51828 5.45377 6.61632L6.40895 6.92164C6.41736 7.21856 6.46778 7.54909 6.58262 7.90203C6.58656 7.91383 6.59049 7.9257 6.59444 7.93765C6.62429 8.02778 6.65542 8.12177 6.69747 8.21576L6.07002 8.29699C5.73388 8.33901 5.49299 8.64433 5.535 8.98046C5.57702 9.29139 5.84033 9.52388 6.14565 9.52388H6.22688L7.29131 9.39223C7.45657 9.65834 7.63584 9.92724 7.85153 10.2158C7.90243 10.2862 7.95333 10.3512 8.00519 10.4175C8.02753 10.446 8.05005 10.4748 8.07282 10.5043L7.24929 10.9244C6.94397 11.0813 6.82072 11.4511 6.97758 11.7564C7.08402 11.9693 7.29971 12.0925 7.5294 12.0925C7.61904 12.0925 7.71988 12.0757 7.80111 12.0281L8.88234 11.4847C9.23808 11.888 9.62464 12.3054 10.0616 12.7508L9.24649 13.5659C9.00839 13.804 9.00839 14.1905 9.24649 14.437C9.36133 14.5519 9.5266 14.6191 9.68346 14.6191C9.84033 14.6191 9.99719 14.5519 10.1204 14.437L10.9356 13.6219C11.3725 14.0505 11.8011 14.4454 12.1961 14.79L11.6527 15.8684C11.4958 16.1709 11.619 16.5407 11.9244 16.6976C12.014 16.7396 12.112 16.7648 12.2045 16.7648C12.4258 16.7648 12.6498 16.6443 12.7563 16.4286L13.1765 15.5967C13.5714 15.9104 13.9412 16.1737 14.2969 16.395L14.1653 17.4483C14.1148 17.7872 14.3613 18.0981 14.7003 18.1401H14.7731C15.0784 18.1401 15.3501 17.916 15.3837 17.6051L15.4566 16.9889C15.4945 17.0032 15.5314 17.0178 15.5676 17.0321C15.6517 17.0653 15.732 17.097 15.8123 17.1205C16.1569 17.2326 16.479 17.283 16.7675 17.2914L17.0644 18.2214C17.1456 18.4819 17.3865 18.6471 17.6498 18.6471C17.7171 18.6471 17.7759 18.6387 17.8403 18.6219C18.1625 18.5239 18.3417 18.1709 18.2437 17.8488L17.9972 17.0505C18.2857 16.9328 18.5406 16.7704 18.7563 16.5967L19.3753 17.213C19.4986 17.3306 19.6555 17.395 19.8123 17.395C19.9692 17.395 20.126 17.3278 20.2493 17.213C20.4874 16.9665 20.4874 16.5799 20.2493 16.3418L19.6218 15.7144C19.8123 15.4679 19.9692 15.213 20.0672 14.9497L20.8823 15.2046C20.9412 15.227 21.0056 15.2354 21.0644 15.2354C21.3277 15.2354 21.577 15.0617 21.6583 14.7984ZM16.902 16.0477C17.5938 16.0477 17.9832 15.6611 18.3277 15.3166C19.1597 14.4875 20.2997 13.3502 15.3277 8.37822C13.2437 6.29699 11.6751 5.12052 10.5294 4.76758C10.2829 4.69195 10.0588 4.65273 9.84313 4.65273C9.32492 4.65273 8.87114 4.88242 8.37534 5.38663C7.66666 6.08691 7.49299 6.68635 7.75629 7.53228C8.11203 8.67794 9.29691 10.241 11.3753 12.3222C14.3137 15.2438 15.9132 16.0477 16.902 16.0477ZM10.5854 16.0757C10.4874 15.748 10.14 15.5659 9.81231 15.6639L8.87954 15.9581C8.70027 15.5771 8.47618 15.2886 8.23808 15.0757L8.65825 14.2774C8.81512 13.9721 8.70027 13.6023 8.40335 13.437C8.10083 13.2802 7.72828 13.395 7.56301 13.7004L7.13444 14.5155C6.91876 14.4679 6.70307 14.4426 6.5154 14.4426C6.34173 14.4426 6.19327 14.4595 6.05321 14.4763L5.7647 13.5295C5.65825 13.2102 5.31091 13.0281 4.98879 13.1261C4.66105 13.2242 4.47898 13.5687 4.57702 13.8908L4.86554 14.8292C4.59383 14.9637 4.26329 15.1681 3.98318 15.4735L3.18486 15.0449C2.88514 14.888 2.50699 15.0029 2.35013 15.3082C2.18766 15.6051 2.30251 15.9833 2.60783 16.1401L3.40615 16.5687C3.33893 16.8824 3.33052 17.2354 3.39775 17.6471C3.39355 17.6513 3.39145 17.6513 3.38935 17.6513C3.38724 17.6513 3.38514 17.6513 3.38094 17.6555L2.43977 17.944C2.11203 18.0421 1.92996 18.3894 2.028 18.7172C2.11203 18.9805 2.35853 19.1513 2.62184 19.1513C2.68066 19.1513 2.73668 19.1457 2.80391 19.1205L3.74229 18.832C3.75069 18.832 3.75069 18.8236 3.75069 18.8236C3.93276 19.2018 4.14845 19.4903 4.38654 19.7032L3.95797 20.5183C3.80391 20.8124 3.91876 21.1905 4.21568 21.3474C4.30531 21.3978 4.40615 21.423 4.50419 21.423C4.72548 21.423 4.94117 21.297 5.04761 21.0925L5.48458 20.2774C5.70027 20.325 5.91315 20.3502 6.11203 20.3502C6.2773 20.3502 6.42576 20.3334 6.56582 20.3166L6.85433 21.255C6.93556 21.5183 7.18486 21.6919 7.44817 21.6919C7.50419 21.6919 7.56862 21.6835 7.62744 21.6667C7.95797 21.5603 8.13724 21.213 8.03921 20.8936L7.75069 19.9553C8.014 19.8152 8.34453 19.6107 8.62464 19.3138L9.43136 19.7396C9.521 19.79 9.62184 19.8068 9.71988 19.8068C9.94397 19.8068 10.1597 19.6891 10.2661 19.4763C10.4286 19.1793 10.3137 18.8012 10.0084 18.6443L9.21568 18.2242C9.29131 17.9104 9.30811 17.5491 9.24089 17.1289L10.1737 16.8404C10.5042 16.7424 10.6835 16.3978 10.5854 16.0757ZM7.93248 16.9077C8.04995 17.3028 8.39822 18.4741 6.91596 18.9553C6.85153 18.9777 6.7759 19.0029 6.70307 19.0253C6.62184 19.0561 6.38094 19.1149 6.10923 19.1149C5.63024 19.1149 5.04481 18.9777 4.70587 17.874L4.69979 17.853C4.58141 17.4434 4.24684 16.286 5.68907 15.8236C5.76189 15.7984 5.84313 15.7732 5.91035 15.7564C5.99999 15.7312 6.23248 15.6751 6.51259 15.6751C6.99159 15.6751 7.59103 15.8152 7.92996 16.8992L7.93248 16.9077Z" fill="#313235"/>
</svg>
