<svg width="24" height="24" viewBox="0 0 24 24" fill="none" xmlns="http://www.w3.org/2000/svg">
<path fill-rule="evenodd" clip-rule="evenodd" d="M21.507 21.535C21.7451 21.2997 21.7451 20.9159 21.507 20.6778L15.6891 14.9075C16.9048 13.5378 17.6499 11.7478 17.6499 9.78145C17.6499 5.49854 14.1457 2.02515 9.82634 2.02515C5.50701 2.02515 2.00281 5.49854 2.00281 9.78145C2.00281 14.0672 5.50421 17.5406 9.82634 17.5406C11.7255 17.5406 13.4622 16.8711 14.8179 15.759L20.6443 21.535C20.7619 21.6526 20.9188 21.7114 21.0756 21.7114C21.2325 21.7114 21.3866 21.6526 21.507 21.535ZM16.4258 9.78425C16.4258 13.3949 13.4622 16.3305 9.82354 16.3305C6.18488 16.3305 3.2241 13.3949 3.22129 9.78425C3.22129 6.17641 6.18488 3.24083 9.82354 3.24083C13.465 3.24083 16.4258 6.17641 16.4258 9.78425ZM9.82354 12.675C11.2857 12.675 11.6863 12.14 11.6863 10.1848C11.6863 8.95792 11.5098 8.30526 11.0952 7.99433C10.8263 7.79545 10.4118 7.69742 9.82354 7.69742C9.2325 7.69742 8.81513 7.79545 8.54622 7.99994C8.13726 8.31086 7.96079 8.96632 7.96079 10.1848C7.96079 12.14 8.36135 12.675 9.82354 12.675ZM8.57984 6.81226C8.57984 6.46212 8.57984 6.21002 9.82914 6.21002C11.0784 6.21002 11.0784 6.46212 11.0784 6.80946C11.0784 6.81198 11.0779 6.81393 11.0772 6.81608C11.0765 6.81871 11.0756 6.82164 11.0756 6.82627C10.7199 6.70862 10.3109 6.64419 9.82354 6.64419C9.33894 6.64419 8.93278 6.70862 8.57984 6.82627V6.81226ZM13.3501 9.29966C13.6443 9.29966 13.8824 9.53495 13.8824 9.82627V10.5742C13.8824 10.8655 13.6443 11.1008 13.3501 11.1008C13.056 11.1008 12.8207 10.8655 12.8207 10.5742V10.3529H12.7479C12.7423 10.8879 12.7003 11.4061 12.5742 11.8711L13.2605 12.0784C13.493 12.1484 13.6499 12.3669 13.6359 12.6078L13.5742 13.7338C13.5574 14.0139 13.3249 14.2324 13.0448 14.2324H13.0168C12.7227 14.2156 12.4986 13.9691 12.5154 13.6806L12.5546 12.9635L12.1177 12.8319C11.6891 13.3809 10.9832 13.7282 9.82354 13.7282C8.66107 13.7282 7.95519 13.3781 7.52662 12.8263L7.07284 12.9607L7.11205 13.675C7.12606 13.9663 6.90197 14.2128 6.61065 14.2296H6.58264C6.30253 14.2296 6.07003 14.0111 6.05323 13.731L5.9916 12.605C5.9776 12.3641 6.13446 12.1428 6.36695 12.0728L7.07003 11.8599C6.94959 11.3977 6.90477 10.8795 6.89917 10.3473H6.82634V10.5686C6.82634 10.8599 6.58824 11.0952 6.29693 11.0952C6.00281 11.0952 5.76471 10.8599 5.76471 10.5686V9.82066C5.76471 9.52935 6.00281 9.29405 6.29693 9.29405H6.93558C6.9748 8.86268 7.05883 8.44251 7.21849 8.06716L6.36695 7.80946C6.13166 7.73943 5.9776 7.52095 5.9916 7.27725L6.05323 6.1512C6.07003 5.85988 6.33614 5.6498 6.61065 5.6554C6.90477 5.67221 7.12606 5.9187 7.11205 6.21002L7.07284 6.92431L7.53782 7.06436C7.5355 7.04115 7.53275 7.01794 7.52999 6.9946L7.52998 6.99458C7.52275 6.93345 7.51541 6.87152 7.51541 6.80666C7.51541 5.154 9.13446 5.154 9.82634 5.154C10.5182 5.154 12.1373 5.154 12.1373 6.80666C12.1373 6.87686 12.1299 6.9434 12.1227 7.00924L12.1177 7.05596L12.5546 6.92431L12.5154 6.20722C12.4986 5.9159 12.7255 5.6694 13.0168 5.6554C13.3053 5.67221 13.5602 5.86268 13.5742 6.154L13.6359 7.28005C13.6471 7.52095 13.493 7.73943 13.2605 7.80946L12.4258 8.05876C12.5882 8.43691 12.6723 8.85708 12.7115 9.29125H13.3501V9.29966ZM10.3249 8.99153C10.3249 8.70022 10.0896 8.46492 9.79552 8.46492C9.50141 8.46492 9.26331 8.70022 9.26611 8.99153V11.7927C9.26611 12.084 9.50141 12.3193 9.79552 12.3193C10.0868 12.3193 10.3249 12.084 10.3249 11.7927V8.99153Z" fill="#313235"/>
</svg>
