<svg width="24" height="24" viewBox="0 0 24 24" fill="none" xmlns="http://www.w3.org/2000/svg">
<path fill-rule="evenodd" clip-rule="evenodd" d="M20.2549 10.8964C21.0448 10.8964 21.6862 11.5547 21.6862 12.367V15.2549C21.6862 16.0645 21.042 16.7255 20.2549 16.7255H20.168L20.1708 18.325C20.1708 19.0028 19.9159 19.6415 19.4482 20.1205C18.9804 20.6023 18.3585 20.8656 17.6975 20.8656L4.47336 20.8684C3.72826 20.8628 3.0728 20.5883 2.62742 20.1009C2.18204 19.6135 1.96636 18.9552 2.00557 18.1933V5.41461C2.00557 4.73673 2.26328 4.09808 2.72826 3.61909C3.19605 3.13729 3.8179 2.87399 4.47896 2.87399L16.8151 2.00284C16.9944 1.99724 17.1484 2.05046 17.2689 2.16811C17.3921 2.28575 17.4594 2.44822 17.4594 2.62189V4.01685C18.1484 4.17371 18.6442 4.77035 18.6442 5.48463V6.92721C18.986 7.05606 19.2885 7.24934 19.5294 7.50984C19.9748 7.99724 20.1876 8.6583 20.1484 9.42861L20.1512 10.8964H20.2549ZM3.21286 5.41461V5.44822C3.21286 5.76475 3.3277 6.06447 3.53218 6.30256C3.5602 5.49304 4.21566 4.84038 5.02518 4.84038L16.2521 4.03365V3.28856L4.51818 4.11489C4.14003 4.11769 3.8207 4.25214 3.5826 4.49584C3.34451 4.74234 3.21286 5.06727 3.21286 5.41461ZM18.958 16.7255L18.9608 18.325C18.9608 18.6723 18.8291 19 18.591 19.2465C18.3529 19.493 18.0364 19.6275 17.6975 19.6275L4.47896 19.6303C4.07 19.6275 3.72546 19.4958 3.50697 19.2549C3.29129 19.0224 3.19045 18.6779 3.21286 18.2297V7.62469C3.59381 7.85718 4.02518 7.99164 4.47896 7.99164V8.00004L17.6975 7.99724C18.1036 8.00004 18.4341 8.12609 18.6498 8.36419C18.8627 8.59948 18.9636 8.94402 18.9411 9.4006L18.9439 10.8992H12.2857C10.7759 10.8992 9.54899 12.1569 9.54899 13.7059V13.9188C9.54899 15.465 10.7787 16.7255 12.2857 16.7255H18.958ZM20.479 12.367V15.2549C20.479 15.381 20.3781 15.4846 20.2549 15.4818H12.2857C11.4453 15.4818 10.7591 14.7788 10.7591 13.916V13.7031C10.7591 12.8404 11.4425 12.1373 12.2857 12.1373H20.2549C20.3781 12.1373 20.479 12.2381 20.479 12.367ZM5.0672 6.08127L16.8543 5.23533H16.8571L17.1428 5.21573C17.3025 5.21573 17.4341 5.33898 17.4341 5.48743V6.75354L4.72266 6.75074C4.72378 6.7429 4.7258 6.73505 4.72781 6.72721C4.73084 6.71545 4.73387 6.70368 4.73387 6.69192V6.35298C4.73387 6.20452 4.86552 6.08407 5.0672 6.08127ZM13.451 13.8936C13.451 13.3418 13.014 12.8936 12.4762 12.8936C11.9383 12.8936 11.5042 13.3418 11.5042 13.8936C11.5042 14.4454 11.9383 14.8936 12.4762 14.8936C13.014 14.8936 13.451 14.4454 13.451 13.8936Z" fill="#313235"/>
</svg>
