<svg width="24" height="24" viewBox="0 0 24 24" fill="none" xmlns="http://www.w3.org/2000/svg">
<path fill-rule="evenodd" clip-rule="evenodd" d="M11.9468 2.15625C12.0561 2.15625 12.1597 2.20107 12.2353 2.2767C13.5967 3.64925 18.9328 10.526 18.9412 14.8033C18.9552 19.2011 16.3558 21.8313 11.9917 21.8453H11.958C9.81518 21.8453 8.05048 21.2095 6.8516 20.0106C5.64711 18.8033 5.00566 17.0162 5.00006 14.8453C4.98605 10.5204 10.2998 3.64365 11.6583 2.2767C11.7367 2.20107 11.8404 2.15625 11.9468 2.15625ZM11.958 21.0218H11.9917C15.9608 21.0106 18.1401 18.8005 18.1317 14.8061C18.1205 11.0526 13.4987 4.91535 11.9468 3.16745C10.4006 4.91255 5.80398 11.047 5.81518 14.8425C5.82358 16.8201 6.3642 18.3635 7.42863 19.428C8.48465 20.484 10.0113 21.0218 11.958 21.0218Z" fill="#313235"/>
</svg>
